<svg width="150" height="150" viewBox="0 0 150 150" fill="none" xmlns="http://www.w3.org/2000/svg">
<path d="M91.0963 6.73839L90.4883 17.4866C94.2471 19.8557 102.362 24.1425 104.752 22.3369C107.74 20.0798 108.308 5.82496 107.955 3.64847C107.601 1.47199 107.156 0.90767 103.117 0.679224C99.0786 0.450779 102.935 3.90369 100.115 3.20502C97.294 2.50635 97.4308 0.0880078 94.8023 0.208895C92.1738 0.329783 91.2635 3.78264 91.0963 6.73839Z" fill="#212226"/>
<path d="M91.0963 6.73839L90.4883 17.4866C94.2471 19.8557 102.362 24.1425 104.752 22.3369C107.74 20.0798 108.308 5.82496 107.955 3.64847C107.601 1.47199 107.156 0.90767 103.117 0.679224C99.0786 0.450779 102.935 3.90369 100.115 3.20502C97.294 2.50635 97.4308 0.0880078 94.8023 0.208895C92.1738 0.329783 91.2635 3.78264 91.0963 6.73839Z" fill="url(#paint0_linear)"/>
<path d="M91.0948 16.4739C92.7261 15.7633 96.3508 14.8443 97.7993 16.8531C98.4868 17.8066 98.6214 18.6847 98.4999 19.4067C99.3272 18.1926 100.533 17.0078 101.908 17.0856C104.504 17.2324 106.405 18.1428 106.858 21.6475C107.31 25.1521 107.924 44.9908 108.16 48.4833C108.397 51.9757 109.614 61.1437 108.94 65.3875C108.266 69.6313 109.161 80.6544 106.319 81.0289C103.478 81.4034 84.5109 83.0068 81.7899 81.2472C79.0689 79.4876 82.1672 51.5626 83.8119 45.5003C85.4566 39.4381 86.4942 17.257 91.0948 16.4739Z" fill="#31374B"/>
<path d="M91.0948 16.4739C92.7261 15.7633 96.3508 14.8443 97.7993 16.8531C98.4868 17.8066 98.6214 18.6847 98.4999 19.4067C99.3272 18.1926 100.533 17.0078 101.908 17.0856C104.504 17.2324 106.405 18.1428 106.858 21.6475C107.31 25.1521 107.924 44.9908 108.16 48.4833C108.397 51.9757 109.614 61.1437 108.94 65.3875C108.266 69.6313 109.161 80.6544 106.319 81.0289C103.478 81.4034 84.5109 83.0068 81.7899 81.2472C79.0689 79.4876 82.1672 51.5626 83.8119 45.5003C85.4566 39.4381 86.4942 17.257 91.0948 16.4739Z" fill="url(#paint1_linear)"/>
<path d="M80.4182 81.3608C81.4459 79.1735 90.3805 78.0274 94.4689 77.7525C98.5574 77.4775 108.175 75.743 107.759 79.3416C107.307 83.2439 105.225 96.0766 104.952 97.983C104.678 99.8893 105.191 110.926 103.393 117.345C101.596 123.765 94.8854 131.433 94.4689 129.671C94.1358 128.261 83.7698 127.311 78.7423 126.59L75.3644 112.951C78.9582 108.116 79.1336 84.0949 80.4182 81.3608Z" fill="#8B99A6"/>
<path d="M80.4182 81.3608C81.4459 79.1735 90.3805 78.0274 94.4689 77.7525C98.5574 77.4775 108.175 75.743 107.759 79.3416C107.307 83.2439 105.225 96.0766 104.952 97.983C104.678 99.8893 105.191 110.926 103.393 117.345C101.596 123.765 94.8854 131.433 94.4689 129.671C94.1358 128.261 83.7698 127.311 78.7423 126.59L75.3644 112.951C78.9582 108.116 79.1336 84.0949 80.4182 81.3608Z" fill="url(#paint2_linear)"/>
<path d="M93.4344 125.779C93.7714 123.988 90.4576 125.611 88.7342 125.513C87.4316 124.922 85.0761 123.497 84.9741 125.3C84.872 127.104 82.6802 132.302 81.3102 134.293L82.4253 141.183L87.6556 144.581L93.7057 141.821L94.1722 133.576C94.3762 129.968 93.0973 127.569 93.4344 125.779Z" fill="#AA6431"/>
<path d="M93.4344 125.779C93.7714 123.988 90.4576 125.611 88.7342 125.513C87.4316 124.922 85.0761 123.497 84.9741 125.3C84.872 127.104 82.6802 132.302 81.3102 134.293L82.4253 141.183L87.6556 144.581L93.7057 141.821L94.1722 133.576C94.3762 129.968 93.0973 127.569 93.4344 125.779Z" fill="url(#paint3_linear)"/>
<path d="M93.3011 139.234L93.7075 132.049C94.3296 133.629 96.0175 137.328 95.9014 139.381C95.7852 141.434 91.1529 147.866 88.0799 147.692C85.0069 147.518 80.2752 143.131 79.933 140.795C79.5909 138.459 82.7572 128.598 82.5975 131.42C82.4379 134.243 81.878 135.756 82.1911 138.606C82.5042 141.455 84.7664 143.385 88.3122 143.586C91.1488 143.746 92.82 140.752 93.3011 139.234Z" fill="#212226"/>
<path d="M93.3011 139.234L93.7075 132.049C94.3296 133.629 96.0175 137.328 95.9014 139.381C95.7852 141.434 91.1529 147.866 88.0799 147.692C85.0069 147.518 80.2752 143.131 79.933 140.795C79.5909 138.459 82.7572 128.598 82.5975 131.42C82.4379 134.243 81.878 135.756 82.1911 138.606C82.5042 141.455 84.7664 143.385 88.3122 143.586C91.1488 143.746 92.82 140.752 93.3011 139.234Z" fill="url(#paint4_linear)"/>
<path d="M94.8105 127.499C94.9381 125.243 100.239 116.404 102.874 112.266C103.783 114.375 116.278 125.37 116.089 128.703C115.901 132.036 112.075 140.564 110.934 142.557C109.792 144.55 112.167 148.028 110.557 149.222C108.946 150.417 96.7124 148.439 95.503 147.085C94.2937 145.731 98.594 147.003 100.945 146.364C103.296 145.725 104.988 133.99 106.144 131.741C107.3 129.492 94.651 130.319 94.8105 127.499Z" fill="#AA6431"/>
<path d="M94.8105 127.499C94.9381 125.243 100.239 116.404 102.874 112.266C103.783 114.375 116.278 125.37 116.089 128.703C115.901 132.036 112.075 140.564 110.934 142.557C109.792 144.55 112.167 148.028 110.557 149.222C108.946 150.417 96.7124 148.439 95.503 147.085C94.2937 145.731 98.594 147.003 100.945 146.364C103.296 145.725 104.988 133.99 106.144 131.741C107.3 129.492 94.651 130.319 94.8105 127.499Z" fill="url(#paint5_linear)"/>
<path d="M79.7696 126.333C80.3858 125.511 77.9721 115.206 76.6882 110.156C75.1475 110.156 61.2812 103.736 58.9701 102.966C56.6591 102.195 47.4149 101.168 46.3878 101.168C45.3606 101.168 40.4818 99.3706 37.6572 98.6003C34.8326 97.8299 32.7783 104.763 34.8326 106.561C36.8869 108.358 43.3064 107.074 45.3607 106.561C47.4149 106.047 65.3897 115.548 67.1872 116.062C68.9847 116.575 69.755 120.427 71.8093 121.968C73.8636 123.508 78.9992 127.36 79.7696 126.333Z" fill="#AA6431"/>
<path d="M79.7696 126.333C80.3858 125.511 77.9721 115.206 76.6882 110.156C75.1475 110.156 61.2812 103.736 58.9701 102.966C56.6591 102.195 47.4149 101.168 46.3878 101.168C45.3606 101.168 40.4818 99.3706 37.6572 98.6003C34.8326 97.8299 32.7783 104.763 34.8326 106.561C36.8869 108.358 43.3064 107.074 45.3607 106.561C47.4149 106.047 65.3897 115.548 67.1872 116.062C68.9847 116.575 69.755 120.427 71.8093 121.968C73.8636 123.508 78.9992 127.36 79.7696 126.333Z" fill="url(#paint6_linear)"/>
<defs>
<linearGradient id="paint0_linear" x1="68.3938" y1="1.85412" x2="101.103" y2="14.6065" gradientUnits="userSpaceOnUse">
<stop stop-color="white"/>
<stop offset="1" stop-color="white" stop-opacity="0"/>
</linearGradient>
<linearGradient id="paint1_linear" x1="45.732" y1="22.397" x2="103.927" y2="36.1505" gradientUnits="userSpaceOnUse">
<stop stop-color="white"/>
<stop offset="1" stop-color="white" stop-opacity="0"/>
</linearGradient>
<linearGradient id="paint2_linear" x1="64.401" y1="105.19" x2="86.3341" y2="106.601" gradientUnits="userSpaceOnUse">
<stop stop-color="white"/>
<stop offset="1" stop-color="white" stop-opacity="0"/>
</linearGradient>
<linearGradient id="paint3_linear" x1="72.843" y1="134.732" x2="87.075" y2="134.583" gradientUnits="userSpaceOnUse">
<stop stop-color="white"/>
<stop offset="1" stop-color="white" stop-opacity="0"/>
</linearGradient>
<linearGradient id="paint4_linear" x1="58.791" y1="131.926" x2="87.7166" y2="145.793" gradientUnits="userSpaceOnUse">
<stop stop-color="white"/>
<stop offset="1" stop-color="white" stop-opacity="0"/>
</linearGradient>
<linearGradient id="paint5_linear" x1="80.533" y1="131.413" x2="104.24" y2="131.32" gradientUnits="userSpaceOnUse">
<stop stop-color="white"/>
<stop offset="1" stop-color="white" stop-opacity="0"/>
</linearGradient>
<linearGradient id="paint6_linear" x1="3.79752" y1="113.944" x2="53.4392" y2="105.396" gradientUnits="userSpaceOnUse">
<stop stop-color="white"/>
<stop offset="1" stop-color="white" stop-opacity="0"/>
</linearGradient>
</defs>
</svg>
