<svg width="150" height="150" viewBox="0 0 150 150" fill="none" xmlns="http://www.w3.org/2000/svg">
<path d="M97.9092 5.80567L96.1298 15.0945C99.2571 17.5708 106.104 22.1962 108.471 20.8877C111.431 19.2522 113.932 9.63813 113.862 7.70465C113.791 5.77118 114.445 3.20015 110.82 2.55639C107.194 1.91264 108.142 6.72459 105.671 5.80574C103.201 4.88688 105.671 1.15223 102.007 0.530292C99.6462 0.129633 98.3985 3.25124 97.9092 5.80567Z" fill="#212226"/>
<path d="M97.9092 5.80567L96.1298 15.0945C99.2571 17.5708 106.104 22.1962 108.471 20.8877C111.431 19.2522 113.932 9.63813 113.862 7.70465C113.791 5.77118 114.445 3.20015 110.82 2.55639C107.194 1.91264 108.142 6.72459 105.671 5.80574C103.201 4.88688 105.671 1.15223 102.007 0.530292C99.6462 0.129633 98.3985 3.25124 97.9092 5.80567Z" fill="url(#paint0_linear)"/>
<path d="M97.0438 12.4694C98.574 11.947 101.93 11.364 103.111 13.211C103.672 14.0876 103.735 14.8644 103.576 15.489C104.41 14.4768 105.585 13.5133 106.83 13.6655C109.178 13.9525 110.845 14.8656 111.021 17.9612C111.197 21.0567 110.422 38.4603 110.402 41.532C110.382 44.6036 110.872 52.7033 109.975 56.377C109.077 60.0507 108.045 72.3717 105.437 72.5259C102.83 72.6801 86.5918 70.3079 84.2373 68.6013C81.8827 66.8947 86.574 42.6394 88.4758 37.4332C90.3776 32.227 92.8105 12.8738 97.0438 12.4694Z" fill="#31374B"/>
<path d="M97.0438 12.4694C98.574 11.947 101.93 11.364 103.111 13.211C103.672 14.0876 103.735 14.8644 103.576 15.489C104.41 14.4768 105.585 13.5133 106.83 13.6655C109.178 13.9525 110.845 14.8656 111.021 17.9612C111.197 21.0567 110.422 38.4603 110.402 41.532C110.382 44.6036 110.872 52.7033 109.975 56.377C109.077 60.0507 108.045 72.3717 105.437 72.5259C102.83 72.6801 86.5918 70.3079 84.2373 68.6013C81.8827 66.8947 86.574 42.6394 88.4758 37.4332C90.3776 32.227 92.8105 12.8738 97.0438 12.4694Z" fill="url(#paint1_linear)"/>
<path d="M83.9087 65.7393C85.0881 63.9486 91.1794 64.8263 94.9072 65.0373C98.6351 65.2484 107.162 68.9711 106.374 72.0576C105.519 75.4046 103.096 82.831 102.63 84.4602C102.165 86.0895 100.151 95.83 99.8221 99.905C99.4929 103.98 87.3603 111.781 87.1854 110.202C87.0455 108.938 80.8839 105.767 76.421 104.585L76.8889 93.3527C80.6913 89.5401 82.4344 67.9777 83.9087 65.7393Z" fill="#8B99A6"/>
<path d="M83.9087 65.7393C85.0881 63.9486 91.1794 64.8263 94.9072 65.0373C98.6351 65.2484 107.162 68.9711 106.374 72.0576C105.519 75.4046 103.096 82.831 102.63 84.4602C102.165 86.0895 100.151 95.83 99.8221 99.905C99.4929 103.98 87.3603 111.781 87.1854 110.202C87.0455 108.938 80.8839 105.767 76.421 104.585L76.8889 93.3527C80.6913 89.5401 82.4344 67.9777 83.9087 65.7393Z" fill="url(#paint2_linear)"/>
<path d="M87.0119 107.233C87.5214 105.712 84.3398 106.759 82.7928 106.484C81.6827 105.826 79.7162 104.326 79.4176 105.884C79.119 107.443 77.4184 110.024 75.952 111.606L74.782 119.328L79.6359 122.963L85.4217 121.227L86.7868 114.101C87.3841 110.983 86.5023 108.754 87.0119 107.233Z" fill="#AA6431"/>
<path d="M87.0119 107.233C87.5214 105.712 84.3398 106.759 82.7928 106.484C81.6827 105.826 79.7162 104.326 79.4176 105.884C79.119 107.443 77.4184 110.024 75.952 111.606L74.782 119.328L79.6359 122.963L85.4217 121.227L86.7868 114.101C87.3841 110.983 86.5023 108.754 87.0119 107.233Z" fill="url(#paint3_linear)"/>
<path d="M85.3521 118.93L86.5417 112.72C86.9233 114.164 88.0261 117.57 87.6862 119.345C87.3463 121.119 82.4224 126.207 79.6639 125.717C76.9055 125.227 73.1293 120.888 73.0873 118.816C73.0453 116.745 77.0363 108.51 76.5689 110.95C76.1016 113.389 75.4223 114.644 75.3794 117.159C75.3364 119.674 77.1609 121.603 80.3437 122.169C82.8899 122.621 84.7436 120.198 85.3521 118.93Z" fill="#212226"/>
<path d="M85.3521 118.93L86.5417 112.72C86.9233 114.164 88.0261 117.57 87.6862 119.345C87.3463 121.119 82.4224 126.207 79.6639 125.717C76.9055 125.227 73.1293 120.888 73.0873 118.816C73.0453 116.745 77.0363 108.51 76.5689 110.95C76.1016 113.389 75.4223 114.644 75.3794 117.159C75.3364 119.674 77.1609 121.603 80.3437 122.169C82.8899 122.621 84.7436 120.198 85.3521 118.93Z" fill="url(#paint4_linear)"/>
<path d="M77.3561 103.649C77.8753 102.813 79.7959 97.594 78.0181 93.0531C76.5087 93.2348 62.2627 88.9054 59.9192 88.4622C57.5757 88.019 48.4133 88.1549 47.407 88.276C46.4007 88.3971 41.4358 87.3025 38.5891 86.9198C35.7425 86.5372 34.4437 93.2214 36.6414 94.6493C38.839 96.0772 44.9962 94.1271 46.9559 93.4076C48.9156 92.6882 58.1053 96.8318 59.9192 97.097C61.7331 97.3621 68.6326 101.29 70.8038 102.479C72.975 103.668 76.7071 104.695 77.3561 103.649Z" fill="#AA6431"/>
<path d="M77.3561 103.649C77.8753 102.813 79.7959 97.594 78.0181 93.0531C76.5087 93.2348 62.2627 88.9054 59.9192 88.4622C57.5757 88.019 48.4133 88.1549 47.407 88.276C46.4007 88.3971 41.4358 87.3025 38.5891 86.9198C35.7425 86.5372 34.4437 93.2214 36.6414 94.6493C38.839 96.0772 44.9962 94.1271 46.9559 93.4076C48.9156 92.6882 58.1053 96.8318 59.9192 97.097C61.7331 97.3621 68.6326 101.29 70.8038 102.479C72.975 103.668 76.7071 104.695 77.3561 103.649Z" fill="url(#paint5_linear)"/>
<path d="M87.1845 109.968C89.0566 105.1 96.545 101.075 100.055 99.6711C100.055 102.011 98.6511 106.691 98.1831 108.096C97.7151 109.5 98.1831 113.946 98.1831 115.818C98.1831 117.69 95.609 124.476 95.1409 125.88C94.6729 127.285 95.609 147.176 95.609 148.346C95.609 149.516 93.0348 149.75 91.8647 149.984C90.6947 150.218 84.1423 147.878 84.3764 147.176C84.6104 146.473 87.1845 146.005 88.3546 144.835C89.5246 143.665 88.3546 127.285 88.3546 125.646C88.3546 124.008 89.5246 114.648 88.3546 113.946C87.4185 113.384 87.1845 111.06 87.1845 109.968Z" fill="#AA6431"/>
<path d="M87.1845 109.968C89.0566 105.1 96.545 101.075 100.055 99.6711C100.055 102.011 98.6511 106.691 98.1831 108.096C97.7151 109.5 98.1831 113.946 98.1831 115.818C98.1831 117.69 95.609 124.476 95.1409 125.88C94.6729 127.285 95.609 147.176 95.609 148.346C95.609 149.516 93.0348 149.75 91.8647 149.984C90.6947 150.218 84.1423 147.878 84.3764 147.176C84.6104 146.473 87.1845 146.005 88.3546 144.835C89.5246 143.665 88.3546 127.285 88.3546 125.646C88.3546 124.008 89.5246 114.648 88.3546 113.946C87.4185 113.384 87.1845 111.06 87.1845 109.968Z" fill="url(#paint6_linear)"/>
<defs>
<linearGradient id="paint0_linear" x1="76.9744" y1="-1.10284" x2="105.504" y2="15.5383" gradientUnits="userSpaceOnUse">
<stop stop-color="white"/>
<stop offset="1" stop-color="white" stop-opacity="0"/>
</linearGradient>
<linearGradient id="paint1_linear" x1="55.4022" y1="15.0341" x2="107.027" y2="31.7595" gradientUnits="userSpaceOnUse">
<stop stop-color="white"/>
<stop offset="1" stop-color="white" stop-opacity="0"/>
</linearGradient>
<linearGradient id="paint2_linear" x1="66.9002" y1="87.0867" x2="85.65" y2="90.8637" gradientUnits="userSpaceOnUse">
<stop stop-color="white"/>
<stop offset="1" stop-color="white" stop-opacity="0"/>
</linearGradient>
<linearGradient id="paint3_linear" x1="68.2523" y1="112.915" x2="80.5241" y2="114.432" gradientUnits="userSpaceOnUse">
<stop stop-color="white"/>
<stop offset="1" stop-color="white" stop-opacity="0"/>
</linearGradient>
<linearGradient id="paint4_linear" x1="54.9873" y1="108.767" x2="78.9966" y2="124.854" gradientUnits="userSpaceOnUse">
<stop stop-color="white"/>
<stop offset="1" stop-color="white" stop-opacity="0"/>
</linearGradient>
<linearGradient id="paint5_linear" x1="8.5403" y1="102.468" x2="52.7106" y2="88.1115" gradientUnits="userSpaceOnUse">
<stop stop-color="white"/>
<stop offset="1" stop-color="white" stop-opacity="0"/>
</linearGradient>
<linearGradient id="paint6_linear" x1="74.0424" y1="127.393" x2="91.5022" y2="126.822" gradientUnits="userSpaceOnUse">
<stop stop-color="white"/>
<stop offset="1" stop-color="white" stop-opacity="0"/>
</linearGradient>
</defs>
</svg>
