<svg width="150" height="150" viewBox="0 0 150 150" fill="none" xmlns="http://www.w3.org/2000/svg">
<g clip-path="url(#clip0)">
<path d="M101.841 111.775C104.062 110.766 109.831 112.196 112.438 113.037C113.616 116.065 115.466 122.373 113.448 123.382C110.925 124.643 105.374 126.157 104.112 128.428C103.103 130.245 103.691 132.886 104.112 133.979C105.121 133.979 107.745 134.181 110.168 134.988C113.195 135.998 113.952 137.007 112.438 138.268C110.925 139.53 100.327 138.521 100.075 137.007C99.8227 135.493 97.8042 124.139 98.3088 122.12C98.8134 120.102 99.0657 113.037 101.841 111.775Z" fill="#AA6431"/>
<path d="M101.841 111.775C104.062 110.766 109.831 112.196 112.438 113.037C113.616 116.065 115.466 122.373 113.448 123.382C110.925 124.643 105.374 126.157 104.112 128.428C103.103 130.245 103.691 132.886 104.112 133.979C105.121 133.979 107.745 134.181 110.168 134.988C113.195 135.998 113.952 137.007 112.438 138.268C110.925 139.53 100.327 138.521 100.075 137.007C99.8227 135.493 97.8042 124.139 98.3088 122.12C98.8134 120.102 99.0657 113.037 101.841 111.775Z" fill="url(#paint0_linear)"/>
<path d="M127.83 123.886C128.031 124.694 128.755 126.746 129.091 127.671C125.138 131.288 117.081 138.42 116.475 138.016C115.719 137.511 111.681 127.671 113.448 126.914C115.214 126.157 127.577 122.877 127.83 123.886Z" fill="#AA6431"/>
<path d="M127.83 123.886C128.031 124.694 128.755 126.746 129.091 127.671C125.138 131.288 117.081 138.42 116.475 138.016C115.719 137.511 111.681 127.671 113.448 126.914C115.214 126.157 127.577 122.877 127.83 123.886Z" fill="url(#paint1_linear)"/>
<path d="M150.033 16.1481C149.226 14.5333 143.641 4.70987 140.95 0C138.931 0 135.046 0.35324 135.651 1.7662C136.408 3.5324 136.661 8.07406 137.922 10.0926C138.931 11.7074 137.502 14.8024 136.661 16.1481C139.1 18.1666 144.482 22.1532 146.501 21.9514C149.024 21.699 151.043 18.1666 150.033 16.1481Z" fill="#212226"/>
<path d="M150.033 16.1481C149.226 14.5333 143.641 4.70987 140.95 0C138.931 0 135.046 0.35324 135.651 1.7662C136.408 3.5324 136.661 8.07406 137.922 10.0926C138.931 11.7074 137.502 14.8024 136.661 16.1481C139.1 18.1666 144.482 22.1532 146.501 21.9514C149.024 21.699 151.043 18.1666 150.033 16.1481Z" fill="url(#paint2_linear)"/>
<path d="M131.362 86.5437C131.16 84.9289 116.476 79.1425 109.158 76.4512C107.897 79.2266 108.401 99.1595 108.401 101.683C108.401 103.701 111.597 112.784 113.195 117.074C117.653 119.849 126.871 125.35 128.082 125.148C129.596 124.896 129.344 115.055 129.344 113.037C129.344 111.018 127.073 96.6363 127.325 94.6178C127.577 92.5993 131.614 88.5623 131.362 86.5437Z" fill="#8B99A6"/>
<path d="M131.362 86.5437C131.16 84.9289 116.476 79.1425 109.158 76.4512C107.897 79.2266 108.401 99.1595 108.401 101.683C108.401 103.701 111.597 112.784 113.195 117.074C117.653 119.849 126.871 125.35 128.082 125.148C129.596 124.896 129.344 115.055 129.344 113.037C129.344 111.018 127.073 96.6363 127.325 94.6178C127.577 92.5993 131.614 88.5623 131.362 86.5437Z" fill="url(#paint3_linear)"/>
<path d="M131.867 139.782C133.885 137.562 131.026 130.11 129.344 126.662C124.802 130.026 115.769 137.007 115.971 138.016C116.223 139.278 116.728 141.548 117.989 141.548C119.251 141.548 129.344 142.558 131.867 139.782Z" fill="#212226"/>
<path d="M131.867 139.782C133.885 137.562 131.026 130.11 129.344 126.662C124.802 130.026 115.769 137.007 115.971 138.016C116.223 139.278 116.728 141.548 117.989 141.548C119.251 141.548 129.344 142.558 131.867 139.782Z" fill="url(#paint4_linear)"/>
<path d="M118.494 50.2106C116.677 53.6421 111.345 69.1342 108.906 76.4513C115.046 80.0678 127.931 87.2503 130.353 87.0485C133.381 86.7962 132.119 79.9837 132.119 76.4513C132.119 72.919 134.894 55.2569 135.399 52.986C135.904 50.7152 145.492 35.324 146.501 34.0624C147.51 32.8009 148.015 23.9699 147.762 21.4468C147.51 18.9236 136.913 14.6343 136.408 16.9051C135.904 19.176 130.605 35.8287 129.343 37.5949C128.082 39.3611 120.765 45.9213 118.494 50.2106Z" fill="#31374B"/>
<path d="M118.494 50.2106C116.677 53.6421 111.345 69.1342 108.906 76.4513C115.046 80.0678 127.931 87.2503 130.353 87.0485C133.381 86.7962 132.119 79.9837 132.119 76.4513C132.119 72.919 134.894 55.2569 135.399 52.986C135.904 50.7152 145.492 35.324 146.501 34.0624C147.51 32.8009 148.015 23.9699 147.762 21.4468C147.51 18.9236 136.913 14.6343 136.408 16.9051C135.904 19.176 130.605 35.8287 129.343 37.5949C128.082 39.3611 120.765 45.9213 118.494 50.2106Z" fill="url(#paint5_linear)"/>
<path d="M109.411 145.333C108.603 144.324 103.523 143.904 101.084 143.819C99.5703 143.063 101.084 138.016 101.084 136.25C101.084 134.484 103.103 129.942 103.86 128.428C104.617 126.914 110.672 125.653 112.691 125.653C114.709 125.653 121.017 126.157 123.54 125.653C126.063 125.148 128.839 118.336 128.839 117.326C128.839 116.317 126.82 111.271 125.306 109.757C123.793 108.243 120.512 107.991 117.989 108.495C115.466 109 115.718 115.056 114.457 115.813C113.195 116.57 111.934 115.308 109.411 115.813C106.887 116.317 98.3088 119.85 97.0472 121.111C95.7856 122.373 94.2717 133.475 94.0194 135.493C93.7671 137.512 96.0379 147.1 97.0472 148.613C98.0565 150.127 108.654 150.127 110.672 149.875C112.691 149.623 110.42 146.595 109.411 145.333Z" fill="#AA6431"/>
<path d="M109.411 145.333C108.603 144.324 103.523 143.904 101.084 143.819C99.5703 143.063 101.084 138.016 101.084 136.25C101.084 134.484 103.103 129.942 103.86 128.428C104.617 126.914 110.672 125.653 112.691 125.653C114.709 125.653 121.017 126.157 123.54 125.653C126.063 125.148 128.839 118.336 128.839 117.326C128.839 116.317 126.82 111.271 125.306 109.757C123.793 108.243 120.512 107.991 117.989 108.495C115.466 109 115.718 115.056 114.457 115.813C113.195 116.57 111.934 115.308 109.411 115.813C106.887 116.317 98.3088 119.85 97.0472 121.111C95.7856 122.373 94.2717 133.475 94.0194 135.493C93.7671 137.512 96.0379 147.1 97.0472 148.613C98.0565 150.127 108.654 150.127 110.672 149.875C112.691 149.623 110.42 146.595 109.411 145.333Z" fill="url(#paint6_linear)"/>
</g>
<defs>
<linearGradient id="paint0_linear" x1="87.6154" y1="126.527" x2="105.508" y2="125.423" gradientUnits="userSpaceOnUse">
<stop stop-color="white"/>
<stop offset="1" stop-color="white" stop-opacity="0"/>
</linearGradient>
<linearGradient id="paint1_linear" x1="102.413" y1="131.592" x2="120.093" y2="129.51" gradientUnits="userSpaceOnUse">
<stop stop-color="white"/>
<stop offset="1" stop-color="white" stop-opacity="0"/>
</linearGradient>
<linearGradient id="paint2_linear" x1="115.674" y1="3.13696" x2="145.324" y2="11.5776" gradientUnits="userSpaceOnUse">
<stop stop-color="white"/>
<stop offset="1" stop-color="white" stop-opacity="0"/>
</linearGradient>
<linearGradient id="paint3_linear" x1="98.6516" y1="106.834" x2="116.362" y2="105.599" gradientUnits="userSpaceOnUse">
<stop stop-color="white"/>
<stop offset="1" stop-color="white" stop-opacity="0"/>
</linearGradient>
<linearGradient id="paint4_linear" x1="93.505" y1="128.814" x2="123.163" y2="142.695" gradientUnits="userSpaceOnUse">
<stop stop-color="white"/>
<stop offset="1" stop-color="white" stop-opacity="0"/>
</linearGradient>
<linearGradient id="paint5_linear" x1="56.219" y1="26.376" x2="136.634" y2="45.1635" gradientUnits="userSpaceOnUse">
<stop stop-color="white"/>
<stop offset="1" stop-color="white" stop-opacity="0"/>
</linearGradient>
<linearGradient id="paint6_linear" x1="71.0601" y1="131.251" x2="109.587" y2="127.875" gradientUnits="userSpaceOnUse">
<stop stop-color="white"/>
<stop offset="1" stop-color="white" stop-opacity="0"/>
</linearGradient>
<clipPath id="clip0">
<rect width="150" height="150" fill="white"/>
</clipPath>
</defs>
</svg>
