<svg width="150" height="150" viewBox="0 0 150 150" fill="none" xmlns="http://www.w3.org/2000/svg">
<path d="M109.418 134.187C105.845 133.862 101.703 132.428 100.079 131.751H95.613V118.352L102.109 115.104C101.433 117.946 100.485 124.036 102.109 125.66C104.14 127.691 113.072 126.066 115.914 127.285C118.756 128.503 113.884 134.593 109.418 134.187Z" fill="#AA6431"/>
<path d="M109.418 134.187C105.845 133.862 101.703 132.428 100.079 131.751H95.613V118.352L102.109 115.104C101.433 117.946 100.485 124.036 102.109 125.66C104.14 127.691 113.072 126.066 115.914 127.285C118.756 128.503 113.884 134.593 109.418 134.187Z" fill="url(#paint0_linear)"/>
<path d="M12.3778 105.765C12.3778 105.765 3.44524 104.141 1.00909 105.765C-1.42707 107.389 1.00909 139.871 3.44524 142.308C5.88139 144.744 9.94165 142.714 9.94165 139.871V131.751C9.94165 130.452 12.9192 127.149 14.4079 125.661L12.3778 105.765Z" fill="#212226"/>
<path d="M12.3778 105.765C12.3778 105.765 3.44524 104.141 1.00909 105.765C-1.42707 107.389 1.00909 139.871 3.44524 142.308C5.88139 144.744 9.94165 142.714 9.94165 139.871V131.751C9.94165 130.452 12.9192 127.149 14.4079 125.661L12.3778 105.765Z" fill="url(#paint1_linear)"/>
<path d="M56.2285 128.097V124.442L46.4839 110.231L37.9574 114.698C39.8522 117.946 43.8854 124.93 44.8598 126.878C46.0779 129.315 52.1683 137.841 58.2587 137.841C64.3491 137.841 62.725 133.375 61.5069 130.939C60.5324 128.99 57.582 128.232 56.2285 128.097Z" fill="#212226"/>
<path d="M56.2285 128.097V124.442L46.4839 110.231L37.9574 114.698C39.8522 117.946 43.8854 124.93 44.8598 126.878C46.0779 129.315 52.1683 137.841 58.2587 137.841C64.3491 137.841 62.725 133.375 61.5069 130.939C60.5324 128.99 57.582 128.232 56.2285 128.097Z" fill="url(#paint2_linear)"/>
<path d="M103.328 74.9071C107.225 74.5822 111.989 88.8473 113.884 96.0204C108.064 102.111 95.6943 114.779 92.7709 116.728C89.1167 119.164 60.2888 125.66 56.6346 125.66C52.9803 125.66 43.6418 113.48 47.702 111.043C51.7623 108.607 84.6503 100.081 84.6503 98.4566V87.494C89.252 83.4337 99.4297 75.2319 103.328 74.9071Z" fill="#31374B"/>
<path d="M103.328 74.9071C107.225 74.5822 111.989 88.8473 113.884 96.0204C108.064 102.111 95.6943 114.779 92.7709 116.728C89.1167 119.164 60.2888 125.66 56.6346 125.66C52.9803 125.66 43.6418 113.48 47.702 111.043C51.7623 108.607 84.6503 100.081 84.6503 98.4566V87.494C89.252 83.4337 99.4297 75.2319 103.328 74.9071Z" fill="url(#paint3_linear)"/>
<path d="M79.7782 52.1695C84.0008 47.622 90.1995 46.7558 92.771 46.8912L98.8613 78.9673C94.6657 82.7569 85.6249 90.4172 83.0263 90.742C79.7781 91.148 74.9058 102.517 69.2215 104.141C63.5372 105.765 18.4683 125.254 15.2201 126.878C11.9719 128.502 9.12971 105.765 11.5659 104.141C14.002 102.517 44.4539 85.4637 47.2961 83.8396C50.1383 82.2155 50.1383 80.9974 51.3564 78.9673C52.5744 76.9372 66.7853 68.4106 69.2215 66.7865C71.6576 65.1624 74.4998 57.8539 79.7782 52.1695Z" fill="#31374B"/>
<path d="M79.7782 52.1695C84.0008 47.622 90.1995 46.7558 92.771 46.8912L98.8613 78.9673C94.6657 82.7569 85.6249 90.4172 83.0263 90.742C79.7781 91.148 74.9058 102.517 69.2215 104.141C63.5372 105.765 18.4683 125.254 15.2201 126.878C11.9719 128.502 9.12971 105.765 11.5659 104.141C14.002 102.517 44.4539 85.4637 47.2961 83.8396C50.1383 82.2155 50.1383 80.9974 51.3564 78.9673C52.5744 76.9372 66.7853 68.4106 69.2215 66.7865C71.6576 65.1624 74.4998 57.8539 79.7782 52.1695Z" fill="url(#paint4_linear)"/>
<path d="M143.524 115.104C141.575 111.855 141.088 105.359 141.9 102.923C134.591 106.036 119.731 112.83 118.756 115.104C117.782 117.377 121.328 127.149 123.223 131.751C130.802 127.555 145.473 118.352 143.524 115.104Z" fill="#AA6431"/>
<path d="M143.524 115.104C141.575 111.855 141.088 105.359 141.9 102.923C134.591 106.036 119.731 112.83 118.756 115.104C117.782 117.377 121.328 127.149 123.223 131.751C130.802 127.555 145.473 118.352 143.524 115.104Z" fill="url(#paint5_linear)"/>
<path d="M147.178 134.187C153.675 131.913 147.449 118.623 143.524 112.261C141.494 112.261 124.847 129.721 122.411 130.939C119.975 132.157 125.253 135.811 126.471 136.623C127.689 137.435 139.058 137.029 147.178 134.187Z" fill="#212226"/>
<path d="M147.178 134.187C153.675 131.913 147.449 118.623 143.524 112.261C141.494 112.261 124.847 129.721 122.411 130.939C119.975 132.157 125.253 135.811 126.471 136.623C127.689 137.435 139.058 137.029 147.178 134.187Z" fill="url(#paint6_linear)"/>
<path d="M90.7408 67.1928C88.7919 61.6709 89.9287 50.8165 90.7408 46.0795C101.703 42.0192 113.884 50.5458 117.132 52.9819C120.381 55.4181 140.682 75.7194 142.306 79.7796C143.605 83.0278 142.847 94.9379 142.306 100.487C132.832 101.164 113.397 102.111 111.448 100.487C109.012 98.4568 108.606 87.9001 107.794 87.9001C106.982 87.9001 106.576 90.3363 102.516 87.9001C98.4553 85.464 93.1769 74.0953 90.7408 67.1928Z" fill="#8B99A6"/>
<path d="M90.7408 67.1928C88.7919 61.6709 89.9287 50.8165 90.7408 46.0795C101.703 42.0192 113.884 50.5458 117.132 52.9819C120.381 55.4181 140.682 75.7194 142.306 79.7796C143.605 83.0278 142.847 94.9379 142.306 100.487C132.832 101.164 113.397 102.111 111.448 100.487C109.012 98.4568 108.606 87.9001 107.794 87.9001C106.982 87.9001 106.576 90.3363 102.516 87.9001C98.4553 85.464 93.1769 74.0953 90.7408 67.1928Z" fill="url(#paint7_linear)"/>
<path d="M121.599 90.7422C123.223 88.1436 128.501 86.6819 130.937 86.2759C138.652 86.2759 141.9 95.6145 142.306 100.081C142.712 104.547 137.84 110.231 135.809 112.262C133.779 114.292 119.162 114.292 115.102 114.292C111.042 114.292 104.952 115.104 101.297 117.54C97.6431 119.976 98.4551 141.901 101.297 141.089C104.14 140.277 115.508 141.089 116.726 143.525C117.944 145.962 109.012 151.24 106.576 149.616C104.14 147.992 92.3648 145.962 91.1467 143.525C89.9286 141.089 87.8985 109.013 88.7106 106.983C89.5226 104.953 99.6732 100.487 102.921 98.8627C106.17 97.2386 118.35 100.487 119.162 98.8627C119.974 97.2386 119.568 93.9904 121.599 90.7422Z" fill="#AA6431"/>
<path d="M121.599 90.7422C123.223 88.1436 128.501 86.6819 130.937 86.2759C138.652 86.2759 141.9 95.6145 142.306 100.081C142.712 104.547 137.84 110.231 135.809 112.262C133.779 114.292 119.162 114.292 115.102 114.292C111.042 114.292 104.952 115.104 101.297 117.54C97.6431 119.976 98.4551 141.901 101.297 141.089C104.14 140.277 115.508 141.089 116.726 143.525C117.944 145.962 109.012 151.24 106.576 149.616C104.14 147.992 92.3648 145.962 91.1467 143.525C89.9286 141.089 87.8985 109.013 88.7106 106.983C89.5226 104.953 99.6732 100.487 102.921 98.8627C106.17 97.2386 118.35 100.487 119.162 98.8627C119.974 97.2386 119.568 93.9904 121.599 90.7422Z" fill="url(#paint8_linear)"/>
<defs>
<linearGradient id="paint0_linear" x1="81.6889" y1="125.626" x2="104.94" y2="122.924" gradientUnits="userSpaceOnUse">
<stop stop-color="white"/>
<stop offset="1" stop-color="white" stop-opacity="0"/>
</linearGradient>
<linearGradient id="paint1_linear" x1="-19.504" y1="110.522" x2="11.1091" y2="115.409" gradientUnits="userSpaceOnUse">
<stop stop-color="white"/>
<stop offset="1" stop-color="white" stop-opacity="0"/>
</linearGradient>
<linearGradient id="paint2_linear" x1="4.51904" y1="114.176" x2="51.5442" y2="132.053" gradientUnits="userSpaceOnUse">
<stop stop-color="white"/>
<stop offset="1" stop-color="white" stop-opacity="0"/>
</linearGradient>
<linearGradient id="paint3_linear" x1="-44.2497" y1="82.1529" x2="66.9587" y2="144.702" gradientUnits="userSpaceOnUse">
<stop stop-color="white"/>
<stop offset="1" stop-color="white" stop-opacity="0"/>
</linearGradient>
<linearGradient id="paint4_linear" x1="-108.761" y1="58.3186" x2="48.9005" y2="132.114" gradientUnits="userSpaceOnUse">
<stop stop-color="white"/>
<stop offset="1" stop-color="white" stop-opacity="0"/>
</linearGradient>
<linearGradient id="paint5_linear" x1="102.056" y1="118.802" x2="129.806" y2="116.264" gradientUnits="userSpaceOnUse">
<stop stop-color="white"/>
<stop offset="1" stop-color="white" stop-opacity="0"/>
</linearGradient>
<linearGradient id="paint6_linear" x1="83.5695" y1="115.794" x2="133.357" y2="139.939" gradientUnits="userSpaceOnUse">
<stop stop-color="white"/>
<stop offset="1" stop-color="white" stop-opacity="0"/>
</linearGradient>
<linearGradient id="paint7_linear" x1="67.3464" y1="80.1748" x2="107.721" y2="74.5506" gradientUnits="userSpaceOnUse">
<stop stop-color="white"/>
<stop offset="1" stop-color="white" stop-opacity="0"/>
</linearGradient>
<linearGradient id="paint8_linear" x1="53.0952" y1="121.332" x2="112.585" y2="116.053" gradientUnits="userSpaceOnUse">
<stop stop-color="white"/>
<stop offset="1" stop-color="white" stop-opacity="0"/>
</linearGradient>
</defs>
</svg>
