<svg width="150" height="150" viewBox="0 0 150 150" fill="none" xmlns="http://www.w3.org/2000/svg">
<g clip-path="url(#clip0)">
<path d="M91.4422 135.772C87.938 134.948 81.0497 133.711 78.0436 133.196L73.1479 138.607C74.7798 139.465 79.1258 141.286 83.4546 141.699C88.8656 142.214 95.8226 136.803 91.4422 135.772Z" fill="#AA6431"/>
<path d="M91.4422 135.772C87.938 134.948 81.0497 133.711 78.0436 133.196L73.1479 138.607C74.7798 139.465 79.1258 141.286 83.4546 141.699C88.8656 142.214 95.8226 136.803 91.4422 135.772Z" fill="url(#paint0_linear)"/>
<path d="M120.301 83.4658H128.804L138.338 110.005C136.019 110.693 130.865 112.221 128.804 112.84C126.227 113.613 117.724 110.005 115.405 107.686C113.086 105.367 116.178 103.306 115.405 100.472C114.787 98.2043 111.54 97.1221 109.994 96.8645L120.301 83.4658Z" fill="#AA6431"/>
<path d="M120.301 83.4658H128.804L138.338 110.005C136.019 110.693 130.865 112.221 128.804 112.84C126.227 113.613 117.724 110.005 115.405 107.686C113.086 105.367 116.178 103.306 115.405 100.472C114.787 98.2043 111.54 97.1221 109.994 96.8645L120.301 83.4658Z" fill="url(#paint1_linear)"/>
<path d="M119.786 78.5703C124.114 83.7236 121.589 86.9015 119.786 87.8463C113.258 85.5273 114.117 91.9689 104.068 91.9689C100.788 91.9689 80.105 101.503 73.6634 98.9259C68.5101 96.8646 57.001 57.957 53.5654 53.8343C55.2832 52.8896 59.6464 51 63.3567 51C67.9947 51 88.608 56.1533 95.8227 58.73C103.037 61.3066 114.375 72.1286 119.786 78.5703Z" fill="#8B99A6"/>
<path d="M119.786 78.5703C124.114 83.7236 121.589 86.9015 119.786 87.8463C113.258 85.5273 114.117 91.9689 104.068 91.9689C100.788 91.9689 80.105 101.503 73.6634 98.9259C68.5101 96.8646 57.001 57.957 53.5654 53.8343C55.2832 52.8896 59.6464 51 63.3567 51C67.9947 51 88.608 56.1533 95.8227 58.73C103.037 61.3066 114.375 72.1286 119.786 78.5703Z" fill="url(#paint2_linear)"/>
<path d="M1.77445 106.913C5.27871 101.966 22.6454 92.9995 30.8907 89.1345C34.395 90.7836 34.7557 94.975 34.498 96.8645L30.8907 110.778C29.4306 111.38 25.9435 112.788 23.6761 113.613C20.8417 114.643 9.7621 119.024 5.89711 119.539C2.03212 120.054 -2.60588 113.097 1.77445 106.913Z" fill="#212226"/>
<path d="M1.77445 106.913C5.27871 101.966 22.6454 92.9995 30.8907 89.1345C34.395 90.7836 34.7557 94.975 34.498 96.8645L30.8907 110.778C29.4306 111.38 25.9435 112.788 23.6761 113.613C20.8417 114.643 9.7621 119.024 5.89711 119.539C2.03212 120.054 -2.60588 113.097 1.77445 106.913Z" fill="url(#paint3_linear)"/>
<path d="M137.565 111.036C135.709 108.975 128.89 91.9689 125.712 83.7235C125.712 79.0856 148.902 83.7235 149.933 91.7112C150.963 99.6988 139.884 113.613 137.565 111.036Z" fill="#212226"/>
<path d="M137.565 111.036C135.709 108.975 128.89 91.9689 125.712 83.7235C125.712 79.0856 148.902 83.7235 149.933 91.7112C150.963 99.6988 139.884 113.613 137.565 111.036Z" fill="url(#paint4_linear)"/>
<path d="M78.0436 130.361C78.662 127.475 83.6264 115.588 86.0313 110.006C79.6755 109.233 66.964 108.717 66.964 112.84C66.964 117.993 67.4793 128.042 66.964 133.711C66.4486 139.379 67.4793 142.729 72.1173 146.079C76.7553 149.428 82.6816 150.717 89.1233 149.944C95.5649 149.171 100.203 146.336 95.8226 146.079C91.4423 145.821 80.6203 141.956 78.0436 140.41C75.467 138.864 77.2706 133.969 78.0436 130.361Z" fill="#AA6431"/>
<path d="M78.0436 130.361C78.662 127.475 83.6264 115.588 86.0313 110.006C79.6755 109.233 66.964 108.717 66.964 112.84C66.964 117.993 67.4793 128.042 66.964 133.711C66.4486 139.379 67.4793 142.729 72.1173 146.079C76.7553 149.428 82.6816 150.717 89.1233 149.944C95.5649 149.171 100.203 146.336 95.8226 146.079C91.4423 145.821 80.6203 141.956 78.0436 140.41C75.467 138.864 77.2706 133.969 78.0436 130.361Z" fill="url(#paint5_linear)"/>
<path d="M100.203 72.1286C105.15 67.5936 113.344 73.9321 115.921 77.7972C118.497 81.6623 120.404 84.3935 119.786 88.1039C119.013 92.7419 112.829 98.6682 111.54 100.472C110.252 102.276 100.203 104.079 97.884 104.079C95.565 104.079 92.2153 109.233 89.6386 110.779C87.5773 112.015 86.0313 99.0977 85.516 92.4843L89.6386 90.1653C94.792 89.3923 97.3686 88.1039 94.792 85.2696C92.2153 82.4353 94.019 77.7972 100.203 72.1286Z" fill="#AA6431"/>
<path d="M100.203 72.1286C105.15 67.5936 113.344 73.9321 115.921 77.7972C118.497 81.6623 120.404 84.3935 119.786 88.1039C119.013 92.7419 112.829 98.6682 111.54 100.472C110.252 102.276 100.203 104.079 97.884 104.079C95.565 104.079 92.2153 109.233 89.6386 110.779C87.5773 112.015 86.0313 99.0977 85.516 92.4843L89.6386 90.1653C94.792 89.3923 97.3686 88.1039 94.792 85.2696C92.2153 82.4353 94.019 77.7972 100.203 72.1286Z" fill="url(#paint6_linear)"/>
<path d="M73.9209 70.5825C71.8596 67.0783 59.4916 57.9569 53.5653 53.8342C49.958 53.8342 46.3506 57.9569 44.547 61.8219C42.7433 65.6869 43.774 70.5825 46.3506 79.3432C48.9273 88.1038 58.9763 92.4842 57.1726 94.5455C55.369 96.6068 38.8783 94.5455 31.6637 94.5455C24.449 94.5455 28.0563 119.539 31.6637 118.766C35.271 117.993 76.2399 113.87 83.4546 112.582C90.6692 111.294 89.1232 105.625 88.8656 100.729C88.6079 95.8338 76.4976 74.9629 73.9209 70.5825Z" fill="#31374B"/>
<path d="M73.9209 70.5825C71.8596 67.0783 59.4916 57.9569 53.5653 53.8342C49.958 53.8342 46.3506 57.9569 44.547 61.8219C42.7433 65.6869 43.774 70.5825 46.3506 79.3432C48.9273 88.1038 58.9763 92.4842 57.1726 94.5455C55.369 96.6068 38.8783 94.5455 31.6637 94.5455C24.449 94.5455 28.0563 119.539 31.6637 118.766C35.271 117.993 76.2399 113.87 83.4546 112.582C90.6692 111.294 89.1232 105.625 88.8656 100.729C88.6079 95.8338 76.4976 74.9629 73.9209 70.5825Z" fill="url(#paint7_linear)"/>
</g>
<defs>
<linearGradient id="paint0_linear" x1="60.1919" y1="137.898" x2="80.9057" y2="132.887" gradientUnits="userSpaceOnUse">
<stop stop-color="white"/>
<stop offset="1" stop-color="white" stop-opacity="0"/>
</linearGradient>
<linearGradient id="paint1_linear" x1="91.3314" y1="99.7042" x2="122.597" y2="96.5485" gradientUnits="userSpaceOnUse">
<stop stop-color="white"/>
<stop offset="1" stop-color="white" stop-opacity="0"/>
</linearGradient>
<linearGradient id="paint2_linear" x1="24.8679" y1="81.1741" x2="75.5794" y2="70.5856" gradientUnits="userSpaceOnUse">
<stop stop-color="white"/>
<stop offset="1" stop-color="white" stop-opacity="0"/>
</linearGradient>
<linearGradient id="paint3_linear" x1="-46.7892" y1="93.4819" x2="14.2934" y2="122.963" gradientUnits="userSpaceOnUse">
<stop stop-color="white"/>
<stop offset="1" stop-color="white" stop-opacity="0"/>
</linearGradient>
<linearGradient id="paint4_linear" x1="92.8331" y1="86.0886" x2="139.973" y2="102.597" gradientUnits="userSpaceOnUse">
<stop stop-color="white"/>
<stop offset="1" stop-color="white" stop-opacity="0"/>
</linearGradient>
<linearGradient id="paint5_linear" x1="46.6306" y1="131.886" x2="80.6248" y2="129.193" gradientUnits="userSpaceOnUse">
<stop stop-color="white"/>
<stop offset="1" stop-color="white" stop-opacity="0"/>
</linearGradient>
<linearGradient id="paint6_linear" x1="62.8737" y1="92.7574" x2="100.888" y2="89.3526" gradientUnits="userSpaceOnUse">
<stop stop-color="white"/>
<stop offset="1" stop-color="white" stop-opacity="0"/>
</linearGradient>
<linearGradient id="paint7_linear" x1="-56.001" y1="63.1127" x2="59.5753" y2="109.755" gradientUnits="userSpaceOnUse">
<stop stop-color="white"/>
<stop offset="1" stop-color="white" stop-opacity="0"/>
</linearGradient>
<clipPath id="clip0">
<rect width="150" height="150" fill="white"/>
</clipPath>
</defs>
</svg>
