<svg width="150" height="151" viewBox="0 0 150 151" fill="none" xmlns="http://www.w3.org/2000/svg">
<path d="M56.1185 131.615C53.1255 129.52 50.1325 126.003 49.0102 124.506C40.9042 119.393 23.8691 109.317 20.5768 109.916C16.4614 110.664 7.85658 114.779 9.7272 116.65C11.5978 118.521 45.2689 139.097 49.0102 139.846C52.7514 140.594 59.8597 134.234 56.1185 131.615Z" fill="#212226"/>
<path d="M56.1185 131.615C53.1255 129.52 50.1325 126.003 49.0102 124.506C40.9042 119.393 23.8691 109.317 20.5768 109.916C16.4614 110.664 7.85658 114.779 9.7272 116.65C11.5978 118.521 45.2689 139.097 49.0102 139.846C52.7514 140.594 59.8597 134.234 56.1185 131.615Z" fill="url(#paint0_linear)"/>
<path d="M96.5239 16.759C99.2176 18.2554 108.371 17.3825 112.611 16.759C120.967 23.992 137.603 39.5057 137.303 43.6958C136.929 48.9336 130.943 49.3077 127.202 51.5524C123.461 53.7972 109.992 52.3007 107.748 51.5524C105.952 50.9538 105.253 44.5688 105.129 41.4511C101.138 32.5969 93.8302 15.2625 96.5239 16.759Z" fill="#AA6431"/>
<path d="M96.5239 16.759C99.2176 18.2554 108.371 17.3825 112.611 16.759C120.967 23.992 137.603 39.5057 137.303 43.6958C136.929 48.9336 130.943 49.3077 127.202 51.5524C123.461 53.7972 109.992 52.3007 107.748 51.5524C105.952 50.9538 105.253 44.5688 105.129 41.4511C101.138 32.5969 93.8302 15.2625 96.5239 16.759Z" fill="url(#paint1_linear)"/>
<path d="M139.174 46.6891C136.181 46.0905 117.475 25.9876 108.496 16.0109C124.583 2.54248 144.412 8.52845 148.901 16.0109C153.391 23.4934 142.915 47.4373 139.174 46.6891Z" fill="#212226"/>
<path d="M139.174 46.6891C136.181 46.0905 117.475 25.9876 108.496 16.0109C124.583 2.54248 144.412 8.52845 148.901 16.0109C153.391 23.4934 142.915 47.4373 139.174 46.6891Z" fill="url(#paint2_linear)"/>
<path d="M115.604 128.248C113.509 126.452 99.2674 124.756 92.4084 124.133V135.356C98.145 136.105 110.815 137.152 115.604 135.356C121.59 133.112 118.223 130.493 115.604 128.248Z" fill="#AA6431"/>
<path d="M115.604 128.248C113.509 126.452 99.2674 124.756 92.4084 124.133V135.356C98.145 136.105 110.815 137.152 115.604 135.356C121.59 133.112 118.223 130.493 115.604 128.248Z" fill="url(#paint3_linear)"/>
<path d="M95.4015 13.3921C101.986 15.1879 101.637 19.6275 100.639 21.6228L82.3072 63.1504C65.721 61.0303 31.3516 57.0148 26.5628 57.9126C20.5768 59.035 0 63.8986 0 60.1574C0 56.4162 1.12237 53.049 2.61886 48.5596C4.11536 44.0701 38.9088 19.7522 52.7514 13.3921C66.594 7.03202 87.1708 11.1474 95.4015 13.3921Z" fill="#8B99A6"/>
<path d="M95.4015 13.3921C101.986 15.1879 101.637 19.6275 100.639 21.6228L82.3072 63.1504C65.721 61.0303 31.3516 57.0148 26.5628 57.9126C20.5768 59.035 0 63.8986 0 60.1574C0 56.4162 1.12237 53.049 2.61886 48.5596C4.11536 44.0701 38.9088 19.7522 52.7514 13.3921C66.594 7.03202 87.1708 11.1474 95.4015 13.3921Z" fill="url(#paint4_linear)"/>
<path d="M71.8317 15.6368C78.117 10.5487 90.6626 13.5168 96.1498 15.6368C106.625 18.2018 106.625 38.084 105.503 42.9476C104.381 47.8112 98.7686 66.1433 96.1498 71.0069C93.5309 75.8705 96.1498 94.5767 96.1498 97.9438C96.1498 101.311 94.2792 109.916 93.1568 113.657C92.0344 117.398 92.4085 133.86 96.1498 136.479C99.891 139.097 114.856 140.22 118.971 143.213C123.087 146.206 122.338 149.947 114.856 150.321C107.373 150.695 85.3002 145.457 83.8037 143.213C82.3072 140.968 74.0765 117.398 74.4506 113.657C74.7499 110.664 75.8224 75.4964 76.3212 58.2867C78.1919 55.7925 80.8107 50.5049 76.3212 49.3077C70.7094 47.8112 63.9751 36.5875 62.8528 30.9757C61.7304 25.3638 63.9751 21.9969 71.8317 15.6368Z" fill="#AA6431"/>
<path d="M71.8317 15.6368C78.117 10.5487 90.6626 13.5168 96.1498 15.6368C106.625 18.2018 106.625 38.084 105.503 42.9476C104.381 47.8112 98.7686 66.1433 96.1498 71.0069C93.5309 75.8705 96.1498 94.5767 96.1498 97.9438C96.1498 101.311 94.2792 109.916 93.1568 113.657C92.0344 117.398 92.4085 133.86 96.1498 136.479C99.891 139.097 114.856 140.22 118.971 143.213C123.087 146.206 122.338 149.947 114.856 150.321C107.373 150.695 85.3002 145.457 83.8037 143.213C82.3072 140.968 74.0765 117.398 74.4506 113.657C74.7499 110.664 75.8224 75.4964 76.3212 58.2867C78.1919 55.7925 80.8107 50.5049 76.3212 49.3077C70.7094 47.8112 63.9751 36.5875 62.8528 30.9757C61.7304 25.3638 63.9751 21.9969 71.8317 15.6368Z" fill="url(#paint5_linear)"/>
<path d="M17.5838 115.528C17.4386 115.604 17.2848 115.686 17.1239 115.774C12.8001 119.041 46.9196 134.7 52.3773 137.975C57.9892 141.342 58.3633 145.083 56.1185 147.702C53.8738 150.321 31.4264 146.58 27.6852 145.083C23.9439 143.587 8.23073 126.377 8.97898 123.01C9.54438 120.466 14.3821 117.276 17.1239 115.774C17.246 115.682 17.3988 115.6 17.5838 115.528Z" fill="#212226"/>
<path d="M17.5838 115.528C17.4386 115.604 17.2848 115.686 17.1239 115.774C12.8001 119.041 46.9196 134.7 52.3773 137.975C57.9892 141.342 58.3633 145.083 56.1185 147.702C53.8738 150.321 31.4264 146.58 27.6852 145.083C23.9439 143.587 8.23073 126.377 8.97898 123.01C9.54438 120.466 14.3821 117.276 17.1239 115.774C17.246 115.682 17.3988 115.6 17.5838 115.528Z" fill="url(#paint6_linear)"/>
<path d="M35.1676 56.7903C28.8823 57.0896 10.3507 59.6585 1.8706 60.9056C1.24706 63.8986 0.374109 70.8573 1.8706 74.7482C3.74122 79.6118 10.4754 88.5908 15.7132 90.8355C20.9509 93.0802 38.5347 92.7061 35.1676 93.4544C31.8005 94.2026 19.4544 107.297 15.7132 113.657C11.9719 120.017 37.7865 138.723 41.9018 135.73C46.0172 132.737 64.3492 109.916 66.2198 107.297C68.0905 104.678 83.8036 90.4614 87.5449 86.7201C91.2861 82.9789 91.2861 72.5034 90.912 67.2657C90.6127 63.0755 73.0788 58.5362 64.3492 56.7903C55.3703 56.7905 43.0242 56.4161 35.1676 56.7903Z" fill="#31374B"/>
<path d="M35.1676 56.7903C28.8823 57.0896 10.3507 59.6585 1.8706 60.9056C1.24706 63.8986 0.374109 70.8573 1.8706 74.7482C3.74122 79.6118 10.4754 88.5908 15.7132 90.8355C20.9509 93.0802 38.5347 92.7061 35.1676 93.4544C31.8005 94.2026 19.4544 107.297 15.7132 113.657C11.9719 120.017 37.7865 138.723 41.9018 135.73C46.0172 132.737 64.3492 109.916 66.2198 107.297C68.0905 104.678 83.8036 90.4614 87.5449 86.7201C91.2861 82.9789 91.2861 72.5034 90.912 67.2657C90.6127 63.0755 73.0788 58.5362 64.3492 56.7903C55.3703 56.7905 43.0242 56.4161 35.1676 56.7903Z" fill="url(#paint7_linear)"/>
<defs>
<linearGradient id="paint0_linear" x1="-55.1206" y1="114.178" x2="16.2675" y2="162.396" gradientUnits="userSpaceOnUse">
<stop stop-color="white"/>
<stop offset="1" stop-color="white" stop-opacity="0"/>
</linearGradient>
<linearGradient id="paint1_linear" x1="68.7045" y1="36.5359" x2="114.142" y2="31.0657" gradientUnits="userSpaceOnUse">
<stop stop-color="white"/>
<stop offset="1" stop-color="white" stop-opacity="0"/>
</linearGradient>
<linearGradient id="paint2_linear" x1="52.3116" y1="13.5295" x2="127.197" y2="47.6512" gradientUnits="userSpaceOnUse">
<stop stop-color="white"/>
<stop offset="1" stop-color="white" stop-opacity="0"/>
</linearGradient>
<linearGradient id="paint3_linear" x1="74.9344" y1="130.861" x2="103.045" y2="124.45" gradientUnits="userSpaceOnUse">
<stop stop-color="white"/>
<stop offset="1" stop-color="white" stop-opacity="0"/>
</linearGradient>
<linearGradient id="paint4_linear" x1="-42.3257" y1="43.1569" x2="30.0456" y2="22.876" gradientUnits="userSpaceOnUse">
<stop stop-color="white"/>
<stop offset="1" stop-color="white" stop-opacity="0"/>
</linearGradient>
<linearGradient id="paint5_linear" x1="23.8154" y1="88.5716" x2="89.2901" y2="85.6288" gradientUnits="userSpaceOnUse">
<stop stop-color="white"/>
<stop offset="1" stop-color="white" stop-opacity="0"/>
</linearGradient>
<linearGradient id="paint6_linear" x1="-56.6329" y1="120.253" x2="19.4607" y2="167.61" gradientUnits="userSpaceOnUse">
<stop stop-color="white"/>
<stop offset="1" stop-color="white" stop-opacity="0"/>
</linearGradient>
<linearGradient id="paint7_linear" x1="-120.824" y1="67.9709" x2="38.3983" y2="144.657" gradientUnits="userSpaceOnUse">
<stop stop-color="white"/>
<stop offset="1" stop-color="white" stop-opacity="0"/>
</linearGradient>
</defs>
</svg>
