<svg width="150" height="150" viewBox="0 0 150 150" fill="none" xmlns="http://www.w3.org/2000/svg">
<g clip-path="url(#clip0)">
<path d="M126.455 118.688C127.42 121.004 130.719 120.618 132.247 120.136L133.454 108.311H130.558C128.788 110.804 125.49 116.371 126.455 118.688Z" fill="#AA6431"/>
<path d="M126.455 118.688C127.42 121.004 130.719 120.618 132.247 120.136L133.454 108.311H130.558C128.788 110.804 125.49 116.371 126.455 118.688Z" fill="url(#paint0_linear)"/>
<path d="M131.523 121.584C130.558 120.425 131.121 110.644 131.523 105.898C134.902 104.932 142.382 108.311 142.141 113.62C141.9 118.929 132.73 123.032 131.523 121.584Z" fill="#212226"/>
<path d="M131.523 121.584C130.558 120.425 131.121 110.644 131.523 105.898C134.902 104.932 142.382 108.311 142.141 113.62C141.9 118.929 132.73 123.032 131.523 121.584Z" fill="url(#paint1_linear)"/>
<path d="M131.282 135.821C129.351 135.049 125.973 134.856 124.525 134.856L122.835 138.959C124.364 139.361 127.758 140.165 129.11 140.165C130.799 140.165 133.695 136.787 131.282 135.821Z" fill="#AA6431"/>
<path d="M131.282 135.821C129.351 135.049 125.973 134.856 124.525 134.856L122.835 138.959C124.364 139.361 127.758 140.165 129.11 140.165C130.799 140.165 133.695 136.787 131.282 135.821Z" fill="url(#paint2_linear)"/>
<path d="M131.764 75.2498C131.378 73.1262 118.572 68.5733 112.217 66.5623C110.045 66.5623 111.252 71.8713 112.217 75.2498C113.182 78.6284 110.528 87.0746 111.252 94.7969C111.831 100.975 118.411 107.828 121.629 110.483L131.764 109.035C132.247 108.07 133.164 105.656 132.971 103.726C132.73 101.313 128.386 85.144 127.903 82.4895C127.42 79.835 132.247 77.9044 131.764 75.2498Z" fill="#8B99A6"/>
<path d="M131.764 75.2498C131.378 73.1262 118.572 68.5733 112.217 66.5623C110.045 66.5623 111.252 71.8713 112.217 75.2498C113.182 78.6284 110.528 87.0746 111.252 94.7969C111.831 100.975 118.411 107.828 121.629 110.483L131.764 109.035C132.247 108.07 133.164 105.656 132.971 103.726C132.73 101.313 128.386 85.144 127.903 82.4895C127.42 79.835 132.247 77.9044 131.764 75.2498Z" fill="url(#paint3_linear)"/>
<path d="M118.733 102.037C117.575 97.2101 121.79 95.8426 124.042 95.7622C129.351 95.7622 132.006 103.726 132.006 105.656C132.006 107.587 127.903 119.894 126.938 121.342C125.973 122.79 127.42 125.203 126.455 128.341C125.49 131.478 124.042 142.096 124.042 143.544C124.042 144.992 131.04 144.509 134.177 144.751C137.315 144.992 133.936 148.853 132.006 149.818C130.075 150.784 121.87 147.646 119.698 146.44C117.526 145.233 117.768 129.789 117.526 126.893C117.285 123.997 118.733 122.549 118.733 120.618C118.733 118.688 121.146 109.518 121.87 108.07C122.594 106.622 120.181 108.07 118.733 102.037Z" fill="#AA6431"/>
<path d="M118.733 102.037C117.575 97.2101 121.79 95.8426 124.042 95.7622C129.351 95.7622 132.006 103.726 132.006 105.656C132.006 107.587 127.903 119.894 126.938 121.342C125.973 122.79 127.42 125.203 126.455 128.341C125.49 131.478 124.042 142.096 124.042 143.544C124.042 144.992 131.04 144.509 134.177 144.751C137.315 144.992 133.936 148.853 132.006 149.818C130.075 150.784 121.87 147.646 119.698 146.44C117.526 145.233 117.768 129.789 117.526 126.893C117.285 123.997 118.733 122.549 118.733 120.618C118.733 118.688 121.146 109.518 121.87 108.07C122.594 106.622 120.181 108.07 118.733 102.037Z" fill="url(#paint4_linear)"/>
<path d="M118.492 54.4963C116.754 56.0407 113.424 63.5056 111.976 67.045C117.285 70.4235 128.675 76.8426 131.764 75.4912C135.626 73.802 132.971 62.4598 133.212 60.5293C133.454 58.5987 135.384 47.9806 135.384 45.5673C135.384 43.154 139.245 42.4301 140.211 41.2235C141.176 40.0169 148.416 22.6418 148.657 20.7112C148.898 18.7806 137.556 13.9542 137.315 16.3674C137.073 18.7806 120.664 46.2913 119.94 47.9806C119.216 49.6698 120.664 52.5657 118.492 54.4963Z" fill="#31374B"/>
<path d="M118.492 54.4963C116.754 56.0407 113.424 63.5056 111.976 67.045C117.285 70.4235 128.675 76.8426 131.764 75.4912C135.626 73.802 132.971 62.4598 133.212 60.5293C133.454 58.5987 135.384 47.9806 135.384 45.5673C135.384 43.154 139.245 42.4301 140.211 41.2235C141.176 40.0169 148.416 22.6418 148.657 20.7112C148.898 18.7806 137.556 13.9542 137.315 16.3674C137.073 18.7806 120.664 46.2913 119.94 47.9806C119.216 49.6698 120.664 52.5657 118.492 54.4963Z" fill="url(#paint5_linear)"/>
<path d="M138.763 8.64492C138.763 7.10046 137.636 4.30112 137.073 3.09451C138.521 -2.45589 141.9 0.681292 144.072 3.09451C146.244 5.50773 146.244 8.64492 146.244 9.6102C146.244 10.5755 149.381 12.7474 149.863 14.4366C150.346 16.1259 149.863 19.7457 148.415 20.4697C146.968 21.1937 137.073 19.7457 137.073 18.0565C137.073 16.3672 138.763 10.5755 138.763 8.64492Z" fill="#212226"/>
<path d="M138.763 8.64492C138.763 7.10046 137.636 4.30112 137.073 3.09451C138.521 -2.45589 141.9 0.681292 144.072 3.09451C146.244 5.50773 146.244 8.64492 146.244 9.6102C146.244 10.5755 149.381 12.7474 149.863 14.4366C150.346 16.1259 149.863 19.7457 148.415 20.4697C146.968 21.1937 137.073 19.7457 137.073 18.0565C137.073 16.3672 138.763 10.5755 138.763 8.64492Z" fill="url(#paint6_linear)"/>
</g>
<defs>
<linearGradient id="paint0_linear" x1="121.559" y1="115.026" x2="129.521" y2="114.534" gradientUnits="userSpaceOnUse">
<stop stop-color="white"/>
<stop offset="1" stop-color="white" stop-opacity="0"/>
</linearGradient>
<linearGradient id="paint1_linear" x1="115.887" y1="108.04" x2="138.267" y2="114.612" gradientUnits="userSpaceOnUse">
<stop stop-color="white"/>
<stop offset="1" stop-color="white" stop-opacity="0"/>
</linearGradient>
<linearGradient id="paint2_linear" x1="116.667" y1="137.781" x2="126.76" y2="135.911" gradientUnits="userSpaceOnUse">
<stop stop-color="white"/>
<stop offset="1" stop-color="white" stop-opacity="0"/>
</linearGradient>
<linearGradient id="paint3_linear" x1="101.799" y1="93.962" x2="118.675" y2="92.7179" gradientUnits="userSpaceOnUse">
<stop stop-color="white"/>
<stop offset="1" stop-color="white" stop-opacity="0"/>
</linearGradient>
<linearGradient id="paint4_linear" x1="105.674" y1="125.637" x2="125.662" y2="124.943" gradientUnits="userSpaceOnUse">
<stop stop-color="white"/>
<stop offset="1" stop-color="white" stop-opacity="0"/>
</linearGradient>
<linearGradient id="paint5_linear" x1="62.3158" y1="24.2733" x2="137.189" y2="43.7361" gradientUnits="userSpaceOnUse">
<stop stop-color="white"/>
<stop offset="1" stop-color="white" stop-opacity="0"/>
</linearGradient>
<linearGradient id="paint6_linear" x1="119.514" y1="2.95154" x2="145.899" y2="9.99042" gradientUnits="userSpaceOnUse">
<stop stop-color="white"/>
<stop offset="1" stop-color="white" stop-opacity="0"/>
</linearGradient>
<clipPath id="clip0">
<rect width="150" height="150" fill="white"/>
</clipPath>
</defs>
</svg>
