<svg width="150" height="150" viewBox="0 0 150 150" fill="none" xmlns="http://www.w3.org/2000/svg">
<path d="M126.802 76.4617H131.963C135.633 82.9989 142.629 96.3486 141.253 97.4496C139.533 98.8258 136.092 99.514 131.963 99.858C128.66 100.133 125.77 97.4496 124.738 96.0733C123.935 89.5361 123.224 76.4617 126.802 76.4617Z" fill="#AA6431"/>
<path d="M126.802 76.4617H131.963C135.633 82.9989 142.629 96.3486 141.253 97.4496C139.533 98.8258 136.092 99.514 131.963 99.858C128.66 100.133 125.77 97.4496 124.738 96.0733C123.935 89.5361 123.224 76.4617 126.802 76.4617Z" fill="url(#paint0_linear)"/>
<path d="M141.597 98.4818C137.468 99.3076 132.078 83.2283 129.899 75.0854C142.973 75.0854 147.446 77.4939 149.511 81.2786C151.575 85.0633 146.758 97.4496 141.597 98.4818Z" fill="#212226"/>
<path d="M141.597 98.4818C137.468 99.3076 132.078 83.2283 129.899 75.0854C142.973 75.0854 147.446 77.4939 149.511 81.2786C151.575 85.0633 146.758 97.4496 141.597 98.4818Z" fill="url(#paint1_linear)"/>
<path d="M134.716 135.297C132.789 136.122 126.344 135.641 123.362 135.297C122.33 132.315 120.541 126.695 121.642 128.071C123.018 129.792 132.308 128.415 134.716 128.071C137.124 127.727 137.124 134.264 134.716 135.297Z" fill="#AA6431"/>
<path d="M134.716 135.297C132.789 136.122 126.344 135.641 123.362 135.297C122.33 132.315 120.541 126.695 121.642 128.071C123.018 129.792 132.308 128.415 134.716 128.071C137.124 127.727 137.124 134.264 134.716 135.297Z" fill="url(#paint2_linear)"/>
<path d="M109.255 90.9124C109.53 89.2609 113.499 90.2242 115.448 90.9124L119.577 128.759C118.201 130.136 115.242 132.888 114.416 132.888C113.384 132.888 112.008 123.943 111.664 120.846C111.32 117.749 109.255 101.578 109.255 99.514C109.255 97.4496 108.911 92.9768 109.255 90.9124Z" fill="#AA6431"/>
<path d="M109.255 90.9124C109.53 89.2609 113.499 90.2242 115.448 90.9124L119.577 128.759C118.201 130.136 115.242 132.888 114.416 132.888C113.384 132.888 112.008 123.943 111.664 120.846C111.32 117.749 109.255 101.578 109.255 99.514C109.255 97.4496 108.911 92.9768 109.255 90.9124Z" fill="url(#paint3_linear)"/>
<path d="M43.883 126.695C45.8098 125.319 49.7321 122.91 51.4525 121.878L64.871 126.695C64.1828 128.301 63.013 131.925 63.8388 133.576C64.871 135.641 67.6235 132.888 70.0319 134.609C71.9587 135.985 70.8347 139.311 70.0319 140.802H58.3337C55.9253 140.802 56.9575 137.705 56.2694 136.329C55.5812 134.953 41.4746 128.415 43.883 126.695Z" fill="#212226"/>
<path d="M43.883 126.695C45.8098 125.319 49.7321 122.91 51.4525 121.878L64.871 126.695C64.1828 128.301 63.013 131.925 63.8388 133.576C64.871 135.641 67.6235 132.888 70.0319 134.609C71.9587 135.985 70.8347 139.311 70.0319 140.802H58.3337C55.9253 140.802 56.9575 137.705 56.2694 136.329C55.5812 134.953 41.4746 128.415 43.883 126.695Z" fill="url(#paint4_linear)"/>
<path d="M1.56316 113.965C3.76516 114.791 11.1969 113.621 14.6376 112.933C17.1607 115.57 21.9317 121.328 20.8307 123.255C19.4545 125.663 13.2613 129.792 11.541 131.168C9.82069 132.544 11.541 137.705 11.541 140.114C11.541 142.522 9.13256 143.898 6.38005 143.554C3.62754 143.21 0.530963 137.705 0.530963 135.985C0.530963 134.265 -1.18936 112.933 1.56316 113.965Z" fill="#212226"/>
<path d="M1.56316 113.965C3.76516 114.791 11.1969 113.621 14.6376 112.933C17.1607 115.57 21.9317 121.328 20.8307 123.255C19.4545 125.663 13.2613 129.792 11.541 131.168C9.82069 132.544 11.541 137.705 11.541 140.114C11.541 142.522 9.13256 143.898 6.38005 143.554C3.62754 143.21 0.530963 137.705 0.530963 135.985C0.530963 134.265 -1.18936 112.933 1.56316 113.965Z" fill="url(#paint5_linear)"/>
<path d="M69.6878 69.2365C67.2105 65.6583 66.1325 57.8824 65.9031 54.4418C72.7844 47.5605 88.2672 53.0655 93.0841 53.4096C97.901 53.7536 108.911 58.2265 116.48 62.6993C124.05 67.1721 128.523 75.0856 128.523 76.8059C128.523 78.5262 113.04 92.9769 112.008 92.9769C110.975 92.9769 94.1163 81.2788 93.0841 80.2466C92.0519 79.2144 91.7079 80.2466 90.6757 81.2788C89.6435 82.311 84.8266 81.2788 82.0741 81.2788C79.3216 81.2788 72.7844 73.7094 69.6878 69.2365Z" fill="#8B99A6"/>
<path d="M69.6878 69.2365C67.2105 65.6583 66.1325 57.8824 65.9031 54.4418C72.7844 47.5605 88.2672 53.0655 93.0841 53.4096C97.901 53.7536 108.911 58.2265 116.48 62.6993C124.05 67.1721 128.523 75.0856 128.523 76.8059C128.523 78.5262 113.04 92.9769 112.008 92.9769C110.975 92.9769 94.1163 81.2788 93.0841 80.2466C92.0519 79.2144 91.7079 80.2466 90.6757 81.2788C89.6435 82.311 84.8266 81.2788 82.0741 81.2788C79.3216 81.2788 72.7844 73.7094 69.6878 69.2365Z" fill="url(#paint6_linear)"/>
<path d="M58.6778 60.979C61.7055 55.1988 65.4444 53.9831 66.9353 54.0978C74.8488 62.3552 90.951 79.3519 92.052 81.2787C93.4282 83.6871 97.557 96.7616 95.8367 104.331C94.1164 111.9 67.9675 128.415 63.8387 129.448C59.71 130.48 47.6677 122.566 50.0762 120.846C52.4846 119.126 75.5369 100.202 75.881 97.7938C76.225 95.3853 72.4403 90.2244 70.3759 90.2244C68.3116 90.2244 56.6134 103.643 53.1727 105.363C49.7321 107.083 46.6355 107.083 43.883 109.836C41.1305 112.589 23.2392 125.319 20.1426 124.975C17.046 124.631 10.1647 111.9 12.2291 109.836C14.2935 107.772 38.378 88.16 42.1627 86.0956C45.9474 84.0312 54.8931 68.2044 58.6778 60.979Z" fill="#31374B"/>
<path d="M58.6778 60.979C61.7055 55.1988 65.4444 53.9831 66.9353 54.0978C74.8488 62.3552 90.951 79.3519 92.052 81.2787C93.4282 83.6871 97.557 96.7616 95.8367 104.331C94.1164 111.9 67.9675 128.415 63.8387 129.448C59.71 130.48 47.6677 122.566 50.0762 120.846C52.4846 119.126 75.5369 100.202 75.881 97.7938C76.225 95.3853 72.4403 90.2244 70.3759 90.2244C68.3116 90.2244 56.6134 103.643 53.1727 105.363C49.7321 107.083 46.6355 107.083 43.883 109.836C41.1305 112.589 23.2392 125.319 20.1426 124.975C17.046 124.631 10.1647 111.9 12.2291 109.836C14.2935 107.772 38.378 88.16 42.1627 86.0956C45.9474 84.0312 54.8931 68.2044 58.6778 60.979Z" fill="url(#paint7_linear)"/>
<path d="M110.976 68.8924C114.554 66.9657 121.642 69.6953 124.738 71.3009C127.147 73.7093 127.491 84.3752 127.491 86.0955C127.491 87.8159 123.362 103.299 123.362 105.707C123.362 108.116 124.738 116.373 124.738 118.782C124.738 121.19 123.018 136.329 124.738 139.77C126.458 143.21 137.813 140.114 140.221 141.49C142.629 142.866 141.597 150.091 137.813 149.747C134.028 149.403 118.201 148.715 116.825 145.963C115.448 143.21 112.696 123.254 112.696 118.782C112.696 114.309 110.976 101.922 110.976 98.4818C110.976 95.0412 114.416 89.1921 114.072 87.8159C113.728 86.4396 108.911 82.6549 107.191 80.2464C105.471 77.838 106.503 71.3009 110.976 68.8924Z" fill="#AA6431"/>
<path d="M110.976 68.8924C114.554 66.9657 121.642 69.6953 124.738 71.3009C127.147 73.7093 127.491 84.3752 127.491 86.0955C127.491 87.8159 123.362 103.299 123.362 105.707C123.362 108.116 124.738 116.373 124.738 118.782C124.738 121.19 123.018 136.329 124.738 139.77C126.458 143.21 137.813 140.114 140.221 141.49C142.629 142.866 141.597 150.091 137.813 149.747C134.028 149.403 118.201 148.715 116.825 145.963C115.448 143.21 112.696 123.254 112.696 118.782C112.696 114.309 110.976 101.922 110.976 98.4818C110.976 95.0412 114.416 89.1921 114.072 87.8159C113.728 86.4396 108.911 82.6549 107.191 80.2464C105.471 77.838 106.503 71.3009 110.976 68.8924Z" fill="url(#paint8_linear)"/>
<defs>
<linearGradient id="paint0_linear" x1="112.666" y1="89.3596" x2="131.877" y2="87.8658" gradientUnits="userSpaceOnUse">
<stop stop-color="white"/>
<stop offset="1" stop-color="white" stop-opacity="0"/>
</linearGradient>
<linearGradient id="paint1_linear" x1="102.688" y1="78.4322" x2="141.347" y2="92.5273" gradientUnits="userSpaceOnUse">
<stop stop-color="white"/>
<stop offset="1" stop-color="white" stop-opacity="0"/>
</linearGradient>
<linearGradient id="paint2_linear" x1="111.27" y1="132.206" x2="127.569" y2="128.906" gradientUnits="userSpaceOnUse">
<stop stop-color="white"/>
<stop offset="1" stop-color="white" stop-opacity="0"/>
</linearGradient>
<linearGradient id="paint3_linear" x1="102.205" y1="113.624" x2="113.87" y2="113.325" gradientUnits="userSpaceOnUse">
<stop stop-color="white"/>
<stop offset="1" stop-color="white" stop-opacity="0"/>
</linearGradient>
<linearGradient id="paint4_linear" x1="6.39468" y1="124.582" x2="49.765" y2="151.353" gradientUnits="userSpaceOnUse">
<stop stop-color="white"/>
<stop offset="1" stop-color="white" stop-opacity="0"/>
</linearGradient>
<linearGradient id="paint5_linear" x1="-28.4183" y1="117.315" x2="13.7563" y2="129.58" gradientUnits="userSpaceOnUse">
<stop stop-color="white"/>
<stop offset="1" stop-color="white" stop-opacity="0"/>
</linearGradient>
<linearGradient id="paint6_linear" x1="39.7113" y1="77.1872" x2="85.7909" y2="67.0689" gradientUnits="userSpaceOnUse">
<stop stop-color="white"/>
<stop offset="1" stop-color="white" stop-opacity="0"/>
</linearGradient>
<linearGradient id="paint7_linear" x1="-102.403" y1="64.8691" x2="47.6018" y2="136.173" gradientUnits="userSpaceOnUse">
<stop stop-color="white"/>
<stop offset="1" stop-color="white" stop-opacity="0"/>
</linearGradient>
<linearGradient id="paint8_linear" x1="83.2843" y1="113.137" x2="122.332" y2="111.372" gradientUnits="userSpaceOnUse">
<stop stop-color="white"/>
<stop offset="1" stop-color="white" stop-opacity="0"/>
</linearGradient>
</defs>
</svg>
