<svg width="150" height="150" viewBox="0 0 150 150" fill="none" xmlns="http://www.w3.org/2000/svg">
<path d="M60.9503 72.6925C61.7261 70.4517 69.8828 69.1498 73.8642 68.779C79.1819 68.9126 89.5264 70.0203 88.3627 73.3815C86.9081 77.5831 86.9376 85.3537 86.8903 87.2362C86.843 89.1186 88.1675 99.0408 88.9538 103.534C89.7402 108.028 81.6756 121.522 81.0429 119.858C80.5368 118.527 71.0198 119.33 65.8519 119.2L58.1566 104.522C61.2077 99.419 59.9806 75.4936 60.9503 72.6925Z" fill="#8B99A6"/>
<path d="M60.9503 72.6925C61.7261 70.4517 69.8828 69.1498 73.8642 68.779C79.1819 68.9126 89.5264 70.0203 88.3627 73.3815C86.9081 77.5831 86.9376 85.3537 86.8903 87.2362C86.843 89.1186 88.1675 99.0408 88.9538 103.534C89.7402 108.028 81.6756 121.522 81.0429 119.858C80.5368 118.527 71.0198 119.33 65.8519 119.2L58.1566 104.522C61.2077 99.419 59.9806 75.4936 60.9503 72.6925Z" fill="url(#paint0_linear)"/>
<path d="M77.3252 118.821C77.5611 117.17 74.3366 118.821 72.6063 118.821C71.2693 118.35 68.8313 117.17 68.8313 118.821C68.8313 120.473 68.438 124.012 67.1797 125.9V133.45L72.6063 136.281L78.5049 133.45V125.9C78.5049 122.597 77.0892 120.473 77.3252 118.821Z" fill="#AA6431"/>
<path d="M77.3252 118.821C77.5611 117.17 74.3366 118.821 72.6063 118.821C71.2693 118.35 68.8313 117.17 68.8313 118.821C68.8313 120.473 68.438 124.012 67.1797 125.9V133.45L72.6063 136.281L78.5049 133.45V125.9C78.5049 122.597 77.0892 120.473 77.3252 118.821Z" fill="url(#paint1_linear)"/>
<path d="M78.2689 131.09V124.484C78.9767 125.9 80.8643 129.203 80.8643 131.09C80.8643 132.978 76.6173 139.112 73.55 139.112C70.4828 139.112 65.528 135.337 65.0561 133.214C64.5842 131.09 67.1796 121.889 67.1796 124.484C67.1796 127.079 66.7077 128.495 67.1796 131.09C67.6515 133.686 70.0109 135.337 73.55 135.337C76.3813 135.337 77.8756 132.506 78.2689 131.09Z" fill="#212226"/>
<path d="M78.2689 131.09V124.484C78.9767 125.9 80.8643 129.203 80.8643 131.09C80.8643 132.978 76.6173 139.112 73.55 139.112C70.4828 139.112 65.528 135.337 65.0561 133.214C64.5842 131.09 67.1796 121.889 67.1796 124.484C67.1796 127.079 66.7077 128.495 67.1796 131.09C67.6515 133.686 70.0109 135.337 73.55 135.337C76.3813 135.337 77.8756 132.506 78.2689 131.09Z" fill="url(#paint2_linear)"/>
<path d="M71.1929 14.704C72.873 14.0704 76.6097 13.2638 78.1163 15.1056C78.8314 15.9798 78.9752 16.7807 78.8538 17.4373C79.701 16.3385 80.9391 15.2694 82.3596 15.3518C85.0396 15.5072 87.0074 16.3524 87.4942 19.5484C87.9811 22.7443 88.7252 40.8191 88.9887 44.0021C89.2523 47.185 90.5599 55.5457 89.8879 59.4054C89.2158 63.2651 90.2015 73.3128 87.27 73.6301C84.3385 73.9473 64.7675 75.2487 61.9487 73.6231C59.1299 71.9976 62.1725 46.5888 63.8365 41.0809C65.5005 35.573 66.448 15.3786 71.1929 14.704Z" fill="#31374B"/>
<path d="M71.1929 14.704C72.873 14.0704 76.6097 13.2638 78.1163 15.1056C78.8314 15.9798 78.9752 16.7807 78.8538 17.4373C79.701 16.3385 80.9391 15.2694 82.3596 15.3518C85.0396 15.5072 87.0074 16.3524 87.4942 19.5484C87.9811 22.7443 88.7252 40.8191 88.9887 44.0021C89.2523 47.185 90.5599 55.5457 89.8879 59.4054C89.2158 63.2651 90.2015 73.3128 87.27 73.6301C84.3385 73.9473 64.7675 75.2487 61.9487 73.6231C59.1299 71.9976 62.1725 46.5888 63.8365 41.0809C65.5005 35.573 66.448 15.3786 71.1929 14.704Z" fill="url(#paint3_linear)"/>
<path d="M69.7177 5.91295V15.3445C73.397 17.2308 81.2964 20.579 83.459 18.8813C86.1622 16.7592 85.9369 4.2624 85.4864 2.37611C85.0358 0.489828 84.5853 0.0182202 80.7558 0.0182202C76.9262 0.0182202 80.7558 2.84769 78.0525 2.37611C75.3493 1.90453 75.3493 -0.217569 72.8714 0.0182202C70.3935 0.254009 69.7177 3.31927 69.7177 5.91295Z" fill="#212226"/>
<path d="M69.7177 5.91295V15.3445C73.397 17.2308 81.2964 20.579 83.459 18.8813C86.1622 16.7592 85.9369 4.2624 85.4864 2.37611C85.0358 0.489828 84.5853 0.0182202 80.7558 0.0182202C76.9262 0.0182202 80.7558 2.84769 78.0525 2.37611C75.3493 1.90453 75.3493 -0.217569 72.8714 0.0182202C70.3935 0.254009 69.7177 3.31927 69.7177 5.91295Z" fill="url(#paint4_linear)"/>
<path d="M62.8753 109.713C62.1203 107.07 59.7294 104.365 58.6284 103.343C56.9768 104.522 44 128.588 44 130.476C44 132.363 49.8985 144.396 50.3704 146.284C50.8423 148.171 48.4829 147.7 49.8985 149.115C51.3142 150.531 55.0893 149.823 57.4487 149.823C59.8081 149.823 61.6956 146.756 60.28 145.576C58.8643 144.396 57.2127 143.453 56.033 141.329C54.8533 139.206 54.1455 136.846 54.1455 134.251C54.1455 131.656 50.6064 130.004 52.4939 130.476C54.3814 130.948 59.5721 121.746 60.28 120.566C60.9878 119.387 64.291 119.623 65.2347 118.443C66.1785 117.263 63.8191 113.016 62.8753 109.713Z" fill="#AA6431"/>
<path d="M62.8753 109.713C62.1203 107.07 59.7294 104.365 58.6284 103.343C56.9768 104.522 44 128.588 44 130.476C44 132.363 49.8985 144.396 50.3704 146.284C50.8423 148.171 48.4829 147.7 49.8985 149.115C51.3142 150.531 55.0893 149.823 57.4487 149.823C59.8081 149.823 61.6956 146.756 60.28 145.576C58.8643 144.396 57.2127 143.453 56.033 141.329C54.8533 139.206 54.1455 136.846 54.1455 134.251C54.1455 131.656 50.6064 130.004 52.4939 130.476C54.3814 130.948 59.5721 121.746 60.28 120.566C60.9878 119.387 64.291 119.623 65.2347 118.443C66.1785 117.263 63.8191 113.016 62.8753 109.713Z" fill="url(#paint5_linear)"/>
<path d="M83.1663 112.544C83.1663 109.902 86.9413 104.365 88.8289 101.927C91.6602 102.871 104.873 126.465 105.345 128.588C105.817 130.712 102.042 148.407 101.334 149.351C100.626 150.295 98.0306 149.115 94.2556 149.351C90.4805 149.587 87.8851 147.228 88.8289 145.34C89.7726 143.453 93.3118 146.284 94.2556 145.34C95.1993 144.396 96.615 131.419 95.6712 129.532C94.7274 127.644 87.1773 120.566 85.9976 119.151C84.8179 117.735 83.1663 119.151 82.2225 118.443C81.2787 117.735 83.1663 115.847 83.1663 112.544Z" fill="#AA6431"/>
<path d="M83.1663 112.544C83.1663 109.902 86.9413 104.365 88.8289 101.927C91.6602 102.871 104.873 126.465 105.345 128.588C105.817 130.712 102.042 148.407 101.334 149.351C100.626 150.295 98.0306 149.115 94.2556 149.351C90.4805 149.587 87.8851 147.228 88.8289 145.34C89.7726 143.453 93.3118 146.284 94.2556 145.34C95.1993 144.396 96.615 131.419 95.6712 129.532C94.7274 127.644 87.1773 120.566 85.9976 119.151C84.8179 117.735 83.1663 119.151 82.2225 118.443C81.2787 117.735 83.1663 115.847 83.1663 112.544Z" fill="url(#paint6_linear)"/>
<defs>
<linearGradient id="paint0_linear" x1="45.3712" y1="99.9014" x2="69.0145" y2="98.3956" gradientUnits="userSpaceOnUse">
<stop stop-color="white"/>
<stop offset="1" stop-color="white" stop-opacity="0"/>
</linearGradient>
<linearGradient id="paint1_linear" x1="59.7225" y1="128.056" x2="72.2898" y2="127.24" gradientUnits="userSpaceOnUse">
<stop stop-color="white"/>
<stop offset="1" stop-color="white" stop-opacity="0"/>
</linearGradient>
<linearGradient id="paint2_linear" x1="43.5217" y1="126.182" x2="72.3361" y2="139.059" gradientUnits="userSpaceOnUse">
<stop stop-color="white"/>
<stop offset="1" stop-color="white" stop-opacity="0"/>
</linearGradient>
<linearGradient id="paint3_linear" x1="24.3965" y1="19.7185" x2="83.8711" y2="35.3191" gradientUnits="userSpaceOnUse">
<stop stop-color="white"/>
<stop offset="1" stop-color="white" stop-opacity="0"/>
</linearGradient>
<linearGradient id="paint4_linear" x1="47.9988" y1="2.76389" x2="79.0956" y2="13.7219" gradientUnits="userSpaceOnUse">
<stop stop-color="white"/>
<stop offset="1" stop-color="white" stop-opacity="0"/>
</linearGradient>
<linearGradient id="paint5_linear" x1="29.8738" y1="129.042" x2="53.7249" y2="127.891" gradientUnits="userSpaceOnUse">
<stop stop-color="white"/>
<stop offset="1" stop-color="white" stop-opacity="0"/>
</linearGradient>
<linearGradient id="paint6_linear" x1="66.5324" y1="128.254" x2="92.5697" y2="126.914" gradientUnits="userSpaceOnUse">
<stop stop-color="white"/>
<stop offset="1" stop-color="white" stop-opacity="0"/>
</linearGradient>
</defs>
</svg>
