<svg width="150" height="150" viewBox="0 0 150 150" fill="none" xmlns="http://www.w3.org/2000/svg">
<path d="M62.5993 67.1875C63.3134 65.0452 71.3768 63.617 75.3193 63.1707C80.6006 63.1707 90.8956 63.974 89.8245 67.1875C88.4855 71.2043 88.7087 78.5685 88.7087 80.3537C88.7087 82.139 90.2708 91.5116 91.1634 95.7516C92.056 99.9916 85.3613 114.274 84.6919 112.711C84.1563 111.462 73.7572 111.149 68.6246 111.149L61.2604 97.9831C64.1614 93.0737 61.7067 69.8654 62.5993 67.1875Z" fill="#8B99A6"/>
<path d="M62.5993 67.1875C63.3134 65.0452 71.3768 63.617 75.3193 63.1707C80.6006 63.1707 90.8956 63.974 89.8245 67.1875C88.4855 71.2043 88.7087 78.5685 88.7087 80.3537C88.7087 82.139 90.2708 91.5116 91.1634 95.7516C92.056 99.9916 85.3613 114.274 84.6919 112.711C84.1563 111.462 73.7572 111.149 68.6246 111.149L61.2604 97.9831C64.1614 93.0737 61.7067 69.8654 62.5993 67.1875Z" fill="url(#paint0_linear)"/>
<path d="M79.5592 109.587C79.7824 108.025 76.7326 109.587 75.0961 109.587C73.8316 109.141 71.5256 108.025 71.5256 109.587C71.5256 111.149 71.1537 114.497 69.9635 116.282V123.423L75.0961 126.101L80.675 123.423V116.282C80.675 113.158 79.3361 111.149 79.5592 109.587Z" fill="#AA6431"/>
<path d="M79.5592 109.587C79.7824 108.025 76.7326 109.587 75.0961 109.587C73.8316 109.141 71.5256 108.025 71.5256 109.587C71.5256 111.149 71.1537 114.497 69.9635 116.282V123.423L75.0961 126.101L80.675 123.423V116.282C80.675 113.158 79.3361 111.149 79.5592 109.587Z" fill="url(#paint1_linear)"/>
<path d="M80.4519 121.192V114.943C81.1213 116.282 82.9067 119.406 82.9067 121.192C82.9067 122.977 78.8898 128.779 75.9888 128.779C73.0877 128.779 68.4014 125.208 67.9551 123.2C67.5088 121.192 69.9635 112.488 69.9635 114.943C69.9635 117.398 69.5172 118.737 69.9635 121.192C70.4098 123.646 72.6414 125.208 75.9888 125.208C78.6666 125.208 80.08 122.53 80.4519 121.192Z" fill="#212226"/>
<path d="M80.4519 121.192V114.943C81.1213 116.282 82.9067 119.406 82.9067 121.192C82.9067 122.977 78.8898 128.779 75.9888 128.779C73.0877 128.779 68.4014 125.208 67.9551 123.2C67.5088 121.192 69.9635 112.488 69.9635 114.943C69.9635 117.398 69.5172 118.737 69.9635 121.192C70.4098 123.646 72.6414 125.208 75.9888 125.208C78.6666 125.208 80.08 122.53 80.4519 121.192Z" fill="url(#paint2_linear)"/>
<path d="M86.0308 102.223C87.2805 98.6525 89.9733 96.4209 91.1634 95.7515C92.5024 97.0904 92.9487 103.785 93.1719 106.463C93.395 109.141 93.6182 121.861 94.734 126.77C95.8497 131.68 97.635 145.515 99.1971 146.854C100.759 148.193 102.768 145.515 101.652 146.854C100.536 148.193 97.635 149.755 95.8497 149.979C94.0645 150.202 88.7087 148.64 89.8245 146.854C90.9403 145.069 91.1634 143.284 91.1634 140.606C91.1634 137.928 87.1466 129.225 86.0308 126.77C84.915 124.316 84.6919 116.728 84.0224 113.381C83.353 110.034 84.4687 106.686 86.0308 102.223Z" fill="#AA6431"/>
<path d="M86.0308 102.223C87.2805 98.6525 89.9733 96.4209 91.1634 95.7515C92.5024 97.0904 92.9487 103.785 93.1719 106.463C93.395 109.141 93.6182 121.861 94.734 126.77C95.8497 131.68 97.635 145.515 99.1971 146.854C100.759 148.193 102.768 145.515 101.652 146.854C100.536 148.193 97.635 149.755 95.8497 149.979C94.0645 150.202 88.7087 148.64 89.8245 146.854C90.9403 145.069 91.1634 143.284 91.1634 140.606C91.1634 137.928 87.1466 129.225 86.0308 126.77C84.915 124.316 84.6919 116.728 84.0224 113.381C83.353 110.034 84.4687 106.686 86.0308 102.223Z" fill="url(#paint3_linear)"/>
<path d="M60.1446 107.802C61.2158 106.195 61.7811 99.3963 61.9299 96.1978C65.3219 97.2689 69.1453 106.463 70.633 110.926C69.9635 111.298 68.5353 112.845 68.1783 116.059C67.7319 120.076 63.9383 130.787 64.1614 133.019C64.3846 135.25 61.9299 143.953 61.9299 145.962C61.9299 147.97 67.0625 146.408 66.1698 147.524C65.2772 148.64 60.1446 149.309 57.6899 149.532C55.2352 149.755 47.6478 147.301 49.2099 147.524C50.772 147.747 54.7889 146.408 54.7889 143.953C54.7889 141.499 56.1278 127.886 57.6899 124.762C59.252 121.638 57.6899 116.951 57.6899 114.72C57.6899 112.488 58.8057 109.81 60.1446 107.802Z" fill="#AA6431"/>
<path d="M60.1446 107.802C61.2158 106.195 61.7811 99.3963 61.9299 96.1978C65.3219 97.2689 69.1453 106.463 70.633 110.926C69.9635 111.298 68.5353 112.845 68.1783 116.059C67.7319 120.076 63.9383 130.787 64.1614 133.019C64.3846 135.25 61.9299 143.953 61.9299 145.962C61.9299 147.97 67.0625 146.408 66.1698 147.524C65.2772 148.64 60.1446 149.309 57.6899 149.532C55.2352 149.755 47.6478 147.301 49.2099 147.524C50.772 147.747 54.7889 146.408 54.7889 143.953C54.7889 141.499 56.1278 127.886 57.6899 124.762C59.252 121.638 57.6899 116.951 57.6899 114.72C57.6899 112.488 58.8057 109.81 60.1446 107.802Z" fill="url(#paint4_linear)"/>
<path d="M69.0709 13.6298C70.7074 12.9604 74.382 12.0231 75.9888 13.6298C76.7514 14.3925 76.9409 15.1183 76.8579 15.7261C77.6382 14.6747 78.8094 13.6298 80.2287 13.6298C82.9066 13.6298 84.915 14.2993 85.5845 17.2004C86.254 20.1014 88.0392 36.615 88.4855 39.5161C88.9319 42.4171 90.7171 50.0044 90.2708 53.575C89.8245 57.1455 91.3866 66.2949 88.4855 66.7412C85.5845 67.1875 66.1698 69.4191 63.2688 68.0802C60.3678 66.7412 61.9299 43.3097 63.2688 38.1771C64.6077 33.0445 64.3846 14.4998 69.0709 13.6298Z" fill="#31374B"/>
<path d="M69.0709 13.6298C70.7074 12.9604 74.382 12.0231 75.9888 13.6298C76.7514 14.3925 76.9409 15.1183 76.8579 15.7261C77.6382 14.6747 78.8094 13.6298 80.2287 13.6298C82.9066 13.6298 84.915 14.2993 85.5845 17.2004C86.254 20.1014 88.0392 36.615 88.4855 39.5161C88.9319 42.4171 90.7171 50.0044 90.2708 53.575C89.8245 57.1455 91.3866 66.2949 88.4855 66.7412C85.5845 67.1875 66.1698 69.4191 63.2688 68.0802C60.3678 66.7412 61.9299 43.3097 63.2688 38.1771C64.6077 33.0445 64.3846 14.4998 69.0709 13.6298Z" fill="url(#paint5_linear)"/>
<path d="M69.2941 5.59617V14.5224C72.939 16.3077 80.7643 19.4765 82.9066 17.8698C85.5845 15.8614 85.3614 4.03404 84.9151 2.24881C84.4687 0.463586 84.0224 0.0172441 80.2288 0.0172441C76.4351 0.0172441 80.2288 2.69513 77.5509 2.24881C74.873 1.8025 74.873 -0.205913 72.4183 0.0172441C69.9635 0.240401 69.2941 3.14144 69.2941 5.59617Z" fill="#212226"/>
<path d="M69.2941 5.59617V14.5224C72.939 16.3077 80.7643 19.4765 82.9066 17.8698C85.5845 15.8614 85.3614 4.03404 84.9151 2.24881C84.4687 0.463586 84.0224 0.0172441 80.2288 0.0172441C76.4351 0.0172441 80.2288 2.69513 77.5509 2.24881C74.873 1.8025 74.873 -0.205913 72.4183 0.0172441C69.9635 0.240401 69.2941 3.14144 69.2941 5.59617Z" fill="url(#paint6_linear)"/>
<defs>
<linearGradient id="paint0_linear" x1="48.7187" y1="94.1507" x2="71.6661" y2="92.1112" gradientUnits="userSpaceOnUse">
<stop stop-color="white"/>
<stop offset="1" stop-color="white" stop-opacity="0"/>
</linearGradient>
<linearGradient id="paint1_linear" x1="62.9104" y1="118.322" x2="74.7967" y2="117.55" gradientUnits="userSpaceOnUse">
<stop stop-color="white"/>
<stop offset="1" stop-color="white" stop-opacity="0"/>
</linearGradient>
<linearGradient id="paint2_linear" x1="47.5875" y1="116.549" x2="74.8406" y2="128.728" gradientUnits="userSpaceOnUse">
<stop stop-color="white"/>
<stop offset="1" stop-color="white" stop-opacity="0"/>
</linearGradient>
<linearGradient id="paint3_linear" x1="71.8727" y1="125.632" x2="92.0741" y2="124.923" gradientUnits="userSpaceOnUse">
<stop stop-color="white"/>
<stop offset="1" stop-color="white" stop-opacity="0"/>
</linearGradient>
<linearGradient id="paint4_linear" x1="34.7556" y1="125.583" x2="58.8187" y2="124.559" gradientUnits="userSpaceOnUse">
<stop stop-color="white"/>
<stop offset="1" stop-color="white" stop-opacity="0"/>
</linearGradient>
<linearGradient id="paint5_linear" x1="22.7582" y1="20.7084" x2="82.4636" y2="33.7732" gradientUnits="userSpaceOnUse">
<stop stop-color="white"/>
<stop offset="1" stop-color="white" stop-opacity="0"/>
</linearGradient>
<linearGradient id="paint6_linear" x1="47.7787" y1="2.61581" x2="78.2623" y2="13.8595" gradientUnits="userSpaceOnUse">
<stop stop-color="white"/>
<stop offset="1" stop-color="white" stop-opacity="0"/>
</linearGradient>
</defs>
</svg>
