<svg width="150" height="150" viewBox="0 0 150 150" fill="none" xmlns="http://www.w3.org/2000/svg">
<path d="M62.004 81.4456C62.7294 79.2748 70.9202 77.8275 74.9249 77.3752C80.2896 77.3752 90.7472 78.1893 89.6591 81.4456C88.299 85.516 88.5257 92.9785 88.5257 94.7875C88.5257 96.5966 88.7524 106.781 89.6591 111.077C90.5658 115.374 85.6651 124.245 84.1332 125.12C82.6013 125.994 73.3381 125.994 68.1244 125.994L59.6227 111.077C62.5695 106.102 61.0973 84.1592 62.004 81.4456Z" fill="#8B99A6"/>
<path d="M62.004 81.4456C62.7294 79.2748 70.9202 77.8275 74.9249 77.3752C80.2896 77.3752 90.7472 78.1893 89.6591 81.4456C88.299 85.516 88.5257 92.9785 88.5257 94.7875C88.5257 96.5966 88.7524 106.781 89.6591 111.077C90.5658 115.374 85.6651 124.245 84.1332 125.12C82.6013 125.994 73.3381 125.994 68.1244 125.994L59.6227 111.077C62.5695 106.102 61.0973 84.1592 62.004 81.4456Z" fill="url(#paint0_linear)"/>
<path d="M80.1103 125.274C80.3656 123.487 76.8762 125.274 75.0039 125.274C73.5571 124.763 70.9188 123.487 70.9188 125.274C70.9188 127.061 70.4933 130.891 69.1316 132.934V141.104L75.0039 144.168L81.3869 141.104V132.934C81.3869 129.359 79.8549 127.061 80.1103 125.274Z" fill="#AA6431"/>
<path d="M80.1103 125.274C80.3656 123.487 76.8762 125.274 75.0039 125.274C73.5571 124.763 70.9188 123.487 70.9188 125.274C70.9188 127.061 70.4933 130.891 69.1316 132.934V141.104L75.0039 144.168L81.3869 141.104V132.934C81.3869 129.359 79.8549 127.061 80.1103 125.274Z" fill="url(#paint1_linear)"/>
<path d="M81.1315 138.551V131.402C81.8974 132.934 83.94 136.508 83.94 138.551C83.94 140.593 79.3443 147.231 76.0251 147.231C72.7059 147.231 67.3443 143.146 66.8337 140.848C66.323 138.551 69.1315 128.593 69.1315 131.402C69.1315 134.21 68.6209 135.742 69.1315 138.551C69.6422 141.359 72.1953 143.146 76.0251 143.146C79.0889 143.146 80.7059 140.083 81.1315 138.551Z" fill="#212226"/>
<path d="M81.1315 138.551V131.402C81.8974 132.934 83.94 136.508 83.94 138.551C83.94 140.593 79.3443 147.231 76.0251 147.231C72.7059 147.231 67.3443 143.146 66.8337 140.848C66.323 138.551 69.1315 128.593 69.1315 131.402C69.1315 134.21 68.6209 135.742 69.1315 138.551C69.6422 141.359 72.1953 143.146 76.0251 143.146C79.0889 143.146 80.7059 140.083 81.1315 138.551Z" fill="url(#paint2_linear)"/>
<path d="M75.9631 14.5672C74.6865 14.3119 73.6652 13.5461 71.112 14.312C68.5588 15.0779 65.4652 38.9332 63.8481 45.2649C62.2309 51.5965 59.4571 80.6904 62.3273 82.4767C65.1974 84.2629 84.9745 82.2896 87.9355 81.8543C90.8964 81.4189 89.7796 69.9686 90.4132 65.5438C91.0469 61.1191 89.6246 51.6034 89.3201 47.9749C89.0156 44.3463 87.7276 22.8007 87.1971 19.1629C86.6666 15.5251 85.9927 14.4805 83.112 14.5672C80.2314 14.654 78.9747 19.1629 77.9796 19.1629C76.9844 19.163 77.2397 14.8226 75.9631 14.5672Z" fill="#31374B"/>
<path d="M75.9631 14.5672C74.6865 14.3119 73.6652 13.5461 71.112 14.312C68.5588 15.0779 65.4652 38.9332 63.8481 45.2649C62.2309 51.5965 59.4571 80.6904 62.3273 82.4767C65.1974 84.2629 84.9745 82.2896 87.9355 81.8543C90.8964 81.4189 89.7796 69.9686 90.4132 65.5438C91.0469 61.1191 89.6246 51.6034 89.3201 47.9749C89.0156 44.3463 87.7276 22.8007 87.1971 19.1629C86.6666 15.5251 85.9927 14.4805 83.112 14.5672C80.2314 14.654 78.9747 19.1629 77.9796 19.1629C76.9844 19.163 77.2397 14.8226 75.9631 14.5672Z" fill="url(#paint3_linear)"/>
<path d="M70.3461 5.6465V15.8526C73.8592 17.8938 81.4016 21.517 83.4665 19.6799C86.0475 17.3835 87.1971 9.20541 87.1971 5.64647C87.1971 2.08753 84.6439 0.0138767 82.346 0.0138767C80.0482 0.0138767 79.5375 3.07775 78.0056 3.07772C76.4737 3.07769 76.2865 -0.24116 73.9205 0.0139927C71.5545 0.269146 70.3461 2.83982 70.3461 5.6465Z" fill="#212226"/>
<path d="M70.3461 5.6465V15.8526C73.8592 17.8938 81.4016 21.517 83.4665 19.6799C86.0475 17.3835 87.1971 9.20541 87.1971 5.64647C87.1971 2.08753 84.6439 0.0138767 82.346 0.0138767C80.0482 0.0138767 79.5375 3.07775 78.0056 3.07772C76.4737 3.07769 76.2865 -0.24116 73.9205 0.0139927C71.5545 0.269146 70.3461 2.83982 70.3461 5.6465Z" fill="url(#paint4_linear)"/>
<path d="M43.027 125.375C43.4356 123.945 54.4312 114.907 59.878 110.567C62.4312 111.588 69.8354 125.375 68.0482 126.141C66.261 126.907 61.1546 125.12 60.644 126.141C60.1334 127.162 52.4738 130.481 51.9632 131.247C51.4525 132.013 55.027 143.503 55.793 144.269C56.5589 145.035 61.41 145.035 60.644 146.311C59.878 147.588 55.793 149.375 53.4951 149.886C51.1972 150.396 47.1121 149.12 47.1121 147.588C47.1121 146.056 48.8994 147.588 49.1547 146.311C49.41 145.035 42.5164 127.162 43.027 125.375Z" fill="#AA6431"/>
<path d="M43.027 125.375C43.4356 123.945 54.4312 114.907 59.878 110.567C62.4312 111.588 69.8354 125.375 68.0482 126.141C66.261 126.907 61.1546 125.12 60.644 126.141C60.1334 127.162 52.4738 130.481 51.9632 131.247C51.4525 132.013 55.027 143.503 55.793 144.269C56.5589 145.035 61.41 145.035 60.644 146.311C59.878 147.588 55.793 149.375 53.4951 149.886C51.1972 150.396 47.1121 149.12 47.1121 147.588C47.1121 146.056 48.8994 147.588 49.1547 146.311C49.41 145.035 42.5164 127.162 43.027 125.375Z" fill="url(#paint5_linear)"/>
<path d="M106.091 125.886C105.682 124.252 94.0056 113.631 88.2184 108.524C86.6864 108.524 82.6014 124.099 84.8992 124.354C87.1971 124.609 97.9204 129.46 98.6864 130.737C99.4524 132.013 96.6439 145.545 95.8779 144.269C95.1119 142.992 89.2396 145.545 90.7715 147.077C92.3034 148.609 98.6864 149.63 100.218 149.63C101.75 149.63 104.048 147.077 103.793 145.545C103.537 144.013 105.325 137.375 106.091 135.077C106.857 132.779 106.601 127.928 106.091 125.886Z" fill="#AA6431"/>
<path d="M106.091 125.886C105.682 124.252 94.0056 113.631 88.2184 108.524C86.6864 108.524 82.6014 124.099 84.8992 124.354C87.1971 124.609 97.9204 129.46 98.6864 130.737C99.4524 132.013 96.6439 145.545 95.8779 144.269C95.1119 142.992 89.2396 145.545 90.7715 147.077C92.3034 148.609 98.6864 149.63 100.218 149.63C101.75 149.63 104.048 147.077 103.793 145.545C103.537 144.013 105.325 137.375 106.091 135.077C106.857 132.779 106.601 127.928 106.091 125.886Z" fill="url(#paint6_linear)"/>
<defs>
<linearGradient id="paint0_linear" x1="47.013" y1="107.706" x2="70.075" y2="105.601" gradientUnits="userSpaceOnUse">
<stop stop-color="white"/>
<stop offset="1" stop-color="white" stop-opacity="0"/>
</linearGradient>
<linearGradient id="paint1_linear" x1="61.062" y1="135.268" x2="74.6614" y2="134.385" gradientUnits="userSpaceOnUse">
<stop stop-color="white"/>
<stop offset="1" stop-color="white" stop-opacity="0"/>
</linearGradient>
<linearGradient id="paint2_linear" x1="43.5307" y1="133.239" x2="74.7115" y2="147.173" gradientUnits="userSpaceOnUse">
<stop stop-color="white"/>
<stop offset="1" stop-color="white" stop-opacity="0"/>
</linearGradient>
<linearGradient id="paint3_linear" x1="23.7052" y1="21.88" x2="84.6744" y2="35.3337" gradientUnits="userSpaceOnUse">
<stop stop-color="white"/>
<stop offset="1" stop-color="white" stop-opacity="0"/>
</linearGradient>
<linearGradient id="paint4_linear" x1="47.5349" y1="2.88343" x2="80.1469" y2="14.453" gradientUnits="userSpaceOnUse">
<stop stop-color="white"/>
<stop offset="1" stop-color="white" stop-opacity="0"/>
</linearGradient>
<linearGradient id="paint5_linear" x1="26.3256" y1="132.287" x2="54.4171" y2="130.393" gradientUnits="userSpaceOnUse">
<stop stop-color="white"/>
<stop offset="1" stop-color="white" stop-opacity="0"/>
</linearGradient>
<linearGradient id="paint6_linear" x1="69.4896" y1="131.166" x2="94.3264" y2="129.748" gradientUnits="userSpaceOnUse">
<stop stop-color="white"/>
<stop offset="1" stop-color="white" stop-opacity="0"/>
</linearGradient>
</defs>
</svg>
