<svg width="150" height="150" viewBox="0 0 150 150" fill="none" xmlns="http://www.w3.org/2000/svg">
<path d="M60.502 82.2949C61.2513 80.0779 69.7127 78.5998 73.8498 78.1379C79.3919 78.1379 90.195 78.9693 89.071 82.2949C87.6659 86.4519 87.9001 94.0731 87.9001 95.9207C87.9001 97.7682 89.5393 107.468 90.476 111.856C91.4127 116.244 84.3875 131.024 83.685 129.408C83.123 128.114 72.2106 127.791 66.8246 127.791L59.0969 114.165C62.1412 109.085 59.5653 85.0663 60.502 82.2949Z" fill="#8B99A6"/>
<path d="M60.502 82.2949C61.2513 80.0779 69.7127 78.5998 73.8498 78.1379C79.3919 78.1379 90.195 78.9693 89.071 82.2949C87.6659 86.4519 87.9001 94.0731 87.9001 95.9207C87.9001 97.7682 89.5393 107.468 90.476 111.856C91.4127 116.244 84.3875 131.024 83.685 129.408C83.123 128.114 72.2106 127.791 66.8246 127.791L59.0969 114.165C62.1412 109.085 59.5653 85.0663 60.502 82.2949Z" fill="url(#paint0_linear)"/>
<path d="M79.6129 125.756C79.8751 123.921 76.2916 125.756 74.3688 125.756C72.8829 125.232 70.1735 123.921 70.1735 125.756C70.1735 127.591 69.7365 131.525 68.338 133.622V142.013L74.3688 145.159L80.924 142.013V133.622C80.924 129.951 79.3507 127.591 79.6129 125.756Z" fill="#AA6431"/>
<path d="M79.6129 125.756C79.8751 123.921 76.2916 125.756 74.3688 125.756C72.8829 125.232 70.1735 123.921 70.1735 125.756C70.1735 127.591 69.7365 131.525 68.338 133.622V142.013L74.3688 145.159L80.924 142.013V133.622C80.924 129.951 79.3507 127.591 79.6129 125.756Z" fill="url(#paint1_linear)"/>
<path d="M80.6616 139.391V132.049C81.4482 133.622 83.546 137.293 83.546 139.391C83.546 141.488 78.8262 148.306 75.4175 148.306C72.0088 148.306 66.5025 144.11 65.978 141.751C65.4536 139.391 68.3379 129.165 68.3379 132.049C68.3379 134.933 67.8135 136.506 68.3379 139.391C68.8623 142.275 71.4844 144.11 75.4175 144.11C78.564 144.11 80.2246 140.964 80.6616 139.391Z" fill="#212226"/>
<path d="M80.6616 139.391V132.049C81.4482 133.622 83.546 137.293 83.546 139.391C83.546 141.488 78.8262 148.306 75.4175 148.306C72.0088 148.306 66.5025 144.11 65.978 141.751C65.4536 139.391 68.3379 129.165 68.3379 132.049C68.3379 134.933 67.8135 136.506 68.3379 139.391C68.8623 142.275 71.4844 144.11 75.4175 144.11C78.564 144.11 80.2246 140.964 80.6616 139.391Z" fill="url(#paint2_linear)"/>
<path d="M67.3695 15.7849C69.0731 14.9538 72.8985 13.7903 74.5711 15.7849C75.3651 16.7317 75.5623 17.6328 75.4759 18.3873C76.2882 17.0821 77.5075 15.7849 78.985 15.7849C81.7728 15.7849 83.8636 16.6161 84.5605 20.2176C85.2574 23.819 87.1159 44.3197 87.5806 47.9212C88.0452 51.5227 89.9037 60.9419 89.439 65.3745C88.9744 69.8071 90.6006 81.1655 87.5806 81.7196C84.5605 82.2737 64.3494 85.0441 61.3294 83.3818C58.3094 81.7196 59.9355 52.6308 61.3294 46.259C62.7233 39.8871 62.4909 16.8649 67.3695 15.7849Z" fill="#31374B"/>
<path d="M67.3695 15.7849C69.0731 14.9538 72.8985 13.7903 74.5711 15.7849C75.3651 16.7317 75.5623 17.6328 75.4759 18.3873C76.2882 17.0821 77.5075 15.7849 78.985 15.7849C81.7728 15.7849 83.8636 16.6161 84.5605 20.2176C85.2574 23.819 87.1159 44.3197 87.5806 47.9212C88.0452 51.5227 89.9037 60.9419 89.439 65.3745C88.9744 69.8071 90.6006 81.1655 87.5806 81.7196C84.5605 82.2737 64.3494 85.0441 61.3294 83.3818C58.3094 81.7196 59.9355 52.6308 61.3294 46.259C62.7233 39.8871 62.4909 16.8649 67.3695 15.7849Z" fill="url(#paint3_linear)"/>
<path d="M67.4875 6.41092V16.6368C71.336 18.682 79.5983 22.3121 81.8603 20.4715C84.6877 18.1706 84.4521 4.62137 83.9808 2.57622C83.5096 0.53108 83.0384 0.0197547 79.0329 0.0197547C75.0273 0.0197547 79.0329 3.08752 76.2054 2.57622C73.378 2.06493 73.378 -0.235892 70.7862 0.0197547C68.1944 0.275402 67.4875 3.59881 67.4875 6.41092Z" fill="#212226"/>
<path d="M67.4875 6.41092V16.6368C71.336 18.682 79.5983 22.3121 81.8603 20.4715C84.6877 18.1706 84.4521 4.62137 83.9808 2.57622C83.5096 0.53108 83.0384 0.0197547 79.0329 0.0197547C75.0273 0.0197547 79.0329 3.08752 76.2054 2.57622C73.378 2.06493 73.378 -0.235892 70.7862 0.0197547C68.1944 0.275402 67.4875 3.59881 67.4875 6.41092Z" fill="url(#paint4_linear)"/>
<path d="M48.0843 136.61C47.0354 134.722 56.0379 119.392 60.6702 111.963C63.2923 111.963 67.7498 125.597 66.4388 126.908C65.1277 128.22 58.3103 134.775 58.0481 135.824C57.7859 136.872 64.0789 142.379 65.9144 142.379C67.7498 142.379 74.8294 146.574 74.0428 148.147C73.2562 149.721 67.4876 149.458 64.0789 149.983C60.6702 150.507 49.3953 138.97 48.0843 136.61Z" fill="#AA6431"/>
<path d="M48.0843 136.61C47.0354 134.722 56.0379 119.392 60.6702 111.963C63.2923 111.963 67.7498 125.597 66.4388 126.908C65.1277 128.22 58.3103 134.775 58.0481 135.824C57.7859 136.872 64.0789 142.379 65.9144 142.379C67.7498 142.379 74.8294 146.574 74.0428 148.147C73.2562 149.721 67.4876 149.458 64.0789 149.983C60.6702 150.507 49.3953 138.97 48.0843 136.61Z" fill="url(#paint5_linear)"/>
<path d="M84.7933 117.731C85.4226 115.843 88.202 111.176 89.513 109.078C92.6594 111.438 101.837 134.25 101.312 136.872C100.788 139.494 91.0863 147.098 89.5131 147.885C87.9398 148.672 80.598 148.672 78.2381 148.409C75.8783 148.147 75.8783 145.787 76.9271 144.476C77.9759 143.165 81.1224 144.739 83.22 144.476C85.3176 144.214 90.2997 135.824 90.5619 134.25C90.8241 132.677 84.7933 127.957 83.22 126.646C81.6468 125.335 84.0066 120.091 84.7933 117.731Z" fill="#AA6431"/>
<path d="M84.7933 117.731C85.4226 115.843 88.202 111.176 89.513 109.078C92.6594 111.438 101.837 134.25 101.312 136.872C100.788 139.494 91.0863 147.098 89.5131 147.885C87.9398 148.672 80.598 148.672 78.2381 148.409C75.8783 148.147 75.8783 145.787 76.9271 144.476C77.9759 143.165 81.1224 144.739 83.22 144.476C85.3176 144.214 90.2997 135.824 90.5619 134.25C90.8241 132.677 84.7933 127.957 83.22 126.646C81.6468 125.335 84.0066 120.091 84.7933 117.731Z" fill="url(#paint6_linear)"/>
<defs>
<linearGradient id="paint0_linear" x1="45.9362" y1="110.199" x2="70.011" y2="108.029" gradientUnits="userSpaceOnUse">
<stop stop-color="white"/>
<stop offset="1" stop-color="white" stop-opacity="0"/>
</linearGradient>
<linearGradient id="paint1_linear" x1="60.0507" y1="136.019" x2="74.017" y2="135.112" gradientUnits="userSpaceOnUse">
<stop stop-color="white"/>
<stop offset="1" stop-color="white" stop-opacity="0"/>
</linearGradient>
<linearGradient id="paint2_linear" x1="42.0463" y1="133.936" x2="74.0684" y2="148.246" gradientUnits="userSpaceOnUse">
<stop stop-color="white"/>
<stop offset="1" stop-color="white" stop-opacity="0"/>
</linearGradient>
<linearGradient id="paint3_linear" x1="19.157" y1="24.5726" x2="82.1662" y2="36.1344" gradientUnits="userSpaceOnUse">
<stop stop-color="white"/>
<stop offset="1" stop-color="white" stop-opacity="0"/>
</linearGradient>
<linearGradient id="paint4_linear" x1="44.7707" y1="2.99666" x2="77.5475" y2="14.1391" gradientUnits="userSpaceOnUse">
<stop stop-color="white"/>
<stop offset="1" stop-color="white" stop-opacity="0"/>
</linearGradient>
<linearGradient id="paint5_linear" x1="30.8119" y1="132.914" x2="59.7503" y2="130.829" gradientUnits="userSpaceOnUse">
<stop stop-color="white"/>
<stop offset="1" stop-color="white" stop-opacity="0"/>
</linearGradient>
<linearGradient id="paint6_linear" x1="59.743" y1="130.829" x2="87.5652" y2="128.974" gradientUnits="userSpaceOnUse">
<stop stop-color="white"/>
<stop offset="1" stop-color="white" stop-opacity="0"/>
</linearGradient>
</defs>
</svg>
