<svg width="150" height="150" viewBox="0 0 150 150" fill="none" xmlns="http://www.w3.org/2000/svg">
<path d="M61.5088 66.8611C62.2195 64.7292 70.2437 63.3079 74.167 62.8638C79.4227 62.8638 89.6676 63.6632 88.6017 66.8611C87.2693 70.8584 87.4913 78.1868 87.4913 79.9634C87.4913 81.7399 89.0458 91.067 89.9341 95.2864C90.8224 99.5058 84.1602 113.718 83.494 112.164C82.961 110.92 72.6125 110.609 67.5048 110.609L60.1764 97.5071C63.0633 92.6215 60.6205 69.5259 61.5088 66.8611Z" fill="#8B99A6"/>
<path d="M61.5088 66.8611C62.2195 64.7292 70.2437 63.3079 74.167 62.8638C79.4227 62.8638 89.6676 63.6632 88.6017 66.8611C87.2693 70.8584 87.4913 78.1868 87.4913 79.9634C87.4913 81.7399 89.0458 91.067 89.9341 95.2864C90.8224 99.5058 84.1602 113.718 83.494 112.164C82.961 110.92 72.6125 110.609 67.5048 110.609L60.1764 97.5071C63.0633 92.6215 60.6205 69.5259 61.5088 66.8611Z" fill="url(#paint0_linear)"/>
<path d="M67.9489 13.5635C69.5774 12.8973 73.2342 11.9646 74.8332 13.5635C75.5921 14.3225 75.7807 15.0447 75.6981 15.6495C76.4746 14.6033 77.6401 13.5635 79.0525 13.5635C81.7174 13.5635 83.7161 14.2298 84.3823 17.1167C85.0485 20.0036 86.8251 36.437 87.2692 39.324C87.7134 42.2109 89.49 49.7614 89.0458 53.3145C88.6017 56.8677 90.1562 65.9727 87.2692 66.4168C84.3823 66.861 65.062 69.0817 62.175 67.7493C59.2881 66.4168 60.8426 43.0992 62.175 37.9915C63.5075 32.8839 63.2854 14.4292 67.9489 13.5635Z" fill="#31374B"/>
<path d="M67.9489 13.5635C69.5774 12.8973 73.2342 11.9646 74.8332 13.5635C75.5921 14.3225 75.7807 15.0447 75.6981 15.6495C76.4746 14.6033 77.6401 13.5635 79.0525 13.5635C81.7174 13.5635 83.7161 14.2298 84.3823 17.1167C85.0485 20.0036 86.8251 36.437 87.2692 39.324C87.7134 42.2109 89.49 49.7614 89.0458 53.3145C88.6017 56.8677 90.1562 65.9727 87.2692 66.4168C84.3823 66.861 65.062 69.0817 62.175 67.7493C59.2881 66.4168 60.8426 43.0992 62.175 37.9915C63.5075 32.8839 63.2854 14.4292 67.9489 13.5635Z" fill="url(#paint1_linear)"/>
<path d="M78.3864 109.055C78.6085 107.5 75.5735 109.055 73.945 109.055C72.6865 108.611 70.3918 107.5 70.3918 109.055C70.3918 110.609 70.0217 113.941 68.8373 115.717V122.823L73.945 125.488L79.4968 122.823V115.717C79.4968 112.608 78.1643 110.609 78.3864 109.055Z" fill="#AA6431"/>
<path d="M78.3864 109.055C78.6085 107.5 75.5735 109.055 73.945 109.055C72.6865 108.611 70.3918 107.5 70.3918 109.055C70.3918 110.609 70.0217 113.941 68.8373 115.717V122.823L73.945 125.488L79.4968 122.823V115.717C79.4968 112.608 78.1643 110.609 78.3864 109.055Z" fill="url(#paint2_linear)"/>
<path d="M79.2746 120.603V114.385C79.9408 115.717 81.7174 118.826 81.7174 120.603C81.7174 122.379 77.7201 128.153 74.8331 128.153C71.9462 128.153 67.2827 124.6 66.8385 122.601C66.3944 120.603 68.8372 111.942 68.8372 114.385C68.8372 116.827 68.393 118.16 68.8372 120.603C69.2813 123.045 71.502 124.6 74.8331 124.6C77.498 124.6 78.9045 121.935 79.2746 120.603Z" fill="#212226"/>
<path d="M79.2746 120.603V114.385C79.9408 115.717 81.7174 118.826 81.7174 120.603C81.7174 122.379 77.7201 128.153 74.8331 128.153C71.9462 128.153 67.2827 124.6 66.8385 122.601C66.3944 120.603 68.8372 111.942 68.8372 114.385C68.8372 116.827 68.393 118.16 68.8372 120.603C69.2813 123.045 71.502 124.6 74.8331 124.6C77.498 124.6 78.9045 121.935 79.2746 120.603Z" fill="url(#paint3_linear)"/>
<path d="M82.8671 103.104C84.712 99.8228 87.7382 98.104 89.0207 97.6548C90.1 99.1994 89.3742 105.837 89.1275 108.5C88.8809 111.162 86.8895 123.665 87.1298 128.669C87.37 133.674 85.8318 145.873 87.1298 147.456C84.5261 147.826 79.2472 148.345 78.9604 147.456C77.1724 147.365 72.9988 145.681 74.4023 144.125C75.8058 142.57 80.7619 144.23 81.2272 141.606C81.6925 138.982 79.2688 129.756 78.602 127.157C77.9352 124.558 79.0348 117.085 78.9604 113.688C78.886 110.292 80.561 107.206 82.8671 103.104Z" fill="#AA6431"/>
<path d="M82.8671 103.104C84.712 99.8228 87.7382 98.104 89.0207 97.6548C90.1 99.1994 89.3742 105.837 89.1275 108.5C88.8809 111.162 86.8895 123.665 87.1298 128.669C87.37 133.674 85.8318 145.873 87.1298 147.456C84.5261 147.826 79.2472 148.345 78.9604 147.456C77.1724 147.365 72.9988 145.681 74.4023 144.125C75.8058 142.57 80.7619 144.23 81.2272 141.606C81.6925 138.982 79.2688 129.756 78.602 127.157C77.9352 124.558 79.0348 117.085 78.9604 113.688C78.886 110.292 80.561 107.206 82.8671 103.104Z" fill="url(#paint4_linear)"/>
<path d="M60.5293 108.738C61.2881 106.973 60.6165 100.217 60.1859 97.0595C63.6986 97.4967 69.097 105.806 71.3571 109.906C70.7689 110.391 69.6498 112.162 69.8793 115.372C70.1662 119.383 68.3832 130.55 69.0036 132.694C69.6241 134.838 67.6003 141.494 67.9621 143.459C68.3239 145.425 74.1801 142.793 73.9581 145.084C77.221 147.983 72.5985 148.762 69.8793 148.789C66.9925 148.123 64.6292 149.637 64.187 147.234C63.7447 144.832 60.2165 129.118 61.1824 125.779C62.1484 122.44 59.7752 118.135 59.3732 115.951C58.9712 113.767 59.5807 110.945 60.5293 108.738Z" fill="#AA6431"/>
<path d="M60.5293 108.738C61.2881 106.973 60.6165 100.217 60.1859 97.0595C63.6986 97.4967 69.097 105.806 71.3571 109.906C70.7689 110.391 69.6498 112.162 69.8793 115.372C70.1662 119.383 68.3832 130.55 69.0036 132.694C69.6241 134.838 67.6003 141.494 67.9621 143.459C68.3239 145.425 74.1801 142.793 73.9581 145.084C77.221 147.983 72.5985 148.762 69.8793 148.789C66.9925 148.123 64.6292 149.637 64.187 147.234C63.7447 144.832 60.2165 129.118 61.1824 125.779C62.1484 122.44 59.7752 118.135 59.3732 115.951C58.9712 113.767 59.5807 110.945 60.5293 108.738Z" fill="url(#paint5_linear)"/>
<path d="M68.171 5.56898V14.4519C71.7982 16.2285 79.5856 19.3819 81.7175 17.7829C84.3823 15.7843 84.1603 4.01444 83.7161 2.23789C83.272 0.461333 82.8278 0.0171603 79.0526 0.0171603C75.2773 0.0171603 79.0526 2.68203 76.3877 2.23789C73.7228 1.79374 73.7228 -0.204912 71.28 0.0171603C68.8372 0.239233 68.171 3.12618 68.171 5.56898Z" fill="#212226"/>
<path d="M68.171 5.56898V14.4519C71.7982 16.2285 79.5856 19.3819 81.7175 17.7829C84.3823 15.7843 84.1603 4.01444 83.7161 2.23789C83.272 0.461333 82.8278 0.0171603 79.0526 0.0171603C75.2773 0.0171603 79.0526 2.68203 76.3877 2.23789C73.7228 1.79374 73.7228 -0.204912 71.28 0.0171603C68.8372 0.239233 68.171 3.12618 68.171 5.56898Z" fill="url(#paint6_linear)"/>
<defs>
<linearGradient id="paint0_linear" x1="47.6957" y1="93.6933" x2="70.5316" y2="91.6637" gradientUnits="userSpaceOnUse">
<stop stop-color="white"/>
<stop offset="1" stop-color="white" stop-opacity="0"/>
</linearGradient>
<linearGradient id="paint1_linear" x1="21.8612" y1="20.6077" x2="81.2765" y2="33.609" gradientUnits="userSpaceOnUse">
<stop stop-color="white"/>
<stop offset="1" stop-color="white" stop-opacity="0"/>
</linearGradient>
<linearGradient id="paint2_linear" x1="61.8185" y1="117.747" x2="73.647" y2="116.979" gradientUnits="userSpaceOnUse">
<stop stop-color="white"/>
<stop offset="1" stop-color="white" stop-opacity="0"/>
</linearGradient>
<linearGradient id="paint3_linear" x1="46.5699" y1="115.983" x2="73.6906" y2="128.103" gradientUnits="userSpaceOnUse">
<stop stop-color="white"/>
<stop offset="1" stop-color="white" stop-opacity="0"/>
</linearGradient>
<linearGradient id="paint4_linear" x1="67.755" y1="122.436" x2="83.3334" y2="124.734" gradientUnits="userSpaceOnUse">
<stop stop-color="white"/>
<stop offset="1" stop-color="white" stop-opacity="0"/>
</linearGradient>
<linearGradient id="paint5_linear" x1="51.248" y1="128.31" x2="66.4292" y2="125.079" gradientUnits="userSpaceOnUse">
<stop stop-color="white"/>
<stop offset="1" stop-color="white" stop-opacity="0"/>
</linearGradient>
<linearGradient id="paint6_linear" x1="46.7602" y1="2.6031" x2="77.0957" y2="13.7922" gradientUnits="userSpaceOnUse">
<stop stop-color="white"/>
<stop offset="1" stop-color="white" stop-opacity="0"/>
</linearGradient>
</defs>
</svg>
