<svg width="150" height="150" viewBox="0 0 150 150" fill="none" xmlns="http://www.w3.org/2000/svg">
<path d="M58.8152 82.0124C59.5246 79.8631 67.5343 78.4302 71.4504 77.9824C76.6966 77.9824 86.923 78.7884 85.8589 82.0124C84.5289 86.0424 84.7506 93.4306 84.7506 95.2217C84.7506 97.0128 86.3023 106.416 87.189 110.67C88.0756 114.924 81.4367 126.935 80.7717 125.368C80.2397 124.114 69.8987 126.118 64.8003 126.118L57.4852 112.909C60.3669 107.983 57.9286 84.699 58.8152 82.0124Z" fill="#8B99A6"/>
<path d="M58.8152 82.0124C59.5246 79.8631 67.5343 78.4302 71.4504 77.9824C76.6966 77.9824 86.923 78.7884 85.8589 82.0124C84.5289 86.0424 84.7506 93.4306 84.7506 95.2217C84.7506 97.0128 86.3023 106.416 87.189 110.67C88.0756 114.924 81.4367 126.935 80.7717 125.368C80.2397 124.114 69.8987 126.118 64.8003 126.118L57.4852 112.909C60.3669 107.983 57.9286 84.699 58.8152 82.0124Z" fill="url(#paint0_linear)"/>
<path d="M77.0467 125.531C77.3174 123.636 73.6169 125.531 71.6312 125.531C70.0968 124.99 67.2988 123.636 67.2988 125.531C67.2988 127.427 66.8476 131.488 65.4034 133.655V142.319L71.6312 145.569L78.4005 142.319V133.655C78.4005 129.864 76.7759 127.427 77.0467 125.531Z" fill="#AA6431"/>
<path d="M77.0467 125.531C77.3174 123.636 73.6169 125.531 71.6312 125.531C70.0968 124.99 67.2988 123.636 67.2988 125.531C67.2988 127.427 66.8476 131.488 65.4034 133.655V142.319L71.6312 145.569L78.4005 142.319V133.655C78.4005 129.864 76.7759 127.427 77.0467 125.531Z" fill="url(#paint1_linear)"/>
<path d="M78.1297 139.611V132.03C78.942 133.655 81.1082 137.445 81.1082 139.611C81.1082 141.778 76.2343 148.818 72.7142 148.818C69.1942 148.818 63.508 144.485 62.9664 142.048C62.4249 139.611 65.4034 129.051 65.4034 132.03C65.4034 135.008 64.8618 136.633 65.4034 139.611C65.9449 142.59 68.6527 144.485 72.7142 144.485C75.9635 144.485 77.6784 141.236 78.1297 139.611Z" fill="#212226"/>
<path d="M78.1297 139.611V132.03C78.942 133.655 81.1082 137.445 81.1082 139.611C81.1082 141.778 76.2343 148.818 72.7142 148.818C69.1942 148.818 63.508 144.485 62.9664 142.048C62.4249 139.611 65.4034 129.051 65.4034 132.03C65.4034 135.008 64.8618 136.633 65.4034 139.611C65.9449 142.59 68.6527 144.485 72.7142 144.485C75.9635 144.485 77.6784 141.236 78.1297 139.611Z" fill="url(#paint2_linear)"/>
<path d="M65.2245 17.1472C66.7781 16.2906 70.27 15.08 71.8095 17.0907C72.5403 18.0452 72.7252 18.9578 72.65 19.7241C73.3861 18.3934 74.4944 17.0677 75.8455 17.0561C78.3945 17.0342 80.3105 17.8611 80.966 21.5098C81.6214 25.1586 83.4245 45.945 83.8676 49.5956C84.3106 53.2461 86.0576 62.7888 85.6552 67.2899C85.2528 71.7911 86.7972 83.3032 84.0386 83.8891C81.2799 84.475 62.8135 87.4445 60.0437 85.7817C57.2738 84.1188 58.6136 54.5912 59.8558 48.1151C61.0981 41.6389 60.7692 18.2813 65.2245 17.1472Z" fill="#31374B"/>
<path d="M65.2245 17.1472C66.7781 16.2906 70.27 15.08 71.8095 17.0907C72.5403 18.0452 72.7252 18.9578 72.65 19.7241C73.3861 18.3934 74.4944 17.0677 75.8455 17.0561C78.3945 17.0342 80.3105 17.8611 80.966 21.5098C81.6214 25.1586 83.4245 45.945 83.8676 49.5956C84.3106 53.2461 86.0576 62.7888 85.6552 67.2899C85.2528 71.7911 86.7972 83.3032 84.0386 83.8891C81.2799 84.475 62.8135 87.4445 60.0437 85.7817C57.2738 84.1188 58.6136 54.5912 59.8558 48.1151C61.0981 41.6389 60.7692 18.2813 65.2245 17.1472Z" fill="url(#paint3_linear)"/>
<path d="M64.7179 7.23762L64.9779 18.0578C68.6733 20.1177 76.5876 23.7353 78.6822 21.7265C81.3004 19.2154 80.7327 4.88506 80.2346 2.73381C79.7365 0.582558 79.2773 0.0542646 75.4853 0.162637C71.6933 0.271009 75.5633 3.40869 72.8736 2.94418C70.1839 2.47967 70.1253 0.0451287 67.6782 0.385756C65.231 0.726384 64.6463 4.26207 64.7179 7.23762Z" fill="#212226"/>
<path d="M64.7179 7.23762L64.9779 18.0578C68.6733 20.1177 76.5876 23.7353 78.6822 21.7265C81.3004 19.2154 80.7327 4.88506 80.2346 2.73381C79.7365 0.582558 79.2773 0.0542646 75.4853 0.162637C71.6933 0.271009 75.5633 3.40869 72.8736 2.94418C70.1839 2.47967 70.1253 0.0451287 67.6782 0.385756C65.231 0.726384 64.6463 4.26207 64.7179 7.23762Z" fill="url(#paint4_linear)"/>
<circle cx="99.7258" cy="138.636" r="10.2894" fill="#F18701"/>
<circle cx="99.7258" cy="138.636" r="10.2894" fill="url(#paint5_linear)"/>
<path d="M39.0728 126.721C39.7226 125.422 51.9796 116.071 58.0268 111.558C61.0054 110.475 68.5869 124.014 66.6915 125.097C64.7961 126.18 48.5498 130.783 48.279 131.595C48.0082 132.408 50.1744 141.885 51.2575 144.322C52.3406 146.759 58.0268 144.051 59.3807 145.405C60.7345 146.759 56.6729 148.654 53.9652 149.466C51.2575 150.279 47.1959 150.279 45.8421 148.654C44.4882 147.029 38.2605 128.346 39.0728 126.721Z" fill="#AA6431"/>
<path d="M39.0728 126.721C39.7226 125.422 51.9796 116.071 58.0268 111.558C61.0054 110.475 68.5869 124.014 66.6915 125.097C64.7961 126.18 48.5498 130.783 48.279 131.595C48.0082 132.408 50.1744 141.885 51.2575 144.322C52.3406 146.759 58.0268 144.051 59.3807 145.405C60.7345 146.759 56.6729 148.654 53.9652 149.466C51.2575 150.279 47.1959 150.279 45.8421 148.654C44.4882 147.029 38.2605 128.346 39.0728 126.721Z" fill="url(#paint6_linear)"/>
<path d="M81.0425 122.66C80.501 120.494 85.1943 112.731 86.9995 108.85C89.4364 105.33 96.7473 101.269 98.9134 100.998C101.08 100.727 105.141 101.81 105.141 103.706C105.141 105.601 104.058 126.992 105.141 128.617C106.224 130.241 108.932 133.22 107.307 132.949C105.683 132.678 102.704 130.783 100.809 129.7C98.9134 128.617 92.9564 131.324 91.3318 130.783C89.7072 130.241 96.7473 126.721 97.8303 125.909C98.9134 125.097 97.2888 116.974 97.8303 113.995C98.3719 111.017 92.4149 119.14 89.7072 121.577C86.9995 124.014 81.584 124.826 81.0425 122.66Z" fill="#AA6431"/>
<path d="M81.0425 122.66C80.501 120.494 85.1943 112.731 86.9995 108.85C89.4364 105.33 96.7473 101.269 98.9134 100.998C101.08 100.727 105.141 101.81 105.141 103.706C105.141 105.601 104.058 126.992 105.141 128.617C106.224 130.241 108.932 133.22 107.307 132.949C105.683 132.678 102.704 130.783 100.809 129.7C98.9134 128.617 92.9564 131.324 91.3318 130.783C89.7072 130.241 96.7473 126.721 97.8303 125.909C98.9134 125.097 97.2888 116.974 97.8303 113.995C98.3719 111.017 92.4149 119.14 89.7072 121.577C86.9995 124.014 81.584 124.826 81.0425 122.66Z" fill="url(#paint7_linear)"/>
<defs>
<linearGradient id="paint0_linear" x1="45.0271" y1="108.012" x2="67.8127" y2="105.936" gradientUnits="userSpaceOnUse">
<stop stop-color="white"/>
<stop offset="1" stop-color="white" stop-opacity="0"/>
</linearGradient>
<linearGradient id="paint1_linear" x1="56.8454" y1="136.13" x2="71.2679" y2="135.193" gradientUnits="userSpaceOnUse">
<stop stop-color="white"/>
<stop offset="1" stop-color="white" stop-opacity="0"/>
</linearGradient>
<linearGradient id="paint2_linear" x1="38.253" y1="133.978" x2="71.3211" y2="148.756" gradientUnits="userSpaceOnUse">
<stop stop-color="white"/>
<stop offset="1" stop-color="white" stop-opacity="0"/>
</linearGradient>
<linearGradient id="paint3_linear" x1="21.1848" y1="26.442" x2="79.1695" y2="35.728" gradientUnits="userSpaceOnUse">
<stop stop-color="white"/>
<stop offset="1" stop-color="white" stop-opacity="0"/>
</linearGradient>
<linearGradient id="paint4_linear" x1="43.1249" y1="4.23954" x2="75.0073" y2="13.0934" gradientUnits="userSpaceOnUse">
<stop stop-color="white"/>
<stop offset="1" stop-color="white" stop-opacity="0"/>
</linearGradient>
<linearGradient id="paint5_linear" x1="81.7779" y1="111.501" x2="104.622" y2="146.887" gradientUnits="userSpaceOnUse">
<stop stop-color="white"/>
<stop offset="1" stop-color="white" stop-opacity="0"/>
</linearGradient>
<linearGradient id="paint6_linear" x1="20.5686" y1="132.705" x2="51.5806" y2="130.338" gradientUnits="userSpaceOnUse">
<stop stop-color="white"/>
<stop offset="1" stop-color="white" stop-opacity="0"/>
</linearGradient>
<linearGradient id="paint7_linear" x1="63.3429" y1="118.588" x2="92.9946" y2="115.981" gradientUnits="userSpaceOnUse">
<stop stop-color="white"/>
<stop offset="1" stop-color="white" stop-opacity="0"/>
</linearGradient>
</defs>
</svg>
