<svg width="150" height="150" viewBox="0 0 150 150" fill="none" xmlns="http://www.w3.org/2000/svg">
<path d="M54.251 68.3414C54.8965 66.2853 62.1849 64.9145 65.7484 64.4861C70.5221 64.4861 79.8276 65.2572 78.8594 68.3414C77.6492 72.1968 77.8509 79.265 77.8509 80.9785C77.8509 82.692 79.2628 91.6878 80.0697 95.7574C80.8765 99.8269 74.8252 113.535 74.2201 112.036C73.736 110.836 64.3364 110.536 59.6971 110.536L53.0408 98.8319C55.663 94.1198 53.4442 70.9117 54.251 68.3414Z" fill="#8B99A6"/>
<path d="M54.251 68.3414C54.8965 66.2853 62.1849 64.9145 65.7484 64.4861C70.5221 64.4861 79.8276 65.2572 78.8594 68.3414C77.6492 72.1968 77.8509 79.265 77.8509 80.9785C77.8509 82.692 79.2628 91.6878 80.0697 95.7574C80.8765 99.8269 74.8252 113.535 74.2201 112.036C73.736 110.836 64.3364 110.536 59.6971 110.536L53.0408 98.8319C55.663 94.1198 53.4442 70.9117 54.251 68.3414Z" fill="url(#paint0_linear)"/>
<path d="M73.191 109.721C73.4247 108.085 70.2315 109.721 68.5181 109.721C67.1941 109.253 64.7798 108.085 64.7798 109.721C64.7798 111.356 64.3904 114.861 63.1443 116.73V124.207L68.5181 127.01L74.3592 124.207V116.73C74.3592 113.459 72.9574 111.356 73.191 109.721Z" fill="#AA6431"/>
<path d="M73.191 109.721C73.4247 108.085 70.2315 109.721 68.5181 109.721C67.1941 109.253 64.7798 108.085 64.7798 109.721C64.7798 111.356 64.3904 114.861 63.1443 116.73V124.207L68.5181 127.01L74.3592 124.207V116.73C74.3592 113.459 72.9574 111.356 73.191 109.721Z" fill="url(#paint1_linear)"/>
<path d="M51.1757 108.002C52.2883 106.314 52.3397 99.0657 53.7416 97.4301C55.1435 95.7945 60.5918 106.55 62.174 111.215C61.4751 111.608 59.9883 113.236 59.6322 116.602C59.187 120.81 56.1702 126.716 55.52 128.972C54.4426 132.71 55.5089 141.355 55.52 143.458C55.531 145.561 57.7136 143.469 57.7136 146.028C57.7135 148.587 53.9969 150.242 51.1757 149.766C49.1102 149.766 46.4986 147.664 46.265 146.028C46.0781 144.72 48.6989 146.262 48.6989 143.458C48.6989 140.654 47.9005 132.477 48.6989 128.271C49.381 124.678 49.782 118.939 49.7697 116.602C49.7574 114.266 49.7849 110.112 51.1757 108.002Z" fill="#AA6431"/>
<path d="M51.1757 108.002C52.2883 106.314 52.3397 99.0657 53.7416 97.4301C55.1435 95.7945 60.5918 106.55 62.174 111.215C61.4751 111.608 59.9883 113.236 59.6322 116.602C59.187 120.81 56.1702 126.716 55.52 128.972C54.4426 132.71 55.5089 141.355 55.52 143.458C55.531 145.561 57.7136 143.469 57.7136 146.028C57.7135 148.587 53.9969 150.242 51.1757 149.766C49.1102 149.766 46.4986 147.664 46.265 146.028C46.0781 144.72 48.6989 146.262 48.6989 143.458C48.6989 140.654 47.9005 132.477 48.6989 128.271C49.381 124.678 49.782 118.939 49.7697 116.602C49.7574 114.266 49.7849 110.112 51.1757 108.002Z" fill="url(#paint2_linear)"/>
<path d="M64.7973 11.6934C66.2808 11.1082 69.5672 10.3809 70.8457 12.1523C71.4525 12.9932 71.5611 13.7578 71.4408 14.3821C72.2056 13.3445 73.3118 12.3395 74.5527 12.4337C76.894 12.6113 78.5974 13.4383 78.9546 16.4887C79.3118 19.5392 79.5742 36.7688 79.7363 39.8045C79.8984 42.8401 80.8626 50.8204 80.1916 54.4905C79.5207 58.1606 80.167 67.7448 77.5955 68.0148C75.024 68.2848 57.8741 69.309 55.443 67.7291C53.0118 66.1492 56.2201 41.9735 57.7943 36.744C59.3685 31.5145 60.6316 12.2839 64.7973 11.6934Z" fill="#31374B"/>
<path d="M64.7973 11.6934C66.2808 11.1082 69.5672 10.3809 70.8457 12.1523C71.4525 12.9932 71.5611 13.7578 71.4408 14.3821C72.2056 13.3445 73.3118 12.3395 74.5527 12.4337C76.894 12.6113 78.5974 13.4383 78.9546 16.4887C79.3118 19.5392 79.5742 36.7688 79.7363 39.8045C79.8984 42.8401 80.8626 50.8204 80.1916 54.4905C79.5207 58.1606 80.167 67.7448 77.5955 68.0148C75.024 68.2848 57.8741 69.309 55.443 67.7291C53.0118 66.1492 56.2201 41.9735 57.7943 36.744C59.3685 31.5145 60.6316 12.2839 64.7973 11.6934Z" fill="url(#paint3_linear)"/>
<path d="M74.1255 121.87V115.328C74.8264 116.73 76.6956 120.001 76.6956 121.87C76.6956 123.739 72.49 129.814 69.4526 129.814C66.4152 129.814 61.5087 126.076 61.0414 123.973C60.5741 121.87 63.1442 112.758 63.1442 115.328C63.1442 117.898 62.6769 119.3 63.1442 121.87C63.6115 124.44 65.9479 126.076 69.4526 126.076C72.2564 126.076 73.7361 123.272 74.1255 121.87Z" fill="#212226"/>
<path d="M74.1255 121.87V115.328C74.8264 116.73 76.6956 120.001 76.6956 121.87C76.6956 123.739 72.49 129.814 69.4526 129.814C66.4152 129.814 61.5087 126.076 61.0414 123.973C60.5741 121.87 63.1442 112.758 63.1442 115.328C63.1442 117.898 62.6769 119.3 63.1442 121.87C63.6115 124.44 65.9479 126.076 69.4526 126.076C72.2564 126.076 73.7361 123.272 74.1255 121.87Z" fill="url(#paint4_linear)"/>
<path d="M63.7883 5.60748C63.7883 7.66222 63.321 13.4053 63.321 15.6624C66.9646 17.5303 74.7871 20.8459 76.9286 19.1647C79.6055 17.0633 78.508 10.7297 78.508 5.60748C78.508 0.485263 76.2222 0 74.536 0C72.8498 0 72.9005 2.8202 71.5748 2.8202C70.2491 2.8202 70.7977 0 67.7603 0C64.7229 0 63.7883 3.03904 63.7883 5.60748Z" fill="#212226"/>
<path d="M63.7883 5.60748C63.7883 7.66222 63.321 13.4053 63.321 15.6624C66.9646 17.5303 74.7871 20.8459 76.9286 19.1647C79.6055 17.0633 78.508 10.7297 78.508 5.60748C78.508 0.485263 76.2222 0 74.536 0C72.8498 0 72.9005 2.8202 71.5748 2.8202C70.2491 2.8202 70.7977 0 67.7603 0C64.7229 0 63.7883 3.03904 63.7883 5.60748Z" fill="url(#paint5_linear)"/>
<circle cx="96.0313" cy="141.121" r="8.8785" fill="#F18701"/>
<circle cx="96.0313" cy="141.121" r="8.8785" fill="url(#paint6_linear)"/>
<path d="M76.4052 108.411C76.2183 106.916 78.1965 95.7945 79.2089 90.4207C82.0127 90.4207 84.1154 97.43 85.05 98.5982C85.9846 99.7664 87.6201 98.8319 89.4893 99.7664C91.3584 100.701 99.3023 107.243 100.237 109.813C101.171 112.383 100.938 120.794 100.237 123.832C99.536 126.869 100.003 130.374 100.938 131.776C101.872 133.178 98.8351 133.411 97.1995 133.178C95.564 132.944 90.1902 134.112 89.4893 132.71C88.7883 131.309 94.3958 132.009 94.8631 131.776C95.3304 131.542 94.3958 112.383 92.9939 112.851C91.5921 113.318 85.05 110.514 84.1154 109.813C83.1808 109.112 76.6388 110.28 76.4052 108.411Z" fill="#AA6431"/>
<path d="M76.4052 108.411C76.2183 106.916 78.1965 95.7945 79.2089 90.4207C82.0127 90.4207 84.1154 97.43 85.05 98.5982C85.9846 99.7664 87.6201 98.8319 89.4893 99.7664C91.3584 100.701 99.3023 107.243 100.237 109.813C101.171 112.383 100.938 120.794 100.237 123.832C99.536 126.869 100.003 130.374 100.938 131.776C101.872 133.178 98.8351 133.411 97.1995 133.178C95.564 132.944 90.1902 134.112 89.4893 132.71C88.7883 131.309 94.3958 132.009 94.8631 131.776C95.3304 131.542 94.3958 112.383 92.9939 112.851C91.5921 113.318 85.05 110.514 84.1154 109.813C83.1808 109.112 76.6388 110.28 76.4052 108.411Z" fill="url(#paint7_linear)"/>
<defs>
<linearGradient id="paint0_linear" x1="41.7045" y1="94.2208" x2="62.4647" y2="92.4832" gradientUnits="userSpaceOnUse">
<stop stop-color="white"/>
<stop offset="1" stop-color="white" stop-opacity="0"/>
</linearGradient>
<linearGradient id="paint1_linear" x1="55.7597" y1="118.866" x2="68.2047" y2="118.058" gradientUnits="userSpaceOnUse">
<stop stop-color="white"/>
<stop offset="1" stop-color="white" stop-opacity="0"/>
</linearGradient>
<linearGradient id="paint2_linear" x1="35.5507" y1="126.319" x2="53.4707" y2="125.649" gradientUnits="userSpaceOnUse">
<stop stop-color="white"/>
<stop offset="1" stop-color="white" stop-opacity="0"/>
</linearGradient>
<linearGradient id="paint3_linear" x1="23.7491" y1="15.9553" x2="75.9052" y2="29.7362" gradientUnits="userSpaceOnUse">
<stop stop-color="white"/>
<stop offset="1" stop-color="white" stop-opacity="0"/>
</linearGradient>
<linearGradient id="paint4_linear" x1="39.7166" y1="117.009" x2="68.2505" y2="129.761" gradientUnits="userSpaceOnUse">
<stop stop-color="white"/>
<stop offset="1" stop-color="white" stop-opacity="0"/>
</linearGradient>
<linearGradient id="paint5_linear" x1="42.4609" y1="2.80373" x2="72.6738" y2="12.8841" gradientUnits="userSpaceOnUse">
<stop stop-color="white"/>
<stop offset="1" stop-color="white" stop-opacity="0"/>
</linearGradient>
<linearGradient id="paint6_linear" x1="80.5444" y1="117.708" x2="100.256" y2="148.241" gradientUnits="userSpaceOnUse">
<stop stop-color="white"/>
<stop offset="1" stop-color="white" stop-opacity="0"/>
</linearGradient>
<linearGradient id="paint7_linear" x1="60.1158" y1="114.102" x2="87.5625" y2="112.445" gradientUnits="userSpaceOnUse">
<stop stop-color="white"/>
<stop offset="1" stop-color="white" stop-opacity="0"/>
</linearGradient>
</defs>
</svg>
