<svg width="150" height="150" viewBox="0 0 150 150" fill="none" xmlns="http://www.w3.org/2000/svg">
<path d="M54.0102 118.602C55.9982 119.686 58.0013 119.054 58.7543 118.602C61.9923 115.74 68.4684 109.43 68.4684 107.08C68.4684 104.144 70.5015 98.7218 72.0829 95.3331C73.348 92.6222 80.2909 82.9082 83.6042 78.39C78.4083 69.5796 58.7543 66.4169 56.947 66.6428C55.5012 66.8235 47.6095 85.845 43.8444 95.3331C43.9197 100.153 44.2058 110.153 44.748 111.599C45.4257 113.406 51.5252 117.246 54.0102 118.602Z" fill="#8B99A6"/>
<path d="M54.0102 118.602C55.9982 119.686 58.0013 119.054 58.7543 118.602C61.9923 115.74 68.4684 109.43 68.4684 107.08C68.4684 104.144 70.5015 98.7218 72.0829 95.3331C73.348 92.6222 80.2909 82.9082 83.6042 78.39C78.4083 69.5796 58.7543 66.4169 56.947 66.6428C55.5012 66.8235 47.6095 85.845 43.8444 95.3331C43.9197 100.153 44.2058 110.153 44.748 111.599C45.4257 113.406 51.5252 117.246 54.0102 118.602Z" fill="url(#paint0_linear)"/>
<path d="M40.6816 124.701L45.6516 132.156L50.3957 131.478C51.224 129.596 53.4229 126.509 53.7843 124.701C54.2361 122.442 53.5584 119.279 54.6879 117.472C55.8175 115.665 55.5238 112.502 55.3657 110.921C55.1398 108.662 51.2993 107.532 50.3957 107.532C49.4921 107.532 46.5553 108.662 46.5553 110.921C46.5553 112.728 43.8444 117.246 42.4889 119.279L40.6816 124.701Z" fill="#AA6431"/>
<path d="M40.6816 124.701L45.6516 132.156L50.3957 131.478C51.224 129.596 53.4229 126.509 53.7843 124.701C54.2361 122.442 53.5584 119.279 54.6879 117.472C55.8175 115.665 55.5238 112.502 55.3657 110.921C55.1398 108.662 51.2993 107.532 50.3957 107.532C49.4921 107.532 46.5553 108.662 46.5553 110.921C46.5553 112.728 43.8444 117.246 42.4889 119.279L40.6816 124.701Z" fill="url(#paint1_linear)"/>
<path d="M45.6517 111.825C46.5553 110.921 45.2751 99.2491 44.5221 93.526C44.5221 94.2038 41.3594 96.4629 40.2299 97.3665C39.1003 98.2701 14.2504 91.9447 11.9913 91.0411C9.73225 90.1374 7.69908 90.8151 7.24726 91.9447C6.79545 93.0742 1.82547 99.1737 0.470018 100.303C-0.885431 101.433 0.921834 103.24 2.95501 102.788C4.98818 102.336 7.92499 97.1406 10.6359 96.4629C13.3468 95.7851 33.9044 103.692 35.7117 104.144C37.519 104.596 44.5221 112.954 45.6517 111.825Z" fill="#AA6431"/>
<path d="M45.6517 111.825C46.5553 110.921 45.2751 99.2491 44.5221 93.526C44.5221 94.2038 41.3594 96.4629 40.2299 97.3665C39.1003 98.2701 14.2504 91.9447 11.9913 91.0411C9.73225 90.1374 7.69908 90.8151 7.24726 91.9447C6.79545 93.0742 1.82547 99.1737 0.470018 100.303C-0.885431 101.433 0.921834 103.24 2.95501 102.788C4.98818 102.336 7.92499 97.1406 10.6359 96.4629C13.3468 95.7851 33.9044 103.692 35.7117 104.144C37.519 104.596 44.5221 112.954 45.6517 111.825Z" fill="url(#paint2_linear)"/>
<path d="M74.1337 13.4588C75.0373 15.989 74.5102 17.0734 74.1337 17.2993H78.6519C80.0073 17.2993 83.6218 15.266 83.3959 13.4588C83.17 11.6517 81.8146 10.296 80.9109 8.71467C80.0073 7.13332 79.3296 2.38933 78.6519 1.03389C77.9741 -0.321564 69.6155 -0.773381 70.0673 2.38933C70.5192 5.55205 73.0042 10.2961 74.1337 13.4588Z" fill="#212226"/>
<path d="M74.1337 13.4588C75.0373 15.989 74.5102 17.0734 74.1337 17.2993H78.6519C80.0073 17.2993 83.6218 15.266 83.3959 13.4588C83.17 11.6517 81.8146 10.296 80.9109 8.71467C80.0073 7.13332 79.3296 2.38933 78.6519 1.03389C77.9741 -0.321564 69.6155 -0.773381 70.0673 2.38933C70.5192 5.55205 73.0042 10.2961 74.1337 13.4588Z" fill="url(#paint3_linear)"/>
<path d="M96.3747 28.5815H98.8597C99.8386 29.5604 102.294 30.9309 104.282 28.5815C106.766 25.6447 107.444 15.027 106.992 12.542C106.541 10.057 100.215 10.5089 98.8597 12.542C97.5042 14.5752 94.5674 28.5815 96.3747 28.5815Z" fill="#212226"/>
<path d="M96.3747 28.5815H98.8597C99.8386 29.5604 102.294 30.9309 104.282 28.5815C106.766 25.6447 107.444 15.027 106.992 12.542C106.541 10.057 100.215 10.5089 98.8597 12.542C97.5042 14.5752 94.5674 28.5815 96.3747 28.5815Z" fill="url(#paint4_linear)"/>
<path d="M44.0703 117.246C43.9619 117.303 43.8453 117.371 43.7224 117.45C42.7608 118.566 42.0372 123.94 42.0372 125.153C42.0372 126.509 44.974 131.253 46.1035 131.253C47.233 131.253 50.1699 129.671 51.7512 128.09C53.3326 126.509 53.3326 119.054 54.0103 119.957C54.688 120.861 55.1398 126.283 54.9139 128.09C54.688 129.897 49.9439 134.867 46.1035 134.641C42.2631 134.415 39.7781 130.801 39.7781 125.153C39.7781 120.977 42.2224 118.41 43.7224 117.45C43.8353 117.319 43.9516 117.246 44.0703 117.246Z" fill="#212226"/>
<path d="M44.0703 117.246C43.9619 117.303 43.8453 117.371 43.7224 117.45C42.7608 118.566 42.0372 123.94 42.0372 125.153C42.0372 126.509 44.974 131.253 46.1035 131.253C47.233 131.253 50.1699 129.671 51.7512 128.09C53.3326 126.509 53.3326 119.054 54.0103 119.957C54.688 120.861 55.1398 126.283 54.9139 128.09C54.688 129.897 49.9439 134.867 46.1035 134.641C42.2631 134.415 39.7781 130.801 39.7781 125.153C39.7781 120.977 42.2224 118.41 43.7224 117.45C43.8353 117.319 43.9516 117.246 44.0703 117.246Z" fill="url(#paint5_linear)"/>
<path d="M60.5617 109.565C61.8268 107.758 66.5106 106.855 68.6944 106.629C70.0499 108.436 68.6944 109.565 68.6944 111.373C68.6944 113.18 81.1193 126.057 81.3452 127.864C81.5711 129.671 76.3752 148.873 74.568 149.777C72.7607 150.681 61.6912 148.648 60.5617 147.066C59.4322 145.485 65.9834 146.163 67.3389 146.163C68.6943 146.163 71.8571 131.479 71.8571 129.445C71.8571 127.412 63.9503 122.216 63.2726 121.087C62.5948 119.957 57.8508 120.183 57.399 117.698C56.9472 115.213 58.9803 111.825 60.5617 109.565Z" fill="#AA6431"/>
<path d="M60.5617 109.565C61.8268 107.758 66.5106 106.855 68.6944 106.629C70.0499 108.436 68.6944 109.565 68.6944 111.373C68.6944 113.18 81.1193 126.057 81.3452 127.864C81.5711 129.671 76.3752 148.873 74.568 149.777C72.7607 150.681 61.6912 148.648 60.5617 147.066C59.4322 145.485 65.9834 146.163 67.3389 146.163C68.6943 146.163 71.8571 131.479 71.8571 129.445C71.8571 127.412 63.9503 122.216 63.2726 121.087C62.5948 119.957 57.8508 120.183 57.399 117.698C56.9472 115.213 58.9803 111.825 60.5617 109.565Z" fill="url(#paint6_linear)"/>
<path d="M64.402 45.1815C63.4984 48.6153 59.0555 61.221 56.947 67.0946C63.5737 71.3116 77.7306 79.5648 81.3451 78.8419C85.8633 77.9383 90.3814 67.0946 92.4146 61.447C94.4478 55.7994 99.1919 46.9889 102.355 40.6634C105.517 34.338 104.162 26.6571 104.388 24.3981C104.614 22.139 96.0291 21.2353 96.255 24.3981C96.481 27.5608 90.1555 38.1785 87.4446 40.6634C84.7337 43.1484 76.601 57.8325 76.8269 56.9288C77.0529 56.0252 81.3451 30.9494 81.3451 28.2385C81.3451 25.5276 83.8301 18.7503 82.7006 15.1357C81.571 11.5212 76.1492 12.8767 74.116 15.1357C72.0829 17.3948 65.5315 40.8893 64.402 45.1815Z" fill="#31374B"/>
<path d="M64.402 45.1815C63.4984 48.6153 59.0555 61.221 56.947 67.0946C63.5737 71.3116 77.7306 79.5648 81.3451 78.8419C85.8633 77.9383 90.3814 67.0946 92.4146 61.447C94.4478 55.7994 99.1919 46.9889 102.355 40.6634C105.517 34.338 104.162 26.6571 104.388 24.3981C104.614 22.139 96.0291 21.2353 96.255 24.3981C96.481 27.5608 90.1555 38.1785 87.4446 40.6634C84.7337 43.1484 76.601 57.8325 76.8269 56.9288C77.0529 56.0252 81.3451 30.9494 81.3451 28.2385C81.3451 25.5276 83.8301 18.7503 82.7006 15.1357C81.571 11.5212 76.1492 12.8767 74.116 15.1357C72.0829 17.3948 65.5315 40.8893 64.402 45.1815Z" fill="url(#paint7_linear)"/>
<defs>
<linearGradient id="paint0_linear" x1="27.2141" y1="99.4265" x2="57.5072" y2="96.054" gradientUnits="userSpaceOnUse">
<stop stop-color="white"/>
<stop offset="1" stop-color="white" stop-opacity="0"/>
</linearGradient>
<linearGradient id="paint1_linear" x1="30.9104" y1="121.096" x2="47.381" y2="120.053" gradientUnits="userSpaceOnUse">
<stop stop-color="white"/>
<stop offset="1" stop-color="white" stop-opacity="0"/>
</linearGradient>
<linearGradient id="paint2_linear" x1="-30.2643" y1="102.359" x2="18.4556" y2="91.3258" gradientUnits="userSpaceOnUse">
<stop stop-color="white"/>
<stop offset="1" stop-color="white" stop-opacity="0"/>
</linearGradient>
<linearGradient id="paint3_linear" x1="51.9692" y1="2.47132" x2="78.2432" y2="11.0914" gradientUnits="userSpaceOnUse">
<stop stop-color="white"/>
<stop offset="1" stop-color="white" stop-opacity="0"/>
</linearGradient>
<linearGradient id="paint4_linear" x1="80.4797" y1="13.5628" x2="103.664" y2="19.4214" gradientUnits="userSpaceOnUse">
<stop stop-color="white"/>
<stop offset="1" stop-color="white" stop-opacity="0"/>
</linearGradient>
<linearGradient id="paint5_linear" x1="19.2091" y1="119.732" x2="48.3105" y2="130.53" gradientUnits="userSpaceOnUse">
<stop stop-color="white"/>
<stop offset="1" stop-color="white" stop-opacity="0"/>
</linearGradient>
<linearGradient id="paint6_linear" x1="41.5205" y1="130.518" x2="68.1942" y2="128.968" gradientUnits="userSpaceOnUse">
<stop stop-color="white"/>
<stop offset="1" stop-color="white" stop-opacity="0"/>
</linearGradient>
<linearGradient id="paint7_linear" x1="-7.41003" y1="22.3305" x2="87.2995" y2="51.3283" gradientUnits="userSpaceOnUse">
<stop stop-color="white"/>
<stop offset="1" stop-color="white" stop-opacity="0"/>
</linearGradient>
</defs>
</svg>
