<svg width="150" height="150" viewBox="0 0 150 150" fill="none" xmlns="http://www.w3.org/2000/svg">
<path d="M77.3345 12.5238C77.5528 14.9004 77.6659 17.9712 77.3345 18.1085C78.1437 18.2811 79.2489 16.4688 80.0812 16.6463C81.1217 16.8682 84.2782 15.6689 84.4443 14.04C84.6103 12.4112 83.8245 10.9952 83.428 9.45435C83.0314 7.91348 83.4023 3.62379 83.1367 2.3189C82.8711 1.014 76.5398 -0.752305 76.2925 2.10754C76.0452 4.96739 77.0615 9.55301 77.3345 12.5238Z" fill="#212226"/>
<path d="M77.3345 12.5238C77.5528 14.9004 77.6659 17.9712 77.3345 18.1085C78.1437 18.2811 79.2489 16.4688 80.0812 16.6463C81.1217 16.8682 84.2782 15.6689 84.4443 14.04C84.6103 12.4112 83.8245 10.9952 83.428 9.45435C83.0314 7.91348 83.4023 3.62379 83.1367 2.3189C82.8711 1.014 76.5398 -0.752305 76.2925 2.10754C76.0452 4.96739 77.0615 9.55301 77.3345 12.5238Z" fill="url(#paint0_linear)"/>
<path d="M100.006 19.4315L101.919 19.2796C102.742 20.0986 104.729 21.1789 106.091 18.948C107.794 16.1593 107.558 6.58494 107.033 4.38147C106.508 2.178 101.672 2.9705 100.774 4.87884C99.8762 6.78717 98.6155 19.5421 100.006 19.4315Z" fill="#212226"/>
<path d="M100.006 19.4315L101.919 19.2796C102.742 20.0986 104.729 21.1789 106.091 18.948C107.794 16.1593 107.558 6.58494 107.033 4.38147C106.508 2.178 101.672 2.9705 100.774 4.87884C99.8762 6.78717 98.6155 19.5421 100.006 19.4315Z" fill="url(#paint1_linear)"/>
<path d="M76.0854 45.1685C76.1483 48.3659 76.4654 59.0945 76.0854 64.7023C82.8649 66.7234 96.1012 71.6728 99.0545 70.1562C102.746 68.2605 103.989 57.7535 104.36 52.36C104.73 46.9666 106.67 38.1653 107.852 31.9064C109.034 25.6475 105.968 19.3272 105.607 17.3145C105.246 15.3018 97.5867 16.6333 98.5615 19.3176C99.5362 22.0019 96.6715 32.7583 94.935 35.5788C93.1986 38.3994 89.7698 53.1237 89.7429 52.2852C89.7161 51.4467 87.2582 28.6656 86.5905 26.3171C85.9228 23.9686 86.4063 17.4851 84.5375 14.632C82.6686 11.7788 78.3054 14.2885 77.1005 16.7464C75.8955 19.2043 76.0068 41.1718 76.0854 45.1685Z" fill="#31374B"/>
<path d="M76.0854 45.1685C76.1483 48.3659 76.4654 59.0945 76.0854 64.7023C82.8649 66.7234 96.1012 71.6728 99.0545 70.1562C102.746 68.2605 103.989 57.7535 104.36 52.36C104.73 46.9666 106.67 38.1653 107.852 31.9064C109.034 25.6475 105.968 19.3272 105.607 17.3145C105.246 15.3018 97.5867 16.6333 98.5615 19.3176C99.5362 22.0019 96.6715 32.7583 94.935 35.5788C93.1986 38.3994 89.7698 53.1237 89.7429 52.2852C89.7161 51.4467 87.2582 28.6656 86.5905 26.3171C85.9228 23.9686 86.4063 17.4851 84.5375 14.632C82.6686 11.7788 78.3054 14.2885 77.1005 16.7464C75.8955 19.2043 76.0068 41.1718 76.0854 45.1685Z" fill="url(#paint2_linear)"/>
<path d="M81.0065 109.463C82.9618 110.042 87.2902 110.003 87.8682 109.463C90.18 106.332 94.6928 99.5525 94.2495 97.4834C93.6955 94.897 94.4632 89.7385 95.2166 86.4559C95.8193 83.8298 99.0839 72.155 101.15 67.5509C94.9114 60.772 78.0231 63.5045 76.4741 64.0444C75.7618 64.2927 76.6726 70.6288 75.3095 77.5208C74.3013 82.6187 70.0575 91.571 69.4088 95.4258C70.3843 99.6559 69.5971 102.394 70.3474 103.565C71.2852 105.028 78.5623 108.738 81.0065 109.463Z" fill="#8B99A6"/>
<path d="M81.0065 109.463C82.9618 110.042 87.2902 110.003 87.8682 109.463C90.18 106.332 94.6928 99.5525 94.2495 97.4834C93.6955 94.897 94.4632 89.7385 95.2166 86.4559C95.8193 83.8298 99.0839 72.155 101.15 67.5509C94.9114 60.772 78.0231 63.5045 76.4741 64.0444C75.7618 64.2927 76.6726 70.6288 75.3095 77.5208C74.3013 82.6187 70.0575 91.571 69.4088 95.4258C70.3843 99.6559 69.5971 102.394 70.3474 103.565C71.2852 105.028 78.5623 108.738 81.0065 109.463Z" fill="url(#paint3_linear)"/>
<path d="M71.0365 102.954C72.1759 101.326 71.5112 94.8154 71.0365 91.7634C70.2227 92.9842 56.5903 93.3912 55.3695 93.3912C54.1487 93.3912 49.8759 92.5773 48.6551 92.1704C47.4343 91.7634 44.1789 93.1877 42.7546 93.3912C41.3303 93.5946 34.4125 93.7981 33.1917 94.205C31.9709 94.612 28.7155 97.257 30.5467 98.0709C32.3779 98.8848 36.0403 99.4952 38.2784 98.0709C40.5165 96.6466 46.824 98.6813 48.0448 99.4952C49.2656 100.309 61.2701 99.6986 62.6944 99.4952C64.1186 99.2917 69.6122 104.989 71.0365 102.954Z" fill="#AA6431"/>
<path d="M71.0365 102.954C72.1759 101.326 71.5112 94.8154 71.0365 91.7634C70.2227 92.9842 56.5903 93.3912 55.3695 93.3912C54.1487 93.3912 49.8759 92.5773 48.6551 92.1704C47.4343 91.7634 44.1789 93.1877 42.7546 93.3912C41.3303 93.5946 34.4125 93.7981 33.1917 94.205C31.9709 94.612 28.7155 97.257 30.5467 98.0709C32.3779 98.8848 36.0403 99.4952 38.2784 98.0709C40.5165 96.6466 46.824 98.6813 48.0448 99.4952C49.2656 100.309 61.2701 99.6986 62.6944 99.4952C64.1186 99.2917 69.6122 104.989 71.0365 102.954Z" fill="url(#paint4_linear)"/>
<path d="M81.2098 109.058C81.6982 104.663 90.0945 99.902 94.2317 98.0708C95.656 100.512 92.8074 113.941 92.8074 116.179C92.8074 118.417 89.7554 124.318 89.145 126.149C88.5346 127.98 90.5693 147.106 90.5693 148.734C90.5693 150.362 88.5346 149.955 86.7034 149.955C84.8722 149.955 79.989 148.937 78.9717 147.106C77.9544 145.275 81.2098 146.292 83.041 145.885C84.8722 145.478 83.041 115.569 83.041 113.941C83.041 112.313 80.5994 114.552 81.2098 109.058Z" fill="#AA6431"/>
<path d="M81.2098 109.058C81.6982 104.663 90.0945 99.902 94.2317 98.0708C95.656 100.512 92.8074 113.941 92.8074 116.179C92.8074 118.417 89.7554 124.318 89.145 126.149C88.5346 127.98 90.5693 147.106 90.5693 148.734C90.5693 150.362 88.5346 149.955 86.7034 149.955C84.8722 149.955 79.989 148.937 78.9717 147.106C77.9544 145.275 81.2098 146.292 83.041 145.885C84.8722 145.478 83.041 115.569 83.041 113.941C83.041 112.313 80.5994 114.552 81.2098 109.058Z" fill="url(#paint5_linear)"/>
<path d="M69.0126 117.201L74.3377 123.264L78.4922 122.094C79.0074 120.315 80.6026 117.296 80.71 115.64C80.8442 113.569 79.8624 110.827 80.6554 109.079C81.4485 107.331 80.8095 104.542 80.48 103.149C80.0092 101.159 76.4461 100.608 75.6393 100.716C74.8326 100.824 72.3454 102.182 72.6145 104.199C72.8298 105.812 70.9479 110.169 69.9801 112.145L69.0126 117.201Z" fill="#AA6431"/>
<path d="M69.0126 117.201L74.3377 123.264L78.4922 122.094C79.0074 120.315 80.6026 117.296 80.71 115.64C80.8442 113.569 79.8624 110.827 80.6554 109.079C81.4485 107.331 80.8095 104.542 80.48 103.149C80.0092 101.159 76.4461 100.608 75.6393 100.716C74.8326 100.824 72.3454 102.182 72.6145 104.199C72.8298 105.812 70.9479 110.169 69.9801 112.145L69.0126 117.201Z" fill="url(#paint6_linear)"/>
<path d="M71.1495 110.142C71.0595 110.206 70.9635 110.28 70.8631 110.365C70.1377 111.476 70.1319 116.36 70.2764 117.443C70.4379 118.653 73.6249 122.538 74.6333 122.404C75.6417 122.269 78.0751 120.507 79.2984 118.907C80.5218 117.307 79.6337 110.652 80.3463 111.378C81.059 112.104 82.1083 116.89 82.1219 118.53C82.1356 120.171 78.4924 125.173 75.037 125.429C71.5815 125.685 68.9324 122.754 68.2596 117.712C67.7621 113.984 69.6384 111.4 70.8631 110.365C70.9483 110.234 71.0435 110.156 71.1495 110.142Z" fill="#212226"/>
<path d="M71.1495 110.142C71.0595 110.206 70.9635 110.28 70.8631 110.365C70.1377 111.476 70.1319 116.36 70.2764 117.443C70.4379 118.653 73.6249 122.538 74.6333 122.404C75.6417 122.269 78.0751 120.507 79.2984 118.907C80.5218 117.307 79.6337 110.652 80.3463 111.378C81.059 112.104 82.1083 116.89 82.1219 118.53C82.1356 120.171 78.4924 125.173 75.037 125.429C71.5815 125.685 68.9324 122.754 68.2596 117.712C67.7621 113.984 69.6384 111.4 70.8631 110.365C70.9483 110.234 71.0435 110.156 71.1495 110.142Z" fill="url(#paint7_linear)"/>
<defs>
<linearGradient id="paint0_linear" x1="62.325" y1="-0.503108" x2="82.1828" y2="9.29169" gradientUnits="userSpaceOnUse">
<stop stop-color="white"/>
<stop offset="1" stop-color="white" stop-opacity="0"/>
</linearGradient>
<linearGradient id="paint1_linear" x1="86.7025" y1="6.91939" x2="105.145" y2="9.40558" gradientUnits="userSpaceOnUse">
<stop stop-color="white"/>
<stop offset="1" stop-color="white" stop-opacity="0"/>
</linearGradient>
<linearGradient id="paint2_linear" x1="11.3514" y1="42.1759" x2="97.9303" y2="43.1398" gradientUnits="userSpaceOnUse">
<stop stop-color="white"/>
<stop offset="1" stop-color="white" stop-opacity="0"/>
</linearGradient>
<linearGradient id="paint3_linear" x1="53.0962" y1="98.9649" x2="80.4761" y2="89.6186" gradientUnits="userSpaceOnUse">
<stop stop-color="white"/>
<stop offset="1" stop-color="white" stop-opacity="0"/>
</linearGradient>
<linearGradient id="paint4_linear" x1="2.56494" y1="98.1697" x2="43.2418" y2="82.8717" gradientUnits="userSpaceOnUse">
<stop stop-color="white"/>
<stop offset="1" stop-color="white" stop-opacity="0"/>
</linearGradient>
<linearGradient id="paint5_linear" x1="68.3415" y1="126.674" x2="85.9875" y2="126.109" gradientUnits="userSpaceOnUse">
<stop stop-color="white"/>
<stop offset="1" stop-color="white" stop-opacity="0"/>
</linearGradient>
<linearGradient id="paint6_linear" x1="59.8598" y1="115.146" x2="74.4397" y2="112.253" gradientUnits="userSpaceOnUse">
<stop stop-color="white"/>
<stop offset="1" stop-color="white" stop-opacity="0"/>
</linearGradient>
<linearGradient id="paint7_linear" x1="49.2509" y1="115.323" x2="76.5174" y2="121.495" gradientUnits="userSpaceOnUse">
<stop stop-color="white"/>
<stop offset="1" stop-color="white" stop-opacity="0"/>
</linearGradient>
</defs>
</svg>
