<svg width="150" height="150" viewBox="0 0 150 150" fill="none" xmlns="http://www.w3.org/2000/svg">
<path d="M73.2802 6.01618V15.6124C76.7446 17.5316 84.1827 20.9383 86.219 19.211C88.7643 17.0518 88.5522 4.33681 88.128 2.41759C87.7038 0.498379 87.2795 0.0185383 83.6736 0.0185383C80.0677 0.0185383 83.6736 2.89741 81.1283 2.41759C78.5829 1.93778 78.5829 -0.221367 76.2497 0.0185383C73.9165 0.258444 73.2802 3.37722 73.2802 6.01618Z" fill="#212226"/>
<path d="M73.2802 6.01618V15.6124C76.7446 17.5316 84.1827 20.9383 86.219 19.211C88.7643 17.0518 88.5522 4.33681 88.128 2.41759C87.7038 0.498379 87.2795 0.0185383 83.6736 0.0185383C80.0677 0.0185383 83.6736 2.89741 81.1283 2.41759C78.5829 1.93778 78.5829 -0.221367 76.2497 0.0185383C73.9165 0.258444 73.2802 3.37722 73.2802 6.01618Z" fill="url(#paint0_linear)"/>
<path d="M74.0928 14.6805C75.5799 13.966 78.9193 12.9656 80.3795 14.6805C81.0725 15.4945 81.2447 16.2691 81.1693 16.9178C81.8784 15.7957 82.9427 14.6805 84.2326 14.6805C86.6662 14.6805 88.4914 15.3951 89.0997 18.4913C89.7081 21.5876 91.3305 39.2126 91.7361 42.3089C92.1417 45.4052 93.7641 53.5032 93.3585 57.314C92.9529 61.1248 94.3725 70.89 91.7361 71.3664C89.0997 71.8427 71.4564 74.2245 68.82 72.7954C66.1837 71.3664 67.6033 46.3579 68.82 40.8799C70.0368 35.4018 69.834 15.609 74.0928 14.6805Z" fill="#31374B"/>
<path d="M74.0928 14.6805C75.5799 13.966 78.9193 12.9656 80.3795 14.6805C81.0725 15.4945 81.2447 16.2691 81.1693 16.9178C81.8784 15.7957 82.9427 14.6805 84.2326 14.6805C86.6662 14.6805 88.4914 15.3951 89.0997 18.4913C89.7081 21.5876 91.3305 39.2126 91.7361 42.3089C92.1417 45.4052 93.7641 53.5032 93.3585 57.314C92.9529 61.1248 94.3725 70.89 91.7361 71.3664C89.0997 71.8427 71.4564 74.2245 68.82 72.7954C66.1837 71.3664 67.6033 46.3579 68.82 40.8799C70.0368 35.4018 69.834 15.609 74.0928 14.6805Z" fill="url(#paint1_linear)"/>
<path d="M68.3073 71.803C69.4199 69.7983 77.8876 69.2898 81.7456 69.2934C85.6035 69.2969 93.787 67.6928 93.1532 71.0732C92.466 74.7388 90.6115 87.3375 90.2261 89.1249C89.8407 90.9123 90.3287 102.932 90.2261 107.352C90.1235 111.772 79.7879 116.566 79.5156 114.871C79.2978 113.514 70.454 115.881 65.7813 114.873L61.4319 101.388C65.1328 97.0417 66.9167 74.3089 68.3073 71.803Z" fill="#8B99A6"/>
<path d="M68.3073 71.803C69.4199 69.7983 77.8876 69.2898 81.7456 69.2934C85.6035 69.2969 93.787 67.6928 93.1532 71.0732C92.466 74.7388 90.6115 87.3375 90.2261 89.1249C89.8407 90.9123 90.3287 102.932 90.2261 107.352C90.1235 111.772 79.7879 116.566 79.5156 114.871C79.2978 113.514 70.454 115.881 65.7813 114.873L61.4319 101.388C65.1328 97.0417 66.9167 74.3089 68.3073 71.803Z" fill="url(#paint2_linear)"/>
<path d="M78.6401 112.072C78.8499 110.462 75.9824 112.072 74.4437 112.072C73.2547 111.612 71.0866 110.462 71.0866 112.072C71.0866 113.683 70.0502 117.134 68.9312 118.974V126.336L74.4437 129.097L79.6892 126.336V118.974C79.6892 115.753 78.4303 113.683 78.6401 112.072Z" fill="#AA6431"/>
<path d="M78.6401 112.072C78.8499 110.462 75.9824 112.072 74.4437 112.072C73.2547 111.612 71.0866 110.462 71.0866 112.072C71.0866 113.683 70.0502 117.134 68.9312 118.974V126.336L74.4437 129.097L79.6892 126.336V118.974C79.6892 115.753 78.4303 113.683 78.6401 112.072Z" fill="url(#paint3_linear)"/>
<path d="M79.1989 124.054V117.639C79.832 119.013 81.5205 122.221 81.5205 124.054C81.5205 125.887 77.7216 131.844 74.978 131.844C72.2343 131.844 67.8024 128.178 67.3803 126.116C66.9582 124.054 69.2797 115.118 69.2797 117.639C69.2797 120.159 68.8576 121.533 69.2797 124.054C69.7018 126.574 71.8123 128.178 74.978 128.178C77.5105 128.178 78.8472 125.428 79.1989 124.054Z" fill="#212226"/>
<path d="M79.1989 124.054V117.639C79.832 119.013 81.5205 122.221 81.5205 124.054C81.5205 125.887 77.7216 131.844 74.978 131.844C72.2343 131.844 67.8024 128.178 67.3803 126.116C66.9582 124.054 69.2797 115.118 69.2797 117.639C69.2797 120.159 68.8576 121.533 69.2797 124.054C69.7018 126.574 71.8123 128.178 74.978 128.178C77.5105 128.178 78.8472 125.428 79.1989 124.054Z" fill="url(#paint4_linear)"/>
<path d="M69.2416 112.572C70.0289 107.485 65.7374 101.635 63.4932 99.3455C59.1244 99.7866 59.7867 120.153 60.0626 122.886C60.3386 125.62 57.4597 136.219 57.5333 136.948C57.6069 137.677 53.6889 144.884 53.6981 147.276C53.7073 149.668 59.0694 149.863 60.3938 149.177C61.7182 148.491 61.4423 141.156 61.7366 139.469C62.0309 137.783 66.2525 126.68 66.0685 124.857C65.8846 123.035 68.2575 118.93 69.2416 112.572Z" fill="#AA6431"/>
<path d="M69.2416 112.572C70.0289 107.485 65.7374 101.635 63.4932 99.3455C59.1244 99.7866 59.7867 120.153 60.0626 122.886C60.3386 125.62 57.4597 136.219 57.5333 136.948C57.6069 137.677 53.6889 144.884 53.6981 147.276C53.7073 149.668 59.0694 149.863 60.3938 149.177C61.7182 148.491 61.4423 141.156 61.7366 139.469C62.0309 137.783 66.2525 126.68 66.0685 124.857C65.8846 123.035 68.2575 118.93 69.2416 112.572Z" fill="url(#paint5_linear)"/>
<path d="M82.6649 113.303C82.6649 111.289 86.9376 103.155 89.074 99.3406C89.9896 101.172 101.663 110.328 101.663 113.303C101.663 116.279 98.6876 124.061 97.772 125.892C96.8564 127.724 99.1454 130.699 97.772 131.844C96.3986 132.988 85.4117 131.844 84.2672 130.699C83.1227 129.555 87.0139 130.47 89.074 129.784C91.134 129.097 92.0496 118.568 92.9652 116.508C93.8808 114.448 82.6649 115.821 82.6649 113.303Z" fill="#AA6431"/>
<path d="M82.6649 113.303C82.6649 111.289 86.9376 103.155 89.074 99.3406C89.9896 101.172 101.663 110.328 101.663 113.303C101.663 116.279 98.6876 124.061 97.772 125.892C96.8564 127.724 99.1454 130.699 97.772 131.844C96.3986 132.988 85.4117 131.844 84.2672 130.699C83.1227 129.555 87.0139 130.47 89.074 129.784C91.134 129.097 92.0496 118.568 92.9652 116.508C93.8808 114.448 82.6649 115.821 82.6649 113.303Z" fill="url(#paint6_linear)"/>
<defs>
<linearGradient id="paint0_linear" x1="52.8297" y1="2.81214" x2="82.5822" y2="12.5148" gradientUnits="userSpaceOnUse">
<stop stop-color="white"/>
<stop offset="1" stop-color="white" stop-opacity="0"/>
</linearGradient>
<linearGradient id="paint1_linear" x1="32.0054" y1="22.2355" x2="86.9541" y2="32.4734" gradientUnits="userSpaceOnUse">
<stop stop-color="white"/>
<stop offset="1" stop-color="white" stop-opacity="0"/>
</linearGradient>
<linearGradient id="paint2_linear" x1="50.7756" y1="92.3516" x2="73.2338" y2="95.1976" gradientUnits="userSpaceOnUse">
<stop stop-color="white"/>
<stop offset="1" stop-color="white" stop-opacity="0"/>
</linearGradient>
<linearGradient id="paint3_linear" x1="61.8474" y1="121.077" x2="73.7879" y2="120.322" gradientUnits="userSpaceOnUse">
<stop stop-color="white"/>
<stop offset="1" stop-color="white" stop-opacity="0"/>
</linearGradient>
<linearGradient id="paint4_linear" x1="48.1179" y1="119.287" x2="74.559" y2="130.172" gradientUnits="userSpaceOnUse">
<stop stop-color="white"/>
<stop offset="1" stop-color="white" stop-opacity="0"/>
</linearGradient>
<linearGradient id="paint5_linear" x1="39.1389" y1="129.176" x2="60.3333" y2="126.158" gradientUnits="userSpaceOnUse">
<stop stop-color="white"/>
<stop offset="1" stop-color="white" stop-opacity="0"/>
</linearGradient>
<linearGradient id="paint6_linear" x1="70.1553" y1="117.505" x2="91.249" y2="116.229" gradientUnits="userSpaceOnUse">
<stop stop-color="white"/>
<stop offset="1" stop-color="white" stop-opacity="0"/>
</linearGradient>
</defs>
</svg>
