<svg width="150" height="150" viewBox="0 0 150 150" fill="none" xmlns="http://www.w3.org/2000/svg">
<path d="M75.4255 5.53676V14.3683C78.7695 16.1346 85.9487 19.2698 87.9142 17.6801C90.3709 15.693 90.1662 3.99122 89.7567 2.22494C89.3473 0.458665 88.9378 0.017061 85.4574 0.017061C81.9769 0.017061 85.4574 2.66652 83.0006 2.22494C80.5438 1.78337 80.5438 -0.203727 78.2918 0.017061C76.0397 0.237849 75.4255 3.10809 75.4255 5.53676Z" fill="#212226"/>
<path d="M75.4255 5.53676V14.3683C78.7695 16.1346 85.9487 19.2698 87.9142 17.6801C90.3709 15.693 90.1662 3.99122 89.7567 2.22494C89.3473 0.458665 88.9378 0.017061 85.4574 0.017061C81.9769 0.017061 85.4574 2.66652 83.0006 2.22494C80.5438 1.78337 80.5438 -0.203727 78.2918 0.017061C76.0397 0.237849 75.4255 3.10809 75.4255 5.53676Z" fill="url(#paint0_linear)"/>
<path d="M76.2098 13.6857C77.6453 13.0279 80.8685 12.1069 82.2778 13.6857C82.9468 14.4351 83.113 15.1483 83.0402 15.7455C83.7246 14.7124 84.7519 13.6857 85.9969 13.6857C88.3458 13.6857 90.1074 14.3436 90.6947 17.1942C91.2819 20.0448 92.8478 36.2714 93.2393 39.122C93.6308 41.9726 95.1967 49.4281 94.8052 52.9366C94.4137 56.445 95.7839 65.4354 93.2393 65.874C90.6947 66.3125 73.6652 68.5053 71.1206 67.1896C68.5759 65.874 69.9461 42.8497 71.1206 37.8063C72.295 32.7629 72.0993 14.5405 76.2098 13.6857Z" fill="#31374B"/>
<path d="M76.2098 13.6857C77.6453 13.0279 80.8685 12.1069 82.2778 13.6857C82.9468 14.4351 83.113 15.1483 83.0402 15.7455C83.7246 14.7124 84.7519 13.6857 85.9969 13.6857C88.3458 13.6857 90.1074 14.3436 90.6947 17.1942C91.2819 20.0448 92.8478 36.2714 93.2393 39.122C93.6308 41.9726 95.1967 49.4281 94.8052 52.9366C94.4137 56.445 95.7839 65.4354 93.2393 65.874C90.6947 66.3125 73.6652 68.5053 71.1206 67.1896C68.5759 65.874 69.9461 42.8497 71.1206 37.8063C72.295 32.7629 72.0993 14.5405 76.2098 13.6857Z" fill="url(#paint1_linear)"/>
<path d="M71.0069 64.7329C72.0804 62.7998 80.4194 61.999 83.9766 62.315C88.6174 63.3156 95.4784 64.1242 94.8673 67.3841C94.2047 70.919 92.5369 79.7179 92.1653 81.4415C91.7937 83.1651 92.2635 88.9993 92.1653 93.262C92.0671 97.5247 82.0957 107.903 81.8325 106.268C81.6221 104.96 73.0868 107.24 68.5767 106.268L64.3764 93.262C67.9475 89.0717 69.6651 67.1492 71.0069 64.7329Z" fill="#8B99A6"/>
<path d="M71.0069 64.7329C72.0804 62.7998 80.4194 61.999 83.9766 62.315C88.6174 63.3156 95.4784 64.1242 94.8673 67.3841C94.2047 70.919 92.5369 79.7179 92.1653 81.4415C91.7937 83.1651 92.2635 88.9993 92.1653 93.262C92.0671 97.5247 82.0957 107.903 81.8325 106.268C81.6221 104.96 73.0868 107.24 68.5767 106.268L64.3764 93.262C67.9475 89.0717 69.6651 67.1492 71.0069 64.7329Z" fill="url(#paint2_linear)"/>
<path d="M79.7154 102.429C79.9179 100.874 77.1501 102.429 75.665 102.429C74.5174 101.985 72.4247 100.874 72.4247 102.429C72.4247 103.983 71.2034 107.314 70.1233 109.09V117.093L75.665 118.861L80.728 116.196V109.09C80.728 105.982 79.5129 103.983 79.7154 102.429Z" fill="#AA6431"/>
<path d="M79.7154 102.429C79.9179 100.874 77.1501 102.429 75.665 102.429C74.5174 101.985 72.4247 100.874 72.4247 102.429C72.4247 103.983 71.2034 107.314 70.1233 109.09V117.093L75.665 118.861L80.728 116.196V109.09C80.728 105.982 79.5129 103.983 79.7154 102.429Z" fill="url(#paint3_linear)"/>
<path d="M80.2545 113.993V107.801C80.8656 109.128 82.4953 112.224 82.4953 113.993C82.4953 115.762 78.8286 121.512 76.1805 121.512C73.5323 121.512 69.2545 117.974 68.8471 115.983C68.4397 113.993 70.6805 105.368 70.6805 107.801C70.6805 110.234 70.273 111.56 70.6805 113.993C71.0879 116.426 73.1249 117.974 76.1805 117.974C78.6249 117.974 79.915 115.32 80.2545 113.993Z" fill="#212226"/>
<path d="M80.2545 113.993V107.801C80.8656 109.128 82.4953 112.224 82.4953 113.993C82.4953 115.762 78.8286 121.512 76.1805 121.512C73.5323 121.512 69.2545 117.974 68.8471 115.983C68.4397 113.993 70.6805 105.368 70.6805 107.801C70.6805 110.234 70.273 111.56 70.6805 113.993C71.0879 116.426 73.1249 117.974 76.1805 117.974C78.6249 117.974 79.915 115.32 80.2545 113.993Z" fill="url(#paint4_linear)"/>
<path d="M81.3908 105.826C81.7443 102.291 92.8793 90.8025 91.7745 93.2327C90.6698 95.663 90.6698 107.593 90.6698 109.361C90.6698 111.128 87.7977 119.744 87.1349 119.744C86.4721 119.744 86.2512 135.872 86.2512 137.419C86.2512 138.965 89.1233 138.303 88.6814 140.07C88.2396 141.838 78.5187 141.396 76.9722 140.07C75.4257 138.744 78.9606 138.965 79.8443 137.419C80.728 135.872 81.3908 121.291 80.5071 119.744C79.6233 118.198 80.9489 110.244 81.3908 105.826Z" fill="#AA6431"/>
<path d="M81.3908 105.826C81.7443 102.291 92.8793 90.8025 91.7745 93.2327C90.6698 95.663 90.6698 107.593 90.6698 109.361C90.6698 111.128 87.7977 119.744 87.1349 119.744C86.4721 119.744 86.2512 135.872 86.2512 137.419C86.2512 138.965 89.1233 138.303 88.6814 140.07C88.2396 141.838 78.5187 141.396 76.9722 140.07C75.4257 138.744 78.9606 138.965 79.8443 137.419C80.728 135.872 81.3908 121.291 80.5071 119.744C79.6233 118.198 80.9489 110.244 81.3908 105.826Z" fill="url(#paint5_linear)"/>
<path d="M70.1233 106.931C71.3605 100.921 67.8404 93.3802 65.9256 90.3608C61.7279 90.3608 60.4024 114.884 60.4024 118.198C60.4024 121.512 56.6465 133.884 56.6465 134.768C56.6465 135.652 52.2279 143.826 52.007 146.698C51.7861 149.57 56.8675 150.454 58.1931 149.791C59.5186 149.128 59.9605 140.291 60.4024 138.303C60.8442 136.314 65.9256 123.5 65.9256 121.291C65.9256 119.082 68.5768 114.442 70.1233 106.931Z" fill="#AA6431"/>
<path d="M70.1233 106.931C71.3605 100.921 67.8404 93.3802 65.9256 90.3608C61.7279 90.3608 60.4024 114.884 60.4024 118.198C60.4024 121.512 56.6465 133.884 56.6465 134.768C56.6465 135.652 52.2279 143.826 52.007 146.698C51.7861 149.57 56.8675 150.454 58.1931 149.791C59.5186 149.128 59.9605 140.291 60.4024 138.303C60.8442 136.314 65.9256 123.5 65.9256 121.291C65.9256 119.082 68.5768 114.442 70.1233 106.931Z" fill="url(#paint6_linear)"/>
<defs>
<linearGradient id="paint0_linear" x1="55.6866" y1="2.58805" x2="84.1307" y2="12.3165" gradientUnits="userSpaceOnUse">
<stop stop-color="white"/>
<stop offset="1" stop-color="white" stop-opacity="0"/>
</linearGradient>
<linearGradient id="paint1_linear" x1="35.5869" y1="20.6412" x2="88.4479" y2="30.9667" gradientUnits="userSpaceOnUse">
<stop stop-color="white"/>
<stop offset="1" stop-color="white" stop-opacity="0"/>
</linearGradient>
<linearGradient id="paint2_linear" x1="54.4198" y1="85.4135" x2="75.1751" y2="88.0415" gradientUnits="userSpaceOnUse">
<stop stop-color="white"/>
<stop offset="1" stop-color="white" stop-opacity="0"/>
</linearGradient>
<linearGradient id="paint3_linear" x1="63.1406" y1="111.12" x2="74.9088" y2="110.36" gradientUnits="userSpaceOnUse">
<stop stop-color="white"/>
<stop offset="1" stop-color="white" stop-opacity="0"/>
</linearGradient>
<linearGradient id="paint4_linear" x1="50.255" y1="109.392" x2="75.7761" y2="119.898" gradientUnits="userSpaceOnUse">
<stop stop-color="white"/>
<stop offset="1" stop-color="white" stop-opacity="0"/>
</linearGradient>
<linearGradient id="paint5_linear" x1="66.5337" y1="119.523" x2="83.5266" y2="118.96" gradientUnits="userSpaceOnUse">
<stop stop-color="white"/>
<stop offset="1" stop-color="white" stop-opacity="0"/>
</linearGradient>
<linearGradient id="paint6_linear" x1="39.897" y1="123.211" x2="60.3583" y2="122.549" gradientUnits="userSpaceOnUse">
<stop stop-color="white"/>
<stop offset="1" stop-color="white" stop-opacity="0"/>
</linearGradient>
</defs>
</svg>
