<svg width="150" height="150" viewBox="0 0 150 150" fill="none" xmlns="http://www.w3.org/2000/svg">
<g clip-path="url(#clip0)">
<path d="M110.646 121.379C111.375 119.558 117.021 93.6034 119.753 80.854L134.78 84.952L119.753 125.477C116.414 124.87 109.918 123.2 110.646 121.379Z" fill="#31374B"/>
<path d="M110.646 121.379C111.375 119.558 117.021 93.6034 119.753 80.854L134.78 84.952L119.753 125.477C116.414 124.87 109.918 123.2 110.646 121.379Z" fill="url(#paint0_linear)"/>
<path d="M109.281 130.03C108.917 128.938 110.951 124.111 112.013 121.834L117.022 120.013L121.575 128.209C121.271 129.879 120.3 133.218 118.843 133.218C117.022 133.218 109.737 131.396 109.281 130.03Z" fill="#212226"/>
<path d="M109.281 130.03C108.917 128.938 110.951 124.111 112.013 121.834L117.022 120.013L121.575 128.209C121.271 129.879 120.3 133.218 118.843 133.218C117.022 133.218 109.737 131.396 109.281 130.03Z" fill="url(#paint1_linear)"/>
<path d="M24.5882 108.63V8H0V150.065L24.5882 108.63Z" fill="#969696"/>
<path d="M31.8736 111.817C33.6949 110.724 42.0428 101.951 45.989 97.7017C48.7211 97.7017 54.2763 98.0659 54.6406 99.523C55.0959 101.344 56.0066 111.817 56.0066 114.094C56.0066 116.37 53.2744 117.736 49.6317 119.103C45.989 120.469 29.5969 113.183 31.8736 111.817Z" fill="#212226"/>
<path d="M31.8736 111.817C33.6949 110.724 42.0428 101.951 45.989 97.7017C48.7211 97.7017 54.2763 98.0659 54.6406 99.523C55.0959 101.344 56.0066 111.817 56.0066 114.094C56.0066 116.37 53.2744 117.736 49.6317 119.103C45.989 120.469 29.5969 113.183 31.8736 111.817Z" fill="url(#paint2_linear)"/>
<path d="M32.7844 112.272C30.963 111.908 28.3828 106.656 27.3203 104.076L44.1678 96.7905L45.9891 101.344C42.3464 105.138 34.6057 112.636 32.7844 112.272Z" fill="#AA6431"/>
<path d="M32.7844 112.272C30.963 111.908 28.3828 106.656 27.3203 104.076L44.1678 96.7905L45.9891 101.344C42.3464 105.138 34.6057 112.636 32.7844 112.272Z" fill="url(#paint3_linear)"/>
<path d="M22.3116 90.4161C23.4044 87.1377 33.3915 81.7647 38.2484 79.488L40.5251 90.4161L20.4902 100.434C20.642 98.4604 21.2188 93.6946 22.3116 90.4161Z" fill="#AA6431"/>
<path d="M22.3116 90.4161C23.4044 87.1377 33.3915 81.7647 38.2484 79.488L40.5251 90.4161L20.4902 100.434C20.642 98.4604 21.2188 93.6946 22.3116 90.4161Z" fill="url(#paint4_linear)"/>
<path d="M40.525 74.0238C38.3394 77.3023 37.793 85.7108 37.793 89.5053C42.6499 93.6033 52.637 101.526 53.7298 100.433C55.0958 99.0673 63.7472 88.5945 66.4792 84.9518C69.2112 81.3091 81.5053 75.3897 83.3267 74.9344C85.148 74.4791 86.9694 79.9431 88.7907 79.0324C90.6121 78.1218 94.7101 68.1044 95.6208 64.9171C96.5315 61.7297 92.8888 47.6143 90.1567 48.0696C87.4247 48.5249 76.4966 49.4356 71.4879 49.891C66.4792 50.3463 61.0152 52.1676 56.4618 54.8997C51.9084 57.6317 43.257 69.9258 40.525 74.0238Z" fill="#8B99A6"/>
<path d="M40.525 74.0238C38.3394 77.3023 37.793 85.7108 37.793 89.5053C42.6499 93.6033 52.637 101.526 53.7298 100.433C55.0958 99.0673 63.7472 88.5945 66.4792 84.9518C69.2112 81.3091 81.5053 75.3897 83.3267 74.9344C85.148 74.4791 86.9694 79.9431 88.7907 79.0324C90.6121 78.1218 94.7101 68.1044 95.6208 64.9171C96.5315 61.7297 92.8888 47.6143 90.1567 48.0696C87.4247 48.5249 76.4966 49.4356 71.4879 49.891C66.4792 50.3463 61.0152 52.1676 56.4618 54.8997C51.9084 57.6317 43.257 69.9258 40.525 74.0238Z" fill="url(#paint5_linear)"/>
<path d="M115.2 139.592C115.2 138.135 117.325 131.396 118.387 128.209C122.941 128.664 132.23 129.757 132.958 130.485C133.869 131.396 142.52 132.762 147.529 133.673C152.538 134.583 148.895 143.235 145.708 143.235C142.52 143.235 115.2 141.414 115.2 139.592Z" fill="#212226"/>
<path d="M115.2 139.592C115.2 138.135 117.325 131.396 118.387 128.209C122.941 128.664 132.23 129.757 132.958 130.485C133.869 131.396 142.52 132.762 147.529 133.673C152.538 134.583 148.895 143.235 145.708 143.235C142.52 143.235 115.2 141.414 115.2 139.592Z" fill="url(#paint6_linear)"/>
<path d="M107.004 51.257C103.726 49.4356 93.7995 49.2838 89.2462 49.4356C88.1837 57.7834 86.332 75.2987 87.4248 78.5772C88.7908 82.6752 92.4335 82.6752 98.8083 84.4965C105.183 86.3179 110.192 81.3092 112.924 81.3092C115.656 81.3092 127.494 87.2286 127.95 90.8713C128.405 94.514 116.111 125.477 116.111 128.664C116.111 131.852 135.691 133.673 136.146 131.396C136.601 129.12 147.529 87.6839 147.529 84.4965C147.529 81.3092 146.619 79.9432 143.431 75.8451C140.244 71.7471 111.102 53.5336 107.004 51.257Z" fill="#31374B"/>
<path d="M107.004 51.257C103.726 49.4356 93.7995 49.2838 89.2462 49.4356C88.1837 57.7834 86.332 75.2987 87.4248 78.5772C88.7908 82.6752 92.4335 82.6752 98.8083 84.4965C105.183 86.3179 110.192 81.3092 112.924 81.3092C115.656 81.3092 127.494 87.2286 127.95 90.8713C128.405 94.514 116.111 125.477 116.111 128.664C116.111 131.852 135.691 133.673 136.146 131.396C136.601 129.12 147.529 87.6839 147.529 84.4965C147.529 81.3092 146.619 79.9432 143.431 75.8451C140.244 71.7471 111.102 53.5336 107.004 51.257Z" fill="url(#paint7_linear)"/>
<path d="M36.4274 134.128C33.8775 133.035 26.5618 129.12 23.2226 127.298C22.6154 125.932 21.4009 122.836 21.4009 121.379C21.4009 119.557 21.4009 116.825 23.2226 112.727C25.0443 108.629 29.597 104.987 31.8737 103.165C34.1504 101.344 38.7038 100.889 42.8018 99.978C46.8998 99.0673 55.0959 94.5139 57.3726 92.6926C59.6493 90.8712 61.0153 84.0412 60.1046 80.8538C59.1939 77.6665 54.6406 73.1131 50.0872 72.6577C45.5338 72.2024 42.3465 77.6664 40.5251 79.0324C38.7038 80.3985 42.8018 83.5858 40.5251 85.8625C38.2484 88.1392 36.4274 87.6839 31.8737 89.5052C27.32 91.3266 15.0266 102.255 12.2946 106.808C9.56253 111.361 11.8392 129.12 12.2946 132.307C12.7499 135.494 17.7586 137.771 23.2226 139.592C28.6867 141.414 39.6148 135.494 36.4274 134.128Z" fill="#AA6431"/>
<path d="M36.4274 134.128C33.8775 133.035 26.5618 129.12 23.2226 127.298C22.6154 125.932 21.4009 122.836 21.4009 121.379C21.4009 119.557 21.4009 116.825 23.2226 112.727C25.0443 108.629 29.597 104.987 31.8737 103.165C34.1504 101.344 38.7038 100.889 42.8018 99.978C46.8998 99.0673 55.0959 94.5139 57.3726 92.6926C59.6493 90.8712 61.0153 84.0412 60.1046 80.8538C59.1939 77.6665 54.6406 73.1131 50.0872 72.6577C45.5338 72.2024 42.3465 77.6664 40.5251 79.0324C38.7038 80.3985 42.8018 83.5858 40.5251 85.8625C38.2484 88.1392 36.4274 87.6839 31.8737 89.5052C27.32 91.3266 15.0266 102.255 12.2946 106.808C9.56253 111.361 11.8392 129.12 12.2946 132.307C12.7499 135.494 17.7586 137.771 23.2226 139.592C28.6867 141.414 39.6148 135.494 36.4274 134.128Z" fill="url(#paint8_linear)"/>
</g>
<defs>
<linearGradient id="paint0_linear" x1="77.8442" y1="87.2287" x2="127.895" y2="98.7582" gradientUnits="userSpaceOnUse">
<stop stop-color="white"/>
<stop offset="1" stop-color="white" stop-opacity="0"/>
</linearGradient>
<linearGradient id="paint1_linear" x1="92.5378" y1="121.899" x2="115.759" y2="131.118" gradientUnits="userSpaceOnUse">
<stop stop-color="white"/>
<stop offset="1" stop-color="white" stop-opacity="0"/>
</linearGradient>
<linearGradient id="paint2_linear" x1="-1.30364" y1="100.783" x2="41.8267" y2="121.471" gradientUnits="userSpaceOnUse">
<stop stop-color="white"/>
<stop offset="1" stop-color="white" stop-opacity="0"/>
</linearGradient>
<linearGradient id="paint3_linear" x1="15.0277" y1="105.325" x2="35.5037" y2="102.735" gradientUnits="userSpaceOnUse">
<stop stop-color="white"/>
<stop offset="1" stop-color="white" stop-opacity="0"/>
</linearGradient>
<linearGradient id="paint4_linear" x1="7.29814" y1="91.0252" x2="29.4011" y2="88.8057" gradientUnits="userSpaceOnUse">
<stop stop-color="white"/>
<stop offset="1" stop-color="white" stop-opacity="0"/>
</linearGradient>
<linearGradient id="paint5_linear" x1="13.5458" y1="80.7964" x2="57.1092" y2="73.7127" gradientUnits="userSpaceOnUse">
<stop stop-color="white"/>
<stop offset="1" stop-color="white" stop-opacity="0"/>
</linearGradient>
<linearGradient id="paint6_linear" x1="68.0916" y1="130.355" x2="106.611" y2="168.263" gradientUnits="userSpaceOnUse">
<stop stop-color="white"/>
<stop offset="1" stop-color="white" stop-opacity="0"/>
</linearGradient>
<linearGradient id="paint7_linear" x1="5.27601" y1="61.2515" x2="125.463" y2="98.4304" gradientUnits="userSpaceOnUse">
<stop stop-color="white"/>
<stop offset="1" stop-color="white" stop-opacity="0"/>
</linearGradient>
<linearGradient id="paint8_linear" x1="-21.5665" y1="109.704" x2="33.1765" y2="105.485" gradientUnits="userSpaceOnUse">
<stop stop-color="white"/>
<stop offset="1" stop-color="white" stop-opacity="0"/>
</linearGradient>
<clipPath id="clip0">
<rect width="150" height="150" fill="white"/>
</clipPath>
</defs>
</svg>
