<svg width="150" height="150" viewBox="0 0 150 150" fill="none" xmlns="http://www.w3.org/2000/svg">
<path d="M86.6231 147.881C86.3117 147.258 87.2717 141.914 87.7905 139.319H87.4014C91.293 138.671 99.2319 137.374 99.8545 137.374C100.633 137.374 104.914 140.098 106.859 140.876C108.805 141.654 114.254 144.378 115.81 145.157C117.367 145.935 115.032 149.438 113.086 149.827C111.14 150.216 98.6871 149.827 95.9629 149.827C93.2388 149.827 87.0122 148.659 86.6231 147.881Z" fill="#212226"/>
<path d="M86.6231 147.881C86.3117 147.258 87.2717 141.914 87.7905 139.319H87.4014C91.293 138.671 99.2319 137.374 99.8545 137.374C100.633 137.374 104.914 140.098 106.859 140.876C108.805 141.654 114.254 144.378 115.81 145.157C117.367 145.935 115.032 149.438 113.086 149.827C111.14 150.216 98.6871 149.827 95.9629 149.827C93.2388 149.827 87.0122 148.659 86.6231 147.881Z" fill="url(#paint0_linear)"/>
<path d="M93.2383 74.7188C92.3044 73.1622 92.8492 67.3248 93.2383 64.6006L109.583 54.4824C111.789 54.223 116.588 54.1711 118.145 56.0391C120.091 58.3741 121.647 68.1031 122.426 71.9947C123.204 75.8863 123.204 97.2902 122.426 101.96C121.647 106.63 106.859 138.152 104.135 139.709C101.411 141.265 96.3513 142.044 93.6271 142.044C90.903 142.044 83.8981 139.709 85.0656 135.428C86.2331 131.147 87.0114 127.256 88.568 124.531C90.1247 121.807 102.578 96.5118 102.967 93.0094C103.356 89.5069 101.41 80.5562 99.8537 79.7779C98.2971 78.9996 94.4058 76.6646 93.2383 74.7188Z" fill="#31374B"/>
<path d="M93.2383 74.7188C92.3044 73.1622 92.8492 67.3248 93.2383 64.6006L109.583 54.4824C111.789 54.223 116.588 54.1711 118.145 56.0391C120.091 58.3741 121.647 68.1031 122.426 71.9947C123.204 75.8863 123.204 97.2902 122.426 101.96C121.647 106.63 106.859 138.152 104.135 139.709C101.411 141.265 96.3513 142.044 93.6271 142.044C90.903 142.044 83.8981 139.709 85.0656 135.428C86.2331 131.147 87.0114 127.256 88.568 124.531C90.1247 121.807 102.578 96.5118 102.967 93.0094C103.356 89.5069 101.41 80.5562 99.8537 79.7779C98.2971 78.9996 94.4058 76.6646 93.2383 74.7188Z" fill="url(#paint1_linear)"/>
<path d="M82.3424 21.4036C79.2291 20.4696 75.0781 22.8305 73.3917 24.1277C70.5379 26.9816 64.6745 32.6893 64.0518 32.6893C63.2735 32.6893 65.6085 44.3641 69.1109 45.1425C72.6134 45.9208 83.5099 50.2016 85.8449 52.1474C88.1798 54.0932 93.6281 57.9848 92.8498 59.9306C92.0714 61.8764 90.1256 65.768 93.6281 65.768C97.1305 65.768 109.584 63.8222 111.919 61.8764C114.254 59.9306 116.199 56.4281 115.81 54.4823C115.421 52.5365 112.697 48.2558 111.919 45.1425C111.14 42.0292 106.86 35.8026 103.746 32.6893C100.633 29.576 86.234 22.5711 82.3424 21.4036Z" fill="#8B99A6"/>
<path d="M82.3424 21.4036C79.2291 20.4696 75.0781 22.8305 73.3917 24.1277C70.5379 26.9816 64.6745 32.6893 64.0518 32.6893C63.2735 32.6893 65.6085 44.3641 69.1109 45.1425C72.6134 45.9208 83.5099 50.2016 85.8449 52.1474C88.1798 54.0932 93.6281 57.9848 92.8498 59.9306C92.0714 61.8764 90.1256 65.768 93.6281 65.768C97.1305 65.768 109.584 63.8222 111.919 61.8764C114.254 59.9306 116.199 56.4281 115.81 54.4823C115.421 52.5365 112.697 48.2558 111.919 45.1425C111.14 42.0292 106.86 35.8026 103.746 32.6893C100.633 29.576 86.234 22.5711 82.3424 21.4036Z" fill="url(#paint2_linear)"/>
<path d="M33.697 22.5716V12.0643C33.697 11.6751 33.9305 10.6633 34.8645 9.7293C36.032 8.56181 41.8694 8.95099 45.761 8.56182C48.8743 8.2505 55.3603 10.7671 58.2142 12.0643L55.1009 15.9559H45.761C43.4261 15.9559 39.9236 14.7884 37.9778 14.7884C36.032 14.7884 37.1995 17.9017 36.8103 22.5716C36.4211 27.2416 33.697 24.5174 33.697 22.5716Z" fill="#AA6431"/>
<path d="M33.697 22.5716V12.0643C33.697 11.6751 33.9305 10.6633 34.8645 9.7293C36.032 8.56181 41.8694 8.95099 45.761 8.56182C48.8743 8.2505 55.3603 10.7671 58.2142 12.0643L55.1009 15.9559H45.761C43.4261 15.9559 39.9236 14.7884 37.9778 14.7884C36.032 14.7884 37.1995 17.9017 36.8103 22.5716C36.4211 27.2416 33.697 24.5174 33.697 22.5716Z" fill="url(#paint3_linear)"/>
<path d="M27.8595 3.89161C26.3029 5.44826 27.2109 14.1395 27.8595 18.2906C28.1355 20.2364 31.362 21.4039 31.7511 18.2906C32.1403 15.1773 31.362 7.78322 34.4752 7.78322H45.7609C48.8742 7.78322 54.3225 11.2857 57.0466 13.6206C59.7707 15.9556 62.4949 18.2906 62.4949 21.4039C62.4949 24.5172 65.9973 32.3004 67.5539 35.0245C69.1106 37.7486 70.6672 40.8619 73.3914 42.8077C76.1155 44.7535 80.7854 42.4186 83.1204 40.8619C85.4554 39.3053 87.012 37.7486 88.5686 36.5811C90.1253 35.4137 88.1795 31.5221 87.012 29.1871C85.8445 26.8521 81.9529 24.5172 80.7854 23.3497C79.6179 22.1822 76.5047 21.793 74.948 21.4039C73.3914 21.0147 73.0022 16.3448 71.8347 13.6206C70.6672 10.8965 64.0515 5.05909 60.9382 2.72413C57.8249 0.389161 48.0959 0 42.6476 0C37.1994 0 29.8053 1.94581 27.8595 3.89161Z" fill="#AA6431"/>
<path d="M27.8595 3.89161C26.3029 5.44826 27.2109 14.1395 27.8595 18.2906C28.1355 20.2364 31.362 21.4039 31.7511 18.2906C32.1403 15.1773 31.362 7.78322 34.4752 7.78322H45.7609C48.8742 7.78322 54.3225 11.2857 57.0466 13.6206C59.7707 15.9556 62.4949 18.2906 62.4949 21.4039C62.4949 24.5172 65.9973 32.3004 67.5539 35.0245C69.1106 37.7486 70.6672 40.8619 73.3914 42.8077C76.1155 44.7535 80.7854 42.4186 83.1204 40.8619C85.4554 39.3053 87.012 37.7486 88.5686 36.5811C90.1253 35.4137 88.1795 31.5221 87.012 29.1871C85.8445 26.8521 81.9529 24.5172 80.7854 23.3497C79.6179 22.1822 76.5047 21.793 74.948 21.4039C73.3914 21.0147 73.0022 16.3448 71.8347 13.6206C70.6672 10.8965 64.0515 5.05909 60.9382 2.72413C57.8249 0.389161 48.0959 0 42.6476 0C37.1994 0 29.8053 1.94581 27.8595 3.89161Z" fill="url(#paint4_linear)"/>
<path d="M55.1011 10.5069C54.1671 10.8182 52.1175 11.9338 51.2095 12.4527L62.8843 28.7975L65.2193 24.1275C64.7004 22.4412 63.6626 18.9906 63.6626 18.6793C63.6626 18.2901 56.2686 10.1177 55.1011 10.5069Z" fill="#AA6431"/>
<path d="M55.1011 10.5069C54.1671 10.8182 52.1175 11.9338 51.2095 12.4527L62.8843 28.7975L65.2193 24.1275C64.7004 22.4412 63.6626 18.9906 63.6626 18.6793C63.6626 18.2901 56.2686 10.1177 55.1011 10.5069Z" fill="url(#paint5_linear)"/>
<path d="M65.6082 30.3548C64.9856 28.7982 56.0089 17.2531 51.5985 11.6751C49.6528 9.72927 44.5936 16.7342 43.8152 17.9017C43.0369 19.0691 41.0911 28.409 41.8694 29.9657C42.6477 31.5223 45.761 32.6898 48.8743 33.4681C51.9876 34.2464 66.3866 32.3006 65.6082 30.3548Z" fill="#212226"/>
<path d="M65.6082 30.3548C64.9856 28.7982 56.0089 17.2531 51.5985 11.6751C49.6528 9.72927 44.5936 16.7342 43.8152 17.9017C43.0369 19.0691 41.0911 28.409 41.8694 29.9657C42.6477 31.5223 45.761 32.6898 48.8743 33.4681C51.9876 34.2464 66.3866 32.3006 65.6082 30.3548Z" fill="url(#paint6_linear)"/>
<defs>
<linearGradient id="paint0_linear" x1="46.2809" y1="139.177" x2="78.6517" y2="171.595" gradientUnits="userSpaceOnUse">
<stop stop-color="white"/>
<stop offset="1" stop-color="white" stop-opacity="0"/>
</linearGradient>
<linearGradient id="paint1_linear" x1="33.3948" y1="66.8784" x2="113.623" y2="81.6801" gradientUnits="userSpaceOnUse">
<stop stop-color="white"/>
<stop offset="1" stop-color="white" stop-opacity="0"/>
</linearGradient>
<linearGradient id="paint2_linear" x1="42.1694" y1="49" x2="81.1012" y2="42.3206" gradientUnits="userSpaceOnUse">
<stop stop-color="white"/>
<stop offset="1" stop-color="white" stop-opacity="0"/>
</linearGradient>
<linearGradient id="paint3_linear" x1="17.5535" y1="17.6871" x2="44.234" y2="13.554" gradientUnits="userSpaceOnUse">
<stop stop-color="white"/>
<stop offset="1" stop-color="white" stop-opacity="0"/>
</linearGradient>
<linearGradient id="paint4_linear" x1="-13.9218" y1="23.9865" x2="53.8125" y2="13.8385" gradientUnits="userSpaceOnUse">
<stop stop-color="white"/>
<stop offset="1" stop-color="white" stop-opacity="0"/>
</linearGradient>
<linearGradient id="paint5_linear" x1="41.9846" y1="20.5756" x2="57.4963" y2="19.3292" gradientUnits="userSpaceOnUse">
<stop stop-color="white"/>
<stop offset="1" stop-color="white" stop-opacity="0"/>
</linearGradient>
<linearGradient id="paint6_linear" x1="9.26854" y1="14.5226" x2="52.4626" y2="34.2277" gradientUnits="userSpaceOnUse">
<stop stop-color="white"/>
<stop offset="1" stop-color="white" stop-opacity="0"/>
</linearGradient>
</defs>
</svg>
