<svg width="150" height="150" viewBox="0 0 150 150" fill="none" xmlns="http://www.w3.org/2000/svg">
<path d="M107.54 126.107C108.326 124.142 114.418 96.1392 117.366 82.3835L133.578 86.805L117.366 130.528C113.763 129.873 106.754 128.072 107.54 126.107Z" fill="#31374B"/>
<path d="M107.54 126.107C108.326 124.142 114.418 96.1392 117.366 82.3835L133.578 86.805L117.366 130.528C113.763 129.873 106.754 128.072 107.54 126.107Z" fill="url(#paint0_linear)"/>
<path d="M106.068 135.441C105.675 134.262 107.869 129.054 109.015 126.598L114.419 124.633L119.332 133.476C119.004 135.277 117.956 138.88 116.384 138.88C114.419 138.88 106.559 136.915 106.068 135.441Z" fill="#212226"/>
<path d="M106.068 135.441C105.675 134.262 107.869 129.054 109.015 126.598L114.419 124.633L119.332 133.476C119.004 135.277 117.956 138.88 116.384 138.88C114.419 138.88 106.559 136.915 106.068 135.441Z" fill="url(#paint1_linear)"/>
<path d="M22.5505 115.79C24.5156 114.611 33.5223 105.146 37.78 100.561C40.7277 100.561 46.7213 100.954 47.1144 102.526C47.6056 104.491 48.5882 115.79 48.5882 118.246C48.5882 120.703 45.6404 122.177 41.7102 123.65C37.78 125.124 20.0941 117.264 22.5505 115.79Z" fill="#212226"/>
<path d="M22.5505 115.79C24.5156 114.611 33.5223 105.146 37.78 100.561C40.7277 100.561 46.7213 100.954 47.1144 102.526C47.6056 104.491 48.5882 115.79 48.5882 118.246C48.5882 120.703 45.6404 122.177 41.7102 123.65C37.78 125.124 20.0941 117.264 22.5505 115.79Z" fill="url(#paint2_linear)"/>
<path d="M23.5331 116.281C21.568 115.888 18.7841 110.222 17.6378 107.439L35.8149 99.5781L37.78 104.491C33.8498 108.585 25.4982 116.674 23.5331 116.281Z" fill="#AA6431"/>
<path d="M23.5331 116.281C21.568 115.888 18.7841 110.222 17.6378 107.439L35.8149 99.5781L37.78 104.491C33.8498 108.585 25.4982 116.674 23.5331 116.281Z" fill="url(#paint3_linear)"/>
<path d="M12.2338 92.6995C13.4128 89.1623 24.1881 83.3653 29.4284 80.9089L31.8847 92.6995L10.2687 103.508C10.4324 101.379 11.0547 96.2367 12.2338 92.6995Z" fill="#AA6431"/>
<path d="M12.2338 92.6995C13.4128 89.1623 24.1881 83.3653 29.4284 80.9089L31.8847 92.6995L10.2687 103.508C10.4324 101.379 11.0547 96.2367 12.2338 92.6995Z" fill="url(#paint4_linear)"/>
<path d="M31.8849 75.0142C29.5268 78.5514 28.9373 87.6236 28.9373 91.7175C34.1775 96.139 44.9528 104.687 46.1318 103.508C47.6057 102.034 56.9399 90.7349 59.8875 86.8047C62.8351 82.8745 76.0995 76.4879 78.0646 75.9967C80.0297 75.5054 81.9948 81.4007 83.9599 80.4181C85.925 79.4356 90.3465 68.6277 91.329 65.1887C92.3116 61.7498 88.3814 46.5203 85.4337 47.0116C82.4861 47.5029 70.6955 48.4854 65.2915 48.9767C59.8875 49.468 53.9922 51.4331 49.0795 54.3807C44.1667 57.3284 34.8325 70.5928 31.8849 75.0142Z" fill="#8B99A6"/>
<path d="M31.8849 75.0142C29.5268 78.5514 28.9373 87.6236 28.9373 91.7175C34.1775 96.139 44.9528 104.687 46.1318 103.508C47.6057 102.034 56.9399 90.7349 59.8875 86.8047C62.8351 82.8745 76.0995 76.4879 78.0646 75.9967C80.0297 75.5054 81.9948 81.4007 83.9599 80.4181C85.925 79.4356 90.3465 68.6277 91.329 65.1887C92.3116 61.7498 88.3814 46.5203 85.4337 47.0116C82.4861 47.5029 70.6955 48.4854 65.2915 48.9767C59.8875 49.468 53.9922 51.4331 49.0795 54.3807C44.1667 57.3284 34.8325 70.5928 31.8849 75.0142Z" fill="url(#paint5_linear)"/>
<path d="M112.453 145.758C112.453 144.186 114.746 136.915 115.892 133.476C120.805 133.967 130.827 135.146 131.613 135.932C132.596 136.915 141.93 138.389 147.334 139.371C152.738 140.354 148.808 149.688 145.369 149.688C141.93 149.688 112.453 147.723 112.453 145.758Z" fill="#212226"/>
<path d="M112.453 145.758C112.453 144.186 114.746 136.915 115.892 133.476C120.805 133.967 130.827 135.146 131.613 135.932C132.596 136.915 141.93 138.389 147.334 139.371C152.738 140.354 148.808 149.688 145.369 149.688C141.93 149.688 112.453 147.723 112.453 145.758Z" fill="url(#paint6_linear)"/>
<path d="M103.611 50.4501C100.074 48.485 89.3638 48.3213 84.451 48.485C83.3047 57.4917 81.3069 76.3893 82.4859 79.9265C83.9598 84.348 87.89 84.348 94.7678 86.3131C101.646 88.2782 107.05 82.8741 109.997 82.8741C112.945 82.8741 125.718 89.2607 126.209 93.1909C126.701 97.1211 113.436 130.528 113.436 133.967C113.436 137.406 134.561 139.371 135.052 136.914C135.544 134.458 147.334 89.752 147.334 86.3131C147.334 82.8741 146.352 81.4003 142.913 76.9789C139.474 72.5574 108.032 52.9065 103.611 50.4501Z" fill="#31374B"/>
<path d="M103.611 50.4501C100.074 48.485 89.3638 48.3213 84.451 48.485C83.3047 57.4917 81.3069 76.3893 82.4859 79.9265C83.9598 84.348 87.89 84.348 94.7678 86.3131C101.646 88.2782 107.05 82.8741 109.997 82.8741C112.945 82.8741 125.718 89.2607 126.209 93.1909C126.701 97.1211 113.436 130.528 113.436 133.967C113.436 137.406 134.561 139.371 135.052 136.914C135.544 134.458 147.334 89.752 147.334 86.3131C147.334 82.8741 146.352 81.4003 142.913 76.9789C139.474 72.5574 108.032 52.9065 103.611 50.4501Z" fill="url(#paint7_linear)"/>
<path d="M27.4637 139.863C24.7126 138.684 16.8195 134.459 13.2168 132.494C12.5616 131.02 11.2513 127.679 11.2513 126.107C11.2513 124.142 11.2513 121.194 13.2168 116.773C15.1823 112.351 20.0942 108.421 22.5506 106.456C25.007 104.491 29.9197 104 34.3412 103.017C38.7626 102.035 47.6056 97.1219 50.0619 95.1568C52.5183 93.1917 53.9921 85.8226 53.0096 82.3837C52.027 78.9448 47.1143 74.032 42.2016 73.5407C37.2888 73.0494 33.8499 78.9447 31.8848 80.4185C29.9197 81.8924 34.3412 85.3313 31.8848 87.7876C29.4284 90.244 27.4637 89.7527 22.5506 91.7178C17.6375 93.6829 4.37387 105.473 1.42623 110.386C-1.52142 115.299 0.934951 134.459 1.42623 137.898C1.9175 141.336 7.32151 143.793 13.2168 145.758C19.1121 147.723 30.9026 141.336 27.4637 139.863Z" fill="#AA6431"/>
<path d="M27.4637 139.863C24.7126 138.684 16.8195 134.459 13.2168 132.494C12.5616 131.02 11.2513 127.679 11.2513 126.107C11.2513 124.142 11.2513 121.194 13.2168 116.773C15.1823 112.351 20.0942 108.421 22.5506 106.456C25.007 104.491 29.9197 104 34.3412 103.017C38.7626 102.035 47.6056 97.1219 50.0619 95.1568C52.5183 93.1917 53.9921 85.8226 53.0096 82.3837C52.027 78.9448 47.1143 74.032 42.2016 73.5407C37.2888 73.0494 33.8499 78.9447 31.8848 80.4185C29.9197 81.8924 34.3412 85.3313 31.8848 87.7876C29.4284 90.244 27.4637 89.7527 22.5506 91.7178C17.6375 93.6829 4.37387 105.473 1.42623 110.386C-1.52142 115.299 0.934951 134.459 1.42623 137.898C1.9175 141.336 7.32151 143.793 13.2168 145.758C19.1121 147.723 30.9026 141.336 27.4637 139.863Z" fill="url(#paint8_linear)"/>
<defs>
<linearGradient id="paint0_linear" x1="72.1494" y1="89.2614" x2="126.151" y2="101.701" gradientUnits="userSpaceOnUse">
<stop stop-color="white"/>
<stop offset="1" stop-color="white" stop-opacity="0"/>
</linearGradient>
<linearGradient id="paint1_linear" x1="88.0029" y1="126.668" x2="113.056" y2="136.614" gradientUnits="userSpaceOnUse">
<stop stop-color="white"/>
<stop offset="1" stop-color="white" stop-opacity="0"/>
</linearGradient>
<linearGradient id="paint2_linear" x1="-13.2451" y1="103.885" x2="33.2892" y2="126.206" gradientUnits="userSpaceOnUse">
<stop stop-color="white"/>
<stop offset="1" stop-color="white" stop-opacity="0"/>
</linearGradient>
<linearGradient id="paint3_linear" x1="4.37501" y1="108.786" x2="26.4671" y2="105.992" gradientUnits="userSpaceOnUse">
<stop stop-color="white"/>
<stop offset="1" stop-color="white" stop-opacity="0"/>
</linearGradient>
<linearGradient id="paint4_linear" x1="-3.96458" y1="93.3566" x2="19.8829" y2="90.962" gradientUnits="userSpaceOnUse">
<stop stop-color="white"/>
<stop offset="1" stop-color="white" stop-opacity="0"/>
</linearGradient>
<linearGradient id="paint5_linear" x1="2.77643" y1="82.3213" x2="49.778" y2="74.6786" gradientUnits="userSpaceOnUse">
<stop stop-color="white"/>
<stop offset="1" stop-color="white" stop-opacity="0"/>
</linearGradient>
<linearGradient id="paint6_linear" x1="61.627" y1="135.792" x2="103.186" y2="176.691" gradientUnits="userSpaceOnUse">
<stop stop-color="white"/>
<stop offset="1" stop-color="white" stop-opacity="0"/>
</linearGradient>
<linearGradient id="paint7_linear" x1="-6.1463" y1="61.2334" x2="123.527" y2="101.347" gradientUnits="userSpaceOnUse">
<stop stop-color="white"/>
<stop offset="1" stop-color="white" stop-opacity="0"/>
</linearGradient>
<linearGradient id="paint8_linear" x1="-35.1072" y1="113.511" x2="23.9562" y2="108.959" gradientUnits="userSpaceOnUse">
<stop stop-color="white"/>
<stop offset="1" stop-color="white" stop-opacity="0"/>
</linearGradient>
</defs>
</svg>
