<svg width="150" height="150" viewBox="0 0 150 150" fill="none" xmlns="http://www.w3.org/2000/svg">
<g clip-path="url(#clip0)">
<path d="M138.726 136.637H132.766L133.578 142.055C135.655 142.145 140.243 142.272 141.977 142.055C144.144 141.784 140.351 136.637 138.726 136.637Z" fill="#212226"/>
<path d="M138.726 136.637H132.766L133.578 142.055C135.655 142.145 140.243 142.272 141.977 142.055C144.144 141.784 140.351 136.637 138.726 136.637Z" fill="url(#paint0_linear)"/>
<path d="M23.3176 146.119C21.8005 144.601 15.2805 130.496 12.2102 123.633C5.70831 122.007 -2.68994 137.72 0.831905 143.68C4.35375 149.64 25.2139 148.015 23.3176 146.119Z" fill="#212226"/>
<path d="M23.3176 146.119C21.8005 144.601 15.2805 130.496 12.2102 123.633C5.70831 122.007 -2.68994 137.72 0.831905 143.68C4.35375 149.64 25.2139 148.015 23.3176 146.119Z" fill="url(#paint1_linear)"/>
<path d="M20.8793 122.821C17.1949 122.387 13.5646 123.724 12.2101 124.446C13.8356 131.129 17.845 144.819 20.8793 146.119C23.9135 147.42 28.826 146.661 30.903 146.119V134.199C30.7224 132.574 30.0902 128.727 29.0066 126.343C27.652 123.363 25.4847 123.363 20.8793 122.821Z" fill="#AA6431"/>
<path d="M20.8793 122.821C17.1949 122.387 13.5646 123.724 12.2101 124.446C13.8356 131.129 17.845 144.819 20.8793 146.119C23.9135 147.42 28.826 146.661 30.903 146.119V134.199C30.7224 132.574 30.0902 128.727 29.0066 126.343C27.652 123.363 25.4847 123.363 20.8793 122.821Z" fill="url(#paint2_linear)"/>
<path d="M112.447 147.744C112.447 146.01 113.531 141.242 114.073 139.075C119.491 137.54 130.49 134.632 131.14 135.282C131.953 136.095 135.475 140.429 137.642 141.242C139.809 142.055 142.789 142.868 147.395 143.138C152 143.409 149.833 149.911 146.04 150.182C142.248 150.453 112.447 149.911 112.447 147.744Z" fill="#212226"/>
<path d="M112.447 147.744C112.447 146.01 113.531 141.242 114.073 139.075C119.491 137.54 130.49 134.632 131.14 135.282C131.953 136.095 135.475 140.429 137.642 141.242C139.809 142.055 142.789 142.868 147.395 143.138C152 143.409 149.833 149.911 146.04 150.182C142.248 150.453 112.447 149.911 112.447 147.744Z" fill="url(#paint3_linear)"/>
<path d="M43.6358 114.693C41.7394 116.318 34.1539 124.987 32.7994 127.425C31.851 129.132 31.2485 132.624 30.9918 134.74C30.5106 139.346 29.8193 148.719 30.903 149.369C32.2575 150.182 40.6558 149.911 43.6358 149.911C46.6158 149.911 53.3886 146.118 55.8268 143.951C58.265 141.784 60.1614 140.7 63.9542 138.804C67.7469 136.907 68.8306 128.238 70.4561 127.425C72.0815 126.613 84.2725 129.593 83.7307 128.238C83.1889 126.884 79.3961 119.027 78.0416 114.693C76.9579 111.225 77.0482 102.231 77.2288 98.167C76.9579 97.7155 76.1452 96.8666 75.0616 97.0834C73.707 97.3543 67.476 100.876 65.0378 102.773C62.5996 104.669 53.9305 107.378 50.6795 109.274C47.4286 111.171 45.5322 113.067 43.6358 114.693Z" fill="#8B99A6"/>
<path d="M43.6358 114.693C41.7394 116.318 34.1539 124.987 32.7994 127.425C31.851 129.132 31.2485 132.624 30.9918 134.74C30.5106 139.346 29.8193 148.719 30.903 149.369C32.2575 150.182 40.6558 149.911 43.6358 149.911C46.6158 149.911 53.3886 146.118 55.8268 143.951C58.265 141.784 60.1614 140.7 63.9542 138.804C67.7469 136.907 68.8306 128.238 70.4561 127.425C72.0815 126.613 84.2725 129.593 83.7307 128.238C83.1889 126.884 79.3961 119.027 78.0416 114.693C76.9579 111.225 77.0482 102.231 77.2288 98.167C76.9579 97.7155 76.1452 96.8666 75.0616 97.0834C73.707 97.3543 67.476 100.876 65.0378 102.773C62.5996 104.669 53.9305 107.378 50.6795 109.274C47.4286 111.171 45.5322 113.067 43.6358 114.693Z" fill="url(#paint4_linear)"/>
<path d="M88.3362 92.2073C85.7354 93.0742 78.4028 96.1807 75.0615 97.6255C75.784 107.74 78.475 128.13 83.4598 128.78C89.6907 129.593 105.945 115.506 108.113 113.88C110.28 112.255 110.009 107.107 111.635 111.171C113.26 115.235 113.26 129.593 113.26 132.031C113.26 134.47 111.905 139.617 114.344 139.888C116.782 140.159 136.017 137.991 136.288 136.095C136.558 134.199 130.327 101.96 129.515 98.7092C128.702 95.4583 127.347 87.6018 122.471 85.7054C117.595 83.8091 111.635 86.2473 107.571 87.06C103.507 87.8727 91.5871 91.1237 88.3362 92.2073Z" fill="#31374B"/>
<path d="M88.3362 92.2073C85.7354 93.0742 78.4028 96.1807 75.0615 97.6255C75.784 107.74 78.475 128.13 83.4598 128.78C89.6907 129.593 105.945 115.506 108.113 113.88C110.28 112.255 110.009 107.107 111.635 111.171C113.26 115.235 113.26 129.593 113.26 132.031C113.26 134.47 111.905 139.617 114.344 139.888C116.782 140.159 136.017 137.991 136.288 136.095C136.558 134.199 130.327 101.96 129.515 98.7092C128.702 95.4583 127.347 87.6018 122.471 85.7054C117.595 83.8091 111.635 86.2473 107.571 87.06C103.507 87.8727 91.5871 91.1237 88.3362 92.2073Z" fill="url(#paint5_linear)"/>
<path d="M33.6124 130.135C35.3462 127.317 39.9336 127.877 42.0106 128.509C43.9069 127.335 47.9704 124.662 49.0541 123.362C50.4086 121.736 49.0541 113.067 49.5959 110.087C50.1377 107.107 45.5322 108.462 46.345 105.752C47.1577 103.043 51.2214 101.96 52.5759 101.418C53.9305 100.876 59.6196 102.231 59.6196 104.398C59.6196 106.565 58.536 108.733 59.6196 110.9C60.7033 113.067 62.3288 121.736 61.7869 126.342C61.2451 130.947 60.4324 131.76 59.6196 132.844C58.8069 133.927 51.7632 139.887 51.2214 141.784C50.6796 143.68 49.8668 144.222 49.0541 145.035C48.2414 145.848 44.4486 148.557 43.094 148.828C41.7395 149.098 37.9467 150.182 34.9667 150.182C31.9867 150.182 29.0069 145.848 28.465 143.68C27.9232 141.513 27.9232 139.346 29.5487 135.824C31.1742 132.302 31.4451 133.656 33.6124 130.135Z" fill="#AA6431"/>
<path d="M33.6124 130.135C35.3462 127.317 39.9336 127.877 42.0106 128.509C43.9069 127.335 47.9704 124.662 49.0541 123.362C50.4086 121.736 49.0541 113.067 49.5959 110.087C50.1377 107.107 45.5322 108.462 46.345 105.752C47.1577 103.043 51.2214 101.96 52.5759 101.418C53.9305 100.876 59.6196 102.231 59.6196 104.398C59.6196 106.565 58.536 108.733 59.6196 110.9C60.7033 113.067 62.3288 121.736 61.7869 126.342C61.2451 130.947 60.4324 131.76 59.6196 132.844C58.8069 133.927 51.7632 139.887 51.2214 141.784C50.6796 143.68 49.8668 144.222 49.0541 145.035C48.2414 145.848 44.4486 148.557 43.094 148.828C41.7395 149.098 37.9467 150.182 34.9667 150.182C31.9867 150.182 29.0069 145.848 28.465 143.68C27.9232 141.513 27.9232 139.346 29.5487 135.824C31.1742 132.302 31.4451 133.656 33.6124 130.135Z" fill="url(#paint6_linear)"/>
</g>
<defs>
<linearGradient id="paint0_linear" x1="119.414" y1="137.428" x2="133.078" y2="147.77" gradientUnits="userSpaceOnUse">
<stop stop-color="white"/>
<stop offset="1" stop-color="white" stop-opacity="0"/>
</linearGradient>
<linearGradient id="paint1_linear" x1="-31.7296" y1="126.992" x2="12.0154" y2="144.895" gradientUnits="userSpaceOnUse">
<stop stop-color="white"/>
<stop offset="1" stop-color="white" stop-opacity="0"/>
</linearGradient>
<linearGradient id="paint2_linear" x1="-0.0984034" y1="136.011" x2="20.5949" y2="134.326" gradientUnits="userSpaceOnUse">
<stop stop-color="white"/>
<stop offset="1" stop-color="white" stop-opacity="0"/>
</linearGradient>
<linearGradient id="paint3_linear" x1="61.6123" y1="137.34" x2="100.152" y2="178.183" gradientUnits="userSpaceOnUse">
<stop stop-color="white"/>
<stop offset="1" stop-color="white" stop-opacity="0"/>
</linearGradient>
<linearGradient id="paint4_linear" x1="7.983" y1="130.054" x2="48.2985" y2="124.062" gradientUnits="userSpaceOnUse">
<stop stop-color="white"/>
<stop offset="1" stop-color="white" stop-opacity="0"/>
</linearGradient>
<linearGradient id="paint5_linear" x1="-7.83178" y1="92.8444" x2="101.125" y2="144.476" gradientUnits="userSpaceOnUse">
<stop stop-color="white"/>
<stop offset="1" stop-color="white" stop-opacity="0"/>
</linearGradient>
<linearGradient id="paint6_linear" x1="5.91568" y1="128.224" x2="43.3324" y2="125.512" gradientUnits="userSpaceOnUse">
<stop stop-color="white"/>
<stop offset="1" stop-color="white" stop-opacity="0"/>
</linearGradient>
<clipPath id="clip0">
<rect width="150" height="150" fill="white"/>
</clipPath>
</defs>
</svg>
