<svg width="150" height="150" viewBox="0 0 150 150" fill="none" xmlns="http://www.w3.org/2000/svg">
<path d="M140.852 133.735C139.594 133.735 132.986 133.21 129.839 132.948L130.888 139.504C133.335 139.678 138.859 139.923 141.377 139.504C144.523 138.979 142.425 133.735 140.852 133.735Z" fill="#212226"/>
<path d="M140.852 133.735C139.594 133.735 132.986 133.21 129.839 132.948L130.888 139.504C133.335 139.678 138.859 139.923 141.377 139.504C144.523 138.979 142.425 133.735 140.852 133.735Z" fill="url(#paint0_linear)"/>
<path d="M16.2993 117.74C14.2016 117.95 8.60763 120.625 6.07288 121.936C8.95726 128.404 16.142 140.868 21.8059 138.98C28.8857 136.62 26.5257 132.687 27.8368 129.54C29.1479 126.393 28.6235 124.82 26.0013 119.576C24.7548 117.083 18.9215 117.478 16.2993 117.74Z" fill="#AA6431"/>
<path d="M16.2993 117.74C14.2016 117.95 8.60763 120.625 6.07288 121.936C8.95726 128.404 16.142 140.868 21.8059 138.98C28.8857 136.62 26.5257 132.687 27.8368 129.54C29.1479 126.393 28.6235 124.82 26.0013 119.576C24.7548 117.083 18.9215 117.478 16.2993 117.74Z" fill="url(#paint1_linear)"/>
<path d="M23.117 139.767C20.8095 139.767 11.8417 126.831 7.64623 120.363C-1.79356 120.363 -1.00691 139.767 2.13968 143.438C5.28628 147.109 26.0014 139.767 23.117 139.767Z" fill="#212226"/>
<path d="M23.117 139.767C20.8095 139.767 11.8417 126.831 7.64623 120.363C-1.79356 120.363 -1.00691 139.767 2.13968 143.438C5.28628 147.109 26.0014 139.767 23.117 139.767Z" fill="url(#paint2_linear)"/>
<path d="M113.32 143.7C112.9 141.602 114.019 138.28 114.631 136.882L129.577 131.9C130.626 133.561 133.091 137.039 134.559 137.669C136.394 138.455 140.328 139.766 147.145 139.766C152.599 139.766 148.981 147.108 146.621 147.108H118.302C117.777 147.108 113.844 146.322 113.32 143.7Z" fill="#212226"/>
<path d="M113.32 143.7C112.9 141.602 114.019 138.28 114.631 136.882L129.577 131.9C130.626 133.561 133.091 137.039 134.559 137.669C136.394 138.455 140.328 139.766 147.145 139.766C152.599 139.766 148.981 147.108 146.621 147.108H118.302C117.777 147.108 113.844 146.322 113.32 143.7Z" fill="url(#paint3_linear)"/>
<path d="M45.4054 119.313C42.8881 119.942 35.4412 123.771 32.0323 125.606C38.9374 131.812 53.639 144.433 57.2051 145.272C61.6628 146.321 93.391 146.584 93.6532 145.272C93.9154 143.961 80.5424 117.478 78.7068 117.74C76.8713 118.002 59.8273 118.264 57.2051 118.526C54.583 118.789 48.552 118.526 45.4054 119.313Z" fill="#8B99A6"/>
<path d="M45.4054 119.313C42.8881 119.942 35.4412 123.771 32.0323 125.606C38.9374 131.812 53.639 144.433 57.2051 145.272C61.6628 146.321 93.391 146.584 93.6532 145.272C93.9154 143.961 80.5424 117.478 78.7068 117.74C76.8713 118.002 59.8273 118.264 57.2051 118.526C54.583 118.789 48.552 118.526 45.4054 119.313Z" fill="url(#paint4_linear)"/>
<path d="M79.2312 114.856C77.7628 116.534 77.5705 118.352 77.6579 119.051C81.4164 127.704 89.8249 145.063 93.391 145.273C97.8487 145.535 100.471 138.717 101.52 137.406C102.569 136.095 106.764 122.984 108.337 120.624C109.911 118.264 109.648 119.051 110.96 120.362C112.271 121.673 111.746 138.979 116.204 139.504C120.662 140.028 134.297 131.637 134.297 130.064C134.297 128.491 118.826 95.1893 117.253 92.5671C115.679 89.945 113.319 85.7495 107.813 86.0117C102.306 86.2739 94.4399 96.5004 92.08 99.9092C89.72 103.318 81.0667 112.758 79.2312 114.856Z" fill="#31374B"/>
<path d="M79.2312 114.856C77.7628 116.534 77.5705 118.352 77.6579 119.051C81.4164 127.704 89.8249 145.063 93.391 145.273C97.8487 145.535 100.471 138.717 101.52 137.406C102.569 136.095 106.764 122.984 108.337 120.624C109.911 118.264 109.648 119.051 110.96 120.362C112.271 121.673 111.746 138.979 116.204 139.504C120.662 140.028 134.297 131.637 134.297 130.064C134.297 128.491 118.826 95.1893 117.253 92.5671C115.679 89.945 113.319 85.7495 107.813 86.0117C102.306 86.2739 94.4399 96.5004 92.08 99.9092C89.72 103.318 81.0667 112.758 79.2312 114.856Z" fill="url(#paint5_linear)"/>
<path d="M28.0992 125.344C28.7286 123.666 34.473 124.292 38.3257 125.344C44.5617 127.047 49.0763 136.095 50.9119 136.095C52.7474 136.095 58.7784 128.491 60.3517 127.18C61.9249 125.869 61.6627 122.46 61.6627 119.838C61.6627 117.216 61.9249 112.233 65.0715 112.233C68.2181 112.233 73.7247 116.953 73.9869 118.527C74.2491 120.1 72.4136 118.789 71.8892 120.624C71.3647 122.46 69.0048 122.722 69.267 124.295C69.5292 125.869 64.8093 141.077 62.4494 144.748C60.0894 148.419 60.8761 149.206 57.2051 149.73C53.534 150.255 40.9476 148.157 37.5388 146.584C34.13 145.01 28.0992 140.815 26.5259 137.931C24.9526 135.046 27.3126 127.442 28.0992 125.344Z" fill="#AA6431"/>
<path d="M28.0992 125.344C28.7286 123.666 34.473 124.292 38.3257 125.344C44.5617 127.047 49.0763 136.095 50.9119 136.095C52.7474 136.095 58.7784 128.491 60.3517 127.18C61.9249 125.869 61.6627 122.46 61.6627 119.838C61.6627 117.216 61.9249 112.233 65.0715 112.233C68.2181 112.233 73.7247 116.953 73.9869 118.527C74.2491 120.1 72.4136 118.789 71.8892 120.624C71.3647 122.46 69.0048 122.722 69.267 124.295C69.5292 125.869 64.8093 141.077 62.4494 144.748C60.0894 148.419 60.8761 149.206 57.2051 149.73C53.534 150.255 40.9476 148.157 37.5388 146.584C34.13 145.01 28.0992 140.815 26.5259 137.931C24.9526 135.046 27.3126 127.442 28.0992 125.344Z" fill="url(#paint6_linear)"/>
<defs>
<linearGradient id="paint0_linear" x1="112.012" y1="133.918" x2="129.093" y2="148.002" gradientUnits="userSpaceOnUse">
<stop stop-color="white"/>
<stop offset="1" stop-color="white" stop-opacity="0"/>
</linearGradient>
<linearGradient id="paint1_linear" x1="-8.71267" y1="129.458" x2="16.0161" y2="126.762" gradientUnits="userSpaceOnUse">
<stop stop-color="white"/>
<stop offset="1" stop-color="white" stop-opacity="0"/>
</linearGradient>
<linearGradient id="paint2_linear" x1="-31.6653" y1="123.806" x2="11.8944" y2="141.77" gradientUnits="userSpaceOnUse">
<stop stop-color="white"/>
<stop offset="1" stop-color="white" stop-opacity="0"/>
</linearGradient>
<linearGradient id="paint3_linear" x1="63.4492" y1="134.073" x2="102.427" y2="174.119" gradientUnits="userSpaceOnUse">
<stop stop-color="white"/>
<stop offset="1" stop-color="white" stop-opacity="0"/>
</linearGradient>
<linearGradient id="paint4_linear" x1="6.25675" y1="135.469" x2="49.3967" y2="121.701" gradientUnits="userSpaceOnUse">
<stop stop-color="white"/>
<stop offset="1" stop-color="white" stop-opacity="0"/>
</linearGradient>
<linearGradient id="paint5_linear" x1="0.943973" y1="94.4686" x2="106.914" y2="137.506" gradientUnits="userSpaceOnUse">
<stop stop-color="white"/>
<stop offset="1" stop-color="white" stop-opacity="0"/>
</linearGradient>
<linearGradient id="paint6_linear" x1="-5.61961" y1="132.933" x2="46.9411" y2="125.882" gradientUnits="userSpaceOnUse">
<stop stop-color="white"/>
<stop offset="1" stop-color="white" stop-opacity="0"/>
</linearGradient>
</defs>
</svg>
