<svg width="150" height="150" viewBox="0 0 150 150" fill="none" xmlns="http://www.w3.org/2000/svg">
<path d="M136.989 125.064C136.252 126.046 131.342 128.01 130.851 128.255L133.306 131.692L142.144 127.273C142.472 126.291 143.126 124.18 143.126 123.591V119.417C143.126 118.19 142.144 117.944 141.408 117.944C140.671 117.944 137.725 119.417 137.48 120.645C137.234 121.872 137.725 124.082 136.989 125.064Z" fill="#212226"/>
<path d="M136.989 125.064C136.252 126.046 131.342 128.01 130.851 128.255L133.306 131.692L142.144 127.273C142.472 126.291 143.126 124.18 143.126 123.591V119.417C143.126 118.19 142.144 117.944 141.408 117.944C140.671 117.944 137.725 119.417 137.48 120.645C137.234 121.872 137.725 124.082 136.989 125.064Z" fill="url(#paint0_linear)"/>
<path d="M17.1849 74C15.6137 74 11.7839 74.982 10.0654 75.473C10.9656 79.9738 13.2569 89.4665 15.2209 91.4305C17.6759 93.8854 18.9034 94.1309 21.1129 93.6399C23.3224 93.1489 24.7954 91.676 26.5139 90.694C28.2324 89.712 29.9509 89.4665 29.2144 87.5025C28.4779 85.5385 25.7774 84.311 24.7954 83.329C25.1227 81.856 25.581 78.7136 24.7954 77.928C23.8134 76.946 19.1489 74 17.1849 74Z" fill="#AA6431"/>
<path d="M17.1849 74C15.6137 74 11.7839 74.982 10.0654 75.473C10.9656 79.9738 13.2569 89.4665 15.2209 91.4305C17.6759 93.8854 18.9034 94.1309 21.1129 93.6399C23.3224 93.1489 24.7954 91.676 26.5139 90.694C28.2324 89.712 29.9509 89.4665 29.2144 87.5025C28.4779 85.5385 25.7774 84.311 24.7954 83.329C25.1227 81.856 25.581 78.7136 24.7954 77.928C23.8134 76.946 19.1489 74 17.1849 74Z" fill="url(#paint1_linear)"/>
<path d="M0 89.7116C-4.07087e-05 75.9635 9.81997 73.9996 10.5565 74.2451C10.5565 74.7361 19.6399 92.9031 18.4124 94.1306C17.1849 95.3581 4.66453 96.34 0 89.7116Z" fill="#212226"/>
<path d="M0 89.7116C-4.07087e-05 75.9635 9.81997 73.9996 10.5565 74.2451C10.5565 74.7361 19.6399 92.9031 18.4124 94.1306C17.1849 95.3581 4.66453 96.34 0 89.7116Z" fill="url(#paint2_linear)"/>
<path d="M37.5612 117.208C36.972 114.852 37.8067 111.971 38.2977 110.825L32.4059 109.107V138.812C33.0605 139.713 34.7627 141.513 36.3339 141.513C38.2979 141.513 47.1358 141.758 49.3453 141.513C51.5548 141.267 50.0818 139.794 48.3633 138.812C46.6448 137.83 39.2799 138.812 38.2977 137.585C37.3155 136.357 37.5612 132.675 37.5612 129.729C37.5612 126.783 38.2977 120.154 37.5612 117.208Z" fill="#AA6431"/>
<path d="M37.5612 117.208C36.972 114.852 37.8067 111.971 38.2977 110.825L32.4059 109.107V138.812C33.0605 139.713 34.7627 141.513 36.3339 141.513C38.2979 141.513 47.1358 141.758 49.3453 141.513C51.5548 141.267 50.0818 139.794 48.3633 138.812C46.6448 137.83 39.2799 138.812 38.2977 137.585C37.3155 136.357 37.5612 132.675 37.5612 129.729C37.5612 126.783 38.2977 120.154 37.5612 117.208Z" fill="url(#paint3_linear)"/>
<path d="M76.5958 98.0586C75.4174 97.8622 72.8314 98.6315 71.6858 99.0406L58.9198 116.471C59.4926 117.862 60.8347 120.841 61.6203 121.627C62.6023 122.609 63.3388 121.627 69.4763 121.627C75.6138 121.627 76.5958 121.381 78.0687 121.627C79.5417 121.872 86.1702 125.8 88.8707 126.046C91.5712 126.291 96.2357 129.483 100.9 130.465C105.565 131.447 117.349 138.812 122.995 141.021C128.642 143.23 135.27 145.194 136.743 144.212C138.216 143.23 136.252 129.237 133.552 128.746C130.851 128.255 125.941 126.046 120.786 124.082C115.63 122.118 108.756 114.753 105.074 112.789C101.391 110.825 90.0982 104.196 86.1702 102.723C82.2422 101.25 78.0687 98.3041 76.5958 98.0586Z" fill="#31374B"/>
<path d="M76.5958 98.0586C75.4174 97.8622 72.8314 98.6315 71.6858 99.0406L58.9198 116.471C59.4926 117.862 60.8347 120.841 61.6203 121.627C62.6023 122.609 63.3388 121.627 69.4763 121.627C75.6138 121.627 76.5958 121.381 78.0687 121.627C79.5417 121.872 86.1702 125.8 88.8707 126.046C91.5712 126.291 96.2357 129.483 100.9 130.465C105.565 131.447 117.349 138.812 122.995 141.021C128.642 143.23 135.27 145.194 136.743 144.212C138.216 143.23 136.252 129.237 133.552 128.746C130.851 128.255 125.941 126.046 120.786 124.082C115.63 122.118 108.756 114.753 105.074 112.789C101.391 110.825 90.0982 104.196 86.1702 102.723C82.2422 101.25 78.0687 98.3041 76.5958 98.0586Z" fill="url(#paint4_linear)"/>
<path d="M43.6989 89.4662C42.1277 89.0734 33.388 87.9932 29.2145 87.5022C30.2783 95.7673 32.6024 112.298 33.388 112.298C34.37 112.298 53.2734 115.489 55.2374 116.471C57.2014 117.453 59.6564 120.645 60.1474 119.663C60.6384 118.681 66.0394 108.861 67.0214 106.897C68.0034 104.933 73.8954 99.2862 72.9134 99.0407C71.9314 98.7952 61.1294 94.1307 58.4289 93.3942C55.7284 92.6577 45.6629 89.9572 43.6989 89.4662Z" fill="#8B99A6"/>
<path d="M43.6989 89.4662C42.1277 89.0734 33.388 87.9932 29.2145 87.5022C30.2783 95.7673 32.6024 112.298 33.388 112.298C34.37 112.298 53.2734 115.489 55.2374 116.471C57.2014 117.453 59.6564 120.645 60.1474 119.663C60.6384 118.681 66.0394 108.861 67.0214 106.897C68.0034 104.933 73.8954 99.2862 72.9134 99.0407C71.9314 98.7952 61.1294 94.1307 58.4289 93.3942C55.7284 92.6577 45.6629 89.9572 43.6989 89.4662Z" fill="url(#paint5_linear)"/>
<path d="M23.0767 91.1852C21.8492 92.9037 20.6217 95.6042 20.1307 96.8317C20.4581 97.9773 21.0636 101.005 20.8672 103.951C20.6217 107.634 25.5317 116.717 26.5137 118.927C27.4957 121.136 26.5137 135.13 26.5137 139.058C26.5137 142.926 28.8951 145.604 30.8434 147.795L30.9327 147.896C32.8967 150.105 43.6987 149.614 47.8722 149.614C52.0457 149.614 50.0817 147.896 48.8542 146.423C47.6267 144.95 36.8247 142.986 35.8427 142.495C34.8607 142.004 35.8427 141.022 35.1062 138.321C34.3697 135.621 34.3697 120.645 34.3697 117.454C34.3697 114.262 34.6152 106.161 35.8427 104.688C37.0702 103.215 36.8247 101.987 38.0522 98.7957C39.2797 95.6042 37.5612 93.1492 36.8247 91.1852C36.0882 89.2212 31.6692 89.2212 28.9687 88.7302C26.2682 88.2392 24.3042 89.4667 23.0767 91.1852Z" fill="#AA6431"/>
<path d="M23.0767 91.1852C21.8492 92.9037 20.6217 95.6042 20.1307 96.8317C20.4581 97.9773 21.0636 101.005 20.8672 103.951C20.6217 107.634 25.5317 116.717 26.5137 118.927C27.4957 121.136 26.5137 135.13 26.5137 139.058C26.5137 142.926 28.8951 145.604 30.8434 147.795L30.9327 147.896C32.8967 150.105 43.6987 149.614 47.8722 149.614C52.0457 149.614 50.0817 147.896 48.8542 146.423C47.6267 144.95 36.8247 142.986 35.8427 142.495C34.8607 142.004 35.8427 141.022 35.1062 138.321C34.3697 135.621 34.3697 120.645 34.3697 117.454C34.3697 114.262 34.6152 106.161 35.8427 104.688C37.0702 103.215 36.8247 101.987 38.0522 98.7957C39.2797 95.6042 37.5612 93.1492 36.8247 91.1852C36.0882 89.2212 31.6692 89.2212 28.9687 88.7302C26.2682 88.2392 24.3042 89.4667 23.0767 91.1852Z" fill="url(#paint6_linear)"/>
<path d="M137.48 128.01C135.908 129.189 134.206 129.647 133.552 129.729C133.633 133.902 133.944 142.495 134.534 143.477C135.27 144.704 135.516 144.704 138.462 143.722C141.407 142.74 140.425 141.267 141.653 139.794C142.88 138.321 147.054 133.166 147.79 132.184C148.527 131.202 150 124.819 150 123.591C150 122.364 148.281 120.4 147.299 120.154C146.317 119.909 145.335 121.136 144.108 122.118C142.88 123.1 139.443 126.537 137.48 128.01Z" fill="#212226"/>
<path d="M137.48 128.01C135.908 129.189 134.206 129.647 133.552 129.729C133.633 133.902 133.944 142.495 134.534 143.477C135.27 144.704 135.516 144.704 138.462 143.722C141.407 142.74 140.425 141.267 141.653 139.794C142.88 138.321 147.054 133.166 147.79 132.184C148.527 131.202 150 124.819 150 123.591C150 122.364 148.281 120.4 147.299 120.154C146.317 119.909 145.335 121.136 144.108 122.118C142.88 123.1 139.443 126.537 137.48 128.01Z" fill="url(#paint7_linear)"/>
<defs>
<linearGradient id="paint0_linear" x1="114.235" y1="119.908" x2="137.615" y2="128.779" gradientUnits="userSpaceOnUse">
<stop stop-color="white"/>
<stop offset="1" stop-color="white" stop-opacity="0"/>
</linearGradient>
<linearGradient id="paint1_linear" x1="-2.65865" y1="84.9324" x2="18.6525" y2="82.7542" gradientUnits="userSpaceOnUse">
<stop stop-color="white"/>
<stop offset="1" stop-color="white" stop-opacity="0"/>
</linearGradient>
<linearGradient id="paint2_linear" x1="-25.0794" y1="77.1966" x2="10.227" y2="90.5638" gradientUnits="userSpaceOnUse">
<stop stop-color="white"/>
<stop offset="1" stop-color="white" stop-opacity="0"/>
</linearGradient>
<linearGradient id="paint3_linear" x1="20.5179" y1="127.017" x2="40.5686" y2="125.848" gradientUnits="userSpaceOnUse">
<stop stop-color="white"/>
<stop offset="1" stop-color="white" stop-opacity="0"/>
</linearGradient>
<linearGradient id="paint4_linear" x1="-47.1121" y1="104.662" x2="65.6465" y2="185.469" gradientUnits="userSpaceOnUse">
<stop stop-color="white"/>
<stop offset="1" stop-color="white" stop-opacity="0"/>
</linearGradient>
<linearGradient id="paint5_linear" x1="10.8907" y1="107.681" x2="43.3907" y2="101.202" gradientUnits="userSpaceOnUse">
<stop stop-color="white"/>
<stop offset="1" stop-color="white" stop-opacity="0"/>
</linearGradient>
<linearGradient id="paint6_linear" x1="0.196619" y1="122.243" x2="33.8412" y2="120.491" gradientUnits="userSpaceOnUse">
<stop stop-color="white"/>
<stop offset="1" stop-color="white" stop-opacity="0"/>
</linearGradient>
<linearGradient id="paint7_linear" x1="111.285" y1="123.595" x2="144.388" y2="133.113" gradientUnits="userSpaceOnUse">
<stop stop-color="white"/>
<stop offset="1" stop-color="white" stop-opacity="0"/>
</linearGradient>
</defs>
</svg>
