<svg width="150" height="150" viewBox="0 0 150 150" fill="none" xmlns="http://www.w3.org/2000/svg">
<path d="M137.265 100.871C139.046 100.277 140.727 102.107 141.345 103.096L139.491 126.093C133.062 126.587 120.797 127.28 123.171 126.093C126.138 124.609 132.443 117.933 133.185 115.707C133.927 113.482 133.185 107.176 133.185 105.322C133.185 103.467 135.04 101.613 137.265 100.871Z" fill="#212226"/>
<path d="M137.265 100.871C139.046 100.277 140.727 102.107 141.345 103.096L139.491 126.093C133.062 126.587 120.797 127.28 123.171 126.093C126.138 124.609 132.443 117.933 133.185 115.707C133.927 113.482 133.185 107.176 133.185 105.322C133.185 103.467 135.04 101.613 137.265 100.871Z" fill="url(#paint0_linear)"/>
<path d="M38.6035 40.4119C38.9003 34.1807 36.5017 28.4192 35.2653 26.3174L11.1562 36.7028V54.8774C11.1562 63.4083 22.2835 71.9392 25.6217 59.6992C28.9599 47.4592 30.8144 54.5065 35.2653 51.9101C39.7163 49.3137 38.2326 48.201 38.6035 40.4119Z" fill="#AA6431"/>
<path d="M38.6035 40.4119C38.9003 34.1807 36.5017 28.4192 35.2653 26.3174L11.1562 36.7028V54.8774C11.1562 63.4083 22.2835 71.9392 25.6217 59.6992C28.9599 47.4592 30.8144 54.5065 35.2653 51.9101C39.7163 49.3137 38.2326 48.201 38.6035 40.4119Z" fill="url(#paint1_linear)"/>
<path d="M36.0069 28.1722C32.6688 30.7686 16.3488 43.0086 11.8978 45.2341C8.18875 45.2341 -1.82579 17.045 11.8978 15.1904C25.6215 13.3359 39.3451 25.5759 36.0069 28.1722Z" fill="#212226"/>
<path d="M36.0069 28.1722C32.6688 30.7686 16.3488 43.0086 11.8978 45.2341C8.18875 45.2341 -1.82579 17.045 11.8978 15.1904C25.6215 13.3359 39.3451 25.5759 36.0069 28.1722Z" fill="url(#paint2_linear)"/>
<path d="M55.6655 116.82C49.7309 115.93 41.0764 112.246 37.4909 110.515C31.5564 113.111 18.5746 119.12 14.1236 122.384C8.56001 126.464 10.4146 140.188 12.2691 142.042C14.1236 143.897 35.6364 146.122 36.7491 146.122H69.76C74.5818 146.122 122.8 145.38 127.622 144.639C132.444 143.897 138.378 145.009 138.378 142.784C138.378 140.559 135.04 127.206 133.556 124.609C132.073 122.013 129.847 123.868 127.622 124.609C125.396 125.351 108.705 123.497 101.287 123.868C93.8691 124.239 87.5637 120.9 84.2255 120.159C80.8873 119.417 63.0836 117.933 55.6655 116.82Z" fill="#31374B"/>
<path d="M55.6655 116.82C49.7309 115.93 41.0764 112.246 37.4909 110.515C31.5564 113.111 18.5746 119.12 14.1236 122.384C8.56001 126.464 10.4146 140.188 12.2691 142.042C14.1236 143.897 35.6364 146.122 36.7491 146.122H69.76C74.5818 146.122 122.8 145.38 127.622 144.639C132.444 143.897 138.378 145.009 138.378 142.784C138.378 140.559 135.04 127.206 133.556 124.609C132.073 122.013 129.847 123.868 127.622 124.609C125.396 125.351 108.705 123.497 101.287 123.868C93.8691 124.239 87.5637 120.9 84.2255 120.159C80.8873 119.417 63.0836 117.933 55.6655 116.82Z" fill="url(#paint3_linear)"/>
<path d="M10.0438 52.652C12.2692 51.5393 15.2365 51.9102 17.091 52.652C17.8331 52.91 24.1381 55.2484 26.7344 58.5866C29.3308 61.9248 35.2653 70.4557 36.749 73.7939C38.2326 77.132 37.8617 91.5975 37.8617 93.823C37.8617 96.0484 39.7163 110.514 37.8617 110.885C36.0072 111.256 21.5417 124.979 19.6872 127.576C17.8326 130.172 11.8981 135.736 8.18898 135.365C4.47989 134.994 3.73807 133.139 2.62534 130.172C1.51261 127.205 0.400116 119.045 0.400116 113.481C0.400116 107.918 1.51284 87.1466 0.400116 83.0666C-0.712611 78.9866 0.771025 69.343 1.51284 65.6339C2.25466 61.9248 7.8183 53.7647 10.0438 52.652Z" fill="#8B99A6"/>
<path d="M10.0438 52.652C12.2692 51.5393 15.2365 51.9102 17.091 52.652C17.8331 52.91 24.1381 55.2484 26.7344 58.5866C29.3308 61.9248 35.2653 70.4557 36.749 73.7939C38.2326 77.132 37.8617 91.5975 37.8617 93.823C37.8617 96.0484 39.7163 110.514 37.8617 110.885C36.0072 111.256 21.5417 124.979 19.6872 127.576C17.8326 130.172 11.8981 135.736 8.18898 135.365C4.47989 134.994 3.73807 133.139 2.62534 130.172C1.51261 127.205 0.400116 119.045 0.400116 113.481C0.400116 107.918 1.51284 87.1466 0.400116 83.0666C-0.712611 78.9866 0.771025 69.343 1.51284 65.6339C2.25466 61.9248 7.8183 53.7647 10.0438 52.652Z" fill="url(#paint4_linear)"/>
<path d="M146.538 142.783C143.2 143.154 137.636 142.041 135.411 140.186C134.174 137.343 131.776 131.507 132.073 130.914L132.073 130.913C132.444 130.171 134.669 125.72 135.411 122.012C136.153 118.303 135.411 107.917 134.669 105.692C133.927 103.466 140.233 100.499 142.829 101.983C145.425 103.466 148.393 109.03 149.505 112.368C150.618 115.706 149.505 137.961 149.505 139.445C149.505 140.928 149.876 142.412 146.538 142.783Z" fill="#212226"/>
<path d="M146.538 142.783C143.2 143.154 137.636 142.041 135.411 140.186C134.174 137.343 131.776 131.507 132.073 130.914L132.073 130.913C132.444 130.171 134.669 125.72 135.411 122.012C136.153 118.303 135.411 107.917 134.669 105.692C133.927 103.466 140.233 100.499 142.829 101.983C145.425 103.466 148.393 109.03 149.505 112.368C150.618 115.706 149.505 137.961 149.505 139.445C149.505 140.928 149.876 142.412 146.538 142.783Z" fill="url(#paint5_linear)"/>
<path d="M12.6396 54.1358C13.8265 53.2456 17.5851 54.5067 19.316 55.2485C21.9121 56.1717 25.6217 60.4411 27.4763 63.0375C29.3308 65.6338 30.8144 71.5684 30.8144 73.052C30.8144 74.5357 29.7017 76.7611 28.2181 78.9866C26.7344 81.212 25.9926 78.9866 24.509 80.4702C23.0253 81.9539 24.509 87.5175 24.509 91.2266C24.509 94.9357 21.9126 111.627 21.1708 115.336C20.429 119.045 14.8653 137.59 15.6072 139.816C16.349 142.041 18.9453 141.67 21.1708 141.67C23.3963 141.67 33.7817 144.267 37.1199 144.267C40.4581 144.267 40.0872 149.459 37.1199 149.459C34.1526 149.459 18.2035 150.572 12.6399 148.347C7.07626 146.121 9.30171 146.492 7.44716 141.67C5.59262 136.848 6.33444 132.397 5.96353 127.576C5.59262 122.754 7.44716 114.223 7.44716 108.659C7.44716 103.096 8.18898 99.3866 7.44716 92.3393C6.70535 85.292 6.33418 84.9211 5.22171 83.4375C4.10924 81.9539 2.25435 82.3248 1.51236 80.4702C0.770382 78.6157 1.88327 75.2775 1.51236 71.5684C1.14146 67.8593 4.85055 64.1502 6.33418 61.1829C7.81782 58.2157 11.156 55.2485 12.6396 54.1358Z" fill="#AA6431"/>
<path d="M12.6396 54.1358C13.8265 53.2456 17.5851 54.5067 19.316 55.2485C21.9121 56.1717 25.6217 60.4411 27.4763 63.0375C29.3308 65.6338 30.8144 71.5684 30.8144 73.052C30.8144 74.5357 29.7017 76.7611 28.2181 78.9866C26.7344 81.212 25.9926 78.9866 24.509 80.4702C23.0253 81.9539 24.509 87.5175 24.509 91.2266C24.509 94.9357 21.9126 111.627 21.1708 115.336C20.429 119.045 14.8653 137.59 15.6072 139.816C16.349 142.041 18.9453 141.67 21.1708 141.67C23.3963 141.67 33.7817 144.267 37.1199 144.267C40.4581 144.267 40.0872 149.459 37.1199 149.459C34.1526 149.459 18.2035 150.572 12.6399 148.347C7.07626 146.121 9.30171 146.492 7.44716 141.67C5.59262 136.848 6.33444 132.397 5.96353 127.576C5.59262 122.754 7.44716 114.223 7.44716 108.659C7.44716 103.096 8.18898 99.3866 7.44716 92.3393C6.70535 85.292 6.33418 84.9211 5.22171 83.4375C4.10924 81.9539 2.25435 82.3248 1.51236 80.4702C0.770382 78.6157 1.88327 75.2775 1.51236 71.5684C1.14146 67.8593 4.85055 64.1502 6.33418 61.1829C7.81782 58.2157 11.156 55.2485 12.6396 54.1358Z" fill="url(#paint6_linear)"/>
<defs>
<linearGradient id="paint0_linear" x1="97.8601" y1="104.468" x2="134.75" y2="115.61" gradientUnits="userSpaceOnUse">
<stop stop-color="white"/>
<stop offset="1" stop-color="white" stop-opacity="0"/>
</linearGradient>
<linearGradient id="paint1_linear" x1="-6.93321" y1="48.0715" x2="23.5184" y2="45.8478" gradientUnits="userSpaceOnUse">
<stop stop-color="white"/>
<stop offset="1" stop-color="white" stop-opacity="0"/>
</linearGradient>
<linearGradient id="paint2_linear" x1="-37.9249" y1="19.3191" x2="19.6163" y2="44.8964" gradientUnits="userSpaceOnUse">
<stop stop-color="white"/>
<stop offset="1" stop-color="white" stop-opacity="0"/>
</linearGradient>
<linearGradient id="paint3_linear" x1="-162.81" y1="115.602" x2="-79.1323" y2="243.387" gradientUnits="userSpaceOnUse">
<stop stop-color="white"/>
<stop offset="1" stop-color="white" stop-opacity="0"/>
</linearGradient>
<linearGradient id="paint4_linear" x1="-16.1811" y1="103.999" x2="13.5208" y2="101.972" gradientUnits="userSpaceOnUse">
<stop stop-color="white"/>
<stop offset="1" stop-color="white" stop-opacity="0"/>
</linearGradient>
<linearGradient id="paint5_linear" x1="107.745" y1="107.479" x2="145.569" y2="114.471" gradientUnits="userSpaceOnUse">
<stop stop-color="white"/>
<stop offset="1" stop-color="white" stop-opacity="0"/>
</linearGradient>
<linearGradient id="paint6_linear" x1="-23.9253" y1="106.657" x2="18.6079" y2="104.877" gradientUnits="userSpaceOnUse">
<stop stop-color="white"/>
<stop offset="1" stop-color="white" stop-opacity="0"/>
</linearGradient>
</defs>
</svg>
