<svg width="150" height="150" viewBox="0 0 150 150" fill="none" xmlns="http://www.w3.org/2000/svg">
<path d="M5.26587 99.1324L11.9074 86.5484L42.3187 84.1016L41.27 91.0927L39.1727 99.1324H5.26587Z" fill="#D47500"/>
<path d="M28.6859 47.0487C31.762 48.1672 40.4542 58.7005 44.4159 63.8273C42.6681 65.109 38.9629 67.6724 38.124 67.6724C37.2851 67.6724 27.0547 61.6134 22.0444 58.584C21.1122 56.7197 19.3178 52.5017 19.5975 50.5442C19.947 48.0973 20.9957 48.4469 22.0444 47.0487C23.093 45.6504 24.8408 45.6504 28.6859 47.0487Z" fill="#AA6431"/>
<path d="M28.6859 47.0487C31.762 48.1672 40.4542 58.7005 44.4159 63.8273C42.6681 65.109 38.9629 67.6724 38.124 67.6724C37.2851 67.6724 27.0547 61.6134 22.0444 58.584C21.1122 56.7197 19.3178 52.5017 19.5975 50.5442C19.947 48.0973 20.9957 48.4469 22.0444 47.0487C23.093 45.6504 24.8408 45.6504 28.6859 47.0487Z" fill="url(#paint0_linear)"/>
<path d="M115.725 93.1896C115.725 94.5879 108.501 110.318 104.889 118.008C106.007 121.084 113.977 123.717 117.822 124.65L127.96 118.008L133.203 89.6941H110.482C112.23 90.2767 115.725 91.7914 115.725 93.1896Z" fill="#31374B"/>
<path d="M115.725 93.1896C115.725 94.5879 108.501 110.318 104.889 118.008C106.007 121.084 113.977 123.717 117.822 124.65L127.96 118.008L133.203 89.6941H110.482C112.23 90.2767 115.725 91.7914 115.725 93.1896Z" fill="url(#paint1_linear)"/>
<path d="M100.694 127.446C100.694 123.811 104.19 120.105 105.937 118.707L121.667 121.853L115.026 130.941H108.734C106.054 131.291 100.694 131.081 100.694 127.446Z" fill="#212226"/>
<path d="M100.694 127.446C100.694 123.811 104.19 120.105 105.937 118.707L121.667 121.853L115.026 130.941H108.734C106.054 131.291 100.694 131.081 100.694 127.446Z" fill="url(#paint2_linear)"/>
<path d="M9.46033 147.37V106.822H15.0532V147.37H9.46033Z" fill="#ECF1F4"/>
<path d="M104.889 142.478C104.889 140.24 109.783 134.321 112.23 131.641L126.561 135.137C129.358 136.652 135.859 139.961 139.495 141.079C144.039 142.478 145.088 149.469 141.243 149.818C137.397 150.168 104.889 145.274 104.889 142.478Z" fill="#212226"/>
<path d="M104.889 142.478C104.889 140.24 109.783 134.321 112.23 131.641L126.561 135.137C129.358 136.652 135.859 139.961 139.495 141.079C144.039 142.478 145.088 149.469 141.243 149.818C137.397 150.168 104.889 145.274 104.889 142.478Z" fill="url(#paint3_linear)"/>
<path d="M31.1331 147.37V106.822H36.7259V147.37H31.1331Z" fill="#ECF1F4"/>
<path d="M22.0447 113.114V105.424H26.9384V113.114H22.0447Z" fill="#ECF1F4"/>
<path d="M4.56642 65.9251C6.24429 63.4083 12.7227 60.9148 15.7522 59.9827C16.4514 68.7215 17.2905 86.2692 15.0534 86.5488C12.2569 86.8984 9.80974 87.947 6.66375 86.1993C3.51776 84.4515 -0.32734 82.0046 0.0222147 78.8586C0.371769 75.7126 2.4691 69.0711 4.56642 65.9251Z" fill="#212226"/>
<path d="M4.56642 65.9251C6.24429 63.4083 12.7227 60.9148 15.7522 59.9827C16.4514 68.7215 17.2905 86.2692 15.0534 86.5488C12.2569 86.8984 9.80974 87.947 6.66375 86.1993C3.51776 84.4515 -0.32734 82.0046 0.0222147 78.8586C0.371769 75.7126 2.4691 69.0711 4.56642 65.9251Z" fill="url(#paint4_linear)"/>
<path d="M31.1325 87.2471C29.175 85.5693 24.724 84.9168 22.7432 84.8003C25.5396 84.4507 31.6918 84.1012 33.9292 85.4994C36.7258 87.2471 32.8805 87.2471 41.6194 88.9949C50.3582 90.7427 54.2033 86.1985 55.252 83.7516C56.3007 81.3047 55.9092 77.3186 53.1547 74.3136C49.3096 70.119 42.3185 71.5172 41.6194 70.8181C40.9203 70.119 40.5707 69.7694 38.1238 66.6234C35.6769 63.4774 33.2301 58.9332 31.1325 56.1368C29.0349 53.3404 18.5485 48.4466 16.1016 50.8935C13.6548 53.3404 11.5574 75.0127 12.2565 79.5569C12.9557 84.1012 12.2565 88.9949 16.1016 91.0922C19.9467 93.1896 22.7432 93.5391 27.6369 93.5391C32.5307 93.5391 39.8714 93.1896 36.3758 91.0922C32.8803 88.9949 33.5794 89.3445 31.1325 87.2471Z" fill="#AA6431"/>
<path d="M31.1325 87.2471C29.175 85.5693 24.724 84.9168 22.7432 84.8003C25.5396 84.4507 31.6918 84.1012 33.9292 85.4994C36.7258 87.2471 32.8805 87.2471 41.6194 88.9949C50.3582 90.7427 54.2033 86.1985 55.252 83.7516C56.3007 81.3047 55.9092 77.3186 53.1547 74.3136C49.3096 70.119 42.3185 71.5172 41.6194 70.8181C40.9203 70.119 40.5707 69.7694 38.1238 66.6234C35.6769 63.4774 33.2301 58.9332 31.1325 56.1368C29.0349 53.3404 18.5485 48.4466 16.1016 50.8935C13.6548 53.3404 11.5574 75.0127 12.2565 79.5569C12.9557 84.1012 12.2565 88.9949 16.1016 91.0922C19.9467 93.1896 22.7432 93.5391 27.6369 93.5391C32.5307 93.5391 39.8714 93.1896 36.3758 91.0922C32.8803 88.9949 33.5794 89.3445 31.1325 87.2471Z" fill="url(#paint5_linear)"/>
<path d="M5.26587 106.823V99.1326H39.5222V106.823H5.26587Z" fill="#D47500"/>
<path d="M41.6195 113.114V98.4331H38.4735V113.114H41.6195Z" fill="#ECF1F4"/>
<path d="M40.9204 92.8403L38.4735 98.7828V107.522L43.3673 92.8403H40.9204Z" fill="#D47500"/>
<path d="M38.4733 70.8181L34.3925 64.6969C34.3125 64.6495 34.2786 64.5889 34.2786 64.5261L34.3925 64.6969C34.7573 64.9129 36.0813 64.8537 39.5219 63.4774C44.7653 61.3801 60.1457 54.0395 64.3403 53.6899C68.535 53.3404 91.6056 56.1368 95.1011 56.1368C98.5967 56.1368 103.49 56.8359 103.84 58.5836C104.12 59.9819 104.772 78.2752 101.743 87.9462C101.51 89.461 93.2834 92.9798 88.8091 89.3444C83.2163 84.8002 80.0703 82.3534 76.5747 83.7516C73.0792 85.1498 59.4466 89.694 53.8537 92.1409C48.2608 94.5878 42.6679 94.9373 38.4733 92.1409C34.2786 89.3444 30.7831 88.6453 32.5308 86.1985C34.2786 83.7516 38.823 89.3444 43.3672 89.3444C47.9114 89.3444 51.7562 88.6453 53.8537 86.1985C55.9512 83.7516 55.9508 78.5083 53.8537 75.3623C51.7565 72.2163 46.1637 70.8181 40.9203 70.8181H38.4733Z" fill="#8B99A6"/>
<path d="M38.4733 70.8181L34.3925 64.6969C34.3125 64.6495 34.2786 64.5889 34.2786 64.5261L34.3925 64.6969C34.7573 64.9129 36.0813 64.8537 39.5219 63.4774C44.7653 61.3801 60.1457 54.0395 64.3403 53.6899C68.535 53.3404 91.6056 56.1368 95.1011 56.1368C98.5967 56.1368 103.49 56.8359 103.84 58.5836C104.12 59.9819 104.772 78.2752 101.743 87.9462C101.51 89.461 93.2834 92.9798 88.8091 89.3444C83.2163 84.8002 80.0703 82.3534 76.5747 83.7516C73.0792 85.1498 59.4466 89.694 53.8537 92.1409C48.2608 94.5878 42.6679 94.9373 38.4733 92.1409C34.2786 89.3444 30.7831 88.6453 32.5308 86.1985C34.2786 83.7516 38.823 89.3444 43.3672 89.3444C47.9114 89.3444 51.7562 88.6453 53.8537 86.1985C55.9512 83.7516 55.9508 78.5083 53.8537 75.3623C51.7565 72.2163 46.1637 70.8181 40.9203 70.8181H38.4733Z" fill="url(#paint6_linear)"/>
<path d="M100.345 74.6636C98.3872 79.6972 93.004 87.0145 90.5571 90.044C94.0527 92.8404 107.336 94.2386 110.482 91.4422C113.628 88.6458 128.309 95.6369 128.309 99.1324C128.309 102.628 112.579 128.495 110.482 131.991C108.384 135.486 125.163 139.331 128.309 137.234C131.455 135.137 150.681 100.531 149.981 90.044C149.282 79.5573 97.8978 54.3894 100.345 57.1859C102.792 59.9823 102.792 68.3716 100.345 74.6636Z" fill="#31374B"/>
<path d="M100.345 74.6636C98.3872 79.6972 93.004 87.0145 90.5571 90.044C94.0527 92.8404 107.336 94.2386 110.482 91.4422C113.628 88.6458 128.309 95.6369 128.309 99.1324C128.309 102.628 112.579 128.495 110.482 131.991C108.384 135.486 125.163 139.331 128.309 137.234C131.455 135.137 150.681 100.531 149.981 90.044C149.282 79.5573 97.8978 54.3894 100.345 57.1859C102.792 59.9823 102.792 68.3716 100.345 74.6636Z" fill="url(#paint7_linear)"/>
<defs>
<linearGradient id="paint0_linear" x1="3.20711" y1="57.9375" x2="30.5007" y2="54.6524" gradientUnits="userSpaceOnUse">
<stop stop-color="white"/>
<stop offset="1" stop-color="white" stop-opacity="0"/>
</linearGradient>
<linearGradient id="paint1_linear" x1="66.5603" y1="94.6877" x2="121.719" y2="113.673" gradientUnits="userSpaceOnUse">
<stop stop-color="white"/>
<stop offset="1" stop-color="white" stop-opacity="0"/>
</linearGradient>
<linearGradient id="paint2_linear" x1="72.3025" y1="120.472" x2="102.359" y2="142.155" gradientUnits="userSpaceOnUse">
<stop stop-color="white"/>
<stop offset="1" stop-color="white" stop-opacity="0"/>
</linearGradient>
<linearGradient id="paint3_linear" x1="52.4839" y1="134.241" x2="98.8953" y2="176.202" gradientUnits="userSpaceOnUse">
<stop stop-color="white"/>
<stop offset="1" stop-color="white" stop-opacity="0"/>
</linearGradient>
<linearGradient id="paint4_linear" x1="-22.3422" y1="63.8681" x2="11.3773" y2="72.5631" gradientUnits="userSpaceOnUse">
<stop stop-color="white"/>
<stop offset="1" stop-color="white" stop-opacity="0"/>
</linearGradient>
<linearGradient id="paint5_linear" x1="-16.6322" y1="74.0849" x2="31.4884" y2="68.9917" gradientUnits="userSpaceOnUse">
<stop stop-color="white"/>
<stop offset="1" stop-color="white" stop-opacity="0"/>
</linearGradient>
<linearGradient id="paint6_linear" x1="1.9432" y1="78.8941" x2="53.9302" y2="65.2678" gradientUnits="userSpaceOnUse">
<stop stop-color="white"/>
<stop offset="1" stop-color="white" stop-opacity="0"/>
</linearGradient>
<linearGradient id="paint7_linear" x1="10.0892" y1="68.5218" x2="128.093" y2="105.385" gradientUnits="userSpaceOnUse">
<stop stop-color="white"/>
<stop offset="1" stop-color="white" stop-opacity="0"/>
</linearGradient>
</defs>
</svg>
