<svg width="150" height="150" viewBox="0 0 150 150" fill="none" xmlns="http://www.w3.org/2000/svg">
<path d="M104.608 134.533C104.315 132.777 105.95 126.969 106.804 124.285C108.39 123.919 112.513 123.407 116.32 124.285C121.078 125.383 123.64 127.945 128.398 130.141C133.156 132.337 134.986 132.703 139.378 132.703C143.77 132.703 143.77 141.853 140.842 141.853C137.914 141.853 130.96 142.219 125.836 141.853C120.712 141.487 104.974 136.729 104.608 134.533Z" fill="#212226"/>
<path d="M104.608 134.533C104.315 132.777 105.95 126.969 106.804 124.285C108.39 123.919 112.513 123.407 116.32 124.285C121.078 125.383 123.64 127.945 128.398 130.141C133.156 132.337 134.986 132.703 139.378 132.703C143.77 132.703 143.77 141.853 140.842 141.853C137.914 141.853 130.96 142.219 125.836 141.853C120.712 141.487 104.974 136.729 104.608 134.533Z" fill="url(#paint0_linear)"/>
<path d="M99.4836 116.233C99.8496 113.671 101.314 111.841 102.778 110.011C103.51 111.353 105.413 114.33 107.17 115.501C108.927 116.672 114.002 115.989 116.32 115.501L114.124 123.553H107.17C105.706 123.553 98.3856 124.285 98.3856 122.089C98.3856 119.893 99.1176 118.795 99.4836 116.233Z" fill="#212226"/>
<path d="M99.4836 116.233C99.8496 113.671 101.314 111.841 102.778 110.011C103.51 111.353 105.413 114.33 107.17 115.501C108.927 116.672 114.002 115.989 116.32 115.501L114.124 123.553H107.17C105.706 123.553 98.3856 124.285 98.3856 122.089C98.3856 119.893 99.1176 118.795 99.4836 116.233Z" fill="url(#paint1_linear)"/>
<path d="M12.2298 66.0908L1.39453 91.7111H37.2629V66.0908H12.2298Z" fill="#D47500"/>
<path d="M117.418 129.409C114.783 129.116 110.708 125.871 109 124.285V119.893C109 118.795 120.712 99.3968 123.274 95.7368C125.836 92.0768 127.666 86.2207 127.666 83.2927C127.666 80.3646 113.026 73.0446 111.196 71.9466C109.366 70.8486 98.7516 71.9466 95.4575 70.4826C92.8223 69.3113 90.4557 66.3345 89.6018 64.9925C89.1138 64.8705 89.0894 64.1873 92.8958 62.4305C97.6539 60.2345 103.51 51.8164 105.34 49.9864C106.804 48.5224 105.95 39.3723 105.34 34.9802C111.562 36.0782 143.77 69.3845 145.966 71.9466C148.162 74.5086 149.626 77.8026 149.992 83.2927C150.358 88.7827 137.548 112.573 135.352 117.331C133.156 122.089 129.862 129.409 127.666 129.409C125.47 129.409 120.712 129.775 117.418 129.409Z" fill="#31374B"/>
<path d="M117.418 129.409C114.783 129.116 110.708 125.871 109 124.285V119.893C109 118.795 120.712 99.3968 123.274 95.7368C125.836 92.0768 127.666 86.2207 127.666 83.2927C127.666 80.3646 113.026 73.0446 111.196 71.9466C109.366 70.8486 98.7516 71.9466 95.4575 70.4826C92.8223 69.3113 90.4557 66.3345 89.6018 64.9925C89.1138 64.8705 89.0894 64.1873 92.8958 62.4305C97.6539 60.2345 103.51 51.8164 105.34 49.9864C106.804 48.5224 105.95 39.3723 105.34 34.9802C111.562 36.0782 143.77 69.3845 145.966 71.9466C148.162 74.5086 149.626 77.8026 149.992 83.2927C150.358 88.7827 137.548 112.573 135.352 117.331C133.156 122.089 129.862 129.409 127.666 129.409C125.47 129.409 120.712 129.775 117.418 129.409Z" fill="url(#paint2_linear)"/>
<path d="M102.778 110.376C103.656 107.156 113.148 86.5862 117.784 76.7041L125.47 74.1421L134.254 85.4882L114.49 116.232C113.27 117.086 110.464 118.502 109 117.33C107.17 115.866 101.68 114.402 102.778 110.376Z" fill="#31374B"/>
<path d="M102.778 110.376C103.656 107.156 113.148 86.5862 117.784 76.7041L125.47 74.1421L134.254 85.4882L114.49 116.232C113.27 117.086 110.464 118.502 109 117.33C107.17 115.866 101.68 114.402 102.778 110.376Z" fill="url(#paint3_linear)"/>
<path d="M24.0872 72.3124C22.0376 72.0196 13.9611 69.5064 10.1791 68.2864L7.98303 69.0184L12.0091 74.8744C13.4731 75.1184 16.5475 75.6064 17.1331 75.6064C17.8651 75.6064 22.2572 74.5084 25.5512 75.6064C28.8452 76.7045 26.6492 72.6784 24.0872 72.3124Z" fill="#AA6431"/>
<path d="M24.0872 72.3124C22.0376 72.0196 13.9611 69.5064 10.1791 68.2864L7.98303 69.0184L12.0091 74.8744C13.4731 75.1184 16.5475 75.6064 17.1331 75.6064C17.8651 75.6064 22.2572 74.5084 25.5512 75.6064C28.8452 76.7045 26.6492 72.6784 24.0872 72.3124Z" fill="url(#paint4_linear)"/>
<path d="M3.22507 47.7903C3.51787 45.7407 7.00711 43.5203 8.71512 42.6663L9.44685 46.3263L14.2049 48.8883L26.283 53.2804C27.625 54.8664 29.943 58.4776 28.479 60.2344C26.649 62.4304 25.185 65.7245 23.721 66.8225C22.257 67.9205 13.4729 69.0185 10.5449 68.6525C8.20244 68.3597 6.64101 61.4544 6.1531 58.0384C5.05509 55.4764 2.93227 49.8399 3.22507 47.7903Z" fill="#212226"/>
<path d="M3.22507 47.7903C3.51787 45.7407 7.00711 43.5203 8.71512 42.6663L9.44685 46.3263L14.2049 48.8883L26.283 53.2804C27.625 54.8664 29.943 58.4776 28.479 60.2344C26.649 62.4304 25.185 65.7245 23.721 66.8225C22.257 67.9205 13.4729 69.0185 10.5449 68.6525C8.20244 68.3597 6.64101 61.4544 6.1531 58.0384C5.05509 55.4764 2.93227 49.8399 3.22507 47.7903Z" fill="url(#paint5_linear)"/>
<path d="M100.215 32.0521C103.729 32.6377 105.827 35.2241 106.437 36.4441L105.706 60.2343C100.948 62.0644 91.1388 65.578 89.9675 64.9924C88.5035 64.2604 84.1115 60.6003 81.5495 58.7703C78.9874 56.9403 72.3994 58.0383 68.0073 58.0383C63.6153 58.0383 56.6612 61.6983 54.0992 62.7964C51.5372 63.8944 46.4131 69.0184 43.4851 69.0184C40.5571 69.0184 35.7988 65.3584 35.7988 62.7964V55.1103C33.8468 52.4263 30.0892 46.7654 30.6748 45.5942C31.4068 44.1302 35.0668 41.2022 37.6288 38.2741C40.1909 35.3461 66.5431 24 69.4711 24C72.3992 24 84.8433 29.124 87.7713 29.8561C90.6993 30.5881 95.8234 31.3201 100.215 32.0521Z" fill="#8B99A6"/>
<path d="M100.215 32.0521C103.729 32.6377 105.827 35.2241 106.437 36.4441L105.706 60.2343C100.948 62.0644 91.1388 65.578 89.9675 64.9924C88.5035 64.2604 84.1115 60.6003 81.5495 58.7703C78.9874 56.9403 72.3994 58.0383 68.0073 58.0383C63.6153 58.0383 56.6612 61.6983 54.0992 62.7964C51.5372 63.8944 46.4131 69.0184 43.4851 69.0184C40.5571 69.0184 35.7988 65.3584 35.7988 62.7964V55.1103C33.8468 52.4263 30.0892 46.7654 30.6748 45.5942C31.4068 44.1302 35.0668 41.2022 37.6288 38.2741C40.1909 35.3461 66.5431 24 69.4711 24C72.3992 24 84.8433 29.124 87.7713 29.8561C90.6993 30.5881 95.8234 31.3201 100.215 32.0521Z" fill="url(#paint6_linear)"/>
<path d="M16.7671 36.4446C15.0103 36.7374 10.9111 40.7146 9.08104 42.6666L7.98303 44.1307V47.7907L11.6431 46.6927H30.6752L36.1653 42.6666C36.7753 41.9346 37.6293 40.3974 36.1653 40.1046C34.3353 39.7386 30.6752 36.4446 28.4792 35.7125C26.2832 34.9805 18.9631 36.0785 16.7671 36.4446Z" fill="#AA6431"/>
<path d="M16.7671 36.4446C15.0103 36.7374 10.9111 40.7146 9.08104 42.6666L7.98303 44.1307V47.7907L11.6431 46.6927H30.6752L36.1653 42.6666C36.7753 41.9346 37.6293 40.3974 36.1653 40.1046C34.3353 39.7386 30.6752 36.4446 28.4792 35.7125C26.2832 34.9805 18.9631 36.0785 16.7671 36.4446Z" fill="url(#paint7_linear)"/>
<path d="M33.9692 100.128H28.1131H27.0151V149.539H33.9692V100.128Z" fill="#ECF1F4"/>
<path d="M43.1194 41.2021C39.8985 41.7877 35.1893 44.8621 33.2373 46.3261C31.0416 45.5941 24.8192 41.5681 19.6948 41.9341C14.5705 42.3001 6.88482 46.3261 4.6887 47.7901C2.49259 49.2542 1.39477 58.4042 0.296758 62.4303C-0.801252 66.4563 1.39477 73.4104 2.85878 77.8024C4.32279 82.1945 5.4208 81.0965 6.88482 82.5605C8.34883 84.0245 13.1069 82.5605 15.6689 83.6585C17.7185 84.5369 23.355 83.2925 25.917 82.5605C25.551 82.0725 24.1602 80.8036 21.525 79.6324C18.2309 78.1684 13.1071 74.1424 11.2771 71.5804C9.44706 69.0183 9.81306 70.4824 11.2771 66.0903C12.7411 61.6983 14.9371 60.2343 17.8651 59.1362C20.7932 58.0382 24.4532 58.4042 27.0152 58.4042C29.5772 58.4042 33.2373 60.9663 36.1653 62.4303C39.0933 63.8943 44.2174 62.7963 46.7794 62.4303C49.3414 62.0643 51.1714 59.5023 53.0015 58.4042C54.8315 57.3062 57.3935 52.9142 57.3935 50.3522C57.3935 47.7901 55.1975 43.3981 53.0015 41.2021C50.8054 39.0061 47.1454 40.4701 43.1194 41.2021Z" fill="#AA6431"/>
<path d="M43.1194 41.2021C39.8985 41.7877 35.1893 44.8621 33.2373 46.3261C31.0416 45.5941 24.8192 41.5681 19.6948 41.9341C14.5705 42.3001 6.88482 46.3261 4.6887 47.7901C2.49259 49.2542 1.39477 58.4042 0.296758 62.4303C-0.801252 66.4563 1.39477 73.4104 2.85878 77.8024C4.32279 82.1945 5.4208 81.0965 6.88482 82.5605C8.34883 84.0245 13.1069 82.5605 15.6689 83.6585C17.7185 84.5369 23.355 83.2925 25.917 82.5605C25.551 82.0725 24.1602 80.8036 21.525 79.6324C18.2309 78.1684 13.1071 74.1424 11.2771 71.5804C9.44706 69.0183 9.81306 70.4824 11.2771 66.0903C12.7411 61.6983 14.9371 60.2343 17.8651 59.1362C20.7932 58.0382 24.4532 58.4042 27.0152 58.4042C29.5772 58.4042 33.2373 60.9663 36.1653 62.4303C39.0933 63.8943 44.2174 62.7963 46.7794 62.4303C49.3414 62.0643 51.1714 59.5023 53.0015 58.4042C54.8315 57.3062 57.3935 52.9142 57.3935 50.3522C57.3935 47.7901 55.1975 43.3981 53.0015 41.2021C50.8054 39.0061 47.1454 40.4701 43.1194 41.2021Z" fill="url(#paint8_linear)"/>
<path d="M10.9108 149.173V100.128H3.22473V149.173H10.9108Z" fill="#ECF1F4"/>
<path d="M17.8649 108.181V99.7632H12.3749V108.181H17.8649Z" fill="#ECF1F4"/>
<path d="M37.2629 91.7107H1.39453V100.495H37.2629V91.7107Z" fill="#D47500"/>
<defs>
<linearGradient id="paint0_linear" x1="52.7139" y1="126.403" x2="99.1221" y2="167.876" gradientUnits="userSpaceOnUse">
<stop stop-color="white"/>
<stop offset="1" stop-color="white" stop-opacity="0"/>
</linearGradient>
<linearGradient id="paint1_linear" x1="74.1081" y1="111.962" x2="103.908" y2="128.589" gradientUnits="userSpaceOnUse">
<stop stop-color="white"/>
<stop offset="1" stop-color="white" stop-opacity="0"/>
</linearGradient>
<linearGradient id="paint2_linear" x1="7.3048" y1="48.4933" x2="130.28" y2="81.9858" gradientUnits="userSpaceOnUse">
<stop stop-color="white"/>
<stop offset="1" stop-color="white" stop-opacity="0"/>
</linearGradient>
<linearGradient id="paint3_linear" x1="59.8298" y1="80.3754" x2="122.759" y2="99.7538" gradientUnits="userSpaceOnUse">
<stop stop-color="white"/>
<stop offset="1" stop-color="white" stop-opacity="0"/>
</linearGradient>
<linearGradient id="paint4_linear" x1="-4.67929" y1="72.4225" x2="15.3056" y2="67.0498" gradientUnits="userSpaceOnUse">
<stop stop-color="white"/>
<stop offset="1" stop-color="white" stop-opacity="0"/>
</linearGradient>
<linearGradient id="paint5_linear" x1="-31.6594" y1="46.3888" x2="16.0363" y2="66.4163" gradientUnits="userSpaceOnUse">
<stop stop-color="white"/>
<stop offset="1" stop-color="white" stop-opacity="0"/>
</linearGradient>
<linearGradient id="paint6_linear" x1="-1.10119" y1="52.0846" x2="53.9987" y2="38.4242" gradientUnits="userSpaceOnUse">
<stop stop-color="white"/>
<stop offset="1" stop-color="white" stop-opacity="0"/>
</linearGradient>
<linearGradient id="paint7_linear" x1="-11.1061" y1="42.2548" x2="19.3429" y2="34.7356" gradientUnits="userSpaceOnUse">
<stop stop-color="white"/>
<stop offset="1" stop-color="white" stop-opacity="0"/>
</linearGradient>
<linearGradient id="paint8_linear" x1="-37.7912" y1="64.2332" x2="24.9839" y2="55.6211" gradientUnits="userSpaceOnUse">
<stop stop-color="white"/>
<stop offset="1" stop-color="white" stop-opacity="0"/>
</linearGradient>
</defs>
</svg>
