<svg width="150" height="150" viewBox="0 0 150 150" fill="none" xmlns="http://www.w3.org/2000/svg">
<g clip-path="url(#clip0)">
<path d="M104.711 138.436C104.46 136.93 106.489 131.323 107.535 128.707L116.009 123.686L122.285 131.846L120.089 142.202C117.264 141.888 111.239 141.26 109.732 141.26C107.849 141.26 105.025 140.319 104.711 138.436Z" fill="#212226"/>
<path d="M104.711 138.436C104.46 136.93 106.489 131.323 107.535 128.707L116.009 123.686L122.285 131.846L120.089 142.202C117.264 141.888 111.239 141.26 109.732 141.26C107.849 141.26 105.025 140.319 104.711 138.436Z" fill="url(#paint0_linear)"/>
<path d="M110.36 145.341C109.858 143.583 112.87 136.658 114.439 133.415C119.252 135.507 129.566 139.817 132.328 140.32C135.78 140.947 142.056 143.144 144.567 143.144C147.078 143.144 147.705 150.362 144.567 150.362H125.737C124.796 150.362 110.987 147.538 110.36 145.341Z" fill="#212226"/>
<path d="M110.36 145.341C109.858 143.583 112.87 136.658 114.439 133.415C119.252 135.507 129.566 139.817 132.328 140.32C135.78 140.947 142.056 143.144 144.567 143.144C147.078 143.144 147.705 150.362 144.567 150.362H125.737C124.796 150.362 110.987 147.538 110.36 145.341Z" fill="url(#paint1_linear)"/>
<path d="M41.0038 124.628V119.292L24.6847 115.213L17.7805 119.292C17.4666 121.071 16.839 125.318 16.839 128.08C16.839 130.841 19.1404 135.088 20.2911 136.867L41.0038 124.628Z" fill="#AA6431"/>
<path d="M41.0038 124.628V119.292L24.6847 115.213L17.7805 119.292C17.4666 121.071 16.839 125.318 16.839 128.08C16.839 130.841 19.1404 135.088 20.2911 136.867L41.0038 124.628Z" fill="url(#paint2_linear)"/>
<path d="M31.275 101.718C32.5303 98.8934 35.3548 92.8679 36.6101 91.3615C38.1793 89.4785 49.1632 78.8084 51.6739 77.2392C54.1845 75.6701 61.7164 73.7871 64.227 73.4733C66.7376 73.1595 78.0355 71.5903 79.9184 70.0212C81.5218 68.6851 85.4005 69.3968 86.1297 69.2502C86.1396 69.1056 86.1608 69.0455 86.195 69.0797C86.2882 69.1729 86.2569 69.2246 86.1297 69.2502C85.9577 71.7562 89.1621 99.6409 86.195 101.718C86.195 101.718 83.6844 100.463 80.8599 100.463C78.6631 100.463 73.7046 100.902 71.4451 102.659C68.6206 104.856 63.5994 107.681 60.4611 110.505C57.3228 113.329 52.3015 120.861 50.7324 122.744C49.1632 124.627 47.2803 125.883 44.4558 126.51C42.1963 127.012 39.1207 126.72 37.8654 126.51L31.275 101.718Z" fill="#8B99A6"/>
<path d="M31.275 101.718C32.5303 98.8934 35.3548 92.8679 36.6101 91.3615C38.1793 89.4785 49.1632 78.8084 51.6739 77.2392C54.1845 75.6701 61.7164 73.7871 64.227 73.4733C66.7376 73.1595 78.0355 71.5903 79.9184 70.0212C81.5218 68.6851 85.4005 69.3968 86.1297 69.2502C86.1396 69.1056 86.1608 69.0455 86.195 69.0797C86.2882 69.1729 86.2569 69.2246 86.1297 69.2502C85.9577 71.7562 89.1621 99.6409 86.195 101.718C86.195 101.718 83.6844 100.463 80.8599 100.463C78.6631 100.463 73.7046 100.902 71.4451 102.659C68.6206 104.856 63.5994 107.681 60.4611 110.505C57.3228 113.329 52.3015 120.861 50.7324 122.744C49.1632 124.627 47.2803 125.883 44.4558 126.51C42.1963 127.012 39.1207 126.72 37.8654 126.51L31.275 101.718Z" fill="url(#paint3_linear)"/>
<path d="M19.6636 135.925C20.6679 134.921 37.8657 121.803 37.8657 121.803C41.3678 123.102 43.8282 126.196 45.0835 128.079C46.3389 129.962 46.025 135.925 45.0835 138.749C44.1421 141.574 42.2591 143.457 40.3761 145.026C38.4931 146.595 28.4508 145.968 25.9402 145.026C23.4296 144.085 18.4083 137.18 19.6636 135.925Z" fill="#212226"/>
<path d="M19.6636 135.925C20.6679 134.921 37.8657 121.803 37.8657 121.803C41.3678 123.102 43.8282 126.196 45.0835 128.079C46.3389 129.962 46.025 135.925 45.0835 138.749C44.1421 141.574 42.2591 143.457 40.3761 145.026C38.4931 146.595 28.4508 145.968 25.9402 145.026C23.4296 144.085 18.4083 137.18 19.6636 135.925Z" fill="url(#paint4_linear)"/>
<path d="M109.104 124.314C110.108 122.055 115.381 106.007 117.891 98.2664L129.817 100.149L117.891 131.532L109.104 130.591C108.686 129.44 108.1 126.574 109.104 124.314Z" fill="#31374B"/>
<path d="M109.104 124.314C110.108 122.055 115.381 106.007 117.891 98.2664L129.817 100.149L117.891 131.532L109.104 130.591C108.686 129.44 108.1 126.574 109.104 124.314Z" fill="url(#paint5_linear)"/>
<path d="M29.3922 150.362C31.6518 150.362 32.4259 148.897 32.5305 148.165V146.91C32.5305 146.596 27.8229 145.654 25.3122 145.654C22.8016 145.654 18.7218 142.83 17.1527 142.516C15.5835 142.202 15.5835 141.575 14.0144 140.319C12.4453 139.064 12.1314 128.708 12.7591 127.766C13.3867 126.825 13.7006 120.862 15.5835 120.862C17.4665 120.862 20.9186 118.979 22.8016 118.038C24.6846 117.096 25.3122 118.038 27.8229 118.979C30.3335 119.921 34.7271 119.921 38.493 119.921C42.259 119.921 43.2005 121.176 46.3387 120.862C49.477 120.548 51.6738 113.644 53.243 112.075C54.8121 110.506 52.9291 102.66 51.6738 100.463C50.4185 98.2664 47.2802 95.4419 45.0834 95.4419C42.8866 95.4419 35.3547 98.2664 32.5305 99.2078C29.7062 100.149 29.3922 100.149 25.3122 100.463C21.2323 100.777 8.99315 105.798 6.16869 107.367C3.34424 108.937 1.77528 109.564 0.519968 112.075C-0.735346 114.585 0.519968 132.474 1.77528 136.24C3.0306 140.006 8.05185 148.165 9.93482 149.42C11.8178 150.676 26.5677 150.362 29.3922 150.362Z" fill="#AA6431"/>
<path d="M29.3922 150.362C31.6518 150.362 32.4259 148.897 32.5305 148.165V146.91C32.5305 146.596 27.8229 145.654 25.3122 145.654C22.8016 145.654 18.7218 142.83 17.1527 142.516C15.5835 142.202 15.5835 141.575 14.0144 140.319C12.4453 139.064 12.1314 128.708 12.7591 127.766C13.3867 126.825 13.7006 120.862 15.5835 120.862C17.4665 120.862 20.9186 118.979 22.8016 118.038C24.6846 117.096 25.3122 118.038 27.8229 118.979C30.3335 119.921 34.7271 119.921 38.493 119.921C42.259 119.921 43.2005 121.176 46.3387 120.862C49.477 120.548 51.6738 113.644 53.243 112.075C54.8121 110.506 52.9291 102.66 51.6738 100.463C50.4185 98.2664 47.2802 95.4419 45.0834 95.4419C42.8866 95.4419 35.3547 98.2664 32.5305 99.2078C29.7062 100.149 29.3922 100.149 25.3122 100.463C21.2323 100.777 8.99315 105.798 6.16869 107.367C3.34424 108.937 1.77528 109.564 0.519968 112.075C-0.735346 114.585 0.519968 132.474 1.77528 136.24C3.0306 140.006 8.05185 148.165 9.93482 149.42C11.8178 150.676 26.5677 150.362 29.3922 150.362Z" fill="url(#paint6_linear)"/>
<path d="M93.0991 69.08C91.5928 69.331 86.6134 70.2307 84.3119 70.6491L82.7428 94.1863C83.7889 97.3246 86.3832 103.789 88.3917 104.543C90.9023 105.484 100.317 103.601 103.455 103.601C106.594 103.601 111.615 98.5799 112.243 99.2075C112.87 99.8352 117.892 100.777 122.913 100.777C127.934 100.777 125.737 101.404 124.796 103.601C123.854 105.798 113.184 136.867 114.753 136.239C116.322 135.612 135.466 141.888 136.721 141.261C137.977 140.633 138.29 135.925 139.232 131.218C140.173 126.511 142.998 115.527 143.939 113.957C144.881 112.388 148.019 98.5799 149.588 94.1863C151.157 89.7927 148.019 81.947 143.939 80.3778C139.86 78.8087 122.285 74.4151 117.892 73.7874C113.498 73.1598 107.221 71.9044 103.455 70.6491C99.6895 69.3938 94.9821 68.7661 93.0991 69.08Z" fill="#31374B"/>
<path d="M93.0991 69.08C91.5928 69.331 86.6134 70.2307 84.3119 70.6491L82.7428 94.1863C83.7889 97.3246 86.3832 103.789 88.3917 104.543C90.9023 105.484 100.317 103.601 103.455 103.601C106.594 103.601 111.615 98.5799 112.243 99.2075C112.87 99.8352 117.892 100.777 122.913 100.777C127.934 100.777 125.737 101.404 124.796 103.601C123.854 105.798 113.184 136.867 114.753 136.239C116.322 135.612 135.466 141.888 136.721 141.261C137.977 140.633 138.29 135.925 139.232 131.218C140.173 126.511 142.998 115.527 143.939 113.957C144.881 112.388 148.019 98.5799 149.588 94.1863C151.157 89.7927 148.019 81.947 143.939 80.3778C139.86 78.8087 122.285 74.4151 117.892 73.7874C113.498 73.1598 107.221 71.9044 103.455 70.6491C99.6895 69.3938 94.9821 68.7661 93.0991 69.08Z" fill="url(#paint7_linear)"/>
</g>
<defs>
<linearGradient id="paint0_linear" x1="80.8701" y1="126.331" x2="113.834" y2="139.643" gradientUnits="userSpaceOnUse">
<stop stop-color="white"/>
<stop offset="1" stop-color="white" stop-opacity="0"/>
</linearGradient>
<linearGradient id="paint1_linear" x1="61.0456" y1="135.836" x2="104.312" y2="175.313" gradientUnits="userSpaceOnUse">
<stop stop-color="white"/>
<stop offset="1" stop-color="white" stop-opacity="0"/>
</linearGradient>
<linearGradient id="paint2_linear" x1="0.92748" y1="127.14" x2="27.491" y2="124.028" gradientUnits="userSpaceOnUse">
<stop stop-color="white"/>
<stop offset="1" stop-color="white" stop-opacity="0"/>
</linearGradient>
<linearGradient id="paint3_linear" x1="7.77449" y1="105.077" x2="50.241" y2="98.992" gradientUnits="userSpaceOnUse">
<stop stop-color="white"/>
<stop offset="1" stop-color="white" stop-opacity="0"/>
</linearGradient>
<linearGradient id="paint4_linear" x1="-16.3346" y1="125.257" x2="31.0522" y2="147.281" gradientUnits="userSpaceOnUse">
<stop stop-color="white"/>
<stop offset="1" stop-color="white" stop-opacity="0"/>
</linearGradient>
<linearGradient id="paint5_linear" x1="79.76" y1="103.019" x2="122.914" y2="114.742" gradientUnits="userSpaceOnUse">
<stop stop-color="white"/>
<stop offset="1" stop-color="white" stop-opacity="0"/>
</linearGradient>
<linearGradient id="paint6_linear" x1="-35.4509" y1="125.712" x2="23.9171" y2="119.606" gradientUnits="userSpaceOnUse">
<stop stop-color="white"/>
<stop offset="1" stop-color="white" stop-opacity="0"/>
</linearGradient>
<linearGradient id="paint7_linear" x1="-8.30338" y1="79.3292" x2="118.441" y2="129.427" gradientUnits="userSpaceOnUse">
<stop stop-color="white"/>
<stop offset="1" stop-color="white" stop-opacity="0"/>
</linearGradient>
<clipPath id="clip0">
<rect width="150" height="150" fill="white"/>
</clipPath>
</defs>
</svg>
