<svg width="150" height="151" viewBox="0 0 150 151" fill="none" xmlns="http://www.w3.org/2000/svg">
<path d="M13.5928 94.9832C12.5917 96.9855 11.09 101.658 10.4642 103.743L18.5986 106.872L33.3031 101.866V93.106C31.7388 93.4189 28.3599 93.8569 27.3587 93.106C26.1073 92.1675 24.8558 88.4131 22.6658 88.726C20.4758 89.0388 14.8443 92.4803 13.5928 94.9832Z" fill="#AA6431"/>
<path d="M13.5928 94.9832C12.5917 96.9855 11.09 101.658 10.4642 103.743L18.5986 106.872L33.3031 101.866V93.106C31.7388 93.4189 28.3599 93.8569 27.3587 93.106C26.1073 92.1675 24.8558 88.4131 22.6658 88.726C20.4758 89.0388 14.8443 92.4803 13.5928 94.9832Z" fill="url(#paint0_linear)"/>
<path d="M16.4088 132.213C16.4088 130.461 19.1203 125.643 20.476 123.453L13.9059 120.324L8.58728 129.71C9.42158 133.152 11.403 140.035 12.6545 140.035C14.2188 140.035 17.9731 142.225 19.2245 142.225C20.476 142.225 20.476 140.973 19.2245 140.035C17.9731 139.096 24.2303 140.66 26.4203 140.973C28.6104 141.286 31.4261 139.722 29.8618 139.096C28.2975 138.47 21.4146 136.906 19.2245 135.968C17.0345 135.029 16.4088 134.403 16.4088 132.213Z" fill="#AA6431"/>
<path d="M16.4088 132.213C16.4088 130.461 19.1203 125.643 20.476 123.453L13.9059 120.324L8.58728 129.71C9.42158 133.152 11.403 140.035 12.6545 140.035C14.2188 140.035 17.9731 142.225 19.2245 142.225C20.476 142.225 20.476 140.973 19.2245 140.035C17.9731 139.096 24.2303 140.66 26.4203 140.973C28.6104 141.286 31.4261 139.722 29.8618 139.096C28.2975 138.47 21.4146 136.906 19.2245 135.968C17.0345 135.029 16.4088 134.403 16.4088 132.213Z" fill="url(#paint1_linear)"/>
<path d="M17.66 102.805C16.1582 102.805 11.6113 102.388 9.52558 102.179C8.27414 103.43 9.00415 109.375 9.52558 112.191C10.8813 115.423 13.8431 122.265 14.8442 123.766C16.0957 125.644 22.3529 124.705 24.23 123.766C26.1072 122.828 33.9287 115.006 34.8673 113.755C35.6182 112.754 35.1802 109.583 34.8673 108.123C29.7573 106.35 19.1617 102.805 17.66 102.805Z" fill="#212226"/>
<path d="M17.66 102.805C16.1582 102.805 11.6113 102.388 9.52558 102.179C8.27414 103.43 9.00415 109.375 9.52558 112.191C10.8813 115.423 13.8431 122.265 14.8442 123.766C16.0957 125.644 22.3529 124.705 24.23 123.766C26.1072 122.828 33.9287 115.006 34.8673 113.755C35.6182 112.754 35.1802 109.583 34.8673 108.123C29.7573 106.35 19.1617 102.805 17.66 102.805Z" fill="url(#paint2_linear)"/>
<path d="M106.2 139.41C106.2 138.158 108.286 132.631 109.329 130.024C109.329 130.962 113.709 134.404 115.273 135.029C116.524 135.53 116.211 138.784 115.899 140.348L110.58 143.164C109.12 142.434 106.2 140.661 106.2 139.41Z" fill="#212226"/>
<path d="M106.2 139.41C106.2 138.158 108.286 132.631 109.329 130.024C109.329 130.962 113.709 134.404 115.273 135.029C116.524 135.53 116.211 138.784 115.899 140.348L110.58 143.164C109.12 142.434 106.2 140.661 106.2 139.41Z" fill="url(#paint3_linear)"/>
<path d="M147.81 142.538C146.246 140.973 130.776 137.36 135.782 135.215C133.591 136.154 118.574 133.025 117.636 133.651C116.697 134.276 111.518 140.973 110.58 143.163C109.641 145.353 114.021 147.543 115.585 148.169C117.15 148.795 141.553 150.672 146.246 150.359C150.939 150.046 149.374 144.102 147.81 142.538Z" fill="#212226"/>
<path d="M147.81 142.538C146.246 140.973 130.776 137.36 135.782 135.215C133.591 136.154 118.574 133.025 117.636 133.651C116.697 134.276 111.518 140.973 110.58 143.163C109.641 145.353 114.021 147.543 115.585 148.169C117.15 148.795 141.553 150.672 146.246 150.359C150.939 150.046 149.374 144.102 147.81 142.538Z" fill="url(#paint4_linear)"/>
<path d="M116.212 110.313C117.713 107.31 120.175 98.8418 121.217 94.9832H128.1L116.212 134.716H112.77C111.206 134.716 110.267 132.839 109.329 131.588C108.39 130.336 109.642 126.269 110.267 122.828C110.893 119.386 114.334 114.068 116.212 110.313Z" fill="#31374B"/>
<path d="M116.212 110.313C117.713 107.31 120.175 98.8418 121.217 94.9832H128.1L116.212 134.716H112.77C111.206 134.716 110.267 132.839 109.329 131.588C108.39 130.336 109.642 126.269 110.267 122.828C110.893 119.386 114.334 114.068 116.212 110.313Z" fill="url(#paint5_linear)"/>
<path d="M74.6007 60.5687C78.355 60.819 84.508 59.213 87.1151 58.3787L94.9367 69.3288L87.1151 89.3519C85.0294 88.5176 80.1071 86.9116 77.1036 87.1619C73.3493 87.4747 71.4721 90.6033 66.7792 93.7319C62.0863 96.8605 54.2648 104.995 52.7004 107.185C51.1361 109.375 47.6947 111.565 44.2532 112.816C41.5 113.818 39.3517 112.399 38.6217 111.565L31.7388 93.7319L32.9902 89.3519C33.6159 87.1619 38.9346 77.1503 40.8117 74.3346C42.6889 71.5188 51.1361 64.323 55.2033 61.8201C59.2705 59.3172 69.9078 60.2558 74.6007 60.5687Z" fill="#8B99A6"/>
<path d="M74.6007 60.5687C78.355 60.819 84.508 59.213 87.1151 58.3787L94.9367 69.3288L87.1151 89.3519C85.0294 88.5176 80.1071 86.9116 77.1036 87.1619C73.3493 87.4747 71.4721 90.6033 66.7792 93.7319C62.0863 96.8605 54.2648 104.995 52.7004 107.185C51.1361 109.375 47.6947 111.565 44.2532 112.816C41.5 113.818 39.3517 112.399 38.6217 111.565L31.7388 93.7319L32.9902 89.3519C33.6159 87.1619 38.9346 77.1503 40.8117 74.3346C42.6889 71.5188 51.1361 64.323 55.2033 61.8201C59.2705 59.3172 69.9078 60.2558 74.6007 60.5687Z" fill="url(#paint6_linear)"/>
<path d="M35.8063 87.1613C33.0531 88.4128 32.3648 91.4371 32.3648 92.7928C32.3648 93.21 32.1145 94.1693 31.1132 94.6699C29.8615 95.2956 19.2244 101.553 16.0958 103.43C12.9672 105.307 6.08429 115.006 3.89426 117.822C1.70424 120.637 0.765852 135.342 0.140131 137.845C-0.485591 140.348 1.07871 146.292 2.95588 147.543C4.83304 148.795 10.4645 149.421 12.9674 149.421C15.4703 149.421 20.7889 149.108 23.2918 148.482C25.7947 147.856 27.0462 145.666 23.2918 145.041C20.2884 144.54 11.4031 142.538 7.33593 141.599C7.44022 140.452 7.89908 137.594 8.90023 135.342C10.1517 132.526 15.7832 122.515 18.2861 119.386C20.7889 116.257 27.9847 111.252 29.549 110C31.1134 108.749 32.3648 110.313 35.8063 110C39.2477 109.687 47.3821 104.369 50.1979 103.43C53.0136 102.491 53.6393 92.7928 52.7008 89.6641C51.7622 86.5354 50.8236 84.0327 47.3821 83.0942C43.9407 82.1556 39.2477 85.597 35.8063 87.1613Z" fill="#AA6431"/>
<path d="M35.8063 87.1613C33.0531 88.4128 32.3648 91.4371 32.3648 92.7928C32.3648 93.21 32.1145 94.1693 31.1132 94.6699C29.8615 95.2956 19.2244 101.553 16.0958 103.43C12.9672 105.307 6.08429 115.006 3.89426 117.822C1.70424 120.637 0.765852 135.342 0.140131 137.845C-0.485591 140.348 1.07871 146.292 2.95588 147.543C4.83304 148.795 10.4645 149.421 12.9674 149.421C15.4703 149.421 20.7889 149.108 23.2918 148.482C25.7947 147.856 27.0462 145.666 23.2918 145.041C20.2884 144.54 11.4031 142.538 7.33593 141.599C7.44022 140.452 7.89908 137.594 8.90023 135.342C10.1517 132.526 15.7832 122.515 18.2861 119.386C20.7889 116.257 27.9847 111.252 29.549 110C31.1134 108.749 32.3648 110.313 35.8063 110C39.2477 109.687 47.3821 104.369 50.1979 103.43C53.0136 102.491 53.6393 92.7928 52.7008 89.6641C51.7622 86.5354 50.8236 84.0327 47.3821 83.0942C43.9407 82.1556 39.2477 85.597 35.8063 87.1613Z" fill="url(#paint7_linear)"/>
<path d="M135.608 138.471C133.606 138.471 120.591 137.011 114.334 136.281C114.021 136.281 113.333 136.03 113.083 135.029C112.77 133.778 116.211 126.895 117.15 124.079C118.089 121.263 123.407 101.866 124.659 99.363C125.91 96.8601 118.089 95.6087 116.211 94.6701C114.334 93.7315 109.641 91.5415 106.513 92.7929C103.384 94.0444 92.434 95.6087 90.2439 94.6701C88.4919 93.9192 86.1767 91.2286 85.2382 89.9772C88.0539 88.7257 88.9925 78.4013 89.3054 74.9599C89.6182 71.5184 87.115 61.8197 86.8022 60.5683C86.4893 59.3168 86.4893 57.7525 88.0536 57.1268C89.6179 56.5011 98.0652 58.3782 102.132 58.6911C106.2 59.004 109.015 61.8197 112.144 64.0097C115.273 66.1998 139.676 78.4013 143.743 80.9042C147.81 83.4071 150 87.1614 150 89.0386C150 90.9158 140.927 131.588 140.614 133.152C140.301 134.716 138.111 138.471 135.608 138.471Z" fill="#31374B"/>
<path d="M135.608 138.471C133.606 138.471 120.591 137.011 114.334 136.281C114.021 136.281 113.333 136.03 113.083 135.029C112.77 133.778 116.211 126.895 117.15 124.079C118.089 121.263 123.407 101.866 124.659 99.363C125.91 96.8601 118.089 95.6087 116.211 94.6701C114.334 93.7315 109.641 91.5415 106.513 92.7929C103.384 94.0444 92.434 95.6087 90.2439 94.6701C88.4919 93.9192 86.1767 91.2286 85.2382 89.9772C88.0539 88.7257 88.9925 78.4013 89.3054 74.9599C89.6182 71.5184 87.115 61.8197 86.8022 60.5683C86.4893 59.3168 86.4893 57.7525 88.0536 57.1268C89.6179 56.5011 98.0652 58.3782 102.132 58.6911C106.2 59.004 109.015 61.8197 112.144 64.0097C115.273 66.1998 139.676 78.4013 143.743 80.9042C147.81 83.4071 150 87.1614 150 89.0386C150 90.9158 140.927 131.588 140.614 133.152C140.301 134.716 138.111 138.471 135.608 138.471Z" fill="url(#paint8_linear)"/>
<defs>
<linearGradient id="paint0_linear" x1="-4.57419" y1="98.7128" x2="20.4405" y2="95.411" gradientUnits="userSpaceOnUse">
<stop stop-color="white"/>
<stop offset="1" stop-color="white" stop-opacity="0"/>
</linearGradient>
<linearGradient id="paint1_linear" x1="-5.71943" y1="132.387" x2="18.2329" y2="129.893" gradientUnits="userSpaceOnUse">
<stop stop-color="white"/>
<stop offset="1" stop-color="white" stop-opacity="0"/>
</linearGradient>
<linearGradient id="paint2_linear" x1="-26.9672" y1="105.418" x2="19.2915" y2="128.349" gradientUnits="userSpaceOnUse">
<stop stop-color="white"/>
<stop offset="1" stop-color="white" stop-opacity="0"/>
</linearGradient>
<linearGradient id="paint3_linear" x1="92.692" y1="131.901" x2="112.384" y2="138.255" gradientUnits="userSpaceOnUse">
<stop stop-color="white"/>
<stop offset="1" stop-color="white" stop-opacity="0"/>
</linearGradient>
<linearGradient id="paint4_linear" x1="57.756" y1="135.971" x2="100.89" y2="178.372" gradientUnits="userSpaceOnUse">
<stop stop-color="white"/>
<stop offset="1" stop-color="white" stop-opacity="0"/>
</linearGradient>
<linearGradient id="paint5_linear" x1="83.1234" y1="100.659" x2="123.091" y2="108.827" gradientUnits="userSpaceOnUse">
<stop stop-color="white"/>
<stop offset="1" stop-color="white" stop-opacity="0"/>
</linearGradient>
<linearGradient id="paint6_linear" x1="5.30513" y1="92.5543" x2="52.6864" y2="84.5086" gradientUnits="userSpaceOnUse">
<stop stop-color="white"/>
<stop offset="1" stop-color="white" stop-opacity="0"/>
</linearGradient>
<linearGradient id="paint7_linear" x1="-34.9691" y1="119.556" x2="23.7982" y2="114.628" gradientUnits="userSpaceOnUse">
<stop stop-color="white"/>
<stop offset="1" stop-color="white" stop-opacity="0"/>
</linearGradient>
<linearGradient id="paint8_linear" x1="-2.43012" y1="68.6387" x2="124.228" y2="111.422" gradientUnits="userSpaceOnUse">
<stop stop-color="white"/>
<stop offset="1" stop-color="white" stop-opacity="0"/>
</linearGradient>
</defs>
</svg>
