<svg width="150" height="150" viewBox="0 0 150 150" fill="none" xmlns="http://www.w3.org/2000/svg">
<g clip-path="url(#clip0)">
<path d="M27.2517 138.632C25.3838 138.177 19.6635 138.442 17.0368 138.632C16.6477 137.874 15.8694 136.018 15.8694 134.654V127.551H10.3242V134.654C10.3242 135.791 12.3672 140.336 14.702 141.757C17.0368 143.178 19.3717 142.893 21.1228 142.609C22.8739 142.325 29.5865 142.041 30.1702 141.189C30.7539 140.336 29.5865 139.2 27.2517 138.632Z" fill="#AA6431"/>
<path d="M27.2517 138.632C25.3838 138.177 19.6635 138.442 17.0368 138.632C16.6477 137.874 15.8694 136.018 15.8694 134.654V127.551H10.3242V134.654C10.3242 135.791 12.3672 140.336 14.702 141.757C17.0368 143.178 19.3717 142.893 21.1228 142.609C22.8739 142.325 29.5865 142.041 30.1702 141.189C30.7539 140.336 29.5865 139.2 27.2517 138.632Z" fill="url(#paint0_linear)"/>
<path d="M109.71 142.841C109.71 141.665 110.494 138.039 110.886 136.373L120.295 137.843L117.061 144.606C114.61 144.508 109.71 144.018 109.71 142.841Z" fill="#212226"/>
<path d="M109.71 142.841C109.71 141.665 110.494 138.039 110.886 136.373L120.295 137.843L117.061 144.606C114.61 144.508 109.71 144.018 109.71 142.841Z" fill="url(#paint1_linear)"/>
<path d="M9.73611 107.851C11.3827 105.734 14.3427 105.596 15.6169 105.792C15.6169 107.851 17.3812 111.673 17.6752 112.261C17.9104 112.732 22.8699 119.71 25.3202 123.141C26.0063 124.415 27.2609 127.316 26.7904 128.728C26.2024 130.492 20.6156 131.08 18.5573 131.668C16.499 132.256 12.9706 130.786 10.6182 129.61C8.73637 128.669 7.67783 121.573 7.38379 118.142C7.4818 115.594 8.08949 109.968 9.73611 107.851Z" fill="#212226"/>
<path d="M9.73611 107.851C11.3827 105.734 14.3427 105.596 15.6169 105.792C15.6169 107.851 17.3812 111.673 17.6752 112.261C17.9104 112.732 22.8699 119.71 25.3202 123.141C26.0063 124.415 27.2609 127.316 26.7904 128.728C26.2024 130.492 20.6156 131.08 18.5573 131.668C16.499 132.256 12.9706 130.786 10.6182 129.61C8.73637 128.669 7.67783 121.573 7.38379 118.142C7.4818 115.594 8.08949 109.968 9.73611 107.851Z" fill="url(#paint2_linear)"/>
<path d="M22.9679 103.735C21.086 103.97 16.8911 105.793 15.0288 106.675C15.0288 108.929 15.2052 113.556 15.9109 114.026C16.6166 114.496 26.0063 115.202 30.6129 115.496C31.5931 114.908 33.5533 113.379 33.5533 111.968C33.5533 110.203 34.4355 107.263 33.5533 106.675C32.6712 106.087 25.3202 103.441 22.9679 103.735Z" fill="#AA6431"/>
<path d="M22.9679 103.735C21.086 103.97 16.8911 105.793 15.0288 106.675C15.0288 108.929 15.2052 113.556 15.9109 114.026C16.6166 114.496 26.0063 115.202 30.6129 115.496C31.5931 114.908 33.5533 113.379 33.5533 111.968C33.5533 110.203 34.4355 107.263 33.5533 106.675C32.6712 106.087 25.3202 103.441 22.9679 103.735Z" fill="url(#paint3_linear)"/>
<circle cx="73.2487" cy="134.02" r="13.5258" fill="#F18701"/>
<circle cx="73.2487" cy="134.02" r="13.5258" fill="url(#paint4_linear)"/>
<path d="M111.768 133.432C112.238 131.55 115.688 118.338 117.355 111.967L125 109.321C123.726 118.436 120.648 136.843 118.531 137.549C116.414 138.255 112.16 137.255 110.298 136.667C110.592 136.373 111.297 135.314 111.768 133.432Z" fill="#31374B"/>
<path d="M111.768 133.432C112.238 131.55 115.688 118.338 117.355 111.967L125 109.321C123.726 118.436 120.648 136.843 118.531 137.549C116.414 138.255 112.16 137.255 110.298 136.667C110.592 136.373 111.297 135.314 111.768 133.432Z" fill="url(#paint5_linear)"/>
<path d="M148.523 150.487C146.465 150.487 119.119 150.193 115.002 149.899C113.532 148.134 115.002 142.842 115.002 141.078C115.002 139.313 115.884 137.549 118.237 137.843C120.119 138.078 132.547 138.725 138.526 139.019C138.133 139.509 137.761 140.783 139.408 141.96C141.466 143.43 145.288 142.842 147.935 142.842C150.581 142.842 150.581 150.487 148.523 150.487Z" fill="#212226"/>
<path d="M148.523 150.487C146.465 150.487 119.119 150.193 115.002 149.899C113.532 148.134 115.002 142.842 115.002 141.078C115.002 139.313 115.884 137.549 118.237 137.843C120.119 138.078 132.547 138.725 138.526 139.019C138.133 139.509 137.761 140.783 139.408 141.96C141.466 143.43 145.288 142.842 147.935 142.842C150.581 142.842 150.581 150.487 148.523 150.487Z" fill="url(#paint6_linear)"/>
<path d="M91.1852 92.8547C87.6567 93.3252 85.5985 93.0507 85.0104 92.8547C86.1865 102.166 88.8329 121.024 90.0091 121.965C91.4793 123.141 99.4183 124.611 100.889 124.611C102.359 124.611 107.651 121.965 109.71 120.788C111.768 119.612 117.649 111.967 120.001 111.085C122.353 110.203 122.353 110.497 121.471 113.732C120.589 116.966 116.179 136.667 117.649 138.137C119.119 139.607 139.702 141.077 139.702 139.901C139.702 138.725 140.584 128.434 141.172 125.787C141.76 123.141 146.171 94.3249 145.583 91.6785C144.995 89.0321 142.642 86.3858 138.82 85.2097C134.997 84.0335 111.768 88.1501 107.651 89.0322C103.535 89.9143 95.5958 92.2666 91.1852 92.8547Z" fill="#31374B"/>
<path d="M91.1852 92.8547C87.6567 93.3252 85.5985 93.0507 85.0104 92.8547C86.1865 102.166 88.8329 121.024 90.0091 121.965C91.4793 123.141 99.4183 124.611 100.889 124.611C102.359 124.611 107.651 121.965 109.71 120.788C111.768 119.612 117.649 111.967 120.001 111.085C122.353 110.203 122.353 110.497 121.471 113.732C120.589 116.966 116.179 136.667 117.649 138.137C119.119 139.607 139.702 141.077 139.702 139.901C139.702 138.725 140.584 128.434 141.172 125.787C141.76 123.141 146.171 94.3249 145.583 91.6785C144.995 89.0321 142.642 86.3858 138.82 85.2097C134.997 84.0335 111.768 88.1501 107.651 89.0322C103.535 89.9143 95.5958 92.2666 91.1852 92.8547Z" fill="url(#paint7_linear)"/>
<path d="M40.6103 104.322C36.3762 106.909 33.5534 112.653 32.6713 115.201L33.2593 128.139C33.4554 129.217 34.4943 131.55 37.0819 132.256C40.3163 133.138 44.4329 132.844 47.0792 132.256C49.7256 131.668 56.1945 126.669 61.4872 124.905C66.7799 123.141 70.0144 120.788 74.425 120.494C78.8356 120.2 83.2462 121.67 86.7747 123.141C90.3031 124.611 90.5972 124.905 92.3614 123.141C93.7728 121.729 88.4409 102.166 85.5985 92.5603C85.3045 92.3643 84.4223 92.0898 83.2462 92.5603C81.776 93.1484 63.5455 94.0305 59.4289 94.3245C55.3124 94.6186 45.9031 101.087 40.6103 104.322Z" fill="#8B99A6"/>
<path d="M40.6103 104.322C36.3762 106.909 33.5534 112.653 32.6713 115.201L33.2593 128.139C33.4554 129.217 34.4943 131.55 37.0819 132.256C40.3163 133.138 44.4329 132.844 47.0792 132.256C49.7256 131.668 56.1945 126.669 61.4872 124.905C66.7799 123.141 70.0144 120.788 74.425 120.494C78.8356 120.2 83.2462 121.67 86.7747 123.141C90.3031 124.611 90.5972 124.905 92.3614 123.141C93.7728 121.729 88.4409 102.166 85.5985 92.5603C85.3045 92.3643 84.4223 92.0898 83.2462 92.5603C81.776 93.1484 63.5455 94.0305 59.4289 94.3245C55.3124 94.6186 45.9031 101.087 40.6103 104.322Z" fill="url(#paint8_linear)"/>
<path d="M30.9069 114.614C31.8478 114.379 34.0433 112.556 35.0234 111.674C37.6697 110.497 43.5507 109.909 47.3732 110.791C51.1957 111.674 50.9017 111.674 52.3719 114.614C53.8421 117.554 54.1361 121.083 52.3719 123.729C50.6076 126.376 47.6672 128.728 45.0209 130.492C42.3745 132.256 39.4341 131.374 36.4937 130.492C33.5533 129.61 29.7308 129.61 27.0844 128.728C24.4381 127.846 23.5559 126.67 20.3215 126.67H12.6764C10.324 126.67 10.9122 127.846 10.3241 130.492C9.73606 133.138 9.73606 140.195 10.9122 141.372C12.0884 142.548 13.5586 142.548 15.0288 143.136C16.499 143.724 24.7321 144.606 27.0844 146.076C29.4367 147.546 27.6725 148.723 24.7321 149.311C21.7917 149.899 8.26586 149.017 6.79566 148.723C5.32546 148.429 2.6791 142.254 1.79698 140.195C0.914855 138.137 0.0326711 127.258 0.0326711 125.199C0.0326711 123.141 -0.261369 116.672 0.914792 114.614C2.09095 112.556 10.3241 110.791 12.6764 110.791C15.0287 110.791 19.7334 111.674 21.4976 111.674C23.2618 111.674 29.7307 114.908 30.9069 114.614Z" fill="#AA6431"/>
<path d="M30.9069 114.614C31.8478 114.379 34.0433 112.556 35.0234 111.674C37.6697 110.497 43.5507 109.909 47.3732 110.791C51.1957 111.674 50.9017 111.674 52.3719 114.614C53.8421 117.554 54.1361 121.083 52.3719 123.729C50.6076 126.376 47.6672 128.728 45.0209 130.492C42.3745 132.256 39.4341 131.374 36.4937 130.492C33.5533 129.61 29.7308 129.61 27.0844 128.728C24.4381 127.846 23.5559 126.67 20.3215 126.67H12.6764C10.324 126.67 10.9122 127.846 10.3241 130.492C9.73606 133.138 9.73606 140.195 10.9122 141.372C12.0884 142.548 13.5586 142.548 15.0288 143.136C16.499 143.724 24.7321 144.606 27.0844 146.076C29.4367 147.546 27.6725 148.723 24.7321 149.311C21.7917 149.899 8.26586 149.017 6.79566 148.723C5.32546 148.429 2.6791 142.254 1.79698 140.195C0.914855 138.137 0.0326711 127.258 0.0326711 125.199C0.0326711 123.141 -0.261369 116.672 0.914792 114.614C2.09095 112.556 10.3241 110.791 12.6764 110.791C15.0287 110.791 19.7334 111.674 21.4976 111.674C23.2618 111.674 29.7307 114.908 30.9069 114.614Z" fill="url(#paint9_linear)"/>
</g>
<defs>
<linearGradient id="paint0_linear" x1="-2.84147" y1="135.973" x2="19.0276" y2="132.971" gradientUnits="userSpaceOnUse">
<stop stop-color="white"/>
<stop offset="1" stop-color="white" stop-opacity="0"/>
</linearGradient>
<linearGradient id="paint1_linear" x1="95.3802" y1="137.549" x2="113.143" y2="147.253" gradientUnits="userSpaceOnUse">
<stop stop-color="white"/>
<stop offset="1" stop-color="white" stop-opacity="0"/>
</linearGradient>
<linearGradient id="paint2_linear" x1="-19.0265" y1="109.453" x2="19.5801" y2="121.728" gradientUnits="userSpaceOnUse">
<stop stop-color="white"/>
<stop offset="1" stop-color="white" stop-opacity="0"/>
</linearGradient>
<linearGradient id="paint3_linear" x1="2.57303" y1="110.203" x2="23.0707" y2="106.749" gradientUnits="userSpaceOnUse">
<stop stop-color="white"/>
<stop offset="1" stop-color="white" stop-opacity="0"/>
</linearGradient>
<linearGradient id="paint4_linear" x1="49.6554" y1="98.3513" x2="79.6854" y2="144.867" gradientUnits="userSpaceOnUse">
<stop stop-color="white"/>
<stop offset="1" stop-color="white" stop-opacity="0"/>
</linearGradient>
<linearGradient id="paint5_linear" x1="90.3956" y1="113.388" x2="120.958" y2="120.095" gradientUnits="userSpaceOnUse">
<stop stop-color="white"/>
<stop offset="1" stop-color="white" stop-opacity="0"/>
</linearGradient>
<linearGradient id="paint6_linear" x1="66.0879" y1="139.622" x2="98.0772" y2="177.853" gradientUnits="userSpaceOnUse">
<stop stop-color="white"/>
<stop offset="1" stop-color="white" stop-opacity="0"/>
</linearGradient>
<linearGradient id="paint7_linear" x1="2.94075" y1="92.9041" x2="111.502" y2="143.453" gradientUnits="userSpaceOnUse">
<stop stop-color="white"/>
<stop offset="1" stop-color="white" stop-opacity="0"/>
</linearGradient>
<linearGradient id="paint8_linear" x1="7.60715" y1="117.574" x2="51.737" y2="107.966" gradientUnits="userSpaceOnUse">
<stop stop-color="white"/>
<stop offset="1" stop-color="white" stop-opacity="0"/>
</linearGradient>
<linearGradient id="paint9_linear" x1="-35.285" y1="131.927" x2="23.2216" y2="123.518" gradientUnits="userSpaceOnUse">
<stop stop-color="white"/>
<stop offset="1" stop-color="white" stop-opacity="0"/>
</linearGradient>
<clipPath id="clip0">
<rect width="150" height="150" fill="white"/>
</clipPath>
</defs>
</svg>
