<svg width="150" height="151" viewBox="0 0 150 151" fill="none" xmlns="http://www.w3.org/2000/svg">
<circle cx="69.9203" cy="131.103" r="13.745" fill="#F18701"/>
<circle cx="69.9203" cy="131.103" r="13.745" fill="url(#paint0_linear)"/>
<path d="M13.5926 94.982C12.5914 96.9843 11.0897 101.656 10.464 103.742L18.5984 106.871L33.3028 101.865V93.1048C31.7385 93.4177 28.3596 93.8557 27.3585 93.1048C26.107 92.1662 24.8556 88.4119 22.6656 88.7248C20.4755 89.0376 14.844 92.4791 13.5926 94.982Z" fill="#AA6431"/>
<path d="M13.5926 94.982C12.5914 96.9843 11.0897 101.656 10.464 103.742L18.5984 106.871L33.3028 101.865V93.1048C31.7385 93.4177 28.3596 93.8557 27.3585 93.1048C26.107 92.1662 24.8556 88.4119 22.6656 88.7248C20.4755 89.0376 14.844 92.4791 13.5926 94.982Z" fill="url(#paint1_linear)"/>
<path d="M16.4092 132.214C16.4092 130.462 19.1206 125.644 20.4764 123.454L13.9063 120.325L8.58765 129.711C9.42194 133.153 11.4034 140.036 12.6548 140.036C14.2191 140.036 17.9735 142.226 19.2249 142.226C20.4764 142.226 20.4764 140.974 19.2249 140.036C17.9735 139.097 24.2307 140.661 26.4207 140.974C28.6107 141.287 31.4265 139.723 29.8622 139.097C28.2979 138.471 21.4149 136.907 19.2249 135.968C17.0349 135.03 16.4092 134.404 16.4092 132.214Z" fill="#AA6431"/>
<path d="M16.4092 132.214C16.4092 130.462 19.1206 125.644 20.4764 123.454L13.9063 120.325L8.58765 129.711C9.42194 133.153 11.4034 140.036 12.6548 140.036C14.2191 140.036 17.9735 142.226 19.2249 142.226C20.4764 142.226 20.4764 140.974 19.2249 140.036C17.9735 139.097 24.2307 140.661 26.4207 140.974C28.6107 141.287 31.4265 139.723 29.8622 139.097C28.2979 138.471 21.4149 136.907 19.2249 135.968C17.0349 135.03 16.4092 134.404 16.4092 132.214Z" fill="url(#paint2_linear)"/>
<path d="M17.66 102.804C16.1582 102.804 11.6113 102.387 9.52558 102.178C8.27414 103.43 9.00415 109.374 9.52558 112.19C10.8813 115.423 13.8431 122.264 14.8442 123.766C16.0957 125.643 22.3529 124.704 24.23 123.766C26.1072 122.827 33.9287 115.006 34.8673 113.754C35.6182 112.753 35.1802 109.583 34.8673 108.123C29.7572 106.35 19.1617 102.804 17.66 102.804Z" fill="#212226"/>
<path d="M17.66 102.804C16.1582 102.804 11.6113 102.387 9.52558 102.178C8.27414 103.43 9.00415 109.374 9.52558 112.19C10.8813 115.423 13.8431 122.264 14.8442 123.766C16.0957 125.643 22.3529 124.704 24.23 123.766C26.1072 122.827 33.9287 115.006 34.8673 113.754C35.6182 112.753 35.1802 109.583 34.8673 108.123C29.7572 106.35 19.1617 102.804 17.66 102.804Z" fill="url(#paint3_linear)"/>
<path d="M106.2 139.409C106.2 138.158 108.286 132.631 109.329 130.023C109.329 130.962 113.709 134.403 115.273 135.029C116.524 135.53 116.211 138.784 115.899 140.348L110.58 143.164C109.12 142.434 106.2 140.661 106.2 139.409Z" fill="#212226"/>
<path d="M106.2 139.409C106.2 138.158 108.286 132.631 109.329 130.023C109.329 130.962 113.709 134.403 115.273 135.029C116.524 135.53 116.211 138.784 115.899 140.348L110.58 143.164C109.12 142.434 106.2 140.661 106.2 139.409Z" fill="url(#paint4_linear)"/>
<path d="M147.81 142.538C146.246 140.973 130.776 137.36 135.782 135.215C133.591 136.154 118.574 133.025 117.636 133.651C116.698 134.276 111.518 140.973 110.58 143.163C109.641 145.353 114.021 147.543 115.585 148.169C117.15 148.795 141.553 150.672 146.246 150.359C150.939 150.046 149.374 144.102 147.81 142.538Z" fill="#212226"/>
<path d="M147.81 142.538C146.246 140.973 130.776 137.36 135.782 135.215C133.591 136.154 118.574 133.025 117.636 133.651C116.698 134.276 111.518 140.973 110.58 143.163C109.641 145.353 114.021 147.543 115.585 148.169C117.15 148.795 141.553 150.672 146.246 150.359C150.939 150.046 149.374 144.102 147.81 142.538Z" fill="url(#paint5_linear)"/>
<path d="M116.212 110.313C117.713 107.309 120.175 98.8413 121.218 94.9827H128.1L116.212 134.716H112.77C111.206 134.716 110.267 132.839 109.329 131.587C108.39 130.336 109.642 126.269 110.267 122.827C110.893 119.386 114.335 114.067 116.212 110.313Z" fill="#31374B"/>
<path d="M116.212 110.313C117.713 107.309 120.175 98.8413 121.218 94.9827H128.1L116.212 134.716H112.77C111.206 134.716 110.267 132.839 109.329 131.587C108.39 130.336 109.642 126.269 110.267 122.827C110.893 119.386 114.335 114.067 116.212 110.313Z" fill="url(#paint6_linear)"/>
<path d="M74.6006 60.5684C78.3549 60.8187 84.5078 59.2127 87.115 58.3784L94.9365 69.3285L87.115 89.3516C85.0293 88.5173 80.1069 86.9113 77.1035 87.1616C73.3491 87.4745 71.472 90.6031 66.779 93.7317C62.0861 96.8603 54.2646 104.995 52.7003 107.185C51.136 109.375 47.6945 111.565 44.2531 112.816C41.4999 113.817 39.3516 112.399 38.6216 111.565L31.7386 93.7317L32.9901 89.3516C33.6158 87.1616 38.9344 77.1501 40.8116 74.3343C42.6888 71.5186 51.136 64.3228 55.2032 61.8199C59.2704 59.317 69.9077 60.2556 74.6006 60.5684Z" fill="#8B99A6"/>
<path d="M74.6006 60.5684C78.3549 60.8187 84.5078 59.2127 87.115 58.3784L94.9365 69.3285L87.115 89.3516C85.0293 88.5173 80.1069 86.9113 77.1035 87.1616C73.3491 87.4745 71.472 90.6031 66.779 93.7317C62.0861 96.8603 54.2646 104.995 52.7003 107.185C51.136 109.375 47.6945 111.565 44.2531 112.816C41.4999 113.817 39.3516 112.399 38.6216 111.565L31.7386 93.7317L32.9901 89.3516C33.6158 87.1616 38.9344 77.1501 40.8116 74.3343C42.6888 71.5186 51.136 64.3228 55.2032 61.8199C59.2704 59.317 69.9077 60.2556 74.6006 60.5684Z" fill="url(#paint7_linear)"/>
<path d="M35.8063 87.1611C33.0531 88.4125 32.3648 91.4369 32.3648 92.7926C32.3648 93.2097 32.1145 94.1691 31.1131 94.6697C29.8615 95.2954 19.2244 101.553 16.0958 103.43C12.9672 105.307 6.08429 115.006 3.89426 117.821C1.70424 120.637 0.765852 135.342 0.140131 137.844C-0.485591 140.347 1.07871 146.292 2.95588 147.543C4.83304 148.795 10.4645 149.42 12.9674 149.42C15.4703 149.42 20.7889 149.107 23.2918 148.482C25.7947 147.856 27.0462 145.666 23.2918 145.04C20.2884 144.54 11.4031 142.537 7.33593 141.599C7.44021 140.452 7.89908 137.594 8.90023 135.342C10.1517 132.526 15.7832 122.514 18.2861 119.386C20.7889 116.257 27.9847 111.251 29.549 110C31.1133 108.748 32.3648 110.313 35.8063 110C39.2477 109.687 47.3821 104.368 50.1978 103.43C53.0136 102.491 53.6393 92.7926 52.7007 89.6639C51.7622 86.5352 50.8236 84.0325 47.3821 83.0939C43.9406 82.1553 39.2477 85.5968 35.8063 87.1611Z" fill="#AA6431"/>
<path d="M35.8063 87.1611C33.0531 88.4125 32.3648 91.4369 32.3648 92.7926C32.3648 93.2097 32.1145 94.1691 31.1131 94.6697C29.8615 95.2954 19.2244 101.553 16.0958 103.43C12.9672 105.307 6.08429 115.006 3.89426 117.821C1.70424 120.637 0.765852 135.342 0.140131 137.844C-0.485591 140.347 1.07871 146.292 2.95588 147.543C4.83304 148.795 10.4645 149.42 12.9674 149.42C15.4703 149.42 20.7889 149.107 23.2918 148.482C25.7947 147.856 27.0462 145.666 23.2918 145.04C20.2884 144.54 11.4031 142.537 7.33593 141.599C7.44021 140.452 7.89908 137.594 8.90023 135.342C10.1517 132.526 15.7832 122.514 18.2861 119.386C20.7889 116.257 27.9847 111.251 29.549 110C31.1133 108.748 32.3648 110.313 35.8063 110C39.2477 109.687 47.3821 104.368 50.1978 103.43C53.0136 102.491 53.6393 92.7926 52.7007 89.6639C51.7622 86.5352 50.8236 84.0325 47.3821 83.0939C43.9406 82.1553 39.2477 85.5968 35.8063 87.1611Z" fill="url(#paint8_linear)"/>
<path d="M135.608 138.471C133.606 138.471 120.591 137.011 114.334 136.281C114.021 136.281 113.333 136.03 113.083 135.029C112.77 133.778 116.211 126.895 117.15 124.079C118.089 121.263 123.407 101.866 124.659 99.363C125.91 96.8601 118.089 95.6087 116.211 94.6701C114.334 93.7315 109.641 91.5415 106.513 92.7929C103.384 94.0444 92.434 95.6087 90.2439 94.6701C88.4919 93.9192 86.1767 91.2286 85.2382 89.9772C88.0539 88.7257 88.9925 78.4013 89.3053 74.9599C89.6182 71.5184 87.115 61.8197 86.8022 60.5683C86.4893 59.3168 86.4893 57.7525 88.0536 57.1268C89.6179 56.5011 98.0652 58.3782 102.132 58.6911C106.2 59.004 109.015 61.8197 112.144 64.0097C115.273 66.1998 139.676 78.4013 143.743 80.9042C147.81 83.4071 150 87.1614 150 89.0386C150 90.9158 140.927 131.588 140.614 133.152C140.301 134.716 138.111 138.471 135.608 138.471Z" fill="#31374B"/>
<path d="M135.608 138.471C133.606 138.471 120.591 137.011 114.334 136.281C114.021 136.281 113.333 136.03 113.083 135.029C112.77 133.778 116.211 126.895 117.15 124.079C118.089 121.263 123.407 101.866 124.659 99.363C125.91 96.8601 118.089 95.6087 116.211 94.6701C114.334 93.7315 109.641 91.5415 106.513 92.7929C103.384 94.0444 92.434 95.6087 90.2439 94.6701C88.4919 93.9192 86.1767 91.2286 85.2382 89.9772C88.0539 88.7257 88.9925 78.4013 89.3053 74.9599C89.6182 71.5184 87.115 61.8197 86.8022 60.5683C86.4893 59.3168 86.4893 57.7525 88.0536 57.1268C89.6179 56.5011 98.0652 58.3782 102.132 58.6911C106.2 59.004 109.015 61.8197 112.144 64.0097C115.273 66.1998 139.676 78.4013 143.743 80.9042C147.81 83.4071 150 87.1614 150 89.0386C150 90.9158 140.927 131.588 140.614 133.152C140.301 134.716 138.111 138.471 135.608 138.471Z" fill="url(#paint9_linear)"/>
<defs>
<linearGradient id="paint0_linear" x1="45.9447" y1="94.856" x2="76.4613" y2="142.126" gradientUnits="userSpaceOnUse">
<stop stop-color="white"/>
<stop offset="1" stop-color="white" stop-opacity="0"/>
</linearGradient>
<linearGradient id="paint1_linear" x1="-4.57442" y1="98.7115" x2="20.4403" y2="95.4097" gradientUnits="userSpaceOnUse">
<stop stop-color="white"/>
<stop offset="1" stop-color="white" stop-opacity="0"/>
</linearGradient>
<linearGradient id="paint2_linear" x1="-5.71906" y1="132.388" x2="18.2333" y2="129.894" gradientUnits="userSpaceOnUse">
<stop stop-color="white"/>
<stop offset="1" stop-color="white" stop-opacity="0"/>
</linearGradient>
<linearGradient id="paint3_linear" x1="-26.9671" y1="105.417" x2="19.2915" y2="128.348" gradientUnits="userSpaceOnUse">
<stop stop-color="white"/>
<stop offset="1" stop-color="white" stop-opacity="0"/>
</linearGradient>
<linearGradient id="paint4_linear" x1="92.692" y1="131.901" x2="112.384" y2="138.255" gradientUnits="userSpaceOnUse">
<stop stop-color="white"/>
<stop offset="1" stop-color="white" stop-opacity="0"/>
</linearGradient>
<linearGradient id="paint5_linear" x1="57.7561" y1="135.971" x2="100.89" y2="178.372" gradientUnits="userSpaceOnUse">
<stop stop-color="white"/>
<stop offset="1" stop-color="white" stop-opacity="0"/>
</linearGradient>
<linearGradient id="paint6_linear" x1="83.1235" y1="100.659" x2="123.091" y2="108.827" gradientUnits="userSpaceOnUse">
<stop stop-color="white"/>
<stop offset="1" stop-color="white" stop-opacity="0"/>
</linearGradient>
<linearGradient id="paint7_linear" x1="5.30502" y1="92.5541" x2="52.6862" y2="84.5083" gradientUnits="userSpaceOnUse">
<stop stop-color="white"/>
<stop offset="1" stop-color="white" stop-opacity="0"/>
</linearGradient>
<linearGradient id="paint8_linear" x1="-34.9691" y1="119.556" x2="23.7982" y2="114.628" gradientUnits="userSpaceOnUse">
<stop stop-color="white"/>
<stop offset="1" stop-color="white" stop-opacity="0"/>
</linearGradient>
<linearGradient id="paint9_linear" x1="-2.43007" y1="68.6387" x2="124.228" y2="111.422" gradientUnits="userSpaceOnUse">
<stop stop-color="white"/>
<stop offset="1" stop-color="white" stop-opacity="0"/>
</linearGradient>
</defs>
</svg>
