<svg width="150" height="150" viewBox="0 0 150 150" fill="none" xmlns="http://www.w3.org/2000/svg">
<g clip-path="url(#clip0)">
<path d="M28.3655 140.436H20.162L8.61621 127.897L11.6546 123.508L22.2888 131.032L28.3655 140.436Z" fill="#AA6431"/>
<path d="M28.3655 140.436H20.162L8.61621 127.897L11.6546 123.508L22.2888 131.032L28.3655 140.436Z" fill="url(#paint0_linear)"/>
<path d="M14.5406 111.378C13.6378 112.28 14.1644 114.951 14.5406 116.174L27.8011 129.434L37.3936 126.331C37.7698 125.484 38.2964 123.453 37.3936 122.099C36.2651 120.406 33.4437 117.584 31.1867 115.327C28.9296 113.07 22.4405 110.249 20.7477 109.685C19.0549 109.12 15.6691 110.249 14.5406 111.378Z" fill="#AA6431"/>
<path d="M14.5406 111.378C13.6378 112.28 14.1644 114.951 14.5406 116.174L27.8011 129.434L37.3936 126.331C37.7698 125.484 38.2964 123.453 37.3936 122.099C36.2651 120.406 33.4437 117.584 31.1867 115.327C28.9296 113.07 22.4405 110.249 20.7477 109.685C19.0549 109.12 15.6691 110.249 14.5406 111.378Z" fill="url(#paint1_linear)"/>
<path d="M1.56255 132.819C2.40895 130.844 5.51241 127.177 6.35881 126.612C7.48741 125.672 10.0267 124.355 11.1553 126.612C12.5659 129.434 23.0049 139.591 21.8763 140.437C20.7478 141.283 15.3873 144.387 12.2838 145.233C9.18035 146.08 8.61608 145.515 6.35881 145.233C4.10154 144.951 0.716148 141.001 0.151881 138.744C-0.412385 136.487 0.716148 134.794 1.56255 132.819Z" fill="#212226"/>
<path d="M1.56255 132.819C2.40895 130.844 5.51241 127.177 6.35881 126.612C7.48741 125.672 10.0267 124.355 11.1553 126.612C12.5659 129.434 23.0049 139.591 21.8763 140.437C20.7478 141.283 15.3873 144.387 12.2838 145.233C9.18035 146.08 8.61608 145.515 6.35881 145.233C4.10154 144.951 0.716148 141.001 0.151881 138.744C-0.412385 136.487 0.716148 134.794 1.56255 132.819Z" fill="url(#paint2_linear)"/>
<path d="M138.115 135.358H132.472L130.498 139.872C131.814 140.436 134.617 141.565 135.294 141.565C136.14 141.565 139.526 140.718 140.654 139.872C141.783 139.025 140.09 135.358 138.115 135.358Z" fill="#212226"/>
<path d="M138.115 135.358H132.472L130.498 139.872C131.814 140.436 134.617 141.565 135.294 141.565C136.14 141.565 139.526 140.718 140.654 139.872C141.783 139.025 140.09 135.358 138.115 135.358Z" fill="url(#paint3_linear)"/>
<path d="M113.852 148.336C112.723 147.433 113.005 142.693 113.287 140.436C119.118 137.991 130.949 133.496 131.626 135.075C132.472 137.05 137.551 141 139.808 141.282C142.065 141.565 146.297 141.282 148.272 142.411C150.247 143.539 150.529 148.336 149.118 149.182C147.708 150.029 129.651 150.029 127.394 150.029C125.137 150.029 115.262 149.464 113.852 148.336Z" fill="#212226"/>
<path d="M113.852 148.336C112.723 147.433 113.005 142.693 113.287 140.436C119.118 137.991 130.949 133.496 131.626 135.075C132.472 137.05 137.551 141 139.808 141.282C142.065 141.565 146.297 141.282 148.272 142.411C150.247 143.539 150.529 148.336 149.118 149.182C147.708 150.029 129.651 150.029 127.394 150.029C125.137 150.029 115.262 149.464 113.852 148.336Z" fill="url(#paint4_linear)"/>
<path d="M94.3847 99.8094C93.2562 101.502 83.3815 119.277 82.8173 120.123L84.5101 135.358C87.0493 139.214 92.5791 146.982 94.3847 147.208C96.6418 147.49 98.8988 144.951 101.72 142.411C104.542 139.872 106.516 134.512 107.363 131.69C108.209 128.869 109.902 120.123 110.466 122.944C111.031 125.766 111.313 138.462 112.441 140.154C113.57 141.847 116.955 141.565 118.648 141.565C120.341 141.565 133.601 135.922 133.883 135.358C134.165 134.794 133.037 131.126 132.755 129.151C132.473 127.176 118.084 94.1668 116.955 92.474C115.827 90.7812 114.416 88.5241 107.363 89.0884C100.31 89.6526 95.5132 98.1166 94.3847 99.8094Z" fill="#31374B"/>
<path d="M94.3847 99.8094C93.2562 101.502 83.3815 119.277 82.8173 120.123L84.5101 135.358C87.0493 139.214 92.5791 146.982 94.3847 147.208C96.6418 147.49 98.8988 144.951 101.72 142.411C104.542 139.872 106.516 134.512 107.363 131.69C108.209 128.869 109.902 120.123 110.466 122.944C111.031 125.766 111.313 138.462 112.441 140.154C113.57 141.847 116.955 141.565 118.648 141.565C120.341 141.565 133.601 135.922 133.883 135.358C134.165 134.794 133.037 131.126 132.755 129.151C132.473 127.176 118.084 94.1668 116.955 92.474C115.827 90.7812 114.416 88.5241 107.363 89.0884C100.31 89.6526 95.5132 98.1166 94.3847 99.8094Z" fill="url(#paint5_linear)"/>
<path d="M43.0363 120.969C41.0049 121.872 33.1616 126.612 29.4939 128.869C31.3748 133.853 35.4187 144.273 36.5472 146.079C37.9579 148.336 45.5755 147.49 49.5253 146.926C53.4752 146.361 67.5819 144.951 70.4032 145.515C73.2245 146.079 93.5381 148.054 94.1024 147.49C94.6666 146.926 94.6666 145.515 94.1024 143.822C93.5381 142.129 86.2027 130.28 85.0741 127.74C83.9456 125.201 85.6384 118.712 84.2277 118.712C82.8171 118.712 78.8672 118.994 76.6101 118.712C74.3531 118.43 62.5035 115.609 59.9643 116.173C57.4251 116.737 45.5755 119.841 43.0363 120.969Z" fill="#8B99A6"/>
<path d="M43.0363 120.969C41.0049 121.872 33.1616 126.612 29.4939 128.869C31.3748 133.853 35.4187 144.273 36.5472 146.079C37.9579 148.336 45.5755 147.49 49.5253 146.926C53.4752 146.361 67.5819 144.951 70.4032 145.515C73.2245 146.079 93.5381 148.054 94.1024 147.49C94.6666 146.926 94.6666 145.515 94.1024 143.822C93.5381 142.129 86.2027 130.28 85.0741 127.74C83.9456 125.201 85.6384 118.712 84.2277 118.712C82.8171 118.712 78.8672 118.994 76.6101 118.712C74.3531 118.43 62.5035 115.609 59.9643 116.173C57.4251 116.737 45.5755 119.841 43.0363 120.969Z" fill="url(#paint6_linear)"/>
<path d="M26.3903 144.669C24.8103 144.217 19.7131 142.6 17.362 141.847V138.744C17.362 137.051 15.9515 132.255 15.3873 130.844C14.823 129.433 10.0267 124.919 10.8731 125.483C11.7195 126.048 24.6977 139.026 27.519 140.437C30.3403 141.847 35.1366 147.208 37.6758 147.208C40.215 147.208 45.8576 144.104 47.2683 142.694C48.679 141.283 50.6539 140.437 49.8075 137.897C48.9611 135.358 48.3968 132.537 45.8576 130.844C43.3184 129.151 41.6256 128.869 37.6758 129.433C33.7259 129.998 32.0331 129.998 30.9044 128.869C29.7757 127.741 24.6977 121.816 23.0049 119.559C21.3121 117.302 12.5659 113.07 10.8731 112.505C9.18034 111.941 6.07671 113.634 4.38391 115.045C2.69111 116.455 4.94818 128.587 5.51244 130.844C6.07671 133.101 10.873 144.669 11.7194 146.644C12.5658 148.618 12.2836 148.336 13.6943 148.336C15.105 148.336 17.362 150.311 21.0298 150.311C24.6975 150.311 28.3652 149.465 30.9044 149.465C33.4436 149.465 34.29 147.772 32.8794 147.208C31.4687 146.644 28.3652 145.233 26.3903 144.669Z" fill="#AA6431"/>
<path d="M26.3903 144.669C24.8103 144.217 19.7131 142.6 17.362 141.847V138.744C17.362 137.051 15.9515 132.255 15.3873 130.844C14.823 129.433 10.0267 124.919 10.8731 125.483C11.7195 126.048 24.6977 139.026 27.519 140.437C30.3403 141.847 35.1366 147.208 37.6758 147.208C40.215 147.208 45.8576 144.104 47.2683 142.694C48.679 141.283 50.6539 140.437 49.8075 137.897C48.9611 135.358 48.3968 132.537 45.8576 130.844C43.3184 129.151 41.6256 128.869 37.6758 129.433C33.7259 129.998 32.0331 129.998 30.9044 128.869C29.7757 127.741 24.6977 121.816 23.0049 119.559C21.3121 117.302 12.5659 113.07 10.8731 112.505C9.18034 111.941 6.07671 113.634 4.38391 115.045C2.69111 116.455 4.94818 128.587 5.51244 130.844C6.07671 133.101 10.873 144.669 11.7194 146.644C12.5658 148.618 12.2836 148.336 13.6943 148.336C15.105 148.336 17.362 150.311 21.0298 150.311C24.6975 150.311 28.3652 149.465 30.9044 149.465C33.4436 149.465 34.29 147.772 32.8794 147.208C31.4687 146.644 28.3652 145.233 26.3903 144.669Z" fill="url(#paint7_linear)"/>
</g>
<defs>
<linearGradient id="paint0_linear" x1="-4.38789" y1="132.833" x2="17.2946" y2="130.177" gradientUnits="userSpaceOnUse">
<stop stop-color="white"/>
<stop offset="1" stop-color="white" stop-opacity="0"/>
</linearGradient>
<linearGradient id="paint1_linear" x1="-1.66209" y1="120.496" x2="24.501" y2="117.204" gradientUnits="userSpaceOnUse">
<stop stop-color="white"/>
<stop offset="1" stop-color="white" stop-opacity="0"/>
</linearGradient>
<linearGradient id="paint2_linear" x1="-29.7293" y1="128.268" x2="9.78349" y2="146.42" gradientUnits="userSpaceOnUse">
<stop stop-color="white"/>
<stop offset="1" stop-color="white" stop-opacity="0"/>
</linearGradient>
<linearGradient id="paint3_linear" x1="116.258" y1="136.244" x2="131.351" y2="147.113" gradientUnits="userSpaceOnUse">
<stop stop-color="white"/>
<stop offset="1" stop-color="white" stop-opacity="0"/>
</linearGradient>
<linearGradient id="paint4_linear" x1="62.9955" y1="136.93" x2="102.161" y2="177.186" gradientUnits="userSpaceOnUse">
<stop stop-color="white"/>
<stop offset="1" stop-color="white" stop-opacity="0"/>
</linearGradient>
<linearGradient id="paint5_linear" x1="13.6283" y1="97.3185" x2="111.393" y2="133.783" gradientUnits="userSpaceOnUse">
<stop stop-color="white"/>
<stop offset="1" stop-color="white" stop-opacity="0"/>
</linearGradient>
<linearGradient id="paint6_linear" x1="2.29324" y1="135.744" x2="48.2124" y2="121.787" gradientUnits="userSpaceOnUse">
<stop stop-color="white"/>
<stop offset="1" stop-color="white" stop-opacity="0"/>
</linearGradient>
<linearGradient id="paint7_linear" x1="-26.6858" y1="133.279" x2="24.0173" y2="126.787" gradientUnits="userSpaceOnUse">
<stop stop-color="white"/>
<stop offset="1" stop-color="white" stop-opacity="0"/>
</linearGradient>
<clipPath id="clip0">
<rect width="150" height="150" fill="white"/>
</clipPath>
</defs>
</svg>
