<svg width="150" height="150" viewBox="0 0 150 150" fill="none" xmlns="http://www.w3.org/2000/svg">
<path d="M88.4457 141.325C88.1566 140.747 89.0482 135.783 89.5301 133.373H89.1686C92.7831 132.771 100.157 131.566 100.735 131.566C101.458 131.566 105.434 134.096 107.241 134.819C109.048 135.542 114.108 138.072 115.554 138.795L115.554 138.795C117 139.518 114.831 142.771 113.024 143.132C111.217 143.494 99.6506 143.132 97.1205 143.132C94.5903 143.132 88.8072 142.048 88.4457 141.325Z" fill="#212226"/>
<path d="M88.4457 141.325C88.1566 140.747 89.0482 135.783 89.5301 133.373H89.1686C92.7831 132.771 100.157 131.566 100.735 131.566C101.458 131.566 105.434 134.096 107.241 134.819C109.048 135.542 114.108 138.072 115.554 138.795L115.554 138.795C117 139.518 114.831 142.771 113.024 143.132C111.217 143.494 99.6506 143.132 97.1205 143.132C94.5903 143.132 88.8072 142.048 88.4457 141.325Z" fill="url(#paint0_linear)"/>
<path d="M44.7108 116.747V0H27V150L44.7108 116.747Z" fill="#969696"/>
<path d="M94.5901 73.3737C93.7227 71.9279 94.2287 66.5062 94.5901 63.9761L109.771 54.5785C111.819 54.3376 116.277 54.2894 117.723 56.0243C119.53 58.193 120.976 67.2291 121.699 70.8436C122.422 74.4581 122.422 94.3376 121.699 98.6749C120.976 103.012 107.241 132.289 104.711 133.735C102.181 135.181 97.4814 135.904 94.9513 135.904C92.4211 135.904 85.9151 133.735 86.9994 129.759C88.0838 125.783 88.8067 122.169 90.2525 119.639C91.6982 117.109 103.265 93.6147 103.626 90.3617C103.987 87.1087 102.18 78.7954 100.734 78.0725C99.2886 77.3496 95.6745 75.1809 94.5901 73.3737Z" fill="#31374B"/>
<path d="M94.5901 73.3737C93.7227 71.9279 94.2287 66.5062 94.5901 63.9761L109.771 54.5785C111.819 54.3376 116.277 54.2894 117.723 56.0243C119.53 58.193 120.976 67.2291 121.699 70.8436C122.422 74.4581 122.422 94.3376 121.699 98.6749C120.976 103.012 107.241 132.289 104.711 133.735C102.181 135.181 97.4814 135.904 94.9513 135.904C92.4211 135.904 85.9151 133.735 86.9994 129.759C88.0838 125.783 88.8067 122.169 90.2525 119.639C91.6982 117.109 103.265 93.6147 103.626 90.3617C103.987 87.1087 102.18 78.7954 100.734 78.0725C99.2886 77.3496 95.6745 75.1809 94.5901 73.3737Z" fill="url(#paint1_linear)"/>
<path d="M84.47 23.8557C81.5785 22.9882 77.723 25.181 76.1568 26.3858C73.5062 29.0364 68.0604 34.3377 67.4821 34.3377C66.7592 34.3377 68.9279 45.181 72.1809 45.9039C75.4339 46.6268 85.5544 50.6027 87.723 52.41C89.8917 54.2172 94.952 57.8316 94.2291 59.6389C93.5062 61.4461 91.6989 65.0606 94.952 65.0606C98.205 65.0606 109.771 63.2533 111.94 61.4461C114.109 59.6389 115.916 56.3859 115.554 54.5786C115.193 52.7714 112.663 48.7955 111.94 45.9039C111.217 43.0124 107.241 37.2292 104.35 34.3377C101.458 31.4461 88.0845 24.94 84.47 23.8557Z" fill="#8B99A6"/>
<path d="M84.47 23.8557C81.5785 22.9882 77.723 25.181 76.1568 26.3858C73.5062 29.0364 68.0604 34.3377 67.4821 34.3377C66.7592 34.3377 68.9279 45.181 72.1809 45.9039C75.4339 46.6268 85.5544 50.6027 87.723 52.41C89.8917 54.2172 94.952 57.8316 94.2291 59.6389C93.5062 61.4461 91.6989 65.0606 94.952 65.0606C98.205 65.0606 109.771 63.2533 111.94 61.4461C114.109 59.6389 115.916 56.3859 115.554 54.5786C115.193 52.7714 112.663 48.7955 111.94 45.9039C111.217 43.0124 107.241 37.2292 104.35 34.3377C101.458 31.4461 88.0845 24.94 84.47 23.8557Z" fill="url(#paint2_linear)"/>
<path d="M39.2892 24.9399V15.1809C39.2892 14.8194 39.5061 13.8797 40.3735 13.0122C41.4579 11.9279 46.8795 12.2893 50.494 11.9279C53.3856 11.6387 59.4097 13.9761 62.0603 15.1809L59.1687 18.7953H50.494C48.3253 18.7953 45.0723 17.711 43.2651 17.711C41.4579 17.711 42.5422 20.6026 42.1808 24.9399C41.8193 29.2773 39.2892 26.7471 39.2892 24.9399Z" fill="#AA6431"/>
<path d="M39.2892 24.9399V15.1809C39.2892 14.8194 39.5061 13.8797 40.3735 13.0122C41.4579 11.9279 46.8795 12.2893 50.494 11.9279C53.3856 11.6387 59.4097 13.9761 62.0603 15.1809L59.1687 18.7953H50.494C48.3253 18.7953 45.0723 17.711 43.2651 17.711C41.4579 17.711 42.5422 20.6026 42.1808 24.9399C41.8193 29.2773 39.2892 26.7471 39.2892 24.9399Z" fill="url(#paint3_linear)"/>
<path d="M33.8674 7.59053C32.4216 9.03631 33.265 17.1086 33.8674 20.964C34.1237 22.7713 37.1204 23.8556 37.4818 20.964C37.8433 18.0725 37.1204 11.205 40.012 11.205H50.4939C53.3855 11.205 58.4457 14.458 60.9758 16.6267C63.5059 18.7954 66.0361 20.964 66.0361 23.8556C66.0361 26.7472 69.2891 33.9761 70.7349 36.5062C72.1806 39.0363 73.6264 41.9279 76.1565 43.7351C78.6867 45.5423 83.024 43.3737 85.1927 41.9279C87.3614 40.4821 88.8071 39.0363 90.2529 37.952C91.6987 36.8676 89.8915 33.2532 88.8071 31.0845C87.7228 28.9158 84.1083 26.7472 83.024 25.6628C81.9397 24.5785 79.0481 24.217 77.6023 23.8556C76.1565 23.4941 75.7951 19.1568 74.7108 16.6267C73.6264 14.0966 67.4818 8.67487 64.5903 6.50619C61.6987 4.33752 52.6626 3.97607 47.6023 3.97607C42.5421 3.97607 35.6746 5.7833 33.8674 7.59053Z" fill="#AA6431"/>
<path d="M33.8674 7.59053C32.4216 9.03631 33.265 17.1086 33.8674 20.964C34.1237 22.7713 37.1204 23.8556 37.4818 20.964C37.8433 18.0725 37.1204 11.205 40.012 11.205H50.4939C53.3855 11.205 58.4457 14.458 60.9758 16.6267C63.5059 18.7954 66.0361 20.964 66.0361 23.8556C66.0361 26.7472 69.2891 33.9761 70.7349 36.5062C72.1806 39.0363 73.6264 41.9279 76.1565 43.7351C78.6867 45.5423 83.024 43.3737 85.1927 41.9279C87.3614 40.4821 88.8071 39.0363 90.2529 37.952C91.6987 36.8676 89.8915 33.2532 88.8071 31.0845C87.7228 28.9158 84.1083 26.7472 83.024 25.6628C81.9397 24.5785 79.0481 24.217 77.6023 23.8556C76.1565 23.4941 75.7951 19.1568 74.7108 16.6267C73.6264 14.0966 67.4818 8.67487 64.5903 6.50619C61.6987 4.33752 52.6626 3.97607 47.6023 3.97607C42.5421 3.97607 35.6746 5.7833 33.8674 7.59053Z" fill="url(#paint4_linear)"/>
<path d="M59.1688 13.7349C58.3013 14.0241 56.3977 15.0602 55.5543 15.5421L66.3977 30.7229L68.5664 26.3855C68.0844 24.8193 67.1206 21.6144 67.1206 21.3253C67.1206 20.9638 60.2531 13.3735 59.1688 13.7349Z" fill="#AA6431"/>
<path d="M59.1688 13.7349C58.3013 14.0241 56.3977 15.0602 55.5543 15.5421L66.3977 30.7229L68.5664 26.3855C68.0844 24.8193 67.1206 21.6144 67.1206 21.3253C67.1206 20.9638 60.2531 13.3735 59.1688 13.7349Z" fill="url(#paint5_linear)"/>
<path d="M68.9278 32.169C68.3495 30.7232 60.0122 20.0003 55.9158 14.8196C54.1087 13.0124 49.4098 19.5184 48.6869 20.6027C47.964 21.6871 46.1568 30.3618 46.8797 31.8076C47.6025 33.2533 50.4941 34.3377 53.3857 35.0606C56.2772 35.7835 69.6507 33.9762 68.9278 32.169Z" fill="#212226"/>
<path d="M68.9278 32.169C68.3495 30.7232 60.0122 20.0003 55.9158 14.8196C54.1087 13.0124 49.4098 19.5184 48.6869 20.6027C47.964 21.6871 46.1568 30.3618 46.8797 31.8076C47.6025 33.2533 50.4941 34.3377 53.3857 35.0606C56.2772 35.7835 69.6507 33.9762 68.9278 32.169Z" fill="url(#paint6_linear)"/>
<defs>
<linearGradient id="paint0_linear" x1="50.9767" y1="133.241" x2="81.0421" y2="163.351" gradientUnits="userSpaceOnUse">
<stop stop-color="white"/>
<stop offset="1" stop-color="white" stop-opacity="0"/>
</linearGradient>
<linearGradient id="paint1_linear" x1="39.0086" y1="66.0917" x2="113.523" y2="79.8393" gradientUnits="userSpaceOnUse">
<stop stop-color="white"/>
<stop offset="1" stop-color="white" stop-opacity="0"/>
</linearGradient>
<linearGradient id="paint2_linear" x1="47.1581" y1="49.4867" x2="83.3172" y2="43.283" gradientUnits="userSpaceOnUse">
<stop stop-color="white"/>
<stop offset="1" stop-color="white" stop-opacity="0"/>
</linearGradient>
<linearGradient id="paint3_linear" x1="24.2954" y1="20.4032" x2="49.0757" y2="16.5645" gradientUnits="userSpaceOnUse">
<stop stop-color="white"/>
<stop offset="1" stop-color="white" stop-opacity="0"/>
</linearGradient>
<linearGradient id="paint4_linear" x1="-4.93835" y1="26.2543" x2="57.9721" y2="16.8291" gradientUnits="userSpaceOnUse">
<stop stop-color="white"/>
<stop offset="1" stop-color="white" stop-opacity="0"/>
</linearGradient>
<linearGradient id="paint5_linear" x1="46.9864" y1="23.0865" x2="61.3934" y2="21.9289" gradientUnits="userSpaceOnUse">
<stop stop-color="white"/>
<stop offset="1" stop-color="white" stop-opacity="0"/>
</linearGradient>
<linearGradient id="paint6_linear" x1="16.6005" y1="17.4643" x2="56.7184" y2="35.7661" gradientUnits="userSpaceOnUse">
<stop stop-color="white"/>
<stop offset="1" stop-color="white" stop-opacity="0"/>
</linearGradient>
</defs>
</svg>
