<svg width="150" height="150" viewBox="0 0 150 150" fill="none" xmlns="http://www.w3.org/2000/svg">
<path d="M86.6229 147.881C86.3116 147.259 87.2715 141.914 87.7904 139.32H87.4013C91.2929 138.671 99.2318 137.374 99.8544 137.374C100.633 137.374 104.914 140.098 106.859 140.876C108.805 141.655 114.253 144.379 115.81 145.157C117.367 145.936 115.032 149.438 113.086 149.827C111.14 150.216 98.6869 149.827 95.9628 149.827C93.2387 149.827 87.0121 148.66 86.6229 147.881Z" fill="#212226"/>
<path d="M86.6229 147.881C86.3116 147.259 87.2715 141.914 87.7904 139.32H87.4013C91.2929 138.671 99.2318 137.374 99.8544 137.374C100.633 137.374 104.914 140.098 106.859 140.876C108.805 141.655 114.253 144.379 115.81 145.157C117.367 145.936 115.032 149.438 113.086 149.827C111.14 150.216 98.6869 149.827 95.9628 149.827C93.2387 149.827 87.0121 148.66 86.6229 147.881Z" fill="url(#paint0_linear)"/>
<path d="M93.2383 74.7186C92.3044 73.1619 92.8492 67.3245 93.2383 64.6004L109.583 54.4822C111.789 54.2228 116.588 54.1709 118.145 56.0388C120.091 58.3738 121.647 68.1028 122.426 71.9944C123.204 75.8861 123.204 97.2899 122.426 101.96C121.647 106.63 106.859 138.152 104.135 139.708C101.411 141.265 96.3513 142.043 93.6271 142.043C90.903 142.043 83.8981 139.708 85.0656 135.428C86.2331 131.147 87.0114 127.255 88.568 124.531C90.1247 121.807 102.578 96.5116 102.967 93.0091C103.356 89.5067 101.41 80.556 99.8537 79.7777C98.2971 78.9993 94.4058 76.6644 93.2383 74.7186Z" fill="#31374B"/>
<path d="M93.2383 74.7186C92.3044 73.1619 92.8492 67.3245 93.2383 64.6004L109.583 54.4822C111.789 54.2228 116.588 54.1709 118.145 56.0388C120.091 58.3738 121.647 68.1028 122.426 71.9944C123.204 75.8861 123.204 97.2899 122.426 101.96C121.647 106.63 106.859 138.152 104.135 139.708C101.411 141.265 96.3513 142.043 93.6271 142.043C90.903 142.043 83.8981 139.708 85.0656 135.428C86.2331 131.147 87.0114 127.255 88.568 124.531C90.1247 121.807 102.578 96.5116 102.967 93.0091C103.356 89.5067 101.41 80.556 99.8537 79.7777C98.2971 78.9993 94.4058 76.6644 93.2383 74.7186Z" fill="url(#paint1_linear)"/>
<path d="M82.3425 21.4036C79.2292 20.4696 75.0782 22.8305 73.3918 24.1277C70.538 26.9816 64.6746 32.6893 64.052 32.6893C63.2736 32.6893 65.6086 44.3641 69.1111 45.1425C72.6135 45.9208 83.51 50.2016 85.845 52.1474C88.1799 54.0932 93.6282 57.9848 92.8499 59.9306C92.0716 61.8764 90.1257 65.768 93.6282 65.768C97.1306 65.768 109.584 63.8222 111.919 61.8764C114.254 59.9306 116.2 56.4281 115.81 54.4823C115.421 52.5365 112.697 48.2558 111.919 45.1425C111.14 42.0292 106.86 35.8026 103.746 32.6893C100.633 29.576 86.2341 22.5711 82.3425 21.4036Z" fill="#8B99A6"/>
<path d="M82.3425 21.4036C79.2292 20.4696 75.0782 22.8305 73.3918 24.1277C70.538 26.9816 64.6746 32.6893 64.052 32.6893C63.2736 32.6893 65.6086 44.3641 69.1111 45.1425C72.6135 45.9208 83.51 50.2016 85.845 52.1474C88.1799 54.0932 93.6282 57.9848 92.8499 59.9306C92.0716 61.8764 90.1257 65.768 93.6282 65.768C97.1306 65.768 109.584 63.8222 111.919 61.8764C114.254 59.9306 116.2 56.4281 115.81 54.4823C115.421 52.5365 112.697 48.2558 111.919 45.1425C111.14 42.0292 106.86 35.8026 103.746 32.6893C100.633 29.576 86.2341 22.5711 82.3425 21.4036Z" fill="url(#paint2_linear)"/>
<path d="M33.697 22.5716V12.0643C33.697 11.6751 33.9305 10.6633 34.8645 9.7293C36.032 8.56181 41.8694 8.95099 45.761 8.56182C48.8743 8.2505 55.3603 10.7671 58.2142 12.0643L55.1009 15.9559H45.761C43.4261 15.9559 39.9236 14.7884 37.9778 14.7884C36.032 14.7884 37.1995 17.9017 36.8103 22.5716C36.4211 27.2416 33.697 24.5174 33.697 22.5716Z" fill="#AA6431"/>
<path d="M33.697 22.5716V12.0643C33.697 11.6751 33.9305 10.6633 34.8645 9.7293C36.032 8.56181 41.8694 8.95099 45.761 8.56182C48.8743 8.2505 55.3603 10.7671 58.2142 12.0643L55.1009 15.9559H45.761C43.4261 15.9559 39.9236 14.7884 37.9778 14.7884C36.032 14.7884 37.1995 17.9017 36.8103 22.5716C36.4211 27.2416 33.697 24.5174 33.697 22.5716Z" fill="url(#paint3_linear)"/>
<path d="M27.8595 3.89161C26.3029 5.44826 27.2109 14.1395 27.8595 18.2906C28.1355 20.2364 31.362 21.4039 31.7511 18.2906C32.1403 15.1773 31.362 7.78322 34.4752 7.78322H45.7609C48.8742 7.78322 54.3225 11.2857 57.0466 13.6206C59.7707 15.9556 62.4948 18.2906 62.4948 21.4039C62.4948 24.5172 65.9973 32.3004 67.5539 35.0245C69.1106 37.7486 70.6672 40.8619 73.3914 42.8077C76.1155 44.7535 80.7854 42.4186 83.1204 40.8619C85.4553 39.3053 87.012 37.7486 88.5686 36.5811C90.1253 35.4137 88.1795 31.5221 87.012 29.1871C85.8445 26.8521 81.9529 24.5172 80.7854 23.3497C79.6179 22.1822 76.5046 21.793 74.948 21.4039C73.3914 21.0147 73.0022 16.3448 71.8347 13.6206C70.6672 10.8965 64.0515 5.05909 60.9382 2.72413C57.8249 0.389161 48.0959 0 42.6476 0C37.1994 0 29.8053 1.94581 27.8595 3.89161Z" fill="#AA6431"/>
<path d="M27.8595 3.89161C26.3029 5.44826 27.2109 14.1395 27.8595 18.2906C28.1355 20.2364 31.362 21.4039 31.7511 18.2906C32.1403 15.1773 31.362 7.78322 34.4752 7.78322H45.7609C48.8742 7.78322 54.3225 11.2857 57.0466 13.6206C59.7707 15.9556 62.4948 18.2906 62.4948 21.4039C62.4948 24.5172 65.9973 32.3004 67.5539 35.0245C69.1106 37.7486 70.6672 40.8619 73.3914 42.8077C76.1155 44.7535 80.7854 42.4186 83.1204 40.8619C85.4553 39.3053 87.012 37.7486 88.5686 36.5811C90.1253 35.4137 88.1795 31.5221 87.012 29.1871C85.8445 26.8521 81.9529 24.5172 80.7854 23.3497C79.6179 22.1822 76.5046 21.793 74.948 21.4039C73.3914 21.0147 73.0022 16.3448 71.8347 13.6206C70.6672 10.8965 64.0515 5.05909 60.9382 2.72413C57.8249 0.389161 48.0959 0 42.6476 0C37.1994 0 29.8053 1.94581 27.8595 3.89161Z" fill="url(#paint4_linear)"/>
<path d="M55.1008 10.5069C54.1669 10.8182 52.1173 11.9338 51.2092 12.4527L62.8841 28.7975L65.219 24.1275C64.7001 22.4412 63.6624 18.9906 63.6624 18.6793C63.6624 18.2901 56.2683 10.1177 55.1008 10.5069Z" fill="#AA6431"/>
<path d="M55.1008 10.5069C54.1669 10.8182 52.1173 11.9338 51.2092 12.4527L62.8841 28.7975L65.219 24.1275C64.7001 22.4412 63.6624 18.9906 63.6624 18.6793C63.6624 18.2901 56.2683 10.1177 55.1008 10.5069Z" fill="url(#paint5_linear)"/>
<path d="M65.6085 30.3548C64.9858 28.7982 56.0092 17.2531 51.5987 11.6751C49.6531 9.72927 44.5938 16.7342 43.8155 17.9017C43.0371 19.0691 41.0913 28.409 41.8697 29.9657C42.648 31.5223 45.7613 32.6898 48.8746 33.4681C51.9879 34.2464 66.3868 32.3006 65.6085 30.3548Z" fill="#212226"/>
<path d="M65.6085 30.3548C64.9858 28.7982 56.0092 17.2531 51.5987 11.6751C49.6531 9.72927 44.5938 16.7342 43.8155 17.9017C43.0371 19.0691 41.0913 28.409 41.8697 29.9657C42.648 31.5223 45.7613 32.6898 48.8746 33.4681C51.9879 34.2464 66.3868 32.3006 65.6085 30.3548Z" fill="url(#paint6_linear)"/>
<defs>
<linearGradient id="paint0_linear" x1="46.2808" y1="139.178" x2="78.6515" y2="171.596" gradientUnits="userSpaceOnUse">
<stop stop-color="white"/>
<stop offset="1" stop-color="white" stop-opacity="0"/>
</linearGradient>
<linearGradient id="paint1_linear" x1="33.3948" y1="66.8781" x2="113.623" y2="81.6799" gradientUnits="userSpaceOnUse">
<stop stop-color="white"/>
<stop offset="1" stop-color="white" stop-opacity="0"/>
</linearGradient>
<linearGradient id="paint2_linear" x1="42.1695" y1="49" x2="81.1013" y2="42.3206" gradientUnits="userSpaceOnUse">
<stop stop-color="white"/>
<stop offset="1" stop-color="white" stop-opacity="0"/>
</linearGradient>
<linearGradient id="paint3_linear" x1="17.5535" y1="17.6871" x2="44.234" y2="13.554" gradientUnits="userSpaceOnUse">
<stop stop-color="white"/>
<stop offset="1" stop-color="white" stop-opacity="0"/>
</linearGradient>
<linearGradient id="paint4_linear" x1="-13.9218" y1="23.9865" x2="53.8125" y2="13.8385" gradientUnits="userSpaceOnUse">
<stop stop-color="white"/>
<stop offset="1" stop-color="white" stop-opacity="0"/>
</linearGradient>
<linearGradient id="paint5_linear" x1="41.9844" y1="20.5756" x2="57.4961" y2="19.3292" gradientUnits="userSpaceOnUse">
<stop stop-color="white"/>
<stop offset="1" stop-color="white" stop-opacity="0"/>
</linearGradient>
<linearGradient id="paint6_linear" x1="9.26879" y1="14.5226" x2="52.4628" y2="34.2277" gradientUnits="userSpaceOnUse">
<stop stop-color="white"/>
<stop offset="1" stop-color="white" stop-opacity="0"/>
</linearGradient>
</defs>
</svg>
