<svg width="150" height="150" viewBox="0 0 150 150" fill="none" xmlns="http://www.w3.org/2000/svg">
<path d="M41.2358 137.915C41.4326 135.059 43.9929 129.33 45.2485 126.822C49.1821 127.025 57.5705 127.725 59.6553 128.898C62.2612 130.363 62.7725 134.729 61.4349 138.427C60.0974 142.124 49.2306 147.601 46.6246 146.136C44.0186 144.671 40.9898 141.484 41.2358 137.915Z" fill="#212226"/>
<path d="M41.2358 137.915C41.4326 135.059 43.9929 129.33 45.2485 126.822C49.1821 127.025 57.5705 127.725 59.6553 128.898C62.2612 130.363 62.7725 134.729 61.4349 138.427C60.0974 142.124 49.2306 147.601 46.6246 146.136C44.0186 144.671 40.9898 141.484 41.2358 137.915Z" fill="url(#paint0_linear)"/>
<path d="M55.4139 12.7688C55.4139 16.5994 55.414 18.5148 57.3293 18.5148H72.6518C74.5671 18.5148 74.5671 15.961 74.5671 12.7688C74.5671 9.5766 72.6518 4.90431e-05 64.9905 0C57.3293 -4.90427e-05 55.4139 8.93816 55.4139 12.7688Z" fill="#212226"/>
<path d="M55.4139 12.7688C55.4139 16.5994 55.414 18.5148 57.3293 18.5148H72.6518C74.5671 18.5148 74.5671 15.961 74.5671 12.7688C74.5671 9.5766 72.6518 4.90431e-05 64.9905 0C57.3293 -4.90427e-05 55.4139 8.93816 55.4139 12.7688Z" fill="url(#paint1_linear)"/>
<path d="M86.059 20.43C85.0375 18.8978 79.249 19.7916 76.4824 20.43L77.7593 30.6451C78.8234 40.6473 80.9515 60.7794 80.9515 61.2902C80.9515 61.9286 83.5053 70.2283 86.059 69.5899C88.6128 68.9515 100.105 50.4367 100.105 47.2445C100.105 44.0523 95.6356 33.8373 95.6356 33.8373C95.6356 33.8373 87.3359 22.3453 86.059 20.43Z" fill="#AA6431"/>
<path d="M86.059 20.43C85.0375 18.8978 79.249 19.7916 76.4824 20.43L77.7593 30.6451C78.8234 40.6473 80.9515 60.7794 80.9515 61.2902C80.9515 61.9286 83.5053 70.2283 86.059 69.5899C88.6128 68.9515 100.105 50.4367 100.105 47.2445C100.105 44.0523 95.6356 33.8373 95.6356 33.8373C95.6356 33.8373 87.3359 22.3453 86.059 20.43Z" fill="url(#paint2_linear)"/>
<path fill-rule="evenodd" clip-rule="evenodd" d="M73.0349 57.0605L58.7356 59.0227C57.785 60.3033 56.5854 61.9936 55.2956 63.811C52.4353 67.8413 49.1312 72.4968 47.1146 74.697C44.1886 77.8894 40.7303 83.6345 39.4532 88.1041C38.6637 90.8675 40.2134 101.468 41.4233 109.745C42.1704 114.856 42.788 119.081 42.6453 120.027C42.2715 122.505 41.6512 128.965 41.6512 128.965C41.6512 128.965 40.7299 133.379 42.6452 134.072C44.5606 134.765 60.8437 131.756 62.4369 130.242C63.3881 129.337 63.2034 128.375 62.9001 126.795C62.6955 125.729 62.4369 124.381 62.4369 122.58C62.4369 118.111 68.9464 105.976 71.3756 102.15C72.4426 100.47 75.0759 96.9598 77.7503 93.3948C81.1647 88.8435 84.6461 84.2028 85.0211 83.1661C85.6899 81.3173 88.1094 71.7391 85.8772 67.7956C84.0915 64.6407 76.2965 57.1951 73.0349 57.0605ZM55.5236 99.127C55.4515 97.8813 55.4411 95.0203 55.9761 93.5413C56.6449 91.6925 57.4809 89.3815 58.8674 89.8831C59.9959 90.2913 59.2354 92.0934 58.6427 93.4976C58.5072 93.8188 58.3804 94.1192 58.2871 94.3773C57.8858 95.4865 56.2775 98.0059 55.5236 99.127Z" fill="#31374B"/>
<path fill-rule="evenodd" clip-rule="evenodd" d="M73.0349 57.0605L58.7356 59.0227C57.785 60.3033 56.5854 61.9936 55.2956 63.811C52.4353 67.8413 49.1312 72.4968 47.1146 74.697C44.1886 77.8894 40.7303 83.6345 39.4532 88.1041C38.6637 90.8675 40.2134 101.468 41.4233 109.745C42.1704 114.856 42.788 119.081 42.6453 120.027C42.2715 122.505 41.6512 128.965 41.6512 128.965C41.6512 128.965 40.7299 133.379 42.6452 134.072C44.5606 134.765 60.8437 131.756 62.4369 130.242C63.3881 129.337 63.2034 128.375 62.9001 126.795C62.6955 125.729 62.4369 124.381 62.4369 122.58C62.4369 118.111 68.9464 105.976 71.3756 102.15C72.4426 100.47 75.0759 96.9598 77.7503 93.3948C81.1647 88.8435 84.6461 84.2028 85.0211 83.1661C85.6899 81.3173 88.1094 71.7391 85.8772 67.7956C84.0915 64.6407 76.2965 57.1951 73.0349 57.0605ZM55.5236 99.127C55.4515 97.8813 55.4411 95.0203 55.9761 93.5413C56.6449 91.6925 57.4809 89.3815 58.8674 89.8831C59.9959 90.2913 59.2354 92.0934 58.6427 93.4976C58.5072 93.8188 58.3804 94.1192 58.2871 94.3773C57.8858 95.4865 56.2775 98.0059 55.5236 99.127Z" fill="url(#paint3_linear)"/>
<path d="M65.1968 21.9504C63.1806 21.9504 56.6908 22.2495 56.6908 24.8993C56.6908 27.4635 57.9677 39.8964 57.9677 43.4421C57.9677 47.8743 58.8852 53.3612 58.8852 56.5663C58.8852 59.7715 57.026 61.9288 58.8852 61.9288C60.7444 61.9288 69.1069 59.375 73.2902 59.375C77.4735 59.375 82.3562 67.6799 84.7821 66.3979C87.2081 65.1158 85.5942 64.1644 86.059 56.5663C86.5238 48.9683 87.6832 49.7721 88.6128 46.6062C89.5424 43.4404 78.3978 23.8501 78.3978 21.9504C78.3978 20.0506 78.7444 20.0433 76.4203 21.3094C74.0963 22.5756 66.9238 21.9504 65.1968 21.9504Z" fill="#8B99A6"/>
<path d="M65.1968 21.9504C63.1806 21.9504 56.6908 22.2495 56.6908 24.8993C56.6908 27.4635 57.9677 39.8964 57.9677 43.4421C57.9677 47.8743 58.8852 53.3612 58.8852 56.5663C58.8852 59.7715 57.026 61.9288 58.8852 61.9288C60.7444 61.9288 69.1069 59.375 73.2902 59.375C77.4735 59.375 82.3562 67.6799 84.7821 66.3979C87.2081 65.1158 85.5942 64.1644 86.059 56.5663C86.5238 48.9683 87.6832 49.7721 88.6128 46.6062C89.5424 43.4404 78.3978 23.8501 78.3978 21.9504C78.3978 20.0506 78.7444 20.0433 76.4203 21.3094C74.0963 22.5756 66.9238 21.9504 65.1968 21.9504Z" fill="url(#paint4_linear)"/>
<path d="M64.9905 32.7683C59.8829 32.7683 59.2445 25.5376 59.2445 24.2607V17.8763C59.2445 16.5995 70.7364 16.3442 70.7364 17.8764C70.7364 19.7918 70.098 22.9839 70.098 24.2607C70.098 25.5376 72.4649 27.8238 72.0133 29.3683C71.338 31.6778 68.0512 32.7683 64.9905 32.7683Z" fill="#AA6431"/>
<path d="M64.9905 32.7683C59.8829 32.7683 59.2445 25.5376 59.2445 24.2607V17.8763C59.2445 16.5995 70.7364 16.3442 70.7364 17.8764C70.7364 19.7918 70.098 22.9839 70.098 24.2607C70.098 25.5376 72.4649 27.8238 72.0133 29.3683C71.338 31.6778 68.0512 32.7683 64.9905 32.7683Z" fill="url(#paint5_linear)"/>
<path d="M57.3292 12.7687C57.3292 10.215 60.5214 3.19214 64.9905 3.19214C69.4596 3.19214 72.6518 11.4919 72.6518 14.0456C72.6518 16.5994 69.4596 23.6222 64.9905 23.6222C60.5214 23.6222 57.3292 15.9609 57.3292 12.7687Z" fill="#AA6431"/>
<path d="M57.3292 12.7687C57.3292 10.215 60.5214 3.19214 64.9905 3.19214C69.4596 3.19214 72.6518 11.4919 72.6518 14.0456C72.6518 16.5994 69.4596 23.6222 64.9905 23.6222C60.5214 23.6222 57.3292 15.9609 57.3292 12.7687Z" fill="url(#paint6_linear)"/>
<path d="M95.6356 12.7688H137.134V16.5994H95.6356V12.7688Z" fill="#0E0E2C"/>
<path d="M12 14.6841H40.0914V18.5147H12V14.6841Z" fill="#0E0E2C"/>
<path d="M66.2672 20.4301C63.7134 20.4301 47.7524 16.5994 40.0911 14.6841C39.6655 15.961 39.0696 18.5148 40.0911 18.5148C41.368 18.5148 64.3518 23.6223 66.2672 23.6223C67.7994 23.6223 86.4844 18.9404 95.6354 16.5994C96.2738 15.3226 97.1676 12.7688 95.6354 12.7688C93.7201 12.7688 69.4594 20.4301 66.2672 20.4301Z" fill="#0E0E2C"/>
<path d="M47.7526 31.2836C48.7741 28.7298 54.137 25.9632 56.6908 24.8992L61.7983 28.0914V51.7136C60.7342 52.7777 58.223 55.0335 56.6908 55.5443C54.7755 56.1827 50.3064 51.0752 49.6679 47.883C49.0295 44.6908 46.4757 34.4758 47.7526 31.2836Z" fill="#AA6431"/>
<path d="M47.7526 31.2836C48.7741 28.7298 54.137 25.9632 56.6908 24.8992L61.7983 28.0914V51.7136C60.7342 52.7777 58.223 55.0335 56.6908 55.5443C54.7755 56.1827 50.3064 51.0752 49.6679 47.883C49.0295 44.6908 46.4757 34.4758 47.7526 31.2836Z" fill="url(#paint7_linear)"/>
<path d="M66.9042 24.2606C67.415 22.2176 64.1377 20.0043 62.4351 19.1531C59.8814 19.1531 58.6045 21.0684 58.6045 23.6222C58.6045 26.1759 59.8814 28.0912 58.6045 30.645C57.3277 33.1988 51.5833 48.5213 52.2218 52.3519C52.6547 54.9485 56.0508 56.1826 58.6046 56.1826C61.1583 56.1826 64.9889 49.1597 64.9889 45.3291C64.9889 41.4985 64.3505 33.1988 64.9889 30.645C65.6273 28.0912 66.2658 26.8144 66.9042 24.2606Z" fill="#AA6431"/>
<path d="M66.9042 24.2606C67.415 22.2176 64.1377 20.0043 62.4351 19.1531C59.8814 19.1531 58.6045 21.0684 58.6045 23.6222C58.6045 26.1759 59.8814 28.0912 58.6045 30.645C57.3277 33.1988 51.5833 48.5213 52.2218 52.3519C52.6547 54.9485 56.0508 56.1826 58.6046 56.1826C61.1583 56.1826 64.9889 49.1597 64.9889 45.3291C64.9889 41.4985 64.3505 33.1988 64.9889 30.645C65.6273 28.0912 66.2658 26.8144 66.9042 24.2606Z" fill="url(#paint8_linear)"/>
<defs>
<linearGradient id="paint0_linear" x1="19.8988" y1="117.613" x2="49.4405" y2="144.025" gradientUnits="userSpaceOnUse">
<stop stop-color="white"/>
<stop offset="1" stop-color="white" stop-opacity="0"/>
</linearGradient>
<linearGradient id="paint1_linear" x1="29.4862" y1="2.64496" x2="64.4607" y2="18.0193" gradientUnits="userSpaceOnUse">
<stop stop-color="white"/>
<stop offset="1" stop-color="white" stop-opacity="0"/>
</linearGradient>
<linearGradient id="paint2_linear" x1="60.9281" y1="47.1473" x2="87.1872" y2="45.846" gradientUnits="userSpaceOnUse">
<stop stop-color="white"/>
<stop offset="1" stop-color="white" stop-opacity="0"/>
</linearGradient>
<linearGradient id="paint3_linear" x1="-25.1506" y1="68.0768" x2="71.8261" y2="93.495" gradientUnits="userSpaceOnUse">
<stop stop-color="white"/>
<stop offset="1" stop-color="white" stop-opacity="0"/>
</linearGradient>
<linearGradient id="paint4_linear" x1="43.3158" y1="49.1909" x2="67.7268" y2="46.6986" gradientUnits="userSpaceOnUse">
<stop stop-color="white"/>
<stop offset="1" stop-color="white" stop-opacity="0"/>
</linearGradient>
<linearGradient id="paint5_linear" x1="50.7991" y1="25.605" x2="64.9907" y2="24.4067" gradientUnits="userSpaceOnUse">
<stop stop-color="white"/>
<stop offset="1" stop-color="white" stop-opacity="0"/>
</linearGradient>
<linearGradient id="paint6_linear" x1="47.24" y1="14.4453" x2="64.2095" y2="13.1093" gradientUnits="userSpaceOnUse">
<stop stop-color="white"/>
<stop offset="1" stop-color="white" stop-opacity="0"/>
</linearGradient>
<linearGradient id="paint7_linear" x1="37.9194" y1="41.8091" x2="53.9253" y2="41.021" gradientUnits="userSpaceOnUse">
<stop stop-color="white"/>
<stop offset="1" stop-color="white" stop-opacity="0"/>
</linearGradient>
<linearGradient id="paint8_linear" x1="42.4371" y1="39.5495" x2="58.8841" y2="38.8601" gradientUnits="userSpaceOnUse">
<stop stop-color="white"/>
<stop offset="1" stop-color="white" stop-opacity="0"/>
</linearGradient>
</defs>
</svg>
