<svg width="150" height="150" viewBox="0 0 150 150" fill="none" xmlns="http://www.w3.org/2000/svg">
<path d="M89.6117 0H118.198V2.6387H89.6117V0Z" fill="#0E0E2C"/>
<path d="M32 1.31934H51.3505V3.95804H32V1.31934Z" fill="#0E0E2C"/>
<path d="M69.3815 5.27741C67.6223 5.27741 56.6277 2.6387 51.3503 1.31935C51.0571 2.19892 50.6467 3.95805 51.3503 3.95805C52.2299 3.95805 68.0621 7.47633 69.3815 7.47633C70.4369 7.47633 83.3079 4.25124 89.6115 2.6387C90.0513 1.75914 90.667 0 89.6115 0C88.2922 0 71.5804 5.27741 69.3815 5.27741Z" fill="#0E0E2C"/>
<path d="M52.8298 143.75C52.5651 141.71 53.5593 137.314 54.0894 135.37C56.8886 134.958 62.8954 134.266 64.5293 134.797C66.5716 135.461 67.5483 138.465 67.1284 141.258C66.7086 144.051 59.8286 149.443 57.7862 148.779C55.7439 148.115 53.1607 146.298 52.8298 143.75Z" fill="#212226"/>
<path d="M52.8298 143.75C52.5651 141.71 53.5593 137.314 54.0894 135.37C56.8886 134.958 62.8954 134.266 64.5293 134.797C66.5716 135.461 67.5483 138.465 67.1284 141.258C66.7086 144.051 59.8286 149.443 57.7862 148.779C55.7439 148.115 53.1607 146.298 52.8298 143.75Z" fill="url(#paint0_linear)"/>
<path fill-rule="evenodd" clip-rule="evenodd" d="M65.8045 74.0625L56.0106 77.4639C54.4384 80.7978 51.189 88.1639 50.7691 90.9569C50.2443 94.4483 49.8404 101.885 50.2763 103.736C50.7121 105.586 54.8266 123.342 54.9133 125.14C54.9295 125.477 54.963 125.867 54.9995 126.294C55.158 128.142 55.3753 130.677 54.5094 132.577C53.4438 134.916 54.4387 135.423 55.137 135.528C55.8352 135.632 64.5636 136.945 65.4718 135.653C65.9175 135.019 66.023 133.216 66.1346 131.31C66.2505 129.331 66.3729 127.24 66.8888 126.226C67.902 124.236 74.4009 109.504 75.5715 106.467C76.4951 104.071 77.3009 96.5438 77.7028 92.7888C77.8103 91.7849 77.8889 91.0506 77.9332 90.756C78.1431 89.3594 78.4945 82.2718 76.3654 79.8096C74.6622 77.8398 68.1207 73.6966 65.8045 74.0625ZM62.3726 112.912C61.6279 110.823 60.2381 105.982 60.6367 103.33C61.1349 100.016 61.7577 95.8729 64.8637 96.3398C67.3916 96.7198 66.6813 99.9805 66.1279 102.521C66.0013 103.102 65.8829 103.646 65.8134 104.109C65.5145 106.097 63.395 110.806 62.3726 112.912Z" fill="#31374B"/>
<path fill-rule="evenodd" clip-rule="evenodd" d="M65.8045 74.0625L56.0106 77.4639C54.4384 80.7978 51.189 88.1639 50.7691 90.9569C50.2443 94.4483 49.8404 101.885 50.2763 103.736C50.7121 105.586 54.8266 123.342 54.9133 125.14C54.9295 125.477 54.963 125.867 54.9995 126.294C55.158 128.142 55.3753 130.677 54.5094 132.577C53.4438 134.916 54.4387 135.423 55.137 135.528C55.8352 135.632 64.5636 136.945 65.4718 135.653C65.9175 135.019 66.023 133.216 66.1346 131.31C66.2505 129.331 66.3729 127.24 66.8888 126.226C67.902 124.236 74.4009 109.504 75.5715 106.467C76.4951 104.071 77.3009 96.5438 77.7028 92.7888C77.8103 91.7849 77.8889 91.0506 77.9332 90.756C78.1431 89.3594 78.4945 82.2718 76.3654 79.8096C74.6622 77.8398 68.1207 73.6966 65.8045 74.0625ZM62.3726 112.912C61.6279 110.823 60.2381 105.982 60.6367 103.33C61.1349 100.016 61.7577 95.8729 64.8637 96.3398C67.3916 96.7198 66.6813 99.9805 66.1279 102.521C66.0013 103.102 65.8829 103.646 65.8134 104.109C65.5145 106.097 63.395 110.806 62.3726 112.912Z" fill="url(#paint1_linear)"/>
<path d="M67.1697 37.3816C66.8464 32.2077 69.4333 30.2674 71.0502 30.2674C74.8616 29.75 75.4408 34.7947 75.254 37.3816H76.2242C76.3319 36.9505 76.5475 35.5061 76.5475 33.1778C76.5475 30.2674 74.9307 26.387 71.0502 26.387C67.1698 26.387 65.8762 31.5609 65.8762 33.1778C65.8762 34.4713 66.7386 36.5193 67.1697 37.3816Z" fill="#212226"/>
<path d="M67.1697 37.3816C66.8464 32.2077 69.4333 30.2674 71.0502 30.2674C74.8616 29.75 75.4408 34.7947 75.254 37.3816H76.2242C76.3319 36.9505 76.5475 35.5061 76.5475 33.1778C76.5475 30.2674 74.9307 26.387 71.0502 26.387C67.1698 26.387 65.8762 31.5609 65.8762 33.1778C65.8762 34.4713 66.7386 36.5193 67.1697 37.3816Z" fill="url(#paint2_linear)"/>
<path d="M82.1354 47.0569C80.3762 45.7375 79.4967 44.4182 77.2977 45.2977C77.2977 49.9887 77.6496 59.6346 79.0568 60.6901C80.8159 62.0095 83.0149 65.088 82.1354 66.8471C81.2558 68.6062 78.6171 67.2869 77.2977 67.7267C75.9784 68.1664 75.0988 74.7632 77.2977 74.3234C79.4967 73.8836 85.6536 73.0041 86.973 71.6847C88.2923 70.3654 88.2923 65.5277 88.2923 62.0095C88.2923 58.4912 87.4128 57.6116 86.973 55.4127C86.5332 53.2138 83.8945 48.3762 82.1354 47.0569Z" fill="#AA6431"/>
<path d="M82.1354 47.0569C80.3762 45.7375 79.4967 44.4182 77.2977 45.2977C77.2977 49.9887 77.6496 59.6346 79.0568 60.6901C80.8159 62.0095 83.0149 65.088 82.1354 66.8471C81.2558 68.6062 78.6171 67.2869 77.2977 67.7267C75.9784 68.1664 75.0988 74.7632 77.2977 74.3234C79.4967 73.8836 85.6536 73.0041 86.973 71.6847C88.2923 70.3654 88.2923 65.5277 88.2923 62.0095C88.2923 58.4912 87.4128 57.6116 86.973 55.4127C86.5332 53.2138 83.8945 48.3762 82.1354 47.0569Z" fill="url(#paint3_linear)"/>
<path d="M77.7376 44.8578C76.7917 43.0987 64.9539 42.2364 64.9539 42.2364C63.0369 45.2897 59.1432 51.8637 58.9039 53.7331C58.6049 56.0699 59.593 58.5714 59.2441 61.2976C58.8953 64.0238 56.1628 75.1534 55.8638 77.4901C55.5648 79.8269 75.6148 81.6009 76.3581 80.9044C77.1013 80.2078 78.5737 66.1461 78.551 63.7682C78.5328 61.8659 79.9663 58.6715 80.6853 57.3121C80.6853 57.3121 78.6835 46.617 77.7376 44.8578Z" fill="#8B99A6"/>
<path d="M77.7376 44.8578C76.7917 43.0987 64.9539 42.2364 64.9539 42.2364C63.0369 45.2897 59.1432 51.8637 58.9039 53.7331C58.6049 56.0699 59.593 58.5714 59.2441 61.2976C58.8953 64.0238 56.1628 75.1534 55.8638 77.4901C55.5648 79.8269 75.6148 81.6009 76.3581 80.9044C77.1013 80.2078 78.5737 66.1461 78.551 63.7682C78.5328 61.8659 79.9663 58.6715 80.6853 57.3121C80.6853 57.3121 78.6835 46.617 77.7376 44.8578Z" fill="url(#paint4_linear)"/>
<path d="M68.4632 40.9386C68.4632 39.9038 67.8164 37.9205 67.493 37.0582C70.2956 36.7348 75.7714 36.2821 75.254 37.0582C74.6072 38.0283 74.6072 39.3218 74.6072 40.9386C74.6072 42.5555 74.9306 42.2321 74.9306 43.5256C74.9306 44.8191 72.667 48.3762 71.0501 48.3762C69.4333 48.3762 67.8164 44.4957 67.8164 43.5256C67.8164 42.5555 68.4632 42.2321 68.4632 40.9386Z" fill="#AA6431"/>
<path d="M68.4632 40.9386C68.4632 39.9038 67.8164 37.9205 67.493 37.0582C70.2956 36.7348 75.7714 36.2821 75.254 37.0582C74.6072 38.0283 74.6072 39.3218 74.6072 40.9386C74.6072 42.5555 74.9306 42.2321 74.9306 43.5256C74.9306 44.8191 72.667 48.3762 71.0501 48.3762C69.4333 48.3762 67.8164 44.4957 67.8164 43.5256C67.8164 42.5555 68.4632 42.2321 68.4632 40.9386Z" fill="url(#paint5_linear)"/>
<path d="M68.1397 30.5907L66.8462 35.1179C66.8462 36.4114 69.7565 40.6153 71.6968 40.6153C73.249 40.6153 74.9305 38.0283 75.5773 36.7348L74.9305 30.9141C73.7448 30.4829 71.3087 29.6206 71.05 29.6206C70.7913 29.6206 69.002 30.2674 68.1397 30.5907Z" fill="#AA6431"/>
<path d="M68.1397 30.5907L66.8462 35.1179C66.8462 36.4114 69.7565 40.6153 71.6968 40.6153C73.249 40.6153 74.9305 38.0283 75.5773 36.7348L74.9305 30.9141C73.7448 30.4829 71.3087 29.6206 71.05 29.6206C70.7913 29.6206 69.002 30.2674 68.1397 30.5907Z" fill="url(#paint6_linear)"/>
<path d="M72.8999 7.47621C73.3397 6.15686 70.2612 3.07837 68.5021 3.07837C67.6225 3.07837 64.544 4.39772 64.544 6.15686C64.544 7.91599 65.8634 9.23534 65.8634 10.9945C65.8634 12.7536 63.2247 16.7117 62.3451 18.9106C61.4655 21.1095 61.4655 28.146 61.4655 29.9052C61.4655 31.6643 58.3871 36.5019 57.9473 39.1406C57.5075 41.7794 57.9473 53.2137 59.2666 53.2137C60.586 53.2137 64.544 48.8159 65.8634 47.4965C67.1827 46.1772 68.5021 42.6589 68.5021 40.0202C68.5021 37.3815 68.5021 29.9052 69.3816 28.146C70.2612 26.3869 70.701 13.6332 71.1408 10.9945C71.5806 8.35578 72.4601 8.79556 72.8999 7.47621Z" fill="#AA6431"/>
<path d="M72.8999 7.47621C73.3397 6.15686 70.2612 3.07837 68.5021 3.07837C67.6225 3.07837 64.544 4.39772 64.544 6.15686C64.544 7.91599 65.8634 9.23534 65.8634 10.9945C65.8634 12.7536 63.2247 16.7117 62.3451 18.9106C61.4655 21.1095 61.4655 28.146 61.4655 29.9052C61.4655 31.6643 58.3871 36.5019 57.9473 39.1406C57.5075 41.7794 57.9473 53.2137 59.2666 53.2137C60.586 53.2137 64.544 48.8159 65.8634 47.4965C67.1827 46.1772 68.5021 42.6589 68.5021 40.0202C68.5021 37.3815 68.5021 29.9052 69.3816 28.146C70.2612 26.3869 70.701 13.6332 71.1408 10.9945C71.5806 8.35578 72.4601 8.79556 72.8999 7.47621Z" fill="url(#paint7_linear)"/>
<defs>
<linearGradient id="paint0_linear" x1="34.935" y1="132.464" x2="59.4713" y2="146.894" gradientUnits="userSpaceOnUse">
<stop stop-color="white"/>
<stop offset="1" stop-color="white" stop-opacity="0"/>
</linearGradient>
<linearGradient id="paint1_linear" x1="12.1849" y1="82.9224" x2="71.0429" y2="94.186" gradientUnits="userSpaceOnUse">
<stop stop-color="white"/>
<stop offset="1" stop-color="white" stop-opacity="0"/>
</linearGradient>
<linearGradient id="paint2_linear" x1="51.4305" y1="27.9576" x2="71.3019" y2="36.1533" gradientUnits="userSpaceOnUse">
<stop stop-color="white"/>
<stop offset="1" stop-color="white" stop-opacity="0"/>
</linearGradient>
<linearGradient id="paint3_linear" x1="67.837" y1="61.1692" x2="81.5546" y2="60.5637" gradientUnits="userSpaceOnUse">
<stop stop-color="white"/>
<stop offset="1" stop-color="white" stop-opacity="0"/>
</linearGradient>
<linearGradient id="paint4_linear" x1="48.3181" y1="63.7657" x2="65.2565" y2="64.4712" gradientUnits="userSpaceOnUse">
<stop stop-color="white"/>
<stop offset="1" stop-color="white" stop-opacity="0"/>
</linearGradient>
<linearGradient id="paint5_linear" x1="62.3602" y1="43.0998" x2="71.0049" y2="42.4976" gradientUnits="userSpaceOnUse">
<stop stop-color="white"/>
<stop offset="1" stop-color="white" stop-opacity="0"/>
</linearGradient>
<linearGradient id="paint6_linear" x1="61.0971" y1="35.6766" x2="70.7595" y2="34.8711" gradientUnits="userSpaceOnUse">
<stop stop-color="white"/>
<stop offset="1" stop-color="white" stop-opacity="0"/>
</linearGradient>
<linearGradient id="paint7_linear" x1="47.8001" y1="30.6937" x2="64.6767" y2="30.158" gradientUnits="userSpaceOnUse">
<stop stop-color="white"/>
<stop offset="1" stop-color="white" stop-opacity="0"/>
</linearGradient>
</defs>
</svg>
