<svg width="150" height="150" viewBox="0 0 150 150" fill="none" xmlns="http://www.w3.org/2000/svg">
<g clip-path="url(#clip0)">
<path d="M134.391 9.80566V150H150.425V9.80566H134.391Z" fill="#ECF1F4"/>
<path d="M120.413 140.955C119.59 140.133 109.723 138.489 107.668 138.489L96.9785 140.955C96.2932 143.422 95.3339 148.356 96.9785 148.356C99.0341 148.356 116.713 147.944 118.768 147.533C120.824 147.122 121.235 141.778 120.413 140.955Z" fill="#212226"/>
<path d="M120.413 140.955C119.59 140.133 109.723 138.489 107.668 138.489L96.9785 140.955C96.2932 143.422 95.3339 148.356 96.9785 148.356C99.0341 148.356 116.713 147.944 118.768 147.533C120.824 147.122 121.235 141.778 120.413 140.955Z" fill="url(#paint0_linear)"/>
<path d="M75.1887 76.8194C75.1887 74.846 75.7369 71.0637 76.011 69.4192L95.7451 66.5413C97.5266 68.1858 101.419 71.9681 102.734 73.9415C104.379 76.4083 103.968 86.2754 103.968 89.9755C103.968 93.6757 106.434 99.8426 106.846 101.898C107.257 103.954 108.901 126.566 108.901 129.033C108.901 131.499 108.079 140.544 108.079 142.6C108.079 144.655 95.7451 144.244 95.7451 141.778C95.7451 139.311 88.7559 109.71 88.7559 106.421C88.7559 103.132 83.4113 89.5644 83.0001 88.331C82.589 87.0976 75.1887 79.2862 75.1887 76.8194Z" fill="#31374B"/>
<path d="M75.1887 76.8194C75.1887 74.846 75.7369 71.0637 76.011 69.4192L95.7451 66.5413C97.5266 68.1858 101.419 71.9681 102.734 73.9415C104.379 76.4083 103.968 86.2754 103.968 89.9755C103.968 93.6757 106.434 99.8426 106.846 101.898C107.257 103.954 108.901 126.566 108.901 129.033C108.901 131.499 108.079 140.544 108.079 142.6C108.079 144.655 95.7451 144.244 95.7451 141.778C95.7451 139.311 88.7559 109.71 88.7559 106.421C88.7559 103.132 83.4113 89.5644 83.0001 88.331C82.589 87.0976 75.1887 79.2862 75.1887 76.8194Z" fill="url(#paint1_linear)"/>
<path d="M90.8115 15.1503C90.8115 13.1769 88.8929 9.12042 87.9336 7.33887C83.4112 9.94267 74.202 15.397 73.5442 16.3837C72.7219 17.617 73.1331 24.6062 73.5442 25.4285C73.9553 26.2507 83.8224 26.2507 84.2335 25.8396C84.6446 25.4285 83.8224 25.8396 84.2335 24.6062C84.6446 23.3728 87.9336 22.9617 89.167 22.5506C90.4004 22.1394 90.8115 17.617 90.8115 15.1503Z" fill="#AA6431"/>
<path d="M90.8115 15.1503C90.8115 13.1769 88.8929 9.12042 87.9336 7.33887C83.4112 9.94267 74.202 15.397 73.5442 16.3837C72.7219 17.617 73.1331 24.6062 73.5442 25.4285C73.9553 26.2507 83.8224 26.2507 84.2335 25.8396C84.6446 25.4285 83.8224 25.8396 84.2335 24.6062C84.6446 23.3728 87.9336 22.9617 89.167 22.5506C90.4004 22.1394 90.8115 17.617 90.8115 15.1503Z" fill="url(#paint2_linear)"/>
<path d="M69.0218 36.5289C68.6929 32.2532 72.1737 27.3471 73.9553 25.4285H82.1779L93.6894 35.2955C93.4153 38.0364 93.0316 43.9292 93.6894 45.5737C94.5117 47.6293 98.2118 60.3743 99.4452 62.4299C100.679 64.4855 99.0341 67.7746 98.2118 68.5968C97.554 69.2546 82.8631 69.6932 75.5998 69.8302C75.7369 68.3227 75.9287 64.7322 75.5998 62.4299C75.1887 59.552 73.1331 55.0296 71.8997 52.5629C70.6663 50.0961 69.4329 41.8736 69.0218 36.5289Z" fill="#8B99A6"/>
<path d="M69.0218 36.5289C68.6929 32.2532 72.1737 27.3471 73.9553 25.4285H82.1779L93.6894 35.2955C93.4153 38.0364 93.0316 43.9292 93.6894 45.5737C94.5117 47.6293 98.2118 60.3743 99.4452 62.4299C100.679 64.4855 99.0341 67.7746 98.2118 68.5968C97.554 69.2546 82.8631 69.6932 75.5998 69.8302C75.7369 68.3227 75.9287 64.7322 75.5998 62.4299C75.1887 59.552 73.1331 55.0296 71.8997 52.5629C70.6663 50.0961 69.4329 41.8736 69.0218 36.5289Z" fill="url(#paint3_linear)"/>
<path d="M74.3664 0.760986C80.9444 -2.19913 87.2484 4.18705 89.5781 7.75015C88.5914 9.39478 78.2036 16.1097 73.133 19.2616C70.8033 14.3281 67.7884 3.7211 74.3664 0.760986Z" fill="#212226"/>
<path d="M74.3664 0.760986C80.9444 -2.19913 87.2484 4.18705 89.5781 7.75015C88.5914 9.39478 78.2036 16.1097 73.133 19.2616C70.8033 14.3281 67.7884 3.7211 74.3664 0.760986Z" fill="url(#paint4_linear)"/>
<path d="M80.5333 25.4285C78.5599 25.4285 75.3257 27.6211 73.9553 28.7175C73.133 29.339 72.3108 34.4733 72.3108 36.94C72.3108 39.4068 73.9553 42.2847 76.4221 43.5181C78.8888 44.7514 82.1778 42.2847 83.0001 42.2847C83.6579 42.2847 83.2742 39.8179 83.0001 38.5845C84.6446 40.229 107.257 42.2847 109.312 42.2847C111.368 42.2847 131.924 42.6958 134.391 42.2847C136.858 41.8736 146.314 40.229 147.136 39.8179C147.958 39.4068 147.547 34.4733 146.314 34.4733C145.08 34.4733 140.558 34.0621 138.913 34.4733C137.269 34.8844 140.558 32.4176 138.913 32.4176C137.269 32.4176 135.213 34.0621 134.391 35.2955C133.569 36.5289 129.457 35.2955 126.58 35.2955C123.702 35.2955 109.312 32.4176 108.079 32.4176C106.845 32.4176 96.1562 30.362 93.2783 28.7175C90.4004 27.073 83.0001 25.4285 80.5333 25.4285Z" fill="#AA6431"/>
<path d="M80.5333 25.4285C78.5599 25.4285 75.3257 27.6211 73.9553 28.7175C73.133 29.339 72.3108 34.4733 72.3108 36.94C72.3108 39.4068 73.9553 42.2847 76.4221 43.5181C78.8888 44.7514 82.1778 42.2847 83.0001 42.2847C83.6579 42.2847 83.2742 39.8179 83.0001 38.5845C84.6446 40.229 107.257 42.2847 109.312 42.2847C111.368 42.2847 131.924 42.6958 134.391 42.2847C136.858 41.8736 146.314 40.229 147.136 39.8179C147.958 39.4068 147.547 34.4733 146.314 34.4733C145.08 34.4733 140.558 34.0621 138.913 34.4733C137.269 34.8844 140.558 32.4176 138.913 32.4176C137.269 32.4176 135.213 34.0621 134.391 35.2955C133.569 36.5289 129.457 35.2955 126.58 35.2955C123.702 35.2955 109.312 32.4176 108.079 32.4176C106.845 32.4176 96.1562 30.362 93.2783 28.7175C90.4004 27.073 83.0001 25.4285 80.5333 25.4285Z" fill="url(#paint5_linear)"/>
</g>
<defs>
<linearGradient id="paint0_linear" x1="62.5808" y1="139.898" x2="87.8272" y2="166.796" gradientUnits="userSpaceOnUse">
<stop stop-color="white"/>
<stop offset="1" stop-color="white" stop-opacity="0"/>
</linearGradient>
<linearGradient id="paint1_linear" x1="29.5522" y1="77.5948" x2="100.573" y2="90.7441" gradientUnits="userSpaceOnUse">
<stop stop-color="white"/>
<stop offset="1" stop-color="white" stop-opacity="0"/>
</linearGradient>
<linearGradient id="paint2_linear" x1="61.3871" y1="17.6781" x2="80.9652" y2="15.7354" gradientUnits="userSpaceOnUse">
<stop stop-color="white"/>
<stop offset="1" stop-color="white" stop-opacity="0"/>
</linearGradient>
<linearGradient id="paint3_linear" x1="56.0803" y1="53.1284" x2="79.6589" y2="50.7139" gradientUnits="userSpaceOnUse">
<stop stop-color="white"/>
<stop offset="1" stop-color="white" stop-opacity="0"/>
</linearGradient>
<linearGradient id="paint4_linear" x1="44.3846" y1="2.75165" x2="79.8566" y2="17.7776" gradientUnits="userSpaceOnUse">
<stop stop-color="white"/>
<stop offset="1" stop-color="white" stop-opacity="0"/>
</linearGradient>
<linearGradient id="paint5_linear" x1="22.7599" y1="35.5827" x2="93.6076" y2="5.22212" gradientUnits="userSpaceOnUse">
<stop stop-color="white"/>
<stop offset="1" stop-color="white" stop-opacity="0"/>
</linearGradient>
<clipPath id="clip0">
<rect width="150" height="150" fill="white"/>
</clipPath>
</defs>
</svg>
