<svg width="150" height="150" viewBox="0 0 150 150" fill="none" xmlns="http://www.w3.org/2000/svg">
<path d="M103.988 147.792C103.031 146.834 103.589 143.671 103.988 142.209L104.785 141.411C106.779 139.816 111.565 136.785 114.755 137.423C118.742 138.221 125.123 140.215 126.319 142.209C127.516 144.203 127.516 148.988 126.319 149.785C125.123 150.583 105.184 148.988 103.988 147.792Z" fill="#212226"/>
<path d="M103.988 147.792C103.031 146.834 103.589 143.671 103.988 142.209L104.785 141.411C106.779 139.816 111.565 136.785 114.755 137.423C118.742 138.221 125.123 140.215 126.319 142.209C127.516 144.203 127.516 148.988 126.319 149.785C125.123 150.583 105.184 148.988 103.988 147.792Z" fill="url(#paint0_linear)"/>
<path d="M126.718 16.5944C126.718 14.9993 125.655 11.4103 125.123 9.81519L109.172 16.5944C108.507 19.1199 107.497 24.1711 108.773 24.1711C110.368 24.1711 117.546 28.9564 117.945 28.1588C118.344 27.3613 118.344 26.165 118.344 25.3674C118.344 24.5699 121.933 25.3674 123.528 24.1711C125.123 22.9748 126.718 18.5882 126.718 16.5944Z" fill="#AA6431"/>
<path d="M126.718 16.5944C126.718 14.9993 125.655 11.4103 125.123 9.81519L109.172 16.5944C108.507 19.1199 107.497 24.1711 108.773 24.1711C110.368 24.1711 117.546 28.9564 117.945 28.1588C118.344 27.3613 118.344 26.165 118.344 25.3674C118.344 24.5699 121.933 25.3674 123.528 24.1711C125.123 22.9748 126.718 18.5882 126.718 16.5944Z" fill="url(#paint1_linear)"/>
<path d="M100 74.8154C100 71.3062 102.659 67.7704 103.988 66.4412H119.141C121.002 68.0363 125.043 71.9443 126.319 74.8154C127.914 78.4044 122.331 102.331 121.534 105.521C120.736 108.711 115.552 142.208 114.755 143.405C113.957 144.601 102.791 144.601 102.791 142.208V117.883C102.791 112.699 103.988 89.1713 103.988 86.3799C103.988 83.5885 100 79.202 100 74.8154Z" fill="#31374B"/>
<path d="M100 74.8154C100 71.3062 102.659 67.7704 103.988 66.4412H119.141C121.002 68.0363 125.043 71.9443 126.319 74.8154C127.914 78.4044 122.331 102.331 121.534 105.521C120.736 108.711 115.552 142.208 114.755 143.405C113.957 144.601 102.791 144.601 102.791 142.208V117.883C102.791 112.699 103.988 89.1713 103.988 86.3799C103.988 83.5885 100 79.202 100 74.8154Z" fill="url(#paint2_linear)"/>
<path d="M108.773 18.1893C110.687 18.1893 121.002 12.6064 125.92 9.81499C125.92 7.02357 119.141 -2.54703 111.963 0.643167C104.785 3.83337 106.38 18.1893 108.773 18.1893Z" fill="#212226"/>
<path d="M108.773 18.1893C110.687 18.1893 121.002 12.6064 125.92 9.81499C125.92 7.02357 119.141 -2.54703 111.963 0.643167C104.785 3.83337 106.38 18.1893 108.773 18.1893Z" fill="url(#paint3_linear)"/>
<path d="M101.994 30.9502C102.632 29.036 106.513 25.3673 108.374 23.7722C110.767 24.5698 115.951 26.4041 117.546 27.3612C119.54 28.5575 123.129 35.3367 123.927 37.3306C124.724 39.3244 125.92 54.8767 125.92 56.073C125.92 57.2693 125.123 71.2265 123.927 72.024C122.73 72.8216 102.791 68.0363 103.19 67.2387C103.589 66.4412 103.19 62.0546 103.19 60.8583C103.19 59.662 102.791 50.0914 101.994 48.0975C101.196 46.1036 101.196 33.3428 101.994 30.9502Z" fill="#8B99A6"/>
<path d="M101.994 30.9502C102.632 29.036 106.513 25.3673 108.374 23.7722C110.767 24.5698 115.951 26.4041 117.546 27.3612C119.54 28.5575 123.129 35.3367 123.927 37.3306C124.724 39.3244 125.92 54.8767 125.92 56.073C125.92 57.2693 125.123 71.2265 123.927 72.024C122.73 72.8216 102.791 68.0363 103.19 67.2387C103.589 66.4412 103.19 62.0546 103.19 60.8583C103.19 59.662 102.791 50.0914 101.994 48.0975C101.196 46.1036 101.196 33.3428 101.994 30.9502Z" fill="url(#paint4_linear)"/>
<path d="M135.491 149.785V7.82129H149.847V149.785H135.491Z" fill="#ECF1F4"/>
<path d="M111.166 26.9624C113.399 26.9624 117.945 28.9563 117.945 31.7477C117.945 34.5391 119.939 48.0975 120.736 48.0975C121.534 48.0975 132.7 42.9134 132.301 40.9195C131.902 38.9257 134.295 35.3367 135.092 34.5391C135.89 33.7416 138.681 33.3428 138.681 34.5391C138.681 35.7355 136.687 36.9318 137.485 37.3306C138.282 37.7293 145.46 35.3367 147.055 36.1342C148.651 36.9318 148.252 43.711 147.055 44.9073C145.859 46.1036 135.89 46.9012 135.092 47.2999C134.295 47.6987 126.718 54.4779 125.92 54.8767C125.123 55.2754 116.35 57.6681 114.755 57.2693C113.16 56.8705 107.975 47.2999 107.577 45.7048C107.178 44.1097 106.38 44.1097 104.785 42.1159C103.19 40.122 104.386 31.7477 104.785 30.9502C105.184 30.1526 108.374 26.9624 111.166 26.9624Z" fill="#AA6431"/>
<path d="M111.166 26.9624C113.399 26.9624 117.945 28.9563 117.945 31.7477C117.945 34.5391 119.939 48.0975 120.736 48.0975C121.534 48.0975 132.7 42.9134 132.301 40.9195C131.902 38.9257 134.295 35.3367 135.092 34.5391C135.89 33.7416 138.681 33.3428 138.681 34.5391C138.681 35.7355 136.687 36.9318 137.485 37.3306C138.282 37.7293 145.46 35.3367 147.055 36.1342C148.651 36.9318 148.252 43.711 147.055 44.9073C145.859 46.1036 135.89 46.9012 135.092 47.2999C134.295 47.6987 126.718 54.4779 125.92 54.8767C125.123 55.2754 116.35 57.6681 114.755 57.2693C113.16 56.8705 107.975 47.2999 107.577 45.7048C107.178 44.1097 106.38 44.1097 104.785 42.1159C103.19 40.122 104.386 31.7477 104.785 30.9502C105.184 30.1526 108.374 26.9624 111.166 26.9624Z" fill="url(#paint5_linear)"/>
<defs>
<linearGradient id="paint0_linear" x1="71.2993" y1="139.146" x2="102.95" y2="164.377" gradientUnits="userSpaceOnUse">
<stop stop-color="white"/>
<stop offset="1" stop-color="white" stop-opacity="0"/>
</linearGradient>
<linearGradient id="paint1_linear" x1="95.9413" y1="19.9686" x2="116.392" y2="17.8072" gradientUnits="userSpaceOnUse">
<stop stop-color="white"/>
<stop offset="1" stop-color="white" stop-opacity="0"/>
</linearGradient>
<linearGradient id="paint2_linear" x1="63.9858" y1="77.5482" x2="120.753" y2="85.8025" gradientUnits="userSpaceOnUse">
<stop stop-color="white"/>
<stop offset="1" stop-color="white" stop-opacity="0"/>
</linearGradient>
<linearGradient id="paint3_linear" x1="80.8076" y1="2.59847" x2="115.595" y2="18.1753" gradientUnits="userSpaceOnUse">
<stop stop-color="white"/>
<stop offset="1" stop-color="white" stop-opacity="0"/>
</linearGradient>
<linearGradient id="paint4_linear" x1="91.1379" y1="53.9297" x2="109.95" y2="52.5248" gradientUnits="userSpaceOnUse">
<stop stop-color="white"/>
<stop offset="1" stop-color="white" stop-opacity="0"/>
</linearGradient>
<linearGradient id="paint5_linear" x1="74.9225" y1="43.6805" x2="122.978" y2="36.3459" gradientUnits="userSpaceOnUse">
<stop stop-color="white"/>
<stop offset="1" stop-color="white" stop-opacity="0"/>
</linearGradient>
</defs>
</svg>
