<svg width="150" height="150" viewBox="0 0 150 150" fill="none" xmlns="http://www.w3.org/2000/svg">
<g clip-path="url(#clip0)">
<path d="M134.566 119.033C133.682 120.212 127.814 120.507 124.99 120.507V129.346L137.513 127.136C139.232 124.926 142.817 120.212 143.406 119.033C144.143 117.56 141.564 114.982 139.723 114.614C137.881 114.245 135.671 117.56 134.566 119.033Z" fill="#212226"/>
<path d="M134.566 119.033C133.682 120.212 127.814 120.507 124.99 120.507V129.346L137.513 127.136C139.232 124.926 142.817 120.212 143.406 119.033C144.143 117.56 141.564 114.982 139.723 114.614C137.881 114.245 135.671 117.56 134.566 119.033Z" fill="url(#paint0_linear)"/>
<path d="M39.5405 50.1582H95.1564V53.4731H39.5405V50.1582Z" fill="#ECF1F4"/>
<path d="M129.042 139.291C127.274 139.88 124.376 137.572 123.149 136.344C123.149 133.275 123.812 127.063 126.463 126.768C129.778 126.4 137.145 123.821 140.091 121.98C143.038 120.138 146.721 120.875 148.931 121.98C151.141 123.085 149.299 127.505 148.931 128.978C148.562 130.451 131.252 138.554 129.042 139.291Z" fill="#212226"/>
<path d="M129.042 139.291C127.274 139.88 124.376 137.572 123.149 136.344C123.149 133.275 123.812 127.063 126.463 126.768C129.778 126.4 137.145 123.821 140.091 121.98C143.038 120.138 146.721 120.875 148.931 121.98C151.141 123.085 149.299 127.505 148.931 128.978C148.562 130.451 131.252 138.554 129.042 139.291Z" fill="url(#paint1_linear)"/>
<path d="M39.9088 46.8433V50.1581H95.1564L91.8415 46.8433H39.9088Z" fill="#F18701"/>
<path d="M39.9088 46.8433V50.1581H95.1564L91.8415 46.8433H39.9088Z" fill="url(#paint2_linear)"/>
<path d="M76.004 72.9938C74.8254 71.8152 69.8654 71.5205 67.5327 71.5205C61.3941 75.9403 49.1168 85.2219 49.1168 86.9898C49.1168 89.1997 54.6416 95.4611 56.4832 97.671C58.3248 99.8809 70.1109 100.986 73.4258 102.459C76.7406 103.932 99.9446 121.243 103.259 123.453C106.574 125.663 120.202 137.081 123.517 137.818C126.832 138.554 128.673 133.766 130.147 132.293C131.62 130.82 132.725 124.19 130.147 122.348C127.568 120.507 110.626 109.089 108.048 106.879C105.469 104.669 106.206 103.196 104.364 100.986C102.523 98.776 88.5268 86.2532 87.4218 84.7799C86.3169 83.3067 77.4772 74.467 76.004 72.9938Z" fill="#31374B"/>
<path d="M76.004 72.9938C74.8254 71.8152 69.8654 71.5205 67.5327 71.5205C61.3941 75.9403 49.1168 85.2219 49.1168 86.9898C49.1168 89.1997 54.6416 95.4611 56.4832 97.671C58.3248 99.8809 70.1109 100.986 73.4258 102.459C76.7406 103.932 99.9446 121.243 103.259 123.453C106.574 125.663 120.202 137.081 123.517 137.818C126.832 138.554 128.673 133.766 130.147 132.293C131.62 130.82 132.725 124.19 130.147 122.348C127.568 120.507 110.626 109.089 108.048 106.879C105.469 104.669 106.206 103.196 104.364 100.986C102.523 98.776 88.5268 86.2532 87.4218 84.7799C86.3169 83.3067 77.4772 74.467 76.004 72.9938Z" fill="url(#paint3_linear)"/>
<path d="M25.1761 49.4218C23.1136 49.4218 14.7405 53.1049 10.8118 54.9465C9.70682 56.4199 10.8118 61.5761 10.8118 62.6811C10.8118 63.786 42.8554 80.7286 44.3286 81.8335C45.8019 82.9385 48.3801 90.3048 50.9583 89.1999C53.5366 88.0949 68.6376 72.2573 69.3742 70.784C70.1108 69.3108 68.2692 67.8375 66.0593 67.4692C63.8494 67.1009 37.6989 50.5267 35.489 49.4218C33.2791 48.3168 27.7544 49.4218 25.1761 49.4218Z" fill="#8B99A6"/>
<path d="M25.1761 49.4218C23.1136 49.4218 14.7405 53.1049 10.8118 54.9465C9.70682 56.4199 10.8118 61.5761 10.8118 62.6811C10.8118 63.786 42.8554 80.7286 44.3286 81.8335C45.8019 82.9385 48.3801 90.3048 50.9583 89.1999C53.5366 88.0949 68.6376 72.2573 69.3742 70.784C70.1108 69.3108 68.2692 67.8375 66.0593 67.4692C63.8494 67.1009 37.6989 50.5267 35.489 49.4218C33.2791 48.3168 27.7544 49.4218 25.1761 49.4218Z" fill="url(#paint4_linear)"/>
<path d="M25.9128 36.8987C25.3235 35.72 21.7386 31.7422 20.0198 29.9006C16.2138 34.566 8.60193 44.4123 8.60193 46.4749C8.60193 49.0531 10.0752 54.5779 11.9168 54.5779C13.3901 54.5779 20.3881 51.6313 23.7029 50.1581C23.3346 49.4214 22.819 47.8745 23.7029 47.5799C24.8079 47.2115 27.0178 46.8432 27.0178 45.37C27.0178 43.8967 26.6495 38.3719 25.9128 36.8987Z" fill="#AA6431"/>
<path d="M25.9128 36.8987C25.3235 35.72 21.7386 31.7422 20.0198 29.9006C16.2138 34.566 8.60193 44.4123 8.60193 46.4749C8.60193 49.0531 10.0752 54.5779 11.9168 54.5779C13.3901 54.5779 20.3881 51.6313 23.7029 50.1581C23.3346 49.4214 22.819 47.8745 23.7029 47.5799C24.8079 47.2115 27.0178 46.8432 27.0178 45.37C27.0178 43.8967 26.6495 38.3719 25.9128 36.8987Z" fill="url(#paint5_linear)"/>
<path d="M8.97023 49.0534C9.55954 47.5801 17.3188 35.9167 21.1247 30.2692C22.8562 27.691 4.91874 20.6931 0.867249 28.7959C-3.18424 36.8988 8.23359 50.895 8.97023 49.0534Z" fill="#212226"/>
<path d="M8.97023 49.0534C9.55954 47.5801 17.3188 35.9167 21.1247 30.2692C22.8562 27.691 4.91874 20.6931 0.867249 28.7959C-3.18424 36.8988 8.23359 50.895 8.97023 49.0534Z" fill="url(#paint6_linear)"/>
<path d="M95.1564 53.1047H91.4733V150.34H95.1564V53.1047Z" fill="#ECF1F4"/>
<path d="M49.1168 49.0535H40.2772V54.2097H42.8554L37.3306 78.887C36.2257 82.0791 33.3528 88.6106 30.7009 89.1999C27.3861 89.9365 22.9663 84.0434 21.1247 81.8335C19.2831 79.6236 17.8098 74.8355 17.0732 73.3622C16.3366 71.889 14.495 70.4157 13.7583 68.9424C13.0217 67.4692 11.9167 62.3127 11.9167 59.7345C11.9167 57.1563 12.6534 55.3147 14.495 54.2097C16.3366 53.1048 20.7564 52.7365 25.1762 52.3682C29.596 51.9998 32.1742 54.2097 32.5425 58.6296C32.9108 63.0494 29.9643 69.6791 30.7009 68.2058C31.4376 66.7325 36.2257 55.683 36.2257 54.2097C36.2257 52.7365 35.8574 49.0535 36.2257 47.9484C36.594 46.8432 37.3306 45.3703 42.8554 45.002C47.2752 44.7073 48.8712 47.5802 49.1168 49.0535Z" fill="#AA6431"/>
<path d="M49.1168 49.0535H40.2772V54.2097H42.8554L37.3306 78.887C36.2257 82.0791 33.3528 88.6106 30.7009 89.1999C27.3861 89.9365 22.9663 84.0434 21.1247 81.8335C19.2831 79.6236 17.8098 74.8355 17.0732 73.3622C16.3366 71.889 14.495 70.4157 13.7583 68.9424C13.0217 67.4692 11.9167 62.3127 11.9167 59.7345C11.9167 57.1563 12.6534 55.3147 14.495 54.2097C16.3366 53.1048 20.7564 52.7365 25.1762 52.3682C29.596 51.9998 32.1742 54.2097 32.5425 58.6296C32.9108 63.0494 29.9643 69.6791 30.7009 68.2058C31.4376 66.7325 36.2257 55.683 36.2257 54.2097C36.2257 52.7365 35.8574 49.0535 36.2257 47.9484C36.594 46.8432 37.3306 45.3703 42.8554 45.002C47.2752 44.7073 48.8712 47.5802 49.1168 49.0535Z" fill="url(#paint7_linear)"/>
<path d="M43.9604 50.5264H40.2772V149.235H43.9604V50.5264Z" fill="#ECF1F4"/>
</g>
<defs>
<linearGradient id="paint0_linear" x1="99.8859" y1="116.694" x2="131.331" y2="133.481" gradientUnits="userSpaceOnUse">
<stop stop-color="white"/>
<stop offset="1" stop-color="white" stop-opacity="0"/>
</linearGradient>
<linearGradient id="paint1_linear" x1="86.7997" y1="123.505" x2="129.218" y2="149.628" gradientUnits="userSpaceOnUse">
<stop stop-color="white"/>
<stop offset="1" stop-color="white" stop-opacity="0"/>
</linearGradient>
<linearGradient id="paint2_linear" x1="19.348" y1="44.1299" x2="19.6603" y2="52.1934" gradientUnits="userSpaceOnUse">
<stop stop-color="white"/>
<stop offset="1" stop-color="white" stop-opacity="0"/>
</linearGradient>
<linearGradient id="paint3_linear" x1="-62.6669" y1="81.0024" x2="77.9557" y2="155.345" gradientUnits="userSpaceOnUse">
<stop stop-color="white"/>
<stop offset="1" stop-color="white" stop-opacity="0"/>
</linearGradient>
<linearGradient id="paint4_linear" x1="-14.4485" y1="74.1227" x2="29.1959" y2="64.7018" gradientUnits="userSpaceOnUse">
<stop stop-color="white"/>
<stop offset="1" stop-color="white" stop-opacity="0"/>
</linearGradient>
<linearGradient id="paint5_linear" x1="-3.52414" y1="43.4933" x2="16.8724" y2="41.8953" gradientUnits="userSpaceOnUse">
<stop stop-color="white"/>
<stop offset="1" stop-color="white" stop-opacity="0"/>
</linearGradient>
<linearGradient id="paint6_linear" x1="-28.7554" y1="28.4598" x2="11.8835" y2="43.6063" gradientUnits="userSpaceOnUse">
<stop stop-color="white"/>
<stop offset="1" stop-color="white" stop-opacity="0"/>
</linearGradient>
<linearGradient id="paint7_linear" x1="-12.5779" y1="69.3723" x2="28.5561" y2="65.7447" gradientUnits="userSpaceOnUse">
<stop stop-color="white"/>
<stop offset="1" stop-color="white" stop-opacity="0"/>
</linearGradient>
<clipPath id="clip0">
<rect width="150" height="150" fill="white"/>
</clipPath>
</defs>
</svg>
