<svg width="150" height="151" viewBox="0 0 150 151" fill="none" xmlns="http://www.w3.org/2000/svg">
<path d="M47.8748 66.906H94.1749V69.6656H47.8748V66.906Z" fill="#ECF1F4"/>
<path d="M136.182 140.802C134.711 141.293 132.912 141.416 132.196 141.416V131.297C133.525 131.093 136.612 130.5 138.329 129.764C140.475 128.844 143.848 126.391 145.381 125.165C146.914 123.938 150.287 129.151 149.98 130.684C149.674 132.217 138.022 140.189 136.182 140.802Z" fill="#212226"/>
<path d="M136.182 140.802C134.711 141.293 132.912 141.416 132.196 141.416V131.297C133.525 131.093 136.612 130.5 138.329 129.764C140.475 128.844 143.848 126.391 145.381 125.165C146.914 123.938 150.287 129.151 149.98 130.684C149.674 132.217 138.022 140.189 136.182 140.802Z" fill="url(#paint0_linear)"/>
<path d="M140.168 121.792C139.678 122.773 133.627 126.493 130.663 128.231L131.276 133.75C133.832 132.728 139.187 130.439 140.168 129.457C141.395 128.231 142.928 124.245 143.848 123.325C144.768 122.405 140.782 120.565 140.168 121.792Z" fill="#212226"/>
<path d="M140.168 121.792C139.678 122.773 133.627 126.493 130.663 128.231L131.276 133.75C133.832 132.728 139.187 130.439 140.168 129.457C141.395 128.231 142.928 124.245 143.848 123.325C144.768 122.405 140.782 120.565 140.168 121.792Z" fill="url(#paint1_linear)"/>
<path d="M78.8437 108.913C77.6172 108.423 68.7252 108.709 64.4324 108.913C59.8331 114.432 51.7382 125.9 56.1536 127.617C61.6728 129.764 61.9794 132.217 63.5125 132.83C65.0457 133.443 80.6835 134.056 82.8298 133.75C84.9762 133.443 99.3875 135.283 101.227 135.59C103.067 135.896 130.357 142.335 132.196 142.335C134.036 142.335 136.489 128.231 134.956 127.311C133.423 126.391 128.21 125.471 126.984 125.471C125.757 125.471 104.907 119.952 103.68 119.032C102.454 118.112 95.0948 116.579 94.1749 116.579C93.2551 116.579 80.3769 109.526 78.8437 108.913Z" fill="#31374B"/>
<path d="M78.8437 108.913C77.6172 108.423 68.7252 108.709 64.4324 108.913C59.8331 114.432 51.7382 125.9 56.1536 127.617C61.6728 129.764 61.9794 132.217 63.5125 132.83C65.0457 133.443 80.6835 134.056 82.8298 133.75C84.9762 133.443 99.3875 135.283 101.227 135.59C103.067 135.896 130.357 142.335 132.196 142.335C134.036 142.335 136.489 128.231 134.956 127.311C133.423 126.391 128.21 125.471 126.984 125.471C125.757 125.471 104.907 119.952 103.68 119.032C102.454 118.112 95.0948 116.579 94.1749 116.579C93.2551 116.579 80.3769 109.526 78.8437 108.913Z" fill="url(#paint2_linear)"/>
<path d="M19.6654 100.635C18.9295 100.144 15.066 99.2038 13.2263 98.7949L9.85339 104.314C10.9777 108.096 13.2263 115.721 13.2263 115.966C13.2263 116.272 17.2124 119.032 18.7455 118.725C19.972 118.48 22.7316 113.513 23.9581 111.06C23.2426 110.958 21.9344 110.569 22.425 109.833C23.0382 108.914 25.1846 106.461 24.5713 105.541C23.9581 104.621 20.5852 101.248 19.6654 100.635Z" fill="#AA6431"/>
<path d="M19.6654 100.635C18.9295 100.144 15.066 99.2038 13.2263 98.7949L9.85339 104.314C10.9777 108.096 13.2263 115.721 13.2263 115.966C13.2263 116.272 17.2124 119.032 18.7455 118.725C19.972 118.48 22.7316 113.513 23.9581 111.06C23.2426 110.958 21.9344 110.569 22.425 109.833C23.0382 108.914 25.1846 106.461 24.5713 105.541C23.9581 104.621 20.5852 101.248 19.6654 100.635Z" fill="url(#paint3_linear)"/>
<path d="M59.2197 130.07C58.9744 128.599 63.2058 115.557 65.3522 109.22C65.3522 108.811 65.1682 107.932 64.4323 107.687C63.5125 107.38 51.8608 106.46 50.3276 106.46C49.1011 106.46 41.8444 106.052 38.3693 105.847C36.6318 105.949 32.9727 106.338 32.2368 107.074C31.317 107.994 19.6653 117.192 18.7454 117.805C17.8255 118.419 18.7454 120.258 19.6653 121.485C20.5851 122.711 24.2646 126.084 27.6375 127.004C31.0104 127.924 47.2614 126.698 49.7144 127.004C52.1674 127.311 59.5264 131.91 59.2197 130.07Z" fill="#8B99A6"/>
<path d="M59.2197 130.07C58.9744 128.599 63.2058 115.557 65.3522 109.22C65.3522 108.811 65.1682 107.932 64.4323 107.687C63.5125 107.38 51.8608 106.46 50.3276 106.46C49.1011 106.46 41.8444 106.052 38.3693 105.847C36.6318 105.949 32.9727 106.338 32.2368 107.074C31.317 107.994 19.6653 117.192 18.7454 117.805C17.8255 118.419 18.7454 120.258 19.6653 121.485C20.5851 122.711 24.2646 126.084 27.6375 127.004C31.0104 127.924 47.2614 126.698 49.7144 127.004C52.1674 127.311 59.5264 131.91 59.2197 130.07Z" fill="url(#paint4_linear)"/>
<path d="M12.613 108.913C12.3677 107.196 13.3284 101.452 13.8395 98.7948C13.8395 95.7286 -0.878481 100.021 0.04139 108.3C0.961261 116.579 15.3726 117.806 15.3726 116.886C15.3726 115.966 12.9196 111.06 12.613 108.913Z" fill="#212226"/>
<path d="M12.613 108.913C12.3677 107.196 13.3284 101.452 13.8395 98.7948C13.8395 95.7286 -0.878481 100.021 0.04139 108.3C0.961261 116.579 15.3726 117.806 15.3726 116.886C15.3726 115.966 12.9196 111.06 12.613 108.913Z" fill="url(#paint5_linear)"/>
<path d="M48.1813 64.1465V66.9061H94.1748L91.4152 64.1465H48.1813Z" fill="#F18701"/>
<path d="M48.1813 64.1465V66.9061H94.1748L91.4152 64.1465H48.1813Z" fill="url(#paint6_linear)"/>
<path d="M38.3694 117.499C38.3694 116.027 36.7341 113.615 35.9164 112.593C35.9164 111.06 40.8224 102.168 41.7423 100.941C42.6621 99.7147 45.1151 94.1955 45.7284 92.969C46.3416 91.7425 48.488 71.1987 48.7946 70.8921C49.1012 70.5855 50.0211 70.5855 50.941 70.5855C51.6769 70.5855 51.8608 69.5634 51.8608 69.0523H48.488C48.1814 68.0303 47.7521 65.9248 48.488 65.6795C49.4078 65.3729 54.6205 65.6795 55.2337 65.0662C55.8469 64.453 52.4741 62 50.941 62C49.4078 62 45.4217 63.2265 45.1151 64.1464C44.8085 65.0662 44.8085 70.8921 44.5019 72.4252C44.1952 73.9583 36.5296 87.7564 35.9164 88.6763C35.3032 89.5961 34.3833 93.5822 34.3833 94.8087C34.3833 96.0352 31.0104 100.328 30.3972 101.554C29.7839 102.781 23.3448 109.22 22.1183 110.753C20.8918 112.286 20.2786 117.192 20.5852 118.419C20.8918 119.645 23.9581 123.325 25.7978 124.245C27.6376 125.164 33.77 125.164 35.3032 124.551C36.8363 123.938 38.3694 119.339 38.3694 117.499Z" fill="#AA6431"/>
<path d="M38.3694 117.499C38.3694 116.027 36.7341 113.615 35.9164 112.593C35.9164 111.06 40.8224 102.168 41.7423 100.941C42.6621 99.7147 45.1151 94.1955 45.7284 92.969C46.3416 91.7425 48.488 71.1987 48.7946 70.8921C49.1012 70.5855 50.0211 70.5855 50.941 70.5855C51.6769 70.5855 51.8608 69.5634 51.8608 69.0523H48.488C48.1814 68.0303 47.7521 65.9248 48.488 65.6795C49.4078 65.3729 54.6205 65.6795 55.2337 65.0662C55.8469 64.453 52.4741 62 50.941 62C49.4078 62 45.4217 63.2265 45.1151 64.1464C44.8085 65.0662 44.8085 70.8921 44.5019 72.4252C44.1952 73.9583 36.5296 87.7564 35.9164 88.6763C35.3032 89.5961 34.3833 93.5822 34.3833 94.8087C34.3833 96.0352 31.0104 100.328 30.3972 101.554C29.7839 102.781 23.3448 109.22 22.1183 110.753C20.8918 112.286 20.2786 117.192 20.5852 118.419C20.8918 119.645 23.9581 123.325 25.7978 124.245C27.6376 125.164 33.77 125.164 35.3032 124.551C36.8363 123.938 38.3694 119.339 38.3694 117.499Z" fill="url(#paint7_linear)"/>
<path d="M94.1749 69.3589H91.1086V150.308H94.1749V69.3589Z" fill="#ECF1F4"/>
<path d="M51.2475 68.1326H48.1813V150.308H51.2475V68.1326Z" fill="#ECF1F4"/>
<defs>
<linearGradient id="paint0_linear" x1="108.095" y1="127.328" x2="140.106" y2="142.062" gradientUnits="userSpaceOnUse">
<stop stop-color="white"/>
<stop offset="1" stop-color="white" stop-opacity="0"/>
</linearGradient>
<linearGradient id="paint1_linear" x1="112.629" y1="123.15" x2="136.628" y2="134.135" gradientUnits="userSpaceOnUse">
<stop stop-color="white"/>
<stop offset="1" stop-color="white" stop-opacity="0"/>
</linearGradient>
<linearGradient id="paint2_linear" x1="-54.1777" y1="113.456" x2="32.1934" y2="201.211" gradientUnits="userSpaceOnUse">
<stop stop-color="white"/>
<stop offset="1" stop-color="white" stop-opacity="0"/>
</linearGradient>
<linearGradient id="paint3_linear" x1="0.0904573" y1="109.786" x2="16.513" y2="108.505" gradientUnits="userSpaceOnUse">
<stop stop-color="white"/>
<stop offset="1" stop-color="white" stop-opacity="0"/>
</linearGradient>
<linearGradient id="paint4_linear" x1="-1.28912" y1="121.229" x2="32.3109" y2="111.804" gradientUnits="userSpaceOnUse">
<stop stop-color="white"/>
<stop offset="1" stop-color="white" stop-opacity="0"/>
</linearGradient>
<linearGradient id="paint5_linear" x1="-20.8099" y1="100.567" x2="9.25583" y2="110.721" gradientUnits="userSpaceOnUse">
<stop stop-color="white"/>
<stop offset="1" stop-color="white" stop-opacity="0"/>
</linearGradient>
<linearGradient id="paint6_linear" x1="31.0644" y1="61.8876" x2="31.3244" y2="68.6004" gradientUnits="userSpaceOnUse">
<stop stop-color="white"/>
<stop offset="1" stop-color="white" stop-opacity="0"/>
</linearGradient>
<linearGradient id="paint7_linear" x1="-2.40745" y1="96.6896" x2="36.2423" y2="94.4476" gradientUnits="userSpaceOnUse">
<stop stop-color="white"/>
<stop offset="1" stop-color="white" stop-opacity="0"/>
</linearGradient>
</defs>
</svg>
