<svg width="150" height="150" viewBox="0 0 150 150" fill="none" xmlns="http://www.w3.org/2000/svg">
<path d="M65.6847 20.7881C63.7282 20.7881 62.1521 21.6033 61.6087 22.0109C62.8315 31.7937 56.7174 35.4619 56.7174 37.4999C56.7174 39.538 58.3478 43.2065 57.9402 46.0597C57.5326 48.913 53.8641 55.8423 55.4945 55.8423C57.125 55.8423 68.1304 55.0271 70.1684 55.0271C72.2065 55.0271 86.0652 56.2499 86.0652 55.0271C86.0652 53.8043 84.4347 46.4673 84.4347 44.8369C84.4347 43.2065 87.288 42.3912 84.4347 37.4999C81.5815 32.6086 82.3967 22.0109 81.5815 20.7881C80.7663 19.5653 68.1304 20.7881 65.6847 20.7881Z" fill="#8B99A6"/>
<path d="M65.6847 20.7881C63.7282 20.7881 62.1521 21.6033 61.6087 22.0109C62.8315 31.7937 56.7174 35.4619 56.7174 37.4999C56.7174 39.538 58.3478 43.2065 57.9402 46.0597C57.5326 48.913 53.8641 55.8423 55.4945 55.8423C57.125 55.8423 68.1304 55.0271 70.1684 55.0271C72.2065 55.0271 86.0652 56.2499 86.0652 55.0271C86.0652 53.8043 84.4347 46.4673 84.4347 44.8369C84.4347 43.2065 87.288 42.3912 84.4347 37.4999C81.5815 32.6086 82.3967 22.0109 81.5815 20.7881C80.7663 19.5653 68.1304 20.7881 65.6847 20.7881Z" fill="url(#paint0_linear)"/>
<path d="M81.9892 30.163C81.6631 28.2065 81.0381 22.826 80.7664 20.3804C82.3968 18.0978 84.7066 18.6141 85.6577 19.1576L89.3261 33.4239C88.6468 35.326 86.962 39.1304 85.6577 39.1304C84.0272 39.1304 82.3968 32.6087 81.9892 30.163Z" fill="#AA6431"/>
<path d="M81.9892 30.163C81.6631 28.2065 81.0381 22.826 80.7664 20.3804C82.3968 18.0978 84.7066 18.6141 85.6577 19.1576L89.3261 33.4239C88.6468 35.326 86.962 39.1304 85.6577 39.1304C84.0272 39.1304 82.3968 32.6087 81.9892 30.163Z" fill="url(#paint1_linear)"/>
<path d="M60.3859 19.9728C59.0816 19.9728 56.5816 20.788 55.4946 21.1956L53.049 38.3153C53.8642 38.3153 56.0653 37.9892 58.3479 36.6848C61.2011 35.0544 63.2392 22.826 62.8316 21.1956C62.424 19.5652 62.0163 19.9728 60.3859 19.9728Z" fill="#AA6431"/>
<path d="M60.3859 19.9728C59.0816 19.9728 56.5816 20.788 55.4946 21.1956L53.049 38.3153C53.8642 38.3153 56.0653 37.9892 58.3479 36.6848C61.2011 35.0544 63.2392 22.826 62.8316 21.1956C62.424 19.5652 62.0163 19.9728 60.3859 19.9728Z" fill="url(#paint2_linear)"/>
<path d="M42.0435 141.848L44.4891 134.103H100.332L108.484 141.848H42.0435Z" fill="#F18701"/>
<path d="M42.0435 141.848L44.4891 134.103H100.332L108.484 141.848H42.0435Z" fill="url(#paint3_linear)"/>
<path d="M51.4185 6.11401H29V8.96727H51.4185L66.0924 13.0434H76.2826L90.1413 8.96727H121.12V6.92923H90.1413L76.2826 11.4129H66.0924L51.4185 6.11401Z" fill="#0E0E2C"/>
<path d="M63.2391 10.1902C63.2391 12.7988 65.413 15.3532 66.5 16.3043C69.7609 16.576 75.875 16.712 76.6902 15.8967C77.5054 15.0815 78.3207 9.78261 78.3207 8.55978C78.3207 7.33696 77.5054 4.48363 76.2826 2.8532C75.0598 1.22276 73.4294 0 71.3913 0H71.391C69.3531 0 68.1304 0 66.5 1.22276C64.8696 2.44559 63.2391 6.92928 63.2391 10.1902Z" fill="#212226"/>
<path d="M63.2391 10.1902C63.2391 12.7988 65.413 15.3532 66.5 16.3043C69.7609 16.576 75.875 16.712 76.6902 15.8967C77.5054 15.0815 78.3207 9.78261 78.3207 8.55978C78.3207 7.33696 77.5054 4.48363 76.2826 2.8532C75.0598 1.22276 73.4294 0 71.3913 0H71.391C69.3531 0 68.1304 0 66.5 1.22276C64.8696 2.44559 63.2391 6.92928 63.2391 10.1902Z" fill="url(#paint4_linear)"/>
<path d="M66.0924 6.52164C66.7445 4.89121 68.538 2.44556 70.9837 2.44556C73.4293 2.44556 75.3655 4.4836 75.875 6.52164L75.875 6.52165C76.3845 8.5597 77.5054 13.0434 76.2826 15.0814C75.0598 17.1195 75.4674 17.5271 75.4674 18.7499C75.4674 19.9727 76.6902 22.0108 76.6902 24.0488C76.6902 26.0869 74.6522 27.7173 72.2065 27.7173C69.7608 27.7173 66.0924 27.7173 66.0924 24.864C66.0924 22.0108 66.9076 19.5972 66.9076 18.7499C66.9076 16.7119 66.9076 16.7119 66.0924 14.2662C65.2772 11.8206 65.2772 8.55969 66.0924 6.52164Z" fill="#AA6431"/>
<path d="M66.0924 6.52164C66.7445 4.89121 68.538 2.44556 70.9837 2.44556C73.4293 2.44556 75.3655 4.4836 75.875 6.52164L75.875 6.52165C76.3845 8.5597 77.5054 13.0434 76.2826 15.0814C75.0598 17.1195 75.4674 17.5271 75.4674 18.7499C75.4674 19.9727 76.6902 22.0108 76.6902 24.0488C76.6902 26.0869 74.6522 27.7173 72.2065 27.7173C69.7608 27.7173 66.0924 27.7173 66.0924 24.864C66.0924 22.0108 66.9076 19.5972 66.9076 18.7499C66.9076 16.7119 66.9076 16.7119 66.0924 14.2662C65.2772 11.8206 65.2772 8.55969 66.0924 6.52164Z" fill="url(#paint5_linear)"/>
<path d="M42.0435 141.848V150H46.1195V145.924H105.223V150H108.076V141.848H42.0435Z" fill="#ECF1F4"/>
<path d="M53.0489 15.8965V6.11389C54.6793 4.48345 57.9402 6.11389 59.5706 6.9291C61.201 7.74432 63.2391 9.78236 62.8315 11.8204C62.4239 13.8585 57.9402 15.8965 56.7173 18.3421C55.4945 20.7878 55.9021 37.0921 55.4945 39.1302C55.0869 41.1682 51.826 42.3911 49.788 41.9835C47.7499 41.5758 46.1195 37.9074 46.1195 35.4617C46.1195 33.0161 49.788 24.8639 51.0108 23.6411C52.2336 22.4182 53.0489 17.9345 53.0489 15.8965Z" fill="#AA6431"/>
<path d="M53.0489 15.8965V6.11389C54.6793 4.48345 57.9402 6.11389 59.5706 6.9291C61.201 7.74432 63.2391 9.78236 62.8315 11.8204C62.4239 13.8585 57.9402 15.8965 56.7173 18.3421C55.4945 20.7878 55.9021 37.0921 55.4945 39.1302C55.0869 41.1682 51.826 42.3911 49.788 41.9835C47.7499 41.5758 46.1195 37.9074 46.1195 35.4617C46.1195 33.0161 49.788 24.8639 51.0108 23.6411C52.2336 22.4182 53.0489 17.9345 53.0489 15.8965Z" fill="url(#paint6_linear)"/>
<path d="M81.9891 6.92943C83.2935 5.62508 86.6087 6.38595 88.1033 6.92943C91.3641 8.55998 88.9185 14.6739 89.3261 16.7119C89.7337 18.75 96.663 34.2391 97.0706 36.2771C97.4783 38.3152 94.2174 41.576 91.7717 41.9837C89.3261 42.3913 86.0652 39.1304 86.0652 36.2771C86.0652 33.4239 85.25 18.75 84.8424 17.5271C84.4348 16.3043 79.1359 12.6358 79.1359 11.0054C79.1359 9.37496 80.3587 8.55986 81.9891 6.92943Z" fill="#AA6431"/>
<path d="M81.9891 6.92943C83.2935 5.62508 86.6087 6.38595 88.1033 6.92943C91.3641 8.55998 88.9185 14.6739 89.3261 16.7119C89.7337 18.75 96.663 34.2391 97.0706 36.2771C97.4783 38.3152 94.2174 41.576 91.7717 41.9837C89.3261 42.3913 86.0652 39.1304 86.0652 36.2771C86.0652 33.4239 85.25 18.75 84.8424 17.5271C84.4348 16.3043 79.1359 12.6358 79.1359 11.0054C79.1359 9.37496 80.3587 8.55986 81.9891 6.92943Z" fill="url(#paint7_linear)"/>
<path fill-rule="evenodd" clip-rule="evenodd" d="M56.341 55.2507C55.2552 58.818 53.1649 67.3795 53.4906 73.0872C53.7954 78.4274 53.6439 86.0575 53.5485 90.8667C53.5164 92.4826 53.4906 93.7801 53.4906 94.5651V112.907C53.4906 114.859 54.5433 118.611 55.3693 121.555C55.9024 123.455 56.341 125.019 56.341 125.543C66.2496 125.989 80.93 126.614 81.5815 125.543C82.3959 124.206 85.6597 96.3487 85.6597 94.5651C85.6597 93.7634 86.071 88.8925 86.5239 83.5295C87.0786 76.9613 87.6957 69.655 87.6957 68.1821C87.6957 65.5066 87.2885 57.9261 85.6597 54.3588C84.3566 51.505 65.571 53.7643 56.341 55.2507ZM70.3676 97.8258C69.8936 94.8775 69.7609 87.9699 69.7609 83.9264L69.7609 83.6996C69.7608 78.6852 69.7606 72.5541 70.3676 72.5541C70.7783 72.5541 70.6414 75.9237 70.5045 79.2932C70.436 80.978 70.3676 82.6628 70.3676 83.9264C70.3676 84.8034 70.394 86.0538 70.4239 87.4698C70.4975 90.9501 70.5922 95.4307 70.3676 97.8258Z" fill="#31374B"/>
<path fill-rule="evenodd" clip-rule="evenodd" d="M56.341 55.2507C55.2552 58.818 53.1649 67.3795 53.4906 73.0872C53.7954 78.4274 53.6439 86.0575 53.5485 90.8667C53.5164 92.4826 53.4906 93.7801 53.4906 94.5651V112.907C53.4906 114.859 54.5433 118.611 55.3693 121.555C55.9024 123.455 56.341 125.019 56.341 125.543C66.2496 125.989 80.93 126.614 81.5815 125.543C82.3959 124.206 85.6597 96.3487 85.6597 94.5651C85.6597 93.7634 86.071 88.8925 86.5239 83.5295C87.0786 76.9613 87.6957 69.655 87.6957 68.1821C87.6957 65.5066 87.2885 57.9261 85.6597 54.3588C84.3566 51.505 65.571 53.7643 56.341 55.2507ZM70.3676 97.8258C69.8936 94.8775 69.7609 87.9699 69.7609 83.9264L69.7609 83.6996C69.7608 78.6852 69.7606 72.5541 70.3676 72.5541C70.7783 72.5541 70.6414 75.9237 70.5045 79.2932C70.436 80.978 70.3676 82.6628 70.3676 83.9264C70.3676 84.8034 70.394 86.0538 70.4239 87.4698C70.4975 90.9501 70.5922 95.4307 70.3676 97.8258Z" fill="url(#paint8_linear)"/>
<path d="M59.5707 135.326C60.875 137.283 62.8315 137.228 63.6468 136.956C65.5761 136.956 67.7228 136.956 67.7228 135.326V112.908C67.7228 110.869 63.6468 105.571 61.2011 105.571C58.7554 105.571 54.6794 108.831 54.2718 112.908C53.8642 116.984 57.9402 132.88 59.5707 135.326Z" fill="#212226"/>
<path d="M59.5707 135.326C60.875 137.283 62.8315 137.228 63.6468 136.956C65.5761 136.956 67.7228 136.956 67.7228 135.326V112.908C67.7228 110.869 63.6468 105.571 61.2011 105.571C58.7554 105.571 54.6794 108.831 54.2718 112.908C53.8642 116.984 57.9402 132.88 59.5707 135.326Z" fill="url(#paint9_linear)"/>
<path d="M69.7609 135.326C70.4131 135.978 73.0218 136.413 74.2446 136.549C76.2826 136.549 77.9131 136.549 78.3207 135.326C78.7283 134.103 80.3587 127.989 81.1739 126.359C81.9892 124.728 82.3968 117.799 82.3968 114.538C82.3968 111.277 75.875 106.386 74.2446 106.386C72.6142 106.386 68.9457 109.647 68.9457 112.5C68.9457 115.353 68.9457 134.511 69.7609 135.326Z" fill="#212226"/>
<path d="M69.7609 135.326C70.4131 135.978 73.0218 136.413 74.2446 136.549C76.2826 136.549 77.9131 136.549 78.3207 135.326C78.7283 134.103 80.3587 127.989 81.1739 126.359C81.9892 124.728 82.3968 117.799 82.3968 114.538C82.3968 111.277 75.875 106.386 74.2446 106.386C72.6142 106.386 68.9457 109.647 68.9457 112.5C68.9457 115.353 68.9457 134.511 69.7609 135.326Z" fill="url(#paint10_linear)"/>
<defs>
<linearGradient id="paint0_linear" x1="42.1188" y1="42.4521" x2="65.6337" y2="39.4393" gradientUnits="userSpaceOnUse">
<stop stop-color="white"/>
<stop offset="1" stop-color="white" stop-opacity="0"/>
</linearGradient>
<linearGradient id="paint1_linear" x1="75.1301" y1="29.9497" x2="84.6503" y2="29.5312" gradientUnits="userSpaceOnUse">
<stop stop-color="white"/>
<stop offset="1" stop-color="white" stop-opacity="0"/>
</linearGradient>
<linearGradient id="paint2_linear" x1="46.5733" y1="30.0558" x2="57.498" y2="29.4424" gradientUnits="userSpaceOnUse">
<stop stop-color="white"/>
<stop offset="1" stop-color="white" stop-opacity="0"/>
</linearGradient>
<linearGradient id="paint3_linear" x1="17.3172" y1="127.764" x2="18.729" y2="146.525" gradientUnits="userSpaceOnUse">
<stop stop-color="white"/>
<stop offset="1" stop-color="white" stop-opacity="0"/>
</linearGradient>
<linearGradient id="paint4_linear" x1="42.8233" y1="2.35924" x2="71.3834" y2="13.4423" gradientUnits="userSpaceOnUse">
<stop stop-color="white"/>
<stop offset="1" stop-color="white" stop-opacity="0"/>
</linearGradient>
<linearGradient id="paint5_linear" x1="58.0057" y1="16.3656" x2="70.6285" y2="15.7703" gradientUnits="userSpaceOnUse">
<stop stop-color="white"/>
<stop offset="1" stop-color="white" stop-opacity="0"/>
</linearGradient>
<linearGradient id="paint6_linear" x1="35.0807" y1="25.6011" x2="53.7194" y2="24.7059" gradientUnits="userSpaceOnUse">
<stop stop-color="white"/>
<stop offset="1" stop-color="white" stop-opacity="0"/>
</linearGradient>
<linearGradient id="paint7_linear" x1="67.3037" y1="25.9335" x2="87.2727" y2="24.8815" gradientUnits="userSpaceOnUse">
<stop stop-color="white"/>
<stop offset="1" stop-color="white" stop-opacity="0"/>
</linearGradient>
<linearGradient id="paint8_linear" x1="7.10701" y1="63.4383" x2="78.871" y2="77.713" gradientUnits="userSpaceOnUse">
<stop stop-color="white"/>
<stop offset="1" stop-color="white" stop-opacity="0"/>
</linearGradient>
<linearGradient id="paint9_linear" x1="35.996" y1="110.074" x2="64.4278" y2="115.24" gradientUnits="userSpaceOnUse">
<stop stop-color="white"/>
<stop offset="1" stop-color="white" stop-opacity="0"/>
</linearGradient>
<linearGradient id="paint10_linear" x1="50.7369" y1="110.695" x2="79.0294" y2="116.056" gradientUnits="userSpaceOnUse">
<stop stop-color="white"/>
<stop offset="1" stop-color="white" stop-opacity="0"/>
</linearGradient>
</defs>
</svg>
