<svg width="150" height="150" viewBox="0 0 150 150" fill="none" xmlns="http://www.w3.org/2000/svg">
<path d="M62.5676 66.2549L61.7217 55.2581L72.2956 56.5269V65.409L62.5676 66.2549Z" fill="#AA6431"/>
<path d="M62.5676 66.2549L61.7217 55.2581L72.2956 56.5269V65.409L62.5676 66.2549Z" fill="url(#paint0_linear)"/>
<path d="M30.423 141.541L32.9607 133.505H90.9056L99.3647 141.541H30.423Z" fill="#F18701"/>
<path d="M30.423 141.541L32.9607 133.505H90.9056L99.3647 141.541H30.423Z" fill="url(#paint1_linear)"/>
<path d="M87.5219 0.273926H120.512V2.81166H87.5219L72.7185 7.88712H60.0298L46.4953 4.08052H30V0.273926H46.4953L60.0298 5.77234H72.7185L87.5219 0.273926Z" fill="#0E0E2C"/>
<path d="M30.423 141.541V150H34.6525V145.771H95.981V150H98.9417V141.541H30.423Z" fill="#ECF1F4"/>
<path d="M79.9087 90.3634C79.9087 92.0552 81.6005 99.6684 81.1775 100.091C72.0135 100.091 53.5163 99.9222 52.8395 99.2455C51.9936 98.3996 53.6855 92.4782 53.6855 90.3634C53.6855 88.2486 49.4559 73.0222 50.7248 73.0222C51.9936 73.0222 54.9543 68.7927 55.8002 67.5238C56.6461 66.2549 59.1839 57.3729 59.6068 56.104C60.0298 54.8352 61.7216 54.8351 61.7216 56.104C61.7216 57.3729 62.1446 62.4484 62.9905 64.5631C63.8364 66.6779 71.0266 66.2549 71.8725 63.7172C72.5493 61.687 72.1545 56.9499 71.8725 54.8351C72.4365 54.4122 73.5643 53.8201 73.5643 54.8351C73.5643 56.104 76.1021 64.9861 76.948 66.6779C77.7938 68.3696 81.1772 71.4711 82.8691 73.022L82.8694 73.0222C82.4464 74.2911 79.9087 88.6716 79.9087 90.3634Z" fill="#8B99A6"/>
<path d="M79.9087 90.3634C79.9087 92.0552 81.6005 99.6684 81.1775 100.091C72.0135 100.091 53.5163 99.9222 52.8395 99.2455C51.9936 98.3996 53.6855 92.4782 53.6855 90.3634C53.6855 88.2486 49.4559 73.0222 50.7248 73.0222C51.9936 73.0222 54.9543 68.7927 55.8002 67.5238C56.6461 66.2549 59.1839 57.3729 59.6068 56.104C60.0298 54.8352 61.7216 54.8351 61.7216 56.104C61.7216 57.3729 62.1446 62.4484 62.9905 64.5631C63.8364 66.6779 71.0266 66.2549 71.8725 63.7172C72.5493 61.687 72.1545 56.9499 71.8725 54.8351C72.4365 54.4122 73.5643 53.8201 73.5643 54.8351C73.5643 56.104 76.1021 64.9861 76.948 66.6779C77.7938 68.3696 81.1772 71.4711 82.8691 73.022L82.8694 73.0222C82.4464 74.2911 79.9087 88.6716 79.9087 90.3634Z" fill="url(#paint2_linear)"/>
<path d="M52.8396 99.6682C54.5314 97.638 63.4135 96.8485 67.643 96.7075C79.9087 96.7075 82.8694 99.6682 82.8694 104.321C82.8694 108.973 83.2924 118.278 82.8694 122.508C82.4465 126.737 80.7546 129.275 78.2169 130.544C75.6792 131.813 55.8003 128.429 52.8396 126.737C49.8789 125.046 50.3018 115.741 49.8789 112.357C49.4559 108.973 50.7248 102.206 52.8396 99.6682Z" fill="#31374B"/>
<path d="M52.8396 99.6682C54.5314 97.638 63.4135 96.8485 67.643 96.7075C79.9087 96.7075 82.8694 99.6682 82.8694 104.321C82.8694 108.973 83.2924 118.278 82.8694 122.508C82.4465 126.737 80.7546 129.275 78.2169 130.544C75.6792 131.813 55.8003 128.429 52.8396 126.737C49.8789 125.046 50.3018 115.741 49.8789 112.357C49.4559 108.973 50.7248 102.206 52.8396 99.6682Z" fill="url(#paint3_linear)"/>
<path d="M50.7249 108.127C50.7249 105.59 55.3774 100.937 59.6069 100.937C61.8627 100.937 66.3742 101.445 66.3742 103.475C66.3742 106.013 67.6431 116.587 66.3742 120.816C65.1053 125.046 65.1053 132.659 64.6824 136.465C64.2594 140.272 53.6855 139.003 53.6855 136.465V128.006C53.6855 123.777 50.7249 110.665 50.7249 108.127Z" fill="#212226"/>
<path d="M50.7249 108.127C50.7249 105.59 55.3774 100.937 59.6069 100.937C61.8627 100.937 66.3742 101.445 66.3742 103.475C66.3742 106.013 67.6431 116.587 66.3742 120.816C65.1053 125.046 65.1053 132.659 64.6824 136.465C64.2594 140.272 53.6855 139.003 53.6855 136.465V128.006C53.6855 123.777 50.7249 110.665 50.7249 108.127Z" fill="url(#paint4_linear)"/>
<path d="M65.9511 103.052C66.9662 100.345 71.1676 99.9501 73.1414 100.091C74.6536 100.091 81.6005 100.091 81.6005 103.052V114.472C81.6005 116.586 77.371 134.774 76.948 138.157C76.525 141.541 65.9511 138.58 65.9511 136.465C65.9511 134.351 64.6823 106.435 65.9511 103.052Z" fill="#212226"/>
<path d="M65.9511 103.052C66.9662 100.345 71.1676 99.9501 73.1414 100.091C74.6536 100.091 81.6005 100.091 81.6005 103.052V114.472C81.6005 116.586 77.371 134.774 76.948 138.157C76.525 141.541 65.9511 138.58 65.9511 136.465C65.9511 134.351 64.6823 106.435 65.9511 103.052Z" fill="url(#paint5_linear)"/>
<path d="M74.4102 40.8777C75.4253 43.923 74.8331 49.3367 74.4102 50.1827C73.9873 51.0288 60.0297 51.4515 59.6068 50.6056C59.1838 49.7596 58.7609 42.1466 59.184 40.0317C59.607 37.9168 63.4134 33.2644 67.6429 33.2644C71.8724 33.2644 73.1413 37.0711 74.4102 40.8777Z" fill="#212226"/>
<path d="M74.4102 40.8777C75.4253 43.923 74.8331 49.3367 74.4102 50.1827C73.9873 51.0288 60.0297 51.4515 59.6068 50.6056C59.1838 49.7596 58.7609 42.1466 59.184 40.0317C59.607 37.9168 63.4134 33.2644 67.6429 33.2644C71.8724 33.2644 73.1413 37.0711 74.4102 40.8777Z" fill="url(#paint6_linear)"/>
<path d="M57.492 51.8744C58.5071 52.8895 60.1707 55.117 60.8757 56.1039V64.986C58.056 68.0877 52.0782 74.2064 50.7248 73.8681C49.0329 73.4451 49.4559 62.4483 49.4559 61.6024C49.4559 60.7565 48.61 59.4876 47.3411 57.3728C46.0723 55.258 45.6493 50.6055 45.6493 49.3367C45.6493 48.0678 46.4952 41.3005 46.4952 39.6087V26.4971C46.4952 22.6905 49.0329 12.5396 48.61 10.4248C48.187 8.31001 48.187 1.96565 51.1477 0.69678C54.1084 -0.572086 58.7609 4.92633 58.7609 6.1952C58.7609 7.46406 54.9543 12.1166 54.1084 13.8084C53.2625 15.5002 54.1084 37.0709 54.1084 37.9168C54.1084 38.7628 56.2231 42.1464 56.6461 44.2612C57.0691 46.3759 56.2231 50.6055 57.492 51.8744Z" fill="#AA6431"/>
<path d="M57.492 51.8744C58.5071 52.8895 60.1707 55.117 60.8757 56.1039V64.986C58.056 68.0877 52.0782 74.2064 50.7248 73.8681C49.0329 73.4451 49.4559 62.4483 49.4559 61.6024C49.4559 60.7565 48.61 59.4876 47.3411 57.3728C46.0723 55.258 45.6493 50.6055 45.6493 49.3367C45.6493 48.0678 46.4952 41.3005 46.4952 39.6087V26.4971C46.4952 22.6905 49.0329 12.5396 48.61 10.4248C48.187 8.31001 48.187 1.96565 51.1477 0.69678C54.1084 -0.572086 58.7609 4.92633 58.7609 6.1952C58.7609 7.46406 54.9543 12.1166 54.1084 13.8084C53.2625 15.5002 54.1084 37.0709 54.1084 37.9168C54.1084 38.7628 56.2231 42.1464 56.6461 44.2612C57.0691 46.3759 56.2231 50.6055 57.492 51.8744Z" fill="url(#paint7_linear)"/>
<path d="M76.1021 51.0285C75.4254 51.3669 73.5644 53.9892 72.7185 55.2581L75.2562 68.3696C76.8071 70.3434 80.4163 74.0372 82.4465 73.0221C84.9842 71.7533 83.7153 63.7171 84.1383 61.6024C84.5613 59.4876 88.3678 51.0285 88.3678 48.9137C88.3678 46.7989 87.5219 40.4546 87.5219 39.1857C87.5219 37.9169 88.3678 27.7659 88.3678 26.0741C88.3678 24.3823 85.8301 12.9625 85.8301 11.6937V6.19522C85.8301 3.65749 84.1383 1.11981 82.8694 0.273897C81.6006 -0.572013 78.2169 0.696853 76.9481 1.96572C75.6792 3.23458 76.1021 5.34936 76.1021 7.04118C76.1021 8.733 79.9087 10.4248 80.3317 11.6937C80.7547 12.9626 79.0628 35.8021 79.0628 36.648C79.0628 37.494 76.9481 41.7235 76.1021 43.4153C75.2562 45.1072 76.9481 50.6056 76.1021 51.0285Z" fill="#AA6431"/>
<path d="M76.1021 51.0285C75.4254 51.3669 73.5644 53.9892 72.7185 55.2581L75.2562 68.3696C76.8071 70.3434 80.4163 74.0372 82.4465 73.0221C84.9842 71.7533 83.7153 63.7171 84.1383 61.6024C84.5613 59.4876 88.3678 51.0285 88.3678 48.9137C88.3678 46.7989 87.5219 40.4546 87.5219 39.1857C87.5219 37.9169 88.3678 27.7659 88.3678 26.0741C88.3678 24.3823 85.8301 12.9625 85.8301 11.6937V6.19522C85.8301 3.65749 84.1383 1.11981 82.8694 0.273897C81.6006 -0.572013 78.2169 0.696853 76.9481 1.96572C75.6792 3.23458 76.1021 5.34936 76.1021 7.04118C76.1021 8.733 79.9087 10.4248 80.3317 11.6937C80.7547 12.9626 79.0628 35.8021 79.0628 36.648C79.0628 37.494 76.9481 41.7235 76.1021 43.4153C75.2562 45.1072 76.9481 50.6056 76.1021 51.0285Z" fill="url(#paint8_linear)"/>
<path d="M62.1446 56.9501C62.1446 55.5967 61.5806 49.9009 61.2987 47.2221C61.1673 45.9533 65.9512 44.2615 68.9119 44.6844C71.8725 45.1074 73.1414 49.3369 73.1414 50.6058C73.1414 51.8746 71.8725 56.9501 71.8725 58.219C71.8725 59.4878 62.1446 58.6419 62.1446 56.9501Z" fill="#AA6431"/>
<path d="M62.1446 56.9501C62.1446 55.5967 61.5806 49.9009 61.2987 47.2221C61.1673 45.9533 65.9512 44.2615 68.9119 44.6844C71.8725 45.1074 73.1414 49.3369 73.1414 50.6058C73.1414 51.8746 71.8725 56.9501 71.8725 58.219C71.8725 59.4878 62.1446 58.6419 62.1446 56.9501Z" fill="url(#paint9_linear)"/>
<defs>
<linearGradient id="paint0_linear" x1="54.7592" y1="61.3153" x2="66.4234" y2="60.1379" gradientUnits="userSpaceOnUse">
<stop stop-color="white"/>
<stop offset="1" stop-color="white" stop-opacity="0"/>
</linearGradient>
<linearGradient id="paint1_linear" x1="4.76576" y1="126.927" x2="6.23072" y2="146.394" gradientUnits="userSpaceOnUse">
<stop stop-color="white"/>
<stop offset="1" stop-color="white" stop-opacity="0"/>
</linearGradient>
<linearGradient id="paint2_linear" x1="36.9429" y1="82.8573" x2="61.6533" y2="80.2865" gradientUnits="userSpaceOnUse">
<stop stop-color="white"/>
<stop offset="1" stop-color="white" stop-opacity="0"/>
</linearGradient>
<linearGradient id="paint3_linear" x1="4.77437" y1="101.581" x2="66.6276" y2="127.206" gradientUnits="userSpaceOnUse">
<stop stop-color="white"/>
<stop offset="1" stop-color="white" stop-opacity="0"/>
</linearGradient>
<linearGradient id="paint4_linear" x1="28.7769" y1="106.356" x2="62.9757" y2="112.568" gradientUnits="userSpaceOnUse">
<stop stop-color="white"/>
<stop offset="1" stop-color="white" stop-opacity="0"/>
</linearGradient>
<linearGradient id="paint5_linear" x1="43.4392" y1="105.727" x2="77.7297" y2="111.689" gradientUnits="userSpaceOnUse">
<stop stop-color="white"/>
<stop offset="1" stop-color="white" stop-opacity="0"/>
</linearGradient>
<linearGradient id="paint6_linear" x1="37.4009" y1="35.8076" x2="67.7716" y2="47.3791" gradientUnits="userSpaceOnUse">
<stop stop-color="white"/>
<stop offset="1" stop-color="white" stop-opacity="0"/>
</linearGradient>
<linearGradient id="paint7_linear" x1="35.6234" y1="40.9233" x2="52.5829" y2="40.5539" gradientUnits="userSpaceOnUse">
<stop stop-color="white"/>
<stop offset="1" stop-color="white" stop-opacity="0"/>
</linearGradient>
<linearGradient id="paint8_linear" x1="62.4141" y1="40.3172" x2="79.8442" y2="39.9259" gradientUnits="userSpaceOnUse">
<stop stop-color="white"/>
<stop offset="1" stop-color="white" stop-opacity="0"/>
</linearGradient>
<linearGradient id="paint9_linear" x1="53.4963" y1="52.4462" x2="66.596" y2="51.3" gradientUnits="userSpaceOnUse">
<stop stop-color="white"/>
<stop offset="1" stop-color="white" stop-opacity="0"/>
</linearGradient>
</defs>
</svg>
