<svg width="150" height="150" viewBox="0 0 150 150" fill="none" xmlns="http://www.w3.org/2000/svg">
<path d="M64.6601 22.0091C63.4863 21.2265 59.2801 21.683 57.3238 22.0091C56.3456 25.4327 54.3892 32.9648 54.3892 35.7037C54.3892 39.1274 53.9001 43.0401 53.411 47.4419C52.9219 51.8438 50.4765 56.7347 52.4328 56.7347C54.3892 56.7347 64.6601 49.8874 69.062 49.8874C73.4638 49.8874 82.7566 54.7783 83.7348 53.8002C84.7129 52.822 83.2457 49.8874 83.7348 44.0183C84.2238 38.1492 84.2238 40.1056 85.202 37.6601C86.1802 35.2146 81.2893 23.4765 81.2893 22.0091C81.2893 20.5416 76.3984 21.031 73.9529 22.0091C71.5074 22.9871 66.1274 22.9872 64.6601 22.0091Z" fill="#8B99A6"/>
<path d="M64.6601 22.0091C63.4863 21.2265 59.2801 21.683 57.3238 22.0091C56.3456 25.4327 54.3892 32.9648 54.3892 35.7037C54.3892 39.1274 53.9001 43.0401 53.411 47.4419C52.9219 51.8438 50.4765 56.7347 52.4328 56.7347C54.3892 56.7347 64.6601 49.8874 69.062 49.8874C73.4638 49.8874 82.7566 54.7783 83.7348 53.8002C84.7129 52.822 83.2457 49.8874 83.7348 44.0183C84.2238 38.1492 84.2238 40.1056 85.202 37.6601C86.1802 35.2146 81.2893 23.4765 81.2893 22.0091C81.2893 20.5416 76.3984 21.031 73.9529 22.0091C71.5074 22.9871 66.1274 22.9872 64.6601 22.0091Z" fill="url(#paint0_linear)"/>
<path d="M69.551 29.8345C65.6383 29.8345 64.171 27.389 63.6819 25.4327C63.4758 24.608 64.6601 22.4981 64.6601 20.5417C64.6601 18.5854 64.171 17.1179 64.6601 16.629C68.0838 16.1399 73.9529 15.4553 73.9529 16.6291V22.009C73.9529 23.4763 75.1304 24.6354 74.9311 25.4327C74.442 27.389 73.4638 29.8345 69.551 29.8345Z" fill="#AA6431"/>
<path d="M69.551 29.8345C65.6383 29.8345 64.171 27.389 63.6819 25.4327C63.4758 24.608 64.6601 22.4981 64.6601 20.5417C64.6601 18.5854 64.171 17.1179 64.6601 16.629C68.0838 16.1399 73.9529 15.4553 73.9529 16.6291V22.009C73.9529 23.4763 75.1304 24.6354 74.9311 25.4327C74.442 27.389 73.4638 29.8345 69.551 29.8345Z" fill="url(#paint1_linear)"/>
<path d="M91.0712 10.271H122.862V13.2056H91.0712V10.271Z" fill="#0E0E2C"/>
<path d="M27 11.7383H48.5201V14.6728H27V11.7383Z" fill="#0E0E2C"/>
<path d="M63.1928 144.111C62.4103 141.372 62.8668 135.145 63.1928 132.373C66.9426 131.232 75.0289 129.047 77.3766 129.439C80.3111 129.928 82.2675 133.84 82.2675 137.753C82.2675 141.666 73.9529 150.47 71.0184 149.981C68.0838 149.491 64.171 147.535 63.1928 144.111Z" fill="#212226"/>
<path d="M63.1928 144.111C62.4103 141.372 62.8668 135.145 63.1928 132.373C66.9426 131.232 75.0289 129.047 77.3766 129.439C80.3111 129.928 82.2675 133.84 82.2675 137.753C82.2675 141.666 73.9529 150.47 71.0184 149.981C68.0838 149.491 64.171 147.535 63.1928 144.111Z" fill="url(#paint2_linear)"/>
<path fill-rule="evenodd" clip-rule="evenodd" d="M66.6165 45.9743L53.9001 52.6507C52.4328 57.5416 49.4983 68.3016 49.4983 72.2144C49.4983 77.1053 50.4765 87.3763 51.4547 89.8217C52.4328 92.2672 61.7256 115.744 62.2147 118.189C62.3064 118.648 62.4325 119.175 62.5704 119.752C63.168 122.251 63.9877 125.678 63.1929 128.46C62.2147 131.884 63.682 132.373 64.6602 132.373C65.6383 132.373 77.8657 132.373 78.8438 130.416C79.3239 129.456 79.0972 126.965 78.8574 124.33C78.6086 121.595 78.3457 118.705 78.8438 117.211C79.822 114.276 85.6911 92.7563 86.6693 88.3545C87.4412 84.8812 86.995 74.4043 86.7724 69.1775C86.7129 67.7801 86.6693 66.758 86.6693 66.3453C86.6693 64.3889 85.6911 54.6071 82.2675 51.6725C79.5286 49.3249 69.7141 44.9961 66.6165 45.9743ZM69.5511 91.4601C69.062 90.3189 68.0838 87.6452 68.0838 86.0801C68.0838 84.1237 68.0838 81.6782 69.5511 81.6782C70.7452 81.6782 70.6436 83.622 70.5643 85.1366C70.5462 85.483 70.5293 85.8069 70.5293 86.0801C70.5293 87.2539 69.8771 90.1558 69.5511 91.4601Z" fill="#31374B"/>
<path fill-rule="evenodd" clip-rule="evenodd" d="M66.6165 45.9743L53.9001 52.6507C52.4328 57.5416 49.4983 68.3016 49.4983 72.2144C49.4983 77.1053 50.4765 87.3763 51.4547 89.8217C52.4328 92.2672 61.7256 115.744 62.2147 118.189C62.3064 118.648 62.4325 119.175 62.5704 119.752C63.168 122.251 63.9877 125.678 63.1929 128.46C62.2147 131.884 63.682 132.373 64.6602 132.373C65.6383 132.373 77.8657 132.373 78.8438 130.416C79.3239 129.456 79.0972 126.965 78.8574 124.33C78.6086 121.595 78.3457 118.705 78.8438 117.211C79.822 114.276 85.6911 92.7563 86.6693 88.3545C87.4412 84.8812 86.995 74.4043 86.7724 69.1775C86.7129 67.7801 86.6693 66.758 86.6693 66.3453C86.6693 64.3889 85.6911 54.6071 82.2675 51.6725C79.5286 49.3249 69.7141 44.9961 66.6165 45.9743ZM69.5511 91.4601C69.062 90.3189 68.0838 87.6452 68.0838 86.0801C68.0838 84.1237 68.0838 81.6782 69.5511 81.6782C70.7452 81.6782 70.6436 83.622 70.5643 85.1366C70.5462 85.483 70.5293 85.8069 70.5293 86.0801C70.5293 87.2539 69.8771 90.1558 69.5511 91.4601Z" fill="url(#paint3_linear)"/>
<path d="M61.2365 9.78185C61.2365 12.7164 61.2365 14.1837 62.7037 14.1837H74.442C75.9092 14.1837 75.9092 12.2273 75.9092 9.78185C75.9092 7.33639 74.442 3.75707e-05 68.5728 0C62.7037 -3.75704e-05 61.2365 6.8473 61.2365 9.78185Z" fill="#212226"/>
<path d="M61.2365 9.78185C61.2365 12.7164 61.2365 14.1837 62.7037 14.1837H74.442C75.9092 14.1837 75.9092 12.2273 75.9092 9.78185C75.9092 7.33639 74.442 3.75707e-05 68.5728 0C62.7037 -3.75704e-05 61.2365 6.8473 61.2365 9.78185Z" fill="url(#paint4_linear)"/>
<path d="M62.7037 9.78195C62.7037 7.82558 65.1492 2.44556 68.5728 2.44556C71.9965 2.44556 74.442 8.80376 74.442 10.7601C74.442 12.7165 71.9965 18.0965 68.5728 18.0965C65.1492 18.0965 62.7037 12.2274 62.7037 9.78195Z" fill="#AA6431"/>
<path d="M62.7037 9.78195C62.7037 7.82558 65.1492 2.44556 68.5728 2.44556C71.9965 2.44556 74.442 8.80376 74.442 10.7601C74.442 12.7165 71.9965 18.0965 68.5728 18.0965C65.1492 18.0965 62.7037 12.2274 62.7037 9.78195Z" fill="url(#paint5_linear)"/>
<path d="M54.3892 20.542C55.1717 20.542 57.3238 21.1941 58.3019 21.5202C58.791 22.9875 58.3019 26.9002 58.3019 28.3675C58.3019 29.8348 54.3892 36.682 53.411 39.1275C52.4328 41.573 49.4983 45.4857 48.031 45.9748C46.8572 46.3661 45.5855 44.8336 45.0964 44.0184C45.5855 38.9645 46.6615 28.4653 47.0528 26.9002C47.5419 24.9438 53.411 20.542 54.3892 20.542Z" fill="#AA6431"/>
<path d="M54.3892 20.542C55.1717 20.542 57.3238 21.1941 58.3019 21.5202C58.791 22.9875 58.3019 26.9002 58.3019 28.3675C58.3019 29.8348 54.3892 36.682 53.411 39.1275C52.4328 41.573 49.4983 45.4857 48.031 45.9748C46.8572 46.3661 45.5855 44.8336 45.0964 44.0184C45.5855 38.9645 46.6615 28.4653 47.0528 26.9002C47.5419 24.9438 53.411 20.542 54.3892 20.542Z" fill="url(#paint6_linear)"/>
<path d="M84.9303 20.0527C84.1477 20.0527 81.9957 20.7049 81.0175 21.0309C80.5284 22.4982 81.0175 26.4109 81.0175 27.8782C81.0175 29.3455 84.9303 36.1928 85.9084 38.6383C86.8866 41.0837 89.8212 44.9965 91.2885 45.4855C92.4623 45.8768 93.7339 44.3443 94.223 43.5292C93.7339 38.4752 92.6579 27.976 92.2667 26.4109C91.7776 24.4546 85.9084 20.0527 84.9303 20.0527Z" fill="#AA6431"/>
<path d="M84.9303 20.0527C84.1477 20.0527 81.9957 20.7049 81.0175 21.0309C80.5284 22.4982 81.0175 26.4109 81.0175 27.8782C81.0175 29.3455 84.9303 36.1928 85.9084 38.6383C86.8866 41.0837 89.8212 44.9965 91.2885 45.4855C92.4623 45.8768 93.7339 44.3443 94.223 43.5292C93.7339 38.4752 92.6579 27.976 92.2667 26.4109C91.7776 24.4546 85.9084 20.0527 84.9303 20.0527Z" fill="url(#paint7_linear)"/>
<path d="M68.5728 16.1401C66.6164 16.1401 54.3891 13.2056 48.52 11.7383C48.1939 12.7165 47.7374 14.6728 48.52 14.6728C49.4982 14.6728 67.1055 18.5856 68.5728 18.5856C69.7466 18.5856 84.0607 14.9989 91.071 13.2056C91.5601 12.2274 92.2449 10.271 91.071 10.271C89.6038 10.271 71.0182 16.1401 68.5728 16.1401Z" fill="#0E0E2C"/>
<path d="M89.7023 10.271C90.0936 8.70589 93.1259 7.33643 95.0823 7.33643C97.0388 7.33643 98.9951 8.8037 99.9733 10.271C100.951 11.7383 98.9951 16.6292 98.0169 17.6074C97.0388 18.5856 98.506 24.9438 98.9951 26.9001C99.4842 28.8565 100.462 39.1274 99.9733 41.5729C99.4842 44.0184 96.0605 46.4638 95.0823 46.9529C94.1042 47.442 92.6369 46.4638 91.1696 45.4856C89.7023 44.5075 91.1696 28.3674 91.6587 26.9001C92.1478 25.4329 91.6587 19.0746 91.1696 17.6074C90.6805 16.1401 89.2132 12.2274 89.7023 10.271Z" fill="#AA6431"/>
<path d="M89.7023 10.271C90.0936 8.70589 93.1259 7.33643 95.0823 7.33643C97.0388 7.33643 98.9951 8.8037 99.9733 10.271C100.951 11.7383 98.9951 16.6292 98.0169 17.6074C97.0388 18.5856 98.506 24.9438 98.9951 26.9001C99.4842 28.8565 100.462 39.1274 99.9733 41.5729C99.4842 44.0184 96.0605 46.4638 95.0823 46.9529C94.1042 47.442 92.6369 46.4638 91.1696 45.4856C89.7023 44.5075 91.1696 28.3674 91.6587 26.9001C92.1478 25.4329 91.6587 19.0746 91.1696 17.6074C90.6805 16.1401 89.2132 12.2274 89.7023 10.271Z" fill="url(#paint8_linear)"/>
<path d="M49.0092 11.249C48.6179 9.68391 45.5857 8.31445 43.6292 8.31445C41.6728 8.31445 39.7165 9.78173 38.7383 11.249C37.7601 12.7163 39.7165 17.6072 40.6946 18.5854C41.6728 19.5636 40.2056 25.9218 39.7165 27.8782C39.2274 29.8345 38.2492 40.1055 38.7383 42.5509C39.2274 44.9964 42.651 47.4419 43.6292 47.931C44.6074 48.42 46.0747 47.4419 47.5419 46.4637C49.0092 45.4855 47.5419 29.3454 47.0529 27.8782C46.5638 26.4109 47.0529 20.0527 47.5419 18.5854C48.031 17.1181 49.4983 13.2054 49.0092 11.249Z" fill="#AA6431"/>
<path d="M49.0092 11.249C48.6179 9.68391 45.5857 8.31445 43.6292 8.31445C41.6728 8.31445 39.7165 9.78173 38.7383 11.249C37.7601 12.7163 39.7165 17.6072 40.6946 18.5854C41.6728 19.5636 40.2056 25.9218 39.7165 27.8782C39.2274 29.8345 38.2492 40.1055 38.7383 42.5509C39.2274 44.9964 42.651 47.4419 43.6292 47.931C44.6074 48.42 46.0747 47.4419 47.5419 46.4637C49.0092 45.4855 47.5419 29.3454 47.0529 27.8782C46.5638 26.4109 47.0529 20.0527 47.5419 18.5854C48.031 17.1181 49.4983 13.2054 49.0092 11.249Z" fill="url(#paint9_linear)"/>
<defs>
<linearGradient id="paint0_linear" x1="37.6121" y1="43.3242" x2="63.0736" y2="39.7872" gradientUnits="userSpaceOnUse">
<stop stop-color="white"/>
<stop offset="1" stop-color="white" stop-opacity="0"/>
</linearGradient>
<linearGradient id="paint1_linear" x1="56.2199" y1="23.6117" x2="68.716" y2="22.542" gradientUnits="userSpaceOnUse">
<stop stop-color="white"/>
<stop offset="1" stop-color="white" stop-opacity="0"/>
</linearGradient>
<linearGradient id="paint2_linear" x1="36.3544" y1="132.336" x2="72.9386" y2="147.052" gradientUnits="userSpaceOnUse">
<stop stop-color="white"/>
<stop offset="1" stop-color="white" stop-opacity="0"/>
</linearGradient>
<linearGradient id="paint3_linear" x1="-1.40871" y1="58.1956" x2="77.8285" y2="72.8271" gradientUnits="userSpaceOnUse">
<stop stop-color="white"/>
<stop offset="1" stop-color="white" stop-opacity="0"/>
</linearGradient>
<linearGradient id="paint4_linear" x1="41.3739" y1="2.02624" x2="68.1669" y2="13.8041" gradientUnits="userSpaceOnUse">
<stop stop-color="white"/>
<stop offset="1" stop-color="white" stop-opacity="0"/>
</linearGradient>
<linearGradient id="paint5_linear" x1="54.9746" y1="11.0664" x2="67.9745" y2="10.0428" gradientUnits="userSpaceOnUse">
<stop stop-color="white"/>
<stop offset="1" stop-color="white" stop-opacity="0"/>
</linearGradient>
<linearGradient id="paint6_linear" x1="36.258" y1="34.5854" x2="51.1703" y2="33.7612" gradientUnits="userSpaceOnUse">
<stop stop-color="white"/>
<stop offset="1" stop-color="white" stop-opacity="0"/>
</linearGradient>
<linearGradient id="paint7_linear" x1="103.061" y1="34.0961" x2="88.1492" y2="33.2719" gradientUnits="userSpaceOnUse">
<stop stop-color="white"/>
<stop offset="1" stop-color="white" stop-opacity="0"/>
</linearGradient>
<linearGradient id="paint8_linear" x1="107.243" y1="29.2295" x2="95.4003" y2="28.8968" gradientUnits="userSpaceOnUse">
<stop stop-color="white"/>
<stop offset="1" stop-color="white" stop-opacity="0"/>
</linearGradient>
<linearGradient id="paint9_linear" x1="31.4683" y1="30.2075" x2="43.3112" y2="29.8748" gradientUnits="userSpaceOnUse">
<stop stop-color="white"/>
<stop offset="1" stop-color="white" stop-opacity="0"/>
</linearGradient>
</defs>
</svg>
