<svg width="150" height="150" viewBox="0 0 150 150" fill="none" xmlns="http://www.w3.org/2000/svg">
<path d="M64.7182 144.9C64.0405 142.528 64.4358 137.135 64.7182 134.735C67.9656 133.746 74.9686 131.854 77.0017 132.193C79.5431 132.617 81.2374 136.005 81.2374 139.394C81.2374 142.782 74.0367 150.407 71.4953 149.983C68.9539 149.559 65.5653 147.865 64.7182 144.9Z" fill="#212226"/>
<path d="M64.7182 144.9C64.0405 142.528 64.4358 137.135 64.7182 134.735C67.9656 133.746 74.9686 131.854 77.0017 132.193C79.5431 132.617 81.2374 136.005 81.2374 139.394C81.2374 142.782 74.0367 150.407 71.4953 149.983C68.9539 149.559 65.5653 147.865 64.7182 144.9Z" fill="url(#paint0_linear)"/>
<path fill-rule="evenodd" clip-rule="evenodd" d="M70.6976 66.5L57.1434 67.3472C55.8727 71.5828 53.3313 80.9013 53.3313 84.2899C53.3313 88.5256 54.1784 97.4205 55.0256 99.5383C55.8727 101.656 63.9205 121.987 64.3441 124.105C64.4235 124.502 64.5327 124.959 64.6521 125.458C65.1697 127.623 65.8795 130.591 65.1912 133C64.3441 135.965 65.6148 136.389 66.4619 136.389C67.309 136.389 77.8982 136.389 78.7454 134.694C79.1611 133.863 78.9648 131.706 78.7571 129.423C78.5416 127.055 78.3139 124.552 78.7454 123.258C79.5925 120.717 84.6753 102.08 85.5224 98.2676C86.1909 95.2597 85.8045 86.1864 85.6117 81.6599C85.5601 80.4497 85.5224 79.5645 85.5224 79.2071C85.5224 77.5128 84.6753 69.0414 81.7103 66.5C79.3384 64.4669 73.3802 65.6529 70.6976 66.5ZM70.6976 102.503C70.274 101.515 69.4269 99.1995 69.4269 97.8441C69.4269 96.1499 69.4269 94.032 70.6976 94.032C71.7318 94.032 71.6437 95.7154 71.5751 97.027C71.5594 97.327 71.5447 97.6076 71.5447 97.8441C71.5447 98.8607 70.98 101.374 70.6976 102.503Z" fill="#31374B"/>
<path fill-rule="evenodd" clip-rule="evenodd" d="M70.6976 66.5L57.1434 67.3472C55.8727 71.5828 53.3313 80.9013 53.3313 84.2899C53.3313 88.5256 54.1784 97.4205 55.0256 99.5383C55.8727 101.656 63.9205 121.987 64.3441 124.105C64.4235 124.502 64.5327 124.959 64.6521 125.458C65.1697 127.623 65.8795 130.591 65.1912 133C64.3441 135.965 65.6148 136.389 66.4619 136.389C67.309 136.389 77.8982 136.389 78.7454 134.694C79.1611 133.863 78.9648 131.706 78.7571 129.423C78.5416 127.055 78.3139 124.552 78.7454 123.258C79.5925 120.717 84.6753 102.08 85.5224 98.2676C86.1909 95.2597 85.8045 86.1864 85.6117 81.6599C85.5601 80.4497 85.5224 79.5645 85.5224 79.2071C85.5224 77.5128 84.6753 69.0414 81.7103 66.5C79.3384 64.4669 73.3802 65.6529 70.6976 66.5ZM70.6976 102.503C70.274 101.515 69.4269 99.1995 69.4269 97.8441C69.4269 96.1499 69.4269 94.032 70.6976 94.032C71.7318 94.032 71.6437 95.7154 71.5751 97.027C71.5594 97.327 71.5447 97.6076 71.5447 97.8441C71.5447 98.8607 70.98 101.374 70.6976 102.503Z" fill="url(#paint1_linear)"/>
<path d="M88.4873 2.11792H116.019V4.65933H88.4873V2.11792Z" fill="#0E0E2C"/>
<path d="M33 3.38843H51.637V5.92983H33V3.38843Z" fill="#0E0E2C"/>
<path d="M69.0032 7.20073C67.3089 7.20073 56.7197 4.65933 51.6369 3.38862C51.3545 4.23576 50.9592 5.93003 51.6369 5.93003C52.484 5.93003 67.7325 9.31857 69.0032 9.31857C70.0197 9.31857 82.4161 6.21241 88.4873 4.65933C88.9108 3.81219 89.5038 2.11792 88.4873 2.11792C87.2166 2.11792 71.121 7.20073 69.0032 7.20073Z" fill="#0E0E2C"/>
<path d="M79.1689 28.3791L62.2262 27.9556C60.2496 31.4853 56.2963 39.053 56.2963 41.0862C56.2963 43.6276 57.9905 46.169 57.9905 49.1339C57.9905 52.0989 56.2963 64.3824 56.2963 66.9238C56.2963 69.4652 82.5575 68.6181 83.4046 67.7709C84.2517 66.9238 83.8282 51.6754 83.4046 49.1339C83.0657 47.1008 84.3929 43.4864 85.0989 41.9333L79.1689 28.3791Z" fill="#8B99A6"/>
<path d="M79.1689 28.3791L62.2262 27.9556C60.2496 31.4853 56.2963 39.053 56.2963 41.0862C56.2963 43.6276 57.9905 46.169 57.9905 49.1339C57.9905 52.0989 56.2963 64.3824 56.2963 66.9238C56.2963 69.4652 82.5575 68.6181 83.4046 67.7709C84.2517 66.9238 83.8282 51.6754 83.4046 49.1339C83.0657 47.1008 84.3929 43.4864 85.0989 41.9333L79.1689 28.3791Z" fill="url(#paint2_linear)"/>
<path d="M66.4619 26.6846C66.4619 25.3292 65.6147 22.7313 65.1912 21.6018C68.8621 21.1783 76.0345 20.5853 75.3568 21.6018C74.5097 22.8725 74.5097 24.5668 74.5097 26.6846C74.5097 28.8025 74.9332 28.3789 74.9332 30.0732C74.9332 31.7674 71.9682 36.4267 69.8504 36.4267C67.7326 36.4267 65.6147 31.3439 65.6147 30.0732C65.6147 28.8025 66.4619 28.3789 66.4619 26.6846Z" fill="#AA6431"/>
<path d="M66.4619 26.6846C66.4619 25.3292 65.6147 22.7313 65.1912 21.6018C68.8621 21.1783 76.0345 20.5853 75.3568 21.6018C74.5097 22.8725 74.5097 24.5668 74.5097 26.6846C74.5097 28.8025 74.9332 28.3789 74.9332 30.0732C74.9332 31.7674 71.9682 36.4267 69.8504 36.4267C67.7326 36.4267 65.6147 31.3439 65.6147 30.0732C65.6147 28.8025 66.4619 28.3789 66.4619 26.6846Z" fill="url(#paint3_linear)"/>
<path d="M66.0383 13.1306L64.344 19.0605C64.344 20.7548 68.1561 26.2612 70.6975 26.2612C72.7306 26.2612 74.9332 22.8726 75.7803 21.1784L74.9332 13.5541C73.3801 12.9894 70.1892 11.8599 69.8504 11.8599C69.5115 11.8599 67.1678 12.707 66.0383 13.1306Z" fill="#AA6431"/>
<path d="M66.0383 13.1306L64.344 19.0605C64.344 20.7548 68.1561 26.2612 70.6975 26.2612C72.7306 26.2612 74.9332 22.8726 75.7803 21.1784L74.9332 13.5541C73.3801 12.9894 70.1892 11.8599 69.8504 11.8599C69.5115 11.8599 67.1678 12.707 66.0383 13.1306Z" fill="url(#paint4_linear)"/>
<path d="M55.4491 25.8376C53.3312 25.4141 46.1306 25.4141 45.707 25.4141C43.448 27.2495 38.9299 30.3275 38.9299 31.3441C38.9299 32.6148 43.5892 35.1562 44.4363 35.5797C45.2835 36.0033 51.637 36.8504 53.3312 37.6976C55.0255 38.5447 55.4491 41.9332 56.2962 41.9332C57.1434 41.9332 63.9204 30.0733 63.4968 28.379C63.0733 26.6848 57.5669 26.2612 55.4491 25.8376Z" fill="#AA6431"/>
<path d="M55.4491 25.8376C53.3312 25.4141 46.1306 25.4141 45.707 25.4141C43.448 27.2495 38.9299 30.3275 38.9299 31.3441C38.9299 32.6148 43.5892 35.1562 44.4363 35.5797C45.2835 36.0033 51.637 36.8504 53.3312 37.6976C55.0255 38.5447 55.4491 41.9332 56.2962 41.9332C57.1434 41.9332 63.9204 30.0733 63.4968 28.379C63.0733 26.6848 57.5669 26.2612 55.4491 25.8376Z" fill="url(#paint5_linear)"/>
<path d="M64.7675 22.0256C64.344 15.2485 67.7325 12.7071 69.8504 12.7071C74.8427 12.0294 75.6014 18.637 75.3567 22.0256H76.6274C76.7686 21.4608 77.051 19.5689 77.051 16.5192C77.051 12.7071 74.9331 7.62427 69.8504 7.62427C64.7676 7.62427 63.0732 14.4013 63.0732 16.5192C63.0732 18.2135 64.2028 20.8961 64.7675 22.0256Z" fill="#212226"/>
<path d="M64.7675 22.0256C64.344 15.2485 67.7325 12.7071 69.8504 12.7071C74.8427 12.0294 75.6014 18.637 75.3567 22.0256H76.6274C76.7686 21.4608 77.051 19.5689 77.051 16.5192C77.051 12.7071 74.9331 7.62427 69.8504 7.62427C64.7676 7.62427 63.0732 14.4013 63.0732 16.5192C63.0732 18.2135 64.2028 20.8961 64.7675 22.0256Z" fill="url(#paint6_linear)"/>
<path d="M85.5223 24.5669C87.6402 24.1433 93.5701 23.7197 93.9937 23.7197C96.2527 25.5552 100.771 29.4802 100.771 30.4968C100.771 31.7675 96.5351 34.3089 95.688 34.7325C94.8409 35.1561 89.3345 35.5796 87.6402 36.4268C85.9459 37.2739 85.9459 41.5096 85.0988 41.5096C84.2516 41.5096 75.7803 29.6497 76.2038 27.9554C76.6274 26.2611 83.4045 24.9904 85.5223 24.5669Z" fill="#AA6431"/>
<path d="M85.5223 24.5669C87.6402 24.1433 93.5701 23.7197 93.9937 23.7197C96.2527 25.5552 100.771 29.4802 100.771 30.4968C100.771 31.7675 96.5351 34.3089 95.688 34.7325C94.8409 35.1561 89.3345 35.5796 87.6402 36.4268C85.9459 37.2739 85.9459 41.5096 85.0988 41.5096C84.2516 41.5096 75.7803 29.6497 76.2038 27.9554C76.6274 26.2611 83.4045 24.9904 85.5223 24.5669Z" fill="url(#paint7_linear)"/>
<path d="M52.0605 2.54144C51.7216 1.52488 49.0955 0.988357 47.8248 0.847168C46.4129 0.988357 43.5891 1.52488 43.5891 2.54144C43.5891 3.81214 42.742 6.77711 44.4363 8.89495C46.1305 11.0128 44.4363 11.0128 44.0127 11.8599C43.5891 12.7071 37.2356 23.7198 37.6592 27.5319C38.0827 31.344 38.0828 30.4969 38.9299 31.7676C39.777 33.0383 46.6467 26.6848 46.5541 25.4141C45.707 23.2963 49.9427 11.4364 50.3662 10.1657C50.7898 8.89495 52.0605 8.47139 52.4841 7.62425C52.9076 6.77711 52.4841 3.81214 52.0605 2.54144Z" fill="#AA6431"/>
<path d="M52.0605 2.54144C51.7216 1.52488 49.0955 0.988357 47.8248 0.847168C46.4129 0.988357 43.5891 1.52488 43.5891 2.54144C43.5891 3.81214 42.742 6.77711 44.4363 8.89495C46.1305 11.0128 44.4363 11.0128 44.0127 11.8599C43.5891 12.7071 37.2356 23.7198 37.6592 27.5319C38.0827 31.344 38.0828 30.4969 38.9299 31.7676C39.777 33.0383 46.6467 26.6848 46.5541 25.4141C45.707 23.2963 49.9427 11.4364 50.3662 10.1657C50.7898 8.89495 52.0605 8.47139 52.4841 7.62425C52.9076 6.77711 52.4841 3.81214 52.0605 2.54144Z" fill="url(#paint8_linear)"/>
<path d="M87.8157 1.69427C88.1546 0.677708 90.7807 0.141189 92.0514 0C93.4633 0.141189 96.2871 0.677708 96.2871 1.69427C96.2871 2.96497 97.1342 5.92995 95.44 8.04779C93.7457 10.1656 95.44 10.1656 95.8635 11.0128C96.2871 11.8599 102.641 22.8727 102.217 26.6848C101.793 30.4969 101.793 29.6497 100.946 30.9204C100.099 32.1911 93.2295 25.8376 93.3221 24.5669C94.1692 22.4491 89.9336 10.5892 89.51 9.31849C89.0864 8.04779 87.8157 7.62422 87.3922 6.77708C86.9686 5.92995 87.3922 2.96497 87.8157 1.69427Z" fill="#AA6431"/>
<path d="M87.8157 1.69427C88.1546 0.677708 90.7807 0.141189 92.0514 0C93.4633 0.141189 96.2871 0.677708 96.2871 1.69427C96.2871 2.96497 97.1342 5.92995 95.44 8.04779C93.7457 10.1656 95.44 10.1656 95.8635 11.0128C96.2871 11.8599 102.641 22.8727 102.217 26.6848C101.793 30.4969 101.793 29.6497 100.946 30.9204C100.099 32.1911 93.2295 25.8376 93.3221 24.5669C94.1692 22.4491 89.9336 10.5892 89.51 9.31849C89.0864 8.04779 87.8157 7.62422 87.3922 6.77708C86.9686 5.92995 87.3922 2.96497 87.8157 1.69427Z" fill="url(#paint9_linear)"/>
<defs>
<linearGradient id="paint0_linear" x1="41.4754" y1="134.703" x2="73.1583" y2="147.446" gradientUnits="userSpaceOnUse">
<stop stop-color="white"/>
<stop offset="1" stop-color="white" stop-opacity="0"/>
</linearGradient>
<linearGradient id="paint1_linear" x1="9.24444" y1="75.5219" x2="77.6093" y2="88.8453" gradientUnits="userSpaceOnUse">
<stop stop-color="white"/>
<stop offset="1" stop-color="white" stop-opacity="0"/>
</linearGradient>
<linearGradient id="paint2_linear" x1="44.2491" y1="53.3227" x2="66.2269" y2="51.0312" gradientUnits="userSpaceOnUse">
<stop stop-color="white"/>
<stop offset="1" stop-color="white" stop-opacity="0"/>
</linearGradient>
<linearGradient id="paint3_linear" x1="58.468" y1="29.5155" x2="69.7911" y2="28.7266" gradientUnits="userSpaceOnUse">
<stop stop-color="white"/>
<stop offset="1" stop-color="white" stop-opacity="0"/>
</linearGradient>
<linearGradient id="paint4_linear" x1="56.8137" y1="19.7923" x2="69.4698" y2="18.7372" gradientUnits="userSpaceOnUse">
<stop stop-color="white"/>
<stop offset="1" stop-color="white" stop-opacity="0"/>
</linearGradient>
<linearGradient id="paint5_linear" x1="79.7047" y1="34.5131" x2="52.9601" y2="30.3344" gradientUnits="userSpaceOnUse">
<stop stop-color="white"/>
<stop offset="1" stop-color="white" stop-opacity="0"/>
</linearGradient>
<linearGradient id="paint6_linear" x1="44.1516" y1="9.6816" x2="70.18" y2="20.4167" gradientUnits="userSpaceOnUse">
<stop stop-color="white"/>
<stop offset="1" stop-color="white" stop-opacity="0"/>
</linearGradient>
<linearGradient id="paint7_linear" x1="60.002" y1="33.5187" x2="86.8309" y2="29.6268" gradientUnits="userSpaceOnUse">
<stop stop-color="white"/>
<stop offset="1" stop-color="white" stop-opacity="0"/>
</linearGradient>
<linearGradient id="paint8_linear" x1="27.7485" y1="17.9707" x2="44.4438" y2="17.1238" gradientUnits="userSpaceOnUse">
<stop stop-color="white"/>
<stop offset="1" stop-color="white" stop-opacity="0"/>
</linearGradient>
<linearGradient id="paint9_linear" x1="112.128" y1="17.1235" x2="95.4325" y2="16.2767" gradientUnits="userSpaceOnUse">
<stop stop-color="white"/>
<stop offset="1" stop-color="white" stop-opacity="0"/>
</linearGradient>
</defs>
</svg>
