<svg width="150" height="150" viewBox="0 0 150 150" fill="none" xmlns="http://www.w3.org/2000/svg">
<path d="M91.5 12H124V15H91.5V12Z" fill="#0E0E2C"/>
<path d="M26 13.5H48V16.5H26V13.5Z" fill="#0E0E2C"/>
<path d="M64.3987 144.571C63.6766 142.046 64.0978 136.304 64.3987 133.748C67.8588 132.696 75.3206 130.682 77.4869 131.043C80.1947 131.494 82 135.101 82 138.709C82 142.316 74.3277 150.433 71.6198 149.982C68.9119 149.531 65.3013 147.727 64.3987 144.571Z" fill="#212226"/>
<path d="M64.3987 144.571C63.6766 142.046 64.0978 136.304 64.3987 133.748C67.8588 132.696 75.3206 130.682 77.4869 131.043C80.1947 131.494 82 135.101 82 138.709C82 142.316 74.3277 150.433 71.6198 149.982C68.9119 149.531 65.3013 147.727 64.3987 144.571Z" fill="url(#paint0_linear)"/>
<path fill-rule="evenodd" clip-rule="evenodd" d="M68.5 49.1447L55.5 55.97C54 60.97 51 71.97 51 75.97C51 80.97 52 91.47 53 93.97C54 96.47 63.5 120.47 64 122.97C64.0938 123.439 64.2227 123.978 64.3636 124.567C64.9746 127.122 65.8125 130.626 65 133.47C64 136.97 65.5 137.47 66.5 137.47C67.5 137.47 80 137.47 81 135.47C81.4907 134.488 81.259 131.942 81.0139 129.248C80.7595 126.452 80.4907 123.498 81 121.97C82 118.97 88 96.97 89 92.47C89.789 88.9193 89.3329 78.2087 89.1053 72.8654C89.0445 71.4368 89 70.3919 89 69.97C89 67.97 88 57.97 84.5 54.97C81.7 52.57 71.6667 48.1447 68.5 49.1447ZM71.7442 96C71.1628 94.0167 70 89.37 70 86.65C70 83.25 70 79 71.7442 79C73.1637 79 73.0428 82.3781 72.9487 85.0103C72.9271 85.6123 72.907 86.1753 72.907 86.65C72.907 88.69 72.1318 93.7333 71.7442 96Z" fill="#31374B"/>
<path fill-rule="evenodd" clip-rule="evenodd" d="M68.5 49.1447L55.5 55.97C54 60.97 51 71.97 51 75.97C51 80.97 52 91.47 53 93.97C54 96.47 63.5 120.47 64 122.97C64.0938 123.439 64.2227 123.978 64.3636 124.567C64.9746 127.122 65.8125 130.626 65 133.47C64 136.97 65.5 137.47 66.5 137.47C67.5 137.47 80 137.47 81 135.47C81.4907 134.488 81.259 131.942 81.0139 129.248C80.7595 126.452 80.4907 123.498 81 121.97C82 118.97 88 96.97 89 92.47C89.789 88.9193 89.3329 78.2087 89.1053 72.8654C89.0445 71.4368 89 70.3919 89 69.97C89 67.97 88 57.97 84.5 54.97C81.7 52.57 71.6667 48.1447 68.5 49.1447ZM71.7442 96C71.1628 94.0167 70 89.37 70 86.65C70 83.25 70 79 71.7442 79C73.1637 79 73.0428 82.3781 72.9487 85.0103C72.9271 85.6123 72.907 86.1753 72.907 86.65C72.907 88.69 72.1318 93.7333 71.7442 96Z" fill="url(#paint1_linear)"/>
<path d="M86.9999 21.4417C85.3999 20.6417 82.9999 21.1084 81.9999 21.4417C82.6666 27.6084 84.1999 40.1419 84.9999 40.9419C85.7999 41.7419 90.9999 46.2752 93.4999 48.4419C93.9999 42.9419 94.8999 31.8419 94.4999 31.4419C93.9999 30.9419 93.4999 28.9419 92.4999 26.9419C91.4999 24.9419 88.9999 22.4417 86.9999 21.4417Z" fill="#AA6431"/>
<path d="M86.9999 21.4417C85.3999 20.6417 82.9999 21.1084 81.9999 21.4417C82.6666 27.6084 84.1999 40.1419 84.9999 40.9419C85.7999 41.7419 90.9999 46.2752 93.4999 48.4419C93.9999 42.9419 94.8999 31.8419 94.4999 31.4419C93.9999 30.9419 93.4999 28.9419 92.4999 26.9419C91.4999 24.9419 88.9999 22.4417 86.9999 21.4417Z" fill="url(#paint2_linear)"/>
<path d="M63 10C63 13 63 14.5 64.5 14.5H76.5C78 14.5 78 12.5 78 10C78 7.5 76.5 3.84085e-05 70.5 0C64.5 -3.84082e-05 63 7 63 10Z" fill="#212226"/>
<path d="M63 10C63 13 63 14.5 64.5 14.5H76.5C78 14.5 78 12.5 78 10C78 7.5 76.5 3.84085e-05 70.5 0C64.5 -3.84082e-05 63 7 63 10Z" fill="url(#paint3_linear)"/>
<path d="M64.5 10C64.5 8 67 2.5 70.5 2.5C74 2.5 76.5 9 76.5 11C76.5 13 74 18.5 70.5 18.5C67 18.5 64.5 12.5 64.5 10Z" fill="#AA6431"/>
<path d="M64.5 10C64.5 8 67 2.5 70.5 2.5C74 2.5 76.5 9 76.5 11C76.5 13 74 18.5 70.5 18.5C67 18.5 64.5 12.5 64.5 10Z" fill="url(#paint4_linear)"/>
<path d="M67.1114 21.9871C65.9252 21.153 61.6748 21.6395 59.6979 21.9871C58.7094 25.6362 56.7324 33.6644 56.7324 36.5838C56.7324 40.2329 56.2382 44.4034 55.744 49.0951C55.2497 53.7869 52.7786 59 54.7555 59C56.7324 59 67.1114 51.7017 71.5595 51.7017C76.0076 51.7017 85.3981 56.9148 86.3866 55.8722C87.3751 54.8295 85.8923 51.7017 86.3866 45.446C86.8808 39.1903 86.8808 41.2755 87.8693 38.669C88.8578 36.0624 83.9154 23.5512 83.9154 21.9871C83.9154 20.4229 78.9731 20.9446 76.5019 21.9871C74.0307 23.0295 68.5941 23.0297 67.1114 21.9871Z" fill="#8B99A6"/>
<path d="M67.1114 21.9871C65.9252 21.153 61.6748 21.6395 59.6979 21.9871C58.7094 25.6362 56.7324 33.6644 56.7324 36.5838C56.7324 40.2329 56.2382 44.4034 55.744 49.0951C55.2497 53.7869 52.7786 59 54.7555 59C56.7324 59 67.1114 51.7017 71.5595 51.7017C76.0076 51.7017 85.3981 56.9148 86.3866 55.8722C87.3751 54.8295 85.8923 51.7017 86.3866 45.446C86.8808 39.1903 86.8808 41.2755 87.8693 38.669C88.8578 36.0624 83.9154 23.5512 83.9154 21.9871C83.9154 20.4229 78.9731 20.9446 76.5019 21.9871C74.0307 23.0295 68.5941 23.0297 67.1114 21.9871Z" fill="url(#paint5_linear)"/>
<path d="M70.7143 29C67.2857 29 65 26.3155 65 25C65 24.6585 66 23.5 66 22V13.8716C69 13.2139 75 12.293 75 13.8716V22C75 23.5 76.5 24.8354 76.5 25.5C76.5 27.4733 74.1429 29 70.7143 29Z" fill="#AA6431"/>
<path d="M70.7143 29C67.2857 29 65 26.3155 65 25C65 24.6585 66 23.5 66 22V13.8716C69 13.2139 75 12.293 75 13.8716V22C75 23.5 76.5 24.8354 76.5 25.5C76.5 27.4733 74.1429 29 70.7143 29Z" fill="url(#paint6_linear)"/>
<path d="M68.4999 18C66.4999 18 53.9999 15 47.9999 13.5C47.6666 14.5 47.1999 16.5 47.9999 16.5C48.9999 16.5 66.9999 20.5 68.4999 20.5C69.6999 20.5 84.3333 16.8333 91.5 15C92 14 92.7 12 91.5 12C90 12 70.9999 18 68.4999 18Z" fill="#0E0E2C"/>
<path d="M54.9999 21.9998C56.5999 21.1998 58.9999 21.6665 59.9999 21.9998C59.3333 28.1666 57.8 40.7 57 41.5C56.2 42.3 51 46.8333 48.4999 49C47.9999 43.5 47.0999 32.4 47.4999 32C47.9999 31.5 48.4999 29.5 49.4999 27.5C50.4999 25.5 52.9999 22.9998 54.9999 21.9998Z" fill="#AA6431"/>
<path d="M54.9999 21.9998C56.5999 21.1998 58.9999 21.6665 59.9999 21.9998C59.3333 28.1666 57.8 40.7 57 41.5C56.2 42.3 51 46.8333 48.4999 49C47.9999 43.5 47.0999 32.4 47.4999 32C47.9999 31.5 48.4999 29.5 49.4999 27.5C50.4999 25.5 52.9999 22.9998 54.9999 21.9998Z" fill="url(#paint7_linear)"/>
<path d="M40 14.5C40 12.5 43 11 45.5 11C49 11 50 13.5 50 15.5C50 17.5 49.5 19 48.5 21.5C47.5 24 51.5 45 51 47C50.5 49 47.5 50 44.5 50C41.5 50 40.5 42.5 40.5 41C40.5 39.5 42 22 42 20.5C42 19 40 16.5 40 14.5Z" fill="#AA6431"/>
<path d="M40 14.5C40 12.5 43 11 45.5 11C49 11 50 13.5 50 15.5C50 17.5 49.5 19 48.5 21.5C47.5 24 51.5 45 51 47C50.5 49 47.5 50 44.5 50C41.5 50 40.5 42.5 40.5 41C40.5 39.5 42 22 42 20.5C42 19 40 16.5 40 14.5Z" fill="url(#paint8_linear)"/>
<path d="M102.043 13.5C102.043 11.5 99.0435 10 96.5435 10C93.0435 10 92.0435 12.5 92.0435 14.5C92.0435 16.5 92.5435 18 93.5435 20.5C94.5435 23 90.5435 44 91.0435 46C91.5435 48 94.5435 49 97.5435 49C100.543 49 101.543 41.5 101.543 40C101.543 38.5 100.043 21 100.043 19.5C100.043 18 102.043 15.5 102.043 13.5Z" fill="#AA6431"/>
<path d="M102.043 13.5C102.043 11.5 99.0435 10 96.5435 10C93.0435 10 92.0435 12.5 92.0435 14.5C92.0435 16.5 92.5435 18 93.5435 20.5C94.5435 23 90.5435 44 91.0435 46C91.5435 48 94.5435 49 97.5435 49C100.543 49 101.543 41.5 101.543 40C101.543 38.5 100.043 21 100.043 19.5C100.043 18 102.043 15.5 102.043 13.5Z" fill="url(#paint9_linear)"/>
<defs>
<linearGradient id="paint0_linear" x1="39.6334" y1="133.714" x2="73.3838" y2="147.301" gradientUnits="userSpaceOnUse">
<stop stop-color="white"/>
<stop offset="1" stop-color="white" stop-opacity="0"/>
</linearGradient>
<linearGradient id="paint1_linear" x1="-1.04229" y1="61.6386" x2="79.962" y2="76.5964" gradientUnits="userSpaceOnUse">
<stop stop-color="white"/>
<stop offset="1" stop-color="white" stop-opacity="0"/>
</linearGradient>
<linearGradient id="paint2_linear" x1="102.896" y1="36.1154" x2="88.888" y2="35.4402" gradientUnits="userSpaceOnUse">
<stop stop-color="white"/>
<stop offset="1" stop-color="white" stop-opacity="0"/>
</linearGradient>
<linearGradient id="paint3_linear" x1="42.6945" y1="2.07143" x2="70.085" y2="14.112" gradientUnits="userSpaceOnUse">
<stop stop-color="white"/>
<stop offset="1" stop-color="white" stop-opacity="0"/>
</linearGradient>
<linearGradient id="paint4_linear" x1="56.5985" y1="11.3131" x2="69.8883" y2="10.2667" gradientUnits="userSpaceOnUse">
<stop stop-color="white"/>
<stop offset="1" stop-color="white" stop-opacity="0"/>
</linearGradient>
<linearGradient id="paint5_linear" x1="39.7789" y1="44.7062" x2="65.5575" y2="41.3111" gradientUnits="userSpaceOnUse">
<stop stop-color="white"/>
<stop offset="1" stop-color="white" stop-opacity="0"/>
</linearGradient>
<linearGradient id="paint6_linear" x1="57.4277" y1="21.8131" x2="70.1702" y2="20.8516" gradientUnits="userSpaceOnUse">
<stop stop-color="white"/>
<stop offset="1" stop-color="white" stop-opacity="0"/>
</linearGradient>
<linearGradient id="paint7_linear" x1="39.1039" y1="36.6735" x2="53.1118" y2="35.9983" gradientUnits="userSpaceOnUse">
<stop stop-color="white"/>
<stop offset="1" stop-color="white" stop-opacity="0"/>
</linearGradient>
<linearGradient id="paint8_linear" x1="32.7283" y1="32.4818" x2="45.0238" y2="32.1163" gradientUnits="userSpaceOnUse">
<stop stop-color="white"/>
<stop offset="1" stop-color="white" stop-opacity="0"/>
</linearGradient>
<linearGradient id="paint9_linear" x1="109.315" y1="31.4818" x2="97.0197" y2="31.1163" gradientUnits="userSpaceOnUse">
<stop stop-color="white"/>
<stop offset="1" stop-color="white" stop-opacity="0"/>
</linearGradient>
</defs>
</svg>
