<svg width="150" height="150" viewBox="0 0 150 150" fill="none" xmlns="http://www.w3.org/2000/svg">
<path d="M88.4398 2.35596H113.963V4.71198H88.4398V2.35596Z" fill="#0E0E2C"/>
<path d="M37 3.53394H54.2775V5.88996H37V3.53394Z" fill="#0E0E2C"/>
<path d="M70.3769 7.068C68.8062 7.068 58.9895 4.71198 54.2774 3.53397C54.0157 4.31931 53.6492 5.88999 54.2774 5.88999C55.0628 5.88999 69.1989 9.03135 70.3769 9.03135C71.3193 9.03135 82.8115 6.15177 88.4397 4.71198C88.8324 3.92664 89.3822 2.35596 88.4397 2.35596C87.2617 2.35596 72.3403 7.068 70.3769 7.068Z" fill="#0E0E2C"/>
<path d="M67.9762 146.185C67.3461 144.411 67.7137 140.376 67.9762 138.58C70.9955 137.841 77.5066 136.426 79.3969 136.679C81.7598 136.996 83.3351 139.531 83.3351 142.066C83.3351 144.601 76.6402 150.304 74.2773 149.987C71.9144 149.67 68.7638 148.403 67.9762 146.185Z" fill="#212226"/>
<path d="M67.9762 146.185C67.3461 144.411 67.7137 140.376 67.9762 138.58C70.9955 137.841 77.5066 136.426 79.3969 136.679C81.7598 136.996 83.3351 139.531 83.3351 142.066C83.3351 144.601 76.6402 150.304 74.2773 149.987C71.9144 149.67 68.7638 148.403 67.9762 146.185Z" fill="url(#paint0_linear)"/>
<path fill-rule="evenodd" clip-rule="evenodd" d="M71.0034 82.5545L60.912 86.9773C59.7476 90.2174 57.4188 97.3456 57.4188 99.9376C57.4188 103.178 58.1951 109.982 58.9713 111.602C59.7476 113.222 67.1221 128.774 67.5102 130.394C67.583 130.698 67.6831 131.047 67.7925 131.429C68.2668 133.085 68.9172 135.356 68.2865 137.198C67.5102 139.467 68.6746 139.791 69.4509 139.791C70.2271 139.791 79.9304 139.791 80.7067 138.495C81.0876 137.859 80.9077 136.208 80.7175 134.462C80.52 132.651 80.3113 130.736 80.7067 129.746C81.4829 127.802 86.1405 113.546 86.9168 110.63C87.5293 108.329 87.1752 101.388 86.9985 97.9258C86.9513 97.0001 86.9168 96.3229 86.9168 96.0495C86.9168 94.7535 86.1405 88.2734 83.4236 86.3293C81.25 84.7741 73.4616 81.9065 71.0034 82.5545ZM73.7101 123.298C73.2535 121.282 72.3403 116.56 72.3403 113.796C72.3403 110.34 72.3403 106.021 73.7101 106.021C74.8249 106.021 74.73 109.454 74.656 112.129C74.6391 112.741 74.6233 113.313 74.6233 113.796C74.6233 115.869 74.0145 120.995 73.7101 123.298Z" fill="#31374B"/>
<path fill-rule="evenodd" clip-rule="evenodd" d="M71.0034 82.5545L60.912 86.9773C59.7476 90.2174 57.4188 97.3456 57.4188 99.9376C57.4188 103.178 58.1951 109.982 58.9713 111.602C59.7476 113.222 67.1221 128.774 67.5102 130.394C67.583 130.698 67.6831 131.047 67.7925 131.429C68.2668 133.085 68.9172 135.356 68.2865 137.198C67.5102 139.467 68.6746 139.791 69.4509 139.791C70.2271 139.791 79.9304 139.791 80.7067 138.495C81.0876 137.859 80.9077 136.208 80.7175 134.462C80.52 132.651 80.3113 130.736 80.7067 129.746C81.4829 127.802 86.1405 113.546 86.9168 110.63C87.5293 108.329 87.1752 101.388 86.9985 97.9258C86.9513 97.0001 86.9168 96.3229 86.9168 96.0495C86.9168 94.7535 86.1405 88.2734 83.4236 86.3293C81.25 84.7741 73.4616 81.9065 71.0034 82.5545ZM73.7101 123.298C73.2535 121.282 72.3403 116.56 72.3403 113.796C72.3403 110.34 72.3403 106.021 73.7101 106.021C74.8249 106.021 74.73 109.454 74.656 112.129C74.6391 112.741 74.6233 113.313 74.6233 113.796C74.6233 115.869 74.0145 120.995 73.7101 123.298Z" fill="url(#paint1_linear)"/>
<path d="M78.2303 45.5498H65.2722C63.4398 49.2993 58.9895 60.2749 58.9895 62.4346C58.9895 65.1342 60.5602 65.6823 60.5602 68.8319C60.5602 71.9814 59.7748 85.0295 59.7748 87.7291C59.7748 90.4287 84.1204 89.5289 84.9057 88.629C85.6911 87.7291 84.5131 71.5315 84.1204 68.8319C83.8063 66.6722 84.644 64.0844 85.2984 62.4346L78.2303 45.5498Z" fill="#8B99A6"/>
<path d="M78.2303 45.5498H65.2722C63.4398 49.2993 58.9895 60.2749 58.9895 62.4346C58.9895 65.1342 60.5602 65.6823 60.5602 68.8319C60.5602 71.9814 59.7748 85.0295 59.7748 87.7291C59.7748 90.4287 84.1204 89.5289 84.9057 88.629C85.6911 87.7291 84.5131 71.5315 84.1204 68.8319C83.8063 66.6722 84.644 64.0844 85.2984 62.4346L78.2303 45.5498Z" fill="url(#paint2_linear)"/>
<path d="M68.4136 44.3718C68.4136 43.1153 67.6283 40.7069 67.2356 39.6598C70.6387 39.2671 77.288 38.7173 76.6597 39.6598C75.8743 40.8378 75.8743 42.4084 75.8743 44.3718C75.8743 46.3351 76.267 45.9425 76.267 47.5132C76.267 49.0838 73.5183 53.4032 71.555 53.4032C69.5916 53.4032 67.6283 48.6912 67.6283 47.5132C67.6283 46.3351 68.4136 45.9425 68.4136 44.3718Z" fill="#AA6431"/>
<path d="M68.4136 44.3718C68.4136 43.1153 67.6283 40.7069 67.2356 39.6598C70.6387 39.2671 77.288 38.7173 76.6597 39.6598C75.8743 40.8378 75.8743 42.4084 75.8743 44.3718C75.8743 46.3351 76.267 45.9425 76.267 47.5132C76.267 49.0838 73.5183 53.4032 71.555 53.4032C69.5916 53.4032 67.6283 48.6912 67.6283 47.5132C67.6283 46.3351 68.4136 45.9425 68.4136 44.3718Z" fill="url(#paint3_linear)"/>
<path d="M68.021 31.8062L66.4503 37.3036C66.4503 38.8742 69.9843 43.979 72.3404 43.979C74.2252 43.979 76.2671 40.8376 77.0524 39.2669L76.2671 32.1989C74.8273 31.6753 71.8692 30.6282 71.555 30.6282C71.2409 30.6282 69.0681 31.4135 68.021 31.8062Z" fill="#AA6431"/>
<path d="M68.021 31.8062L66.4503 37.3036C66.4503 38.8742 69.9843 43.979 72.3404 43.979C74.2252 43.979 76.2671 40.8376 77.0524 39.2669L76.2671 32.1989C74.8273 31.6753 71.8692 30.6282 71.555 30.6282C71.2409 30.6282 69.0681 31.4135 68.021 31.8062Z" fill="url(#paint4_linear)"/>
<path d="M66.8429 40.0524C66.4503 33.7697 69.5916 31.4137 71.555 31.4137C76.1831 30.7854 76.8865 36.9111 76.6597 40.0524H77.8377C77.9686 39.5289 78.2303 37.775 78.2303 34.9477C78.2303 31.4137 76.267 26.7017 71.555 26.7017C66.8429 26.7017 65.2722 32.9844 65.2722 34.9477C65.2722 36.5184 66.3194 39.0053 66.8429 40.0524Z" fill="#212226"/>
<path d="M66.8429 40.0524C66.4503 33.7697 69.5916 31.4137 71.555 31.4137C76.1831 30.7854 76.8865 36.9111 76.6597 40.0524H77.8377C77.9686 39.5289 78.2303 37.775 78.2303 34.9477C78.2303 31.4137 76.267 26.7017 71.555 26.7017C66.8429 26.7017 65.2722 32.9844 65.2722 34.9477C65.2722 36.5184 66.3194 39.0053 66.8429 40.0524Z" fill="url(#paint5_linear)"/>
<path d="M47.6021 4.31943C47.6021 2.35608 49.5654 0.7854 51.5288 0.7854C53.8848 0.7854 55.8481 3.53409 55.8481 5.10477C55.8481 6.67545 54.2774 9.81681 54.2774 10.9948C54.2774 12.1728 57.0261 27.8796 57.0261 28.665C57.0261 29.4503 57.0261 27.487 58.5968 29.4503C60.1675 31.4137 61.7382 40.8378 62.1308 42.0158C62.5235 43.1938 66.0575 44.3718 66.0575 45.5498C66.0575 46.7278 60.5602 62.4346 58.9895 62.8273C57.4188 63.22 55.8481 53.7959 55.8481 51.8325C55.8481 49.8692 53.0994 44.7645 52.3141 43.5864C51.5288 42.4084 51.5288 31.021 51.5288 29.843C51.5288 28.665 50.7434 28.665 49.9581 26.7016C49.1727 24.7383 49.1727 10.6022 49.1727 9.81681C49.1727 9.03147 47.6021 6.28278 47.6021 4.31943Z" fill="#AA6431"/>
<path d="M47.6021 4.31943C47.6021 2.35608 49.5654 0.7854 51.5288 0.7854C53.8848 0.7854 55.8481 3.53409 55.8481 5.10477C55.8481 6.67545 54.2774 9.81681 54.2774 10.9948C54.2774 12.1728 57.0261 27.8796 57.0261 28.665C57.0261 29.4503 57.0261 27.487 58.5968 29.4503C60.1675 31.4137 61.7382 40.8378 62.1308 42.0158C62.5235 43.1938 66.0575 44.3718 66.0575 45.5498C66.0575 46.7278 60.5602 62.4346 58.9895 62.8273C57.4188 63.22 55.8481 53.7959 55.8481 51.8325C55.8481 49.8692 53.0994 44.7645 52.3141 43.5864C51.5288 42.4084 51.5288 31.021 51.5288 29.843C51.5288 28.665 50.7434 28.665 49.9581 26.7016C49.1727 24.7383 49.1727 10.6022 49.1727 9.81681C49.1727 9.03147 47.6021 6.28278 47.6021 4.31943Z" fill="url(#paint6_linear)"/>
<path d="M94.0615 3.53131C93.9846 1.56947 91.9611 0.0769753 89.9993 0.153951C87.6451 0.246321 85.791 3.06987 85.8526 4.63935C85.9142 6.20882 87.6068 9.28619 87.653 10.4633C87.6992 11.6404 85.5684 27.4429 85.5992 28.2276C85.63 29.0124 85.553 27.0505 84.0605 29.0739C82.568 31.0974 81.368 40.5758 81.0218 41.7683C80.6756 42.9608 77.1905 44.2764 77.2367 45.4535C77.2829 46.6307 83.3918 62.1099 84.9767 62.4406C86.5616 62.7714 87.7616 53.293 87.6846 51.3312C87.6076 49.3693 90.1541 44.1608 90.8926 42.9529C91.6312 41.745 91.1847 30.3663 91.1385 29.1892C91.0923 28.0121 91.8771 27.9813 92.5848 25.9887C93.2926 23.996 92.7384 9.87079 92.7076 9.08605C92.6768 8.30131 94.1385 5.49316 94.0615 3.53131Z" fill="#AA6431"/>
<path d="M94.0615 3.53131C93.9846 1.56947 91.9611 0.0769753 89.9993 0.153951C87.6451 0.246321 85.791 3.06987 85.8526 4.63935C85.9142 6.20882 87.6068 9.28619 87.653 10.4633C87.6992 11.6404 85.5684 27.4429 85.5992 28.2276C85.63 29.0124 85.553 27.0505 84.0605 29.0739C82.568 31.0974 81.368 40.5758 81.0218 41.7683C80.6756 42.9608 77.1905 44.2764 77.2367 45.4535C77.2829 46.6307 83.3918 62.1099 84.9767 62.4406C86.5616 62.7714 87.7616 53.293 87.6846 51.3312C87.6076 49.3693 90.1541 44.1608 90.8926 42.9529C91.6312 41.745 91.1847 30.3663 91.1385 29.1892C91.0923 28.0121 91.8771 27.9813 92.5848 25.9887C93.2926 23.996 92.7384 9.87079 92.7076 9.08605C92.6768 8.30131 94.1385 5.49316 94.0615 3.53131Z" fill="url(#paint7_linear)"/>
<defs>
<linearGradient id="paint0_linear" x1="46.366" y1="138.556" x2="73.7464" y2="152.245" gradientUnits="userSpaceOnUse">
<stop stop-color="white"/>
<stop offset="1" stop-color="white" stop-opacity="0"/>
</linearGradient>
<linearGradient id="paint1_linear" x1="17.0205" y1="90.6507" x2="79.0118" y2="104.363" gradientUnits="userSpaceOnUse">
<stop stop-color="white"/>
<stop offset="1" stop-color="white" stop-opacity="0"/>
</linearGradient>
<linearGradient id="paint2_linear" x1="47.9853" y1="72.986" x2="68.1225" y2="71.2128" gradientUnits="userSpaceOnUse">
<stop stop-color="white"/>
<stop offset="1" stop-color="white" stop-opacity="0"/>
</linearGradient>
<linearGradient id="paint3_linear" x1="61.0029" y1="46.9961" x2="71.5" y2="46.2648" gradientUnits="userSpaceOnUse">
<stop stop-color="white"/>
<stop offset="1" stop-color="white" stop-opacity="0"/>
</linearGradient>
<linearGradient id="paint4_linear" x1="59.4693" y1="37.982" x2="71.2022" y2="37.0039" gradientUnits="userSpaceOnUse">
<stop stop-color="white"/>
<stop offset="1" stop-color="white" stop-opacity="0"/>
</linearGradient>
<linearGradient id="paint5_linear" x1="47.7308" y1="28.6089" x2="71.8606" y2="38.5609" gradientUnits="userSpaceOnUse">
<stop stop-color="white"/>
<stop offset="1" stop-color="white" stop-opacity="0"/>
</linearGradient>
<linearGradient id="paint6_linear" x1="35.4499" y1="34.9656" x2="55.9958" y2="34.3241" gradientUnits="userSpaceOnUse">
<stop stop-color="white"/>
<stop offset="1" stop-color="white" stop-opacity="0"/>
</linearGradient>
<linearGradient id="paint7_linear" x1="107.406" y1="33.6775" x2="86.8506" y2="33.842" gradientUnits="userSpaceOnUse">
<stop stop-color="white"/>
<stop offset="1" stop-color="white" stop-opacity="0"/>
</linearGradient>
</defs>
</svg>
