<svg width="150" height="150" viewBox="0 0 150 150" fill="none" xmlns="http://www.w3.org/2000/svg">
<path d="M62.7342 144.383C61.9042 141.771 62.3883 135.831 62.7342 133.188C66.7113 132.099 75.288 130.016 77.778 130.389C80.8905 130.855 82.9655 134.587 82.9655 138.319C82.9655 142.051 74.1468 150.448 71.0342 149.981C67.9217 149.515 63.7717 147.649 62.7342 144.383Z" fill="#212226"/>
<path d="M62.7342 144.383C61.9042 141.771 62.3883 135.831 62.7342 133.188C66.7113 132.099 75.288 130.016 77.778 130.389C80.8905 130.855 82.9655 134.587 82.9655 138.319C82.9655 142.051 74.1468 150.448 71.0342 149.981C67.9217 149.515 63.7717 147.649 62.7342 144.383Z" fill="url(#paint0_linear)"/>
<path fill-rule="evenodd" clip-rule="evenodd" d="M65.701 51.8578L52.4167 58.1626C50.8839 62.7814 49.8621 73.4322 49.8621 77.1273C49.8621 81.746 53.4386 94.2166 54.4605 96.526C55.4823 98.8354 63.1463 116.821 63.6573 119.13C64.1682 121.44 63.1463 126.52 62.1245 129.753C61.1026 132.986 62.6354 133.448 63.6573 133.448C64.6791 133.448 77.4525 133.448 78.4743 131.601C78.9758 130.694 78.739 128.342 78.4885 125.853C78.2286 123.27 77.9539 120.541 78.4743 119.13C79.4962 116.359 85.6274 96.0364 86.6493 91.8795C87.4556 88.5996 86.9895 78.7057 86.7569 73.7698C86.6948 72.4501 86.6493 71.4849 86.6493 71.0951C86.6493 69.2476 85.6274 60.0101 82.0509 57.2389C79.1896 55.0219 68.9369 50.934 65.701 51.8578ZM69.2526 95.1724C68.6512 94.0862 67.4483 91.5414 67.4483 90.0517C67.4483 88.1896 67.4483 85.8621 69.2526 85.8621C70.7211 85.8621 70.596 87.7121 70.4986 89.1537C70.4763 89.4834 70.4555 89.7918 70.4555 90.0517C70.4555 91.169 69.6536 93.931 69.2526 95.1724Z" fill="#31374B"/>
<path fill-rule="evenodd" clip-rule="evenodd" d="M65.701 51.8578L52.4167 58.1626C50.8839 62.7814 49.8621 73.4322 49.8621 77.1273C49.8621 81.746 53.4386 94.2166 54.4605 96.526C55.4823 98.8354 63.1463 116.821 63.6573 119.13C64.1682 121.44 63.1463 126.52 62.1245 129.753C61.1026 132.986 62.6354 133.448 63.6573 133.448C64.6791 133.448 77.4525 133.448 78.4743 131.601C78.9758 130.694 78.739 128.342 78.4885 125.853C78.2286 123.27 77.9539 120.541 78.4743 119.13C79.4962 116.359 85.6274 96.0364 86.6493 91.8795C87.4556 88.5996 86.9895 78.7057 86.7569 73.7698C86.6948 72.4501 86.6493 71.4849 86.6493 71.0951C86.6493 69.2476 85.6274 60.0101 82.0509 57.2389C79.1896 55.0219 68.9369 50.934 65.701 51.8578ZM69.2526 95.1724C68.6512 94.0862 67.4483 91.5414 67.4483 90.0517C67.4483 88.1896 67.4483 85.8621 69.2526 85.8621C70.7211 85.8621 70.596 87.7121 70.4986 89.1537C70.4763 89.4834 70.4555 89.7918 70.4555 90.0517C70.4555 91.169 69.6536 93.931 69.2526 95.1724Z" fill="url(#paint1_linear)"/>
<path d="M64.5064 22.7484C63.3994 21.8828 59.4328 22.3877 57.5879 22.7484C56.6654 26.5351 54.8205 34.8658 54.8205 37.8952C54.8205 41.6818 54.3593 46.0095 53.8981 50.878C53.4368 55.7466 52.053 58.9655 53.8979 58.9655C55.7429 58.9655 63.9842 54.5842 68.1353 54.5842C72.2864 54.5842 82.0539 59.4997 82.9764 58.4178C83.8988 57.3359 82.0332 53.5828 82.4944 47.0914C82.9556 40.5999 82.9556 42.7637 83.8781 40.059C84.8005 37.3542 80.1882 24.3714 80.1882 22.7484C80.1882 21.1253 75.5759 21.6667 73.2698 22.7484C70.9636 23.8301 65.8901 23.8303 64.5064 22.7484Z" fill="#8B99A6"/>
<path d="M64.5064 22.7484C63.3994 21.8828 59.4328 22.3877 57.5879 22.7484C56.6654 26.5351 54.8205 34.8658 54.8205 37.8952C54.8205 41.6818 54.3593 46.0095 53.8981 50.878C53.4368 55.7466 52.053 58.9655 53.8979 58.9655C55.7429 58.9655 63.9842 54.5842 68.1353 54.5842C72.2864 54.5842 82.0539 59.4997 82.9764 58.4178C83.8988 57.3359 82.0332 53.5828 82.4944 47.0914C82.9556 40.5999 82.9556 42.7637 83.8781 40.059C84.8005 37.3542 80.1882 24.3714 80.1882 22.7484C80.1882 21.1253 75.5759 21.6667 73.2698 22.7484C70.9636 23.8301 65.8901 23.8303 64.5064 22.7484Z" fill="url(#paint2_linear)"/>
<path d="M67.9655 26.5476C63.8276 26.5476 62.2759 22.9269 62.2759 21.8924V14.651C65.8966 14.1338 73.1379 13.4096 73.1379 14.651V21.3752C73.1379 22.9269 72.1035 26.5476 67.9655 26.5476Z" fill="#AA6431"/>
<path d="M67.9655 26.5476C63.8276 26.5476 62.2759 22.9269 62.2759 21.8924V14.651C65.8966 14.1338 73.1379 13.4096 73.1379 14.651V21.3752C73.1379 22.9269 72.1035 26.5476 67.9655 26.5476Z" fill="url(#paint3_linear)"/>
<path d="M60.2069 10.3448C60.2069 13.4483 60.2069 15 61.7586 15H74.1724C75.7241 15 75.7241 12.931 75.7241 10.3448C75.7241 7.75862 74.1724 3.9733e-05 67.9655 0C61.7586 -3.97326e-05 60.2069 7.24138 60.2069 10.3448Z" fill="#212226"/>
<path d="M60.2069 10.3448C60.2069 13.4483 60.2069 15 61.7586 15H74.1724C75.7241 15 75.7241 12.931 75.7241 10.3448C75.7241 7.75862 74.1724 3.9733e-05 67.9655 0C61.7586 -3.97326e-05 60.2069 7.24138 60.2069 10.3448Z" fill="url(#paint4_linear)"/>
<path d="M61.7587 10.3448C61.7587 8.27584 64.3449 2.58618 67.9656 2.58618C71.5863 2.58618 74.1725 9.31032 74.1725 11.3793C74.1725 13.4482 71.5863 19.1379 67.9656 19.1379C64.3449 19.1379 61.7587 12.931 61.7587 10.3448Z" fill="#AA6431"/>
<path d="M61.7587 10.3448C61.7587 8.27584 64.3449 2.58618 67.9656 2.58618C71.5863 2.58618 74.1725 9.31032 74.1725 11.3793C74.1725 13.4482 71.5863 19.1379 67.9656 19.1379C64.3449 19.1379 61.7587 12.931 61.7587 10.3448Z" fill="url(#paint5_linear)"/>
<path d="M91.7587 11.3794H125.379V14.4828H91.7587V11.3794Z" fill="#0E0E2C"/>
<path d="M24 12.9312H46.7586V16.0346H24V12.9312Z" fill="#0E0E2C"/>
<path d="M67.9655 17.5863C65.8965 17.5863 52.9655 14.4828 46.7586 12.9311C46.4138 13.9656 45.931 16.0346 46.7586 16.0346C47.7931 16.0346 66.4138 20.1725 67.9655 20.1725C69.2069 20.1725 84.3448 16.3794 91.7586 14.4828C92.2758 13.4484 93 11.3794 91.7586 11.3794C90.2069 11.3794 70.5517 17.5863 67.9655 17.5863Z" fill="#0E0E2C"/>
<path d="M85.5517 23.2758C84.3103 22.0345 79.8621 21.7241 77.7931 21.7241L79.3448 27.4138L89.1724 45C89.6896 42.931 90.6207 38.4827 90.2069 37.2414C89.6896 35.6896 89.1724 30.5172 89.1724 28.9655C89.1724 27.4138 87.1034 24.8276 85.5517 23.2758Z" fill="#AA6431"/>
<path d="M85.5517 23.2758C84.3103 22.0345 79.8621 21.7241 77.7931 21.7241L79.3448 27.4138L89.1724 45C89.6896 42.931 90.6207 38.4827 90.2069 37.2414C89.6896 35.6896 89.1724 30.5172 89.1724 28.9655C89.1724 27.4138 87.1034 24.8276 85.5517 23.2758Z" fill="url(#paint6_linear)"/>
<path d="M48.8277 23.7931C50.0691 22.1379 54.1725 21.7241 56.0691 21.7241L57.6207 23.7931L51.9311 36.7241C50.8966 37.2414 48.5173 37.9655 47.276 36.7241C45.7242 35.1724 47.276 31.5517 47.276 30C47.276 28.4483 47.276 25.8621 48.8277 23.7931Z" fill="#AA6431"/>
<path d="M48.8277 23.7931C50.0691 22.1379 54.1725 21.7241 56.0691 21.7241L57.6207 23.7931L51.9311 36.7241C50.8966 37.2414 48.5173 37.9655 47.276 36.7241C45.7242 35.1724 47.276 31.5517 47.276 30C47.276 28.4483 47.276 25.8621 48.8277 23.7931Z" fill="url(#paint7_linear)"/>
<path d="M54.5172 16.5516C54.5172 14.4827 58.6552 14.3103 60.7241 14.4827C62.7931 15.5172 63.3104 16.5516 63.3104 18.6206C63.3104 20.6895 59.1724 23.793 58.6552 25.3447C58.1379 26.8964 56.069 41.8964 55.0345 44.4826C54 47.0688 49.8621 50.1723 47.7931 50.1723C45.7241 50.1723 43.1379 41.8964 43.6552 40.3447C44.1724 38.793 54.5172 26.3792 55.0345 24.8275C55.5517 23.2757 54.5172 19.1378 54.5172 16.5516Z" fill="#AA6431"/>
<path d="M54.5172 16.5516C54.5172 14.4827 58.6552 14.3103 60.7241 14.4827C62.7931 15.5172 63.3104 16.5516 63.3104 18.6206C63.3104 20.6895 59.1724 23.793 58.6552 25.3447C58.1379 26.8964 56.069 41.8964 55.0345 44.4826C54 47.0688 49.8621 50.1723 47.7931 50.1723C45.7241 50.1723 43.1379 41.8964 43.6552 40.3447C44.1724 38.793 54.5172 26.3792 55.0345 24.8275C55.5517 23.2757 54.5172 19.1378 54.5172 16.5516Z" fill="url(#paint8_linear)"/>
<path d="M79.862 17.5864C79.3448 16.0347 77.2758 13.4485 74.1724 15.0002C73.1379 15.3806 72.1034 17.069 72.1034 18.6208C72.1034 20.1725 76.7586 24.3104 76.7586 26.8966C76.7586 29.4828 81.931 46.5518 82.9655 48.1035C83.9999 49.6553 88.6551 49.138 90.7241 48.1035C92.793 47.069 93.8275 40.8621 91.7586 39.8277C89.6896 38.7932 80.8965 25.8621 79.862 24.3104C78.8275 22.7587 80.3793 19.1381 79.862 17.5864Z" fill="#AA6431"/>
<path d="M79.862 17.5864C79.3448 16.0347 77.2758 13.4485 74.1724 15.0002C73.1379 15.3806 72.1034 17.069 72.1034 18.6208C72.1034 20.1725 76.7586 24.3104 76.7586 26.8966C76.7586 29.4828 81.931 46.5518 82.9655 48.1035C83.9999 49.6553 88.6551 49.138 90.7241 48.1035C92.793 47.069 93.8275 40.8621 91.7586 39.8277C89.6896 38.7932 80.8965 25.8621 79.862 24.3104C78.8275 22.7587 80.3793 19.1381 79.862 17.5864Z" fill="url(#paint9_linear)"/>
<defs>
<linearGradient id="paint0_linear" x1="34.2683" y1="133.153" x2="71.833" y2="149.955" gradientUnits="userSpaceOnUse">
<stop stop-color="white"/>
<stop offset="1" stop-color="white" stop-opacity="0"/>
</linearGradient>
<linearGradient id="paint1_linear" x1="-0.551716" y1="63.399" x2="77.6607" y2="78.5442" gradientUnits="userSpaceOnUse">
<stop stop-color="white"/>
<stop offset="1" stop-color="white" stop-opacity="0"/>
</linearGradient>
<linearGradient id="paint2_linear" x1="39.9849" y1="44.957" x2="63.5683" y2="42.0642" gradientUnits="userSpaceOnUse">
<stop stop-color="white"/>
<stop offset="1" stop-color="white" stop-opacity="0"/>
</linearGradient>
<linearGradient id="paint3_linear" x1="55.1237" y1="20.8959" x2="67.1292" y2="19.8079" gradientUnits="userSpaceOnUse">
<stop stop-color="white"/>
<stop offset="1" stop-color="white" stop-opacity="0"/>
</linearGradient>
<linearGradient id="paint4_linear" x1="39.2012" y1="2.14286" x2="67.5362" y2="14.5986" gradientUnits="userSpaceOnUse">
<stop stop-color="white"/>
<stop offset="1" stop-color="white" stop-opacity="0"/>
</linearGradient>
<linearGradient id="paint5_linear" x1="53.5847" y1="11.7031" x2="67.3328" y2="10.6207" gradientUnits="userSpaceOnUse">
<stop stop-color="white"/>
<stop offset="1" stop-color="white" stop-opacity="0"/>
</linearGradient>
<linearGradient id="paint6_linear" x1="69.5512" y1="34.5448" x2="83.4552" y2="33.7599" gradientUnits="userSpaceOnUse">
<stop stop-color="white"/>
<stop offset="1" stop-color="white" stop-opacity="0"/>
</linearGradient>
<linearGradient id="paint7_linear" x1="39.3206" y1="30.3639" x2="51.5501" y2="29.4607" gradientUnits="userSpaceOnUse">
<stop stop-color="white"/>
<stop offset="1" stop-color="white" stop-opacity="0"/>
</linearGradient>
<linearGradient id="paint8_linear" x1="30.6021" y1="34.1184" x2="52.5059" y2="32.8495" gradientUnits="userSpaceOnUse">
<stop stop-color="white"/>
<stop offset="1" stop-color="white" stop-opacity="0"/>
</linearGradient>
<linearGradient id="paint9_linear" x1="58.4187" y1="33.5585" x2="81.4863" y2="32.1023" gradientUnits="userSpaceOnUse">
<stop stop-color="white"/>
<stop offset="1" stop-color="white" stop-opacity="0"/>
</linearGradient>
</defs>
</svg>
