<svg width="150" height="150" viewBox="0 0 150 150" fill="none" xmlns="http://www.w3.org/2000/svg">
<path d="M87.9841 0H113.778V2.38095H87.9841V0Z" fill="#0E0E2C"/>
<path d="M36 1.19043H53.4603V3.57138H36V1.19043Z" fill="#0E0E2C"/>
<path d="M69.7302 4.7619C68.1429 4.7619 58.2222 2.38095 53.4603 1.19048C53.1958 1.98413 52.8254 3.57143 53.4603 3.57143C54.254 3.57143 68.5397 6.74603 69.7302 6.74603C70.6825 6.74603 82.2963 3.83598 87.9841 2.38095C88.381 1.5873 88.9365 0 87.9841 0C86.7936 0 71.7143 4.7619 69.7302 4.7619Z" fill="#0E0E2C"/>
<path d="M68.0976 146.145C67.4608 144.351 67.8322 140.274 68.0976 138.459C71.1488 137.712 77.7288 136.282 79.6391 136.538C82.0271 136.858 83.619 139.42 83.619 141.982C83.619 144.543 76.8533 150.307 74.4654 149.987C72.0774 149.667 68.8935 148.386 68.0976 146.145Z" fill="#212226"/>
<path d="M68.0976 146.145C67.4608 144.351 67.8322 140.274 68.0976 138.459C71.1488 137.712 77.7288 136.282 79.6391 136.538C82.0271 136.858 83.619 139.42 83.619 141.982C83.619 144.543 76.8533 150.307 74.4654 149.987C72.0774 149.667 68.8935 148.386 68.0976 146.145Z" fill="url(#paint0_linear)"/>
<path fill-rule="evenodd" clip-rule="evenodd" d="M70.3632 83.4241L60.165 87.7101C58.9883 90.8499 56.6349 97.7575 56.6349 100.269C56.6349 103.409 57.4194 110.003 58.2038 111.573C58.9883 113.142 66.4408 128.213 66.8331 129.783C66.9066 130.078 67.0077 130.416 67.1183 130.787C67.5976 132.391 68.2549 134.591 67.6175 136.377C66.8331 138.575 68.0098 138.889 68.7943 138.889C69.5787 138.889 79.3847 138.889 80.1692 137.633C80.5541 137.017 80.3723 135.417 80.1801 133.726C79.9805 131.97 79.7696 130.115 80.1692 129.155C80.9536 127.272 85.6605 113.456 86.445 110.631C87.064 108.401 86.7061 101.675 86.5276 98.3197C86.4799 97.4227 86.445 96.7665 86.445 96.5015C86.445 95.2456 85.6605 88.966 82.9148 87.0822C80.7183 85.575 72.8474 82.7962 70.3632 83.4241ZM73.0985 121.428C72.6371 119.669 71.7142 115.547 71.7142 113.135C71.7142 110.119 71.7142 106.349 73.0985 106.349C74.2251 106.349 74.1292 109.345 74.0544 111.68C74.0373 112.214 74.0213 112.714 74.0213 113.135C74.0213 114.944 73.4061 119.418 73.0985 121.428Z" fill="#31374B"/>
<path fill-rule="evenodd" clip-rule="evenodd" d="M70.3632 83.4241L60.165 87.7101C58.9883 90.8499 56.6349 97.7575 56.6349 100.269C56.6349 103.409 57.4194 110.003 58.2038 111.573C58.9883 113.142 66.4408 128.213 66.8331 129.783C66.9066 130.078 67.0077 130.416 67.1183 130.787C67.5976 132.391 68.2549 134.591 67.6175 136.377C66.8331 138.575 68.0098 138.889 68.7943 138.889C69.5787 138.889 79.3847 138.889 80.1692 137.633C80.5541 137.017 80.3723 135.417 80.1801 133.726C79.9805 131.97 79.7696 130.115 80.1692 129.155C80.9536 127.272 85.6605 113.456 86.445 110.631C87.064 108.401 86.7061 101.675 86.5276 98.3197C86.4799 97.4227 86.445 96.7665 86.445 96.5015C86.445 95.2456 85.6605 88.966 82.9148 87.0822C80.7183 85.575 72.8474 82.7962 70.3632 83.4241ZM73.0985 121.428C72.6371 119.669 71.7142 115.547 71.7142 113.135C71.7142 110.119 71.7142 106.349 73.0985 106.349C74.2251 106.349 74.1292 109.345 74.0544 111.68C74.0373 112.214 74.0213 112.714 74.0213 113.135C74.0213 114.944 73.4061 119.418 73.0985 121.428Z" fill="url(#paint1_linear)"/>
<path d="M80.4444 47.2801L64.5714 46.8254C62.7196 50.6146 59.0159 58.7385 59.0159 60.921C59.0159 63.6492 60.6032 66.3774 60.6032 69.5602C60.6032 72.7431 59.8095 86.1608 59.8095 88.8889C59.8095 91.6171 82.8254 90.592 83.619 89.6826C84.4127 88.7732 84.0159 72.2884 83.619 69.5602C83.3016 67.3777 83.7513 61.1911 84.4127 59.5239L80.4444 47.2801Z" fill="#8B99A6"/>
<path d="M80.4444 47.2801L64.5714 46.8254C62.7196 50.6146 59.0159 58.7385 59.0159 60.921C59.0159 63.6492 60.6032 66.3774 60.6032 69.5602C60.6032 72.7431 59.8095 86.1608 59.8095 88.8889C59.8095 91.6171 82.8254 90.592 83.619 89.6826C84.4127 88.7732 84.0159 72.2884 83.619 69.5602C83.3016 67.3777 83.7513 61.1911 84.4127 59.5239L80.4444 47.2801Z" fill="url(#paint2_linear)"/>
<path d="M67.3493 33.7303L65.762 39.2858C65.762 40.8731 69.3334 46.0319 71.7143 46.0319C73.6191 46.0319 75.6826 42.8573 76.4762 41.27L75.6826 34.1271C74.2276 33.598 71.2382 32.5398 70.9207 32.5398C70.6032 32.5398 68.4075 33.3334 67.3493 33.7303Z" fill="#AA6431"/>
<path d="M67.3493 33.7303L65.762 39.2858C65.762 40.8731 69.3334 46.0319 71.7143 46.0319C73.6191 46.0319 75.6826 42.8573 76.4762 41.27L75.6826 34.1271C74.2276 33.598 71.2382 32.5398 70.9207 32.5398C70.6032 32.5398 68.4075 33.3334 67.3493 33.7303Z" fill="url(#paint3_linear)"/>
<path d="M66.1587 42.0636C65.7619 35.7144 68.9365 33.3334 70.9206 33.3334C75.5978 32.6985 76.3086 38.889 76.0793 42.0636H77.2698C77.4021 41.5345 77.6666 39.762 77.6666 36.9049C77.6666 33.3334 75.6825 28.5715 70.9206 28.5715C66.1588 28.5715 64.5714 34.9207 64.5714 36.9049C64.5714 38.4922 65.6296 41.0054 66.1587 42.0636Z" fill="#212226"/>
<path d="M66.1587 42.0636C65.7619 35.7144 68.9365 33.3334 70.9206 33.3334C75.5978 32.6985 76.3086 38.889 76.0793 42.0636H77.2698C77.4021 41.5345 77.6666 39.762 77.6666 36.9049C77.6666 33.3334 75.6825 28.5715 70.9206 28.5715C66.1588 28.5715 64.5714 34.9207 64.5714 36.9049C64.5714 38.4922 65.6296 41.0054 66.1587 42.0636Z" fill="url(#paint4_linear)"/>
<path d="M67.746 46.4286C67.746 45.1588 66.9524 42.7249 66.5555 41.6667C69.9947 41.2699 76.7143 40.7143 76.0794 41.6667C75.2857 42.8572 75.2857 44.4445 75.2857 46.4286C75.2857 48.4128 75.6825 48.0159 75.6825 49.6032C75.6825 51.1905 72.9047 55.5556 70.9206 55.5556C68.9365 55.5556 66.9524 50.7937 66.9524 49.6032C66.9524 48.4128 67.746 48.0159 67.746 46.4286Z" fill="#AA6431"/>
<path d="M67.746 46.4286C67.746 45.1588 66.9524 42.7249 66.5555 41.6667C69.9947 41.2699 76.7143 40.7143 76.0794 41.6667C75.2857 42.8572 75.2857 44.4445 75.2857 46.4286C75.2857 48.4128 75.6825 48.0159 75.6825 49.6032C75.6825 51.1905 72.9047 55.5556 70.9206 55.5556C68.9365 55.5556 66.9524 50.7937 66.9524 49.6032C66.9524 48.4128 67.746 48.0159 67.746 46.4286Z" fill="url(#paint5_linear)"/>
<path d="M62.5872 4.76176C62.5872 3.96811 63.7777 1.98399 67.3491 2.77764C68.5396 2.95055 70.1269 5.95243 69.7301 7.1429C69.3333 8.33338 67.746 10.7143 66.9523 11.9048L66.9523 11.9048C66.1587 13.0953 65.365 28.5715 66.1587 30.1588C66.9523 31.7461 65.365 44.8413 65.365 46.0318C65.365 47.2223 59.4126 61.508 58.2222 60.7143C57.0317 59.9207 56.238 38.8889 56.238 37.6985C56.238 36.508 57.8253 33.3334 58.2222 32.1429C58.619 30.9524 58.619 24.2064 59.0158 22.2223C59.4126 20.2381 61.7936 12.6985 62.5872 10.7143C63.3809 8.73021 62.5872 5.55541 62.5872 4.76176Z" fill="#AA6431"/>
<path d="M62.5872 4.76176C62.5872 3.96811 63.7777 1.98399 67.3491 2.77764C68.5396 2.95055 70.1269 5.95243 69.7301 7.1429C69.3333 8.33338 67.746 10.7143 66.9523 11.9048L66.9523 11.9048C66.1587 13.0953 65.365 28.5715 66.1587 30.1588C66.9523 31.7461 65.365 44.8413 65.365 46.0318C65.365 47.2223 59.4126 61.508 58.2222 60.7143C57.0317 59.9207 56.238 38.8889 56.238 37.6985C56.238 36.508 57.8253 33.3334 58.2222 32.1429C58.619 30.9524 58.619 24.2064 59.0158 22.2223C59.4126 20.2381 61.7936 12.6985 62.5872 10.7143C63.3809 8.73021 62.5872 5.55541 62.5872 4.76176Z" fill="url(#paint6_linear)"/>
<path d="M79.254 3.9683C78.8572 2.77783 75.6826 1.58735 73.6985 2.381C72.1112 2.63684 71.3175 4.7619 71.3175 6.34921C71.3175 7.93651 75.2858 12.6984 76.0794 13.4921C76.8731 14.2857 76.4762 30.1587 76.0794 31.3492C75.6826 32.5397 77.2699 46.0317 77.2699 46.8254C77.2699 47.619 83.6191 60.3175 84.4127 59.127C85.2064 57.9365 86 38.0952 86 36.9048C86 35.7143 83.6191 31.3492 83.6191 29.3651C83.6191 27.381 80.0477 11.9048 79.254 10.7143C78.4604 9.52381 79.6508 5.15878 79.254 3.9683Z" fill="#AA6431"/>
<path d="M79.254 3.9683C78.8572 2.77783 75.6826 1.58735 73.6985 2.381C72.1112 2.63684 71.3175 4.7619 71.3175 6.34921C71.3175 7.93651 75.2858 12.6984 76.0794 13.4921C76.8731 14.2857 76.4762 30.1587 76.0794 31.3492C75.6826 32.5397 77.2699 46.0317 77.2699 46.8254C77.2699 47.619 83.6191 60.3175 84.4127 59.127C85.2064 57.9365 86 38.0952 86 36.9048C86 35.7143 83.6191 31.3492 83.6191 29.3651C83.6191 27.381 80.0477 11.9048 79.254 10.7143C78.4604 9.52381 79.6508 5.15878 79.254 3.9683Z" fill="url(#paint7_linear)"/>
<defs>
<linearGradient id="paint0_linear" x1="46.2587" y1="138.435" x2="73.9288" y2="152.268" gradientUnits="userSpaceOnUse">
<stop stop-color="white"/>
<stop offset="1" stop-color="white" stop-opacity="0"/>
</linearGradient>
<linearGradient id="paint1_linear" x1="15.809" y1="91.2698" x2="78.2015" y2="105.662" gradientUnits="userSpaceOnUse">
<stop stop-color="white"/>
<stop offset="1" stop-color="white" stop-opacity="0"/>
</linearGradient>
<linearGradient id="paint2_linear" x1="48.3932" y1="74.166" x2="67.8414" y2="72.5071" gradientUnits="userSpaceOnUse">
<stop stop-color="white"/>
<stop offset="1" stop-color="white" stop-opacity="0"/>
</linearGradient>
<linearGradient id="paint3_linear" x1="58.7071" y1="39.9714" x2="70.5641" y2="38.983" gradientUnits="userSpaceOnUse">
<stop stop-color="white"/>
<stop offset="1" stop-color="white" stop-opacity="0"/>
</linearGradient>
<linearGradient id="paint4_linear" x1="46.8444" y1="30.499" x2="71.2295" y2="40.5563" gradientUnits="userSpaceOnUse">
<stop stop-color="white"/>
<stop offset="1" stop-color="white" stop-opacity="0"/>
</linearGradient>
<linearGradient id="paint5_linear" x1="60.2569" y1="49.0807" x2="70.8651" y2="48.3417" gradientUnits="userSpaceOnUse">
<stop stop-color="white"/>
<stop offset="1" stop-color="white" stop-opacity="0"/>
</linearGradient>
<linearGradient id="paint6_linear" x1="47.3132" y1="34.625" x2="62.4083" y2="34.2557" gradientUnits="userSpaceOnUse">
<stop stop-color="white"/>
<stop offset="1" stop-color="white" stop-opacity="0"/>
</linearGradient>
<linearGradient id="paint7_linear" x1="61.6497" y1="33.5655" x2="77.9993" y2="33.124" gradientUnits="userSpaceOnUse">
<stop stop-color="white"/>
<stop offset="1" stop-color="white" stop-opacity="0"/>
</linearGradient>
</defs>
</svg>
