<svg width="150" height="150" viewBox="0 0 150 150" fill="none" xmlns="http://www.w3.org/2000/svg">
<path d="M62.0474 11.3282C62.0474 14.7267 62.0474 16.426 63.7466 16.426H77.3405C79.0397 16.426 79.0397 14.1603 79.0397 11.3282C79.0397 8.49619 77.3405 4.35101e-05 70.5435 0C63.7466 -4.35098e-05 62.0474 7.92977 62.0474 11.3282Z" fill="#212226"/>
<path d="M62.0474 11.3282C62.0474 14.7267 62.0474 16.426 63.7466 16.426H77.3405C79.0397 16.426 79.0397 14.1603 79.0397 11.3282C79.0397 8.49619 77.3405 4.35101e-05 70.5435 0C63.7466 -4.35098e-05 62.0474 7.92977 62.0474 11.3282Z" fill="url(#paint0_linear)"/>
<path d="M93.2 12.4612H130.017V15.8597H93.2V12.4612Z" fill="#0E0E2C"/>
<path d="M19 14.1604H43.9221V17.5589H19V14.1604Z" fill="#0E0E2C"/>
<path d="M66.5786 22.8725C64.1677 22.8725 57.516 21.5145 57.516 23.7895C57.516 26.0644 54.1176 38.7938 54.1176 41.9396C54.1176 45.8717 55.2147 50.7396 55.2147 53.5831C55.2147 56.4267 54.2249 63.2512 56.4481 63.2512C58.6713 63.2512 65.1603 60.9759 70.1626 60.9759C75.1648 60.9759 82.5323 65.526 85.4332 64.3886C88.334 63.2512 88.5776 57.7178 89.1334 50.977C89.6892 44.2361 88.0218 46.9952 89.1334 44.1865C90.245 41.3778 84.1374 25.4747 84.1374 23.7893C84.1374 22.1039 80.1195 20.4003 77.3405 21.5236C74.5614 22.6468 68.6437 22.8725 66.5786 22.8725Z" fill="#8B99A6"/>
<path d="M66.5786 22.8725C64.1677 22.8725 57.516 21.5145 57.516 23.7895C57.516 26.0644 54.1176 38.7938 54.1176 41.9396C54.1176 45.8717 55.2147 50.7396 55.2147 53.5831C55.2147 56.4267 54.2249 63.2512 56.4481 63.2512C58.6713 63.2512 65.1603 60.9759 70.1626 60.9759C75.1648 60.9759 82.5323 65.526 85.4332 64.3886C88.334 63.2512 88.5776 57.7178 89.1334 50.977C89.6892 44.2361 88.0218 46.9952 89.1334 44.1865C90.245 41.3778 84.1374 25.4747 84.1374 23.7893C84.1374 22.1039 80.1195 20.4003 77.3405 21.5236C74.5614 22.6468 68.6437 22.8725 66.5786 22.8725Z" fill="url(#paint1_linear)"/>
<path d="M70.5435 29.0714C66.0122 29.0714 64.313 25.1065 64.313 23.9737C64.313 23.7017 65.4458 23.223 65.4458 22.0902V16.0439C69.4107 15.4775 75.6412 14.6844 75.6412 16.0438V22.0902C75.6412 23.223 76.7741 23.8383 76.7741 24.3559C76.7741 26.0551 75.0748 29.0714 70.5435 29.0714Z" fill="#AA6431"/>
<path d="M70.5435 29.0714C66.0122 29.0714 64.313 25.1065 64.313 23.9737C64.313 23.7017 65.4458 23.223 65.4458 22.0902V16.0439C69.4107 15.4775 75.6412 14.6844 75.6412 16.0438V22.0902C75.6412 23.223 76.7741 23.8383 76.7741 24.3559C76.7741 26.0551 75.0748 29.0714 70.5435 29.0714Z" fill="url(#paint2_linear)"/>
<path d="M52.4184 26.6214C52.8716 22.9963 57.8937 22.8453 60.3482 23.2229C61.4811 23.3406 62.6138 23.2229 63.1802 25.4885C63.7466 27.7541 64.8794 33.4183 65.4458 35.1175C65.899 36.4769 62.2362 43.2361 60.3482 46.4457C59.2153 47.0121 56.7231 48.0317 55.8168 47.5786C54.684 47.0121 54.1177 41.9144 54.1177 39.0824C54.1177 36.2503 51.852 31.1527 52.4184 26.6214Z" fill="#AA6431"/>
<path d="M52.4184 26.6214C52.8716 22.9963 57.8937 22.8453 60.3482 23.2229C61.4811 23.3406 62.6138 23.2229 63.1802 25.4885C63.7466 27.7541 64.8794 33.4183 65.4458 35.1175C65.899 36.4769 62.2362 43.2361 60.3482 46.4457C59.2153 47.0121 56.7231 48.0317 55.8168 47.5786C54.684 47.0121 54.1177 41.9144 54.1177 39.0824C54.1177 36.2503 51.852 31.1527 52.4184 26.6214Z" fill="url(#paint3_linear)"/>
<path d="M63.7466 11.3282C63.7466 9.06257 66.5786 2.83203 70.5435 2.83203C74.5084 2.83203 77.3405 10.1954 77.3405 12.461C77.3405 14.7267 74.5084 20.9572 70.5435 20.9572C66.5786 20.9572 63.7466 14.1603 63.7466 11.3282Z" fill="#AA6431"/>
<path d="M63.7466 11.3282C63.7466 9.06257 66.5786 2.83203 70.5435 2.83203C74.5084 2.83203 77.3405 10.1954 77.3405 12.461C77.3405 14.7267 74.5084 20.9572 70.5435 20.9572C66.5786 20.9572 63.7466 14.1603 63.7466 11.3282Z" fill="url(#paint4_linear)"/>
<path d="M67.1449 19.2581C64.8793 19.2581 50.719 15.8597 43.922 14.1604C43.5444 15.2932 43.0158 17.5589 43.922 17.5589C45.0548 17.5589 65.4457 22.0902 67.1449 22.0902C68.5043 22.0902 85.0813 17.9365 93.1999 15.8597C93.7663 14.7268 94.5593 12.4612 93.1999 12.4612C91.5007 12.4612 69.977 19.2581 67.1449 19.2581Z" fill="#0E0E2C"/>
<path d="M73.942 20.9573C73.942 17.5588 71.6763 17.5588 69.9771 17.5588C68.6554 17.9364 66.0122 18.9182 66.0122 19.8245C66.0122 20.9573 67.145 24.3558 67.145 27.1878C67.145 30.0199 59.2152 38.5161 58.0824 39.6489C56.9496 40.7817 56.9496 44.7466 56.9496 46.4459C56.9496 48.1451 59.7816 50.9772 62.6137 51.5436C65.4458 52.11 68.8442 43.6138 70.5435 41.3482C72.2427 39.0825 72.8091 29.4535 72.8091 27.1878C72.8091 24.9222 73.942 24.3558 73.942 20.9573Z" fill="#AA6431"/>
<path d="M73.942 20.9573C73.942 17.5588 71.6763 17.5588 69.9771 17.5588C68.6554 17.9364 66.0122 18.9182 66.0122 19.8245C66.0122 20.9573 67.145 24.3558 67.145 27.1878C67.145 30.0199 59.2152 38.5161 58.0824 39.6489C56.9496 40.7817 56.9496 44.7466 56.9496 46.4459C56.9496 48.1451 59.7816 50.9772 62.6137 51.5436C65.4458 52.11 68.8442 43.6138 70.5435 41.3482C72.2427 39.0825 72.8091 29.4535 72.8091 27.1878C72.8091 24.9222 73.942 24.3558 73.942 20.9573Z" fill="url(#paint5_linear)"/>
<path d="M91.5007 24.3558C90.3679 22.0901 84.1374 20.9573 82.4381 21.5237C81.3053 21.6675 80.7389 21.5237 80.7389 24.3558C80.7389 27.1879 82.4381 31.7192 82.4381 35.1177C82.4381 37.8364 83.1933 41.1594 83.571 42.481C86.2142 44.3691 91.9539 47.8053 93.7664 46.4459C96.032 44.7467 93.7664 37.9497 93.7664 35.1177C93.7664 32.2856 92.6335 26.6214 91.5007 24.3558Z" fill="#AA6431"/>
<path d="M91.5007 24.3558C90.3679 22.0901 84.1374 20.9573 82.4381 21.5237C81.3053 21.6675 80.7389 21.5237 80.7389 24.3558C80.7389 27.1879 82.4381 31.7192 82.4381 35.1177C82.4381 37.8364 83.1933 41.1594 83.571 42.481C86.2142 44.3691 91.9539 47.8053 93.7664 46.4459C96.032 44.7467 93.7664 37.9497 93.7664 35.1177C93.7664 32.2856 92.6335 26.6214 91.5007 24.3558Z" fill="url(#paint6_linear)"/>
<path d="M66.0122 33.4183C64.8794 32.2854 64.8794 28.887 66.0122 27.7541C69.4107 24.9221 75.0748 30.5862 75.6412 31.719C76.2076 32.8519 83.571 38.516 85.8366 39.0824C88.1023 39.6488 92.6336 44.1801 93.2 46.4457C93.7664 48.7114 91.5008 52.1099 89.2351 52.6763C86.9695 53.2427 81.3053 50.4106 79.6061 49.2778C77.9069 48.145 72.2428 36.8167 71.6763 35.6839C71.1099 34.5511 67.145 34.5511 66.0122 33.4183Z" fill="#AA6431"/>
<path d="M66.0122 33.4183C64.8794 32.2854 64.8794 28.887 66.0122 27.7541C69.4107 24.9221 75.0748 30.5862 75.6412 31.719C76.2076 32.8519 83.571 38.516 85.8366 39.0824C88.1023 39.6488 92.6336 44.1801 93.2 46.4457C93.7664 48.7114 91.5008 52.1099 89.2351 52.6763C86.9695 53.2427 81.3053 50.4106 79.6061 49.2778C77.9069 48.145 72.2428 36.8167 71.6763 35.6839C71.1099 34.5511 67.145 34.5511 66.0122 33.4183Z" fill="url(#paint7_linear)"/>
<path d="M55.6727 142.809C55.2109 140.612 56.3454 135.932 56.9703 133.866C60.76 133.529 68.902 133.011 71.1525 133.641C73.9655 134.43 75.4444 137.688 75.0119 140.669C74.5793 143.65 65.4826 149.179 62.6696 148.39C59.8565 147.602 56.2499 145.556 55.6727 142.809Z" fill="#212226"/>
<path d="M55.6727 142.809C55.2109 140.612 56.3454 135.932 56.9703 133.866C60.76 133.529 68.902 133.011 71.1525 133.641C73.9655 134.43 75.4444 137.688 75.0119 140.669C74.5793 143.65 65.4826 149.179 62.6696 148.39C59.8565 147.602 56.2499 145.556 55.6727 142.809Z" fill="url(#paint8_linear)"/>
<path fill-rule="evenodd" clip-rule="evenodd" d="M71.3229 55.8182L57.9092 60.2302C55.8038 64.5826 51.4606 74.1999 50.931 77.8494C50.2691 82.4113 49.8414 92.1309 50.4727 94.5515C50.7212 95.5042 52.1929 99.2096 53.8956 103.497C56.5189 110.102 59.6906 118.087 59.7817 119.513C59.9319 121.864 58.217 129.212 56.7913 132.266C55.3656 135.32 56.7429 135.985 57.7053 136.125C58.6676 136.265 72.1485 137.81 73.3756 136.125C74.6027 134.44 77.3405 127.542 77.3405 124.611C77.3405 119.513 83.7567 102.176 85.3148 98.2097C86.5441 95.0803 87.5231 85.2445 88.0115 80.3376C88.1421 79.0257 88.2376 78.0661 88.2934 77.6812C88.5582 75.8564 88.9197 66.593 85.9488 63.3671C83.572 60.7865 74.5026 55.348 71.3229 55.8182ZM69.6669 98.8414C69.2452 97.1606 68.4809 93.2552 68.7965 91.0799C69.1911 88.3607 69.6842 84.9617 71.6396 85.2454C73.231 85.4763 72.7035 88.1583 72.2925 90.2482C72.1985 90.7261 72.1106 91.1731 72.0555 91.5527C71.8187 93.1843 70.3644 97.0916 69.6669 98.8414Z" fill="#31374B"/>
<path fill-rule="evenodd" clip-rule="evenodd" d="M71.3229 55.8182L57.9092 60.2302C55.8038 64.5826 51.4606 74.1999 50.931 77.8494C50.2691 82.4113 49.8414 92.1309 50.4727 94.5515C50.7212 95.5042 52.1929 99.2096 53.8956 103.497C56.5189 110.102 59.6906 118.087 59.7817 119.513C59.9319 121.864 58.217 129.212 56.7913 132.266C55.3656 135.32 56.7429 135.985 57.7053 136.125C58.6676 136.265 72.1485 137.81 73.3756 136.125C74.6027 134.44 77.3405 127.542 77.3405 124.611C77.3405 119.513 83.7567 102.176 85.3148 98.2097C86.5441 95.0803 87.5231 85.2445 88.0115 80.3376C88.1421 79.0257 88.2376 78.0661 88.2934 77.6812C88.5582 75.8564 88.9197 66.593 85.9488 63.3671C83.572 60.7865 74.5026 55.348 71.3229 55.8182ZM69.6669 98.8414C69.2452 97.1606 68.4809 93.2552 68.7965 91.0799C69.1911 88.3607 69.6842 84.9617 71.6396 85.2454C73.231 85.4763 72.7035 88.1583 72.2925 90.2482C72.1985 90.7261 72.1106 91.1731 72.0555 91.5527C71.8187 93.1843 70.3644 97.0916 69.6669 98.8414Z" fill="url(#paint9_linear)"/>
<defs>
<linearGradient id="paint0_linear" x1="39.0448" y1="2.34656" x2="70.0734" y2="15.9864" gradientUnits="userSpaceOnUse">
<stop stop-color="white"/>
<stop offset="1" stop-color="white" stop-opacity="0"/>
</linearGradient>
<linearGradient id="paint1_linear" x1="39.415" y1="48.2428" x2="66.1488" y2="45.0563" gradientUnits="userSpaceOnUse">
<stop stop-color="white"/>
<stop offset="1" stop-color="white" stop-opacity="0"/>
</linearGradient>
<linearGradient id="paint2_linear" x1="56.1079" y1="22.8824" x2="69.8699" y2="21.5758" gradientUnits="userSpaceOnUse">
<stop stop-color="white"/>
<stop offset="1" stop-color="white" stop-opacity="0"/>
</linearGradient>
<linearGradient id="paint3_linear" x1="43.6643" y1="36.6372" x2="58.2796" y2="35.8169" gradientUnits="userSpaceOnUse">
<stop stop-color="white"/>
<stop offset="1" stop-color="white" stop-opacity="0"/>
</linearGradient>
<linearGradient id="paint4_linear" x1="54.7956" y1="12.8157" x2="69.8506" y2="11.6303" gradientUnits="userSpaceOnUse">
<stop stop-color="white"/>
<stop offset="1" stop-color="white" stop-opacity="0"/>
</linearGradient>
<linearGradient id="paint5_linear" x1="45.7608" y1="36.2931" x2="64.6444" y2="35.3027" gradientUnits="userSpaceOnUse">
<stop stop-color="white"/>
<stop offset="1" stop-color="white" stop-opacity="0"/>
</linearGradient>
<linearGradient id="paint6_linear" x1="71.4978" y1="35.3573" x2="87.0846" y2="34.4524" gradientUnits="userSpaceOnUse">
<stop stop-color="white"/>
<stop offset="1" stop-color="white" stop-opacity="0"/>
</linearGradient>
<linearGradient id="paint7_linear" x1="46.6432" y1="41.1702" x2="77.579" y2="37.6272" gradientUnits="userSpaceOnUse">
<stop stop-color="white"/>
<stop offset="1" stop-color="white" stop-opacity="0"/>
</linearGradient>
<linearGradient id="paint8_linear" x1="30.7528" y1="130.034" x2="61.0972" y2="151.711" gradientUnits="userSpaceOnUse">
<stop stop-color="white"/>
<stop offset="1" stop-color="white" stop-opacity="0"/>
</linearGradient>
<linearGradient id="paint9_linear" x1="-1.68568" y1="67.3776" x2="78.5401" y2="83.4747" gradientUnits="userSpaceOnUse">
<stop stop-color="white"/>
<stop offset="1" stop-color="white" stop-opacity="0"/>
</linearGradient>
</defs>
</svg>
