<svg width="150" height="150" viewBox="0 0 150 150" fill="none" xmlns="http://www.w3.org/2000/svg">
<path d="M90.1361 0H118.982V2.66272H90.1361V0Z" fill="#0E0E2C"/>
<path d="M32 1.3313H51.5266V3.99402H32V1.3313Z" fill="#0E0E2C"/>
<path d="M69.7218 5.32544C67.9467 5.32544 56.852 2.66272 51.5266 1.33136C51.2307 2.21894 50.8165 3.99408 51.5266 3.99408C52.4142 3.99408 68.3905 7.54438 69.7218 7.54438C70.7869 7.54438 83.7751 4.28994 90.1361 2.66272C90.5798 1.77515 91.2011 0 90.1361 0C88.8047 0 71.9408 5.32544 69.7218 5.32544Z" fill="#0E0E2C"/>
<path d="M68.7247 146.196C68.1194 144.426 68.4725 140.403 68.7247 138.612C71.6252 137.875 77.8801 136.463 79.6961 136.716C81.966 137.032 83.4793 139.56 83.4793 142.088C83.4793 144.616 77.0478 150.303 74.7779 149.987C72.508 149.671 69.4814 148.407 68.7247 146.196Z" fill="#212226"/>
<path d="M68.7247 146.196C68.1194 144.426 68.4725 140.403 68.7247 138.612C71.6252 137.875 77.8801 136.463 79.6961 136.716C81.966 137.032 83.4793 139.56 83.4793 142.088C83.4793 144.616 77.0478 150.303 74.7779 149.987C72.508 149.671 69.4814 148.407 68.7247 146.196Z" fill="url(#paint0_linear)"/>
<path fill-rule="evenodd" clip-rule="evenodd" d="M71.0726 82.6359L61.1682 86.9498C60.0254 90.11 57.7398 97.0625 57.7398 99.5907C57.7398 100.425 57.6866 102.027 57.6225 103.961C57.4436 109.352 57.179 117.328 57.7397 118.491C58.0722 119.181 59.817 121.25 61.7097 123.494C64.1538 126.392 66.8446 129.583 67.0593 130.473C67.1813 130.979 67.4414 131.494 67.7136 132.034C68.2915 133.178 68.9239 134.43 68.406 135.933C67.6442 138.146 68.787 138.462 69.5489 138.462C70.3107 138.462 79.8342 138.462 80.5961 137.197C80.97 136.577 80.7934 134.967 80.6067 133.265C80.4129 131.498 80.2081 129.63 80.5961 128.665C81.358 126.769 85.824 115.566 86.5859 112.722C87.0929 110.829 86.532 105.166 86.1 100.805C85.8829 98.6123 85.6983 96.7486 85.6983 95.8579C85.6983 93.1953 85.2583 87.547 82.5918 85.6509C80.4585 84.134 73.4852 82.0038 71.0726 82.6359ZM72.9729 118.047C72.6288 116.597 71.9408 113.201 71.9408 111.213C71.9408 108.728 71.9408 105.621 72.9729 105.621C73.8128 105.621 73.7413 108.09 73.6856 110.014C73.6728 110.454 73.6609 110.866 73.6609 111.213C73.6609 112.704 73.2022 116.39 72.9729 118.047Z" fill="#31374B"/>
<path fill-rule="evenodd" clip-rule="evenodd" d="M71.0726 82.6359L61.1682 86.9498C60.0254 90.11 57.7398 97.0625 57.7398 99.5907C57.7398 100.425 57.6866 102.027 57.6225 103.961C57.4436 109.352 57.179 117.328 57.7397 118.491C58.0722 119.181 59.817 121.25 61.7097 123.494C64.1538 126.392 66.8446 129.583 67.0593 130.473C67.1813 130.979 67.4414 131.494 67.7136 132.034C68.2915 133.178 68.9239 134.43 68.406 135.933C67.6442 138.146 68.787 138.462 69.5489 138.462C70.3107 138.462 79.8342 138.462 80.5961 137.197C80.97 136.577 80.7934 134.967 80.6067 133.265C80.4129 131.498 80.2081 129.63 80.5961 128.665C81.358 126.769 85.824 115.566 86.5859 112.722C87.0929 110.829 86.532 105.166 86.1 100.805C85.8829 98.6123 85.6983 96.7486 85.6983 95.8579C85.6983 93.1953 85.2583 87.547 82.5918 85.6509C80.4585 84.134 73.4852 82.0038 71.0726 82.6359ZM72.9729 118.047C72.6288 116.597 71.9408 113.201 71.9408 111.213C71.9408 108.728 71.9408 105.621 72.9729 105.621C73.8128 105.621 73.7413 108.09 73.6856 110.014C73.6728 110.454 73.6609 110.866 73.6609 111.213C73.6609 112.704 73.2022 116.39 72.9729 118.047Z" fill="url(#paint1_linear)"/>
<path d="M80.3205 46.5884L66.2238 46.1538C64.5792 49.775 61.2899 57.5388 61.2899 59.6246C61.2899 62.2318 62.6996 64.8391 62.6996 67.8809C62.6996 70.9227 61.2899 83.5244 61.2899 86.1316C61.2899 88.7389 83.1399 87.8698 83.8447 87.0007C84.5496 86.1316 84.1972 70.4881 83.8447 67.8809C83.5628 65.7951 84.667 62.087 85.2544 60.4937L80.3205 46.5884Z" fill="#8B99A6"/>
<path d="M80.3205 46.5884L66.2238 46.1538C64.5792 49.775 61.2899 57.5388 61.2899 59.6246C61.2899 62.2318 62.6996 64.8391 62.6996 67.8809C62.6996 70.9227 61.2899 83.5244 61.2899 86.1316C61.2899 88.7389 83.1399 87.8698 83.8447 87.0007C84.5496 86.1316 84.1972 70.4881 83.8447 67.8809C83.5628 65.7951 84.667 62.087 85.2544 60.4937L80.3205 46.5884Z" fill="url(#paint2_linear)"/>
<path d="M69.9699 34.7592L68.5602 39.693C68.5602 41.1027 71.732 45.6841 73.8465 45.6841C75.5381 45.6841 77.3707 42.8648 78.0755 41.4551L77.3707 35.1116C76.0785 34.6417 73.4236 33.7019 73.1416 33.7019C72.8597 33.7019 70.9096 34.4067 69.9699 34.7592Z" fill="#AA6431"/>
<path d="M69.9699 34.7592L68.5602 39.693C68.5602 41.1027 71.732 45.6841 73.8465 45.6841C75.5381 45.6841 77.3707 42.8648 78.0755 41.4551L77.3707 35.1116C76.0785 34.6417 73.4236 33.7019 73.1416 33.7019C72.8597 33.7019 70.9096 34.4067 69.9699 34.7592Z" fill="url(#paint3_linear)"/>
<path d="M70.3224 46.0364C70.3224 44.9086 69.6176 42.7471 69.2651 41.8073C72.3194 41.4549 78.2871 40.9615 77.7232 41.8073C77.0184 42.8646 77.0184 44.2743 77.0184 46.0364C77.0184 47.7985 77.3708 47.446 77.3708 48.8557C77.3708 50.2654 74.9038 54.142 73.1417 54.142C71.3797 54.142 69.6176 49.913 69.6176 48.8557C69.6176 47.7985 70.3224 47.446 70.3224 46.0364Z" fill="#AA6431"/>
<path d="M70.3224 46.0364C70.3224 44.9086 69.6176 42.7471 69.2651 41.8073C72.3194 41.4549 78.2871 40.9615 77.7232 41.8073C77.0184 42.8646 77.0184 44.2743 77.0184 46.0364C77.0184 47.7985 77.3708 47.446 77.3708 48.8557C77.3708 50.2654 74.9038 54.142 73.1417 54.142C71.3797 54.142 69.6176 49.913 69.6176 48.8557C69.6176 47.7985 70.3224 47.446 70.3224 46.0364Z" fill="url(#paint4_linear)"/>
<path d="M68.9126 42.1597C68.5602 36.521 71.3796 34.4065 73.1417 34.4065C77.2954 33.8426 77.9267 39.3404 77.7231 42.1597H78.7803C78.8978 41.6898 79.1328 40.1157 79.1328 37.5783C79.1328 34.4065 77.3707 30.1775 73.1417 30.1775C68.9127 30.1775 67.5029 35.8162 67.5029 37.5783C67.5029 38.988 68.4427 41.22 68.9126 42.1597Z" fill="#212226"/>
<path d="M68.9126 42.1597C68.5602 36.521 71.3796 34.4065 73.1417 34.4065C77.2954 33.8426 77.9267 39.3404 77.7231 42.1597H78.7803C78.8978 41.6898 79.1328 40.1157 79.1328 37.5783C79.1328 34.4065 77.3707 30.1775 73.1417 30.1775C68.9127 30.1775 67.5029 35.8162 67.5029 37.5783C67.5029 38.988 68.4427 41.22 68.9126 42.1597Z" fill="url(#paint5_linear)"/>
<path d="M67.503 6.21308C67.503 4.88172 69.2781 3.55036 71.0533 3.55036C72.3847 3.31172 74.1598 4.88172 74.1598 6.21308C74.1598 7.54445 73.716 9.76338 72.8284 11.0947C71.9409 12.4261 73.2722 19.9705 72.8284 22.1894C72.3847 24.4083 71.0533 29.7338 71.0533 30.6214C71.0533 31.5089 68.3906 46.1539 68.3906 47.4853C68.3906 48.5504 63.9527 55.6214 61.7338 59.0237C61.1421 59.1717 59.9586 59.2012 59.9586 58.1362V44.8226C59.9586 43.4912 63.0651 33.7279 63.9527 32.8403C64.8403 31.9527 63.9527 29.29 63.9527 27.9586C63.9527 26.6273 63.9527 23.9646 64.8403 22.1894C65.7278 20.4143 68.3906 12.8699 68.3906 11.0947C68.3906 9.31959 67.503 7.54445 67.503 6.21308Z" fill="#AA6431"/>
<path d="M67.503 6.21308C67.503 4.88172 69.2781 3.55036 71.0533 3.55036C72.3847 3.31172 74.1598 4.88172 74.1598 6.21308C74.1598 7.54445 73.716 9.76338 72.8284 11.0947C71.9409 12.4261 73.2722 19.9705 72.8284 22.1894C72.3847 24.4083 71.0533 29.7338 71.0533 30.6214C71.0533 31.5089 68.3906 46.1539 68.3906 47.4853C68.3906 48.5504 63.9527 55.6214 61.7338 59.0237C61.1421 59.1717 59.9586 59.2012 59.9586 58.1362V44.8226C59.9586 43.4912 63.0651 33.7279 63.9527 32.8403C64.8403 31.9527 63.9527 29.29 63.9527 27.9586C63.9527 26.6273 63.9527 23.9646 64.8403 22.1894C65.7278 20.4143 68.3906 12.8699 68.3906 11.0947C68.3906 9.31959 67.503 7.54445 67.503 6.21308Z" fill="url(#paint6_linear)"/>
<path d="M68.8343 16.864C67.0592 16.4202 66.1716 13.3137 66.6154 11.9823C68.3905 8.87582 71.4971 11.0948 73.2722 12.4261C75.0474 13.7575 75.4912 16.864 78.1539 19.5267C80.8166 22.1894 83.9231 32.8403 84.8107 35.9468C85.6983 39.0533 86.5858 39.9409 86.5858 43.0474C86.5858 46.1539 86.1421 59.4675 84.8107 59.0238C83.4793 58.58 79.929 53.6983 79.0415 52.3669C78.1539 51.0356 78.5977 48.8167 78.1539 46.1539C77.7101 43.4912 74.6036 29.29 74.1598 28.4025C73.716 27.5149 72.8285 20.8581 72.8285 19.5267C72.8285 18.1954 70.6095 17.3078 68.8343 16.864Z" fill="#AA6431"/>
<path d="M68.8343 16.864C67.0592 16.4202 66.1716 13.3137 66.6154 11.9823C68.3905 8.87582 71.4971 11.0948 73.2722 12.4261C75.0474 13.7575 75.4912 16.864 78.1539 19.5267C80.8166 22.1894 83.9231 32.8403 84.8107 35.9468C85.6983 39.0533 86.5858 39.9409 86.5858 43.0474C86.5858 46.1539 86.1421 59.4675 84.8107 59.0238C83.4793 58.58 79.929 53.6983 79.0415 52.3669C78.1539 51.0356 78.5977 48.8167 78.1539 46.1539C77.7101 43.4912 74.6036 29.29 74.1598 28.4025C73.716 27.5149 72.8285 20.8581 72.8285 19.5267C72.8285 18.1954 70.6095 17.3078 68.8343 16.864Z" fill="url(#paint7_linear)"/>
<defs>
<linearGradient id="paint0_linear" x1="47.9648" y1="138.588" x2="74.652" y2="151.441" gradientUnits="userSpaceOnUse">
<stop stop-color="white"/>
<stop offset="1" stop-color="white" stop-opacity="0"/>
</linearGradient>
<linearGradient id="paint1_linear" x1="17.6216" y1="90.5131" x2="78.611" y2="104.127" gradientUnits="userSpaceOnUse">
<stop stop-color="white"/>
<stop offset="1" stop-color="white" stop-opacity="0"/>
</linearGradient>
<linearGradient id="paint2_linear" x1="51.2663" y1="72.1782" x2="69.62" y2="70.6262" gradientUnits="userSpaceOnUse">
<stop stop-color="white"/>
<stop offset="1" stop-color="white" stop-opacity="0"/>
</linearGradient>
<linearGradient id="paint3_linear" x1="62.2947" y1="40.3019" x2="72.825" y2="39.4241" gradientUnits="userSpaceOnUse">
<stop stop-color="white"/>
<stop offset="1" stop-color="white" stop-opacity="0"/>
</linearGradient>
<linearGradient id="paint4_linear" x1="63.6713" y1="48.3917" x2="73.0924" y2="47.7354" gradientUnits="userSpaceOnUse">
<stop stop-color="white"/>
<stop offset="1" stop-color="white" stop-opacity="0"/>
</linearGradient>
<linearGradient id="paint5_linear" x1="51.7596" y1="31.8892" x2="73.4159" y2="40.8211" gradientUnits="userSpaceOnUse">
<stop stop-color="white"/>
<stop offset="1" stop-color="white" stop-opacity="0"/>
</linearGradient>
<linearGradient id="paint6_linear" x1="50.6077" y1="34.1364" x2="66.4215" y2="33.7122" gradientUnits="userSpaceOnUse">
<stop stop-color="white"/>
<stop offset="1" stop-color="white" stop-opacity="0"/>
</linearGradient>
<linearGradient id="paint7_linear" x1="53.2782" y1="37.1916" x2="75.6163" y2="36.2231" gradientUnits="userSpaceOnUse">
<stop stop-color="white"/>
<stop offset="1" stop-color="white" stop-opacity="0"/>
</linearGradient>
</defs>
</svg>
