<svg width="150" height="150" viewBox="0 0 150 150" fill="none" xmlns="http://www.w3.org/2000/svg">
<path d="M46.4255 139.747C46.4763 137.146 48.5437 131.83 49.5711 129.498C53.1509 129.506 60.7967 129.766 62.7417 130.737C65.1728 131.95 65.8324 135.891 64.7839 139.307C63.7354 142.723 54.1166 148.182 51.6854 146.968C49.2542 145.755 46.3622 142.998 46.4255 139.747Z" fill="#212226"/>
<path d="M46.4255 139.747C46.4763 137.146 48.5437 131.83 49.5711 129.498C53.1509 129.506 60.7967 129.766 62.7417 130.737C65.1728 131.95 65.8324 135.891 64.7839 139.307C63.7354 142.723 54.1166 148.182 51.6854 146.968C49.2542 145.755 46.3622 142.998 46.4255 139.747Z" fill="url(#paint0_linear)"/>
<path d="M84.2171 19.8977C82.5415 19.8977 80.0281 21.294 78.9808 21.9922L77.9336 27.7521L84.2171 61.7878C85.0898 63.5333 87.1494 67.1288 88.4061 67.5477C89.977 68.0714 90.5006 67.0241 92.5951 65.9769C94.6896 64.9296 100.45 51.3153 100.973 49.7444C101.497 48.1735 98.355 37.701 97.3078 35.6065C96.2605 33.512 91.0243 24.6103 90.5006 23.5631C89.977 22.5158 86.3116 19.8977 84.2171 19.8977Z" fill="#AA6431"/>
<path d="M84.2171 19.8977C82.5415 19.8977 80.0281 21.294 78.9808 21.9922L77.9336 27.7521L84.2171 61.7878C85.0898 63.5333 87.1494 67.1288 88.4061 67.5477C89.977 68.0714 90.5006 67.0241 92.5951 65.9769C94.6896 64.9296 100.45 51.3153 100.973 49.7444C101.497 48.1735 98.355 37.701 97.3078 35.6065C96.2605 33.512 91.0243 24.6103 90.5006 23.5631C89.977 22.5158 86.3116 19.8977 84.2171 19.8977Z" fill="url(#paint1_linear)"/>
<path fill-rule="evenodd" clip-rule="evenodd" d="M75.7135 54.9793L62.8215 57.4009C60.2297 61.278 54.784 69.8865 53.7355 73.3028C52.4248 77.5731 50.5265 86.8031 50.7252 89.2004C50.924 91.5977 52.7465 114.586 52.5182 116.852C52.4754 117.277 52.4442 117.771 52.4101 118.312C52.2622 120.654 52.0593 123.866 50.6199 126.082C48.8484 128.809 49.9984 129.629 50.8525 129.891C51.7066 130.154 62.3825 133.43 63.7608 131.984C64.4372 131.275 64.9069 129.039 65.4038 126.674C65.9194 124.219 66.4642 121.626 67.2996 120.454C68.9401 118.154 79.8314 100.937 81.8651 97.356C83.4698 94.5303 85.8878 85.2631 87.0941 80.6398C87.4166 79.4038 87.6525 78.4997 87.7631 78.1393C88.2874 76.4312 90.0546 67.6283 87.8517 64.1486C86.0895 61.3649 78.6802 54.9553 75.7135 54.9793ZM66.0865 95.4804C65.9653 94.3529 65.8277 91.7563 66.2471 90.3898C66.7714 88.6816 67.4267 86.5464 68.7078 86.9396C69.7504 87.2596 69.1408 88.9295 68.6657 90.2307C68.5571 90.5283 68.4555 90.8066 68.3823 91.0451C68.0677 92.07 66.7207 94.429 66.0865 95.4804Z" fill="#31374B"/>
<path fill-rule="evenodd" clip-rule="evenodd" d="M75.7135 54.9793L62.8215 57.4009C60.2297 61.278 54.784 69.8865 53.7355 73.3028C52.4248 77.5731 50.5265 86.8031 50.7252 89.2004C50.924 91.5977 52.7465 114.586 52.5182 116.852C52.4754 117.277 52.4442 117.771 52.4101 118.312C52.2622 120.654 52.0593 123.866 50.6199 126.082C48.8484 128.809 49.9984 129.629 50.8525 129.891C51.7066 130.154 62.3825 133.43 63.7608 131.984C64.4372 131.275 64.9069 129.039 65.4038 126.674C65.9194 124.219 66.4642 121.626 67.2996 120.454C68.9401 118.154 79.8314 100.937 81.8651 97.356C83.4698 94.5303 85.8878 85.2631 87.0941 80.6398C87.4166 79.4038 87.6525 78.4997 87.7631 78.1393C88.2874 76.4312 90.0546 67.6283 87.8517 64.1486C86.0895 61.3649 78.6802 54.9553 75.7135 54.9793ZM66.0865 95.4804C65.9653 94.3529 65.8277 91.7563 66.2471 90.3898C66.7714 88.6816 67.4267 86.5464 68.7078 86.9396C69.7504 87.2596 69.1408 88.9295 68.6657 90.2307C68.5571 90.5283 68.4555 90.8066 68.3823 91.0451C68.0677 92.07 66.7207 94.429 66.0865 95.4804Z" fill="url(#paint2_linear)"/>
<path d="M60.5381 22.5161C58.4911 22.5161 61.7011 29.7769 61.7011 31.9414C61.7011 34.036 58.5593 39.988 58.5593 42.8844C58.5593 46.5048 59.4909 50.9868 59.4909 53.6049C59.4909 56.223 58.6505 62.5066 60.5381 62.5066C62.4258 62.5066 67.9354 60.4117 72.1827 60.4117C76.43 60.4117 84.8958 64.9298 87.3588 63.8825C89.8218 62.8353 88.9814 59.8114 89.4533 53.6049C89.9252 47.3984 89.4533 48.6974 89.4533 45.5556C89.4533 42.4138 80.028 28.2568 80.028 26.705C80.028 25.1532 78.7222 20.4345 76.3626 21.4687C74.003 22.503 62.2915 22.5161 60.5381 22.5161Z" fill="#8B99A6"/>
<path d="M60.5381 22.5161C58.4911 22.5161 61.7011 29.7769 61.7011 31.9414C61.7011 34.036 58.5593 39.988 58.5593 42.8844C58.5593 46.5048 59.4909 50.9868 59.4909 53.6049C59.4909 56.223 58.6505 62.5066 60.5381 62.5066C62.4258 62.5066 67.9354 60.4117 72.1827 60.4117C76.43 60.4117 84.8958 64.9298 87.3588 63.8825C89.8218 62.8353 88.9814 59.8114 89.4533 53.6049C89.9252 47.3984 89.4533 48.6974 89.4533 45.5556C89.4533 42.4138 80.028 28.2568 80.028 26.705C80.028 25.1532 78.7222 20.4345 76.3626 21.4687C74.003 22.503 62.2915 22.5161 60.5381 22.5161Z" fill="url(#paint3_linear)"/>
<path d="M68.5083 26.8753C64.3193 26.8753 62.7484 23.2099 62.7484 22.1626V14.8318C66.4138 14.3082 73.7446 13.5751 73.7446 14.8318V21.639C73.7446 23.2099 72.6973 26.8753 68.5083 26.8753Z" fill="#AA6431"/>
<path d="M68.5083 26.8753C64.3193 26.8753 62.7484 23.2099 62.7484 22.1626V14.8318C66.4138 14.3082 73.7446 13.5751 73.7446 14.8318V21.639C73.7446 23.2099 72.6973 26.8753 68.5083 26.8753Z" fill="url(#paint4_linear)"/>
<path d="M92.5951 15.7087H126.631V18.8505H92.5951V15.7087Z" fill="#0E0E2C"/>
<path d="M24 17.2798H47.0396V20.4215H24V17.2798Z" fill="#0E0E2C"/>
<path d="M68.5081 21.9923C66.4136 21.9923 53.3229 18.8505 47.0394 17.2796C46.6903 18.3269 46.2016 20.4214 47.0394 20.4214C48.0866 20.4214 66.9372 24.6104 68.5081 24.6104C69.7648 24.6104 85.0896 20.7705 92.5949 18.8505C93.1185 17.8032 93.8516 15.7087 92.5949 15.7087C91.024 15.7087 71.1262 21.9923 68.5081 21.9923Z" fill="#0E0E2C"/>
<path d="M60.6538 10.4725C60.6538 13.6143 60.6538 15.1852 62.2247 15.1852H74.7917C76.3626 15.1852 76.3626 13.0907 76.3626 10.4725C76.3626 7.8544 74.7917 4.02235e-05 68.5082 0C62.2247 -4.02231e-05 60.6538 7.33077 60.6538 10.4725Z" fill="#212226"/>
<path d="M60.6538 10.4725C60.6538 13.6143 60.6538 15.1852 62.2247 15.1852H74.7917C76.3626 15.1852 76.3626 13.0907 76.3626 10.4725C76.3626 7.8544 74.7917 4.02235e-05 68.5082 0C62.2247 -4.02231e-05 60.6538 7.33077 60.6538 10.4725Z" fill="url(#paint5_linear)"/>
<path d="M62.2247 10.4726C62.2247 8.37806 64.8429 2.61816 68.5083 2.61816C72.1736 2.61816 74.7918 9.42531 74.7918 11.5198C74.7918 13.6143 72.1736 19.3742 68.5083 19.3742C64.8429 19.3742 62.2247 13.0907 62.2247 10.4726Z" fill="#AA6431"/>
<path d="M62.2247 10.4726C62.2247 8.37806 64.8429 2.61816 68.5083 2.61816C72.1736 2.61816 74.7918 9.42531 74.7918 11.5198C74.7918 13.6143 72.1736 19.3742 68.5083 19.3742C64.8429 19.3742 62.2247 13.0907 62.2247 10.4726Z" fill="url(#paint6_linear)"/>
<path d="M73.2208 25.134C73.2208 21.9922 70.6027 20.9449 68.5082 20.9449C67.4608 20.4213 63.2719 23.0394 64.3192 24.0867C65.3664 25.134 64.3192 28.2757 64.3192 29.8466C64.3192 31.4175 64.3192 32.9884 63.2719 35.6065C62.2247 38.2246 56.9884 45.0318 57.512 47.6499C58.0357 50.268 62.2247 56.0279 64.3192 56.0279C66.4137 56.0279 70.6027 47.1263 71.1263 45.0318C71.65 42.9373 71.1263 31.4175 70.6027 29.8466C70.0791 28.2757 73.2208 28.2757 73.2208 25.134Z" fill="#AA6431"/>
<path d="M73.2208 25.134C73.2208 21.9922 70.6027 20.9449 68.5082 20.9449C67.4608 20.4213 63.2719 23.0394 64.3192 24.0867C65.3664 25.134 64.3192 28.2757 64.3192 29.8466C64.3192 31.4175 64.3192 32.9884 63.2719 35.6065C62.2247 38.2246 56.9884 45.0318 57.512 47.6499C58.0357 50.268 62.2247 56.0279 64.3192 56.0279C66.4137 56.0279 70.6027 47.1263 71.1263 45.0318C71.65 42.9373 71.1263 31.4175 70.6027 29.8466C70.0791 28.2757 73.2208 28.2757 73.2208 25.134Z" fill="url(#paint7_linear)"/>
<path d="M51.7522 29.323C53.0089 27.6474 57.5121 25.4831 59.6066 24.6104C61.7011 24.6104 62.2248 27.7521 63.272 29.8466C64.1098 31.5222 63.9702 36.4792 63.7956 38.7483C64.3193 43.6355 65.2618 53.724 64.8429 54.9807C64.3193 56.5516 63.272 56.028 61.1775 56.5516C59.083 57.0752 54.894 53.4098 53.8467 51.8389C52.7995 50.2681 51.7522 40.8428 50.1813 38.7483C48.6104 36.6538 50.1813 31.4175 51.7522 29.323Z" fill="#AA6431"/>
<path d="M51.7522 29.323C53.0089 27.6474 57.5121 25.4831 59.6066 24.6104C61.7011 24.6104 62.2248 27.7521 63.272 29.8466C64.1098 31.5222 63.9702 36.4792 63.7956 38.7483C64.3193 43.6355 65.2618 53.724 64.8429 54.9807C64.3193 56.5516 63.272 56.028 61.1775 56.5516C59.083 57.0752 54.894 53.4098 53.8467 51.8389C52.7995 50.2681 51.7522 40.8428 50.1813 38.7483C48.6104 36.6538 50.1813 31.4175 51.7522 29.323Z" fill="url(#paint8_linear)"/>
<defs>
<linearGradient id="paint0_linear" x1="26.1478" y1="122.274" x2="54.1469" y2="144.926" gradientUnits="userSpaceOnUse">
<stop stop-color="white"/>
<stop offset="1" stop-color="white" stop-opacity="0"/>
</linearGradient>
<linearGradient id="paint1_linear" x1="62.7245" y1="46.2208" x2="88.3977" y2="44.9182" gradientUnits="userSpaceOnUse">
<stop stop-color="white"/>
<stop offset="1" stop-color="white" stop-opacity="0"/>
</linearGradient>
<linearGradient id="paint2_linear" x1="-3.43158" y1="66.0324" x2="78.2758" y2="83.6417" gradientUnits="userSpaceOnUse">
<stop stop-color="white"/>
<stop offset="1" stop-color="white" stop-opacity="0"/>
</linearGradient>
<linearGradient id="paint3_linear" x1="45.5496" y1="47.9715" x2="69.2689" y2="45.4294" gradientUnits="userSpaceOnUse">
<stop stop-color="white"/>
<stop offset="1" stop-color="white" stop-opacity="0"/>
</linearGradient>
<linearGradient id="paint4_linear" x1="55.5079" y1="21.1539" x2="67.6617" y2="20.0524" gradientUnits="userSpaceOnUse">
<stop stop-color="white"/>
<stop offset="1" stop-color="white" stop-opacity="0"/>
</linearGradient>
<linearGradient id="paint5_linear" x1="39.3888" y1="2.16931" x2="68.0736" y2="14.7788" gradientUnits="userSpaceOnUse">
<stop stop-color="white"/>
<stop offset="1" stop-color="white" stop-opacity="0"/>
</linearGradient>
<linearGradient id="paint6_linear" x1="53.9499" y1="11.8477" x2="67.8677" y2="10.7519" gradientUnits="userSpaceOnUse">
<stop stop-color="white"/>
<stop offset="1" stop-color="white" stop-opacity="0"/>
</linearGradient>
<linearGradient id="paint7_linear" x1="47.1076" y1="40.2384" x2="64.6149" y2="39.4152" gradientUnits="userSpaceOnUse">
<stop stop-color="white"/>
<stop offset="1" stop-color="white" stop-opacity="0"/>
</linearGradient>
<linearGradient id="paint8_linear" x1="39.3794" y1="42.232" x2="56.5151" y2="41.3652" gradientUnits="userSpaceOnUse">
<stop stop-color="white"/>
<stop offset="1" stop-color="white" stop-opacity="0"/>
</linearGradient>
</defs>
</svg>
