<svg width="150" height="150" viewBox="0 0 150 150" fill="none" xmlns="http://www.w3.org/2000/svg">
<path d="M89.8086 0H118.988V2.69352H89.8086V0Z" fill="#0E0E2C"/>
<path d="M31 1.34668H50.7525V4.0402H31V1.34668Z" fill="#0E0E2C"/>
<path d="M69.1581 5.38705C67.3624 5.38705 56.1394 2.69352 50.7523 1.34676C50.453 2.2446 50.034 4.04029 50.7523 4.04029C51.6502 4.04029 67.8113 7.63165 69.1581 7.63165C70.2355 7.63165 83.3739 4.33957 89.8084 2.69352C90.2573 1.79568 90.8858 0 89.8084 0C88.4617 0 71.4027 5.38705 69.1581 5.38705Z" fill="#0E0E2C"/>
<path d="M96.5424 31.8734C95.465 29.3595 88.9108 27.5339 85.7683 26.9353C86.6662 27.8331 87.1151 34.567 88.0129 38.1583C88.9108 41.7497 88.0129 43.0965 88.9108 45.3411C89.8086 47.5857 93.8489 49.8303 93.8489 52.0749C93.8489 53.8705 89.9582 57.3123 88.0129 58.8087C88.0129 61.5022 88.3721 66.7097 89.8086 65.9914C91.6043 65.0936 101.032 56.5641 101.481 54.3195C101.929 52.0749 101.032 41.7497 99.6849 39.954C98.3381 38.1583 97.8892 35.0159 96.5424 31.8734Z" fill="#AA6431"/>
<path d="M96.5424 31.8734C95.465 29.3595 88.9108 27.5339 85.7683 26.9353C86.6662 27.8331 87.1151 34.567 88.0129 38.1583C88.9108 41.7497 88.0129 43.0965 88.9108 45.3411C89.8086 47.5857 93.8489 49.8303 93.8489 52.0749C93.8489 53.8705 89.9582 57.3123 88.0129 58.8087C88.0129 61.5022 88.3721 66.7097 89.8086 65.9914C91.6043 65.0936 101.032 56.5641 101.481 54.3195C101.929 52.0749 101.032 41.7497 99.6849 39.954C98.3381 38.1583 97.8892 35.0159 96.5424 31.8734Z" fill="url(#paint0_linear)"/>
<path d="M65.5145 144.595C64.7962 142.081 65.2152 136.365 65.5145 133.821C68.9563 132.774 76.3784 130.768 78.5333 131.127C81.2268 131.576 83.0225 135.168 83.0225 138.759C83.0225 142.35 75.3908 150.431 72.6973 149.982C70.0038 149.533 66.4124 147.738 65.5145 144.595Z" fill="#212226"/>
<path d="M65.5145 144.595C64.7962 142.081 65.2152 136.365 65.5145 133.821C68.9563 132.774 76.3784 130.768 78.5333 131.127C81.2268 131.576 83.0225 135.168 83.0225 138.759C83.0225 142.35 75.3908 150.431 72.6973 149.982C70.0038 149.533 66.4124 147.738 65.5145 144.595Z" fill="url(#paint1_linear)"/>
<path fill-rule="evenodd" clip-rule="evenodd" d="M73.6475 60.2851L64.2202 62.3998C62.8734 66.889 58.8331 82.1523 58.8331 85.7436C58.8331 90.2329 58.8331 98.2865 59.731 100.531C60.6288 102.776 66.4648 124.324 66.9137 126.568C67.2693 128.346 67.0615 129.015 66.5136 130.778C66.3698 131.24 66.2025 131.778 66.0159 132.432C65.118 135.574 70.0561 137.791 70.954 137.791C71.8518 137.791 80.3813 134.227 81.2792 132.432C81.7481 131.494 81.8497 130.671 81.9676 129.715C82.0755 128.841 82.1971 127.855 82.6259 126.568C83.5238 123.875 89.8087 104.571 90.7065 100.531C91.6043 96.4908 92.0533 80.7786 92.0533 78.9829C92.0533 77.1872 91.6043 65.0933 88.4619 62.3997C85.9479 60.2449 76.4907 59.3872 73.6475 60.2851ZM75.6624 104.15C75.1404 102.264 74.0964 97.8468 74.0964 95.261C74.0964 92.0288 74.0964 87.9885 75.6624 87.9885C76.9369 87.9885 76.8284 91.1999 76.7438 93.7022C76.7245 94.2745 76.7064 94.8097 76.7064 95.261C76.7064 97.2003 76.0104 101.995 75.6624 104.15Z" fill="#31374B"/>
<path fill-rule="evenodd" clip-rule="evenodd" d="M73.6475 60.2851L64.2202 62.3998C62.8734 66.889 58.8331 82.1523 58.8331 85.7436C58.8331 90.2329 58.8331 98.2865 59.731 100.531C60.6288 102.776 66.4648 124.324 66.9137 126.568C67.2693 128.346 67.0615 129.015 66.5136 130.778C66.3698 131.24 66.2025 131.778 66.0159 132.432C65.118 135.574 70.0561 137.791 70.954 137.791C71.8518 137.791 80.3813 134.227 81.2792 132.432C81.7481 131.494 81.8497 130.671 81.9676 129.715C82.0755 128.841 82.1971 127.855 82.6259 126.568C83.5238 123.875 89.8087 104.571 90.7065 100.531C91.6043 96.4908 92.0533 80.7786 92.0533 78.9829C92.0533 77.1872 91.6043 65.0933 88.4619 62.3997C85.9479 60.2449 76.4907 59.3872 73.6475 60.2851ZM75.6624 104.15C75.1404 102.264 74.0964 97.8468 74.0964 95.261C74.0964 92.0288 74.0964 87.9885 75.6624 87.9885C76.9369 87.9885 76.8284 91.1999 76.7438 93.7022C76.7245 94.2745 76.7064 94.8097 76.7064 95.261C76.7064 97.2003 76.0104 101.995 75.6624 104.15Z" fill="url(#paint2_linear)"/>
<path d="M85.7683 26.9354C84.8757 26.0376 69.2202 26.9353 69.2202 26.9353C67.2542 30.2087 63.3223 37.2268 63.3223 39.1123C63.3223 41.4691 65.0074 43.826 65.0074 46.5756C65.0074 49.3253 63.3223 60.7166 63.3223 63.0735C63.3223 65.4303 89.4418 64.6447 90.2844 63.8591C91.1269 63.0735 91.5766 48.9325 91.1553 46.5756C90.8183 44.6902 91.0365 42.2547 90.2575 39.5051C89.4785 36.7555 86.6609 27.8332 85.7683 26.9354Z" fill="#8B99A6"/>
<path d="M85.7683 26.9354C84.8757 26.0376 69.2202 26.9353 69.2202 26.9353C67.2542 30.2087 63.3223 37.2268 63.3223 39.1123C63.3223 41.4691 65.0074 43.826 65.0074 46.5756C65.0074 49.3253 63.3223 60.7166 63.3223 63.0735C63.3223 65.4303 89.4418 64.6447 90.2844 63.8591C91.1269 63.0735 91.5766 48.9325 91.1553 46.5756C90.8183 44.6902 91.0365 42.2547 90.2575 39.5051C89.4785 36.7555 86.6609 27.8332 85.7683 26.9354Z" fill="url(#paint3_linear)"/>
<path d="M69.6072 37.7986C70.954 36.8114 73.6475 29.9882 73.6475 28.7308C73.6475 27.4734 69.6072 26.9351 69.6072 26.9351C67.3626 26.4862 64.2202 23.7922 63.3223 26.037C62.4245 28.2818 61.9756 33.22 61.9756 34.5668C61.9756 35.9136 62.8734 37.7092 64.2202 39.056C65.567 40.4028 68.2605 38.7858 69.6072 37.7986Z" fill="#AA6431"/>
<path d="M69.6072 37.7986C70.954 36.8114 73.6475 29.9882 73.6475 28.7308C73.6475 27.4734 69.6072 26.9351 69.6072 26.9351C67.3626 26.4862 64.2202 23.7922 63.3223 26.037C62.4245 28.2818 61.9756 33.22 61.9756 34.5668C61.9756 35.9136 62.8734 37.7092 64.2202 39.056C65.567 40.4028 68.2605 38.7858 69.6072 37.7986Z" fill="url(#paint4_linear)"/>
<path d="M73.6475 13.9166L71.8518 20.2015C71.8518 21.9972 75.8921 27.8331 78.5856 27.8331C80.7404 27.8331 83.0748 24.2418 83.9727 22.4461L83.0748 14.3655C81.4288 13.7669 78.0469 12.5698 77.6878 12.5698C77.3286 12.5698 74.8446 13.4677 73.6475 13.9166Z" fill="#AA6431"/>
<path d="M73.6475 13.9166L71.8518 20.2015C71.8518 21.9972 75.8921 27.8331 78.5856 27.8331C80.7404 27.8331 83.0748 24.2418 83.9727 22.4461L83.0748 14.3655C81.4288 13.7669 78.0469 12.5698 77.6878 12.5698C77.3286 12.5698 74.8446 13.4677 73.6475 13.9166Z" fill="url(#paint5_linear)"/>
<path d="M72.3007 23.3439C71.8518 16.1611 75.4432 13.4676 77.6878 13.4676C82.9789 12.7493 83.783 19.7525 83.5237 23.3439H84.8705C85.0201 22.7453 85.3194 20.7401 85.3194 17.5079C85.3194 13.4676 83.0748 8.08057 77.6878 8.08057C72.3007 8.08057 70.505 15.2633 70.505 17.5079C70.505 19.3036 71.7021 22.1468 72.3007 23.3439Z" fill="#212226"/>
<path d="M72.3007 23.3439C71.8518 16.1611 75.4432 13.4676 77.6878 13.4676C82.9789 12.7493 83.783 19.7525 83.5237 23.3439H84.8705C85.0201 22.7453 85.3194 20.7401 85.3194 17.5079C85.3194 13.4676 83.0748 8.08057 77.6878 8.08057C72.3007 8.08057 70.505 15.2633 70.505 17.5079C70.505 19.3036 71.7021 22.1468 72.3007 23.3439Z" fill="url(#paint6_linear)"/>
<path d="M74.0964 28.282C74.0964 26.8454 73.1986 24.0921 72.7496 22.8949C76.6403 22.446 84.242 21.8175 83.5237 22.8949C82.6259 24.2417 82.6259 26.0374 82.6259 28.282C82.6259 30.5266 83.0748 30.0777 83.0748 31.8734C83.0748 33.669 79.9324 38.6072 77.6878 38.6072C75.4432 38.6072 73.1986 33.2201 73.1986 31.8734C73.1986 30.5266 74.0964 30.0777 74.0964 28.282Z" fill="#AA6431"/>
<path d="M74.0964 28.282C74.0964 26.8454 73.1986 24.0921 72.7496 22.8949C76.6403 22.446 84.242 21.8175 83.5237 22.8949C82.6259 24.2417 82.6259 26.0374 82.6259 28.282C82.6259 30.5266 83.0748 30.0777 83.0748 31.8734C83.0748 33.669 79.9324 38.6072 77.6878 38.6072C75.4432 38.6072 73.1986 33.2201 73.1986 31.8734C73.1986 30.5266 74.0964 30.0777 74.0964 28.282Z" fill="url(#paint7_linear)"/>
<path d="M74.9943 5.83574C75.4432 4.9379 74.5454 2.6933 71.8518 2.6933C71.2716 2.65637 67.8115 2.6933 67.8115 4.48898V12.5696C67.8115 14.8141 64.2202 23.7925 63.3223 26.0371L63.3223 26.0372C62.4245 28.2818 62.8734 34.1177 64.2202 35.0156C65.5669 35.9134 70.0561 34.5667 71.8518 33.2199C73.6475 31.8731 73.6475 13.0185 73.6475 11.6717C73.6475 10.3249 74.5454 6.73358 74.9943 5.83574Z" fill="#AA6431"/>
<path d="M74.9943 5.83574C75.4432 4.9379 74.5454 2.6933 71.8518 2.6933C71.2716 2.65637 67.8115 2.6933 67.8115 4.48898V12.5696C67.8115 14.8141 64.2202 23.7925 63.3223 26.0371L63.3223 26.0372C62.4245 28.2818 62.8734 34.1177 64.2202 35.0156C65.5669 35.9134 70.0561 34.5667 71.8518 33.2199C73.6475 31.8731 73.6475 13.0185 73.6475 11.6717C73.6475 10.3249 74.5454 6.73358 74.9943 5.83574Z" fill="url(#paint8_linear)"/>
<defs>
<linearGradient id="paint0_linear" x1="75.3456" y1="48.4851" x2="92.9529" y2="47.7372" gradientUnits="userSpaceOnUse">
<stop stop-color="white"/>
<stop offset="1" stop-color="white" stop-opacity="0"/>
</linearGradient>
<linearGradient id="paint1_linear" x1="40.8805" y1="133.787" x2="74.4598" y2="147.294" gradientUnits="userSpaceOnUse">
<stop stop-color="white"/>
<stop offset="1" stop-color="white" stop-opacity="0"/>
</linearGradient>
<linearGradient id="paint2_linear" x1="13.863" y1="71.0553" x2="83.9425" y2="83.7612" gradientUnits="userSpaceOnUse">
<stop stop-color="white"/>
<stop offset="1" stop-color="white" stop-opacity="0"/>
</linearGradient>
<linearGradient id="paint3_linear" x1="51.6135" y1="50.3101" x2="72.9566" y2="48.0024" gradientUnits="userSpaceOnUse">
<stop stop-color="white"/>
<stop offset="1" stop-color="white" stop-opacity="0"/>
</linearGradient>
<linearGradient id="paint4_linear" x1="54.2901" y1="33.0946" x2="67.2034" y2="31.9969" gradientUnits="userSpaceOnUse">
<stop stop-color="white"/>
<stop offset="1" stop-color="white" stop-opacity="0"/>
</linearGradient>
<linearGradient id="paint5_linear" x1="63.8707" y1="20.9771" x2="77.2844" y2="19.8589" gradientUnits="userSpaceOnUse">
<stop stop-color="white"/>
<stop offset="1" stop-color="white" stop-opacity="0"/>
</linearGradient>
<linearGradient id="paint6_linear" x1="50.4508" y1="10.261" x2="78.0372" y2="21.6387" gradientUnits="userSpaceOnUse">
<stop stop-color="white"/>
<stop offset="1" stop-color="white" stop-opacity="0"/>
</linearGradient>
<linearGradient id="paint7_linear" x1="65.624" y1="31.2823" x2="77.6249" y2="30.4462" gradientUnits="userSpaceOnUse">
<stop stop-color="white"/>
<stop offset="1" stop-color="white" stop-opacity="0"/>
</linearGradient>
<linearGradient id="paint8_linear" x1="54.7896" y1="20.6538" x2="68.4184" y2="20.1165" gradientUnits="userSpaceOnUse">
<stop stop-color="white"/>
<stop offset="1" stop-color="white" stop-opacity="0"/>
</linearGradient>
</defs>
</svg>
