<svg width="150" height="150" viewBox="0 0 150 150" fill="none" xmlns="http://www.w3.org/2000/svg">
<path d="M18.5721 140.993C18.4457 138.446 20.108 133.108 20.955 130.757C24.4565 130.523 31.9514 130.259 33.9191 131.077C36.3788 132.099 37.2905 135.909 36.4962 139.321C35.7019 142.733 26.6643 148.722 24.2046 147.699C21.7449 146.677 18.7301 144.177 18.5721 140.993Z" fill="#212226"/>
<path d="M18.5721 140.993C18.4457 138.446 20.108 133.108 20.955 130.757C24.4565 130.523 31.9514 130.259 33.9191 131.077C36.3788 132.099 37.2905 135.909 36.4962 139.321C35.7019 142.733 26.6643 148.722 24.2046 147.699C21.7449 146.677 18.7301 144.177 18.5721 140.993Z" fill="url(#paint0_linear)"/>
<path d="M34.4639 11.6427C34.4639 15.1355 34.4639 16.8819 36.2103 16.8819H50.1815C51.9279 16.8819 51.9279 14.5534 51.9279 11.6427C51.9279 8.73204 50.1815 4.47179e-05 43.1959 0C36.2103 -4.47176e-05 34.4639 8.1499 34.4639 11.6427Z" fill="#212226"/>
<path d="M34.4639 11.6427C34.4639 15.1355 34.4639 16.8819 36.2103 16.8819H50.1815C51.9279 16.8819 51.9279 14.5534 51.9279 11.6427C51.9279 8.73204 50.1815 4.47179e-05 43.1959 0C36.2103 -4.47176e-05 34.4639 8.1499 34.4639 11.6427Z" fill="url(#paint1_linear)"/>
<path fill-rule="evenodd" clip-rule="evenodd" d="M41.3168 57.1548L28.8726 60.3952C26.6002 64.3623 21.8569 73.1495 21.0626 76.5614C20.0697 80.8264 18.8377 89.9814 19.1942 92.3124C19.5508 94.6435 22.8884 117.002 22.8185 119.233C22.8054 119.652 22.8083 120.137 22.8114 120.668C22.8252 122.969 22.8442 126.124 21.5864 128.388C20.0384 131.175 21.2186 131.9 22.0716 132.098C22.9246 132.297 33.587 134.779 34.8371 133.272C35.4506 132.532 35.7587 130.313 36.0845 127.967C36.4227 125.532 36.7801 122.958 37.5179 121.756C38.9666 119.396 48.4532 101.821 50.1998 98.1816C51.5779 95.3096 53.3157 86.083 54.1826 81.48C54.4144 80.2493 54.5839 79.3492 54.6677 78.9893C55.0648 77.2833 56.1976 68.5549 53.8079 65.3009C51.8961 62.6977 44.2165 56.9306 41.3168 57.1548ZM34.6418 97.4145C34.447 96.3201 34.1367 93.79 34.4545 92.4252C34.8516 90.7192 35.348 88.5868 36.6275 88.8846C37.6688 89.127 37.1856 90.8014 36.809 92.106C36.7229 92.4044 36.6424 92.6835 36.5869 92.9216C36.3486 93.9452 35.1909 96.3434 34.6418 97.4145Z" fill="#31374B"/>
<path fill-rule="evenodd" clip-rule="evenodd" d="M41.3168 57.1548L28.8726 60.3952C26.6002 64.3623 21.8569 73.1495 21.0626 76.5614C20.0697 80.8264 18.8377 89.9814 19.1942 92.3124C19.5508 94.6435 22.8884 117.002 22.8185 119.233C22.8054 119.652 22.8083 120.137 22.8114 120.668C22.8252 122.969 22.8442 126.124 21.5864 128.388C20.0384 131.175 21.2186 131.9 22.0716 132.098C22.9246 132.297 33.587 134.779 34.8371 133.272C35.4506 132.532 35.7587 130.313 36.0845 127.967C36.4227 125.532 36.7801 122.958 37.5179 121.756C38.9666 119.396 48.4532 101.821 50.1998 98.1816C51.5779 95.3096 53.3157 86.083 54.1826 81.48C54.4144 80.2493 54.5839 79.3492 54.6677 78.9893C55.0648 77.2833 56.1976 68.5549 53.8079 65.3009C51.8961 62.6977 44.2165 56.9306 41.3168 57.1548ZM34.6418 97.4145C34.447 96.3201 34.1367 93.79 34.4545 92.4252C34.8516 90.7192 35.348 88.5868 36.6275 88.8846C37.6688 89.127 37.1856 90.8014 36.809 92.106C36.7229 92.4044 36.6424 92.6835 36.5869 92.9216C36.3486 93.9452 35.1909 96.3434 34.6418 97.4145Z" fill="url(#paint2_linear)"/>
<path d="M34.9295 22.343C32.8514 22.343 31.2084 25.1871 31.2084 27.6032C31.2084 29.9413 28.424 39.2627 28.424 42.4958C28.424 46.5371 29.4871 48.8875 29.4871 51.81C29.4871 54.7325 27.5707 63.8425 29.4871 63.8425C31.4035 63.8425 36.9969 61.5041 41.3088 61.5041C45.6207 61.5041 51.1739 66.9502 53.6744 65.7812C56.1749 64.6122 54.5244 59.665 55.0035 52.7371C55.4826 45.8091 56.7033 47.1353 57.6615 44.2486C58.6197 41.362 51.4089 24.0751 51.4089 22.343C51.4089 20.6108 48.8936 20.604 46.4981 21.7585C44.1025 22.9129 36.7096 22.343 34.9295 22.343Z" fill="#8B99A6"/>
<path d="M34.9295 22.343C32.8514 22.343 31.2084 25.1871 31.2084 27.6032C31.2084 29.9413 28.424 39.2627 28.424 42.4958C28.424 46.5371 29.4871 48.8875 29.4871 51.81C29.4871 54.7325 27.5707 63.8425 29.4871 63.8425C31.4035 63.8425 36.9969 61.5041 41.3088 61.5041C45.6207 61.5041 51.1739 66.9502 53.6744 65.7812C56.1749 64.6122 54.5244 59.665 55.0035 52.7371C55.4826 45.8091 56.7033 47.1353 57.6615 44.2486C58.6197 41.362 51.4089 24.0751 51.4089 22.343C51.4089 20.6108 48.8936 20.604 46.4981 21.7585C44.1025 22.9129 36.7096 22.343 34.9295 22.343Z" fill="url(#paint3_linear)"/>
<path d="M69.392 30.2709C66.4813 29.1066 60.66 25.0317 57.7493 24.4495V23.8674C55.6148 23.6734 51.3458 23.5181 51.3458 24.4495C51.3458 25.6138 54.8386 39.0029 56.585 39.0029H61.2421C61.2421 39.0029 62.9885 38.4208 65.3171 40.7493C67.6456 43.0779 69.392 41.9136 74.6312 41.9136C79.8705 41.9136 96.1703 45.9886 98.4988 45.9886C100.827 45.9886 102.574 47.1528 105.484 47.735C108.395 48.3171 114.799 46.5707 116.545 45.9886C118.291 45.4064 118.874 41.3315 117.127 40.7493C115.381 40.1672 103.156 39.0029 99.6631 39.0029C96.1703 39.0029 81.6169 33.7637 79.8705 33.7637C78.1241 33.7637 72.3027 31.4352 69.392 30.2709L69.392 30.2709Z" fill="#AA6431"/>
<path d="M69.392 30.2709C66.4813 29.1066 60.66 25.0317 57.7493 24.4495V23.8674C55.6148 23.6734 51.3458 23.5181 51.3458 24.4495C51.3458 25.6138 54.8386 39.0029 56.585 39.0029H61.2421C61.2421 39.0029 62.9885 38.4208 65.3171 40.7493C67.6456 43.0779 69.392 41.9136 74.6312 41.9136C79.8705 41.9136 96.1703 45.9886 98.4988 45.9886C100.827 45.9886 102.574 47.1528 105.484 47.735C108.395 48.3171 114.799 46.5707 116.545 45.9886C118.291 45.4064 118.874 41.3315 117.127 40.7493C115.381 40.1672 103.156 39.0029 99.6631 39.0029C96.1703 39.0029 81.6169 33.7637 79.8705 33.7637C78.1241 33.7637 72.3027 31.4352 69.392 30.2709L69.392 30.2709Z" fill="url(#paint4_linear)"/>
<path d="M48.4353 16.2992V23.2854C48.4353 24.0665 49.5628 26.632 49.0173 27.9424C48.3432 29.5617 45.7702 29.878 43.1961 29.878C40.7441 29.878 38.0772 29.5374 37.3746 27.9424C36.7428 26.5081 37.9568 23.8366 37.9568 23.2854L37.9569 16.2993C37.9569 14.5526 48.4353 14.9021 48.4353 16.2992Z" fill="#AA6431"/>
<path d="M48.4353 16.2992V23.2854C48.4353 24.0665 49.5628 26.632 49.0173 27.9424C48.3432 29.5617 45.7702 29.878 43.1961 29.878C40.7441 29.878 38.0772 29.5374 37.3746 27.9424C36.7428 26.5081 37.9568 23.8366 37.9568 23.2854L37.9569 16.2993C37.9569 14.5526 48.4353 14.9021 48.4353 16.2992Z" fill="url(#paint5_linear)"/>
<path d="M36.2103 11.6427C36.2103 9.31414 39.121 2.91064 43.196 2.91064C47.2709 2.91064 50.1816 10.4784 50.1816 12.8069C50.1816 15.1355 47.2709 21.539 43.196 21.539C39.121 21.539 36.2103 14.5534 36.2103 11.6427Z" fill="#AA6431"/>
<path d="M36.2103 11.6427C36.2103 9.31414 39.121 2.91064 43.196 2.91064C47.2709 2.91064 50.1816 10.4784 50.1816 12.8069C50.1816 15.1355 47.2709 21.539 43.196 21.539C39.121 21.539 36.2103 14.5534 36.2103 11.6427Z" fill="url(#paint6_linear)"/>
<path d="M94.4238 17.4641H132.263V20.9569H94.4238V17.4641Z" fill="#0E0E2C"/>
<path d="M18.1642 19.2104H43.7782V22.7033H18.1642V19.2104Z" fill="#0E0E2C"/>
<path d="M67.6454 24.4497C65.3169 24.4497 50.7635 20.9569 43.7778 19.2105C43.3897 20.3748 42.8464 22.7033 43.7778 22.7033C44.9421 22.7033 65.899 27.3604 67.6454 27.3604C69.0425 27.3604 86.0797 23.0914 94.4236 20.9569C95.0058 19.7927 95.8208 17.4641 94.4236 17.4641C92.6772 17.4641 70.5561 24.4497 67.6454 24.4497Z" fill="#0E0E2C"/>
<path d="M25.1497 25.6139C25.7319 23.8675 31.5532 23.2854 32.1354 23.2854C33.8817 23.8675 36.2104 26.1961 36.7925 29.1068C37.2582 31.4353 36.5984 35.8983 36.2104 37.8388C33.2997 41.3316 30.389 49.4815 27.4783 48.3172C24.5676 47.153 26.314 41.3316 25.1497 37.8388C23.9855 34.346 24.5676 27.3603 25.1497 25.6139Z" fill="#AA6431"/>
<path d="M25.1497 25.6139C25.7319 23.8675 31.5532 23.2854 32.1354 23.2854C33.8817 23.8675 36.2104 26.1961 36.7925 29.1068C37.2582 31.4353 36.5984 35.8983 36.2104 37.8388C33.2997 41.3316 30.389 49.4815 27.4783 48.3172C24.5676 47.153 26.314 41.3316 25.1497 37.8388C23.9855 34.346 24.5676 27.3603 25.1497 25.6139Z" fill="url(#paint7_linear)"/>
<path d="M49.0172 21.539C49.0172 19.7925 46.1065 18.0461 43.778 18.0461C42.0316 18.0461 40.8674 18.6283 40.2852 20.3747C39.7031 22.1211 40.8674 26.7782 40.2852 28.5246C39.7031 30.271 34.4638 38.4209 32.7175 39.5852C30.9712 40.7494 28.0603 44.8244 27.4782 47.1529C26.896 49.4815 32.1353 54.7207 34.4638 54.7207C36.7923 54.7207 42.0316 46.5708 43.778 43.6601C45.5244 40.7494 44.3601 30.271 45.5244 28.5246C46.6886 26.7782 49.0172 23.2854 49.0172 21.539Z" fill="#AA6431"/>
<path d="M49.0172 21.539C49.0172 19.7925 46.1065 18.0461 43.778 18.0461C42.0316 18.0461 40.8674 18.6283 40.2852 20.3747C39.7031 22.1211 40.8674 26.7782 40.2852 28.5246C39.7031 30.271 34.4638 38.4209 32.7175 39.5852C30.9712 40.7494 28.0603 44.8244 27.4782 47.1529C26.896 49.4815 32.1353 54.7207 34.4638 54.7207C36.7923 54.7207 42.0316 46.5708 43.778 43.6601C45.5244 40.7494 44.3601 30.271 45.5244 28.5246C46.6886 26.7782 49.0172 23.2854 49.0172 21.539Z" fill="url(#paint8_linear)"/>
<path d="M79.8704 21.5391C81.7332 19.6762 90.3488 18.0462 94.4238 17.4641C95.0057 18.6284 95.5882 21.5391 95.0061 23.2855C94.4239 25.0319 93.8418 37.2567 94.4239 40.1674C95.0061 43.0781 96.1703 47.153 97.3346 49.4816C98.4989 51.8101 97.9167 66.3635 97.3346 69.8563C96.7525 73.3491 86.856 73.3491 82.7811 73.3491C78.7061 73.3491 75.2133 68.692 77.5419 64.035C79.8704 59.3779 79.8704 45.9891 79.8704 42.4961V42.4959C79.8704 39.0031 77.5418 23.8676 79.8704 21.5391Z" fill="#F18701"/>
<path d="M79.8704 21.5391C81.7332 19.6762 90.3488 18.0462 94.4238 17.4641C95.0057 18.6284 95.5882 21.5391 95.0061 23.2855C94.4239 25.0319 93.8418 37.2567 94.4239 40.1674C95.0061 43.0781 96.1703 47.153 97.3346 49.4816C98.4989 51.8101 97.9167 66.3635 97.3346 69.8563C96.7525 73.3491 86.856 73.3491 82.7811 73.3491C78.7061 73.3491 75.2133 68.692 77.5419 64.035C79.8704 59.3779 79.8704 45.9891 79.8704 42.4961V42.4959C79.8704 39.0031 77.5418 23.8676 79.8704 21.5391Z" fill="url(#paint9_linear)"/>
<defs>
<linearGradient id="paint0_linear" x1="-2.44094" y1="125.276" x2="26.4737" y2="145.535" gradientUnits="userSpaceOnUse">
<stop stop-color="white"/>
<stop offset="1" stop-color="white" stop-opacity="0"/>
</linearGradient>
<linearGradient id="paint1_linear" x1="10.8227" y1="2.4117" x2="42.7127" y2="16.4302" gradientUnits="userSpaceOnUse">
<stop stop-color="white"/>
<stop offset="1" stop-color="white" stop-opacity="0"/>
</linearGradient>
<linearGradient id="paint2_linear" x1="-29.8103" y1="68.0922" x2="45.9196" y2="83.2795" gradientUnits="userSpaceOnUse">
<stop stop-color="white"/>
<stop offset="1" stop-color="white" stop-opacity="0"/>
</linearGradient>
<linearGradient id="paint3_linear" x1="16.1581" y1="49.023" x2="38.5717" y2="46.8725" gradientUnits="userSpaceOnUse">
<stop stop-color="white"/>
<stop offset="1" stop-color="white" stop-opacity="0"/>
</linearGradient>
<linearGradient id="paint4_linear" x1="7.33726" y1="37.0125" x2="76.0105" y2="17.0457" gradientUnits="userSpaceOnUse">
<stop stop-color="white"/>
<stop offset="1" stop-color="white" stop-opacity="0"/>
</linearGradient>
<linearGradient id="paint5_linear" x1="29.308" y1="23.2474" x2="42.5552" y2="22.1194" gradientUnits="userSpaceOnUse">
<stop stop-color="white"/>
<stop offset="1" stop-color="white" stop-opacity="0"/>
</linearGradient>
<linearGradient id="paint6_linear" x1="27.0108" y1="13.1714" x2="42.4838" y2="11.9532" gradientUnits="userSpaceOnUse">
<stop stop-color="white"/>
<stop offset="1" stop-color="white" stop-opacity="0"/>
</linearGradient>
<linearGradient id="paint7_linear" x1="16.2632" y1="37.1355" x2="30.1273" y2="36.4134" gradientUnits="userSpaceOnUse">
<stop stop-color="white"/>
<stop offset="1" stop-color="white" stop-opacity="0"/>
</linearGradient>
<linearGradient id="paint8_linear" x1="13.2213" y1="38.2471" x2="37.1818" y2="36.7667" gradientUnits="userSpaceOnUse">
<stop stop-color="white"/>
<stop offset="1" stop-color="white" stop-opacity="0"/>
</linearGradient>
<linearGradient id="paint9_linear" x1="68.9001" y1="-28.2809" x2="128.384" y2="6.69258" gradientUnits="userSpaceOnUse">
<stop stop-color="white"/>
<stop offset="1" stop-color="white" stop-opacity="0"/>
</linearGradient>
</defs>
</svg>
