<svg width="150" height="150" viewBox="0 0 150 150" fill="none" xmlns="http://www.w3.org/2000/svg">
<path d="M89.8359 0.464355H120.022V3.25073H89.8359V0.464355Z" fill="#0E0E2C"/>
<path d="M29 1.85767H49.4334V4.64404H29V1.85767Z" fill="#0E0E2C"/>
<path d="M68.4735 6.03711C66.6159 6.03711 55.006 3.25073 49.4332 1.85754C49.1236 2.78634 48.6902 4.64392 49.4332 4.64392C50.362 4.64392 67.0803 8.35909 68.4735 8.35909C69.588 8.35909 83.1793 4.95352 89.8357 3.25073C90.3001 2.32194 90.9502 0.464355 89.8357 0.464355C88.4425 0.464355 70.7954 6.03711 68.4735 6.03711Z" fill="#0E0E2C"/>
<path d="M39.5047 146.019C38.9831 144.167 39.2873 139.957 39.5047 138.083C42.0042 137.312 47.3946 135.835 48.9595 136.099C50.9157 136.43 52.2198 139.075 52.2198 141.72C52.2198 144.366 46.6773 150.317 44.7212 149.987C42.765 149.656 40.1568 148.334 39.5047 146.019Z" fill="#212226"/>
<path d="M39.5047 146.019C38.9831 144.167 39.2873 139.957 39.5047 138.083C42.0042 137.312 47.3946 135.835 48.9595 136.099C50.9157 136.43 52.2198 139.075 52.2198 141.72C52.2198 144.366 46.6773 150.317 44.7212 149.987C42.765 149.656 40.1568 148.334 39.5047 146.019Z" fill="url(#paint0_linear)"/>
<path fill-rule="evenodd" clip-rule="evenodd" d="M56.3529 83.2303L47.073 88.1024C46.0022 91.6716 43.8607 99.5239 43.8607 102.379C43.8607 104.438 44.3356 107.757 44.7376 110.566C45.0326 112.628 45.2884 114.415 45.2884 115.228C45.2884 116.148 45.3463 117.627 45.412 119.306C45.5744 123.457 45.7849 128.834 45.2884 130.031C44.7483 131.333 44.5894 132.725 44.4283 134.138C44.302 135.245 44.1743 136.364 43.8607 137.461C43.1469 139.96 44.7893 145.82 46.6471 145.82C47.2096 145.82 48.0472 145.951 48.9616 146.094C51.0672 146.423 53.5797 146.816 54.0774 145.82C54.3746 145.226 57.681 142.037 61.4912 138.362C66.8332 133.209 73.1654 127.101 73.5821 125.851C74.2959 123.71 74.5109 114.746 74.5109 111.455C74.5109 107.597 71.9735 100.084 71.0031 97.2107C70.9223 96.9715 70.8524 96.7645 70.7957 96.5944C70.6806 96.249 70.5901 95.6204 70.4779 94.8399C70.15 92.5598 69.6357 88.984 67.7744 87.3886C65.7757 85.6753 58.6134 82.5164 56.3529 83.2303ZM58.4944 116.424C58.1375 115.591 57.4236 113.64 57.4236 112.498C57.4236 111.07 57.4236 109.286 58.4944 109.286C59.3658 109.286 59.2916 110.704 59.2338 111.809C59.2206 112.062 59.2082 112.298 59.2082 112.498C59.2082 113.354 58.7323 115.472 58.4944 116.424Z" fill="#31374B"/>
<path fill-rule="evenodd" clip-rule="evenodd" d="M56.3529 83.2303L47.073 88.1024C46.0022 91.6716 43.8607 99.5239 43.8607 102.379C43.8607 104.438 44.3356 107.757 44.7376 110.566C45.0326 112.628 45.2884 114.415 45.2884 115.228C45.2884 116.148 45.3463 117.627 45.412 119.306C45.5744 123.457 45.7849 128.834 45.2884 130.031C44.7483 131.333 44.5894 132.725 44.4283 134.138C44.302 135.245 44.1743 136.364 43.8607 137.461C43.1469 139.96 44.7893 145.82 46.6471 145.82C47.2096 145.82 48.0472 145.951 48.9616 146.094C51.0672 146.423 53.5797 146.816 54.0774 145.82C54.3746 145.226 57.681 142.037 61.4912 138.362C66.8332 133.209 73.1654 127.101 73.5821 125.851C74.2959 123.71 74.5109 114.746 74.5109 111.455C74.5109 107.597 71.9735 100.084 71.0031 97.2107C70.9223 96.9715 70.8524 96.7645 70.7957 96.5944C70.6806 96.249 70.5901 95.6204 70.4779 94.8399C70.15 92.5598 69.6357 88.984 67.7744 87.3886C65.7757 85.6753 58.6134 82.5164 56.3529 83.2303ZM58.4944 116.424C58.1375 115.591 57.4236 113.64 57.4236 112.498C57.4236 111.07 57.4236 109.286 58.4944 109.286C59.3658 109.286 59.2916 110.704 59.2338 111.809C59.2206 112.062 59.2082 112.298 59.2082 112.498C59.2082 113.354 58.7323 115.472 58.4944 116.424Z" fill="url(#paint1_linear)"/>
<path d="M66.6161 56.192L54.0774 55.2632C52.5476 58.4882 47.9583 61.7647 47.9583 63.6223C47.9583 65.9443 48.969 72.9876 48.969 75.6966C48.969 78.4056 47.1115 84.5201 47.1115 86.8421C47.1115 89.1641 68.2825 91.7957 68.9381 91.0217C69.5937 90.2477 69.8669 78.483 69.8669 75.6966C69.8669 73.8206 68.3917 68.5243 68.9381 67.1053L66.6161 56.192Z" fill="#8B99A6"/>
<path d="M66.6161 56.192L54.0774 55.2632C52.5476 58.4882 47.9583 61.7647 47.9583 63.6223C47.9583 65.9443 48.969 72.9876 48.969 75.6966C48.969 78.4056 47.1115 84.5201 47.1115 86.8421C47.1115 89.1641 68.2825 91.7957 68.9381 91.0217C69.5937 90.2477 69.8669 78.483 69.8669 75.6966C69.8669 73.8206 68.3917 68.5243 68.9381 67.1053L66.6161 56.192Z" fill="url(#paint2_linear)"/>
<path d="M55.1702 52.3538C55.1702 51.1737 54.4326 48.9118 54.0638 47.9284C57.26 47.5596 63.5047 47.0433 62.9147 47.9284C62.1771 49.0348 62.1771 50.5099 62.1771 52.3538C62.1771 54.1977 62.5459 53.829 62.5459 55.3041C62.5459 56.7792 59.9644 60.8359 58.1205 60.8359C56.2766 60.8359 54.4326 56.4105 54.4326 55.3041C54.4326 54.1977 55.1702 53.829 55.1702 52.3538Z" fill="#AA6431"/>
<path d="M55.1702 52.3538C55.1702 51.1737 54.4326 48.9118 54.0638 47.9284C57.26 47.5596 63.5047 47.0433 62.9147 47.9284C62.1771 49.0348 62.1771 50.5099 62.1771 52.3538C62.1771 54.1977 62.5459 53.829 62.5459 55.3041C62.5459 56.7792 59.9644 60.8359 58.1205 60.8359C56.2766 60.8359 54.4326 56.4105 54.4326 55.3041C54.4326 54.1977 55.1702 53.829 55.1702 52.3538Z" fill="url(#paint3_linear)"/>
<path d="M54.8016 40.5529L53.3264 45.7159C53.3264 47.191 56.6455 51.9852 58.8582 51.9852C60.6284 51.9852 62.546 49.0349 63.2836 47.5598L62.546 40.9217C61.1938 40.43 58.4157 39.4465 58.1206 39.4465C57.8256 39.4465 55.785 40.1841 54.8016 40.5529Z" fill="#AA6431"/>
<path d="M54.8016 40.5529L53.3264 45.7159C53.3264 47.191 56.6455 51.9852 58.8582 51.9852C60.6284 51.9852 62.546 49.0349 63.2836 47.5598L62.546 40.9217C61.1938 40.43 58.4157 39.4465 58.1206 39.4465C57.8256 39.4465 55.785 40.1841 54.8016 40.5529Z" fill="url(#paint4_linear)"/>
<path d="M53.695 48.2972C53.3262 42.3967 56.2765 40.184 58.1204 40.184C62.4671 39.5939 63.1277 45.347 62.9146 48.2972H64.021C64.1439 47.8055 64.3898 46.1583 64.3898 43.503C64.3898 40.184 62.5458 35.7585 58.1204 35.7585C53.695 35.7585 52.2198 41.6591 52.2198 43.503C52.2198 44.9782 53.2033 47.3138 53.695 48.2972Z" fill="#212226"/>
<path d="M53.695 48.2972C53.3262 42.3967 56.2765 40.184 58.1204 40.184C62.4671 39.5939 63.1277 45.347 62.9146 48.2972H64.021C64.1439 47.8055 64.3898 46.1583 64.3898 43.503C64.3898 40.184 62.5458 35.7585 58.1204 35.7585C53.695 35.7585 52.2198 41.6591 52.2198 43.503C52.2198 44.9782 53.2033 47.3138 53.695 48.2972Z" fill="url(#paint5_linear)"/>
<path d="M53.613 4.64388C53.613 2.7863 51.2911 0.928711 49.4335 0.928711C46.1827 0.928711 45.2539 6.03707 46.6471 8.35905C48.0403 10.681 46.6471 27.8637 46.6471 29.7213C46.6471 31.5789 45.2539 42.26 45.2539 45.9752C45.2539 49.6903 45.7183 63.6222 47.5759 63.1578C49.4335 62.6934 55.0062 57.1207 55.0062 55.2631C55.0062 53.4055 53.613 45.9752 53.613 44.1176C53.613 42.26 54.5418 29.2569 55.0062 26.4705C55.4706 23.6841 52.6842 10.2166 52.6842 8.35905C52.6842 6.50147 53.613 6.50147 53.613 4.64388Z" fill="#AA6431"/>
<path d="M53.613 4.64388C53.613 2.7863 51.2911 0.928711 49.4335 0.928711C46.1827 0.928711 45.2539 6.03707 46.6471 8.35905C48.0403 10.681 46.6471 27.8637 46.6471 29.7213C46.6471 31.5789 45.2539 42.26 45.2539 45.9752C45.2539 49.6903 45.7183 63.6222 47.5759 63.1578C49.4335 62.6934 55.0062 57.1207 55.0062 55.2631C55.0062 53.4055 53.613 45.9752 53.613 44.1176C53.613 42.26 54.5418 29.2569 55.0062 26.4705C55.4706 23.6841 52.6842 10.2166 52.6842 8.35905C52.6842 6.50147 53.613 6.50147 53.613 4.64388Z" fill="url(#paint6_linear)"/>
<path d="M70.3312 55.7276C69.2167 54.9846 65.842 55.418 64.2941 55.7276C63.3653 56.6566 67.0804 65.4797 68.0092 66.4085C68.938 67.3373 78.6903 67.8017 82.8699 67.3373C87.0495 66.8729 88.4427 64.5509 89.8359 63.6221C91.229 62.6933 91.6934 48.2974 91.229 47.3686C90.7646 46.4398 87.0495 43.6534 87.0495 45.0466C87.0495 46.4398 83.7987 57.5853 82.8699 58.0497C81.9411 58.5141 74.9752 58.0497 73.582 57.5853C72.1888 57.1209 71.7244 56.6564 70.3312 55.7276Z" fill="#AA6431"/>
<path d="M70.3312 55.7276C69.2167 54.9846 65.842 55.418 64.2941 55.7276C63.3653 56.6566 67.0804 65.4797 68.0092 66.4085C68.938 67.3373 78.6903 67.8017 82.8699 67.3373C87.0495 66.8729 88.4427 64.5509 89.8359 63.6221C91.229 62.6933 91.6934 48.2974 91.229 47.3686C90.7646 46.4398 87.0495 43.6534 87.0495 45.0466C87.0495 46.4398 83.7987 57.5853 82.8699 58.0497C81.9411 58.5141 74.9752 58.0497 73.582 57.5853C72.1888 57.1209 71.7244 56.6564 70.3312 55.7276Z" fill="url(#paint7_linear)"/>
<path d="M94.0154 41.7957C94.4798 40.8669 91.6934 34.3654 90.3003 32.9722L87.0495 34.3654L85.1919 39.9381C86.7399 40.8669 89.9287 42.7245 90.3003 42.7245C90.7646 42.7245 93.551 42.7245 94.0154 41.7957Z" fill="#AA6431"/>
<path d="M94.0154 41.7957C94.4798 40.8669 91.6934 34.3654 90.3003 32.9722L87.0495 34.3654L85.1919 39.9381C86.7399 40.8669 89.9287 42.7245 90.3003 42.7245C90.7646 42.7245 93.551 42.7245 94.0154 41.7957Z" fill="url(#paint8_linear)"/>
<path d="M81.4768 2.32198C82.87 1.39319 88.9071 0 93.5511 0C94.4799 0.928793 93.0867 6.50155 93.5511 9.75232C94.0155 13.0031 91.2291 31.1146 91.2291 32.9721C91.2291 34.8297 86.5851 36.2229 87.0495 38.0805C87.5139 39.9381 92.1579 39.9381 93.5511 41.7957C94.9443 43.6533 92.6223 46.4396 92.1579 47.3684C91.6935 48.2972 90.3003 46.4396 87.9783 46.4396C85.6563 46.4396 81.4768 43.1889 81.9412 40.8669C82.4056 38.5449 81.4768 23.6842 81.0124 21.3622C80.548 19.0402 80.0836 3.25077 81.4768 2.32198Z" fill="#F18701"/>
<path d="M81.4768 2.32198C82.87 1.39319 88.9071 0 93.5511 0C94.4799 0.928793 93.0867 6.50155 93.5511 9.75232C94.0155 13.0031 91.2291 31.1146 91.2291 32.9721C91.2291 34.8297 86.5851 36.2229 87.0495 38.0805C87.5139 39.9381 92.1579 39.9381 93.5511 41.7957C94.9443 43.6533 92.6223 46.4396 92.1579 47.3684C91.6935 48.2972 90.3003 46.4396 87.9783 46.4396C85.6563 46.4396 81.4768 43.1889 81.9412 40.8669C82.4056 38.5449 81.4768 23.6842 81.0124 21.3622C80.548 19.0402 80.0836 3.25077 81.4768 2.32198Z" fill="url(#paint9_linear)"/>
<defs>
<linearGradient id="paint0_linear" x1="21.6144" y1="138.058" x2="46.0959" y2="147.768" gradientUnits="userSpaceOnUse">
<stop stop-color="white"/>
<stop offset="1" stop-color="white" stop-opacity="0"/>
</linearGradient>
<linearGradient id="paint1_linear" x1="1.96819" y1="92.1738" x2="66.3688" y2="105.492" gradientUnits="userSpaceOnUse">
<stop stop-color="white"/>
<stop offset="1" stop-color="white" stop-opacity="0"/>
</linearGradient>
<linearGradient id="paint2_linear" x1="37.5936" y1="77.6571" x2="54.9944" y2="76.0334" gradientUnits="userSpaceOnUse">
<stop stop-color="white"/>
<stop offset="1" stop-color="white" stop-opacity="0"/>
</linearGradient>
<linearGradient id="paint3_linear" x1="48.2102" y1="54.8185" x2="58.0688" y2="54.1317" gradientUnits="userSpaceOnUse">
<stop stop-color="white"/>
<stop offset="1" stop-color="white" stop-opacity="0"/>
</linearGradient>
<linearGradient id="paint4_linear" x1="46.77" y1="46.353" x2="57.7893" y2="45.4344" gradientUnits="userSpaceOnUse">
<stop stop-color="white"/>
<stop offset="1" stop-color="white" stop-opacity="0"/>
</linearGradient>
<linearGradient id="paint5_linear" x1="35.7454" y1="37.5498" x2="58.4075" y2="46.8964" gradientUnits="userSpaceOnUse">
<stop stop-color="white"/>
<stop offset="1" stop-color="white" stop-opacity="0"/>
</linearGradient>
<linearGradient id="paint6_linear" x1="38.798" y1="35.2117" x2="49.7207" y2="35.0311" gradientUnits="userSpaceOnUse">
<stop stop-color="white"/>
<stop offset="1" stop-color="white" stop-opacity="0"/>
</linearGradient>
<linearGradient id="paint7_linear" x1="46.1987" y1="57.253" x2="76.1038" y2="53.509" gradientUnits="userSpaceOnUse">
<stop stop-color="white"/>
<stop offset="1" stop-color="white" stop-opacity="0"/>
</linearGradient>
<linearGradient id="paint8_linear" x1="79.348" y1="38.3439" x2="89.1486" y2="37.4076" gradientUnits="userSpaceOnUse">
<stop stop-color="white"/>
<stop offset="1" stop-color="white" stop-opacity="0"/>
</linearGradient>
<linearGradient id="paint9_linear" x1="75.5451" y1="-38.9866" x2="118.133" y2="-20.368" gradientUnits="userSpaceOnUse">
<stop stop-color="white"/>
<stop offset="1" stop-color="white" stop-opacity="0"/>
</linearGradient>
</defs>
</svg>
