<svg width="150" height="150" viewBox="0 0 150 150" fill="none" xmlns="http://www.w3.org/2000/svg">
<path d="M93.5996 87.5054C91.1996 85.5054 85.9329 85.0054 83.5996 85.0054V86.0054V94.0054H96.5996C96.5996 92.672 95.9996 89.5054 93.5996 87.5054Z" fill="#31374B"/>
<path d="M93.5996 87.5054C91.1996 85.5054 85.9329 85.0054 83.5996 85.0054V86.0054V94.0054H96.5996C96.5996 92.672 95.9996 89.5054 93.5996 87.5054Z" fill="url(#paint0_linear)"/>
<path d="M60.5996 98.5054C55.0996 98.5054 53.5996 101.505 48.0996 102.505C48.0996 115.005 48.8996 140.405 52.0996 142.005C56.0996 144.005 67.5996 144.005 72.0996 144.505C76.5996 145.005 96.5996 142.505 98.5996 142.005C100.6 141.505 104.6 136.505 104.1 135.005C103.6 133.505 107.6 104.005 107.1 101.005C106.6 98.0054 102.6 97.0054 96.5996 97.0054C90.5996 97.0054 66.0996 98.5054 60.5996 98.5054Z" fill="#8B99A6"/>
<path d="M60.5996 98.5054C55.0996 98.5054 53.5996 101.505 48.0996 102.505C48.0996 115.005 48.8996 140.405 52.0996 142.005C56.0996 144.005 67.5996 144.005 72.0996 144.505C76.5996 145.005 96.5996 142.505 98.5996 142.005C100.6 141.505 104.6 136.505 104.1 135.005C103.6 133.505 107.6 104.005 107.1 101.005C106.6 98.0054 102.6 97.0054 96.5996 97.0054C90.5996 97.0054 66.0996 98.5054 60.5996 98.5054Z" fill="url(#paint1_linear)"/>
<path d="M90.0996 126.505V112.505C81.2662 111.839 63.3996 111.305 62.5996 114.505C61.5996 118.505 65.5996 126.505 66.5996 129.505C67.5996 132.505 75.5996 138.505 78.0996 138.505C80.5996 138.505 90.0996 128.005 90.0996 126.505Z" fill="#AA6431"/>
<path d="M90.0996 126.505V112.505C81.2662 111.839 63.3996 111.305 62.5996 114.505C61.5996 118.505 65.5996 126.505 66.5996 129.505C67.5996 132.505 75.5996 138.505 78.0996 138.505C80.5996 138.505 90.0996 128.005 90.0996 126.505Z" fill="url(#paint2_linear)"/>
<path d="M96.0998 121.505C95.6998 117.905 97.2665 106.672 98.0998 101.505C100.1 100.005 107.6 101.505 103.6 99.5054C99.5995 97.5054 90.0998 98.5054 87.5998 98.5054C85.0998 98.5054 83.0998 89.0054 86.0998 89.0054C89.0998 89.0054 100.1 91.0054 103.1 91.0054C106.1 91.0054 117.1 95.0054 118.6 98.5054C120.1 102.005 122.1 114.005 121.1 117.505C120.1 121.005 111.1 131.005 107.6 133.505C104.1 136.005 102.1 135.005 98.0998 133.505C94.0996 132.005 96.5998 126.005 96.0998 121.505Z" fill="#AA6431"/>
<path d="M96.0998 121.505C95.6998 117.905 97.2665 106.672 98.0998 101.505C100.1 100.005 107.6 101.505 103.6 99.5054C99.5995 97.5054 90.0998 98.5054 87.5998 98.5054C85.0998 98.5054 83.0998 89.0054 86.0998 89.0054C89.0998 89.0054 100.1 91.0054 103.1 91.0054C106.1 91.0054 117.1 95.0054 118.6 98.5054C120.1 102.005 122.1 114.005 121.1 117.505C120.1 121.005 111.1 131.005 107.6 133.505C104.1 136.005 102.1 135.005 98.0998 133.505C94.0996 132.005 96.5998 126.005 96.0998 121.505Z" fill="url(#paint3_linear)"/>
<path d="M88.0997 134.005C90.0997 132.505 90.0997 124.505 90.5997 124.005C83.2663 123.672 68.0997 123.205 66.0997 124.005C63.5997 125.005 64.0997 128.005 64.5997 130.005C65.0997 132.005 74.5997 138.505 77.0997 139.005C79.5997 139.505 86.0997 135.505 88.0997 134.005Z" fill="#AA6431"/>
<path d="M88.0997 134.005C90.0997 132.505 90.0997 124.505 90.5997 124.005C83.2663 123.672 68.0997 123.205 66.0997 124.005C63.5997 125.005 64.0997 128.005 64.5997 130.005C65.0997 132.005 74.5997 138.505 77.0997 139.005C79.5997 139.505 86.0997 135.505 88.0997 134.005Z" fill="url(#paint4_linear)"/>
<path d="M62.0996 116.005C64.4996 116.005 69.5997 115.005 74.0996 114.505C78.5996 114.005 89.5996 114.205 91.5996 113.005C94.0996 111.505 91.5996 76.5053 71.0996 77.0053C50.5996 77.5053 59.0996 116.005 62.0996 116.005Z" fill="#212226"/>
<path d="M62.0996 116.005C64.4996 116.005 69.5997 115.005 74.0996 114.505C78.5996 114.005 89.5996 114.205 91.5996 113.005C94.0996 111.505 91.5996 76.5053 71.0996 77.0053C50.5996 77.5053 59.0996 116.005 62.0996 116.005Z" fill="url(#paint5_linear)"/>
<path d="M58.0995 122.505C58.0995 119.705 54.4329 107.005 52.5995 101.005C51.9329 100.339 50.4996 98.8054 50.0996 98.0054C49.5996 97.0054 46.0996 91.5054 42.5995 90.0054C39.0995 88.5054 34.5995 93.5054 31.0995 95.5054C27.5995 97.5054 29.0995 104.005 31.0995 108.505C33.0995 113.005 40.5995 129.005 42.5995 132.505C44.5995 136.005 52.5995 138.505 55.5995 135.005C58.5995 131.505 58.0995 126.005 58.0995 122.505Z" fill="#AA6431"/>
<path d="M58.0995 122.505C58.0995 119.705 54.4329 107.005 52.5995 101.005C51.9329 100.339 50.4996 98.8054 50.0996 98.0054C49.5996 97.0054 46.0996 91.5054 42.5995 90.0054C39.0995 88.5054 34.5995 93.5054 31.0995 95.5054C27.5995 97.5054 29.0995 104.005 31.0995 108.505C33.0995 113.005 40.5995 129.005 42.5995 132.505C44.5995 136.005 52.5995 138.505 55.5995 135.005C58.5995 131.505 58.0995 126.005 58.0995 122.505Z" fill="url(#paint6_linear)"/>
<path d="M41.0994 138.505C43.0994 135.705 41.9327 131.672 41.0994 130.005L48.5996 128.505C50.4329 130.005 54.0996 133.605 54.0996 136.005C54.0996 139.005 55.0996 142.505 56.0996 145.505C57.0996 148.505 54.0996 145.505 51.0996 148.505C48.0996 151.505 37.0994 147.005 34.5994 145.505C32.0994 144.005 38.5994 142.005 41.0994 138.505Z" fill="#AA6431"/>
<path d="M41.0994 138.505C43.0994 135.705 41.9327 131.672 41.0994 130.005L48.5996 128.505C50.4329 130.005 54.0996 133.605 54.0996 136.005C54.0996 139.005 55.0996 142.505 56.0996 145.505C57.0996 148.505 54.0996 145.505 51.0996 148.505C48.0996 151.505 37.0994 147.005 34.5994 145.505C32.0994 144.005 38.5994 142.005 41.0994 138.505Z" fill="url(#paint7_linear)"/>
<defs>
<linearGradient id="paint0_linear" x1="66.0015" y1="86.2911" x2="86.5758" y2="98.9195" gradientUnits="userSpaceOnUse">
<stop stop-color="white"/>
<stop offset="1" stop-color="white" stop-opacity="0"/>
</linearGradient>
<linearGradient id="paint1_linear" x1="23.4037" y1="126.679" x2="67.4752" y2="118.627" gradientUnits="userSpaceOnUse">
<stop stop-color="white"/>
<stop offset="1" stop-color="white" stop-opacity="0"/>
</linearGradient>
<linearGradient id="paint2_linear" x1="44.228" y1="126.599" x2="74.6846" y2="123.263" gradientUnits="userSpaceOnUse">
<stop stop-color="white"/>
<stop offset="1" stop-color="white" stop-opacity="0"/>
</linearGradient>
<linearGradient id="paint3_linear" x1="60.3788" y1="114.355" x2="101.073" y2="110.942" gradientUnits="userSpaceOnUse">
<stop stop-color="white"/>
<stop offset="1" stop-color="white" stop-opacity="0"/>
</linearGradient>
<linearGradient id="paint4_linear" x1="46.8027" y1="132.093" x2="75.3168" y2="126.988" gradientUnits="userSpaceOnUse">
<stop stop-color="white"/>
<stop offset="1" stop-color="white" stop-opacity="0"/>
</linearGradient>
<linearGradient id="paint5_linear" x1="10.9352" y1="82.5722" x2="76.9594" y2="107.466" gradientUnits="userSpaceOnUse">
<stop stop-color="white"/>
<stop offset="1" stop-color="white" stop-opacity="0"/>
</linearGradient>
<linearGradient id="paint6_linear" x1="9.8186" y1="115.597" x2="42.1435" y2="113.492" gradientUnits="userSpaceOnUse">
<stop stop-color="white"/>
<stop offset="1" stop-color="white" stop-opacity="0"/>
</linearGradient>
<linearGradient id="paint7_linear" x1="19.3807" y1="140.078" x2="43.8816" y2="137.352" gradientUnits="userSpaceOnUse">
<stop stop-color="white"/>
<stop offset="1" stop-color="white" stop-opacity="0"/>
</linearGradient>
</defs>
</svg>
