<svg width="150" height="150" viewBox="0 0 150 150" fill="none" xmlns="http://www.w3.org/2000/svg">
<path d="M69.5447 114.948C69.5447 113.47 70.468 110.024 70.9296 108.485H71.8529C74.6227 107.561 80.1623 105.992 80.1623 107.1C80.1623 108.485 80.624 112.639 80.1623 114.948C79.7007 117.256 69.5447 116.794 69.5447 114.948Z" fill="#212226"/>
<path d="M69.5447 114.948C69.5447 113.47 70.468 110.024 70.9296 108.485H71.8529C74.6227 107.561 80.1623 105.992 80.1623 107.1C80.1623 108.485 80.624 112.639 80.1623 114.948C79.7007 117.256 69.5447 116.794 69.5447 114.948Z" fill="url(#paint0_linear)"/>
<path d="M85.2404 114.947V107.561C86.933 106.484 90.6877 104.514 92.1649 105.253C94.0114 106.176 95.858 112.639 96.7813 114.947C97.7045 117.256 85.2404 116.794 85.2404 114.947Z" fill="#212226"/>
<path d="M85.2404 114.947V107.561C86.933 106.484 90.6877 104.514 92.1649 105.253C94.0114 106.176 95.858 112.639 96.7813 114.947C97.7045 117.256 85.2404 116.794 85.2404 114.947Z" fill="url(#paint1_linear)"/>
<path d="M94.9346 92.3274C94.9346 89.0036 93.0881 74.9391 92.1648 68.3223L65.3902 82.1714C64.0052 85.8645 61.6047 94.3586 63.082 98.7903C64.9285 104.33 69.5446 102.022 70.4679 103.407C71.3912 104.792 70.0063 106.176 70.4679 108.946C70.9295 111.716 78.7773 109.87 80.1623 108.946C81.5472 108.023 80.6239 103.407 82.4704 103.407C84.317 103.407 83.3937 107.1 84.317 108.946C85.2403 110.793 92.1648 109.87 94.0113 108.946C95.8579 108.023 94.0113 105.715 94.0113 102.022C94.0113 98.3286 94.9346 96.4821 94.9346 92.3274Z" fill="#31374B"/>
<path d="M94.9346 92.3274C94.9346 89.0036 93.0881 74.9391 92.1648 68.3223L65.3902 82.1714C64.0052 85.8645 61.6047 94.3586 63.082 98.7903C64.9285 104.33 69.5446 102.022 70.4679 103.407C71.3912 104.792 70.0063 106.176 70.4679 108.946C70.9295 111.716 78.7773 109.87 80.1623 108.946C81.5472 108.023 80.6239 103.407 82.4704 103.407C84.317 103.407 83.3937 107.1 84.317 108.946C85.2403 110.793 92.1648 109.87 94.0113 108.946C95.8579 108.023 94.0113 105.715 94.0113 102.022C94.0113 98.3286 94.9346 96.4821 94.9346 92.3274Z" fill="url(#paint2_linear)"/>
<path d="M54.3107 33.6994H61.6969L83.3939 31.3912C86.1637 31.0835 91.7033 30.6526 91.7033 31.3912V37.3925C91.7033 41.0856 93.0882 43.3938 94.0115 48.9334C94.9348 54.473 98.6279 60.0127 98.1662 61.8592C97.7046 63.7058 93.0882 68.7838 91.7033 72.0152C90.3184 75.2467 79.7008 85.8643 77.3926 87.2492C75.0844 88.6341 61.6969 89.5574 61.6969 88.1725C61.6969 86.7876 58.9271 73.4001 60.3121 68.7838C61.697 64.1674 59.3887 51.7032 58.9271 48.9334C58.4654 46.1636 53.8491 33.6994 54.3107 33.6994Z" fill="#8B99A6"/>
<path d="M54.3107 33.6994H61.6969L83.3939 31.3912C86.1637 31.0835 91.7033 30.6526 91.7033 31.3912V37.3925C91.7033 41.0856 93.0882 43.3938 94.0115 48.9334C94.9348 54.473 98.6279 60.0127 98.1662 61.8592C97.7046 63.7058 93.0882 68.7838 91.7033 72.0152C90.3184 75.2467 79.7008 85.8643 77.3926 87.2492C75.0844 88.6341 61.6969 89.5574 61.6969 88.1725C61.6969 86.7876 58.9271 73.4001 60.3121 68.7838C61.697 64.1674 59.3887 51.7032 58.9271 48.9334C58.4654 46.1636 53.8491 33.6994 54.3107 33.6994Z" fill="url(#paint3_linear)"/>
<path d="M70.0063 64.1673C68.1598 63.798 64.6206 52.0109 63.0818 46.1635C70.3141 42.6243 84.9634 36.0075 85.702 37.854C86.6252 40.1622 87.5485 48.9333 88.0102 51.7031C88.4718 54.4729 84.7787 62.3208 82.9322 64.1673C81.0856 66.0139 72.3145 64.6289 70.0063 64.1673Z" fill="#AA6431"/>
<path d="M70.0063 64.1673C68.1598 63.798 64.6206 52.0109 63.0818 46.1635C70.3141 42.6243 84.9634 36.0075 85.702 37.854C86.6252 40.1622 87.5485 48.9333 88.0102 51.7031C88.4718 54.4729 84.7787 62.3208 82.9322 64.1673C81.0856 66.0139 72.3145 64.6289 70.0063 64.1673Z" fill="url(#paint4_linear)"/>
<path d="M101.398 34.1612C98.8124 33.0533 93.5498 32.1608 91.2416 31.853L89.8567 35.0845C90.78 43.7017 93.4575 60.9361 96.7812 60.9361C100.936 60.9361 108.784 51.2418 109.707 50.3185C110.63 49.3952 110.169 42.9323 109.707 41.5474C109.245 40.1625 104.629 35.5461 101.398 34.1612Z" fill="#AA6431"/>
<path d="M101.398 34.1612C98.8124 33.0533 93.5498 32.1608 91.2416 31.853L89.8567 35.0845C90.78 43.7017 93.4575 60.9361 96.7812 60.9361C100.936 60.9361 108.784 51.2418 109.707 50.3185C110.63 49.3952 110.169 42.9323 109.707 41.5474C109.245 40.1625 104.629 35.5461 101.398 34.1612Z" fill="url(#paint5_linear)"/>
<path d="M63.5435 48.0103C62.4356 46.9023 61.2353 36.4693 60.7737 31.3913C69.237 30.3142 86.256 28.4369 86.6253 29.5448C87.087 30.9297 85.2404 46.1637 84.3171 48.0103C83.3939 49.8568 76.4693 54.9348 73.6995 55.3964C70.9297 55.8581 64.9284 49.3952 63.5435 48.0103Z" fill="#AA6431"/>
<path d="M63.5435 48.0103C62.4356 46.9023 61.2353 36.4693 60.7737 31.3913C69.237 30.3142 86.256 28.4369 86.6253 29.5448C87.087 30.9297 85.2404 46.1637 84.3171 48.0103C83.3939 49.8568 76.4693 54.9348 73.6995 55.3964C70.9297 55.8581 64.9284 49.3952 63.5435 48.0103Z" fill="url(#paint6_linear)"/>
<path d="M48.3095 35.546C49.7867 34.4381 53.5413 33.8533 55.234 33.6995C57.2344 41.2395 61.2353 57.3352 61.2353 61.3976C61.2353 66.4757 60.7736 72.0153 61.2353 76.6316C61.6969 81.248 65.39 93.2506 64.9284 97.8669C64.4667 102.483 70.0064 135.259 69.0831 136.644C68.1598 138.029 60.312 138.953 58.4655 136.644C56.6189 134.336 50.6176 97.4053 50.6176 94.6355C50.6176 91.8657 46.9245 85.4027 45.5396 83.0946C44.1547 80.7864 41.8465 72.9386 41.8465 69.2455C41.8465 65.5524 40 54.4731 40 52.6266C40 50.78 42.3082 47.5486 44.1547 45.702C46.0013 43.8555 46.4629 36.9309 48.3095 35.546Z" fill="#AA6431"/>
<path d="M48.3095 35.546C49.7867 34.4381 53.5413 33.8533 55.234 33.6995C57.2344 41.2395 61.2353 57.3352 61.2353 61.3976C61.2353 66.4757 60.7736 72.0153 61.2353 76.6316C61.6969 81.248 65.39 93.2506 64.9284 97.8669C64.4667 102.483 70.0064 135.259 69.0831 136.644C68.1598 138.029 60.312 138.953 58.4655 136.644C56.6189 134.336 50.6176 97.4053 50.6176 94.6355C50.6176 91.8657 46.9245 85.4027 45.5396 83.0946C44.1547 80.7864 41.8465 72.9386 41.8465 69.2455C41.8465 65.5524 40 54.4731 40 52.6266C40 50.78 42.3082 47.5486 44.1547 45.702C46.0013 43.8555 46.4629 36.9309 48.3095 35.546Z" fill="url(#paint7_linear)"/>
<path d="M59.3886 32.3145C61.2352 31.5759 68.6213 30.9296 72.3145 30.9296C76.0076 30.9296 87.0869 32.3145 89.3951 32.3145C91.7033 32.3145 88.9334 0 72.3145 0C55.6955 0 57.0805 33.2378 59.3886 32.3145Z" fill="#212226"/>
<path d="M59.3886 32.3145C61.2352 31.5759 68.6213 30.9296 72.3145 30.9296C76.0076 30.9296 87.0869 32.3145 89.3951 32.3145C91.7033 32.3145 88.9334 0 72.3145 0C55.6955 0 57.0805 33.2378 59.3886 32.3145Z" fill="url(#paint8_linear)"/>
<path d="M53.3875 144.492C54.8647 143.384 57.3883 138.799 58.4655 136.644C60.312 136.183 64.6514 135.537 67.2366 136.644C70.468 138.029 78.7775 139.414 78.7775 141.261C78.7775 143.107 81.0857 144.492 78.7775 145.416C76.4693 146.339 76.0077 144.492 73.2379 144.492C70.468 144.492 72.7762 149.57 71.853 149.57C70.9297 149.57 68.6215 145.416 67.2366 145.416C65.8517 145.416 65.39 149.57 64.0051 149.57C62.6202 149.57 62.6202 146.8 62.1586 144.492C61.697 142.184 60.312 147.724 59.8504 149.57C59.3888 151.417 58.4655 146.8 58.4655 145.416C58.4655 144.031 57.0806 144.492 55.6957 146.8C54.3108 149.109 51.5409 145.877 53.3875 144.492Z" fill="#AA6431"/>
<path d="M53.3875 144.492C54.8647 143.384 57.3883 138.799 58.4655 136.644C60.312 136.183 64.6514 135.537 67.2366 136.644C70.468 138.029 78.7775 139.414 78.7775 141.261C78.7775 143.107 81.0857 144.492 78.7775 145.416C76.4693 146.339 76.0077 144.492 73.2379 144.492C70.468 144.492 72.7762 149.57 71.853 149.57C70.9297 149.57 68.6215 145.416 67.2366 145.416C65.8517 145.416 65.39 149.57 64.0051 149.57C62.6202 149.57 62.6202 146.8 62.1586 144.492C61.697 142.184 60.312 147.724 59.8504 149.57C59.3888 151.417 58.4655 146.8 58.4655 145.416C58.4655 144.031 57.0806 144.492 55.6957 146.8C54.3108 149.109 51.5409 145.877 53.3875 144.492Z" fill="url(#paint9_linear)"/>
<defs>
<linearGradient id="paint0_linear" x1="54.8938" y1="108.118" x2="74.2136" y2="117.192" gradientUnits="userSpaceOnUse">
<stop stop-color="white"/>
<stop offset="1" stop-color="white" stop-opacity="0"/>
</linearGradient>
<linearGradient id="paint1_linear" x1="69.5513" y1="106.723" x2="90.8435" y2="115.906" gradientUnits="userSpaceOnUse">
<stop stop-color="white"/>
<stop offset="1" stop-color="white" stop-opacity="0"/>
</linearGradient>
<linearGradient id="paint2_linear" x1="18.8708" y1="74.3347" x2="82.5101" y2="95.0995" gradientUnits="userSpaceOnUse">
<stop stop-color="white"/>
<stop offset="1" stop-color="white" stop-opacity="0"/>
</linearGradient>
<linearGradient id="paint3_linear" x1="35.9048" y1="67.088" x2="69.3705" y2="63.3491" gradientUnits="userSpaceOnUse">
<stop stop-color="white"/>
<stop offset="1" stop-color="white" stop-opacity="0"/>
</linearGradient>
<linearGradient id="paint4_linear" x1="46.6414" y1="52.7185" x2="74.2152" y2="50.0966" gradientUnits="userSpaceOnUse">
<stop stop-color="white"/>
<stop offset="1" stop-color="white" stop-opacity="0"/>
</linearGradient>
<linearGradient id="paint5_linear" x1="76.4351" y1="47.8725" x2="99.0271" y2="46.2102" gradientUnits="userSpaceOnUse">
<stop stop-color="white"/>
<stop offset="1" stop-color="white" stop-opacity="0"/>
</linearGradient>
<linearGradient id="paint6_linear" x1="43.7035" y1="43.6453" x2="72.2844" y2="40.678" gradientUnits="userSpaceOnUse">
<stop stop-color="white"/>
<stop offset="1" stop-color="white" stop-opacity="0"/>
</linearGradient>
<linearGradient id="paint7_linear" x1="20.7815" y1="91.1775" x2="53.2782" y2="90.2234" gradientUnits="userSpaceOnUse">
<stop stop-color="white"/>
<stop offset="1" stop-color="white" stop-opacity="0"/>
</linearGradient>
<linearGradient id="paint8_linear" x1="14.5824" y1="4.61906" x2="73.9385" y2="29.6478" gradientUnits="userSpaceOnUse">
<stop stop-color="white"/>
<stop offset="1" stop-color="white" stop-opacity="0"/>
</linearGradient>
<linearGradient id="paint9_linear" x1="34.9739" y1="143.726" x2="63.9017" y2="137.849" gradientUnits="userSpaceOnUse">
<stop stop-color="white"/>
<stop offset="1" stop-color="white" stop-opacity="0"/>
</linearGradient>
</defs>
</svg>
