<svg width="150" height="150" viewBox="0 0 150 150" fill="none" xmlns="http://www.w3.org/2000/svg">
<path d="M56.9185 138.395C54.5116 138.395 49.6119 137.249 47.4629 136.676H43.1649L46.6033 143.983H56.9185C59.4973 143.983 59.9271 138.395 56.9185 138.395Z" fill="#212226"/>
<path d="M56.9185 138.395C54.5116 138.395 49.6119 137.249 47.4629 136.676H43.1649L46.6033 143.983H56.9185C59.4973 143.983 59.9271 138.395 56.9185 138.395Z" fill="url(#paint0_linear)"/>
<path d="M116.661 150L104.626 129.799V0H116.661V150Z" fill="#ECF1F4"/>
<path d="M107.635 38.6817C105.916 39.7132 105.486 43.9826 105.486 45.9883V48.9971H109.354C110.07 46.5615 111.417 41.2605 111.073 39.5413C110.643 37.3923 109.784 37.3923 107.635 38.6817Z" fill="#AA6431"/>
<path d="M107.635 38.6817C105.916 39.7132 105.486 43.9826 105.486 45.9883V48.9971H109.354C110.07 46.5615 111.417 41.2605 111.073 39.5413C110.643 37.3923 109.784 37.3923 107.635 38.6817Z" fill="url(#paint1_linear)"/>
<path d="M59.4973 25.3582C60.8727 24.6706 62.0761 20.4872 62.5059 18.4814C68.2366 16.4757 79.8698 12.7221 80.5575 13.7537C81.4171 15.043 80.5575 18.4814 79.6979 21.9198L79.6979 21.9198C78.8383 25.3582 76.2595 27.937 74.9701 28.7966C73.6807 29.6562 70.6721 27.0774 69.8125 27.937C68.9529 28.7966 69.8125 30.5158 68.9529 30.5158C68.0933 30.5158 57.7781 26.2178 59.4973 25.3582Z" fill="#AA6431"/>
<path d="M59.4973 25.3582C60.8727 24.6706 62.0761 20.4872 62.5059 18.4814C68.2366 16.4757 79.8698 12.7221 80.5575 13.7537C81.4171 15.043 80.5575 18.4814 79.6979 21.9198L79.6979 21.9198C78.8383 25.3582 76.2595 27.937 74.9701 28.7966C73.6807 29.6562 70.6721 27.0774 69.8125 27.937C68.9529 28.7966 69.8125 30.5158 68.9529 30.5158C68.0933 30.5158 57.7781 26.2178 59.4973 25.3582Z" fill="url(#paint2_linear)"/>
<path d="M62.0761 20.2003C63.7953 18.911 77.5489 15.9024 80.5575 14.613C83.1363 16.3322 75.8297 0.859376 68.0933 3.43817C60.3569 6.01697 60.3569 21.4897 62.0761 20.2003Z" fill="#212226"/>
<path d="M62.0761 20.2003C63.7953 18.911 77.5489 15.9024 80.5575 14.613C83.1363 16.3322 75.8297 0.859376 68.0933 3.43817C60.3569 6.01697 60.3569 21.4897 62.0761 20.2003Z" fill="url(#paint3_linear)"/>
<path d="M34.1391 147.851C32.0761 146.476 33.2795 138.968 34.1391 135.387H46.6033C46.1735 136.819 45.7437 140.029 47.4629 141.404C49.6119 143.123 52.6205 143.553 55.6291 143.983C58.6377 144.413 57.3483 149.14 55.6291 149.57C53.9099 150 36.7179 149.57 34.1391 147.851Z" fill="#212226"/>
<path d="M34.1391 147.851C32.0761 146.476 33.2795 138.968 34.1391 135.387H46.6033C46.1735 136.819 45.7437 140.029 47.4629 141.404C49.6119 143.123 52.6205 143.553 55.6291 143.983C58.6377 144.413 57.3483 149.14 55.6291 149.57C53.9099 150 36.7179 149.57 34.1391 147.851Z" fill="url(#paint4_linear)"/>
<path d="M52.1907 32.2349C54.9414 27.4212 59.354 25.6447 61.2165 25.3582H64.6549C67.5202 29.7994 73.2508 39.5415 73.2508 42.9799C73.2508 47.2779 70.6721 61.0315 68.5231 64.0401C66.3741 67.0487 68.0933 81.6619 67.2337 78.6533C66.3741 75.6447 41.8755 73.9255 41.8755 72.6361C41.8755 71.3467 47.8927 62.3209 49.6119 60.1719C51.3311 58.0229 49.6119 49.4269 49.6119 46.4183C49.6119 43.4097 48.7523 38.2521 52.1907 32.2349Z" fill="#8B99A6"/>
<path d="M52.1907 32.2349C54.9414 27.4212 59.354 25.6447 61.2165 25.3582H64.6549C67.5202 29.7994 73.2508 39.5415 73.2508 42.9799C73.2508 47.2779 70.6721 61.0315 68.5231 64.0401C66.3741 67.0487 68.0933 81.6619 67.2337 78.6533C66.3741 75.6447 41.8755 73.9255 41.8755 72.6361C41.8755 71.3467 47.8927 62.3209 49.6119 60.1719C51.3311 58.0229 49.6119 49.4269 49.6119 46.4183C49.6119 43.4097 48.7523 38.2521 52.1907 32.2349Z" fill="url(#paint5_linear)"/>
<path d="M59.4974 46.4182C61.5604 46.4182 63.7954 42.9798 64.655 41.2606C67.2338 46.848 80.1277 48.5673 82.7065 49.4269L82.7066 49.4269C85.2856 50.2866 98.1793 54.5845 101.618 55.0143C105.056 55.4441 111.503 52.8653 113.652 51.5759C115.801 50.2865 115.371 42.1203 115.371 39.9712C115.371 37.8222 111.933 36.5329 111.503 39.9712C111.073 43.4096 110.643 48.5673 109.784 48.5673C108.924 48.5673 93.4515 41.2606 90.0131 39.9712C86.5747 38.6818 86.5747 39.1117 83.9959 38.6819C81.4171 38.2521 77.9787 36.9627 76.2595 36.5329C74.5403 36.1031 71.9615 32.2349 69.8125 30.9455C67.6636 29.6561 64.655 28.3666 62.9358 27.9368C61.2166 27.507 57.3484 28.7964 55.1994 30.0858C53.0504 31.3752 51.761 36.9626 52.6206 39.9712C53.4802 42.9798 56.9186 46.4182 59.4974 46.4182Z" fill="#AA6431"/>
<path d="M59.4974 46.4182C61.5604 46.4182 63.7954 42.9798 64.655 41.2606C67.2338 46.848 80.1277 48.5673 82.7065 49.4269L82.7066 49.4269C85.2856 50.2866 98.1793 54.5845 101.618 55.0143C105.056 55.4441 111.503 52.8653 113.652 51.5759C115.801 50.2865 115.371 42.1203 115.371 39.9712C115.371 37.8222 111.933 36.5329 111.503 39.9712C111.073 43.4096 110.643 48.5673 109.784 48.5673C108.924 48.5673 93.4515 41.2606 90.0131 39.9712C86.5747 38.6818 86.5747 39.1117 83.9959 38.6819C81.4171 38.2521 77.9787 36.9627 76.2595 36.5329C74.5403 36.1031 71.9615 32.2349 69.8125 30.9455C67.6636 29.6561 64.655 28.3666 62.9358 27.9368C61.2166 27.507 57.3484 28.7964 55.1994 30.0858C53.0504 31.3752 51.761 36.9626 52.6206 39.9712C53.4802 42.9798 56.9186 46.4182 59.4974 46.4182Z" fill="url(#paint6_linear)"/>
<path d="M42.3054 76.5043C42.3054 74.0974 43.4515 72.6361 44.0246 72.2063C51.1879 72.2063 65.7724 73.0659 66.8039 76.5043C68.0933 80.8023 58.2079 110.029 57.3483 113.037C56.4887 116.046 50.0417 135.817 48.3225 137.536C46.6033 139.255 33.7094 136.676 34.1392 134.527C34.569 132.378 40.5862 110.029 41.4458 107.02C42.3054 104.011 41.4458 100.143 42.3054 96.7049C43.165 93.2665 44.8842 89.8281 44.8842 87.6791C44.8842 85.5301 42.3054 79.5129 42.3054 76.5043Z" fill="#31374B"/>
<path d="M42.3054 76.5043C42.3054 74.0974 43.4515 72.6361 44.0246 72.2063C51.1879 72.2063 65.7724 73.0659 66.8039 76.5043C68.0933 80.8023 58.2079 110.029 57.3483 113.037C56.4887 116.046 50.0417 135.817 48.3225 137.536C46.6033 139.255 33.7094 136.676 34.1392 134.527C34.569 132.378 40.5862 110.029 41.4458 107.02C42.3054 104.011 41.4458 100.143 42.3054 96.7049C43.165 93.2665 44.8842 89.8281 44.8842 87.6791C44.8842 85.5301 42.3054 79.5129 42.3054 76.5043Z" fill="url(#paint7_linear)"/>
<defs>
<linearGradient id="paint0_linear" x1="21.7061" y1="137.72" x2="40.377" y2="154.933" gradientUnits="userSpaceOnUse">
<stop stop-color="white"/>
<stop offset="1" stop-color="white" stop-opacity="0"/>
</linearGradient>
<linearGradient id="paint1_linear" x1="101.77" y1="43.9683" x2="108.041" y2="43.6366" gradientUnits="userSpaceOnUse">
<stop stop-color="white"/>
<stop offset="1" stop-color="white" stop-opacity="0"/>
</linearGradient>
<linearGradient id="paint2_linear" x1="45.0758" y1="22.9075" x2="68.7316" y2="19.7393" gradientUnits="userSpaceOnUse">
<stop stop-color="white"/>
<stop offset="1" stop-color="white" stop-opacity="0"/>
</linearGradient>
<linearGradient id="paint3_linear" x1="34.1659" y1="5.59447" x2="69.0657" y2="22.8533" gradientUnits="userSpaceOnUse">
<stop stop-color="white"/>
<stop offset="1" stop-color="white" stop-opacity="0"/>
</linearGradient>
<linearGradient id="paint4_linear" x1="-0.0761486" y1="137.435" x2="34.8492" y2="162.725" gradientUnits="userSpaceOnUse">
<stop stop-color="white"/>
<stop offset="1" stop-color="white" stop-opacity="0"/>
</linearGradient>
<linearGradient id="paint5_linear" x1="28.7522" y1="58.8592" x2="52.7758" y2="56.7932" gradientUnits="userSpaceOnUse">
<stop stop-color="white"/>
<stop offset="1" stop-color="white" stop-opacity="0"/>
</linearGradient>
<linearGradient id="paint6_linear" x1="10.8322" y1="42.8399" x2="77.1715" y2="26.7011" gradientUnits="userSpaceOnUse">
<stop stop-color="white"/>
<stop offset="1" stop-color="white" stop-opacity="0"/>
</linearGradient>
<linearGradient id="paint7_linear" x1="-10.2606" y1="81.6193" x2="58.1292" y2="96.0818" gradientUnits="userSpaceOnUse">
<stop stop-color="white"/>
<stop offset="1" stop-color="white" stop-opacity="0"/>
</linearGradient>
</defs>
</svg>
