<svg width="150" height="150" viewBox="0 0 150 150" fill="none" xmlns="http://www.w3.org/2000/svg">
<path d="M116.698 150L103.941 126.686V0H116.698V150Z" fill="#ECF1F4"/>
<path d="M87.6657 27.2726C89.0733 26.9207 91.478 23.9002 92.5044 22.4339C98.8094 22.1406 111.419 21.906 111.419 23.3136C111.419 25.0732 107.46 31.2315 106.141 32.5512C104.821 33.8708 99.9824 35.1905 99.1026 35.1905C98.2228 35.1905 97.3431 32.9911 96.4633 32.5512C95.5835 32.1113 94.7038 35.1905 93.3842 35.1905C92.0645 35.1905 85.9062 27.7125 87.6657 27.2726Z" fill="#AA6431"/>
<path d="M87.6657 27.2726C89.0733 26.9207 91.478 23.9002 92.5044 22.4339C98.8094 22.1406 111.419 21.906 111.419 23.3136C111.419 25.0732 107.46 31.2315 106.141 32.5512C104.821 33.8708 99.9824 35.1905 99.1026 35.1905C98.2228 35.1905 97.3431 32.9911 96.4633 32.5512C95.5835 32.1113 94.7038 35.1905 93.3842 35.1905C92.0645 35.1905 85.9062 27.7125 87.6657 27.2726Z" fill="url(#paint0_linear)"/>
<path d="M91.6246 23.7535C94.7037 21.9939 110.1 25.0731 111.859 23.7535C114.059 21.5539 109.66 8.35773 102.622 8.79761C95.5835 9.2375 88.5454 25.513 91.6246 23.7535Z" fill="#212226"/>
<path d="M91.6246 23.7535C94.7037 21.9939 110.1 25.0731 111.859 23.7535C114.059 21.5539 109.66 8.35773 102.622 8.79761C95.5835 9.2375 88.5454 25.513 91.6246 23.7535Z" fill="url(#paint1_linear)"/>
<path d="M111.419 47.0672C110.1 47.3604 107.46 47.771 107.46 47.0672V40.4691V39.1493C107.46 37.8296 111.419 37.3898 111.419 39.1493V47.0672Z" fill="#AA6431"/>
<path d="M111.419 47.0672C110.1 47.3604 107.46 47.771 107.46 47.0672V40.4691V39.1493C107.46 37.8296 111.419 37.3898 111.419 39.1493V47.0672Z" fill="url(#paint2_linear)"/>
<path d="M34 146.481C34 145.073 36.0528 141.202 37.0792 139.443H44.5572C44.8504 139.736 45.7889 140.411 47.1965 140.763C48.956 141.202 56.434 142.082 58.6334 142.522C60.8328 142.962 61.2727 149.12 58.6334 149.12H46.7566C43.2375 149.12 34 148.241 34 146.481Z" fill="#212226"/>
<path d="M34 146.481C34 145.073 36.0528 141.202 37.0792 139.443H44.5572C44.8504 139.736 45.7889 140.411 47.1965 140.763C48.956 141.202 56.434 142.082 58.6334 142.522C60.8328 142.962 61.2727 149.12 58.6334 149.12H46.7566C43.2375 149.12 34 148.241 34 146.481Z" fill="url(#paint3_linear)"/>
<path d="M55.1144 76.5395C55.1144 73.0205 56.5807 70.0879 57.3138 69.0615L77.1086 71.2609C78.1349 72.8738 80.0118 76.8035 79.308 79.6187C78.4282 83.1378 76.6687 93.2551 75.349 94.1348C74.0294 95.0146 63.0323 114.369 61.7127 116.129C60.393 117.889 49.3959 139.443 47.6364 140.762C45.8769 142.082 35.3197 141.202 35.3197 139.443C35.3197 137.683 40.1584 126.686 41.0382 124.047C41.9179 121.408 47.6364 106.891 48.9561 105.132C50.2757 103.372 53.3549 90.1759 54.2347 87.9765C55.1144 85.7771 55.1144 80.9384 55.1144 76.5395Z" fill="#31374B"/>
<path d="M55.1144 76.5395C55.1144 73.0205 56.5807 70.0879 57.3138 69.0615L77.1086 71.2609C78.1349 72.8738 80.0118 76.8035 79.308 79.6187C78.4282 83.1378 76.6687 93.2551 75.349 94.1348C74.0294 95.0146 63.0323 114.369 61.7127 116.129C60.393 117.889 49.3959 139.443 47.6364 140.762C45.8769 142.082 35.3197 141.202 35.3197 139.443C35.3197 137.683 40.1584 126.686 41.0382 124.047C41.9179 121.408 47.6364 106.891 48.9561 105.132C50.2757 103.372 53.3549 90.1759 54.2347 87.9765C55.1144 85.7771 55.1144 80.9384 55.1144 76.5395Z" fill="url(#paint4_linear)"/>
<path d="M81.5074 26.3931C83.6189 25.3374 86.1995 26.833 87.2259 27.7128L92.9443 33.871C92.5044 41.4957 91.3607 57.1848 90.305 58.9443C88.9854 61.1438 80.6277 82.698 78.4282 79.6188C76.2288 76.5396 55.5543 70.8212 55.9942 69.0616C56.4341 67.3021 66.5514 58.5045 67.8711 56.7449C69.1907 54.9854 68.7508 50.1467 70.0705 47.5074C71.3901 44.8681 73.1496 36.0704 74.0294 33.871C74.9092 31.6716 78.8681 27.7128 81.5074 26.3931Z" fill="#8B99A6"/>
<path d="M81.5074 26.3931C83.6189 25.3374 86.1995 26.833 87.2259 27.7128L92.9443 33.871C92.5044 41.4957 91.3607 57.1848 90.305 58.9443C88.9854 61.1438 80.6277 82.698 78.4282 79.6188C76.2288 76.5396 55.5543 70.8212 55.9942 69.0616C56.4341 67.3021 66.5514 58.5045 67.8711 56.7449C69.1907 54.9854 68.7508 50.1467 70.0705 47.5074C71.3901 44.8681 73.1496 36.0704 74.0294 33.871C74.9092 31.6716 78.8681 27.7128 81.5074 26.3931Z" fill="url(#paint5_linear)"/>
<path d="M59.0733 136.803H48.956C48.0762 137.537 46.2287 138.915 45.8768 138.563C45.5249 138.211 46.61 140.762 47.1965 142.082C50.2757 142.522 57.0498 143.314 59.5132 142.962C62.5924 142.522 61.2727 136.803 59.0733 136.803Z" fill="#212226"/>
<path d="M59.0733 136.803H48.956C48.0762 137.537 46.2287 138.915 45.8768 138.563C45.5249 138.211 46.61 140.762 47.1965 142.082C50.2757 142.522 57.0498 143.314 59.5132 142.962C62.5924 142.522 61.2727 136.803 59.0733 136.803Z" fill="url(#paint6_linear)"/>
<path d="M81.0673 28.1525C82.123 27.0968 85.906 27.7126 87.6656 28.1525C88.5454 28.739 90.6568 30.2639 92.0645 31.6716C93.824 33.4311 94.7038 35.1906 94.7038 39.1496C94.7038 43.1085 95.1436 50.1466 96.9032 50.5865C98.6627 51.0264 109.66 46.1877 110.979 45.7478C112.299 45.3079 112.299 38.2698 111.859 36.0704C111.419 33.871 115.378 33.871 115.818 37.39C116.258 40.9091 116.258 47.5074 115.378 49.2669C114.498 51.0264 103.501 59.3842 102.182 60.264C100.862 61.1437 94.2639 62.0235 92.0645 62.0235C89.865 62.0235 88.1055 59.3842 85.9061 56.7449C83.7067 54.1056 81.9472 47.9472 81.0673 47.5074C80.1875 47.0675 77.9881 46.1877 76.2286 44.8681C74.4691 43.5484 74.0292 40.4692 74.4691 36.9502C74.909 33.4311 79.7477 29.4721 81.0673 28.1525Z" fill="#AA6431"/>
<path d="M81.0673 28.1525C82.123 27.0968 85.906 27.7126 87.6656 28.1525C88.5454 28.739 90.6568 30.2639 92.0645 31.6716C93.824 33.4311 94.7038 35.1906 94.7038 39.1496C94.7038 43.1085 95.1436 50.1466 96.9032 50.5865C98.6627 51.0264 109.66 46.1877 110.979 45.7478C112.299 45.3079 112.299 38.2698 111.859 36.0704C111.419 33.871 115.378 33.871 115.818 37.39C116.258 40.9091 116.258 47.5074 115.378 49.2669C114.498 51.0264 103.501 59.3842 102.182 60.264C100.862 61.1437 94.2639 62.0235 92.0645 62.0235C89.865 62.0235 88.1055 59.3842 85.9061 56.7449C83.7067 54.1056 81.9472 47.9472 81.0673 47.5074C80.1875 47.0675 77.9881 46.1877 76.2286 44.8681C74.4691 43.5484 74.0292 40.4692 74.4691 36.9502C74.909 33.4311 79.7477 29.4721 81.0673 28.1525Z" fill="url(#paint7_linear)"/>
<defs>
<linearGradient id="paint0_linear" x1="71.5048" y1="29.3605" x2="97.345" y2="24.3303" gradientUnits="userSpaceOnUse">
<stop stop-color="white"/>
<stop offset="1" stop-color="white" stop-opacity="0"/>
</linearGradient>
<linearGradient id="paint1_linear" x1="61.7122" y1="10.9734" x2="96.2883" y2="31.6577" gradientUnits="userSpaceOnUse">
<stop stop-color="white"/>
<stop offset="1" stop-color="white" stop-opacity="0"/>
</linearGradient>
<linearGradient id="paint2_linear" x1="104.854" y1="43.2034" x2="109.257" y2="43.0101" gradientUnits="userSpaceOnUse">
<stop stop-color="white"/>
<stop offset="1" stop-color="white" stop-opacity="0"/>
</linearGradient>
<linearGradient id="paint3_linear" x1="-1.80767" y1="140.825" x2="22.7278" y2="169.323" gradientUnits="userSpaceOnUse">
<stop stop-color="white"/>
<stop offset="1" stop-color="white" stop-opacity="0"/>
</linearGradient>
<linearGradient id="paint4_linear" x1="-24.4359" y1="79.3953" x2="65.6857" y2="102.765" gradientUnits="userSpaceOnUse">
<stop stop-color="white"/>
<stop offset="1" stop-color="white" stop-opacity="0"/>
</linearGradient>
<linearGradient id="paint5_linear" x1="40.5294" y1="59.6487" x2="68.7485" y2="56.8" gradientUnits="userSpaceOnUse">
<stop stop-color="white"/>
<stop offset="1" stop-color="white" stop-opacity="0"/>
</linearGradient>
<linearGradient id="paint6_linear" x1="24.8018" y1="137.696" x2="40.7919" y2="154.577" gradientUnits="userSpaceOnUse">
<stop stop-color="white"/>
<stop offset="1" stop-color="white" stop-opacity="0"/>
</linearGradient>
<linearGradient id="paint7_linear" x1="46.7891" y1="46.5473" x2="92.6219" y2="40.7104" gradientUnits="userSpaceOnUse">
<stop stop-color="white"/>
<stop offset="1" stop-color="white" stop-opacity="0"/>
</linearGradient>
</defs>
</svg>
