<svg width="150" height="150" viewBox="0 0 150 150" fill="none" xmlns="http://www.w3.org/2000/svg">
<path d="M84.9947 17.1553C86.796 16.7951 89.648 13.4026 90.8489 11.7515C97.0032 12.3519 109.402 14.0031 109.762 15.8044C110.213 18.056 106.16 22.5592 104.809 24.3605C103.458 26.1617 98.5043 27.0624 96.703 27.5127C94.9017 27.963 94.9017 24.3605 93.5507 24.3605C92.1998 24.3605 91.7495 26.6121 90.8489 26.1617C89.9482 25.7114 82.7431 17.6056 84.9947 17.1553Z" fill="#AA6431"/>
<path d="M84.9947 17.1553C86.796 16.7951 89.648 13.4026 90.8489 11.7515C97.0032 12.3519 109.402 14.0031 109.762 15.8044C110.213 18.056 106.16 22.5592 104.809 24.3605C103.458 26.1617 98.5043 27.0624 96.703 27.5127C94.9017 27.963 94.9017 24.3605 93.5507 24.3605C92.1998 24.3605 91.7495 26.6121 90.8489 26.1617C89.9482 25.7114 82.7431 17.6056 84.9947 17.1553Z" fill="url(#paint0_linear)"/>
<path d="M100.306 15.3539C95.6222 14.6333 91.149 12.9521 89.4978 12.2016C91.149 7.8485 96.1626 -0.677576 103.007 0.0429373C111.564 0.943579 112.464 17.6055 110.213 17.6055C107.961 17.6055 106.16 16.2545 100.306 15.3539Z" fill="#212226"/>
<path d="M100.306 15.3539C95.6222 14.6333 91.149 12.9521 89.4978 12.2016C91.149 7.8485 96.1626 -0.677576 103.007 0.0429373C111.564 0.943579 112.464 17.6055 110.213 17.6055C107.961 17.6055 106.16 16.2545 100.306 15.3539Z" fill="url(#paint1_linear)"/>
<path d="M49.4193 133.788H39.5122L36.36 136.04L39.5122 141.894C42.2142 141.594 48.1584 140.993 50.3199 140.993C53.0219 140.993 51.6709 133.788 49.4193 133.788Z" fill="#212226"/>
<path d="M49.4193 133.788H39.5122L36.36 136.04L39.5122 141.894C42.2142 141.594 48.1584 140.993 50.3199 140.993C53.0219 140.993 51.6709 133.788 49.4193 133.788Z" fill="url(#paint2_linear)"/>
<path d="M21.0491 145.947C20.6888 143.786 22.4 137.841 23.3007 135.139C26.9032 135.59 34.7388 136.941 37.2606 138.742C40.4128 140.994 44.916 140.093 47.618 140.093C50.3199 140.093 49.8696 147.298 47.618 147.748C45.3664 148.199 21.4994 148.649 21.0491 145.947Z" fill="#212226"/>
<path d="M21.0491 145.947C20.6888 143.786 22.4 137.841 23.3007 135.139C26.9032 135.59 34.7388 136.941 37.2606 138.742C40.4128 140.994 44.916 140.093 47.618 140.093C50.3199 140.093 49.8696 147.298 47.618 147.748C45.3664 148.199 21.4994 148.649 21.0491 145.947Z" fill="url(#paint3_linear)"/>
<path d="M101.656 150L110.663 74.7964V72.9951H128.225V74.7964H115.616L106.16 150H101.656Z" fill="#ECF1F4"/>
<path d="M44.0154 69.3925C44.3757 67.231 46.267 64.5891 47.1677 63.5383C54.5229 66.6906 69.4135 73.9858 70.1341 77.9486C71.0347 82.9021 68.7831 85.1537 68.3328 86.955C67.8825 88.7563 62.4786 92.3589 61.578 95.0608C60.6773 97.7627 59.3264 102.716 59.3264 104.518C59.3264 106.319 44.0154 127.484 42.6645 129.285C41.3135 131.086 41.7638 136.49 39.9625 138.742C38.1613 140.994 21.9497 137.391 21.9497 135.59C21.9497 133.788 24.6516 126.583 26.9032 123.881C29.1548 121.179 39.0619 94.1602 39.9625 93.2595C40.8632 92.3589 43.5651 72.0944 44.0154 69.3925Z" fill="#31374B"/>
<path d="M44.0154 69.3925C44.3757 67.231 46.267 64.5891 47.1677 63.5383C54.5229 66.6906 69.4135 73.9858 70.1341 77.9486C71.0347 82.9021 68.7831 85.1537 68.3328 86.955C67.8825 88.7563 62.4786 92.3589 61.578 95.0608C60.6773 97.7627 59.3264 102.716 59.3264 104.518C59.3264 106.319 44.0154 127.484 42.6645 129.285C41.3135 131.086 41.7638 136.49 39.9625 138.742C38.1613 140.994 21.9497 137.391 21.9497 135.59C21.9497 133.788 24.6516 126.583 26.9032 123.881C29.1548 121.179 39.0619 94.1602 39.9625 93.2595C40.8632 92.3589 43.5651 72.0944 44.0154 69.3925Z" fill="url(#paint4_linear)"/>
<path d="M128.225 68.4919V72.9952H111.564V68.4919H128.225Z" fill="#D47500"/>
<path d="M77.3392 16.2548C80.0411 14.9038 82.743 15.8045 84.9946 16.2548L87.6965 20.3075L85.8952 30.6648C86.4957 36.0687 87.6965 47.3267 87.6965 49.128C87.6965 51.3796 75.9882 62.6376 74.1869 67.1408C72.3856 71.644 73.7366 72.995 74.1869 74.7963C74.6372 76.5976 71.9353 80.6505 68.7831 80.2001C65.6308 79.7498 44.0154 64.4389 45.3664 62.6376C46.7173 60.8363 57.0747 50.9293 58.876 49.128C60.6773 47.3267 63.8295 38.3203 65.1805 35.6184C66.5315 32.9164 69.2334 23.91 69.6837 22.5591C70.134 21.2081 74.6372 17.6057 77.3392 16.2548Z" fill="#8B99A6"/>
<path d="M77.3392 16.2548C80.0411 14.9038 82.743 15.8045 84.9946 16.2548L87.6965 20.3075L85.8952 30.6648C86.4957 36.0687 87.6965 47.3267 87.6965 49.128C87.6965 51.3796 75.9882 62.6376 74.1869 67.1408C72.3856 71.644 73.7366 72.995 74.1869 74.7963C74.6372 76.5976 71.9353 80.6505 68.7831 80.2001C65.6308 79.7498 44.0154 64.4389 45.3664 62.6376C46.7173 60.8363 57.0747 50.9293 58.876 49.128C60.6773 47.3267 63.8295 38.3203 65.1805 35.6184C66.5315 32.9164 69.2334 23.91 69.6837 22.5591C70.134 21.2081 74.6372 17.6057 77.3392 16.2548Z" fill="url(#paint5_linear)"/>
<path d="M78.2398 17.6055C79.3206 17.2452 82.5929 18.356 84.094 18.9565C85.8953 19.6071 86.7959 19.8571 89.4978 23.4597C92.1997 27.0623 92.1997 33.3668 93.1004 35.6184C94.001 37.87 98.5042 43.2738 100.306 45.9757C102.107 48.6777 111.113 63.9886 112.014 65.3396C112.915 66.6905 119.219 66.2402 121.02 68.0415C122.822 69.8428 121.471 72.995 121.02 75.2466C120.57 77.4982 112.915 79.2995 112.014 77.9485C111.113 76.5976 112.915 76.1473 112.014 74.346C111.113 72.5447 108.862 71.644 107.06 69.8428C105.259 68.0415 97.1533 61.2867 95.352 59.0351C93.5507 56.7835 90.3985 48.6777 89.4978 47.3267C88.5972 45.9757 88.5972 48.6777 86.7959 45.9757C84.9946 43.2738 80.9417 36.9693 79.1404 37.4196C77.3392 37.87 73.7366 36.0687 71.485 34.7177C69.2334 33.3668 69.6837 31.1152 69.6837 28.4132C69.6837 25.7113 71.485 23.4597 72.3857 22.5591L72.3857 22.559C73.2864 21.6583 76.8889 18.0558 78.2398 17.6055Z" fill="#AA6431"/>
<path d="M78.2398 17.6055C79.3206 17.2452 82.5929 18.356 84.094 18.9565C85.8953 19.6071 86.7959 19.8571 89.4978 23.4597C92.1997 27.0623 92.1997 33.3668 93.1004 35.6184C94.001 37.87 98.5042 43.2738 100.306 45.9757C102.107 48.6777 111.113 63.9886 112.014 65.3396C112.915 66.6905 119.219 66.2402 121.02 68.0415C122.822 69.8428 121.471 72.995 121.02 75.2466C120.57 77.4982 112.915 79.2995 112.014 77.9485C111.113 76.5976 112.915 76.1473 112.014 74.346C111.113 72.5447 108.862 71.644 107.06 69.8428C105.259 68.0415 97.1533 61.2867 95.352 59.0351C93.5507 56.7835 90.3985 48.6777 89.4978 47.3267C88.5972 45.9757 88.5972 48.6777 86.7959 45.9757C84.9946 43.2738 80.9417 36.9693 79.1404 37.4196C77.3392 37.87 73.7366 36.0687 71.485 34.7177C69.2334 33.3668 69.6837 31.1152 69.6837 28.4132C69.6837 25.7113 71.485 23.4597 72.3857 22.5591L72.3857 22.559C73.2864 21.6583 76.8889 18.0558 78.2398 17.6055Z" fill="url(#paint6_linear)"/>
<defs>
<linearGradient id="paint0_linear" x1="67.9442" y1="20.4545" x2="95.297" y2="15.8682" gradientUnits="userSpaceOnUse">
<stop stop-color="white"/>
<stop offset="1" stop-color="white" stop-opacity="0"/>
</linearGradient>
<linearGradient id="paint1_linear" x1="60.0293" y1="2.51506" x2="97.1996" y2="22.0453" gradientUnits="userSpaceOnUse">
<stop stop-color="white"/>
<stop offset="1" stop-color="white" stop-opacity="0"/>
</linearGradient>
<linearGradient id="paint2_linear" x1="15.4332" y1="134.946" x2="35.7639" y2="151.423" gradientUnits="userSpaceOnUse">
<stop stop-color="white"/>
<stop offset="1" stop-color="white" stop-opacity="0"/>
</linearGradient>
<linearGradient id="paint3_linear" x1="-17.5526" y1="136.989" x2="15.5712" y2="167.945" gradientUnits="userSpaceOnUse">
<stop stop-color="white"/>
<stop offset="1" stop-color="white" stop-opacity="0"/>
</linearGradient>
<linearGradient id="paint4_linear" x1="-43.5626" y1="74.3843" x2="54.6771" y2="100.994" gradientUnits="userSpaceOnUse">
<stop stop-color="white"/>
<stop offset="1" stop-color="white" stop-opacity="0"/>
</linearGradient>
<linearGradient id="paint5_linear" x1="27.5749" y1="55.9001" x2="59.9716" y2="52.7754" gradientUnits="userSpaceOnUse">
<stop stop-color="white"/>
<stop offset="1" stop-color="white" stop-opacity="0"/>
</linearGradient>
<linearGradient id="paint6_linear" x1="35.2204" y1="51.0681" x2="93.013" y2="45.8577" gradientUnits="userSpaceOnUse">
<stop stop-color="white"/>
<stop offset="1" stop-color="white" stop-opacity="0"/>
</linearGradient>
</defs>
</svg>
