<svg width="150" height="150" viewBox="0 0 150 150" fill="none" xmlns="http://www.w3.org/2000/svg">
<path d="M129.519 18.083C127.919 19.683 122.852 21.083 120.519 21.583C121.019 25.583 122.819 33.783 126.019 34.583C130.019 35.583 128.519 38.083 131.019 38.083C133.519 38.083 137.019 36.083 139.519 34.583C141.519 33.383 143.686 30.4164 144.519 29.083C140.186 24.7497 131.119 16.483 129.519 18.083Z" fill="#AA6431"/>
<path d="M129.519 18.083C127.919 19.683 122.852 21.083 120.519 21.583C121.019 25.583 122.819 33.783 126.019 34.583C130.019 35.583 128.519 38.083 131.019 38.083C133.519 38.083 137.019 36.083 139.519 34.583C141.519 33.383 143.686 30.4164 144.519 29.083C140.186 24.7497 131.119 16.483 129.519 18.083Z" fill="url(#paint0_linear)"/>
<path d="M145.019 30.5828L125.519 19.0828C128.519 14.7495 136.619 6.78283 145.019 9.58283C152.619 19.9828 148.186 27.9162 145.019 30.5828Z" fill="#212226"/>
<path d="M145.019 30.5828L125.519 19.0828C128.519 14.7495 136.619 6.78283 145.019 9.58283C152.619 19.9828 148.186 27.9162 145.019 30.5828Z" fill="url(#paint1_linear)"/>
<path d="M83.0191 24.083C84.5191 22.583 92.0191 20.583 93.5191 20.583L90.519 33.083C89.6857 33.4163 87.6191 33.883 86.0191 33.083C84.0191 32.083 81.5191 25.583 83.0191 24.083Z" fill="#AA6431"/>
<path d="M83.0191 24.083C84.5191 22.583 92.0191 20.583 93.5191 20.583L90.519 33.083C89.6857 33.4163 87.6191 33.883 86.0191 33.083C84.0191 32.083 81.5191 25.583 83.0191 24.083Z" fill="url(#paint2_linear)"/>
<path d="M1.019 133.083C1.419 130.683 5.18567 125.083 7.019 122.583L19.519 125.083C20.019 127.083 21.419 131.483 23.019 133.083C25.019 135.083 30.019 134.083 32.519 134.083C35.019 134.083 35.019 140.583 32.519 140.583C30.019 140.583 18.019 141.083 14.019 140.583C10.019 140.083 0.519 136.083 1.019 133.083Z" fill="#212226"/>
<path d="M1.019 133.083C1.419 130.683 5.18567 125.083 7.019 122.583L19.519 125.083C20.019 127.083 21.419 131.483 23.019 133.083C25.019 135.083 30.019 134.083 32.519 134.083C35.019 134.083 35.019 140.583 32.519 140.583C30.019 140.583 18.019 141.083 14.019 140.583C10.019 140.083 0.519 136.083 1.019 133.083Z" fill="url(#paint3_linear)"/>
<path d="M33.019 123.083H25.019L19.519 129.583H33.019C35.019 129.583 36.019 123.083 33.019 123.083Z" fill="#212226"/>
<path d="M33.019 123.083H25.019L19.519 129.583H33.019C35.019 129.583 36.019 123.083 33.019 123.083Z" fill="url(#paint4_linear)"/>
<path d="M99.519 126.583L106.519 55.083V53.083H126.519V55.083H111.019L104.519 126.583H99.519Z" fill="#ECF1F4"/>
<path d="M53.5191 57.5831C55.5191 53.0831 57.0191 48.5831 58.0191 49.0831C63.5191 54.7497 74.719 66.783 75.519 69.583C76.519 73.083 74.019 78.083 73.019 80.583C72.019 83.083 60.519 92.083 58.0191 94.083C55.5192 96.083 52.019 104.583 50.519 106.083C49.019 107.583 44.0191 109.583 39.019 112.583C34.019 115.583 27.519 124.083 24.019 127.583C20.519 131.083 19.5191 130.583 17.5191 130.083C15.5191 129.583 3.51912 122.583 5.51912 121.083C7.51912 119.583 11.0191 112.583 13.0191 109.583C15.0191 106.583 30.0191 89.083 32.5191 85.583C35.0191 82.083 40.5191 75.083 44.0191 71.083C47.5191 67.083 51.5191 62.0831 53.5191 57.5831Z" fill="#31374B"/>
<path d="M53.5191 57.5831C55.5191 53.0831 57.0191 48.5831 58.0191 49.0831C63.5191 54.7497 74.719 66.783 75.519 69.583C76.519 73.083 74.019 78.083 73.019 80.583C72.019 83.083 60.519 92.083 58.0191 94.083C55.5192 96.083 52.019 104.583 50.519 106.083C49.019 107.583 44.0191 109.583 39.019 112.583C34.019 115.583 27.519 124.083 24.019 127.583C20.519 131.083 19.5191 130.583 17.5191 130.083C15.5191 129.583 3.51912 122.583 5.51912 121.083C7.51912 119.583 11.0191 112.583 13.0191 109.583C15.0191 106.583 30.0191 89.083 32.5191 85.583C35.0191 82.083 40.5191 75.083 44.0191 71.083C47.5191 67.083 51.5191 62.0831 53.5191 57.5831Z" fill="url(#paint5_linear)"/>
<path d="M121.519 40.583C126.319 37.783 126.186 33.4163 125.519 31.583L103.519 22.583C98.019 25.083 86.919 30.083 86.519 30.083C86.019 30.083 77.5189 37.583 75.5189 38.583C73.5189 39.583 57.0189 47.583 57.5189 49.083C58.0189 50.583 66.0189 58.583 68.0189 60.083C70.0189 61.583 72.5189 75.083 75.5189 74.083C78.5189 73.083 78.5189 68.083 80.5189 65.583C82.1189 63.583 92.8523 59.4163 98.0189 57.583L110.019 49.083C111.852 47.4163 116.719 43.383 121.519 40.583Z" fill="#8B99A6"/>
<path d="M121.519 40.583C126.319 37.783 126.186 33.4163 125.519 31.583L103.519 22.583C98.019 25.083 86.919 30.083 86.519 30.083C86.019 30.083 77.5189 37.583 75.5189 38.583C73.5189 39.583 57.0189 47.583 57.5189 49.083C58.0189 50.583 66.0189 58.583 68.0189 60.083C70.0189 61.583 72.5189 75.083 75.5189 74.083C78.5189 73.083 78.5189 68.083 80.5189 65.583C82.1189 63.583 92.8523 59.4163 98.0189 57.583L110.019 49.083C111.852 47.4163 116.719 43.383 121.519 40.583Z" fill="url(#paint6_linear)"/>
<path d="M126.519 48.583V53.083H112.519V48.583H126.519Z" fill="#D47500"/>
<path d="M117.519 20.583C121.119 21.783 124.019 24.083 125.019 25.083C125.519 27.9163 126.219 33.883 125.019 35.083C123.519 36.583 121.519 37.083 116.519 36.083C111.519 35.083 100.019 27.583 99.519 28.583C99.019 29.583 103.019 33.583 103.519 35.083C104.019 36.583 110.019 45.083 110.519 46.083C111.019 47.083 117.519 47.083 119.019 47.583C120.519 48.083 120.519 54.583 119.019 55.583C117.519 56.583 116.019 56.583 113.519 57.083C111.019 57.583 108.519 55.583 106.019 54.583C103.519 53.583 104.519 52.083 104.519 50.083C104.519 48.083 102.019 49.083 98.519 46.083C95.019 43.083 89.5192 30.583 88.5192 28.583C87.5192 26.583 87.5192 26.083 89.5192 24.083C91.5192 22.083 102.019 16.083 104.519 16.083C107.019 16.083 113.019 19.083 117.519 20.583Z" fill="#AA6431"/>
<path d="M117.519 20.583C121.119 21.783 124.019 24.083 125.019 25.083C125.519 27.9163 126.219 33.883 125.019 35.083C123.519 36.583 121.519 37.083 116.519 36.083C111.519 35.083 100.019 27.583 99.519 28.583C99.019 29.583 103.019 33.583 103.519 35.083C104.019 36.583 110.019 45.083 110.519 46.083C111.019 47.083 117.519 47.083 119.019 47.583C120.519 48.083 120.519 54.583 119.019 55.583C117.519 56.583 116.019 56.583 113.519 57.083C111.019 57.583 108.519 55.583 106.019 54.583C103.519 53.583 104.519 52.083 104.519 50.083C104.519 48.083 102.019 49.083 98.519 46.083C95.019 43.083 89.5192 30.583 88.5192 28.583C87.5192 26.583 87.5192 26.083 89.5192 24.083C91.5192 22.083 102.019 16.083 104.519 16.083C107.019 16.083 113.019 19.083 117.519 20.583Z" fill="url(#paint7_linear)"/>
<defs>
<linearGradient id="paint0_linear" x1="104.716" y1="29.0083" x2="131.051" y2="25.724" gradientUnits="userSpaceOnUse">
<stop stop-color="white"/>
<stop offset="1" stop-color="white" stop-opacity="0"/>
</linearGradient>
<linearGradient id="paint1_linear" x1="93.4413" y1="12.0833" x2="135.844" y2="31.8659" gradientUnits="userSpaceOnUse">
<stop stop-color="white"/>
<stop offset="1" stop-color="white" stop-opacity="0"/>
</linearGradient>
<linearGradient id="paint2_linear" x1="75.3464" y1="27.7115" x2="87.4613" y2="26.6347" gradientUnits="userSpaceOnUse">
<stop stop-color="white"/>
<stop offset="1" stop-color="white" stop-opacity="0"/>
</linearGradient>
<linearGradient id="paint3_linear" x1="-44.2056" y1="125.186" x2="1.08874" y2="160.458" gradientUnits="userSpaceOnUse">
<stop stop-color="white"/>
<stop offset="1" stop-color="white" stop-opacity="0"/>
</linearGradient>
<linearGradient id="paint4_linear" x1="-1.31901" y1="124.012" x2="15.3453" y2="140.782" gradientUnits="userSpaceOnUse">
<stop stop-color="white"/>
<stop offset="1" stop-color="white" stop-opacity="0"/>
</linearGradient>
<linearGradient id="paint5_linear" x1="-90.0806" y1="60.6723" x2="45.1387" y2="110.411" gradientUnits="userSpaceOnUse">
<stop stop-color="white"/>
<stop offset="1" stop-color="white" stop-opacity="0"/>
</linearGradient>
<linearGradient id="paint6_linear" x1="28.9195" y1="54.7441" x2="79.7063" y2="44.8329" gradientUnits="userSpaceOnUse">
<stop stop-color="white"/>
<stop offset="1" stop-color="white" stop-opacity="0"/>
</linearGradient>
<linearGradient id="paint7_linear" x1="62.9598" y1="38.7099" x2="104.714" y2="34.6744" gradientUnits="userSpaceOnUse">
<stop stop-color="white"/>
<stop offset="1" stop-color="white" stop-opacity="0"/>
</linearGradient>
</defs>
</svg>
