<svg width="150" height="150" viewBox="0 0 150 150" fill="none" xmlns="http://www.w3.org/2000/svg">
<g clip-path="url(#clip0)">
<path d="M27.5337 85.4334C30.2854 85.7086 33.7251 88.7584 35.101 90.249C33.7251 91.9001 34.5277 96.6697 35.101 98.8481C34.7571 99.9947 33.6564 102.425 32.0053 102.976C29.9415 103.664 22.7181 101.944 22.0302 98.8481C21.3422 95.7524 14.1189 85.4334 12.399 84.4014C10.6792 83.3694 10.6792 81.3058 12.399 81.3058C14.1189 81.3058 19.2784 80.6178 20.9983 81.3058C22.7181 81.9937 24.094 85.0894 27.5337 85.4334Z" fill="#212226"/>
<path d="M27.5337 85.4334C30.2854 85.7086 33.7251 88.7584 35.101 90.249C33.7251 91.9001 34.5277 96.6697 35.101 98.8481C34.7571 99.9947 33.6564 102.425 32.0053 102.976C29.9415 103.664 22.7181 101.944 22.0302 98.8481C21.3422 95.7524 14.1189 85.4334 12.399 84.4014C10.6792 83.3694 10.6792 81.3058 12.399 81.3058C14.1189 81.3058 19.2784 80.6178 20.9983 81.3058C22.7181 81.9937 24.094 85.0894 27.5337 85.4334Z" fill="url(#paint0_linear)"/>
<path d="M23.75 86.8093C21.8238 85.9837 13.7749 83.4842 9.99119 82.3376C8.27134 82.6816 4.41887 83.5071 2.76782 84.0575C0.703999 84.7454 -1.01585 89.217 0.703999 90.9369C2.42385 92.6567 11.3671 93.6887 13.4309 95.4085C15.4947 97.1284 13.7749 97.8163 14.8068 98.8482C15.8387 99.8801 26.8457 100.568 28.2216 100.224C29.5975 99.8801 30.9734 92.6567 30.6294 90.9369C30.2854 89.217 26.1578 87.8412 23.75 86.8093Z" fill="#212226"/>
<path d="M23.75 86.8093C21.8238 85.9837 13.7749 83.4842 9.99119 82.3376C8.27134 82.6816 4.41887 83.5071 2.76782 84.0575C0.703999 84.7454 -1.01585 89.217 0.703999 90.9369C2.42385 92.6567 11.3671 93.6887 13.4309 95.4085C15.4947 97.1284 13.7749 97.8163 14.8068 98.8482C15.8387 99.8801 26.8457 100.568 28.2216 100.224C29.5975 99.8801 30.9734 92.6567 30.6294 90.9369C30.2854 89.217 26.1578 87.8412 23.75 86.8093Z" fill="url(#paint1_linear)"/>
<path d="M123.157 118.454C124.808 118.179 125.68 117.193 125.909 116.735C133.133 117.308 147.717 118.936 148.267 120.862C148.955 123.27 147.235 126.366 145.859 127.742C144.483 129.118 137.26 133.589 135.884 133.245C134.508 132.901 133.132 131.181 131.757 130.149C130.381 129.118 127.629 132.557 125.909 132.213C124.189 131.869 121.094 118.798 123.157 118.454Z" fill="#AA6431"/>
<path d="M123.157 118.454C124.808 118.179 125.68 117.193 125.909 116.735C133.133 117.308 147.717 118.936 148.267 120.862C148.955 123.27 147.235 126.366 145.859 127.742C144.483 129.118 137.26 133.589 135.884 133.245C134.508 132.901 133.132 131.181 131.757 130.149C130.381 129.118 127.629 132.557 125.909 132.213C124.189 131.869 121.094 118.798 123.157 118.454Z" fill="url(#paint2_linear)"/>
<path d="M134.164 122.926C132.238 122.926 126.712 118.34 124.189 116.047C125.221 115.015 131.069 106.072 134.164 103.664C136.641 101.738 140.47 101.715 142.076 101.944C151.363 110.199 150.675 121.55 148.955 122.926C147.235 124.302 136.572 122.926 134.164 122.926Z" fill="#212226"/>
<path d="M134.164 122.926C132.238 122.926 126.712 118.34 124.189 116.047C125.221 115.015 131.069 106.072 134.164 103.664C136.641 101.738 140.47 101.715 142.076 101.944C151.363 110.199 150.675 121.55 148.955 122.926C147.235 124.302 136.572 122.926 134.164 122.926Z" fill="url(#paint3_linear)"/>
<path d="M92.2001 100.568C91.6498 102.219 91.9708 109.74 92.2001 113.295C99.7674 112.378 114.558 110.337 113.182 109.511C111.462 108.479 102.519 100.568 100.111 99.536C97.7036 98.5041 92.8881 98.5041 92.2001 100.568Z" fill="#AA6431"/>
<path d="M92.2001 100.568C91.6498 102.219 91.9708 109.74 92.2001 113.295C99.7674 112.378 114.558 110.337 113.182 109.511C111.462 108.479 102.519 100.568 100.111 99.536C97.7036 98.5041 92.8881 98.5041 92.2001 100.568Z" fill="url(#paint4_linear)"/>
<path d="M77.4094 109.855C75.4832 108.754 72.4792 108.938 71.2179 109.167C69.5669 110.818 67.5489 129.117 66.7463 138.061C69.1541 137.831 74.3825 137.304 76.0335 137.029C78.0973 136.685 86.0086 138.405 88.7604 139.437C91.5122 140.468 102.175 141.156 104.927 141.156C107.679 141.156 116.278 140.468 119.374 139.437C122.469 138.405 125.909 132.901 126.597 131.525C127.285 130.149 126.597 122.238 125.909 119.83C125.221 117.422 124.533 116.047 122.469 113.983C120.406 111.919 115.246 109.855 113.526 109.855C111.806 109.855 105.959 110.887 99.7674 112.263C93.576 113.639 88.4164 113.639 85.3207 113.983C82.225 114.327 79.8172 111.231 77.4094 109.855Z" fill="#8B99A6"/>
<path d="M77.4094 109.855C75.4832 108.754 72.4792 108.938 71.2179 109.167C69.5669 110.818 67.5489 129.117 66.7463 138.061C69.1541 137.831 74.3825 137.304 76.0335 137.029C78.0973 136.685 86.0086 138.405 88.7604 139.437C91.5122 140.468 102.175 141.156 104.927 141.156C107.679 141.156 116.278 140.468 119.374 139.437C122.469 138.405 125.909 132.901 126.597 131.525C127.285 130.149 126.597 122.238 125.909 119.83C125.221 117.422 124.533 116.047 122.469 113.983C120.406 111.919 115.246 109.855 113.526 109.855C111.806 109.855 105.959 110.887 99.7674 112.263C93.576 113.639 88.4164 113.639 85.3207 113.983C82.225 114.327 79.8172 111.231 77.4094 109.855Z" fill="url(#paint5_linear)"/>
<path d="M91.8561 113.295C93.232 112.951 99.7674 111.231 102.519 112.263C105.271 113.295 113.526 117.423 116.622 118.11C119.718 118.798 123.157 121.206 124.189 122.926C125.221 124.646 125.565 129.461 124.877 131.525C124.189 133.589 122.125 137.373 120.062 138.061C117.998 138.749 114.214 140.469 111.806 139.781C109.399 139.093 106.647 135.653 105.271 133.589C104.245 132.05 104.135 129.993 104.218 128.978C103.876 132.379 103.43 139.194 104.239 140.812C105.271 142.876 113.87 143.908 116.622 143.908C119.374 143.908 119.718 144.596 120.75 146.66C121.782 148.724 111.806 150.444 107.679 150.1C103.551 149.756 100.799 148.38 99.4235 146.66C98.0476 144.94 87.7285 121.206 91.8561 113.295Z" fill="#AA6431"/>
<path d="M91.8561 113.295C93.232 112.951 99.7674 111.231 102.519 112.263C105.271 113.295 113.526 117.423 116.622 118.11C119.718 118.798 123.157 121.206 124.189 122.926C125.221 124.646 125.565 129.461 124.877 131.525C124.189 133.589 122.125 137.373 120.062 138.061C117.998 138.749 114.214 140.469 111.806 139.781C109.399 139.093 106.647 135.653 105.271 133.589C104.245 132.05 104.135 129.993 104.218 128.978C103.876 132.379 103.43 139.194 104.239 140.812C105.271 142.876 113.87 143.908 116.622 143.908C119.374 143.908 119.718 144.596 120.75 146.66C121.782 148.724 111.806 150.444 107.679 150.1C103.551 149.756 100.799 148.38 99.4235 146.66C98.0476 144.94 87.7285 121.206 91.8561 113.295Z" fill="url(#paint6_linear)"/>
<path d="M33.7251 98.5041C30.6293 97.8161 26.1577 97.8165 24.0939 100.224C22.0301 102.632 34.8945 125.402 39.5725 125.678C44.2504 125.953 53.9045 119.601 58.1468 116.391C59.9813 113.983 63.2376 109.236 61.5865 109.511C59.5227 109.855 53.6752 111.919 50.5795 113.295C47.4838 114.671 40.6044 117.079 39.5725 116.391C38.5405 115.703 36.8209 99.1921 33.7251 98.5041Z" fill="#31374B"/>
<path d="M33.7251 98.5041C30.6293 97.8161 26.1577 97.8165 24.0939 100.224C22.0301 102.632 34.8945 125.402 39.5725 125.678C44.2504 125.953 53.9045 119.601 58.1468 116.391C59.9813 113.983 63.2376 109.236 61.5865 109.511C59.5227 109.855 53.6752 111.919 50.5795 113.295C47.4838 114.671 40.6044 117.079 39.5725 116.391C38.5405 115.703 36.8209 99.1921 33.7251 98.5041Z" fill="url(#paint7_linear)"/>
<path d="M29.9415 99.1921C28.2905 99.4672 19.2784 98.7334 14.4629 98.1602C13.431 99.1921 12.399 99.88 11.0232 102.288C9.64729 104.696 13.431 119.486 14.4629 121.894C15.4948 124.302 20.3104 143.908 24.094 144.94C27.8777 145.972 71.2179 142.188 68.8101 137.373C66.8839 133.52 70.3006 116.964 72.2498 109.167C71.9058 108.709 70.1172 107.929 65.7144 108.479C60.2109 109.167 52.9875 112.951 50.2357 115.015C47.484 117.078 38.8847 122.582 37.5089 118.11C36.133 113.639 32.0054 98.8481 29.9415 99.1921Z" fill="#31374B"/>
<path d="M29.9415 99.1921C28.2905 99.4672 19.2784 98.7334 14.4629 98.1602C13.431 99.1921 12.399 99.88 11.0232 102.288C9.64729 104.696 13.431 119.486 14.4629 121.894C15.4948 124.302 20.3104 143.908 24.094 144.94C27.8777 145.972 71.2179 142.188 68.8101 137.373C66.8839 133.52 70.3006 116.964 72.2498 109.167C71.9058 108.709 70.1172 107.929 65.7144 108.479C60.2109 109.167 52.9875 112.951 50.2357 115.015C47.484 117.078 38.8847 122.582 37.5089 118.11C36.133 113.639 32.0054 98.8481 29.9415 99.1921Z" fill="url(#paint8_linear)"/>
</g>
<defs>
<linearGradient id="paint0_linear" x1="-21.3687" y1="84.1609" x2="21.7524" y2="104.029" gradientUnits="userSpaceOnUse">
<stop stop-color="white"/>
<stop offset="1" stop-color="white" stop-opacity="0"/>
</linearGradient>
<linearGradient id="paint1_linear" x1="-41.5354" y1="84.9056" x2="2.27261" y2="116.68" gradientUnits="userSpaceOnUse">
<stop stop-color="white"/>
<stop offset="1" stop-color="white" stop-opacity="0"/>
</linearGradient>
<linearGradient id="paint2_linear" x1="105.385" y1="125.839" x2="133.539" y2="121.199" gradientUnits="userSpaceOnUse">
<stop stop-color="white"/>
<stop offset="1" stop-color="white" stop-opacity="0"/>
</linearGradient>
<linearGradient id="paint3_linear" x1="89.2492" y1="104.944" x2="134.038" y2="127.59" gradientUnits="userSpaceOnUse">
<stop stop-color="white"/>
<stop offset="1" stop-color="white" stop-opacity="0"/>
</linearGradient>
<linearGradient id="paint4_linear" x1="77.8212" y1="106.81" x2="101.079" y2="103.195" gradientUnits="userSpaceOnUse">
<stop stop-color="white"/>
<stop offset="1" stop-color="white" stop-opacity="0"/>
</linearGradient>
<linearGradient id="paint5_linear" x1="41.5935" y1="129.058" x2="84.713" y2="117.191" gradientUnits="userSpaceOnUse">
<stop stop-color="white"/>
<stop offset="1" stop-color="white" stop-opacity="0"/>
</linearGradient>
<linearGradient id="paint6_linear" x1="68.2715" y1="132.982" x2="106.209" y2="129.402" gradientUnits="userSpaceOnUse">
<stop stop-color="white"/>
<stop offset="1" stop-color="white" stop-opacity="0"/>
</linearGradient>
<linearGradient id="paint7_linear" x1="-27.7965" y1="102.048" x2="33.9952" y2="138.389" gradientUnits="userSpaceOnUse">
<stop stop-color="white"/>
<stop offset="1" stop-color="white" stop-opacity="0"/>
</linearGradient>
<linearGradient id="paint8_linear" x1="-72.5598" y1="104.867" x2="29.767" y2="161.846" gradientUnits="userSpaceOnUse">
<stop stop-color="white"/>
<stop offset="1" stop-color="white" stop-opacity="0"/>
</linearGradient>
<clipPath id="clip0">
<rect width="150" height="150" fill="white"/>
</clipPath>
</defs>
</svg>
