<svg width="150" height="151" viewBox="0 0 150 151" fill="none" xmlns="http://www.w3.org/2000/svg">
<path d="M24.0879 86.312C27.1494 84.9205 31.1618 84.8045 32.7853 84.9205C34.8726 88.0515 36.96 98.8362 35.2206 100.924C33.829 102.593 23.972 105.562 19.2174 106.838C18.8695 106.142 17.7563 104.82 16.0863 105.098C13.9989 105.446 8.08477 108.577 5.64951 108.925C3.21425 109.273 -0.612587 105.446 0.0832015 103.359C0.77899 101.271 2.86636 99.1841 5.64951 96.0531C8.43267 92.922 12.9553 88.3994 16.0863 88.3994C19.2174 88.3994 20.2611 88.0515 24.0879 86.312Z" fill="#212226"/>
<path d="M24.0879 86.312C27.1494 84.9205 31.1618 84.8045 32.7853 84.9205C34.8726 88.0515 36.96 98.8362 35.2206 100.924C33.829 102.593 23.972 105.562 19.2174 106.838C18.8695 106.142 17.7563 104.82 16.0863 105.098C13.9989 105.446 8.08477 108.577 5.64951 108.925C3.21425 109.273 -0.612587 105.446 0.0832015 103.359C0.77899 101.271 2.86636 99.1841 5.64951 96.0531C8.43267 92.922 12.9553 88.3994 16.0863 88.3994C19.2174 88.3994 20.2611 88.0515 24.0879 86.312Z" fill="url(#paint0_linear)"/>
<path d="M81.8384 114.144C77.942 111.639 71.6335 97.0968 68.9663 90.1389C61.3126 88.7473 54.0068 114.144 50.5279 114.144C47.0489 114.144 43.9179 107.534 42.1784 104.055C40.439 100.576 38.3516 98.8363 36.6121 99.5321C34.8726 100.228 16.4342 105.794 17.13 107.534C17.8258 109.273 38.6995 137.8 42.1784 140.584C45.6574 143.367 49.4842 141.975 52.6153 141.627C55.7463 141.279 68.9663 130.843 71.7494 128.755C74.5326 126.668 86.7089 117.275 81.8384 114.144Z" fill="#31374B"/>
<path d="M81.8384 114.144C77.942 111.639 71.6335 97.0968 68.9663 90.1389C61.3126 88.7473 54.0068 114.144 50.5279 114.144C47.0489 114.144 43.9179 107.534 42.1784 104.055C40.439 100.576 38.3516 98.8363 36.6121 99.5321C34.8726 100.228 16.4342 105.794 17.13 107.534C17.8258 109.273 38.6995 137.8 42.1784 140.584C45.6574 143.367 49.4842 141.975 52.6153 141.627C55.7463 141.279 68.9663 130.843 71.7494 128.755C74.5326 126.668 86.7089 117.275 81.8384 114.144Z" fill="url(#paint1_linear)"/>
<path d="M120.455 67.1779C122.681 65.508 124.398 63.9309 124.977 63.3511C132.399 63.3511 147.451 63.8381 148.286 65.7863C149.33 68.2216 148.634 72.3963 147.243 74.1358C145.851 75.8753 140.285 80.7458 138.197 80.7458C136.11 80.7458 134.371 78.3105 131.935 77.6147C129.5 76.919 126.369 81.0937 124.977 80.7458C123.586 80.3979 117.672 69.2653 120.455 67.1779Z" fill="#AA6431"/>
<path d="M120.455 67.1779C122.681 65.508 124.398 63.9309 124.977 63.3511C132.399 63.3511 147.451 63.8381 148.286 65.7863C149.33 68.2216 148.634 72.3963 147.243 74.1358C145.851 75.8753 140.285 80.7458 138.197 80.7458C136.11 80.7458 134.371 78.3105 131.935 77.6147C129.5 76.919 126.369 81.0937 124.977 80.7458C123.586 80.3979 117.672 69.2653 120.455 67.1779Z" fill="url(#paint2_linear)"/>
<path d="M148.982 66.4821C146.755 68.4303 128.804 68.9173 123.238 64.0468C125.673 56.3931 130.822 47 138.893 47C148.982 52.2184 151.765 64.0468 148.982 66.4821Z" fill="#212226"/>
<path d="M148.982 66.4821C146.755 68.4303 128.804 68.9173 123.238 64.0468C125.673 56.3931 130.822 47 138.893 47C148.982 52.2184 151.765 64.0468 148.982 66.4821Z" fill="url(#paint3_linear)"/>
<path d="M125.673 107.534C125.673 104.472 124.05 98.6044 123.238 96.0532L118.715 108.925L123.238 130.843C126.717 131.307 134.231 132.165 136.458 131.886C139.241 131.538 136.806 127.712 134.718 127.712H124.282C124.745 126.552 125.673 123.954 125.673 122.841V107.534Z" fill="#AA6431"/>
<path d="M125.673 107.534C125.673 104.472 124.05 98.6044 123.238 96.0532L118.715 108.925L123.238 130.843C126.717 131.307 134.231 132.165 136.458 131.886C139.241 131.538 136.806 127.712 134.718 127.712H124.282C124.745 126.552 125.673 123.954 125.673 122.841V107.534Z" fill="url(#paint4_linear)"/>
<path d="M113.149 65.0906C116.767 64.2557 121.151 65.4385 122.89 66.1343C124.398 69.4973 127.273 76.8494 126.717 79.3542C126.16 81.8591 123.934 84.8046 122.89 85.9642L114.193 96.0531C111.873 97.2128 106.608 99.88 104.104 101.272C100.973 103.011 90.5358 110.665 89.4921 112.404C88.4484 114.144 86.709 114.492 81.1427 114.492C75.5764 114.492 67.2269 92.2263 68.9664 90.4868C70.7058 88.7474 82.1863 86.66 84.2737 85.9642C86.3611 85.2684 96.45 73.0921 98.8853 71.3526C101.321 69.6132 108.626 66.1343 113.149 65.0906Z" fill="#8B99A6"/>
<path d="M113.149 65.0906C116.767 64.2557 121.151 65.4385 122.89 66.1343C124.398 69.4973 127.273 76.8494 126.717 79.3542C126.16 81.8591 123.934 84.8046 122.89 85.9642L114.193 96.0531C111.873 97.2128 106.608 99.88 104.104 101.272C100.973 103.011 90.5358 110.665 89.4921 112.404C88.4484 114.144 86.709 114.492 81.1427 114.492C75.5764 114.492 67.2269 92.2263 68.9664 90.4868C70.7058 88.7474 82.1863 86.66 84.2737 85.9642C86.3611 85.2684 96.45 73.0921 98.8853 71.3526C101.321 69.6132 108.626 66.1343 113.149 65.0906Z" fill="url(#paint5_linear)"/>
<path d="M107.235 69.2651C110.018 67.0386 117.44 69.0332 120.803 70.3088C121.73 71.2365 123.725 73.7182 124.281 76.223C124.977 79.3541 123.934 91.1825 123.586 95.3572C123.238 99.5319 125.673 138.148 125.673 140.236C125.673 142.323 127.413 141.627 128.804 141.627C130.196 141.627 139.241 142.671 142.024 144.062C144.807 145.454 142.024 151.02 139.937 150.325C137.849 149.629 126.369 150.325 120.803 146.846C115.236 143.367 113.845 115.187 113.845 113.1C113.845 111.012 111.757 109.969 110.366 105.794C108.974 101.619 108.974 94.3135 108.974 92.2261C108.974 90.1388 101.321 86.3119 100.625 80.7456C99.929 75.1793 103.756 72.0482 107.235 69.2651Z" fill="#AA6431"/>
<path d="M107.235 69.2651C110.018 67.0386 117.44 69.0332 120.803 70.3088C121.73 71.2365 123.725 73.7182 124.281 76.223C124.977 79.3541 123.934 91.1825 123.586 95.3572C123.238 99.5319 125.673 138.148 125.673 140.236C125.673 142.323 127.413 141.627 128.804 141.627C130.196 141.627 139.241 142.671 142.024 144.062C144.807 145.454 142.024 151.02 139.937 150.325C137.849 149.629 126.369 150.325 120.803 146.846C115.236 143.367 113.845 115.187 113.845 113.1C113.845 111.012 111.757 109.969 110.366 105.794C108.974 101.619 108.974 94.3135 108.974 92.2261C108.974 90.1388 101.321 86.3119 100.625 80.7456C99.929 75.1793 103.756 72.0482 107.235 69.2651Z" fill="url(#paint6_linear)"/>
<defs>
<linearGradient id="paint0_linear" x1="-48.5553" y1="88.3237" x2="7.21776" y2="123.654" gradientUnits="userSpaceOnUse">
<stop stop-color="white"/>
<stop offset="1" stop-color="white" stop-opacity="0"/>
</linearGradient>
<linearGradient id="paint1_linear" x1="-72.0507" y1="97.5408" x2="39.4164" y2="157.307" gradientUnits="userSpaceOnUse">
<stop stop-color="white"/>
<stop offset="1" stop-color="white" stop-opacity="0"/>
</linearGradient>
<linearGradient id="paint2_linear" x1="100.578" y1="72.9437" x2="132.007" y2="67.4365" gradientUnits="userSpaceOnUse">
<stop stop-color="white"/>
<stop offset="1" stop-color="white" stop-opacity="0"/>
</linearGradient>
<linearGradient id="paint3_linear" x1="87.0098" y1="49.9822" x2="131.977" y2="74.4788" gradientUnits="userSpaceOnUse">
<stop stop-color="white"/>
<stop offset="1" stop-color="white" stop-opacity="0"/>
</linearGradient>
<linearGradient id="paint4_linear" x1="106.209" y1="115.821" x2="127.309" y2="114.648" gradientUnits="userSpaceOnUse">
<stop stop-color="white"/>
<stop offset="1" stop-color="white" stop-opacity="0"/>
</linearGradient>
<linearGradient id="paint5_linear" x1="44.4499" y1="95.8012" x2="87.9439" y2="88.3211" gradientUnits="userSpaceOnUse">
<stop stop-color="white"/>
<stop offset="1" stop-color="white" stop-opacity="0"/>
</linearGradient>
<linearGradient id="paint6_linear" x1="72.4569" y1="113.496" x2="119.846" y2="110.913" gradientUnits="userSpaceOnUse">
<stop stop-color="white"/>
<stop offset="1" stop-color="white" stop-opacity="0"/>
</linearGradient>
</defs>
</svg>
