<svg width="150" height="150" viewBox="0 0 150 150" fill="none" xmlns="http://www.w3.org/2000/svg">
<g clip-path="url(#clip0)">
<circle cx="83.7763" cy="128.808" r="10.9239" fill="#F18701"/>
<circle cx="83.7763" cy="128.808" r="10.9239" fill="url(#paint0_linear)"/>
<path d="M0.240967 123.667C0.755031 123.153 4.09644 122.382 5.70289 122.061L6.02418 121.74C9.02289 124.846 15.1488 131.314 15.6629 132.342C16.3055 133.627 18.5545 136.519 19.5184 137.162C20.4822 137.804 20.8035 138.768 19.5184 140.053C18.2332 141.338 13.7351 142.302 11.8074 141.66C9.87966 141.017 4.09644 132.985 2.16871 130.415C0.240967 127.844 -0.401612 124.31 0.240967 123.667Z" fill="#212226"/>
<path d="M0.240967 123.667C0.755031 123.153 4.09644 122.382 5.70289 122.061L6.02418 121.74C9.02289 124.846 15.1488 131.314 15.6629 132.342C16.3055 133.627 18.5545 136.519 19.5184 137.162C20.4822 137.804 20.8035 138.768 19.5184 140.053C18.2332 141.338 13.7351 142.302 11.8074 141.66C9.87966 141.017 4.09644 132.985 2.16871 130.415C0.240967 127.844 -0.401612 124.31 0.240967 123.667Z" fill="url(#paint1_linear)"/>
<path d="M22.0886 133.949C21.3175 133.178 20.0538 131.057 19.5183 130.094L14.0564 128.166L12.7712 131.7C14.1635 133.199 17.2693 136.327 18.5545 136.841C20.1609 137.483 23.0525 134.913 22.0886 133.949Z" fill="#212226"/>
<path d="M22.0886 133.949C21.3175 133.178 20.0538 131.057 19.5183 130.094L14.0564 128.166L12.7712 131.7C14.1635 133.199 17.2693 136.327 18.5545 136.841C20.1609 137.483 23.0525 134.913 22.0886 133.949Z" fill="url(#paint2_linear)"/>
<path d="M5.70302 123.989C4.16083 122.189 4.20367 119.384 4.41786 118.205C5.06054 116.599 11.4861 115.314 15.9842 113.708C20.4823 112.101 49.077 107.603 51.9686 106.96C54.8603 106.318 72.5312 96.6791 76.3867 95.3939C80.2421 94.1087 85.0615 95.3939 85.3828 96.6791C85.7041 97.9642 82.8125 120.133 80.8847 120.455C78.957 120.776 51.0048 125.916 48.1132 126.238C45.2216 126.559 33.0126 128.487 31.0848 129.129C29.1571 129.772 21.4461 131.7 19.5184 132.342C17.5906 132.985 15.6629 132.985 14.3777 132.342C13.0926 131.7 7.63076 126.238 5.70302 123.989Z" fill="#31374B"/>
<path d="M5.70302 123.989C4.16083 122.189 4.20367 119.384 4.41786 118.205C5.06054 116.599 11.4861 115.314 15.9842 113.708C20.4823 112.101 49.077 107.603 51.9686 106.96C54.8603 106.318 72.5312 96.6791 76.3867 95.3939C80.2421 94.1087 85.0615 95.3939 85.3828 96.6791C85.7041 97.9642 82.8125 120.133 80.8847 120.455C78.957 120.776 51.0048 125.916 48.1132 126.238C45.2216 126.559 33.0126 128.487 31.0848 129.129C29.1571 129.772 21.4461 131.7 19.5184 132.342C17.5906 132.985 15.6629 132.985 14.3777 132.342C13.0926 131.7 7.63076 126.238 5.70302 123.989Z" fill="url(#paint3_linear)"/>
<path d="M93.0937 99.2497C91.8085 98.2216 86.5608 97.1078 84.0975 96.6794C81.6343 104.497 77.2862 120.134 79.5995 120.134C82.4911 120.134 92.1298 120.776 94.7001 121.74C97.2704 122.704 102.09 123.346 104.018 123.346C105.945 123.346 121.046 118.527 122.01 118.206C122.974 117.885 130.685 110.174 130.685 107.603C130.685 105.033 129.721 102.141 127.472 99.8923C125.223 97.6433 118.154 96.0368 114.299 96.6794C110.443 97.322 98.2343 101.499 96.6278 101.499C95.0214 101.499 94.7001 100.535 93.0937 99.2497Z" fill="#8B99A6"/>
<path d="M93.0937 99.2497C91.8085 98.2216 86.5608 97.1078 84.0975 96.6794C81.6343 104.497 77.2862 120.134 79.5995 120.134C82.4911 120.134 92.1298 120.776 94.7001 121.74C97.2704 122.704 102.09 123.346 104.018 123.346C105.945 123.346 121.046 118.527 122.01 118.206C122.974 117.885 130.685 110.174 130.685 107.603C130.685 105.033 129.721 102.141 127.472 99.8923C125.223 97.6433 118.154 96.0368 114.299 96.6794C110.443 97.322 98.2343 101.499 96.6278 101.499C95.0214 101.499 94.7001 100.535 93.0937 99.2497Z" fill="url(#paint4_linear)"/>
<path d="M129.721 101.178C128.95 101.692 127.472 101.392 126.829 101.178V101.82C126.401 106.104 125.801 114.543 126.829 114.029C128.114 113.386 131.649 113.708 133.576 113.386C135.504 113.065 137.432 116.278 139.038 116.278C140.645 116.278 143.858 114.029 145.143 112.423C146.171 111.137 146.856 107.389 147.07 105.676C141.608 103.962 130.492 100.663 129.721 101.178Z" fill="#AA6431"/>
<path d="M129.721 101.178C128.95 101.692 127.472 101.392 126.829 101.178V101.82C126.401 106.104 125.801 114.543 126.829 114.029C128.114 113.386 131.649 113.708 133.576 113.386C135.504 113.065 137.432 116.278 139.038 116.278C140.645 116.278 143.858 114.029 145.143 112.423C146.171 111.137 146.856 107.389 147.07 105.676C141.608 103.962 130.492 100.663 129.721 101.178Z" fill="url(#paint5_linear)"/>
<path d="M139.681 106.318C138.138 106.061 131.756 102.355 128.757 100.535C134.926 89.2253 141.18 88.3257 143.536 89.2896C149.962 92.5025 150.605 104.711 149.641 105.675C148.677 106.639 141.608 106.639 139.681 106.318Z" fill="#212226"/>
<path d="M139.681 106.318C138.138 106.061 131.756 102.355 128.757 100.535C134.926 89.2253 141.18 88.3257 143.536 89.2896C149.962 92.5025 150.605 104.711 149.641 105.675C148.677 106.639 141.608 106.639 139.681 106.318Z" fill="url(#paint6_linear)"/>
<path d="M122.652 130.736C120.403 130.736 113.656 131.379 112.371 131.379L111.086 128.166C111.514 127.309 112.885 125.788 114.941 126.559C117.512 127.523 120.725 126.881 123.295 128.166C125.865 129.451 124.901 130.736 122.652 130.736Z" fill="#AA6431"/>
<path d="M122.652 130.736C120.403 130.736 113.656 131.379 112.371 131.379L111.086 128.166C111.514 127.309 112.885 125.788 114.941 126.559C117.512 127.523 120.725 126.881 123.295 128.166C125.865 129.451 124.901 130.736 122.652 130.736Z" fill="url(#paint7_linear)"/>
<path d="M102.732 123.668C102.732 122.125 108.301 114.029 111.086 110.173L110.443 108.567C110.443 106.96 112.371 102.784 114.299 101.177C116.227 99.5708 121.689 100.535 124.259 101.177C126.829 101.82 128.757 105.033 129.078 107.282C129.399 109.531 129.078 113.386 128.114 115.635C127.15 117.884 119.439 119.812 116.869 121.74C114.299 123.668 114.299 126.238 113.335 128.808C112.371 131.378 117.512 141.981 117.833 142.945C118.154 143.909 121.689 142.624 123.295 142.945C124.901 143.266 129.721 145.194 132.934 147.122C136.147 149.049 131.327 150.656 129.721 150.335C128.114 150.013 121.046 149.692 119.439 149.371C117.833 149.049 118.476 150.656 113.335 147.122C108.194 143.587 102.732 125.595 102.732 123.668Z" fill="#AA6431"/>
<path d="M102.732 123.668C102.732 122.125 108.301 114.029 111.086 110.173L110.443 108.567C110.443 106.96 112.371 102.784 114.299 101.177C116.227 99.5708 121.689 100.535 124.259 101.177C126.829 101.82 128.757 105.033 129.078 107.282C129.399 109.531 129.078 113.386 128.114 115.635C127.15 117.884 119.439 119.812 116.869 121.74C114.299 123.668 114.299 126.238 113.335 128.808C112.371 131.378 117.512 141.981 117.833 142.945C118.154 143.909 121.689 142.624 123.295 142.945C124.901 143.266 129.721 145.194 132.934 147.122C136.147 149.049 131.327 150.656 129.721 150.335C128.114 150.013 121.046 149.692 119.439 149.371C117.833 149.049 118.476 150.656 113.335 147.122C108.194 143.587 102.732 125.595 102.732 123.668Z" fill="url(#paint8_linear)"/>
</g>
<defs>
<linearGradient id="paint0_linear" x1="64.7216" y1="100.001" x2="88.9747" y2="137.568" gradientUnits="userSpaceOnUse">
<stop stop-color="white"/>
<stop offset="1" stop-color="white" stop-opacity="0"/>
</linearGradient>
<linearGradient id="paint1_linear" x1="-27.5695" y1="124.615" x2="9.8803" y2="140.719" gradientUnits="userSpaceOnUse">
<stop stop-color="white"/>
<stop offset="1" stop-color="white" stop-opacity="0"/>
</linearGradient>
<linearGradient id="paint2_linear" x1="-0.102029" y1="129.42" x2="16.9943" y2="137.291" gradientUnits="userSpaceOnUse">
<stop stop-color="white"/>
<stop offset="1" stop-color="white" stop-opacity="0"/>
</linearGradient>
<linearGradient id="paint3_linear" x1="-105.474" y1="100.285" x2="-8.59901" y2="188.225" gradientUnits="userSpaceOnUse">
<stop stop-color="white"/>
<stop offset="1" stop-color="white" stop-opacity="0"/>
</linearGradient>
<linearGradient id="paint4_linear" x1="57.3005" y1="113.262" x2="94.2311" y2="102.77" gradientUnits="userSpaceOnUse">
<stop stop-color="white"/>
<stop offset="1" stop-color="white" stop-opacity="0"/>
</linearGradient>
<linearGradient id="paint5_linear" x1="112.56" y1="109.471" x2="135.276" y2="106.196" gradientUnits="userSpaceOnUse">
<stop stop-color="white"/>
<stop offset="1" stop-color="white" stop-opacity="0"/>
</linearGradient>
<linearGradient id="paint6_linear" x1="100" y1="91.5014" x2="136.568" y2="110.353" gradientUnits="userSpaceOnUse">
<stop stop-color="white"/>
<stop offset="1" stop-color="white" stop-opacity="0"/>
</linearGradient>
<linearGradient id="paint7_linear" x1="102.036" y1="129.119" x2="116.188" y2="125.06" gradientUnits="userSpaceOnUse">
<stop stop-color="white"/>
<stop offset="1" stop-color="white" stop-opacity="0"/>
</linearGradient>
<linearGradient id="paint8_linear" x1="82.1345" y1="127.882" x2="116.844" y2="125.605" gradientUnits="userSpaceOnUse">
<stop stop-color="white"/>
<stop offset="1" stop-color="white" stop-opacity="0"/>
</linearGradient>
<clipPath id="clip0">
<rect width="150" height="150" fill="white"/>
</clipPath>
</defs>
</svg>
