<svg width="150" height="150" viewBox="0 0 150 150" fill="none" xmlns="http://www.w3.org/2000/svg">
<path d="M18.9243 136.285C17.2661 135.622 14.6131 132.637 13.2866 131.974L10.3019 126.668H15.9396C18.1505 127 22.8375 127.862 23.8988 128.658C25.2253 129.653 26.5518 133.964 26.8834 136.285C27.2151 138.607 20.5824 136.949 18.9243 136.285Z" fill="#212226"/>
<path d="M18.9243 136.285C17.2661 135.622 14.6131 132.637 13.2866 131.974L10.3019 126.668H15.9396C18.1505 127 22.8375 127.862 23.8988 128.658C25.2253 129.653 26.5518 133.964 26.8834 136.285C27.2151 138.607 20.5824 136.949 18.9243 136.285Z" fill="url(#paint0_linear)"/>
<path d="M0.684558 125.341C1.48047 123.484 4.55359 123.02 5.99065 123.02C5.99065 122.799 6.45495 122.489 8.31215 123.02C10.6336 123.02 14.6131 133.301 18.5927 134.959C22.5723 136.617 23.5672 139.27 21.2458 140.928C18.9243 142.586 10.3019 141.923 8.31215 139.27C6.32236 136.617 5.99065 134.959 2.67434 131.642C-0.641966 128.326 -0.310335 127.663 0.684558 125.341Z" fill="#212226"/>
<path d="M0.684558 125.341C1.48047 123.484 4.55359 123.02 5.99065 123.02C5.99065 122.799 6.45495 122.489 8.31215 123.02C10.6336 123.02 14.6131 133.301 18.5927 134.959C22.5723 136.617 23.5672 139.27 21.2458 140.928C18.9243 142.586 10.3019 141.923 8.31215 139.27C6.32236 136.617 5.99065 134.959 2.67434 131.642C-0.641966 128.326 -0.310335 127.663 0.684558 125.341Z" fill="url(#paint1_linear)"/>
<circle cx="83.2608" cy="127.994" r="11.2755" fill="#F18701"/>
<circle cx="83.2608" cy="127.994" r="11.2755" fill="url(#paint2_linear)"/>
<path d="M92.2148 79.2448C88.2352 80.0408 80.8288 81.1241 77.623 81.5663L78.2863 100.469C79.6128 102.127 82.7965 105.444 84.9189 105.444C87.572 105.444 91.2199 103.122 93.5413 102.791C95.8627 102.459 103.159 101.796 107.801 101.796C112.444 101.796 114.102 102.127 115.761 101.796C117.419 101.464 126.373 94.8315 127.036 92.8417C127.699 90.852 129.026 84.2193 128.694 81.5663C128.363 78.9132 124.051 75.9285 118.745 73.9388C113.439 71.949 97.1893 78.25 92.2148 79.2448Z" fill="#8B99A6"/>
<path d="M92.2148 79.2448C88.2352 80.0408 80.8288 81.1241 77.623 81.5663L78.2863 100.469C79.6128 102.127 82.7965 105.444 84.9189 105.444C87.572 105.444 91.2199 103.122 93.5413 102.791C95.8627 102.459 103.159 101.796 107.801 101.796C112.444 101.796 114.102 102.127 115.761 101.796C117.419 101.464 126.373 94.8315 127.036 92.8417C127.699 90.852 129.026 84.2193 128.694 81.5663C128.363 78.9132 124.051 75.9285 118.745 73.9388C113.439 71.949 97.1893 78.25 92.2148 79.2448Z" fill="url(#paint3_linear)"/>
<path d="M110.786 109.755C111.317 108.428 110.565 102.791 110.123 100.138L116.092 98.4795L119.74 127.663H126.704C128.363 127.663 129.357 131.643 127.368 131.643C125.378 131.643 115.761 131.974 114.434 131.643C113.108 131.311 110.786 129.984 110.123 127.663C109.46 125.342 110.123 111.413 110.786 109.755Z" fill="#AA6431"/>
<path d="M110.786 109.755C111.317 108.428 110.565 102.791 110.123 100.138L116.092 98.4795L119.74 127.663H126.704C128.363 127.663 129.357 131.643 127.368 131.643C125.378 131.643 115.761 131.974 114.434 131.643C113.108 131.311 110.786 129.984 110.123 127.663C109.46 125.342 110.123 111.413 110.786 109.755Z" fill="url(#paint4_linear)"/>
<path d="M13.2866 131.642C12.2254 131.112 7.09614 123.683 4.66418 120.035C5.99071 117.714 10.6335 115.724 13.2866 114.398C15.9396 113.071 28.5416 106.438 32.1896 105.112C35.8375 103.785 59.3833 92.8416 62.0363 92.1783C64.6894 91.515 67.0108 84.8823 68.669 82.8926C70.3271 80.9028 79.6128 77.9181 78.6179 81.566C77.623 85.214 83.5923 101.464 83.2607 104.117C82.9291 106.77 75.3016 110.75 72.9802 112.408C70.6587 114.066 58.72 114.729 56.067 116.387C53.4139 118.045 40.812 120.035 37.8273 121.03C34.8426 122.025 24.2304 129.321 22.2406 130.316C20.2508 131.311 14.6131 132.306 13.2866 131.642Z" fill="#31374B"/>
<path d="M13.2866 131.642C12.2254 131.112 7.09614 123.683 4.66418 120.035C5.99071 117.714 10.6335 115.724 13.2866 114.398C15.9396 113.071 28.5416 106.438 32.1896 105.112C35.8375 103.785 59.3833 92.8416 62.0363 92.1783C64.6894 91.515 67.0108 84.8823 68.669 82.8926C70.3271 80.9028 79.6128 77.9181 78.6179 81.566C77.623 85.214 83.5923 101.464 83.2607 104.117C82.9291 106.77 75.3016 110.75 72.9802 112.408C70.6587 114.066 58.72 114.729 56.067 116.387C53.4139 118.045 40.812 120.035 37.8273 121.03C34.8426 122.025 24.2304 129.321 22.2406 130.316C20.2508 131.311 14.6131 132.306 13.2866 131.642Z" fill="url(#paint5_linear)"/>
<path d="M129.357 75.9285L124.051 77.5866C124.936 81.4556 126.97 89.26 128.031 89.5253C129.357 89.857 134 87.5356 135.658 87.5356C137.317 87.5356 137.648 90.8519 139.638 90.5202C141.628 90.1886 145.276 87.2039 146.271 85.5458C147.067 84.2192 147.266 80.7924 147.266 79.2448L129.357 75.9285Z" fill="#AA6431"/>
<path d="M129.357 75.9285L124.051 77.5866C124.936 81.4556 126.97 89.26 128.031 89.5253C129.357 89.857 134 87.5356 135.658 87.5356C137.317 87.5356 137.648 90.8519 139.638 90.5202C141.628 90.1886 145.276 87.2039 146.271 85.5458C147.067 84.2192 147.266 80.7924 147.266 79.2448L129.357 75.9285Z" fill="url(#paint6_linear)"/>
<path d="M149.919 78.5815C149.653 79.3775 147.597 80.0186 146.602 80.2397C143.286 81.8979 127.368 77.255 127.368 76.2601C127.368 75.2652 130.684 69.2959 132.011 67.6377C133.337 65.9796 138.643 62 140.633 62C142.623 62 145.607 64.9847 147.597 67.6377C149.587 70.2908 150.25 77.5867 149.919 78.5815Z" fill="#212226"/>
<path d="M149.919 78.5815C149.653 79.3775 147.597 80.0186 146.602 80.2397C143.286 81.8979 127.368 77.255 127.368 76.2601C127.368 75.2652 130.684 69.2959 132.011 67.6377C133.337 65.9796 138.643 62 140.633 62C142.623 62 145.607 64.9847 147.597 67.6377C149.587 70.2908 150.25 77.5867 149.919 78.5815Z" fill="url(#paint7_linear)"/>
<path d="M113.108 77.5866C111.516 78.3825 109.791 83.0032 109.128 85.2141C108.465 87.1874 110.454 91.5152 111.449 92.1785C112.444 92.8418 115.761 90.5203 114.766 92.1785C113.771 93.8367 114.102 110.75 114.102 113.071V130.979C114.102 133.301 119.409 148.556 120.735 149.551C122.062 150.546 127.699 149.551 129.026 149.551C130.352 149.551 137.648 149.882 138.311 148.556C138.975 147.229 135.99 145.239 134 144.576C132.011 143.913 122.062 144.576 122.062 143.25C122.062 141.923 124.715 123.02 124.715 121.362C124.715 119.704 123.72 105.444 123.72 103.454C123.72 101.464 125.046 100.469 125.71 98.4795C126.373 96.4897 126.041 88.1989 127.036 85.2141C128.031 82.2293 124.383 78.9131 122.393 77.5866C120.403 76.2601 115.097 76.5917 113.108 77.5866Z" fill="#AA6431"/>
<path d="M113.108 77.5866C111.516 78.3825 109.791 83.0032 109.128 85.2141C108.465 87.1874 110.454 91.5152 111.449 92.1785C112.444 92.8418 115.761 90.5203 114.766 92.1785C113.771 93.8367 114.102 110.75 114.102 113.071V130.979C114.102 133.301 119.409 148.556 120.735 149.551C122.062 150.546 127.699 149.551 129.026 149.551C130.352 149.551 137.648 149.882 138.311 148.556C138.975 147.229 135.99 145.239 134 144.576C132.011 143.913 122.062 144.576 122.062 143.25C122.062 141.923 124.715 123.02 124.715 121.362C124.715 119.704 123.72 105.444 123.72 103.454C123.72 101.464 125.046 100.469 125.71 98.4795C126.373 96.4897 126.041 88.1989 127.036 85.2141C128.031 82.2293 124.383 78.9131 122.393 77.5866C120.403 76.2601 115.097 76.5917 113.108 77.5866Z" fill="url(#paint8_linear)"/>
<defs>
<linearGradient id="paint0_linear" x1="-12.1608" y1="128.213" x2="13.207" y2="144.755" gradientUnits="userSpaceOnUse">
<stop stop-color="white"/>
<stop offset="1" stop-color="white" stop-opacity="0"/>
</linearGradient>
<linearGradient id="paint1_linear" x1="-30.43" y1="125.456" x2="8.75429" y2="145.048" gradientUnits="userSpaceOnUse">
<stop stop-color="white"/>
<stop offset="1" stop-color="white" stop-opacity="0"/>
</linearGradient>
<linearGradient id="paint2_linear" x1="63.5928" y1="98.2598" x2="88.6266" y2="137.036" gradientUnits="userSpaceOnUse">
<stop stop-color="white"/>
<stop offset="1" stop-color="white" stop-opacity="0"/>
</linearGradient>
<linearGradient id="paint3_linear" x1="56.2397" y1="93.4478" x2="93.5938" y2="84.6336" gradientUnits="userSpaceOnUse">
<stop stop-color="white"/>
<stop offset="1" stop-color="white" stop-opacity="0"/>
</linearGradient>
<linearGradient id="paint4_linear" x1="97.5856" y1="116.827" x2="118.267" y2="115.614" gradientUnits="userSpaceOnUse">
<stop stop-color="white"/>
<stop offset="1" stop-color="white" stop-opacity="0"/>
</linearGradient>
<linearGradient id="paint5_linear" x1="-101.75" y1="87.2757" x2="19.514" y2="165.157" gradientUnits="userSpaceOnUse">
<stop stop-color="white"/>
<stop offset="1" stop-color="white" stop-opacity="0"/>
</linearGradient>
<linearGradient id="paint6_linear" x1="108.766" y1="83.9787" x2="133.935" y2="79.7819" gradientUnits="userSpaceOnUse">
<stop stop-color="white"/>
<stop offset="1" stop-color="white" stop-opacity="0"/>
</linearGradient>
<linearGradient id="paint7_linear" x1="96.7303" y1="64.6563" x2="135.636" y2="84.7791" gradientUnits="userSpaceOnUse">
<stop stop-color="white"/>
<stop offset="1" stop-color="white" stop-opacity="0"/>
</linearGradient>
<linearGradient id="paint8_linear" x1="89.6298" y1="117.076" x2="122.345" y2="115.698" gradientUnits="userSpaceOnUse">
<stop stop-color="white"/>
<stop offset="1" stop-color="white" stop-opacity="0"/>
</linearGradient>
</defs>
</svg>
