<svg width="150" height="150" viewBox="0 0 150 150" fill="none" xmlns="http://www.w3.org/2000/svg">
<path d="M111.849 137.891C113.818 135.429 118.413 133.994 120.464 133.583L127.232 130.507C134.822 132.968 150 138.629 150 141.583C150 145.275 139.539 147.736 137.078 147.736C134.616 147.736 130.309 141.583 130.309 145.89C130.309 150.198 125.386 150.813 124.771 147.736C124.156 144.659 120.464 142.198 117.387 141.583C114.925 141.09 112.669 144.249 111.849 145.89C111.029 144.249 109.88 140.352 111.849 137.891Z" fill="#AA6431"/>
<path d="M111.849 137.891C113.818 135.429 118.413 133.994 120.464 133.583L127.232 130.507C134.822 132.968 150 138.629 150 141.583C150 145.275 139.539 147.736 137.078 147.736C134.616 147.736 130.309 141.583 130.309 145.89C130.309 150.198 125.386 150.813 124.771 147.736C124.156 144.659 120.464 142.198 117.387 141.583C114.925 141.09 112.669 144.249 111.849 145.89C111.029 144.249 109.88 140.352 111.849 137.891Z" fill="url(#paint0_linear)"/>
<circle cx="76.3025" cy="139.121" r="8.6148" fill="#F18701"/>
<circle cx="76.3025" cy="139.121" r="8.6148" fill="url(#paint1_linear)"/>
<path d="M1.0278 139.737C2.99689 136.783 16.2062 131.532 22.5648 129.276H31.7947C33.6407 130.096 38.0712 132.599 41.0249 136.045C43.9785 139.491 42.2555 143.634 41.0249 145.275C38.9737 143.429 34.2561 139.737 31.7947 139.737C28.718 139.737 27.4873 139.737 25.0259 145.275C22.5646 150.813 15.1807 146.505 7.79657 145.275C0.412453 144.044 -1.43358 143.429 1.0278 139.737Z" fill="#AA6431"/>
<path d="M1.0278 139.737C2.99689 136.783 16.2062 131.532 22.5648 129.276H31.7947C33.6407 130.096 38.0712 132.599 41.0249 136.045C43.9785 139.491 42.2555 143.634 41.0249 145.275C38.9737 143.429 34.2561 139.737 31.7947 139.737C28.718 139.737 27.4873 139.737 25.0259 145.275C22.5646 150.813 15.1807 146.505 7.79657 145.275C0.412453 144.044 -1.43358 143.429 1.0278 139.737Z" fill="url(#paint2_linear)"/>
<path d="M118.761 116.354C119.253 119.8 120.197 129.276 120.607 133.583C123.889 134.814 130.699 136.045 131.683 131.122C132.914 124.969 139.683 101.586 140.298 96.6628C140.913 91.74 139.683 83.1252 137.837 78.8178C135.991 74.5104 131.068 72.0491 123.684 72.0491C116.3 72.0491 114.454 76.9718 111.992 78.8178C109.531 80.6639 99.0702 81.8946 97.2241 84.9713C95.3781 88.048 99.0702 107.124 102.147 113.892C105.224 120.661 106.454 119.431 111.992 119.431C117.53 119.431 118.146 112.046 118.761 116.354Z" fill="#AA6431"/>
<path d="M118.761 116.354C119.253 119.8 120.197 129.276 120.607 133.583C123.889 134.814 130.699 136.045 131.683 131.122C132.914 124.969 139.683 101.586 140.298 96.6628C140.913 91.74 139.683 83.1252 137.837 78.8178C135.991 74.5104 131.068 72.0491 123.684 72.0491C116.3 72.0491 114.454 76.9718 111.992 78.8178C109.531 80.6639 99.0702 81.8946 97.2241 84.9713C95.3781 88.048 99.0702 107.124 102.147 113.892C105.224 120.661 106.454 119.431 111.992 119.431C117.53 119.431 118.146 112.046 118.761 116.354Z" fill="url(#paint3_linear)"/>
<path d="M60.919 65.8958C54.5194 66.8804 47.9968 75.3311 45.5354 79.4334C64.4059 80.0487 102.393 80.9101 103.378 79.4334C104.608 77.5875 97.8395 65.8958 94.7628 65.8958C91.6861 65.8958 68.9184 64.6652 60.919 65.8958Z" fill="#31374B"/>
<path d="M60.919 65.8958C54.5194 66.8804 47.9968 75.3311 45.5354 79.4334C64.4059 80.0487 102.393 80.9101 103.378 79.4334C104.608 77.5875 97.8395 65.8958 94.7628 65.8958C91.6861 65.8958 68.9184 64.6652 60.919 65.8958Z" fill="url(#paint4_linear)"/>
<path d="M57.2269 70.8182C50.8273 71.3105 46.7661 78.4075 45.5354 81.8944C44.5098 94.4065 42.7048 119.431 43.6894 119.431C44.9201 119.431 49.8428 132.353 54.7655 134.199C59.6883 136.045 91.0708 134.814 94.7628 134.199C97.7165 133.706 106.659 124.148 110.762 119.431L102.762 81.8944C102.557 80.4586 101.285 76.8486 97.8395 73.895C93.5321 70.2029 65.2264 70.2029 57.2269 70.8182Z" fill="#8B99A6"/>
<path d="M57.2269 70.8182C50.8273 71.3105 46.7661 78.4075 45.5354 81.8944C44.5098 94.4065 42.7048 119.431 43.6894 119.431C44.9201 119.431 49.8428 132.353 54.7655 134.199C59.6883 136.045 91.0708 134.814 94.7628 134.199C97.7165 133.706 106.659 124.148 110.762 119.431L102.762 81.8944C102.557 80.4586 101.285 76.8486 97.8395 73.895C93.5321 70.2029 65.2264 70.2029 57.2269 70.8182Z" fill="url(#paint5_linear)"/>
<path d="M28.9211 132.353H17.8449V130.507C17.8449 126.199 14.7682 98.5088 14.1529 91.74C13.5375 84.9713 14.7682 80.6639 17.8449 75.741C20.9216 70.8181 23.9983 72.049 28.9211 72.6643C33.8436 73.2796 38.1509 77.5869 41.2276 80.6636L41.2279 80.6639C44.3047 83.7406 44.92 75.7412 49.8427 80.6639C54.7655 85.5867 52.9195 83.1253 52.9195 88.6634C52.9195 94.2015 54.1501 118.2 52.9195 121.892C51.6888 125.584 42.4586 126.199 35.6899 124.353C33.5028 123.757 32.2459 122.873 31.5786 121.936C31.6762 126.683 31.2108 132.353 28.9211 132.353Z" fill="#AA6431"/>
<path d="M28.9211 132.353H17.8449V130.507C17.8449 126.199 14.7682 98.5088 14.1529 91.74C13.5375 84.9713 14.7682 80.6639 17.8449 75.741C20.9216 70.8181 23.9983 72.049 28.9211 72.6643C33.8436 73.2796 38.1509 77.5869 41.2276 80.6636L41.2279 80.6639C44.3047 83.7406 44.92 75.7412 49.8427 80.6639C54.7655 85.5867 52.9195 83.1253 52.9195 88.6634C52.9195 94.2015 54.1501 118.2 52.9195 121.892C51.6888 125.584 42.4586 126.199 35.6899 124.353C33.5028 123.757 32.2459 122.873 31.5786 121.936C31.6762 126.683 31.2108 132.353 28.9211 132.353Z" fill="url(#paint6_linear)"/>
<path d="M97.8394 107.739C95.378 109.708 84.0967 108.559 78.7637 107.739C74.8666 109.38 65.5954 111.062 59.6881 104.662C53.7808 98.2627 57.2267 79.8434 59.6881 71.4338C60.0983 65.8957 65.2262 56.1733 82.4558 61.5883C103.993 68.357 100.916 105.278 97.8394 107.739Z" fill="#212226"/>
<path d="M97.8394 107.739C95.378 109.708 84.0967 108.559 78.7637 107.739C74.8666 109.38 65.5954 111.062 59.6881 104.662C53.7808 98.2627 57.2267 79.8434 59.6881 71.4338C60.0983 65.8957 65.2262 56.1733 82.4558 61.5883C103.993 68.357 100.916 105.278 97.8394 107.739Z" fill="url(#paint7_linear)"/>
<path d="M62.7649 116.969C61.2881 112.047 62.1496 106.714 62.7649 104.662C74.2513 102.611 97.2241 99.7397 97.2241 104.662C97.2241 110.816 89.2246 133.584 86.1479 135.43C83.0712 137.276 81.2252 135.43 77.5331 135.43C73.8411 135.43 64.6109 123.123 62.7649 116.969Z" fill="#AA6431"/>
<path d="M62.7649 116.969C61.2881 112.047 62.1496 106.714 62.7649 104.662C74.2513 102.611 97.2241 99.7397 97.2241 104.662C97.2241 110.816 89.2246 133.584 86.1479 135.43C83.0712 137.276 81.2252 135.43 77.5331 135.43C73.8411 135.43 64.6109 123.123 62.7649 116.969Z" fill="url(#paint8_linear)"/>
<defs>
<linearGradient id="paint0_linear" x1="84.9249" y1="141.056" x2="126.717" y2="132.068" gradientUnits="userSpaceOnUse">
<stop stop-color="white"/>
<stop offset="1" stop-color="white" stop-opacity="0"/>
</linearGradient>
<linearGradient id="paint1_linear" x1="61.2756" y1="116.403" x2="80.4022" y2="146.03" gradientUnits="userSpaceOnUse">
<stop stop-color="white"/>
<stop offset="1" stop-color="white" stop-opacity="0"/>
</linearGradient>
<linearGradient id="paint2_linear" x1="-28.087" y1="139.608" x2="16.8835" y2="128.872" gradientUnits="userSpaceOnUse">
<stop stop-color="white"/>
<stop offset="1" stop-color="white" stop-opacity="0"/>
</linearGradient>
<linearGradient id="paint3_linear" x1="67.9356" y1="106.549" x2="116.405" y2="102.997" gradientUnits="userSpaceOnUse">
<stop stop-color="white"/>
<stop offset="1" stop-color="white" stop-opacity="0"/>
</linearGradient>
<linearGradient id="paint4_linear" x1="-32.9658" y1="67.4774" x2="0.862342" y2="123.424" gradientUnits="userSpaceOnUse">
<stop stop-color="white"/>
<stop offset="1" stop-color="white" stop-opacity="0"/>
</linearGradient>
<linearGradient id="paint5_linear" x1="15.2315" y1="110.851" x2="65.9936" y2="103.068" gradientUnits="userSpaceOnUse">
<stop stop-color="white"/>
<stop offset="1" stop-color="white" stop-opacity="0"/>
</linearGradient>
<linearGradient id="paint6_linear" x1="-11.9886" y1="105.659" x2="31.79" y2="102.685" gradientUnits="userSpaceOnUse">
<stop stop-color="white"/>
<stop offset="1" stop-color="white" stop-opacity="0"/>
</linearGradient>
<linearGradient id="paint7_linear" x1="-2.57945" y1="67.0342" x2="80.622" y2="98.332" gradientUnits="userSpaceOnUse">
<stop stop-color="white"/>
<stop offset="1" stop-color="white" stop-opacity="0"/>
</linearGradient>
<linearGradient id="paint8_linear" x1="38.7226" y1="120.84" x2="77.5782" y2="116.646" gradientUnits="userSpaceOnUse">
<stop stop-color="white"/>
<stop offset="1" stop-color="white" stop-opacity="0"/>
</linearGradient>
</defs>
</svg>
