<svg width="150" height="150" viewBox="0 0 150 150" fill="none" xmlns="http://www.w3.org/2000/svg">
<path d="M103.764 140.13C105.234 138.292 108.665 137.22 110.196 136.914L115.25 134.617C120.917 136.454 132.249 140.681 132.249 142.887C132.249 145.643 124.439 147.481 122.601 147.481C120.763 147.481 117.547 142.887 117.547 146.103C117.547 149.319 113.872 149.778 113.412 147.481C112.953 145.184 110.196 143.346 107.899 142.887C106.061 142.519 104.377 144.878 103.764 146.103C103.152 144.878 102.294 141.968 103.764 140.13Z" fill="#AA6431"/>
<path d="M103.764 140.13C105.234 138.292 108.665 137.22 110.196 136.914L115.25 134.617C120.917 136.454 132.249 140.681 132.249 142.887C132.249 145.643 124.439 147.481 122.601 147.481C120.763 147.481 117.547 142.887 117.547 146.103C117.547 149.319 113.872 149.778 113.412 147.481C112.953 145.184 110.196 143.346 107.899 142.887C106.061 142.519 104.377 144.878 103.764 146.103C103.152 144.878 102.294 141.968 103.764 140.13Z" fill="url(#paint0_linear)"/>
<path d="M53.685 88.2129C52.2147 83.8022 53.0724 79.3303 53.685 77.6457L92.278 73.0513L95.4941 77.6457C94.1158 83.3122 90.7159 95.1964 88.143 97.4017C84.9269 100.158 86.7647 107.509 86.3052 109.807C85.8458 112.104 74.8192 110.726 74.8192 107.509C74.8192 104.293 74.3597 94.6451 71.6031 94.6451C68.8464 94.6451 71.6031 106.131 68.8464 107.509C66.0898 108.888 60.117 107.05 59.6576 104.293C59.1981 101.537 55.5227 93.7262 53.685 88.2129Z" fill="#31374B"/>
<path d="M53.685 88.2129C52.2147 83.8022 53.0724 79.3303 53.685 77.6457L92.278 73.0513L95.4941 77.6457C94.1158 83.3122 90.7159 95.1964 88.143 97.4017C84.9269 100.158 86.7647 107.509 86.3052 109.807C85.8458 112.104 74.8192 110.726 74.8192 107.509C74.8192 104.293 74.3597 94.6451 71.6031 94.6451C68.8464 94.6451 71.6031 106.131 68.8464 107.509C66.0898 108.888 60.117 107.05 59.6576 104.293C59.1981 101.537 55.5227 93.7262 53.685 88.2129Z" fill="url(#paint1_linear)"/>
<path d="M72.0627 85.9158C61.036 86.2833 54.6038 79.6367 52.7661 76.2675C52.0003 62.331 50.9283 33.9988 52.7661 32.161C55.0633 29.8638 82.6298 29.8638 85.8459 29.8638C88.4188 29.8638 92.7376 31.3952 94.5753 32.161C95.1879 44.7191 96.0456 70.4785 94.5753 73.0514C92.7376 76.2675 85.8459 85.4563 72.0627 85.9158Z" fill="#8B99A6"/>
<path d="M72.0627 85.9158C61.036 86.2833 54.6038 79.6367 52.7661 76.2675C52.0003 62.331 50.9283 33.9988 52.7661 32.161C55.0633 29.8638 82.6298 29.8638 85.8459 29.8638C88.4188 29.8638 92.7376 31.3952 94.5753 32.161C95.1879 44.7191 96.0456 70.4785 94.5753 73.0514C92.7376 76.2675 85.8459 85.4563 72.0627 85.9158Z" fill="url(#paint2_linear)"/>
<path d="M18.7674 143.805C20.2376 141.6 30.1003 137.679 34.8479 135.995H41.7394C43.1177 136.607 46.4257 138.476 48.631 141.049C50.8363 143.622 49.5499 146.715 48.631 147.94C47.0995 146.562 43.5771 143.805 41.7394 143.805C39.4421 143.805 38.5233 143.805 36.6855 147.94C34.8477 152.075 29.3346 148.859 23.8213 147.94C18.308 147.021 16.9296 146.562 18.7674 143.805Z" fill="#AA6431"/>
<path d="M18.7674 143.805C20.2376 141.6 30.1003 137.679 34.8479 135.995H41.7394C43.1177 136.607 46.4257 138.476 48.631 141.049C50.8363 143.622 49.5499 146.715 48.631 147.94C47.0995 146.562 43.5771 143.805 41.7394 143.805C39.4421 143.805 38.5233 143.805 36.6855 147.94C34.8477 152.075 29.3346 148.859 23.8213 147.94C18.308 147.021 16.9296 146.562 18.7674 143.805Z" fill="url(#paint3_linear)"/>
<path d="M64.252 65.7002C60.2089 61.6571 61.3422 50.8449 62.4142 45.9442C69.1527 45.1784 82.9973 44.1064 84.4675 45.9442C86.3053 48.2414 84.0081 58.3491 82.6297 62.4841C81.2514 66.6191 77.1164 69.3757 73.9003 69.8352C70.6842 70.2946 69.3059 70.7541 64.252 65.7002Z" fill="#AA6431"/>
<path d="M64.252 65.7002C60.2089 61.6571 61.3422 50.8449 62.4142 45.9442C69.1527 45.1784 82.9973 44.1064 84.4675 45.9442C86.3053 48.2414 84.0081 58.3491 82.6297 62.4841C81.2514 66.6191 77.1164 69.3757 73.9003 69.8352C70.6842 70.2946 69.3059 70.7541 64.252 65.7002Z" fill="url(#paint4_linear)"/>
<path d="M64.7115 50.0793C62.8737 47.1388 60.8828 36.6023 60.1171 31.7016L68.8465 19.2966C74.8192 21.747 86.8566 27.6585 87.2242 31.7016C87.6836 36.7554 85.3864 45.9443 82.6297 50.0793C80.4244 53.3873 76.5038 56.6646 74.8192 57.8898C71.6031 57.8898 67.0087 53.7548 64.7115 50.0793Z" fill="#AA6431"/>
<path d="M64.7115 50.0793C62.8737 47.1388 60.8828 36.6023 60.1171 31.7016L68.8465 19.2966C74.8192 21.747 86.8566 27.6585 87.2242 31.7016C87.6836 36.7554 85.3864 45.9443 82.6297 50.0793C80.4244 53.3873 76.5038 56.6646 74.8192 57.8898C71.6031 57.8898 67.0087 53.7548 64.7115 50.0793Z" fill="url(#paint5_linear)"/>
<path d="M74.3597 30.7826C70.3167 30.7826 62.5674 33.233 59.1981 34.4582C55.0632 15.1616 59.1981 0 74.3597 0C89.5213 0 90.8997 34.4582 87.6836 34.4582C84.4675 34.4582 79.4136 30.7826 74.3597 30.7826Z" fill="#212226"/>
<path d="M74.3597 30.7826C70.3167 30.7826 62.5674 33.233 59.1981 34.4582C55.0632 15.1616 59.1981 0 74.3597 0C89.5213 0 90.8997 34.4582 87.6836 34.4582C84.4675 34.4582 79.4136 30.7826 74.3597 30.7826Z" fill="url(#paint6_linear)"/>
<circle cx="75.7381" cy="139.67" r="6.4322" fill="#F18701"/>
<circle cx="75.7381" cy="139.67" r="6.4322" fill="url(#paint7_linear)"/>
<path d="M106.98 48.701C104.407 43.9228 97.0257 35.0709 93.6564 31.2422C88.6025 33.9988 90.4403 55.5926 91.3592 60.6465C92.2781 65.7004 93.6564 68.9165 93.6564 72.592C93.6564 76.2676 93.6564 84.997 95.4942 90.9697C97.3319 96.9425 106.98 135.995 109.737 137.373C112.494 138.752 119.385 135.995 118.466 134.157C117.547 132.32 113.412 94.6453 111.575 90.9697C109.737 87.2942 111.575 70.7542 111.575 66.6193C111.575 62.4843 110.196 54.6738 106.98 48.701Z" fill="#AA6431"/>
<path d="M106.98 48.701C104.407 43.9228 97.0257 35.0709 93.6564 31.2422C88.6025 33.9988 90.4403 55.5926 91.3592 60.6465C92.2781 65.7004 93.6564 68.9165 93.6564 72.592C93.6564 76.2676 93.6564 84.997 95.4942 90.9697C97.3319 96.9425 106.98 135.995 109.737 137.373C112.494 138.752 119.385 135.995 118.466 134.157C117.547 132.32 113.412 94.6453 111.575 90.9697C109.737 87.2942 111.575 70.7542 111.575 66.6193C111.575 62.4843 110.196 54.6738 106.98 48.701Z" fill="url(#paint8_linear)"/>
<path d="M53.6848 67.0787C56.2577 59.3601 54.7569 39.9716 53.6848 31.2422C49.5498 31.2422 39.4421 45.0255 37.1449 48.2416C34.8477 51.4577 35.3071 62.9437 35.3071 69.8354C35.3071 76.727 36.226 88.2131 35.3071 92.8075C34.3882 97.4019 30.7127 135.076 33.0099 137.373C35.3071 139.671 41.7393 137.833 41.7393 135.076C41.7393 132.32 47.2526 105.212 50.4687 100.618C53.0416 96.9425 53.6848 76.727 53.6848 67.0787Z" fill="#AA6431"/>
<path d="M53.6848 67.0787C56.2577 59.3601 54.7569 39.9716 53.6848 31.2422C49.5498 31.2422 39.4421 45.0255 37.1449 48.2416C34.8477 51.4577 35.3071 62.9437 35.3071 69.8354C35.3071 76.727 36.226 88.2131 35.3071 92.8075C34.3882 97.4019 30.7127 135.076 33.0099 137.373C35.3071 139.671 41.7393 137.833 41.7393 135.076C41.7393 132.32 47.2526 105.212 50.4687 100.618C53.0416 96.9425 53.6848 76.727 53.6848 67.0787Z" fill="url(#paint9_linear)"/>
<path d="M58.2792 116.698C56.4414 114.493 59.0449 108.429 60.5764 105.672H68.8465C69.3059 108.429 70.3167 114.861 70.6842 118.536C71.1437 123.131 60.5764 119.455 58.2792 116.698Z" fill="#212226"/>
<path d="M58.2792 116.698C56.4414 114.493 59.0449 108.429 60.5764 105.672H68.8465C69.3059 108.429 70.3167 114.861 70.6842 118.536C71.1437 123.131 60.5764 119.455 58.2792 116.698Z" fill="url(#paint10_linear)"/>
<path d="M74.3598 119.455C72.8896 117.985 74.9724 111.185 76.1976 107.969C79.5668 107.05 86.3053 105.764 86.3053 107.969C86.3053 110.726 87.6836 119.455 86.3053 121.293C84.927 123.13 76.1976 121.293 74.3598 119.455Z" fill="#212226"/>
<path d="M74.3598 119.455C72.8896 117.985 74.9724 111.185 76.1976 107.969C79.5668 107.05 86.3053 105.764 86.3053 107.969C86.3053 110.726 87.6836 119.455 86.3053 121.293C84.927 123.13 76.1976 121.293 74.3598 119.455Z" fill="url(#paint11_linear)"/>
<defs>
<linearGradient id="paint0_linear" x1="83.6615" y1="142.493" x2="114.865" y2="135.782" gradientUnits="userSpaceOnUse">
<stop stop-color="white"/>
<stop offset="1" stop-color="white" stop-opacity="0"/>
</linearGradient>
<linearGradient id="paint1_linear" x1="-4.82281" y1="78.465" x2="70.7766" y2="114.595" gradientUnits="userSpaceOnUse">
<stop stop-color="white"/>
<stop offset="1" stop-color="white" stop-opacity="0"/>
</linearGradient>
<linearGradient id="paint2_linear" x1="33.4999" y1="64.8408" x2="66.7222" y2="61.0348" gradientUnits="userSpaceOnUse">
<stop stop-color="white"/>
<stop offset="1" stop-color="white" stop-opacity="0"/>
</linearGradient>
<linearGradient id="paint3_linear" x1="-2.97101" y1="143.709" x2="30.606" y2="135.693" gradientUnits="userSpaceOnUse">
<stop stop-color="white"/>
<stop offset="1" stop-color="white" stop-opacity="0"/>
</linearGradient>
<linearGradient id="paint4_linear" x1="45.77" y1="58.794" x2="71.9742" y2="56.1989" gradientUnits="userSpaceOnUse">
<stop stop-color="white"/>
<stop offset="1" stop-color="white" stop-opacity="0"/>
</linearGradient>
<linearGradient id="paint5_linear" x1="42.2294" y1="40.5544" x2="72.3375" y2="38.3295" gradientUnits="userSpaceOnUse">
<stop stop-color="white"/>
<stop offset="1" stop-color="white" stop-opacity="0"/>
</linearGradient>
<linearGradient id="paint6_linear" x1="15.1612" y1="4.9226" x2="74.679" y2="27.9804" gradientUnits="userSpaceOnUse">
<stop stop-color="white"/>
<stop offset="1" stop-color="white" stop-opacity="0"/>
</linearGradient>
<linearGradient id="paint7_linear" x1="64.5183" y1="122.708" x2="78.7991" y2="144.829" gradientUnits="userSpaceOnUse">
<stop stop-color="white"/>
<stop offset="1" stop-color="white" stop-opacity="0"/>
</linearGradient>
<linearGradient id="paint8_linear" x1="71.6399" y1="89.9061" x2="103.135" y2="89.028" gradientUnits="userSpaceOnUse">
<stop stop-color="white"/>
<stop offset="1" stop-color="white" stop-opacity="0"/>
</linearGradient>
<linearGradient id="paint9_linear" x1="17.228" y1="90.2741" x2="42.6659" y2="89.705" gradientUnits="userSpaceOnUse">
<stop stop-color="white"/>
<stop offset="1" stop-color="white" stop-opacity="0"/>
</linearGradient>
<linearGradient id="paint10_linear" x1="39.979" y1="107.821" x2="65.0147" y2="117.051" gradientUnits="userSpaceOnUse">
<stop stop-color="white"/>
<stop offset="1" stop-color="white" stop-opacity="0"/>
</linearGradient>
<linearGradient id="paint11_linear" x1="56.1697" y1="108.937" x2="81.324" y2="118.062" gradientUnits="userSpaceOnUse">
<stop stop-color="white"/>
<stop offset="1" stop-color="white" stop-opacity="0"/>
</linearGradient>
</defs>
</svg>
