<svg width="150" height="150" viewBox="0 0 150 150" fill="none" xmlns="http://www.w3.org/2000/svg">
<g clip-path="url(#clip0)">
<path d="M122.022 132C124.022 130 137.522 120.833 144.022 116.5H137.022L115.022 123.5L100.522 138C97.5225 141 89.0224 141.5 84.5224 141.5C80.0224 141.5 74.0224 147 77.5224 149C81.0224 151 89.0224 150 95.5224 149C102.022 148 110.022 145 111.522 141.5C113.022 138 119.522 134.5 122.022 132Z" fill="#AA6431"/>
<path d="M122.022 132C124.022 130 137.522 120.833 144.022 116.5H137.022L115.022 123.5L100.522 138C97.5225 141 89.0224 141.5 84.5224 141.5C80.0224 141.5 74.0224 147 77.5224 149C81.0224 151 89.0224 150 95.5224 149C102.022 148 110.022 145 111.522 141.5C113.022 138 119.522 134.5 122.022 132Z" fill="url(#paint0_linear)"/>
<path d="M31.5225 135C27.1225 133.4 13.3558 123.667 7.02246 119H22.5225C29.3558 121.333 43.5225 126.8 45.5225 130C48.0225 134 53.5225 139.5 59.5225 140C65.5225 140.5 81.5225 148 77.5225 148C73.5225 148 61.5225 150 56.5225 148C51.5225 146 44.0225 143.5 43.0225 141.5C42.0225 139.5 37.0225 137 31.5225 135Z" fill="#AA6431"/>
<path d="M31.5225 135C27.1225 133.4 13.3558 123.667 7.02246 119H22.5225C29.3558 121.333 43.5225 126.8 45.5225 130C48.0225 134 53.5225 139.5 59.5225 140C65.5225 140.5 81.5225 148 77.5225 148C73.5225 148 61.5225 150 56.5225 148C51.5225 146 44.0225 143.5 43.0225 141.5C42.0225 139.5 37.0225 137 31.5225 135Z" fill="url(#paint1_linear)"/>
<path d="M55.5225 110.5H106.522V137L93.5225 145L73.0225 146.5L66.5225 145L43.0225 134L55.5225 110.5Z" fill="#8B99A6"/>
<path d="M55.5225 110.5H106.522V137L93.5225 145L73.0225 146.5L66.5225 145L43.0225 134L55.5225 110.5Z" fill="url(#paint2_linear)"/>
<path d="M52.0225 91.5C54.0225 89.1 58.5225 87.8333 60.5225 87.5L63.5225 97L49.0225 101C49.1891 98.8333 50.0225 93.9 52.0225 91.5Z" fill="#31374B"/>
<path d="M52.0225 91.5C54.0225 89.1 58.5225 87.8333 60.5225 87.5L63.5225 97L49.0225 101C49.1891 98.8333 50.0225 93.9 52.0225 91.5Z" fill="url(#paint3_linear)"/>
<path d="M64.0225 127V112.5C74.6891 111 96.0225 108.5 96.0225 110.5C96.0225 113 95.0225 123.5 94.0225 127C93.0225 130.5 84.0225 143 80.0225 143C76.0225 143 64.0225 129.5 64.0225 127Z" fill="#AA6431"/>
<path d="M64.0225 127V112.5C74.6891 111 96.0225 108.5 96.0225 110.5C96.0225 113 95.0225 123.5 94.0225 127C93.0225 130.5 84.0225 143 80.0225 143C76.0225 143 64.0225 129.5 64.0225 127Z" fill="url(#paint4_linear)"/>
<path d="M56.5224 134.5C60.5224 131.7 60.5224 117 60.0224 110L63.0225 98C62.0224 97.1667 59.3224 95.5 56.5224 95.5C53.0224 95.5 42.5225 99.5001 37.0224 99.5001C31.5223 99.5001 24.0225 99.0001 19.0225 99.5001C14.0225 100 2.52239 110 2.02239 113C1.52239 116 9.52239 122 13.5224 124C17.5224 126 33.5224 124.5 37.0224 126C40.5224 127.5 51.5224 138 56.5224 134.5Z" fill="#AA6431"/>
<path d="M56.5224 134.5C60.5224 131.7 60.5224 117 60.0224 110L63.0225 98C62.0224 97.1667 59.3224 95.5 56.5224 95.5C53.0224 95.5 42.5225 99.5001 37.0224 99.5001C31.5223 99.5001 24.0225 99.0001 19.0225 99.5001C14.0225 100 2.52239 110 2.02239 113C1.52239 116 9.52239 122 13.5224 124C17.5224 126 33.5224 124.5 37.0224 126C40.5224 127.5 51.5224 138 56.5224 134.5Z" fill="url(#paint5_linear)"/>
<path d="M114.522 96.9998C110.522 95.3998 100.856 96.3332 96.5225 96.9998V120.5C96.5225 123.7 100.856 131.167 103.022 134.5C104.022 133.833 106.622 131.9 109.022 129.5C112.022 126.5 118.522 123 122.022 122.5C125.522 122 142.022 118.5 145.522 116.5C149.022 114.5 147.022 109 145.522 105.5C144.022 102 137.522 96.9998 132.022 94.9997C126.522 92.9996 119.522 98.9998 114.522 96.9998Z" fill="#AA6431"/>
<path d="M114.522 96.9998C110.522 95.3998 100.856 96.3332 96.5225 96.9998V120.5C96.5225 123.7 100.856 131.167 103.022 134.5C104.022 133.833 106.622 131.9 109.022 129.5C112.022 126.5 118.522 123 122.022 122.5C125.522 122 142.022 118.5 145.522 116.5C149.022 114.5 147.022 109 145.522 105.5C144.022 102 137.522 96.9998 132.022 94.9997C126.522 92.9996 119.522 98.9998 114.522 96.9998Z" fill="url(#paint6_linear)"/>
<path d="M62.0225 114C64.4225 114 74.6892 112.667 79.5225 112C84.3226 112 93.8558 113.333 98.0225 114C99.3558 108 101.222 94 98.0225 86C94.0225 76 84.0225 71 76.5225 71C69.0225 71 60.5225 79.5 59.0225 86C57.5225 92.5 59.0225 114 62.0225 114Z" fill="#212226"/>
<path d="M62.0225 114C64.4225 114 74.6892 112.667 79.5225 112C84.3226 112 93.8558 113.333 98.0225 114C99.3558 108 101.222 94 98.0225 86C94.0225 76 84.0225 71 76.5225 71C69.0225 71 60.5225 79.5 59.0225 86C57.5225 92.5 59.0225 114 62.0225 114Z" fill="url(#paint7_linear)"/>
</g>
<defs>
<linearGradient id="paint0_linear" x1="31.9935" y1="135.038" x2="104.068" y2="119.851" gradientUnits="userSpaceOnUse">
<stop stop-color="white"/>
<stop offset="1" stop-color="white" stop-opacity="0"/>
</linearGradient>
<linearGradient id="paint1_linear" x1="-39.8163" y1="135.463" x2="34.7946" y2="116.822" gradientUnits="userSpaceOnUse">
<stop stop-color="white"/>
<stop offset="1" stop-color="white" stop-opacity="0"/>
</linearGradient>
<linearGradient id="paint2_linear" x1="16.4625" y1="132.958" x2="62.3496" y2="121.044" gradientUnits="userSpaceOnUse">
<stop stop-color="white"/>
<stop offset="1" stop-color="white" stop-opacity="0"/>
</linearGradient>
<linearGradient id="paint3_linear" x1="29.3938" y1="89.4286" x2="55.541" y2="101.362" gradientUnits="userSpaceOnUse">
<stop stop-color="white"/>
<stop offset="1" stop-color="white" stop-opacity="0"/>
</linearGradient>
<linearGradient id="paint4_linear" x1="42.9518" y1="128.067" x2="78.2506" y2="124.5" gradientUnits="userSpaceOnUse">
<stop stop-color="white"/>
<stop offset="1" stop-color="white" stop-opacity="0"/>
</linearGradient>
<linearGradient id="paint5_linear" x1="-38.1807" y1="117.373" x2="28.095" y2="106.681" gradientUnits="userSpaceOnUse">
<stop stop-color="white"/>
<stop offset="1" stop-color="white" stop-opacity="0"/>
</linearGradient>
<linearGradient id="paint6_linear" x1="62.9774" y1="116.571" x2="118.747" y2="109.098" gradientUnits="userSpaceOnUse">
<stop stop-color="white"/>
<stop offset="1" stop-color="white" stop-opacity="0"/>
</linearGradient>
<linearGradient id="paint7_linear" x1="2.45142" y1="77.1429" x2="79.6641" y2="108.698" gradientUnits="userSpaceOnUse">
<stop stop-color="white"/>
<stop offset="1" stop-color="white" stop-opacity="0"/>
</linearGradient>
<clipPath id="clip0">
<rect width="150" height="150" fill="white"/>
</clipPath>
</defs>
</svg>
