<svg width="150" height="150" viewBox="0 0 150 150" fill="none" xmlns="http://www.w3.org/2000/svg">
<path d="M78.0497 115.813C78.0497 113.26 79.2652 110.495 79.873 109.431H88.078C88.8377 110.343 90.3571 112.895 90.3571 115.813C90.3571 119.459 88.078 118.548 85.7988 119.004C83.5197 119.459 78.0497 119.004 78.0497 115.813Z" fill="#212226"/>
<path d="M78.0497 115.813C78.0497 113.26 79.2652 110.495 79.873 109.431H88.078C88.8377 110.343 90.3571 112.895 90.3571 115.813C90.3571 119.459 88.078 118.548 85.7988 119.004C83.5197 119.459 78.0497 119.004 78.0497 115.813Z" fill="url(#paint0_linear)"/>
<path d="M56.6256 117.636V111.254C59.2087 109.127 64.3747 105.602 64.3747 108.519C64.3747 112.166 66.1981 113.989 66.1981 117.636C66.1981 121.283 56.6256 119.915 56.6256 117.636Z" fill="#212226"/>
<path d="M56.6256 117.636V111.254C59.2087 109.127 64.3747 105.602 64.3747 108.519C64.3747 112.166 66.1981 113.989 66.1981 117.636C66.1981 121.283 56.6256 119.915 56.6256 117.636Z" fill="url(#paint1_linear)"/>
<path d="M66.1981 109.887C66.5628 107.334 70.3006 85.7278 73.4914 85.7278C76.6822 85.7278 78.0497 107.608 78.5055 109.887C78.9613 112.166 88.9896 111.254 89.4455 109.887C89.9013 108.519 88.078 106.696 88.078 103.961C88.078 101.226 90.813 98.4911 93.0921 92.1094C94.9154 87.0041 95.6752 78.1306 95.8271 74.332L93.0921 69.3179L61.6398 73.4203L55.2582 74.332C55.1062 86.1836 55.2582 110.251 57.0815 111.71C59.3606 113.533 65.7423 113.078 66.1981 109.887Z" fill="#31374B"/>
<path d="M66.1981 109.887C66.5628 107.334 70.3006 85.7278 73.4914 85.7278C76.6822 85.7278 78.0497 107.608 78.5055 109.887C78.9613 112.166 88.9896 111.254 89.4455 109.887C89.9013 108.519 88.078 106.696 88.078 103.961C88.078 101.226 90.813 98.4911 93.0921 92.1094C94.9154 87.0041 95.6752 78.1306 95.8271 74.332L93.0921 69.3179L61.6398 73.4203L55.2582 74.332C55.1062 86.1836 55.2582 110.251 57.0815 111.71C59.3606 113.533 65.7423 113.078 66.1981 109.887Z" fill="url(#paint2_linear)"/>
<path d="M78.5055 26.9255C73.9472 26.9255 59.8164 29.2047 57.0814 30.5722C54.4984 43.7913 50.0616 70.8676 52.979 73.4203C56.6256 76.6111 73.9472 80.2578 75.7705 80.2578C77.5938 80.2578 94.0037 73.8761 94.4596 70.2295C94.9154 66.5828 97.6504 32.3955 96.2829 30.5722C94.9154 28.7489 83.0638 26.9255 78.5055 26.9255Z" fill="#8B99A6"/>
<path d="M78.5055 26.9255C73.9472 26.9255 59.8164 29.2047 57.0814 30.5722C54.4984 43.7913 50.0616 70.8676 52.979 73.4203C56.6256 76.6111 73.9472 80.2578 75.7705 80.2578C77.5938 80.2578 94.0037 73.8761 94.4596 70.2295C94.9154 66.5828 97.6504 32.3955 96.2829 30.5722C94.9154 28.7489 83.0638 26.9255 78.5055 26.9255Z" fill="url(#paint3_linear)"/>
<path d="M66.654 59.7454C65.1954 56.8281 66.0463 49.4132 66.654 46.0705C73.7953 44.551 88.078 42.7885 88.078 47.8938C88.078 54.2754 83.5197 63.392 81.6963 66.127C79.873 68.862 78.5055 67.4945 74.8589 67.4945C71.2122 67.4945 68.4774 63.392 66.654 59.7454Z" fill="#AA6431"/>
<path d="M66.654 59.7454C65.1954 56.8281 66.0463 49.4132 66.654 46.0705C73.7953 44.551 88.078 42.7885 88.078 47.8938C88.078 54.2754 83.5197 63.392 81.6963 66.127C79.873 68.862 78.5055 67.4945 74.8589 67.4945C71.2122 67.4945 68.4774 63.392 66.654 59.7454Z" fill="url(#paint4_linear)"/>
<path d="M62.5515 34.2188C64.0101 33.8541 73.4914 32.8513 78.0497 32.3955C82.9119 32.5474 92.6363 33.1247 92.6363 34.2188C95.3713 31.0279 91.7246 15.0739 89.9013 9.60393C88.078 4.13395 82.1522 -0.424355 75.7705 0.0314758C69.3889 0.487304 63.919 7.78051 62.5515 9.60389L62.5515 9.60393C61.184 11.4272 60.7282 34.6746 62.5515 34.2188Z" fill="#212226"/>
<path d="M62.5515 34.2188C64.0101 33.8541 73.4914 32.8513 78.0497 32.3955C82.9119 32.5474 92.6363 33.1247 92.6363 34.2188C95.3713 31.0279 91.7246 15.0739 89.9013 9.60393C88.078 4.13395 82.1522 -0.424355 75.7705 0.0314758C69.3889 0.487304 63.919 7.78051 62.5515 9.60389L62.5515 9.60393C61.184 11.4272 60.7282 34.6746 62.5515 34.2188Z" fill="url(#paint5_linear)"/>
<path d="M78.0497 57.4664C73.4914 57.4664 67.5656 49.7173 66.6539 47.894C65.959 46.5042 65.2089 37.5555 64.8768 32.6396C73.5222 31.1908 90.7218 28.7491 90.3571 30.5724C89.9013 32.8516 89.4454 45.6148 87.6221 47.894C85.7988 50.1731 82.608 57.4664 78.0497 57.4664Z" fill="#AA6431"/>
<path d="M78.0497 57.4664C73.4914 57.4664 67.5656 49.7173 66.6539 47.894C65.959 46.5042 65.2089 37.5555 64.8768 32.6396C73.5222 31.1908 90.7218 28.7491 90.3571 30.5724C89.9013 32.8516 89.4454 45.6148 87.6221 47.894C85.7988 50.1731 82.608 57.4664 78.0497 57.4664Z" fill="url(#paint6_linear)"/>
<path d="M59.8167 66.1271C60.9106 63.2098 59.3608 40.9045 58.4492 30.1165C38.8486 33.3073 37.4808 57.9221 37.025 64.3038C36.5692 70.6854 42.4949 92.5653 42.4949 95.7561C42.4949 98.9469 40.6716 114.901 41.1274 121.283C41.5833 127.664 45.2299 143.163 47.5091 145.442C49.7882 147.721 64.8306 150 67.5656 150C70.3006 150 75.3147 147.721 74.8589 145.442C74.4031 143.163 69.3889 140.428 67.5656 139.516C65.7423 138.604 57.0817 139.06 55.2583 136.781C53.435 134.502 55.7142 101.682 57.0817 98.9469C58.1757 96.7589 57.5375 79.1943 57.0817 70.6854C57.5375 70.3815 58.7227 69.0444 59.8167 66.1271Z" fill="#AA6431"/>
<path d="M59.8167 66.1271C60.9106 63.2098 59.3608 40.9045 58.4492 30.1165C38.8486 33.3073 37.4808 57.9221 37.025 64.3038C36.5692 70.6854 42.4949 92.5653 42.4949 95.7561C42.4949 98.9469 40.6716 114.901 41.1274 121.283C41.5833 127.664 45.2299 143.163 47.5091 145.442C49.7882 147.721 64.8306 150 67.5656 150C70.3006 150 75.3147 147.721 74.8589 145.442C74.4031 143.163 69.3889 140.428 67.5656 139.516C65.7423 138.604 57.0817 139.06 55.2583 136.781C53.435 134.502 55.7142 101.682 57.0817 98.9469C58.1757 96.7589 57.5375 79.1943 57.0817 70.6854C57.5375 70.3815 58.7227 69.0444 59.8167 66.1271Z" fill="url(#paint7_linear)"/>
<path d="M112.237 50.173C111.143 42.8797 101.145 33.7631 96.2829 30.1165C93.5479 32.3956 90.813 65.2154 92.1804 67.9504C93.5479 70.6854 92.1804 77.5229 92.1804 83.4487C92.1804 89.3745 92.1804 92.5653 94.4596 97.1236C96.7388 101.682 94.4596 134.958 92.1804 136.781C89.9013 138.604 83.0638 137.693 80.3288 139.516C77.5939 141.339 75.3147 145.442 75.3147 146.809C75.3147 148.177 78.5055 150 83.0638 148.633C87.6221 147.265 100.841 146.353 102.665 142.707C104.488 139.06 109.502 98.4911 109.046 95.3003C108.59 92.1095 110.87 85.7278 112.237 81.1695C113.604 76.6112 113.604 59.2896 112.237 50.173Z" fill="#AA6431"/>
<path d="M112.237 50.173C111.143 42.8797 101.145 33.7631 96.2829 30.1165C93.5479 32.3956 90.813 65.2154 92.1804 67.9504C93.5479 70.6854 92.1804 77.5229 92.1804 83.4487C92.1804 89.3745 92.1804 92.5653 94.4596 97.1236C96.7388 101.682 94.4596 134.958 92.1804 136.781C89.9013 138.604 83.0638 137.693 80.3288 139.516C77.5939 141.339 75.3147 145.442 75.3147 146.809C75.3147 148.177 78.5055 150 83.0638 148.633C87.6221 147.265 100.841 146.353 102.665 142.707C104.488 139.06 109.502 98.4911 109.046 95.3003C108.59 92.1095 110.87 85.7278 112.237 81.1695C113.604 76.6112 113.604 59.2896 112.237 50.173Z" fill="url(#paint8_linear)"/>
<defs>
<linearGradient id="paint0_linear" x1="61.3891" y1="110.82" x2="82.1873" y2="122.008" gradientUnits="userSpaceOnUse">
<stop stop-color="white"/>
<stop offset="1" stop-color="white" stop-opacity="0"/>
</linearGradient>
<linearGradient id="paint1_linear" x1="43.6674" y1="109.193" x2="62.5206" y2="115.34" gradientUnits="userSpaceOnUse">
<stop stop-color="white"/>
<stop offset="1" stop-color="white" stop-opacity="0"/>
</linearGradient>
<linearGradient id="paint2_linear" x1="0.235123" y1="75.5263" x2="76.6733" y2="105.881" gradientUnits="userSpaceOnUse">
<stop stop-color="white"/>
<stop offset="1" stop-color="white" stop-opacity="0"/>
</linearGradient>
<linearGradient id="paint3_linear" x1="33.349" y1="60.1967" x2="67.268" y2="56.0176" gradientUnits="userSpaceOnUse">
<stop stop-color="white"/>
<stop offset="1" stop-color="white" stop-opacity="0"/>
</linearGradient>
<linearGradient id="paint4_linear" x1="51.2116" y1="57.3531" x2="75.7376" y2="54.9007" gradientUnits="userSpaceOnUse">
<stop stop-color="white"/>
<stop offset="1" stop-color="white" stop-opacity="0"/>
</linearGradient>
<linearGradient id="paint5_linear" x1="17.6638" y1="4.88934" x2="78.252" y2="29.1651" gradientUnits="userSpaceOnUse">
<stop stop-color="white"/>
<stop offset="1" stop-color="white" stop-opacity="0"/>
</linearGradient>
<linearGradient id="paint6_linear" x1="48.0187" y1="45.0941" x2="76.2037" y2="42.3514" gradientUnits="userSpaceOnUse">
<stop stop-color="white"/>
<stop offset="1" stop-color="white" stop-opacity="0"/>
</linearGradient>
<linearGradient id="paint7_linear" x1="12.0523" y1="96.1502" x2="54.2265" y2="94.751" gradientUnits="userSpaceOnUse">
<stop stop-color="white"/>
<stop offset="1" stop-color="white" stop-opacity="0"/>
</linearGradient>
<linearGradient id="paint8_linear" x1="50.3276" y1="95.6637" x2="92.5676" y2="94.2497" gradientUnits="userSpaceOnUse">
<stop stop-color="white"/>
<stop offset="1" stop-color="white" stop-opacity="0"/>
</linearGradient>
</defs>
</svg>
