<svg width="150" height="150" viewBox="0 0 150 150" fill="none" xmlns="http://www.w3.org/2000/svg">
<path d="M60.5 71.5156C62.9 72.3156 82.1667 72.5156 91.5 72.5156L99.5 94.0156C100.333 97.849 101.8 105.816 101 107.016C100 108.516 98.5 111.016 95.5 113.516C92.5 116.016 80 119.516 73.5 119.516C67 119.516 57.5 117.016 55 116.016C52.5 115.016 47 109.516 46.5 107.016C46 104.516 50 70.5156 51.5 70.5156C53 70.5156 57.5 70.5156 60.5 71.5156Z" fill="#8B99A6"/>
<path d="M60.5 71.5156C62.9 72.3156 82.1667 72.5156 91.5 72.5156L99.5 94.0156C100.333 97.849 101.8 105.816 101 107.016C100 108.516 98.5 111.016 95.5 113.516C92.5 116.016 80 119.516 73.5 119.516C67 119.516 57.5 117.016 55 116.016C52.5 115.016 47 109.516 46.5 107.016C46 104.516 50 70.5156 51.5 70.5156C53 70.5156 57.5 70.5156 60.5 71.5156Z" fill="url(#paint0_linear)"/>
<circle cx="38" cy="127.016" r="22" fill="#F18701"/>
<circle cx="38" cy="127.016" r="22" fill="url(#paint1_linear)"/>
<path d="M33.0001 96.0155C33.0001 93.6155 29.6668 83.0155 28.0001 78.0155C26.0001 74.0155 24.5001 67.3488 24 64.5155C23.5 61.6821 31 71.0155 31 71.0155L44.5 98.5155C44.6667 99.5155 44.8 101.815 44 103.015C43 104.515 43.5 108.015 43 110.015C42.5 112.015 40 116.015 38.5 116.015C37 116.015 38 107.515 37 108.515C36 109.515 35.5 114.515 34.0001 114.515C32.5002 114.515 26.0001 112.015 25.5001 111.015C25.0001 110.015 25.5001 109.015 26.0001 106.515C26.5001 104.015 33.0001 101.015 34.0001 100.015C35.0001 99.0155 33.0001 99.0155 33.0001 96.0155Z" fill="#AA6431"/>
<path d="M33.0001 96.0155C33.0001 93.6155 29.6668 83.0155 28.0001 78.0155C26.0001 74.0155 24.5001 67.3488 24 64.5155C23.5 61.6821 31 71.0155 31 71.0155L44.5 98.5155C44.6667 99.5155 44.8 101.815 44 103.015C43 104.515 43.5 108.015 43 110.015C42.5 112.015 40 116.015 38.5 116.015C37 116.015 38 107.515 37 108.515C36 109.515 35.5 114.515 34.0001 114.515C32.5002 114.515 26.0001 112.015 25.5001 111.015C25.0001 110.015 25.5001 109.015 26.0001 106.515C26.5001 104.015 33.0001 101.015 34.0001 100.015C35.0001 99.0155 33.0001 99.0155 33.0001 96.0155Z" fill="url(#paint2_linear)"/>
<path d="M62 106.016C60.8 104.416 58.1667 95.0156 57 90.5156L70.5 85.5156C76 86.5156 87 88.9156 87 90.5156C87 92.5156 83 103.516 83 106.016C83 108.516 76 115.016 72.5 115.016C69 115.016 63.5 108.016 62 106.016Z" fill="#AA6431"/>
<path d="M62 106.016C60.8 104.416 58.1667 95.0156 57 90.5156L70.5 85.5156C76 86.5156 87 88.9156 87 90.5156C87 92.5156 83 103.516 83 106.016C83 108.516 76 115.016 72.5 115.016C69 115.016 63.5 108.016 62 106.016Z" fill="url(#paint3_linear)"/>
<path d="M53.5 94.5156C54.7 92.1156 53 77.5156 52 70.5156C51 70.5156 49 69.8156 49 67.0156C49 63.5156 43 55.0156 40 52.5156C37 50.0156 31 54.0156 29.5 55.0156C28 56.0156 23.5 63.5156 24.5 67.0156C25.5 70.5156 33 88.0156 33.5 91.0156C34 94.0156 45.5 105.016 47 104.016C48.5 103.016 52 97.5156 53.5 94.5156Z" fill="#AA6431"/>
<path d="M53.5 94.5156C54.7 92.1156 53 77.5156 52 70.5156C51 70.5156 49 69.8156 49 67.0156C49 63.5156 43 55.0156 40 52.5156C37 50.0156 31 54.0156 29.5 55.0156C28 56.0156 23.5 63.5156 24.5 67.0156C25.5 70.5156 33 88.0156 33.5 91.0156C34 94.0156 45.5 105.016 47 104.016C48.5 103.016 52 97.5156 53.5 94.5156Z" fill="url(#paint4_linear)"/>
<path d="M56.5 91.5156C58.9 91.5156 69 90.0158 72.0001 90.0158C75.0002 90.0158 88 91.5156 88 91.5156C88.5 89.3489 89.1001 82.3156 89.5001 77.5156C90.0001 71.5156 85.0001 62.5156 84.0001 60.5156C83.0001 58.5156 76.5001 51.5158 70.0001 51.0158C63.5001 50.5158 56 62.0158 54.5 66.5158C53 71.0158 53.5 91.5156 56.5 91.5156Z" fill="#212226"/>
<path d="M56.5 91.5156C58.9 91.5156 69 90.0158 72.0001 90.0158C75.0002 90.0158 88 91.5156 88 91.5156C88.5 89.3489 89.1001 82.3156 89.5001 77.5156C90.0001 71.5156 85.0001 62.5156 84.0001 60.5156C83.0001 58.5156 76.5001 51.5158 70.0001 51.0158C63.5001 50.5158 56 62.0158 54.5 66.5158C53 71.0158 53.5 91.5156 56.5 91.5156Z" fill="url(#paint5_linear)"/>
<path d="M109 78.0156C106.2 73.6156 95.5 72.5156 90.5 72.5156C90.5 74.5156 90.6 78.8156 91 80.0156C91.5 81.5156 92.5 96.5156 93.5 101.516C94.3 105.516 97.8333 106.516 99.5 106.516C99.1667 106.516 99.2 106.116 102 104.516C105.5 102.516 105.5 105.516 106.5 106.516C107.5 107.516 110.5 134.516 111.5 136.516C112.3 138.116 117.833 137.182 120.5 136.516V125.016C120.5 119.516 121 97.5156 119.5 95.5156C118 93.5156 112.5 83.5156 109 78.0156Z" fill="#AA6431"/>
<path d="M109 78.0156C106.2 73.6156 95.5 72.5156 90.5 72.5156C90.5 74.5156 90.6 78.8156 91 80.0156C91.5 81.5156 92.5 96.5156 93.5 101.516C94.3 105.516 97.8333 106.516 99.5 106.516C99.1667 106.516 99.2 106.116 102 104.516C105.5 102.516 105.5 105.516 106.5 106.516C107.5 107.516 110.5 134.516 111.5 136.516C112.3 138.116 117.833 137.182 120.5 136.516V125.016C120.5 119.516 121 97.5156 119.5 95.5156C118 93.5156 112.5 83.5156 109 78.0156Z" fill="url(#paint6_linear)"/>
<path d="M103.5 143.016C103.9 141.416 109.333 137.682 112 136.016C113.167 135.516 116.3 134.816 119.5 136.016C123.5 137.516 128 139.016 130.5 140.516C132.5 141.716 133.333 144.349 133.5 145.516C132.5 145.516 130.5 146.016 130.5 148.016C130.5 150.516 123.5 149.016 122.5 148.016C121.5 147.016 120 143.016 118 143.016C116 143.016 117 145.516 117 148.016C117 150.516 114 150.016 114 148.016C114 146.016 113.5 143.016 111 142.016C108.5 141.016 106.5 144.516 105.5 145.516C104.5 146.516 103 145.016 103.5 143.016Z" fill="#AA6431"/>
<path d="M103.5 143.016C103.9 141.416 109.333 137.682 112 136.016C113.167 135.516 116.3 134.816 119.5 136.016C123.5 137.516 128 139.016 130.5 140.516C132.5 141.716 133.333 144.349 133.5 145.516C132.5 145.516 130.5 146.016 130.5 148.016C130.5 150.516 123.5 149.016 122.5 148.016C121.5 147.016 120 143.016 118 143.016C116 143.016 117 145.516 117 148.016C117 150.516 114 150.016 114 148.016C114 146.016 113.5 143.016 111 142.016C108.5 141.016 106.5 144.516 105.5 145.516C104.5 146.516 103 145.016 103.5 143.016Z" fill="url(#paint7_linear)"/>
<defs>
<linearGradient id="paint0_linear" x1="23.5467" y1="101.084" x2="64.6829" y2="94.3155" gradientUnits="userSpaceOnUse">
<stop stop-color="white"/>
<stop offset="1" stop-color="white" stop-opacity="0"/>
</linearGradient>
<linearGradient id="paint1_linear" x1="-0.374959" y1="68.9992" x2="48.4694" y2="144.658" gradientUnits="userSpaceOnUse">
<stop stop-color="white"/>
<stop offset="1" stop-color="white" stop-opacity="0"/>
</linearGradient>
<linearGradient id="paint2_linear" x1="10.3787" y1="92.6419" x2="33.3506" y2="91.6849" gradientUnits="userSpaceOnUse">
<stop stop-color="white"/>
<stop offset="1" stop-color="white" stop-opacity="0"/>
</linearGradient>
<linearGradient id="paint3_linear" x1="37.2463" y1="101.765" x2="70.3001" y2="98.2359" gradientUnits="userSpaceOnUse">
<stop stop-color="white"/>
<stop offset="1" stop-color="white" stop-opacity="0"/>
</linearGradient>
<linearGradient id="paint4_linear" x1="4.89488" y1="80.5545" x2="37.7158" y2="78.61" gradientUnits="userSpaceOnUse">
<stop stop-color="white"/>
<stop offset="1" stop-color="white" stop-opacity="0"/>
</linearGradient>
<linearGradient id="paint5_linear" x1="5.14497" y1="56.7879" x2="73.5889" y2="82.526" gradientUnits="userSpaceOnUse">
<stop stop-color="white"/>
<stop offset="1" stop-color="white" stop-opacity="0"/>
</linearGradient>
<linearGradient id="paint6_linear" x1="70.6936" y1="108.254" x2="104.134" y2="106.627" gradientUnits="userSpaceOnUse">
<stop stop-color="white"/>
<stop offset="1" stop-color="white" stop-opacity="0"/>
</linearGradient>
<linearGradient id="paint7_linear" x1="83.5815" y1="143.26" x2="115.573" y2="136.218" gradientUnits="userSpaceOnUse">
<stop stop-color="white"/>
<stop offset="1" stop-color="white" stop-opacity="0"/>
</linearGradient>
</defs>
</svg>
