<svg width="150" height="150" viewBox="0 0 150 150" fill="none" xmlns="http://www.w3.org/2000/svg">
<path d="M64.4941 115.286C64.4941 113.15 65.6809 109.055 66.2743 107.275C69.2414 106.978 75.1754 106.741 75.1754 108.165C75.1754 109.945 76.0655 115.286 76.0655 117.956C76.0655 120.627 72.9501 121.517 69.8348 121.072C66.7194 120.627 64.4941 117.956 64.4941 115.286Z" fill="#212226"/>
<path d="M64.4941 115.286C64.4941 113.15 65.6809 109.055 66.2743 107.275C69.2414 106.978 75.1754 106.741 75.1754 108.165C75.1754 109.945 76.0655 115.286 76.0655 117.956C76.0655 120.627 72.9501 121.517 69.8348 121.072C66.7194 120.627 64.4941 117.956 64.4941 115.286Z" fill="url(#paint0_linear)"/>
<path d="M77.8458 117.511C76.9557 115.731 77.8458 108.165 77.8458 107.275C81.2578 106.534 88.1709 105.673 88.5269 108.165C88.972 111.281 88.0819 115.731 87.1918 117.511C86.3017 119.292 78.7359 119.292 77.8458 117.511Z" fill="#212226"/>
<path d="M77.8458 117.511C76.9557 115.731 77.8458 108.165 77.8458 107.275C81.2578 106.534 88.1709 105.673 88.5269 108.165C88.972 111.281 88.0819 115.731 87.1918 117.511C86.3017 119.292 78.7359 119.292 77.8458 117.511Z" fill="url(#paint1_linear)"/>
<path d="M62.2689 97.9291C60.9337 96.1489 60.0436 90.8082 58.2634 87.6929C56.535 84.6683 54.8067 71.9949 54.7075 70.4448L94.3125 69.4458C95.796 70.4843 98.674 73.0062 98.318 74.7864C97.8729 77.0117 94.7576 89.4731 94.3125 92.1434C93.8675 94.8137 90.3071 99.2642 89.417 100.599C88.5269 101.935 88.0818 105.05 87.1917 106.83C86.3016 108.61 78.7358 108.61 78.2907 106.83C77.8457 105.05 78.2907 94.3687 76.9556 94.3687C75.6204 94.3687 76.9556 97.9291 76.9556 100.599C76.9556 102.736 75.472 106.83 74.7303 108.61C71.9116 109.352 66.2743 110.034 66.2743 106.83C66.2743 102.825 63.604 99.7093 62.2689 97.9291Z" fill="#31374B"/>
<path d="M62.2689 97.9291C60.9337 96.1489 60.0436 90.8082 58.2634 87.6929C56.535 84.6683 54.8067 71.9949 54.7075 70.4448L94.3125 69.4458C95.796 70.4843 98.674 73.0062 98.318 74.7864C97.8729 77.0117 94.7576 89.4731 94.3125 92.1434C93.8675 94.8137 90.3071 99.2642 89.417 100.599C88.5269 101.935 88.0818 105.05 87.1917 106.83C86.3016 108.61 78.7358 108.61 78.2907 106.83C77.8457 105.05 78.2907 94.3687 76.9556 94.3687C75.6204 94.3687 76.9556 97.9291 76.9556 100.599C76.9556 102.736 75.472 106.83 74.7303 108.61C71.9116 109.352 66.2743 110.034 66.2743 106.83C66.2743 102.825 63.604 99.7093 62.2689 97.9291Z" fill="url(#paint2_linear)"/>
<path d="M103.659 37.4022C103.659 35.266 98.3181 33.2484 95.6478 32.5067L75.1754 28.0562L65.8293 31.6166L56.4833 51.6439C54.5548 56.6878 51.3207 67.4877 53.813 70.336C56.9284 73.8964 67.6096 83.2425 76.9557 83.2425C86.3018 83.2425 96.5379 73.8964 96.5379 72.5613C96.5379 71.2261 103.659 40.0725 103.659 37.4022Z" fill="#8B99A6"/>
<path d="M103.659 37.4022C103.659 35.266 98.3181 33.2484 95.6478 32.5067L75.1754 28.0562L65.8293 31.6166L56.4833 51.6439C54.5548 56.6878 51.3207 67.4877 53.813 70.336C56.9284 73.8964 67.6096 83.2425 76.9557 83.2425C86.3018 83.2425 96.5379 73.8964 96.5379 72.5613C96.5379 71.2261 103.659 40.0725 103.659 37.4022Z" fill="url(#paint3_linear)"/>
<circle cx="47.5822" cy="128.638" r="19.5822" fill="#F18701"/>
<circle cx="47.5822" cy="128.638" r="19.5822" fill="url(#paint4_linear)"/>
<path d="M71.1699 49.8635C71.1699 46.7482 72.5051 44.5229 72.5051 43.6328C79.0325 44.0779 92.0873 45.146 92.0873 45.8581C92.0873 46.7482 91.1972 53.4239 89.8621 58.3195C88.5269 63.2151 85.8566 63.2151 84.0764 63.2151C82.2962 63.2151 76.0655 59.6546 74.7303 58.3195C73.3952 56.9843 71.1699 52.9789 71.1699 49.8635Z" fill="#AA6431"/>
<path d="M71.1699 49.8635C71.1699 46.7482 72.5051 44.5229 72.5051 43.6328C79.0325 44.0779 92.0873 45.146 92.0873 45.8581C92.0873 46.7482 91.1972 53.4239 89.8621 58.3195C88.5269 63.2151 85.8566 63.2151 84.0764 63.2151C82.2962 63.2151 76.0655 59.6546 74.7303 58.3195C73.3952 56.9843 71.1699 52.9789 71.1699 49.8635Z" fill="url(#paint5_linear)"/>
<path d="M72.9502 48.0832C72.2381 45.9469 69.9832 36.5118 68.9447 32.0613C78.2908 30.4295 96.8939 27.6998 96.5379 29.8361C96.0928 32.5064 94.7577 40.9623 94.3126 43.1876C93.8676 45.4128 86.3017 55.204 83.6314 55.204C80.9611 55.204 73.8403 50.7535 72.9502 48.0832Z" fill="#AA6431"/>
<path d="M72.9502 48.0832C72.2381 45.9469 69.9832 36.5118 68.9447 32.0613C78.2908 30.4295 96.8939 27.6998 96.5379 29.8361C96.0928 32.5064 94.7577 40.9623 94.3126 43.1876C93.8676 45.4128 86.3017 55.204 83.6314 55.204C80.9611 55.204 73.8403 50.7535 72.9502 48.0832Z" fill="url(#paint6_linear)"/>
<path d="M52.4779 29.8363C55.6822 26.6319 63.9008 25.8308 67.6096 25.8308C68.4997 26.5726 70.1019 28.5901 69.3898 30.7264C68.4997 33.3967 66.2744 41.4076 65.3843 44.968C64.4942 48.5284 63.1591 56.0943 60.9338 57.4294C58.7086 58.7646 59.5987 56.9844 57.8185 57.4294C56.0383 57.8745 53.368 69.4458 52.0328 72.1161C50.6977 74.7864 53.368 81.0171 53.368 85.0226C53.368 89.028 51.5878 103.715 52.0328 105.495C52.4779 107.275 59.1536 109.055 59.5987 109.945C60.0437 110.836 58.2635 114.396 56.4833 113.506C54.7031 112.616 52.0328 108.61 51.5878 109.945C51.1427 111.281 50.6977 116.176 49.3625 117.511C48.0273 118.846 38.6813 116.176 37.3461 116.176C36.011 116.176 35.5659 116.176 35.5659 113.506C35.5659 110.836 39.5714 107.275 40.4615 105.94C41.3516 104.605 40.4615 103.27 40.4615 101.489C40.4615 99.7093 37.3461 85.9127 37.3461 82.3523C37.3461 78.7919 38.2362 67.6656 39.5714 64.9953C40.9065 62.325 44.0219 49.4185 44.912 44.968C45.8021 40.5175 48.4724 33.8417 52.4779 29.8363Z" fill="#AA6431"/>
<path d="M52.4779 29.8363C55.6822 26.6319 63.9008 25.8308 67.6096 25.8308C68.4997 26.5726 70.1019 28.5901 69.3898 30.7264C68.4997 33.3967 66.2744 41.4076 65.3843 44.968C64.4942 48.5284 63.1591 56.0943 60.9338 57.4294C58.7086 58.7646 59.5987 56.9844 57.8185 57.4294C56.0383 57.8745 53.368 69.4458 52.0328 72.1161C50.6977 74.7864 53.368 81.0171 53.368 85.0226C53.368 89.028 51.5878 103.715 52.0328 105.495C52.4779 107.275 59.1536 109.055 59.5987 109.945C60.0437 110.836 58.2635 114.396 56.4833 113.506C54.7031 112.616 52.0328 108.61 51.5878 109.945C51.1427 111.281 50.6977 116.176 49.3625 117.511C48.0273 118.846 38.6813 116.176 37.3461 116.176C36.011 116.176 35.5659 116.176 35.5659 113.506C35.5659 110.836 39.5714 107.275 40.4615 105.94C41.3516 104.605 40.4615 103.27 40.4615 101.489C40.4615 99.7093 37.3461 85.9127 37.3461 82.3523C37.3461 78.7919 38.2362 67.6656 39.5714 64.9953C40.9065 62.325 44.0219 49.4185 44.912 44.968C45.8021 40.5175 48.4724 33.8417 52.4779 29.8363Z" fill="url(#paint7_linear)"/>
<path d="M96.538 59.2096C96.538 52.4448 100.692 41.2592 102.769 36.512C106.774 38.7372 113.895 54.314 115.675 59.2096C117.455 64.1051 113.005 96.1488 113.895 100.154C114.785 104.16 114.34 135.313 115.23 137.539C116.12 139.764 122.351 145.995 122.351 147.33C122.351 148.665 109.889 150 108.554 150C107.219 150 105.439 144.214 103.659 143.324C101.878 142.434 96.538 147.775 98.318 144.214C100.098 140.654 104.549 138.874 105.439 138.429C106.329 137.984 104.994 126.857 103.659 123.297C102.323 119.736 100.543 109.5 100.543 107.72C100.543 105.94 97.8731 98.3741 96.538 95.2587C95.2028 92.1433 96.538 79.2369 96.538 75.6764V59.2096Z" fill="#AA6431"/>
<path d="M96.538 59.2096C96.538 52.4448 100.692 41.2592 102.769 36.512C106.774 38.7372 113.895 54.314 115.675 59.2096C117.455 64.1051 113.005 96.1488 113.895 100.154C114.785 104.16 114.34 135.313 115.23 137.539C116.12 139.764 122.351 145.995 122.351 147.33C122.351 148.665 109.889 150 108.554 150C107.219 150 105.439 144.214 103.659 143.324C101.878 142.434 96.538 147.775 98.318 144.214C100.098 140.654 104.549 138.874 105.439 138.429C106.329 137.984 104.994 126.857 103.659 123.297C102.323 119.736 100.543 109.5 100.543 107.72C100.543 105.94 97.8731 98.3741 96.538 95.2587C95.2028 92.1433 96.538 79.2369 96.538 75.6764V59.2096Z" fill="url(#paint8_linear)"/>
<path d="M68.0546 33.8417C69.1227 33.8417 79.6259 30.7263 83.1863 30.7263C86.7467 30.7263 93.8676 32.5065 96.0928 32.9516C98.3181 33.3966 98.3181 32.9516 98.3181 30.7263C98.3181 28.5011 95.6478 12.9243 93.8676 10.254C92.0874 7.58369 86.3017 -0.427223 79.6259 0.0178277C72.9502 0.462879 68.0546 9.3639 67.1645 10.254C66.2744 11.1441 66.7194 33.8417 68.0546 33.8417Z" fill="#212226"/>
<path d="M68.0546 33.8417C69.1227 33.8417 79.6259 30.7263 83.1863 30.7263C86.7467 30.7263 93.8676 32.5065 96.0928 32.9516C98.3181 33.3966 98.3181 32.9516 98.3181 30.7263C98.3181 28.5011 95.6478 12.9243 93.8676 10.254C92.0874 7.58369 86.3017 -0.427223 79.6259 0.0178277C72.9502 0.462879 68.0546 9.3639 67.1645 10.254C66.2744 11.1441 66.7194 33.8417 68.0546 33.8417Z" fill="url(#paint9_linear)"/>
<defs>
<linearGradient id="paint0_linear" x1="48.83" y1="109.069" x2="71.3197" y2="116.894" gradientUnits="userSpaceOnUse">
<stop stop-color="white"/>
<stop offset="1" stop-color="white" stop-opacity="0"/>
</linearGradient>
<linearGradient id="paint1_linear" x1="62.2954" y1="108.27" x2="83.5317" y2="116.458" gradientUnits="userSpaceOnUse">
<stop stop-color="white"/>
<stop offset="1" stop-color="white" stop-opacity="0"/>
</linearGradient>
<linearGradient id="paint2_linear" x1="-4.37957" y1="75.1293" x2="73.7416" y2="111.547" gradientUnits="userSpaceOnUse">
<stop stop-color="white"/>
<stop offset="1" stop-color="white" stop-opacity="0"/>
</linearGradient>
<linearGradient id="paint3_linear" x1="31.6788" y1="62.484" x2="70.1217" y2="57.28" gradientUnits="userSpaceOnUse">
<stop stop-color="white"/>
<stop offset="1" stop-color="white" stop-opacity="0"/>
</linearGradient>
<linearGradient id="paint4_linear" x1="13.4246" y1="76.9971" x2="56.9011" y2="144.341" gradientUnits="userSpaceOnUse">
<stop stop-color="white"/>
<stop offset="1" stop-color="white" stop-opacity="0"/>
</linearGradient>
<linearGradient id="paint5_linear" x1="57.3967" y1="54.419" x2="80.4166" y2="51.8376" gradientUnits="userSpaceOnUse">
<stop stop-color="white"/>
<stop offset="1" stop-color="white" stop-opacity="0"/>
</linearGradient>
<linearGradient id="paint6_linear" x1="50.7724" y1="43.4568" x2="81.1537" y2="40.0911" gradientUnits="userSpaceOnUse">
<stop stop-color="white"/>
<stop offset="1" stop-color="white" stop-opacity="0"/>
</linearGradient>
<linearGradient id="paint7_linear" x1="13.1775" y1="76.5358" x2="51.01" y2="75.0688" gradientUnits="userSpaceOnUse">
<stop stop-color="white"/>
<stop offset="1" stop-color="white" stop-opacity="0"/>
</linearGradient>
<linearGradient id="paint8_linear" x1="78.5572" y1="99.0229" x2="107.965" y2="98.3046" gradientUnits="userSpaceOnUse">
<stop stop-color="white"/>
<stop offset="1" stop-color="white" stop-opacity="0"/>
</linearGradient>
<linearGradient id="paint9_linear" x1="23.9019" y1="4.83453" x2="83.4121" y2="28.4598" gradientUnits="userSpaceOnUse">
<stop stop-color="white"/>
<stop offset="1" stop-color="white" stop-opacity="0"/>
</linearGradient>
</defs>
</svg>
