<svg width="150" height="150" viewBox="0 0 150 150" fill="none" xmlns="http://www.w3.org/2000/svg">
<g clip-path="url(#clip0)">
<path d="M59.3108 106.541V99.041H71.3108L68.3108 114.041C66.3108 114.708 62.0108 115.641 60.8108 114.041C59.3108 112.041 59.3108 107.541 59.3108 106.541Z" fill="#31374B"/>
<path d="M59.3108 106.541V99.041H71.3108L68.3108 114.041C66.3108 114.708 62.0108 115.641 60.8108 114.041C59.3108 112.041 59.3108 107.541 59.3108 106.541Z" fill="url(#paint0_linear)"/>
<path d="M104.811 111.041C105.611 109.441 102.144 100.374 100.311 96.041L91.8108 98.041L95.8108 114.041C98.4775 113.708 104.011 112.641 104.811 111.041Z" fill="#31374B"/>
<path d="M104.811 111.041C105.611 109.441 102.144 100.374 100.311 96.041L91.8108 98.041L95.8108 114.041C98.4775 113.708 104.011 112.641 104.811 111.041Z" fill="url(#paint1_linear)"/>
<path d="M59.8109 110.041C60.6109 108.841 67.1442 109.541 70.3109 110.041V115.041C67.8109 115.374 62.4109 115.841 60.8109 115.041C58.8109 114.041 58.8109 111.541 59.8109 110.041Z" fill="#212226"/>
<path d="M59.8109 110.041C60.6109 108.841 67.1442 109.541 70.3109 110.041V115.041C67.8109 115.374 62.4109 115.841 60.8109 115.041C58.8109 114.041 58.8109 111.541 59.8109 110.041Z" fill="url(#paint2_linear)"/>
<path d="M94.8108 110.041L103.811 107.041C104.477 107.041 105.811 107.641 105.811 110.041C105.811 112.441 101.477 113.708 99.3108 114.041L94.8108 110.041Z" fill="#212226"/>
<path d="M94.8108 110.041L103.811 107.041C104.477 107.041 105.811 107.641 105.811 110.041C105.811 112.441 101.477 113.708 99.3108 114.041L94.8108 110.041Z" fill="url(#paint3_linear)"/>
<circle cx="83.3108" cy="113.541" r="19" fill="#F18701"/>
<circle cx="83.3108" cy="113.541" r="19" fill="url(#paint4_linear)"/>
<path d="M62.3108 54.041C56.7108 54.441 54.3108 56.2076 53.8108 57.041C54.1441 68.3743 55.0108 91.741 55.8108 94.541C56.8108 98.041 57.8108 99.041 62.3108 101.041C66.8108 103.041 78.3108 103.041 81.8108 102.541C85.3108 102.041 97.3108 100.041 100.311 99.041C103.311 98.041 104.811 96.041 106.311 94.541C107.511 93.341 106.811 84.7077 106.311 80.541C103.977 71.7077 98.6108 53.841 95.8108 53.041C92.3108 52.041 69.3108 53.541 62.3108 54.041Z" fill="#8B99A6"/>
<path d="M62.3108 54.041C56.7108 54.441 54.3108 56.2076 53.8108 57.041C54.1441 68.3743 55.0108 91.741 55.8108 94.541C56.8108 98.041 57.8108 99.041 62.3108 101.041C66.8108 103.041 78.3108 103.041 81.8108 102.541C85.3108 102.041 97.3108 100.041 100.311 99.041C103.311 98.041 104.811 96.041 106.311 94.541C107.511 93.341 106.811 84.7077 106.311 80.541C103.977 71.7077 98.6108 53.841 95.8108 53.041C92.3108 52.041 69.3108 53.541 62.3108 54.041Z" fill="url(#paint5_linear)"/>
<path d="M90.3108 79.541C91.1108 78.341 89.9775 71.041 89.3108 67.541L67.3108 83.541C70.1441 85.3743 76.6108 88.841 79.8108 88.041C83.8108 87.041 89.3108 81.041 90.3108 79.541Z" fill="#AA6431"/>
<path d="M90.3108 79.541C91.1108 78.341 89.9775 71.041 89.3108 67.541L67.3108 83.541C70.1441 85.3743 76.6108 88.841 79.8108 88.041C83.8108 87.041 89.3108 81.041 90.3108 79.541Z" fill="url(#paint6_linear)"/>
<path d="M87.3108 51.041C92.5246 50.041 108.42 49.541 108.811 49.541C109.788 52.2077 107.08 56.941 105.907 54.541C104.734 52.141 91.8616 53.041 86.8108 55.041L87.3108 51.041Z" fill="#AA6431"/>
<path d="M87.3108 51.041C92.5246 50.041 108.42 49.541 108.811 49.541C109.788 52.2077 107.08 56.941 105.907 54.541C104.734 52.141 91.8616 53.041 86.8108 55.041L87.3108 51.041Z" fill="url(#paint7_linear)"/>
<path d="M61.3108 78.0412C60.5108 76.4412 60.3108 70.7078 60.3108 68.0412C69.6441 65.7078 88.4108 61.7412 88.8108 64.5412C89.3108 68.0412 88.3108 76.0412 87.3108 78.0412C86.3108 80.0412 79.8108 90.5412 74.8108 91.0412C70.8108 91.4412 64.1441 82.5412 61.3108 78.0412Z" fill="#AA6431"/>
<path d="M61.3108 78.0412C60.5108 76.4412 60.3108 70.7078 60.3108 68.0412C69.6441 65.7078 88.4108 61.7412 88.8108 64.5412C89.3108 68.0412 88.3108 76.0412 87.3108 78.0412C86.3108 80.0412 79.8108 90.5412 74.8108 91.0412C70.8108 91.4412 64.1441 82.5412 61.3108 78.0412Z" fill="url(#paint8_linear)"/>
<path d="M59.3107 69.0412C60.9107 69.0412 69.9774 68.0412 74.3107 67.5412H89.3108C93.3108 67.5412 93.3107 27.5412 71.3107 29.0412C49.3107 30.5412 57.3107 69.0412 59.3107 69.0412Z" fill="#212226"/>
<path d="M59.3107 69.0412C60.9107 69.0412 69.9774 68.0412 74.3107 67.5412H89.3108C93.3108 67.5412 93.3107 27.5412 71.3107 29.0412C49.3107 30.5412 57.3107 69.0412 59.3107 69.0412Z" fill="url(#paint9_linear)"/>
<path d="M38.3109 67.041C41.1109 61.041 50.4776 57.2077 54.8109 56.041C56.311 59.041 59.3108 95.541 58.3108 96.041C57.3108 96.541 54.8109 90.541 53.3108 91.541C51.8107 92.541 48.8108 101.041 48.3108 103.041C47.8108 105.041 52.3108 133.541 51.8108 136.041C51.3108 138.541 40.3108 138.541 39.3108 136.041C38.3108 133.541 32.8109 115.041 31.8109 108.041C30.8109 101.041 31.8109 98.541 31.8109 94.541C31.8109 90.541 34.3109 80.041 35.8109 79.041C37.3109 78.041 34.8109 74.541 38.3109 67.041Z" fill="#AA6431"/>
<path d="M38.3109 67.041C41.1109 61.041 50.4776 57.2077 54.8109 56.041C56.311 59.041 59.3108 95.541 58.3108 96.041C57.3108 96.541 54.8109 90.541 53.3108 91.541C51.8107 92.541 48.8108 101.041 48.3108 103.041C47.8108 105.041 52.3108 133.541 51.8108 136.041C51.3108 138.541 40.3108 138.541 39.3108 136.041C38.3108 133.541 32.8109 115.041 31.8109 108.041C30.8109 101.041 31.8109 98.541 31.8109 94.541C31.8109 90.541 34.3109 80.041 35.8109 79.041C37.3109 78.041 34.8109 74.541 38.3109 67.041Z" fill="url(#paint10_linear)"/>
<path d="M30.8108 145.541C34.4108 143.541 38.6442 138.041 40.3108 135.541C42.6441 135.041 47.9108 134.341 50.3108 135.541C53.3108 137.041 65.3108 143.541 63.3108 145.541C61.3108 147.541 55.3108 143.041 53.3108 143.541C51.3108 144.041 54.3108 150.041 51.8108 150.041C49.3108 150.041 46.8108 145.541 45.3108 145.541C43.8108 145.541 43.8108 150.041 42.3108 150.041C40.8108 150.041 40.3108 145.541 38.8108 148.041C37.3108 150.541 35.3108 150.541 35.8108 149.041C36.3108 147.541 36.3108 145.541 33.8108 147.041C31.3108 148.541 26.3108 148.041 30.8108 145.541Z" fill="#AA6431"/>
<path d="M30.8108 145.541C34.4108 143.541 38.6442 138.041 40.3108 135.541C42.6441 135.041 47.9108 134.341 50.3108 135.541C53.3108 137.041 65.3108 143.541 63.3108 145.541C61.3108 147.541 55.3108 143.041 53.3108 143.541C51.3108 144.041 54.3108 150.041 51.8108 150.041C49.3108 150.041 46.8108 145.541 45.3108 145.541C43.8108 145.541 43.8108 150.041 42.3108 150.041C40.8108 150.041 40.3108 145.541 38.8108 148.041C37.3108 150.541 35.3108 150.541 35.8108 149.041C36.3108 147.541 36.3108 145.541 33.8108 147.041C31.3108 148.541 26.3108 148.041 30.8108 145.541Z" fill="url(#paint11_linear)"/>
<path d="M96.3109 80.541C94.3109 78.541 94.4775 61.7076 94.8109 53.541C96.311 53.541 111.311 48.041 113.311 49.041C115.311 50.041 120.811 57.541 121.311 61.041C121.811 64.541 108.811 80.541 105.811 82.041C102.811 83.541 98.8109 83.041 96.3109 80.541Z" fill="#AA6431"/>
<path d="M96.3109 80.541C94.3109 78.541 94.4775 61.7076 94.8109 53.541C96.311 53.541 111.311 48.041 113.311 49.041C115.311 50.041 120.811 57.541 121.311 61.041C121.811 64.541 108.811 80.541 105.811 82.041C102.811 83.541 98.8109 83.041 96.3109 80.541Z" fill="url(#paint12_linear)"/>
</g>
<defs>
<linearGradient id="paint0_linear" x1="43.0664" y1="101.31" x2="66.77" y2="108.92" gradientUnits="userSpaceOnUse">
<stop stop-color="white"/>
<stop offset="1" stop-color="white" stop-opacity="0"/>
</linearGradient>
<linearGradient id="paint1_linear" x1="74.0531" y1="98.6124" x2="100.134" y2="106.689" gradientUnits="userSpaceOnUse">
<stop stop-color="white"/>
<stop offset="1" stop-color="white" stop-opacity="0"/>
</linearGradient>
<linearGradient id="paint2_linear" x1="44.051" y1="110.25" x2="59.2143" y2="122.027" gradientUnits="userSpaceOnUse">
<stop stop-color="white"/>
<stop offset="1" stop-color="white" stop-opacity="0"/>
</linearGradient>
<linearGradient id="paint3_linear" x1="79.9201" y1="108.041" x2="96.4965" y2="119.11" gradientUnits="userSpaceOnUse">
<stop stop-color="white"/>
<stop offset="1" stop-color="white" stop-opacity="0"/>
</linearGradient>
<linearGradient id="paint4_linear" x1="50.1688" y1="63.4359" x2="92.3525" y2="128.777" gradientUnits="userSpaceOnUse">
<stop stop-color="white"/>
<stop offset="1" stop-color="white" stop-opacity="0"/>
</linearGradient>
<linearGradient id="paint5_linear" x1="31.5746" y1="83.9682" x2="71.6053" y2="77.7174" gradientUnits="userSpaceOnUse">
<stop stop-color="white"/>
<stop offset="1" stop-color="white" stop-opacity="0"/>
</linearGradient>
<linearGradient id="paint6_linear" x1="51.9851" y1="78.8977" x2="77.5626" y2="75.8665" gradientUnits="userSpaceOnUse">
<stop stop-color="white"/>
<stop offset="1" stop-color="white" stop-opacity="0"/>
</linearGradient>
<linearGradient id="paint7_linear" x1="72.1872" y1="52.6579" x2="93.3441" y2="43.9409" gradientUnits="userSpaceOnUse">
<stop stop-color="white"/>
<stop offset="1" stop-color="white" stop-opacity="0"/>
</linearGradient>
<linearGradient id="paint8_linear" x1="41.4572" y1="78.7124" x2="72.9871" y2="75.263" gradientUnits="userSpaceOnUse">
<stop stop-color="white"/>
<stop offset="1" stop-color="white" stop-opacity="0"/>
</linearGradient>
<linearGradient id="paint9_linear" x1="8.73119" y1="34.7202" x2="75.8908" y2="59.7365" gradientUnits="userSpaceOnUse">
<stop stop-color="white"/>
<stop offset="1" stop-color="white" stop-opacity="0"/>
</linearGradient>
<linearGradient id="paint10_linear" x1="13.4931" y1="101.139" x2="43.7048" y2="100.088" gradientUnits="userSpaceOnUse">
<stop stop-color="white"/>
<stop offset="1" stop-color="white" stop-opacity="0"/>
</linearGradient>
<linearGradient id="paint11_linear" x1="6.26061" y1="143.243" x2="42.669" y2="134.552" gradientUnits="userSpaceOnUse">
<stop stop-color="white"/>
<stop offset="1" stop-color="white" stop-opacity="0"/>
</linearGradient>
<linearGradient id="paint12_linear" x1="77.0147" y1="67.628" x2="106.586" y2="65.1861" gradientUnits="userSpaceOnUse">
<stop stop-color="white"/>
<stop offset="1" stop-color="white" stop-opacity="0"/>
</linearGradient>
<clipPath id="clip0">
<rect width="150" height="150" fill="white"/>
</clipPath>
</defs>
</svg>
