<svg width="150" height="150" viewBox="0 0 150 150" fill="none" xmlns="http://www.w3.org/2000/svg">
<path d="M100.527 106.284L95.1229 108.535C95.1229 109.586 95.3931 112.138 96.474 113.94C97.8251 116.191 100.527 114.84 101.878 113.94C102.959 113.219 101.428 108.535 100.527 106.284Z" fill="#212226"/>
<path d="M100.527 106.284L95.1229 108.535C95.1229 109.586 95.3931 112.138 96.474 113.94C97.8251 116.191 100.527 114.84 101.878 113.94C102.959 113.219 101.428 108.535 100.527 106.284Z" fill="url(#paint0_linear)"/>
<path d="M98.7257 84.2163C98.3654 81.334 96.1736 71.6063 95.1228 67.1028L59.0943 80.6134V87.8191C58.9442 90.8215 59.6348 97.3666 63.5979 99.5283C67.561 101.69 69.4525 104.032 69.9028 104.933L82.0624 99.5283L79.3604 95.0248C78.3096 93.9739 76.8384 91.6021 79.3604 90.5212C81.8824 89.4404 90.9195 102.981 95.1228 109.886C96.9242 109.286 100.527 107.455 100.527 104.933C100.527 101.78 101.878 95.4751 101.878 91.8723C101.878 88.2695 99.176 87.8191 98.7257 84.2163Z" fill="#31374B"/>
<path d="M98.7257 84.2163C98.3654 81.334 96.1736 71.6063 95.1228 67.1028L59.0943 80.6134V87.8191C58.9442 90.8215 59.6348 97.3666 63.5979 99.5283C67.561 101.69 69.4525 104.032 69.9028 104.933L82.0624 99.5283L79.3604 95.0248C78.3096 93.9739 76.8384 91.6021 79.3604 90.5212C81.8824 89.4404 90.9195 102.981 95.1228 109.886C96.9242 109.286 100.527 107.455 100.527 104.933C100.527 101.78 101.878 95.4751 101.878 91.8723C101.878 88.2695 99.176 87.8191 98.7257 84.2163Z" fill="url(#paint1_linear)"/>
<circle cx="81.1619" cy="114.841" r="17.1135" fill="#F18701"/>
<circle cx="81.1619" cy="114.841" r="17.1135" fill="url(#paint2_linear)"/>
<path d="M60.8959 29.7234C55.852 29.7234 52.4893 31.5248 51.4385 32.4255C52.0389 48.0378 54.0505 79.6227 57.2931 81.0638C61.3463 82.8653 71.7044 84.6667 78.4598 84.2163C85.2151 83.766 94.6725 71.6064 95.1229 68.4539C95.4832 65.9319 96.7742 62.2991 97.3747 60.7979C95.5732 52.2411 91.6101 34.5872 90.169 32.4255C88.3676 29.7234 67.2009 29.7234 60.8959 29.7234Z" fill="#8B99A6"/>
<path d="M60.8959 29.7234C55.852 29.7234 52.4893 31.5248 51.4385 32.4255C52.0389 48.0378 54.0505 79.6227 57.2931 81.0638C61.3463 82.8653 71.7044 84.6667 78.4598 84.2163C85.2151 83.766 94.6725 71.6064 95.1229 68.4539C95.4832 65.9319 96.7742 62.2991 97.3747 60.7979C95.5732 52.2411 91.6101 34.5872 90.169 32.4255C88.3676 29.7234 67.2009 29.7234 60.8959 29.7234Z" fill="url(#paint3_linear)"/>
<path d="M83.8643 58.546C85.3054 57.4652 84.4648 45.4857 83.8643 39.6311L63.148 42.3332C62.8477 42.7836 62.4274 44.585 63.148 48.1878C64.0487 52.6914 68.5522 62.1488 72.6054 63.9503C76.6586 65.7517 82.0629 59.8971 83.8643 58.546Z" fill="#AA6431"/>
<path d="M83.8643 58.546C85.3054 57.4652 84.4648 45.4857 83.8643 39.6311L63.148 42.3332C62.8477 42.7836 62.4274 44.585 63.148 48.1878C64.0487 52.6914 68.5522 62.1488 72.6054 63.9503C76.6586 65.7517 82.0629 59.8971 83.8643 58.546Z" fill="url(#paint4_linear)"/>
<path d="M62.6974 46.8368C61.2563 45.0354 59.9953 35.5779 59.5449 31.0744L62.6974 27.9219C70.0532 27.1713 84.7648 26.1205 84.7648 27.9219C84.7648 30.1737 82.9634 43.6843 81.6123 46.8368C80.2612 49.9893 75.3073 53.1418 72.1549 53.5921C69.0024 54.0425 64.4988 49.0886 62.6974 46.8368Z" fill="#AA6431"/>
<path d="M62.6974 46.8368C61.2563 45.0354 59.9953 35.5779 59.5449 31.0744L62.6974 27.9219C70.0532 27.1713 84.7648 26.1205 84.7648 27.9219C84.7648 30.1737 82.9634 43.6843 81.6123 46.8368C80.2612 49.9893 75.3073 53.1418 72.1549 53.5921C69.0024 54.0425 64.4988 49.0886 62.6974 46.8368Z" fill="url(#paint5_linear)"/>
<path d="M59.9952 56.7448C59.9952 54.2228 54.8912 38.8807 52.3392 31.5249C49.1867 31.5249 39.7294 44.5852 38.3783 48.6384C37.0272 52.6916 39.7294 65.3015 39.7294 69.8051C39.7294 74.3086 43.7826 87.8192 45.5839 91.4221C47.3852 95.0249 46.0342 98.1774 45.5839 101.78C45.1335 105.383 49.1867 132.404 49.6371 136.458C50.0874 140.511 59.9952 138.259 59.9952 135.106V101.78C59.9952 99.0781 61.7966 93.2235 61.7966 87.8192C61.7966 82.415 59.9952 81.0639 59.9952 77.4611C59.9952 73.8582 57.7435 67.5533 57.7435 65.3015C57.7435 63.0497 59.9952 59.8973 59.9952 56.7448Z" fill="#AA6431"/>
<path d="M59.9952 56.7448C59.9952 54.2228 54.8912 38.8807 52.3392 31.5249C49.1867 31.5249 39.7294 44.5852 38.3783 48.6384C37.0272 52.6916 39.7294 65.3015 39.7294 69.8051C39.7294 74.3086 43.7826 87.8192 45.5839 91.4221C47.3852 95.0249 46.0342 98.1774 45.5839 101.78C45.1335 105.383 49.1867 132.404 49.6371 136.458C50.0874 140.511 59.9952 138.259 59.9952 135.106V101.78C59.9952 99.0781 61.7966 93.2235 61.7966 87.8192C61.7966 82.415 59.9952 81.0639 59.9952 77.4611C59.9952 73.8582 57.7435 67.5533 57.7435 65.3015C57.7435 63.0497 59.9952 59.8973 59.9952 56.7448Z" fill="url(#paint6_linear)"/>
<path d="M70.8039 28.8227C68.2819 28.8227 61.0462 30.9244 57.7436 31.9752C56.3926 21.3168 57.1131 0 70.8039 0C87.9174 0 87.9174 31.9752 85.6656 31.9752C83.4138 31.9752 73.9564 28.8227 70.8039 28.8227Z" fill="#212226"/>
<path d="M70.8039 28.8227C68.2819 28.8227 61.0462 30.9244 57.7436 31.9752C56.3926 21.3168 57.1131 0 70.8039 0C87.9174 0 87.9174 31.9752 85.6656 31.9752C83.4138 31.9752 73.9564 28.8227 70.8039 28.8227Z" fill="url(#paint7_linear)"/>
<path d="M91.0697 50.4396C89.9889 47.1971 89.4184 36.7789 89.2683 31.9751C105.931 34.2269 111.336 46.3865 111.786 50.4396C112.236 54.4928 97.8251 63.0496 96.474 61.6985C95.1229 60.3474 92.4208 54.4928 91.0697 50.4396Z" fill="#AA6431"/>
<path d="M91.0697 50.4396C89.9889 47.1971 89.4184 36.7789 89.2683 31.9751C105.931 34.2269 111.336 46.3865 111.786 50.4396C112.236 54.4928 97.8251 63.0496 96.474 61.6985C95.1229 60.3474 92.4208 54.4928 91.0697 50.4396Z" fill="url(#paint8_linear)"/>
<path d="M41.9812 144.114C44.8634 143.393 48.2861 139.01 49.6372 136.908C52.0126 133.756 58.6442 136.007 60.896 136.908C63.1477 137.809 71.7045 142.312 70.8038 144.114C69.9031 145.915 65.3995 145.915 63.1477 145.915C60.896 145.915 63.5981 150.419 60.896 149.968C58.1938 149.518 57.2931 146.816 55.4917 146.816C53.6903 146.816 53.2399 149.068 51.4385 149.068C49.6371 149.068 50.9882 146.816 49.6372 146.816C48.2862 146.816 48.286 149.068 46.4846 149.068C44.6832 149.068 47.3853 146.816 45.1336 145.915C43.3321 145.195 41.0804 146.215 40.1798 146.816C39.5793 146.215 39.0989 144.834 41.9812 144.114Z" fill="#AA6431"/>
<path d="M41.9812 144.114C44.8634 143.393 48.2861 139.01 49.6372 136.908C52.0126 133.756 58.6442 136.007 60.896 136.908C63.1477 137.809 71.7045 142.312 70.8038 144.114C69.9031 145.915 65.3995 145.915 63.1477 145.915C60.896 145.915 63.5981 150.419 60.896 149.968C58.1938 149.518 57.2931 146.816 55.4917 146.816C53.6903 146.816 53.2399 149.068 51.4385 149.068C49.6371 149.068 50.9882 146.816 49.6372 146.816C48.2862 146.816 48.286 149.068 46.4846 149.068C44.6832 149.068 47.3853 146.816 45.1336 145.915C43.3321 145.195 41.0804 146.215 40.1798 146.816C39.5793 146.215 39.0989 144.834 41.9812 144.114Z" fill="url(#paint9_linear)"/>
<defs>
<linearGradient id="paint0_linear" x1="85.475" y1="107.553" x2="99.3888" y2="112.294" gradientUnits="userSpaceOnUse">
<stop stop-color="white"/>
<stop offset="1" stop-color="white" stop-opacity="0"/>
</linearGradient>
<linearGradient id="paint1_linear" x1="1.13395" y1="73.2147" x2="80.1208" y2="106.794" gradientUnits="userSpaceOnUse">
<stop stop-color="white"/>
<stop offset="1" stop-color="white" stop-opacity="0"/>
</linearGradient>
<linearGradient id="paint2_linear" x1="51.3106" y1="69.7104" x2="89.3059" y2="128.564" gradientUnits="userSpaceOnUse">
<stop stop-color="white"/>
<stop offset="1" stop-color="white" stop-opacity="0"/>
</linearGradient>
<linearGradient id="paint3_linear" x1="32.2249" y1="63.7623" x2="67.1216" y2="59.4378" gradientUnits="userSpaceOnUse">
<stop stop-color="white"/>
<stop offset="1" stop-color="white" stop-opacity="0"/>
</linearGradient>
<linearGradient id="paint4_linear" x1="48.3234" y1="53.2144" x2="72.5282" y2="50.9568" gradientUnits="userSpaceOnUse">
<stop stop-color="white"/>
<stop offset="1" stop-color="white" stop-opacity="0"/>
</linearGradient>
<linearGradient id="paint5_linear" x1="42.9387" y1="41.6305" x2="70.7687" y2="38.8703" gradientUnits="userSpaceOnUse">
<stop stop-color="white"/>
<stop offset="1" stop-color="white" stop-opacity="0"/>
</linearGradient>
<linearGradient id="paint6_linear" x1="22.3309" y1="90.5276" x2="48.8343" y2="89.9096" gradientUnits="userSpaceOnUse">
<stop stop-color="white"/>
<stop offset="1" stop-color="white" stop-opacity="0"/>
</linearGradient>
<linearGradient id="paint7_linear" x1="17.418" y1="4.56788" x2="73.0455" y2="26.3298" gradientUnits="userSpaceOnUse">
<stop stop-color="white"/>
<stop offset="1" stop-color="white" stop-opacity="0"/>
</linearGradient>
<linearGradient id="paint8_linear" x1="74.4345" y1="48.4261" x2="99.3823" y2="46.4506" gradientUnits="userSpaceOnUse">
<stop stop-color="white"/>
<stop offset="1" stop-color="white" stop-opacity="0"/>
</linearGradient>
<linearGradient id="paint9_linear" x1="19.2161" y1="143.39" x2="52.2905" y2="136.041" gradientUnits="userSpaceOnUse">
<stop stop-color="white"/>
<stop offset="1" stop-color="white" stop-opacity="0"/>
</linearGradient>
</defs>
</svg>
