<svg width="150" height="150" viewBox="0 0 150 150" fill="none" xmlns="http://www.w3.org/2000/svg">
<path d="M23.0119 95.4942C19.9434 97.1989 17.4716 101.887 16.6193 104.018L37.5019 101.461L44.7469 92.511C42.0478 92.3689 35.9677 92.1701 33.2402 92.511C29.8307 92.9372 26.8475 93.3634 23.0119 95.4942Z" fill="#31374B"/>
<path d="M23.0119 95.4942C19.9434 97.1989 17.4716 101.887 16.6193 104.018L37.5019 101.461L44.7469 92.511C42.0478 92.3689 35.9677 92.1701 33.2402 92.511C29.8307 92.9372 26.8475 93.3634 23.0119 95.4942Z" fill="url(#paint0_linear)"/>
<path d="M77.5625 101.461C76.1988 100.779 64.4931 100.04 58.8107 99.7559C51.9919 101.034 58.8107 129.588 60.0893 129.588C61.3678 129.588 71.1699 119.786 73.7269 118.934C76.284 118.081 98.8714 116.377 100.576 116.377C102.281 116.377 132.113 109.984 134.67 109.558C137.227 109.132 141.063 104.018 137.227 102.739C133.392 101.461 108.247 102.739 106.116 104.018C103.985 105.296 96.3143 103.165 92.9049 102.739C89.4955 102.313 79.2672 102.313 77.5625 101.461Z" fill="#AA6431"/>
<path d="M77.5625 101.461C76.1988 100.779 64.4931 100.04 58.8107 99.7559C51.9919 101.034 58.8107 129.588 60.0893 129.588C61.3678 129.588 71.1699 119.786 73.7269 118.934C76.284 118.081 98.8714 116.377 100.576 116.377C102.281 116.377 132.113 109.984 134.67 109.558C137.227 109.132 141.063 104.018 137.227 102.739C133.392 101.461 108.247 102.739 106.116 104.018C103.985 105.296 96.3143 103.165 92.9049 102.739C89.4955 102.313 79.2672 102.313 77.5625 101.461Z" fill="url(#paint1_linear)"/>
<path d="M29.8307 98.4773C24.3756 99.1592 19.3183 101.887 17.4716 103.165C19.3183 111.689 23.0971 128.992 23.438 130.015C23.8642 131.293 26.4213 133.424 27.6998 135.129C28.9783 136.833 41.3375 137.26 46.0254 136.833C50.7133 136.407 62.2201 129.588 61.7939 128.736C61.3678 127.884 60.0892 122.77 59.2369 121.065C58.555 119.701 59.521 112.541 60.0892 109.132L52.418 98.4773C47.1619 98.1932 35.2857 97.7955 29.8307 98.4773Z" fill="#8B99A6"/>
<path d="M29.8307 98.4773C24.3756 99.1592 19.3183 101.887 17.4716 103.165C19.3183 111.689 23.0971 128.992 23.438 130.015C23.8642 131.293 26.4213 133.424 27.6998 135.129C28.9783 136.833 41.3375 137.26 46.0254 136.833C50.7133 136.407 62.2201 129.588 61.7939 128.736C61.3678 127.884 60.0892 122.77 59.2369 121.065C58.555 119.701 59.521 112.541 60.0892 109.132L52.418 98.4773C47.1619 98.1932 35.2857 97.7955 29.8307 98.4773Z" fill="url(#paint2_linear)"/>
<circle cx="131.687" cy="125.753" r="17.0471" fill="#F18701"/>
<circle cx="131.687" cy="125.753" r="17.0471" fill="url(#paint3_linear)"/>
<path d="M1.70309 116.803C0.680267 114.757 0.424561 109.132 0.424561 106.575C4.26015 109.132 12.1018 114.502 12.7837 115.524C13.636 116.803 15.7669 125.326 16.1931 129.162C16.6193 132.998 17.4716 137.259 17.4716 138.964C17.4716 140.669 9.80045 141.095 9.37427 138.964C8.94809 136.833 8.94809 131.293 7.24339 129.162C5.53868 127.031 2.98162 119.36 1.70309 116.803Z" fill="#AA6431"/>
<path d="M1.70309 116.803C0.680267 114.757 0.424561 109.132 0.424561 106.575C4.26015 109.132 12.1018 114.502 12.7837 115.524C13.636 116.803 15.7669 125.326 16.1931 129.162C16.6193 132.998 17.4716 137.259 17.4716 138.964C17.4716 140.669 9.80045 141.095 9.37427 138.964C8.94809 136.833 8.94809 131.293 7.24339 129.162C5.53868 127.031 2.98162 119.36 1.70309 116.803Z" fill="url(#paint4_linear)"/>
<path d="M35.7972 124.048C34.4335 122.343 34.0925 114.814 34.0925 111.263C41.9058 109.984 57.5322 108.194 57.5322 111.263C57.5322 115.098 57.1061 122.343 55.8275 124.048C54.549 125.753 48.5825 132.998 46.4517 132.998C44.3208 132.998 37.5019 126.179 35.7972 124.048Z" fill="#AA6431"/>
<path d="M35.7972 124.048C34.4335 122.343 34.0925 114.814 34.0925 111.263C41.9058 109.984 57.5322 108.194 57.5322 111.263C57.5322 115.098 57.1061 122.343 55.8275 124.048C54.549 125.753 48.5825 132.998 46.4517 132.998C44.3208 132.998 37.5019 126.179 35.7972 124.048Z" fill="url(#paint5_linear)"/>
<path d="M25.9953 106.575C24.9725 105.211 20.7392 105.154 18.7503 105.296C18.182 104.586 16.7897 102.739 15.7668 101.034C14.4883 98.9036 12.3574 98.9036 8.94826 98.9036C5.5391 98.9036 3.83414 100.608 1.70326 103.165C-0.427627 105.722 -0.00145006 106.575 1.70326 110.41C3.40796 114.246 7.66973 116.803 8.94826 118.508C10.2268 120.212 16.6194 130.867 18.7503 131.293C20.8812 131.719 23.8644 130.441 25.9953 129.588C28.1262 128.736 28.9786 121.065 29.4047 118.508C29.8309 115.951 27.2739 108.279 25.9953 106.575Z" fill="#AA6431"/>
<path d="M25.9953 106.575C24.9725 105.211 20.7392 105.154 18.7503 105.296C18.182 104.586 16.7897 102.739 15.7668 101.034C14.4883 98.9036 12.3574 98.9036 8.94826 98.9036C5.5391 98.9036 3.83414 100.608 1.70326 103.165C-0.427627 105.722 -0.00145006 106.575 1.70326 110.41C3.40796 114.246 7.66973 116.803 8.94826 118.508C10.2268 120.212 16.6194 130.867 18.7503 131.293C20.8812 131.719 23.8644 130.441 25.9953 129.588C28.1262 128.736 28.9786 121.065 29.4047 118.508C29.8309 115.951 27.2739 108.279 25.9953 106.575Z" fill="url(#paint6_linear)"/>
<path d="M58.3844 113.82C55.9978 113.82 49.4348 112.541 46.0253 112.541H46.0233C42.6124 112.541 34.0919 112.541 31.9615 110.837C29.8306 109.132 31.9615 81.4302 47.73 81.0041C63.4985 80.5779 61.3677 113.82 58.3844 113.82Z" fill="#212226"/>
<path d="M58.3844 113.82C55.9978 113.82 49.4348 112.541 46.0253 112.541H46.0233C42.6124 112.541 34.0919 112.541 31.9615 110.837C29.8306 109.132 31.9615 81.4302 47.73 81.0041C63.4985 80.5779 61.3677 113.82 58.3844 113.82Z" fill="url(#paint7_linear)"/>
<path d="M0.424812 145.357C1.78858 144.334 7.24364 140.385 9.8007 138.538H12.3575C14.9142 138.538 23.8642 140.243 25.5689 141.095C27.2736 141.947 26.8475 146.635 25.5689 146.635C24.2904 146.635 21.7333 143.652 20.0286 144.078C18.3239 144.505 19.6025 148.34 17.8978 149.619C16.1931 150.897 16.1931 145.357 14.9145 145.357C13.636 145.357 12.7836 149.619 11.0789 149.619C9.37422 149.619 11.0789 145.357 9.8007 145.357C8.52247 145.357 6.39099 149.619 5.96481 148.34C5.53863 147.062 6.81746 143.226 4.68658 145.357C2.5557 147.488 -1.27989 146.635 0.424812 145.357Z" fill="#AA6431"/>
<path d="M0.424812 145.357C1.78858 144.334 7.24364 140.385 9.8007 138.538H12.3575C14.9142 138.538 23.8642 140.243 25.5689 141.095C27.2736 141.947 26.8475 146.635 25.5689 146.635C24.2904 146.635 21.7333 143.652 20.0286 144.078C18.3239 144.505 19.6025 148.34 17.8978 149.619C16.1931 150.897 16.1931 145.357 14.9145 145.357C13.636 145.357 12.7836 149.619 11.0789 149.619C9.37422 149.619 11.0789 145.357 9.8007 145.357C8.52247 145.357 6.39099 149.619 5.96481 148.34C5.53863 147.062 6.81746 143.226 4.68658 145.357C2.5557 147.488 -1.27989 146.635 0.424812 145.357Z" fill="url(#paint8_linear)"/>
<path d="M149.16 106.149C147.882 104.018 138.932 103.592 137.653 103.592C133.108 104.018 126.317 105.722 135.523 109.132C147.029 113.394 145.325 119.36 147.882 120.212C150.439 121.065 150.439 108.279 149.16 106.149Z" fill="#AA6431"/>
<path d="M149.16 106.149C147.882 104.018 138.932 103.592 137.653 103.592C133.108 104.018 126.317 105.722 135.523 109.132C147.029 113.394 145.325 119.36 147.882 120.212C150.439 121.065 150.439 108.279 149.16 106.149Z" fill="url(#paint9_linear)"/>
<defs>
<linearGradient id="paint0_linear" x1="-21.4572" y1="93.9935" x2="8.51938" y2="124.63" gradientUnits="userSpaceOnUse">
<stop stop-color="white"/>
<stop offset="1" stop-color="white" stop-opacity="0"/>
</linearGradient>
<linearGradient id="paint1_linear" x1="1.15729" y1="116.188" x2="86.3997" y2="91.2835" gradientUnits="userSpaceOnUse">
<stop stop-color="white"/>
<stop offset="1" stop-color="white" stop-opacity="0"/>
</linearGradient>
<linearGradient id="paint2_linear" x1="-1.07188" y1="122.36" x2="32.1882" y2="116.778" gradientUnits="userSpaceOnUse">
<stop stop-color="white"/>
<stop offset="1" stop-color="white" stop-opacity="0"/>
</linearGradient>
<linearGradient id="paint3_linear" x1="101.951" y1="80.7976" x2="139.799" y2="139.423" gradientUnits="userSpaceOnUse">
<stop stop-color="white"/>
<stop offset="1" stop-color="white" stop-opacity="0"/>
</linearGradient>
<linearGradient id="paint4_linear" x1="-10.8002" y1="125.21" x2="8.14322" y2="124.208" gradientUnits="userSpaceOnUse">
<stop stop-color="white"/>
<stop offset="1" stop-color="white" stop-opacity="0"/>
</linearGradient>
<linearGradient id="paint5_linear" x1="18.6585" y1="122.474" x2="44.4936" y2="119.76" gradientUnits="userSpaceOnUse">
<stop stop-color="white"/>
<stop offset="1" stop-color="white" stop-opacity="0"/>
</linearGradient>
<linearGradient id="paint6_linear" x1="-18.9609" y1="116.791" x2="13.2816" y2="113.748" gradientUnits="userSpaceOnUse">
<stop stop-color="white"/>
<stop offset="1" stop-color="white" stop-opacity="0"/>
</linearGradient>
<linearGradient id="paint7_linear" x1="-8.27699" y1="85.6885" x2="47.4089" y2="106.751" gradientUnits="userSpaceOnUse">
<stop stop-color="white"/>
<stop offset="1" stop-color="white" stop-opacity="0"/>
</linearGradient>
<linearGradient id="paint8_linear" x1="-17.5764" y1="144.747" x2="10.438" y2="137.783" gradientUnits="userSpaceOnUse">
<stop stop-color="white"/>
<stop offset="1" stop-color="white" stop-opacity="0"/>
</linearGradient>
<linearGradient id="paint9_linear" x1="118.404" y1="112.769" x2="139.332" y2="110.257" gradientUnits="userSpaceOnUse">
<stop stop-color="white"/>
<stop offset="1" stop-color="white" stop-opacity="0"/>
</linearGradient>
</defs>
</svg>
