<svg width="150" height="150" viewBox="0 0 150 150" fill="none" xmlns="http://www.w3.org/2000/svg">
<path d="M48.4156 111.823V103.642L38.4167 102.733V111.823C38.4167 114.55 48.4156 114.095 48.4156 111.823Z" fill="#212226"/>
<path d="M48.4156 111.823V103.642L38.4167 102.733V111.823C38.4167 114.55 48.4156 114.095 48.4156 111.823Z" fill="url(#paint0_linear)"/>
<path d="M36.5987 112.277V103.187H27.5089C27.8119 105.46 28.4179 110.459 28.4179 112.277C28.4179 114.55 36.5987 114.095 36.5987 112.277Z" fill="#212226"/>
<path d="M36.5987 112.277V103.187H27.5089C27.8119 105.46 28.4179 110.459 28.4179 112.277C28.4179 114.55 36.5987 114.095 36.5987 112.277Z" fill="url(#paint1_linear)"/>
<path d="M58.4141 82.2808C60.9593 76.8269 60.9896 69.7066 60.6866 66.8281L27.509 72.282C27.206 75.615 26.6 82.7353 26.6 84.5533C26.6 86.8258 28.8724 103.187 30.2359 104.096C31.5994 105.005 34.7808 103.187 36.5988 104.096C38.4168 105.005 37.5075 95.0066 38.4165 96.3701C39.3255 97.7336 37.962 101.824 38.4165 103.187C38.871 104.551 47.5063 104.096 48.4153 103.187C49.3243 102.278 49.3243 101.824 50.2333 99.097C51.1423 96.3701 55.2327 89.0982 58.4141 82.2808Z" fill="#31374B"/>
<path d="M58.4141 82.2808C60.9593 76.8269 60.9896 69.7066 60.6866 66.8281L27.509 72.282C27.206 75.615 26.6 82.7353 26.6 84.5533C26.6 86.8258 28.8724 103.187 30.2359 104.096C31.5994 105.005 34.7808 103.187 36.5988 104.096C38.4168 105.005 37.5075 95.0066 38.4165 96.3701C39.3255 97.7336 37.962 101.824 38.4165 103.187C38.871 104.551 47.5063 104.096 48.4153 103.187C49.3243 102.278 49.3243 101.824 50.2333 99.097C51.1423 96.3701 55.2327 89.0982 58.4141 82.2808Z" fill="url(#paint2_linear)"/>
<path d="M31.1449 30.923C27.509 31.2866 23.2671 32.2865 21.6006 32.741C22.5096 46.0728 24.8729 73.2817 27.0545 75.4633C29.7814 78.1902 40.6892 79.5537 43.8707 79.5537C47.0521 79.5537 60.6869 69.5549 60.6869 67.2824C60.6869 65.4645 61.8988 61.677 62.5048 60.0106C61.7473 49.4057 59.8688 28.1052 58.4144 27.7416C56.5964 27.2871 35.6898 30.4685 31.1449 30.923Z" fill="#8B99A6"/>
<path d="M31.1449 30.923C27.509 31.2866 23.2671 32.2865 21.6006 32.741C22.5096 46.0728 24.8729 73.2817 27.0545 75.4633C29.7814 78.1902 40.6892 79.5537 43.8707 79.5537C47.0521 79.5537 60.6869 69.5549 60.6869 67.2824C60.6869 65.4645 61.8988 61.677 62.5048 60.0106C61.7473 49.4057 59.8688 28.1052 58.4144 27.7416C56.5964 27.2871 35.6898 30.4685 31.1449 30.923Z" fill="url(#paint3_linear)"/>
<path d="M31.5994 45.9213C31.2358 44.4669 30.539 36.5285 30.236 32.7411L38.8713 26.3782C44.3252 27.2872 55.233 29.6505 55.233 31.8321C55.233 34.559 53.415 44.1033 52.9605 45.9213C52.5061 47.7393 44.7797 55.0111 42.9617 55.0111C41.1438 55.0111 32.0539 47.7393 31.5994 45.9213Z" fill="#AA6431"/>
<path d="M31.5994 45.9213C31.2358 44.4669 30.539 36.5285 30.236 32.7411L38.8713 26.3782C44.3252 27.2872 55.233 29.6505 55.233 31.8321C55.233 34.559 53.415 44.1033 52.9605 45.9213C52.5061 47.7393 44.7797 55.0111 42.9617 55.0111C41.1438 55.0111 32.0539 47.7393 31.5994 45.9213Z" fill="url(#paint4_linear)"/>
<path d="M29.3272 33.1958C31.5997 33.1958 39.7805 31.8323 42.053 31.8323C45.6892 31.8323 52.506 33.1958 56.142 33.1958C59.7779 33.1958 58.4147 -0.891122 41.144 0.0178618C23.8733 0.926845 27.0548 33.1958 29.3272 33.1958Z" fill="#212226"/>
<path d="M29.3272 33.1958C31.5997 33.1958 39.7805 31.8323 42.053 31.8323C45.6892 31.8323 52.506 33.1958 56.142 33.1958C59.7779 33.1958 58.4147 -0.891122 41.144 0.0178618C23.8733 0.926845 27.0548 33.1958 29.3272 33.1958Z" fill="url(#paint5_linear)"/>
<path d="M36.5988 59.1018C34.7809 56.3748 32.9629 49.103 32.9629 47.285C39.0228 45.164 51.3244 41.6493 52.0515 44.558C52.9605 48.194 52.506 52.2844 51.1426 54.1024C49.7791 55.9203 38.4168 61.8287 36.5988 59.1018Z" fill="#AA6431"/>
<path d="M36.5988 59.1018C34.7809 56.3748 32.9629 49.103 32.9629 47.285C39.0228 45.164 51.3244 41.6493 52.0515 44.558C52.9605 48.194 52.506 52.2844 51.1426 54.1024C49.7791 55.9203 38.4168 61.8287 36.5988 59.1018Z" fill="url(#paint6_linear)"/>
<path d="M10.6927 47.2848C12.147 38.1949 19.3279 31.8321 22.055 32.2866C24.782 32.741 27.3272 50.2844 28.4179 53.1932C29.7814 56.8291 29.3269 64.5555 28.4179 67.2824C27.5089 70.0094 31.5994 88.6435 30.6904 92.7339C29.7814 96.8244 27.9634 134.093 27.0545 137.729C26.1455 141.365 17.0556 140.91 17.0556 138.638C17.0556 136.365 15.2377 95.4609 15.2377 92.7339C15.2377 90.007 9.32919 69.5549 9.32919 67.2824C9.32919 65.0099 8.87469 58.6471 10.6927 47.2848Z" fill="#AA6431"/>
<path d="M10.6927 47.2848C12.147 38.1949 19.3279 31.8321 22.055 32.2866C24.782 32.741 27.3272 50.2844 28.4179 53.1932C29.7814 56.8291 29.3269 64.5555 28.4179 67.2824C27.5089 70.0094 31.5994 88.6435 30.6904 92.7339C29.7814 96.8244 27.9634 134.093 27.0545 137.729C26.1455 141.365 17.0556 140.91 17.0556 138.638C17.0556 136.365 15.2377 95.4609 15.2377 92.7339C15.2377 90.007 9.32919 69.5549 9.32919 67.2824C9.32919 65.0099 8.87469 58.6471 10.6927 47.2848Z" fill="url(#paint7_linear)"/>
<path d="M72.9581 32.2867C70.6856 29.1052 59.7778 25.4693 57.9599 24.5603C55.2329 30.0142 61.1413 58.6472 62.0503 59.5562C62.9593 60.4651 65.6862 55.9202 67.5042 55.9202C69.3222 55.9202 83.4114 77.2813 84.7749 80.9173C86.1383 84.5532 113.408 108.187 113.408 110.005C113.408 111.823 117.953 111.823 120.225 111.823C122.498 111.823 119.316 107.278 121.134 106.823C122.952 106.369 127.497 108.187 128.406 110.005C129.315 111.823 133.86 111.823 136.132 111.823C138.405 111.823 137.95 110.914 136.132 108.187C134.314 105.46 126.588 101.369 125.225 100.915C123.861 100.46 117.953 100.46 116.589 100.46C115.226 100.46 116.135 99.0969 113.408 97.7335C110.681 96.37 92.9557 65.919 91.5922 64.5556C90.2288 63.1921 85.2294 51.3753 83.4114 49.5573C81.5934 47.7394 75.2305 35.4681 72.9581 32.2867Z" fill="#AA6431"/>
<path d="M72.9581 32.2867C70.6856 29.1052 59.7778 25.4693 57.9599 24.5603C55.2329 30.0142 61.1413 58.6472 62.0503 59.5562C62.9593 60.4651 65.6862 55.9202 67.5042 55.9202C69.3222 55.9202 83.4114 77.2813 84.7749 80.9173C86.1383 84.5532 113.408 108.187 113.408 110.005C113.408 111.823 117.953 111.823 120.225 111.823C122.498 111.823 119.316 107.278 121.134 106.823C122.952 106.369 127.497 108.187 128.406 110.005C129.315 111.823 133.86 111.823 136.132 111.823C138.405 111.823 137.95 110.914 136.132 108.187C134.314 105.46 126.588 101.369 125.225 100.915C123.861 100.46 117.953 100.46 116.589 100.46C115.226 100.46 116.135 99.0969 113.408 97.7335C110.681 96.37 92.9557 65.919 91.5922 64.5556C90.2288 63.1921 85.2294 51.3753 83.4114 49.5573C81.5934 47.7394 75.2305 35.4681 72.9581 32.2867Z" fill="url(#paint8_linear)"/>
<path d="M8.42043 146.364C9.51121 145.273 15.2378 140.456 17.9648 138.183C19.1767 137.729 22.4187 136.82 25.691 136.82C29.7814 136.82 37.5078 145.455 36.1443 146.364C34.7808 147.273 31.1449 144.092 29.7814 145.455C28.4179 146.819 28.8724 150 27.9635 150C27.0545 150 25.2365 146.364 23.873 146.364C22.5096 146.364 21.6006 150 20.2371 150C18.8736 150 18.8736 146.364 17.9648 148.182C17.0559 150 17.0557 150 15.2377 150C13.4197 150 16.6012 145.455 15.2377 145.455C13.8742 145.455 12.0564 147.273 10.6929 148.182C9.32941 149.091 7.05695 147.728 8.42043 146.364Z" fill="#AA6431"/>
<path d="M8.42043 146.364C9.51121 145.273 15.2378 140.456 17.9648 138.183C19.1767 137.729 22.4187 136.82 25.691 136.82C29.7814 136.82 37.5078 145.455 36.1443 146.364C34.7808 147.273 31.1449 144.092 29.7814 145.455C28.4179 146.819 28.8724 150 27.9635 150C27.0545 150 25.2365 146.364 23.873 146.364C22.5096 146.364 21.6006 150 20.2371 150C18.8736 150 18.8736 146.364 17.9648 148.182C17.0559 150 17.0557 150 15.2377 150C13.4197 150 16.6012 145.455 15.2377 145.455C13.8742 145.455 12.0564 147.273 10.6929 148.182C9.32941 149.091 7.05695 147.728 8.42043 146.364Z" fill="url(#paint9_linear)"/>
<circle cx="122.952" cy="125.457" r="18.1797" fill="#F18701"/>
<circle cx="122.952" cy="125.457" r="18.1797" fill="url(#paint10_linear)"/>
<defs>
<linearGradient id="paint0_linear" x1="24.8813" y1="104.3" x2="43.8251" y2="111.638" gradientUnits="userSpaceOnUse">
<stop stop-color="white"/>
<stop offset="1" stop-color="white" stop-opacity="0"/>
</linearGradient>
<linearGradient id="paint1_linear" x1="15.204" y1="104.706" x2="32.6991" y2="111.064" gradientUnits="userSpaceOnUse">
<stop stop-color="white"/>
<stop offset="1" stop-color="white" stop-opacity="0"/>
</linearGradient>
<linearGradient id="paint2_linear" x1="-19.72" y1="72.1897" x2="45.1059" y2="97.3044" gradientUnits="userSpaceOnUse">
<stop stop-color="white"/>
<stop offset="1" stop-color="white" stop-opacity="0"/>
</linearGradient>
<linearGradient id="paint3_linear" x1="4.49166" y1="60.0477" x2="35.6233" y2="56.4331" gradientUnits="userSpaceOnUse">
<stop stop-color="white"/>
<stop offset="1" stop-color="white" stop-opacity="0"/>
</linearGradient>
<linearGradient id="paint4_linear" x1="13.7765" y1="42.1497" x2="41.3999" y2="39.618" gradientUnits="userSpaceOnUse">
<stop stop-color="white"/>
<stop offset="1" stop-color="white" stop-opacity="0"/>
</linearGradient>
<linearGradient id="paint5_linear" x1="-13.4597" y1="4.74225" x2="43.8819" y2="26.9593" gradientUnits="userSpaceOnUse">
<stop stop-color="white"/>
<stop offset="1" stop-color="white" stop-opacity="0"/>
</linearGradient>
<linearGradient id="paint6_linear" x1="20.0824" y1="52.4622" x2="41.5426" y2="49.7679" gradientUnits="userSpaceOnUse">
<stop stop-color="white"/>
<stop offset="1" stop-color="white" stop-opacity="0"/>
</linearGradient>
<linearGradient id="paint7_linear" x1="-4.90742" y1="91.828" x2="19.0902" y2="91.3261" gradientUnits="userSpaceOnUse">
<stop stop-color="white"/>
<stop offset="1" stop-color="white" stop-opacity="0"/>
</linearGradient>
<linearGradient id="paint8_linear" x1="4.29065" y1="72.6258" x2="93.0805" y2="64.0351" gradientUnits="userSpaceOnUse">
<stop stop-color="white"/>
<stop offset="1" stop-color="white" stop-opacity="0"/>
</linearGradient>
<linearGradient id="paint9_linear" x1="-10.6367" y1="144.08" x2="19.3781" y2="137.313" gradientUnits="userSpaceOnUse">
<stop stop-color="white"/>
<stop offset="1" stop-color="white" stop-opacity="0"/>
</linearGradient>
<linearGradient id="paint10_linear" x1="91.2412" y1="77.5157" x2="131.604" y2="140.036" gradientUnits="userSpaceOnUse">
<stop stop-color="white"/>
<stop offset="1" stop-color="white" stop-opacity="0"/>
</linearGradient>
</defs>
</svg>
