<svg width="150" height="150" viewBox="0 0 150 150" fill="none" xmlns="http://www.w3.org/2000/svg">
<path d="M149.955 102.307C149.438 106.444 140.69 116.096 136.381 120.405C133.365 116.527 127.979 108.642 130.564 108.125C133.796 107.478 138.967 99.7218 141.552 97.1363C144.138 94.5509 150.601 97.1363 149.955 102.307Z" fill="#212226"/>
<path d="M149.955 102.307C149.438 106.444 140.69 116.096 136.381 120.405C133.365 116.527 127.979 108.642 130.564 108.125C133.796 107.478 138.967 99.7218 141.552 97.1363C144.138 94.5509 150.601 97.1363 149.955 102.307Z" fill="url(#paint0_linear)"/>
<path d="M53.0014 143.674C45.2451 145.225 41.5824 139.581 40.7206 136.564C43.0906 129.023 48.8647 113.683 53.0014 112.649C58.1722 111.356 126.686 104.246 131.211 104.246C135.735 104.246 140.906 122.344 135.089 123.637C129.272 124.93 62.6967 141.735 53.0014 143.674Z" fill="#31374B"/>
<path d="M53.0014 143.674C45.2451 145.225 41.5824 139.581 40.7206 136.564C43.0906 129.023 48.8647 113.683 53.0014 112.649C58.1722 111.356 126.686 104.246 131.211 104.246C135.735 104.246 140.906 122.344 135.089 123.637C129.272 124.93 62.6967 141.735 53.0014 143.674Z" fill="url(#paint1_linear)"/>
<path d="M51.0622 6H0V10.5245H51.0622V6Z" fill="#0E0E2C"/>
<path d="M47.1841 49.9524H16.1589V53.8305H47.1841V49.9524Z" fill="#0E0E2C"/>
<path d="M0 32.5006L42.0132 10.5244H32.9642L0 27.3297V32.5006Z" fill="#0E0E2C"/>
<path d="M53.0013 84.8557C50.845 82.1387 47.3787 76.0362 44.8714 74.5818C38.9905 73.8365 34.0199 71.9754 32.821 73.8126C31.3223 76.109 28.0228 88.6913 28.0228 88.6913C28.0228 88.6913 29.6468 112.127 30.9764 118.452C32.306 124.778 38.1351 138.536 41.3669 137.857C44.5987 137.178 47.1481 125.267 49.1232 121.052C51.0984 116.837 57.0309 115.798 56.2331 112.003C55.4353 108.208 55.6967 88.252 53.0013 84.8557Z" fill="#8B99A6"/>
<path d="M53.0013 84.8557C50.845 82.1387 47.3787 76.0362 44.8714 74.5818C38.9905 73.8365 34.0199 71.9754 32.821 73.8126C31.3223 76.109 28.0228 88.6913 28.0228 88.6913C28.0228 88.6913 29.6468 112.127 30.9764 118.452C32.306 124.778 38.1351 138.536 41.3669 137.857C44.5987 137.178 47.1481 125.267 49.1232 121.052C51.0984 116.837 57.0309 115.798 56.2331 112.003C55.4353 108.208 55.6967 88.252 53.0013 84.8557Z" fill="url(#paint2_linear)"/>
<path d="M16.1589 75.8067L42.0132 53.8306H36.4446L16.1589 70.6359V75.8067Z" fill="#0E0E2C"/>
<path d="M57.5258 30.5616C58.0429 27.4591 54.294 27.1144 52.3549 27.3298C50.8109 27.3298 48.2643 51.0296 47.1841 62.8795C50.2004 62.4486 56.2331 61.0697 56.2331 59.0014C56.2331 56.4159 54.9404 42.8424 54.294 37.6716C53.6477 32.5007 56.8794 34.4397 57.5258 30.5616Z" fill="#AA6431"/>
<path d="M57.5258 30.5616C58.0429 27.4591 54.294 27.1144 52.3549 27.3298C50.8109 27.3298 48.2643 51.0296 47.1841 62.8795C50.2004 62.4486 56.2331 61.0697 56.2331 59.0014C56.2331 56.4159 54.9404 42.8424 54.294 37.6716C53.6477 32.5007 56.8794 34.4397 57.5258 30.5616Z" fill="url(#paint3_linear)"/>
<path d="M54.294 31.8543L51.0622 7.29272H47.8304L51.0622 31.8543H54.294Z" fill="#0E0E2C"/>
<path d="M56.0125 71.3655C56.0125 68.263 53.427 64.4711 52.1343 62.9629L43.0853 66.1947L39.8535 81.7073C42.8699 82.3536 49.5489 83.2585 52.1343 81.7073C55.3661 79.7682 56.0125 75.2437 56.0125 71.3655Z" fill="#AA6431"/>
<path d="M56.0125 71.3655C56.0125 68.263 53.427 64.4711 52.1343 62.9629L43.0853 66.1947L39.8535 81.7073C42.8699 82.3536 49.5489 83.2585 52.1343 81.7073C55.3661 79.7682 56.0125 75.2437 56.0125 71.3655Z" fill="url(#paint4_linear)"/>
<path d="M30.1581 60.3778C28.6069 62.4461 31.6663 68.9959 33.3899 72.0122C35.7599 71.5812 41.4048 70.4606 45.0244 69.4265C49.5489 68.1338 52.7807 62.9629 52.1343 60.3778C51.488 57.7927 41.7926 55.8533 39.2072 55.2069C36.6217 54.5606 32.0972 57.7923 30.1581 60.3778Z" fill="#212226"/>
<path d="M30.1581 60.3778C28.6069 62.4461 31.6663 68.9959 33.3899 72.0122C35.7599 71.5812 41.4048 70.4606 45.0244 69.4265C49.5489 68.1338 52.7807 62.9629 52.1343 60.3778C51.488 57.7927 41.7926 55.8533 39.2072 55.2069C36.6217 54.5606 32.0972 57.7923 30.1581 60.3778Z" fill="url(#paint5_linear)"/>
<path d="M41.546 48.6911C41.8239 44.5638 46.7511 22.6968 49.18 12.2793C49.4766 11.0036 55.8027 10.1339 56.9188 12.8003C58.0349 15.4667 53.0864 21.6118 51.623 24.1045C50.1595 26.5973 52.0878 36.4444 51.9142 39.024C51.7405 41.6036 49.7931 60.9071 48.8877 64.7331C47.9823 68.559 46.3886 72.9865 46.0846 77.5008C45.7807 82.0151 48.4905 80.254 50.8965 83.0073C53.3024 85.7606 50.4623 89.4563 50.2886 92.0359C50.115 94.6155 45.8548 100.159 43.2752 99.9854C40.6956 99.8117 34.935 98.776 32.5725 95.3779C30.21 91.9797 30.2597 81.6179 31.8969 76.5456C33.534 71.4732 36.0268 72.9367 38.9971 67.3063C41.9675 61.6759 41.1987 53.8503 41.546 48.6911Z" fill="#AA6431"/>
<path d="M41.546 48.6911C41.8239 44.5638 46.7511 22.6968 49.18 12.2793C49.4766 11.0036 55.8027 10.1339 56.9188 12.8003C58.0349 15.4667 53.0864 21.6118 51.623 24.1045C50.1595 26.5973 52.0878 36.4444 51.9142 39.024C51.7405 41.6036 49.7931 60.9071 48.8877 64.7331C47.9823 68.559 46.3886 72.9865 46.0846 77.5008C45.7807 82.0151 48.4905 80.254 50.8965 83.0073C53.3024 85.7606 50.4623 89.4563 50.2886 92.0359C50.115 94.6155 45.8548 100.159 43.2752 99.9854C40.6956 99.8117 34.935 98.776 32.5725 95.3779C30.21 91.9797 30.2597 81.6179 31.8969 76.5456C33.534 71.4732 36.0268 72.9367 38.9971 67.3063C41.9675 61.6759 41.1987 53.8503 41.546 48.6911Z" fill="url(#paint6_linear)"/>
<defs>
<linearGradient id="paint0_linear" x1="102.649" y1="99.5911" x2="141.65" y2="113.321" gradientUnits="userSpaceOnUse">
<stop stop-color="white"/>
<stop offset="1" stop-color="white" stop-opacity="0"/>
</linearGradient>
<linearGradient id="paint1_linear" x1="-90.5322" y1="109.917" x2="11.1606" y2="215.474" gradientUnits="userSpaceOnUse">
<stop stop-color="white"/>
<stop offset="1" stop-color="white" stop-opacity="0"/>
</linearGradient>
<linearGradient id="paint2_linear" x1="18.4474" y1="117.737" x2="39.9147" y2="111.731" gradientUnits="userSpaceOnUse">
<stop stop-color="white"/>
<stop offset="1" stop-color="white" stop-opacity="0"/>
</linearGradient>
<linearGradient id="paint3_linear" x1="40.3426" y1="46.8879" x2="51.91" y2="46.5335" gradientUnits="userSpaceOnUse">
<stop stop-color="white"/>
<stop offset="1" stop-color="white" stop-opacity="0"/>
</linearGradient>
<linearGradient id="paint4_linear" x1="29.2135" y1="73.7594" x2="47.0864" y2="72.2126" gradientUnits="userSpaceOnUse">
<stop stop-color="white"/>
<stop offset="1" stop-color="white" stop-opacity="0"/>
</linearGradient>
<linearGradient id="paint5_linear" x1="-0.704551" y1="57.536" x2="36.4087" y2="78.5316" gradientUnits="userSpaceOnUse">
<stop stop-color="white"/>
<stop offset="1" stop-color="white" stop-opacity="0"/>
</linearGradient>
<linearGradient id="paint6_linear" x1="18.2657" y1="58.0548" x2="42.2619" y2="59.0611" gradientUnits="userSpaceOnUse">
<stop stop-color="white"/>
<stop offset="1" stop-color="white" stop-opacity="0"/>
</linearGradient>
</defs>
</svg>
