<svg width="150" height="150" viewBox="0 0 150 150" fill="none" xmlns="http://www.w3.org/2000/svg">
<path d="M29.5051 32.0667V25.0189C36.0831 21.1035 49.8968 13.6484 52.528 15.152C55.817 17.0314 55.3471 21.2601 55.3471 25.0189C55.3471 28.7777 54.4074 32.0667 52.528 34.416C50.6486 36.7653 46.8897 33.9461 45.0103 34.416C43.1309 34.8858 47.3596 37.2351 45.0103 38.1748C43.1309 38.9266 33.8904 34.416 29.5051 32.0667Z" fill="#AA6431"/>
<path d="M29.5051 32.0667V25.0189C36.0831 21.1035 49.8968 13.6484 52.528 15.152C55.817 17.0314 55.3471 21.2601 55.3471 25.0189C55.3471 28.7777 54.4074 32.0667 52.528 34.416C50.6486 36.7653 46.8897 33.9461 45.0103 34.416C43.1309 34.8858 47.3596 37.2351 45.0103 38.1748C43.1309 38.9266 33.8904 34.416 29.5051 32.0667Z" fill="url(#paint0_linear)"/>
<path d="M53.9376 14.6821C52.0582 18.0651 37.1795 24.8623 29.975 27.8381C25.7464 29.6473 26.2162 1.52623 34.2037 0.116666C42.1913 -1.2929 56.2869 10.4535 53.9376 14.6821Z" fill="#212226"/>
<path d="M53.9376 14.6821C52.0582 18.0651 37.1795 24.8623 29.975 27.8381C25.7464 29.6473 26.2162 1.52623 34.2037 0.116666C42.1913 -1.2929 56.2869 10.4535 53.9376 14.6821Z" fill="url(#paint1_linear)"/>
<path d="M109.85 106.304C107.971 104.048 106.875 100.352 106.561 98.7859C107.658 96.28 110.602 90.9864 113.609 89.8587C117.368 88.4492 123.476 79.5219 126.765 77.6425C130.054 75.7631 135.222 75.2932 136.632 79.5219C138.042 83.7506 132.403 90.7984 130.054 93.6175C127.705 96.4366 112.2 109.123 109.85 106.304Z" fill="#212226"/>
<path d="M109.85 106.304C107.971 104.048 106.875 100.352 106.561 98.7859C107.658 96.28 110.602 90.9864 113.609 89.8587C117.368 88.4492 123.476 79.5219 126.765 77.6425C130.054 75.7631 135.222 75.2932 136.632 79.5219C138.042 83.7506 132.403 90.7984 130.054 93.6175C127.705 96.4366 112.2 109.123 109.85 106.304Z" fill="url(#paint2_linear)"/>
<path d="M70.8523 98.7859H14V104.894H74.1413L70.8523 98.7859Z" fill="#212226"/>
<path d="M70.8523 98.7859H14V104.894H74.1413L70.8523 98.7859Z" fill="url(#paint3_linear)"/>
<path d="M121.127 83.2807C120.657 79.0521 93.8752 42.8733 88.7068 42.8733C83.4445 42.8733 69.9127 60.1013 63.8046 68.7153L52.0582 85.63L55.8171 100.195C58.7928 100.979 66.2478 102.545 72.262 102.545C79.7796 102.545 88.7068 73.4138 91.526 71.5344C94.3451 69.655 103.742 100.665 107.031 100.195C110.32 99.7256 121.597 87.5094 121.127 83.2807Z" fill="#31374B"/>
<path d="M121.127 83.2807C120.657 79.0521 93.8752 42.8733 88.7068 42.8733C83.4445 42.8733 69.9127 60.1013 63.8046 68.7153L52.0582 85.63L55.8171 100.195C58.7928 100.979 66.2478 102.545 72.262 102.545C79.7796 102.545 88.7068 73.4138 91.526 71.5344C94.3451 69.655 103.742 100.665 107.031 100.195C110.32 99.7256 121.597 87.5094 121.127 83.2807Z" fill="url(#paint4_linear)"/>
<path d="M14 109.593V104.894H74.1413V109.593H14Z" fill="#212226"/>
<path d="M14 109.593V104.894H74.1413V109.593H14Z" fill="url(#paint5_linear)"/>
<path d="M21.5176 54.6196C20.0141 48.6055 26.686 33.0063 30.9147 33.0063C35.1433 33.0064 52.528 43.3431 54.8773 46.1623C57.2266 48.9814 59.5758 59.3182 60.5155 63.077C61.4552 66.8358 65.2141 66.8358 63.8045 70.1248C62.395 73.4138 59.5758 78.5822 57.2266 83.7506C54.8773 88.919 58.6361 88.919 57.2266 91.7381C55.817 94.5572 53.9376 100.195 49.239 100.195C44.5405 100.195 23.397 62.1373 21.5176 54.6196Z" fill="#8B99A6"/>
<path d="M21.5176 54.6196C20.0141 48.6055 26.686 33.0063 30.9147 33.0063C35.1433 33.0064 52.528 43.3431 54.8773 46.1623C57.2266 48.9814 59.5758 59.3182 60.5155 63.077C61.4552 66.8358 65.2141 66.8358 63.8045 70.1248C62.395 73.4138 59.5758 78.5822 57.2266 83.7506C54.8773 88.919 58.6361 88.919 57.2266 91.7381C55.817 94.5572 53.9376 100.195 49.239 100.195C44.5405 100.195 23.397 62.1373 21.5176 54.6196Z" fill="url(#paint6_linear)"/>
<path d="M68.5031 110.532V150H74.1413V110.532H68.5031Z" fill="#ECF1F4"/>
<path d="M14 110.532H71.3222V116.17H14V110.532Z" fill="#ECF1F4"/>
<path d="M27.6258 39.1145C29.8811 34.6039 35.4567 35.6689 37.9626 36.7653C43.131 37.7003 49.2391 42.8734 49.2391 46.6322C49.2391 50.391 46.4199 57.9087 44.0707 60.7278C41.7214 63.547 47.3597 74.8235 49.2391 79.9919C51.1185 85.1603 58.6362 100.196 62.395 100.196C66.1538 100.196 73.2016 102.075 72.7318 103.954C72.2619 105.834 69.4428 103.954 67.0935 103.954C64.7443 103.954 68.9729 107.713 69.4428 110.063C69.9127 112.412 66.6237 114.761 62.395 113.821C58.1663 112.882 54.4075 106.304 53.4678 103.954C52.5281 101.605 40.7817 89.3889 37.9626 85.1603C35.1435 80.9316 27.6258 64.4867 25.2765 60.7278C22.9272 56.969 24.8067 44.7528 27.6258 39.1145Z" fill="#AA6431"/>
<path d="M27.6258 39.1145C29.8811 34.6039 35.4567 35.6689 37.9626 36.7653C43.131 37.7003 49.2391 42.8734 49.2391 46.6322C49.2391 50.391 46.4199 57.9087 44.0707 60.7278C41.7214 63.547 47.3597 74.8235 49.2391 79.9919C51.1185 85.1603 58.6362 100.196 62.395 100.196C66.1538 100.196 73.2016 102.075 72.7318 103.954C72.2619 105.834 69.4428 103.954 67.0935 103.954C64.7443 103.954 68.9729 107.713 69.4428 110.063C69.9127 112.412 66.6237 114.761 62.395 113.821C58.1663 112.882 54.4075 106.304 53.4678 103.954C52.5281 101.605 40.7817 89.3889 37.9626 85.1603C35.1435 80.9316 27.6258 64.4867 25.2765 60.7278C22.9272 56.969 24.8067 44.7528 27.6258 39.1145Z" fill="url(#paint7_linear)"/>
<defs>
<linearGradient id="paint0_linear" x1="12.474" y1="27.7906" x2="40.9108" y2="24.4772" gradientUnits="userSpaceOnUse">
<stop stop-color="white"/>
<stop offset="1" stop-color="white" stop-opacity="0"/>
</linearGradient>
<linearGradient id="paint1_linear" x1="-9.02668" y1="3.98882" x2="41.1217" y2="24.4897" gradientUnits="userSpaceOnUse">
<stop stop-color="white"/>
<stop offset="1" stop-color="white" stop-opacity="0"/>
</linearGradient>
<linearGradient id="paint2_linear" x1="65.5526" y1="80.6104" x2="121.551" y2="104.285" gradientUnits="userSpaceOnUse">
<stop stop-color="white"/>
<stop offset="1" stop-color="white" stop-opacity="0"/>
</linearGradient>
<linearGradient id="paint3_linear" x1="-67.4134" y1="99.6585" x2="-60.3322" y2="129.286" gradientUnits="userSpaceOnUse">
<stop stop-color="white"/>
<stop offset="1" stop-color="white" stop-opacity="0"/>
</linearGradient>
<linearGradient id="paint4_linear" x1="-41.4592" y1="51.3978" x2="79.7337" y2="111.019" gradientUnits="userSpaceOnUse">
<stop stop-color="white"/>
<stop offset="1" stop-color="white" stop-opacity="0"/>
</linearGradient>
<linearGradient id="paint5_linear" x1="-67.4134" y1="105.565" x2="-63.1288" y2="128.87" gradientUnits="userSpaceOnUse">
<stop stop-color="white"/>
<stop offset="1" stop-color="white" stop-opacity="0"/>
</linearGradient>
<linearGradient id="paint6_linear" x1="3.39257" y1="74.9221" x2="36.1305" y2="71.8513" gradientUnits="userSpaceOnUse">
<stop stop-color="white"/>
<stop offset="1" stop-color="white" stop-opacity="0"/>
</linearGradient>
<linearGradient id="paint7_linear" x1="-7.7503" y1="78.8961" x2="46.1137" y2="75.3872" gradientUnits="userSpaceOnUse">
<stop stop-color="white"/>
<stop offset="1" stop-color="white" stop-opacity="0"/>
</linearGradient>
</defs>
</svg>
