<svg width="150" height="150" viewBox="0 0 150 150" fill="none" xmlns="http://www.w3.org/2000/svg">
<path d="M55.7841 97.7637H2.00989V103.582H58.895L55.7841 97.7637Z" fill="#212226"/>
<path d="M55.7841 97.7637H2.00989V103.582H58.895L55.7841 97.7637Z" fill="url(#paint0_linear)"/>
<path d="M2.00989 108.057V103.582H58.895V108.057H2.00989Z" fill="#212226"/>
<path d="M2.00989 108.057V103.582H58.895V108.057H2.00989Z" fill="url(#paint1_linear)"/>
<path d="M135.334 101.926C137.823 97.6297 143.186 100.136 145.111 101.926L139.334 114.009L129.113 115.352C129.713 113.796 132.649 111.436 134.001 108.504C134.982 106.377 134.288 103.733 135.334 101.926Z" fill="#212226"/>
<path d="M135.334 101.926C137.823 97.6297 143.186 100.136 145.111 101.926L139.334 114.009L129.113 115.352C129.713 113.796 132.649 111.436 134.001 108.504C134.982 106.377 134.288 103.733 135.334 101.926Z" fill="url(#paint2_linear)"/>
<path d="M53.562 108.952V146.545H58.895V108.952H53.562Z" fill="#ECF1F4"/>
<path d="M135.779 134.909C133.646 134.551 130.446 131.478 129.113 129.986V119.693C130.594 116.262 135.334 109.22 137.112 106.714C139.334 103.582 142.001 100.449 145.111 100.896C148.222 101.344 150 108.057 150 111.637C150 115.217 145.111 123.721 143.778 125.511C142.445 127.301 142.001 129.986 142.001 133.119C142.001 136.251 138.445 135.356 135.779 134.909Z" fill="#212226"/>
<path d="M135.779 134.909C133.646 134.551 130.446 131.478 129.113 129.986V119.693C130.594 116.262 135.334 109.22 137.112 106.714C139.334 103.582 142.001 100.449 145.111 100.896C148.222 101.344 150 108.057 150 111.637C150 115.217 145.111 123.721 143.778 125.511C142.445 127.301 142.001 129.986 142.001 133.119C142.001 136.251 138.445 135.356 135.779 134.909Z" fill="url(#paint3_linear)"/>
<path d="M2.00989 108.952H56.2285V114.322H2.00989V108.952Z" fill="#ECF1F4"/>
<path d="M5.12085 37.3466V25.7108C11.3427 21.8322 24.3196 14.5225 26.4528 16.3126C29.1192 18.5503 29.1192 22.5781 29.1192 25.7108C29.1192 28.8435 25.5639 35.109 23.7863 36.4516C22.0086 37.7942 19.7865 35.109 18.0089 35.109C16.2312 35.109 18.8977 40.4794 18.0089 39.1368C17.2978 38.0627 9.12058 37.4958 5.12085 37.3466Z" fill="#AA6431"/>
<path d="M5.12085 37.3466V25.7108C11.3427 21.8322 24.3196 14.5225 26.4528 16.3126C29.1192 18.5503 29.1192 22.5781 29.1192 25.7108C29.1192 28.8435 25.5639 35.109 23.7863 36.4516C22.0086 37.7942 19.7865 35.109 18.0089 35.109C16.2312 35.109 18.8977 40.4794 18.0089 39.1368C17.2978 38.0627 9.12058 37.4958 5.12085 37.3466Z" fill="url(#paint4_linear)"/>
<path d="M27.3416 16.7602C24.2306 18.5503 12.3796 24.8158 6.00966 28.8436C-1.54539 15.8652 4.67642 6.01953 12.2315 3.33427C19.7865 0.649009 30.4525 14.9702 27.3416 16.7602Z" fill="#212226"/>
<path d="M27.3416 16.7602C24.2306 18.5503 12.3796 24.8158 6.00966 28.8436C-1.54539 15.8652 4.67642 6.01953 12.2315 3.33427C19.7865 0.649009 30.4525 14.9702 27.3416 16.7602Z" fill="url(#paint5_linear)"/>
<path d="M62.8947 74.9396C60.0505 73.1494 53.4139 72.7019 50.4511 72.7019L36.2299 91.4983C39.1926 94.3326 45.7403 100.091 48.2291 100.449C51.34 100.896 62.8947 107.609 66.4501 109.847C70.0054 112.085 91.7817 117.455 97.5591 119.693C103.336 121.93 126.89 134.461 130.446 134.461C134.001 134.461 135.334 111.19 132.668 112.085C130.001 112.98 121.557 110.295 118.891 108.505C116.225 106.714 97.1147 95.0785 94.8926 94.1835C92.6705 93.2884 66.4501 77.1772 62.8947 74.9396Z" fill="#31374B"/>
<path d="M62.8947 74.9396C60.0505 73.1494 53.4139 72.7019 50.4511 72.7019L36.2299 91.4983C39.1926 94.3326 45.7403 100.091 48.2291 100.449C51.34 100.896 62.8947 107.609 66.4501 109.847C70.0054 112.085 91.7817 117.455 97.5591 119.693C103.336 121.93 126.89 134.461 130.446 134.461C134.001 134.461 135.334 111.19 132.668 112.085C130.001 112.98 121.557 110.295 118.891 108.505C116.225 106.714 97.1147 95.0785 94.8926 94.1835C92.6705 93.2884 66.4501 77.1772 62.8947 74.9396Z" fill="url(#paint6_linear)"/>
<path d="M0.232226 41.8223C0.587757 39.6741 3.93568 37.0486 5.5652 36.0044C19.342 34.6618 32.2301 47.6402 33.1189 49.8779C33.83 51.668 45.5625 65.2432 51.3399 71.807C51.3399 76.4613 43.3405 88.3657 39.3407 93.7361C32.9708 90.0066 19.6087 82.0107 17.12 79.8626C14.0091 77.1774 4.23196 64.1989 2.00988 61.0662C-0.212189 57.9335 -0.212189 44.5075 0.232226 41.8223Z" fill="#8B99A6"/>
<path d="M0.232226 41.8223C0.587757 39.6741 3.93568 37.0486 5.5652 36.0044C19.342 34.6618 32.2301 47.6402 33.1189 49.8779C33.83 51.668 45.5625 65.2432 51.3399 71.807C51.3399 76.4613 43.3405 88.3657 39.3407 93.7361C32.9708 90.0066 19.6087 82.0107 17.12 79.8626C14.0091 77.1774 4.23196 64.1989 2.00988 61.0662C-0.212189 57.9335 -0.212189 44.5075 0.232226 41.8223Z" fill="url(#paint7_linear)"/>
<path d="M2.45431 42.2698C3.52091 39.0475 8.2317 37.9436 10.4538 37.7944C17.12 37.7944 22.0086 42.2698 23.3418 44.955C24.6751 47.6401 23.3418 55.6957 23.3418 59.276C23.3418 62.8563 26.4527 67.7791 28.6748 72.2544C30.8969 76.7298 40.674 92.8409 42.8961 95.9737C45.1181 99.1064 49.5623 100.449 51.3399 101.792C53.1176 103.134 54.4508 108.952 54.8953 111.19C55.3397 113.427 44.6737 113.875 43.7849 111.19C42.8961 108.505 39.7852 104.029 38.4519 101.792C37.1187 99.5539 28.2304 93.736 25.1195 90.6033C22.0086 87.4705 14.0091 74.9396 12.6759 72.2544C11.3426 69.5692 5.56521 63.3038 3.78755 59.276C2.0099 55.2482 1.12107 46.2976 2.45431 42.2698Z" fill="#AA6431"/>
<path d="M2.45431 42.2698C3.52091 39.0475 8.2317 37.9436 10.4538 37.7944C17.12 37.7944 22.0086 42.2698 23.3418 44.955C24.6751 47.6401 23.3418 55.6957 23.3418 59.276C23.3418 62.8563 26.4527 67.7791 28.6748 72.2544C30.8969 76.7298 40.674 92.8409 42.8961 95.9737C45.1181 99.1064 49.5623 100.449 51.3399 101.792C53.1176 103.134 54.4508 108.952 54.8953 111.19C55.3397 113.427 44.6737 113.875 43.7849 111.19C42.8961 108.505 39.7852 104.029 38.4519 101.792C37.1187 99.5539 28.2304 93.736 25.1195 90.6033C22.0086 87.4705 14.0091 74.9396 12.6759 72.2544C11.3426 69.5692 5.56521 63.3038 3.78755 59.276C2.0099 55.2482 1.12107 46.2976 2.45431 42.2698Z" fill="url(#paint8_linear)"/>
<defs>
<linearGradient id="paint0_linear" x1="-74.9955" y1="98.5948" x2="-68.2086" y2="126.793" gradientUnits="userSpaceOnUse">
<stop stop-color="white"/>
<stop offset="1" stop-color="white" stop-opacity="0"/>
</linearGradient>
<linearGradient id="paint1_linear" x1="-74.9955" y1="104.221" x2="-70.8878" y2="126.408" gradientUnits="userSpaceOnUse">
<stop stop-color="white"/>
<stop offset="1" stop-color="white" stop-opacity="0"/>
</linearGradient>
<linearGradient id="paint2_linear" x1="107.455" y1="101.811" x2="136.868" y2="114.468" gradientUnits="userSpaceOnUse">
<stop stop-color="white"/>
<stop offset="1" stop-color="white" stop-opacity="0"/>
</linearGradient>
<linearGradient id="paint3_linear" x1="100.837" y1="105.786" x2="143.527" y2="116.761" gradientUnits="userSpaceOnUse">
<stop stop-color="white"/>
<stop offset="1" stop-color="white" stop-opacity="0"/>
</linearGradient>
<linearGradient id="paint4_linear" x1="-10.6811" y1="28.8786" x2="15.753" y2="26.0225" gradientUnits="userSpaceOnUse">
<stop stop-color="white"/>
<stop offset="1" stop-color="white" stop-opacity="0"/>
</linearGradient>
<linearGradient id="paint5_linear" x1="-31.6868" y1="6.69194" x2="15.3256" y2="26.26" gradientUnits="userSpaceOnUse">
<stop stop-color="white"/>
<stop offset="1" stop-color="white" stop-opacity="0"/>
</linearGradient>
<linearGradient id="paint6_linear" x1="-96.224" y1="81.5247" x2="50.4803" y2="180.29" gradientUnits="userSpaceOnUse">
<stop stop-color="white"/>
<stop offset="1" stop-color="white" stop-opacity="0"/>
</linearGradient>
<linearGradient id="paint7_linear" x1="-21.4738" y1="71.9836" x2="17.4621" y2="66.8955" gradientUnits="userSpaceOnUse">
<stop stop-color="white"/>
<stop offset="1" stop-color="white" stop-opacity="0"/>
</linearGradient>
<linearGradient id="paint8_linear" x1="-33.1494" y1="79.2407" x2="25.6958" y2="74.8815" gradientUnits="userSpaceOnUse">
<stop stop-color="white"/>
<stop offset="1" stop-color="white" stop-opacity="0"/>
</linearGradient>
</defs>
</svg>
