<svg width="150" height="150" viewBox="0 0 150 150" fill="none" xmlns="http://www.w3.org/2000/svg">
<g clip-path="url(#clip0)">
<path d="M21.7613 110.512C19.6573 110.512 15.3322 112.558 13.4327 113.581L22.638 135.937C25.122 136.375 30.4406 137.164 31.8433 136.813C33.5967 136.375 32.2817 127.17 33.5967 125.416C34.9118 123.663 36.6651 118.403 35.3501 115.334C34.0351 112.266 24.3914 110.512 21.7613 110.512Z" fill="#AA6431"/>
<path d="M21.7613 110.512C19.6573 110.512 15.3322 112.558 13.4327 113.581L22.638 135.937C25.122 136.375 30.4406 137.164 31.8433 136.813C33.5967 136.375 32.2817 127.17 33.5967 125.416C34.9118 123.663 36.6651 118.403 35.3501 115.334C34.0351 112.266 24.3914 110.512 21.7613 110.512Z" fill="url(#paint0_linear)"/>
<path d="M27.8981 134.621C21.9366 132.167 16.355 118.987 14.3094 112.704C12.5358 107.882 -4.53956 126.731 1.15895 136.813C6.85747 146.895 35.35 137.69 27.8981 134.621Z" fill="#212226"/>
<path d="M27.8981 134.621C21.9366 132.167 16.355 118.987 14.3094 112.704C12.5358 107.882 -4.53956 126.731 1.15895 136.813C6.85747 146.895 35.35 137.69 27.8981 134.621Z" fill="url(#paint1_linear)"/>
<path d="M130.628 59.191C130.628 62.6977 128.874 65.3278 127.997 66.2045C127.997 70.588 128.699 79.7934 131.504 81.5467C135.011 83.7385 147.723 84.6152 149.476 80.67C151.23 76.7249 148.161 70.5881 146.408 66.2045C144.655 61.821 137.641 48.6706 134.573 45.1638C131.504 41.6571 127.997 42.5338 127.997 46.9172C127.997 51.3007 130.628 54.8075 130.628 59.191Z" fill="#212226"/>
<path d="M130.628 59.191C130.628 62.6977 128.874 65.3278 127.997 66.2045C127.997 70.588 128.699 79.7934 131.504 81.5467C135.011 83.7385 147.723 84.6152 149.476 80.67C151.23 76.7249 148.161 70.5881 146.408 66.2045C144.655 61.821 137.641 48.6706 134.573 45.1638C131.504 41.6571 127.997 42.5338 127.997 46.9172C127.997 51.3007 130.628 54.8075 130.628 59.191Z" fill="url(#paint2_linear)"/>
<path d="M129.312 129.327C126.507 127.573 119.377 128.596 116.162 129.327C113.532 130.203 108.885 132.395 111.34 134.148C114.409 136.34 123.614 137.655 126.682 136.778C129.751 135.902 132.819 131.518 129.312 129.327Z" fill="#AA6431"/>
<path d="M129.312 129.327C126.507 127.573 119.377 128.596 116.162 129.327C113.532 130.203 108.885 132.395 111.34 134.148C114.409 136.34 123.614 137.655 126.682 136.778C129.751 135.902 132.819 131.518 129.312 129.327Z" fill="url(#paint3_linear)"/>
<path d="M119.669 125.82C119.669 131.08 115.87 135.025 113.97 136.34L93.8063 132.833L82.4092 122.751V111.793C82.4092 107.848 73.6423 84.6151 72.7656 81.1083C71.8889 77.6015 74.0806 72.3414 77.1491 69.273C80.2175 66.2046 125.806 63.5745 128.874 64.0128C131.942 64.4512 136.326 83.3001 133.696 84.6151C131.066 85.9302 103.45 86.3685 103.888 88.1219C104.327 89.8753 107.833 93.8204 111.779 99.0806C115.724 104.341 119.669 119.245 119.669 125.82Z" fill="#31374B"/>
<path d="M119.669 125.82C119.669 131.08 115.87 135.025 113.97 136.34L93.8063 132.833L82.4092 122.751V111.793C82.4092 107.848 73.6423 84.6151 72.7656 81.1083C71.8889 77.6015 74.0806 72.3414 77.1491 69.273C80.2175 66.2046 125.806 63.5745 128.874 64.0128C131.942 64.4512 136.326 83.3001 133.696 84.6151C131.066 85.9302 103.45 86.3685 103.888 88.1219C104.327 89.8753 107.833 93.8204 111.779 99.0806C115.724 104.341 119.669 119.245 119.669 125.82Z" fill="url(#paint4_linear)"/>
<path d="M33.1583 139.443C35.2624 142.599 43.3864 143.68 47.1854 143.827H101.102C106.362 143.827 116.513 138.356 116.162 135.902C115.936 134.319 101.637 132.77 93.368 127.135C85.6103 121.848 83.8946 112.429 82.4093 111.793C79.3409 110.478 58.5825 109.635 55.514 110.512C52.4456 111.389 44.9937 115.772 41.0486 116.649C37.1035 117.526 34.035 121.471 31.8433 124.978C29.6516 128.484 30.5282 135.498 33.1583 139.443Z" fill="#8B99A6"/>
<path d="M33.1583 139.443C35.2624 142.599 43.3864 143.68 47.1854 143.827H101.102C106.362 143.827 116.513 138.356 116.162 135.902C115.936 134.319 101.637 132.77 93.368 127.135C85.6103 121.848 83.8946 112.429 82.4093 111.793C79.3409 110.478 58.5825 109.635 55.514 110.512C52.4456 111.389 44.9937 115.772 41.0486 116.649C37.1035 117.526 34.035 121.471 31.8433 124.978C29.6516 128.484 30.5282 135.498 33.1583 139.443Z" fill="url(#paint5_linear)"/>
<path d="M33.5967 124.539C34.9994 122.085 42.3636 118.841 46.3087 119.279C50.2539 119.717 61.2125 127.169 64.281 128.923C67.3494 130.676 76.993 131.991 80.0615 132.43C83.1299 132.868 91.0202 136.813 93.2119 137.69C95.4036 138.566 104.609 137.69 107.239 138.566C109.869 139.443 130.91 144.703 134.417 146.018C137.923 147.333 134.855 147.772 132.225 149.525C129.595 151.279 117.759 149.087 109.869 147.772C101.979 146.457 99.3488 147.772 94.9653 147.772C90.5818 147.772 80.4998 146.457 74.8013 146.018C69.1028 145.58 52.8839 145.58 48.5005 144.703C44.117 143.827 35.35 139.443 33.5967 136.813C31.8433 134.183 31.8433 127.608 33.5967 124.539Z" fill="#AA6431"/>
<path d="M33.5967 124.539C34.9994 122.085 42.3636 118.841 46.3087 119.279C50.2539 119.717 61.2125 127.169 64.281 128.923C67.3494 130.676 76.993 131.991 80.0615 132.43C83.1299 132.868 91.0202 136.813 93.2119 137.69C95.4036 138.566 104.609 137.69 107.239 138.566C109.869 139.443 130.91 144.703 134.417 146.018C137.923 147.333 134.855 147.772 132.225 149.525C129.595 151.279 117.759 149.087 109.869 147.772C101.979 146.457 99.3488 147.772 94.9653 147.772C90.5818 147.772 80.4998 146.457 74.8013 146.018C69.1028 145.58 52.8839 145.58 48.5005 144.703C44.117 143.827 35.35 139.443 33.5967 136.813C31.8433 134.183 31.8433 127.608 33.5967 124.539Z" fill="url(#paint6_linear)"/>
</g>
<defs>
<linearGradient id="paint0_linear" x1="-1.3056" y1="125.048" x2="23.4409" y2="122.844" gradientUnits="userSpaceOnUse">
<stop stop-color="white"/>
<stop offset="1" stop-color="white" stop-opacity="0"/>
</linearGradient>
<linearGradient id="paint1_linear" x1="-39.4365" y1="116.14" x2="14.5239" y2="138.8" gradientUnits="userSpaceOnUse">
<stop stop-color="white"/>
<stop offset="1" stop-color="white" stop-opacity="0"/>
</linearGradient>
<linearGradient id="paint2_linear" x1="98.2125" y1="48.7728" x2="143.718" y2="59.3014" gradientUnits="userSpaceOnUse">
<stop stop-color="white"/>
<stop offset="1" stop-color="white" stop-opacity="0"/>
</linearGradient>
<linearGradient id="paint3_linear" x1="97.3271" y1="133.148" x2="118.599" y2="127.952" gradientUnits="userSpaceOnUse">
<stop stop-color="white"/>
<stop offset="1" stop-color="white" stop-opacity="0"/>
</linearGradient>
<linearGradient id="paint4_linear" x1="-11.2662" y1="74.3042" x2="107.918" y2="117.642" gradientUnits="userSpaceOnUse">
<stop stop-color="white"/>
<stop offset="1" stop-color="white" stop-opacity="0"/>
</linearGradient>
<linearGradient id="paint5_linear" x1="-5.19004" y1="131.16" x2="52.7128" y2="109.502" gradientUnits="userSpaceOnUse">
<stop stop-color="white"/>
<stop offset="1" stop-color="white" stop-opacity="0"/>
</linearGradient>
<linearGradient id="paint6_linear" x1="-36.008" y1="136.281" x2="66.828" y2="100.092" gradientUnits="userSpaceOnUse">
<stop stop-color="white"/>
<stop offset="1" stop-color="white" stop-opacity="0"/>
</linearGradient>
<clipPath id="clip0">
<rect width="150" height="150" fill="white"/>
</clipPath>
</defs>
</svg>
