<svg width="150" height="150" viewBox="0 0 150 150" fill="none" xmlns="http://www.w3.org/2000/svg">
<g clip-path="url(#clip0)">
<path d="M136.028 120.343C135.06 121.633 130.543 121.956 129.253 121.956L131.834 128.085L144.416 119.052C144.523 117.977 144.674 115.503 144.416 114.213C144.093 112.6 139.254 111.955 138.931 114.213C138.609 116.471 136.996 119.052 136.028 120.343Z" fill="#212226"/>
<path d="M136.028 120.343C135.06 121.633 130.543 121.956 129.253 121.956L131.834 128.085L144.416 119.052C144.523 117.977 144.674 115.503 144.416 114.213C144.093 112.6 139.254 111.955 138.931 114.213C138.609 116.471 136.996 119.052 136.028 120.343Z" fill="url(#paint0_linear)"/>
<path d="M98.2821 138.086C95.0559 136.473 91.5072 138.086 90.2167 138.086L87.3132 142.603C88.2811 142.818 91.0555 143.119 94.4107 142.603C98.6047 141.958 101.508 139.699 98.2821 138.086Z" fill="#AA6431"/>
<path d="M98.2821 138.086C95.0559 136.473 91.5072 138.086 90.2167 138.086L87.3132 142.603C88.2811 142.818 91.0555 143.119 94.4107 142.603C98.6047 141.958 101.508 139.699 98.2821 138.086Z" fill="url(#paint1_linear)"/>
<path d="M135.705 122.601C133.899 123.892 132.587 123.139 132.157 122.601C130.221 124.429 125.833 128.602 123.769 130.666C121.188 133.247 130.543 140.667 133.124 140.022C135.705 139.377 147.965 124.537 149.255 122.601C150.545 120.665 149.9 117.117 149.255 115.826C148.61 114.536 145.061 115.504 142.48 115.826C139.899 116.149 137.964 120.988 135.705 122.601Z" fill="#212226"/>
<path d="M135.705 122.601C133.899 123.892 132.587 123.139 132.157 122.601C130.221 124.429 125.833 128.602 123.769 130.666C121.188 133.247 130.543 140.667 133.124 140.022C135.705 139.377 147.965 124.537 149.255 122.601C150.545 120.665 149.9 117.117 149.255 115.826C148.61 114.536 145.061 115.504 142.48 115.826C139.899 116.149 137.964 120.988 135.705 122.601Z" fill="url(#paint2_linear)"/>
<path d="M99.8951 96.1469C95.7657 96.6631 80.1082 113.353 72.7957 121.633L76.667 140.667C80.1082 142.388 84.6033 144.99 86.668 145.507C89.2489 146.152 103.121 121.633 104.734 117.439C106.347 113.245 118.929 136.473 122.801 135.183C126.672 133.893 136.35 121.633 132.156 121.633C127.962 121.633 109.574 99.6956 107.638 98.4052C105.702 97.1147 105.057 95.5017 99.8951 96.1469Z" fill="#31374B"/>
<path d="M99.8951 96.1469C95.7657 96.6631 80.1082 113.353 72.7957 121.633L76.667 140.667C80.1082 142.388 84.6033 144.99 86.668 145.507C89.2489 146.152 103.121 121.633 104.734 117.439C106.347 113.245 118.929 136.473 122.801 135.183C126.672 133.893 136.35 121.633 132.156 121.633C127.962 121.633 109.574 99.6956 107.638 98.4052C105.702 97.1147 105.057 95.5017 99.8951 96.1469Z" fill="url(#paint3_linear)"/>
<path d="M16.0158 120.988C14.4672 120.988 11.2841 122.494 9.88611 123.246L16.661 139.7C18.4891 140.022 22.4035 140.603 23.4359 140.345C24.7263 140.022 23.7585 133.247 24.7263 131.957C25.6941 130.666 26.9846 126.795 26.0168 124.537C25.0489 122.278 17.9514 120.988 16.0158 120.988Z" fill="#AA6431"/>
<path d="M16.0158 120.988C14.4672 120.988 11.2841 122.494 9.88611 123.246L16.661 139.7C18.4891 140.022 22.4035 140.603 23.4359 140.345C24.7263 140.022 23.7585 133.247 24.7263 131.957C25.6941 130.666 26.9846 126.795 26.0168 124.537C25.0489 122.278 17.9514 120.988 16.0158 120.988Z" fill="url(#paint4_linear)"/>
<path d="M24.4037 142.28C25.9522 144.603 31.9313 145.399 34.7273 145.507H74.4087C78.2801 145.507 85.9582 145.055 85.7002 143.248C85.3775 140.99 75.0539 120.988 72.7956 120.02C70.5373 119.052 43.1152 120.343 40.8569 120.988C38.5987 121.633 33.1142 124.859 30.2107 125.505C27.3072 126.15 25.0489 129.053 23.4358 131.634C21.8228 134.215 22.468 139.377 24.4037 142.28Z" fill="#8B99A6"/>
<path d="M24.4037 142.28C25.9522 144.603 31.9313 145.399 34.7273 145.507H74.4087C78.2801 145.507 85.9582 145.055 85.7002 143.248C85.3775 140.99 75.0539 120.988 72.7956 120.02C70.5373 119.052 43.1152 120.343 40.8569 120.988C38.5987 121.633 33.1142 124.859 30.2107 125.505C27.3072 126.15 25.0489 129.053 23.4358 131.634C21.8228 134.215 22.468 139.377 24.4037 142.28Z" fill="url(#paint5_linear)"/>
<path d="M24.7264 131.312C25.7587 129.505 31.1786 127.118 34.0822 127.44C36.9857 127.763 45.051 133.247 47.3093 134.538C49.5676 135.828 56.6651 136.796 58.9234 137.119C61.1817 137.441 66.9887 140.345 68.6018 140.99C70.2148 141.635 76.9897 140.99 78.9254 141.635C80.861 142.28 96.3465 146.152 98.9274 147.12C101.508 148.087 99.25 148.41 97.3143 149.7C95.3786 150.991 86.6681 149.378 80.861 148.41C75.054 147.442 73.1183 148.41 69.8922 148.41C66.6661 148.41 59.246 147.442 55.052 147.12C50.858 146.797 38.9214 146.797 35.6952 146.152C32.4691 145.507 26.0168 142.28 24.7264 140.345C23.4359 138.409 23.4359 133.57 24.7264 131.312Z" fill="#AA6431"/>
<path d="M24.7264 131.312C25.7587 129.505 31.1786 127.118 34.0822 127.44C36.9857 127.763 45.051 133.247 47.3093 134.538C49.5676 135.828 56.6651 136.796 58.9234 137.119C61.1817 137.441 66.9887 140.345 68.6018 140.99C70.2148 141.635 76.9897 140.99 78.9254 141.635C80.861 142.28 96.3465 146.152 98.9274 147.12C101.508 148.087 99.25 148.41 97.3143 149.7C95.3786 150.991 86.6681 149.378 80.861 148.41C75.054 147.442 73.1183 148.41 69.8922 148.41C66.6661 148.41 59.246 147.442 55.052 147.12C50.858 146.797 38.9214 146.797 35.6952 146.152C32.4691 145.507 26.0168 142.28 24.7264 140.345C23.4359 138.409 23.4359 133.57 24.7264 131.312Z" fill="url(#paint6_linear)"/>
<path d="M20.5324 138.732C16.1448 136.925 12.0369 127.225 10.5313 122.601C9.22605 119.052 -3.34101 132.925 0.85296 140.345C5.04693 147.765 26.0168 140.99 20.5324 138.732Z" fill="#212226"/>
<path d="M20.5324 138.732C16.1448 136.925 12.0369 127.225 10.5313 122.601C9.22605 119.052 -3.34101 132.925 0.85296 140.345C5.04693 147.765 26.0168 140.99 20.5324 138.732Z" fill="url(#paint7_linear)"/>
</g>
<defs>
<linearGradient id="paint0_linear" x1="108.534" y1="114.942" x2="136.798" y2="126.93" gradientUnits="userSpaceOnUse">
<stop stop-color="white"/>
<stop offset="1" stop-color="white" stop-opacity="0"/>
</linearGradient>
<linearGradient id="paint1_linear" x1="79.1826" y1="140.409" x2="92.2231" y2="137.346" gradientUnits="userSpaceOnUse">
<stop stop-color="white"/>
<stop offset="1" stop-color="white" stop-opacity="0"/>
</linearGradient>
<linearGradient id="paint2_linear" x1="87.2097" y1="118.729" x2="135.349" y2="140.656" gradientUnits="userSpaceOnUse">
<stop stop-color="white"/>
<stop offset="1" stop-color="white" stop-opacity="0"/>
</linearGradient>
<linearGradient id="paint3_linear" x1="-8.95952" y1="103.074" x2="94.7715" y2="156.833" gradientUnits="userSpaceOnUse">
<stop stop-color="white"/>
<stop offset="1" stop-color="white" stop-opacity="0"/>
</linearGradient>
<linearGradient id="paint4_linear" x1="-0.960953" y1="131.685" x2="17.2518" y2="130.064" gradientUnits="userSpaceOnUse">
<stop stop-color="white"/>
<stop offset="1" stop-color="white" stop-opacity="0"/>
</linearGradient>
<linearGradient id="paint5_linear" x1="-3.9066" y1="135.789" x2="39.239" y2="120.256" gradientUnits="userSpaceOnUse">
<stop stop-color="white"/>
<stop offset="1" stop-color="white" stop-opacity="0"/>
</linearGradient>
<linearGradient id="paint6_linear" x1="-26.501" y1="139.953" x2="49.1838" y2="113.319" gradientUnits="userSpaceOnUse">
<stop stop-color="white"/>
<stop offset="1" stop-color="white" stop-opacity="0"/>
</linearGradient>
<linearGradient id="paint7_linear" x1="-29.0243" y1="125.13" x2="10.6893" y2="141.807" gradientUnits="userSpaceOnUse">
<stop stop-color="white"/>
<stop offset="1" stop-color="white" stop-opacity="0"/>
</linearGradient>
<clipPath id="clip0">
<rect width="150" height="150" fill="white"/>
</clipPath>
</defs>
</svg>
