<svg width="150" height="150" viewBox="0 0 150 150" fill="none" xmlns="http://www.w3.org/2000/svg">
<path d="M25.9396 108.187C23.7216 108.187 19.1624 110.343 17.16 111.422L26.8638 134.988C29.4822 135.45 35.0888 136.282 36.5675 135.912C38.4158 135.45 37.0296 125.746 38.4158 123.898C39.8021 122.049 41.6504 116.504 40.2642 113.27C38.8779 110.035 28.7121 108.187 25.9396 108.187Z" fill="#AA6431"/>
<path d="M25.9396 108.187C23.7216 108.187 19.1624 110.343 17.16 111.422L26.8638 134.988C29.4822 135.45 35.0888 136.282 36.5675 135.912C38.4158 135.45 37.0296 125.746 38.4158 123.898C39.8021 122.049 41.6504 116.504 40.2642 113.27C38.8779 110.035 28.7121 108.187 25.9396 108.187Z" fill="url(#paint0_linear)"/>
<path d="M32.4087 133.601C26.1244 131.014 20.2406 117.12 18.0842 110.497C16.2146 105.414 -1.78537 125.284 4.22171 135.912C10.2288 146.54 40.2641 136.836 32.4087 133.601Z" fill="#212226"/>
<path d="M32.4087 133.601C26.1244 131.014 20.2406 117.12 18.0842 110.497C16.2146 105.414 -1.78537 125.284 4.22171 135.912C10.2288 146.54 40.2641 136.836 32.4087 133.601Z" fill="url(#paint1_linear)"/>
<path d="M95.4166 10.1888C93.1986 9.07976 94.4924 4.48974 95.4166 2.33336C98.1891 -0.901219 103.734 0.0229458 107.431 0.485028C111.127 0.947111 118.521 6.4921 123.141 8.34043C127.762 10.1888 132.383 13.4233 133.769 16.6579C135.156 19.8925 133.769 20.8167 132.383 22.665C130.997 24.5133 129.149 26.8237 128.686 29.1341C128.224 31.4446 112.052 29.1341 111.127 26.8237C110.203 24.5133 109.279 20.3546 107.431 16.6579C105.582 12.9613 98.1891 11.575 95.4166 10.1888Z" fill="#212226"/>
<path d="M95.4166 10.1888C93.1986 9.07976 94.4924 4.48974 95.4166 2.33336C98.1891 -0.901219 103.734 0.0229458 107.431 0.485028C111.127 0.947111 118.521 6.4921 123.141 8.34043C127.762 10.1888 132.383 13.4233 133.769 16.6579C135.156 19.8925 133.769 20.8167 132.383 22.665C130.997 24.5133 129.149 26.8237 128.686 29.1341C128.224 31.4446 112.052 29.1341 111.127 26.8237C110.203 24.5133 109.279 20.3546 107.431 16.6579C105.582 12.9613 98.1891 11.575 95.4166 10.1888Z" fill="url(#paint2_linear)"/>
<path d="M135.156 129.406C134.416 126.819 129.611 128.328 127.3 129.406L122.217 132.179C123.912 133.565 127.947 136.245 130.535 135.875C133.769 135.413 136.08 132.641 135.156 129.406Z" fill="#AA6431"/>
<path d="M135.156 129.406C134.416 126.819 129.611 128.328 127.3 129.406L122.217 132.179C123.912 133.565 127.947 136.245 130.535 135.875C133.769 135.413 136.08 132.641 135.156 129.406Z" fill="url(#paint3_linear)"/>
<path d="M130.073 120.164C130.812 124.97 127.916 132.641 126.376 135.875H115.286L92.1819 114.619C92.49 113.233 92.9213 109.629 92.1819 106.302C91.2578 102.143 84.7886 73.4941 86.1749 68.4112C87.5611 63.3283 108.355 24.9754 112.514 23.1271C116.672 21.2788 134.694 26.3617 133.307 30.5204C131.921 34.6792 112.051 73.4941 112.514 76.7287C112.976 79.9633 114.824 84.122 119.445 92.4395C124.066 100.757 129.149 114.157 130.073 120.164Z" fill="#31374B"/>
<path d="M130.073 120.164C130.812 124.97 127.916 132.641 126.376 135.875H115.286L92.1819 114.619C92.49 113.233 92.9213 109.629 92.1819 106.302C91.2578 102.143 84.7886 73.4941 86.1749 68.4112C87.5611 63.3283 108.355 24.9754 112.514 23.1271C116.672 21.2788 134.694 26.3617 133.307 30.5204C131.921 34.6792 112.051 73.4941 112.514 76.7287C112.976 79.9633 114.824 84.122 119.445 92.4395C124.066 100.757 129.149 114.157 130.073 120.164Z" fill="url(#paint4_linear)"/>
<path d="M37.9538 138.684C40.1718 142.011 48.7357 143.151 52.7404 143.305H109.577C115.122 143.305 127.67 138.925 127.3 136.337C127.056 134.626 112.892 128.34 104.196 121.551C96.4571 115.509 94.1672 108.839 92.6441 108.187C89.4095 106.8 64.7546 107.263 61.52 108.187C58.2854 109.111 50.43 113.732 46.2713 114.656C42.1125 115.58 38.8779 119.739 36.5675 123.435C34.2571 127.132 35.1813 134.525 37.9538 138.684Z" fill="#8B99A6"/>
<path d="M37.9538 138.684C40.1718 142.011 48.7357 143.151 52.7404 143.305H109.577C115.122 143.305 127.67 138.925 127.3 136.337C127.056 134.626 112.892 128.34 104.196 121.551C96.4571 115.509 94.1672 108.839 92.6441 108.187C89.4095 106.8 64.7546 107.263 61.52 108.187C58.2854 109.111 50.43 113.732 46.2713 114.656C42.1125 115.58 38.8779 119.739 36.5675 123.435C34.2571 127.132 35.1813 134.525 37.9538 138.684Z" fill="url(#paint5_linear)"/>
<path d="M38.4158 122.974C39.8945 120.386 47.6574 116.966 51.8162 117.429C55.9749 117.891 67.527 125.746 70.7616 127.594C73.9961 129.443 84.162 130.829 87.3965 131.291C90.6311 131.753 98.9486 135.912 101.259 136.836C103.569 137.76 113.273 136.836 116.046 137.76C118.818 138.684 140.998 144.229 144.695 145.616C148.391 147.002 145.157 147.464 142.384 149.312C139.612 151.161 127.136 148.85 118.818 147.464C110.501 146.078 107.728 147.464 103.107 147.464C98.4865 147.464 87.8586 146.078 81.8516 145.616C75.8445 145.153 58.7474 145.153 54.1266 144.229C49.5058 143.305 40.2641 138.684 38.4158 135.912C36.5675 133.139 36.5675 126.208 38.4158 122.974Z" fill="#AA6431"/>
<path d="M38.4158 122.974C39.8945 120.386 47.6574 116.966 51.8162 117.429C55.9749 117.891 67.527 125.746 70.7616 127.594C73.9961 129.443 84.162 130.829 87.3965 131.291C90.6311 131.753 98.9486 135.912 101.259 136.836C103.569 137.76 113.273 136.836 116.046 137.76C118.818 138.684 140.998 144.229 144.695 145.616C148.391 147.002 145.157 147.464 142.384 149.312C139.612 151.161 127.136 148.85 118.818 147.464C110.501 146.078 107.728 147.464 103.107 147.464C98.4865 147.464 87.8586 146.078 81.8516 145.616C75.8445 145.153 58.7474 145.153 54.1266 144.229C49.5058 143.305 40.2641 138.684 38.4158 135.912C36.5675 133.139 36.5675 126.208 38.4158 122.974Z" fill="url(#paint6_linear)"/>
<defs>
<linearGradient id="paint0_linear" x1="1.62366" y1="123.509" x2="27.7101" y2="121.186" gradientUnits="userSpaceOnUse">
<stop stop-color="white"/>
<stop offset="1" stop-color="white" stop-opacity="0"/>
</linearGradient>
<linearGradient id="paint1_linear" x1="-38.5718" y1="114.119" x2="18.3104" y2="138.007" gradientUnits="userSpaceOnUse">
<stop stop-color="white"/>
<stop offset="1" stop-color="white" stop-opacity="0"/>
</linearGradient>
<linearGradient id="paint2_linear" x1="39.8385" y1="4.29873" x2="106.041" y2="41.8359" gradientUnits="userSpaceOnUse">
<stop stop-color="white"/>
<stop offset="1" stop-color="white" stop-opacity="0"/>
</linearGradient>
<linearGradient id="paint3_linear" x1="113.563" y1="132.347" x2="127.779" y2="129.874" gradientUnits="userSpaceOnUse">
<stop stop-color="white"/>
<stop offset="1" stop-color="white" stop-opacity="0"/>
</linearGradient>
<linearGradient id="paint4_linear" x1="21.8126" y1="38.899" x2="121.924" y2="56.7224" gradientUnits="userSpaceOnUse">
<stop stop-color="white"/>
<stop offset="1" stop-color="white" stop-opacity="0"/>
</linearGradient>
<linearGradient id="paint5_linear" x1="-3.24357" y1="129.766" x2="58.9461" y2="106.355" gradientUnits="userSpaceOnUse">
<stop stop-color="white"/>
<stop offset="1" stop-color="white" stop-opacity="0"/>
</linearGradient>
<linearGradient id="paint6_linear" x1="-34.9578" y1="135.35" x2="73.4465" y2="97.2022" gradientUnits="userSpaceOnUse">
<stop stop-color="white"/>
<stop offset="1" stop-color="white" stop-opacity="0"/>
</linearGradient>
</defs>
</svg>
