<svg width="150" height="150" viewBox="0 0 150 150" fill="none" xmlns="http://www.w3.org/2000/svg">
<path d="M142.345 104.78V109.066V121.004H135.304C133.569 120.188 130.345 118.188 131.325 116.719C132.549 114.882 137.447 112.433 137.447 111.821C137.447 111.209 136.835 109.066 137.447 107.229C138.059 105.393 142.345 102.638 142.345 104.78Z" fill="#212226"/>
<path d="M142.345 104.78V109.066V121.004H135.304C133.569 120.188 130.345 118.188 131.325 116.719C132.549 114.882 137.447 112.433 137.447 111.821C137.447 111.209 136.835 109.066 137.447 107.229C138.059 105.393 142.345 102.638 142.345 104.78Z" fill="url(#paint0_linear)"/>
<path d="M15.1969 122.253C13.7275 122.253 10.7071 123.682 9.38062 124.396L15.8091 140.008C17.5438 140.314 21.258 140.865 22.2376 140.62C23.462 140.314 22.5437 133.886 23.462 132.661C24.3804 131.437 25.6049 127.763 24.6865 125.62C23.7681 123.478 17.0336 122.253 15.1969 122.253Z" fill="#AA6431"/>
<path d="M15.1969 122.253C13.7275 122.253 10.7071 123.682 9.38062 124.396L15.8091 140.008C17.5438 140.314 21.258 140.865 22.2376 140.62C23.462 140.314 22.5437 133.886 23.462 132.661C24.3804 131.437 25.6049 127.763 24.6865 125.62C23.7681 123.478 17.0336 122.253 15.1969 122.253Z" fill="url(#paint1_linear)"/>
<path d="M19.4825 139.09C15.3193 137.375 11.4214 128.171 9.99288 123.784C8.75432 120.416 -3.17018 133.58 0.809348 140.62C4.78888 147.661 24.6865 141.232 19.4825 139.09Z" fill="#212226"/>
<path d="M19.4825 139.09C15.3193 137.375 11.4214 128.171 9.99288 123.784C8.75432 120.416 -3.17018 133.58 0.809348 140.62C4.78888 147.661 24.6865 141.232 19.4825 139.09Z" fill="url(#paint2_linear)"/>
<path d="M143.569 131.719C141.855 132.453 137.753 129.576 135.916 128.045L132.243 121.923C133.467 120.392 136.222 117.209 137.447 116.719C138.978 116.107 140.814 107.841 143.569 105.699C146.324 103.556 148.467 104.78 149.692 107.841C150.916 110.903 148.161 119.168 147.243 121.923C146.324 124.678 145.712 130.8 143.569 131.719Z" fill="#212226"/>
<path d="M143.569 131.719C141.855 132.453 137.753 129.576 135.916 128.045L132.243 121.923C133.467 120.392 136.222 117.209 137.447 116.719C138.978 116.107 140.814 107.841 143.569 105.699C146.324 103.556 148.467 104.78 149.692 107.841C150.916 110.903 148.161 119.168 147.243 121.923C146.324 124.678 145.712 130.8 143.569 131.719Z" fill="url(#paint3_linear)"/>
<path d="M92.4475 142.433C91.7129 143.412 87.2435 142.841 85.1007 142.433C85.4068 141.004 86.4476 138.208 88.1619 138.453C90.3047 138.759 93.3659 141.208 92.4475 142.433Z" fill="#AA6431"/>
<path d="M92.4475 142.433C91.7129 143.412 87.2435 142.841 85.1007 142.433C85.4068 141.004 86.4476 138.208 88.1619 138.453C90.3047 138.759 93.3659 141.208 92.4475 142.433Z" fill="url(#paint4_linear)"/>
<path d="M99.1821 106.311C94.2842 106.066 76.9376 116.821 68.8765 122.229C69.9989 129.168 72.9784 143.229 75.9172 143.963C79.5906 144.882 83.264 143.657 85.4068 143.045C87.5496 142.433 102.243 124.066 104.08 123.76C105.917 123.453 133.773 133.249 135.916 132.943C138.059 132.637 138.365 117.331 135.916 117.025C133.467 116.719 117.855 111.515 115.1 110.903C112.345 110.29 105.304 106.617 99.1821 106.311Z" fill="#31374B"/>
<path d="M99.1821 106.311C94.2842 106.066 76.9376 116.821 68.8765 122.229C69.9989 129.168 72.9784 143.229 75.9172 143.963C79.5906 144.882 83.264 143.657 85.4068 143.045C87.5496 142.433 102.243 124.066 104.08 123.76C105.917 123.453 133.773 133.249 135.916 132.943C138.059 132.637 138.365 117.331 135.916 117.025C133.467 116.719 117.855 111.515 115.1 110.903C112.345 110.29 105.304 106.617 99.1821 106.311Z" fill="url(#paint5_linear)"/>
<path d="M23.156 142.457C24.6253 144.661 30.2987 145.416 32.9517 145.518H70.6042C74.2776 145.518 79.2233 145.371 78.9784 143.657C78.6723 141.515 71.0193 123.172 68.8765 122.253C66.7337 121.335 40.9108 121.641 38.768 122.253C36.6251 122.865 31.4211 125.927 28.6661 126.539C25.911 127.151 23.7682 129.906 22.2376 132.355C20.707 134.804 21.3193 139.702 23.156 142.457Z" fill="#8B99A6"/>
<path d="M23.156 142.457C24.6253 144.661 30.2987 145.416 32.9517 145.518H70.6042C74.2776 145.518 79.2233 145.371 78.9784 143.657C78.6723 141.515 71.0193 123.172 68.8765 122.253C66.7337 121.335 40.9108 121.641 38.768 122.253C36.6251 122.865 31.4211 125.927 28.6661 126.539C25.911 127.151 23.7682 129.906 22.2376 132.355C20.707 134.804 21.3193 139.702 23.156 142.457Z" fill="url(#paint6_linear)"/>
<path d="M23.4621 132.049C24.4416 130.335 29.5844 128.069 32.3395 128.375C35.0945 128.682 42.7475 133.886 44.8903 135.11C47.0331 136.335 53.7677 137.253 55.9105 137.559C58.0534 137.865 63.5635 140.62 65.0941 141.232C66.6247 141.845 73.0531 141.232 74.8898 141.845C76.7265 142.457 91.4202 146.13 93.8691 147.049C96.3181 147.967 94.1752 148.273 92.3385 149.498C90.5018 150.722 82.2367 149.191 76.7265 148.273C71.2164 147.355 69.3797 148.273 66.3185 148.273C63.2574 148.273 56.2166 147.355 52.2371 147.049C48.2576 146.743 36.9312 146.743 33.8701 146.13C30.8089 145.518 24.6865 142.457 23.4621 140.62C22.2376 138.783 22.2376 134.192 23.4621 132.049Z" fill="#AA6431"/>
<path d="M23.4621 132.049C24.4416 130.335 29.5844 128.069 32.3395 128.375C35.0945 128.682 42.7475 133.886 44.8903 135.11C47.0331 136.335 53.7677 137.253 55.9105 137.559C58.0534 137.865 63.5635 140.62 65.0941 141.232C66.6247 141.845 73.0531 141.232 74.8898 141.845C76.7265 142.457 91.4202 146.13 93.8691 147.049C96.3181 147.967 94.1752 148.273 92.3385 149.498C90.5018 150.722 82.2367 149.191 76.7265 148.273C71.2164 147.355 69.3797 148.273 66.3185 148.273C63.2574 148.273 56.2166 147.355 52.2371 147.049C48.2576 146.743 36.9312 146.743 33.8701 146.13C30.8089 145.518 24.6865 142.457 23.4621 140.62C22.2376 138.783 22.2376 134.192 23.4621 132.049Z" fill="url(#paint7_linear)"/>
<defs>
<linearGradient id="paint0_linear" x1="115.979" y1="106.429" x2="138.613" y2="112.765" gradientUnits="userSpaceOnUse">
<stop stop-color="white"/>
<stop offset="1" stop-color="white" stop-opacity="0"/>
</linearGradient>
<linearGradient id="paint1_linear" x1="-0.911834" y1="132.404" x2="16.3697" y2="130.865" gradientUnits="userSpaceOnUse">
<stop stop-color="white"/>
<stop offset="1" stop-color="white" stop-opacity="0"/>
</linearGradient>
<linearGradient id="paint2_linear" x1="-27.5403" y1="126.183" x2="10.1427" y2="142.008" gradientUnits="userSpaceOnUse">
<stop stop-color="white"/>
<stop offset="1" stop-color="white" stop-opacity="0"/>
</linearGradient>
<linearGradient id="paint3_linear" x1="108.205" y1="108.508" x2="144.134" y2="118.47" gradientUnits="userSpaceOnUse">
<stop stop-color="white"/>
<stop offset="1" stop-color="white" stop-opacity="0"/>
</linearGradient>
<linearGradient id="paint4_linear" x1="80.1529" y1="140.936" x2="88.2805" y2="139.523" gradientUnits="userSpaceOnUse">
<stop stop-color="white"/>
<stop offset="1" stop-color="white" stop-opacity="0"/>
</linearGradient>
<linearGradient id="paint5_linear" x1="-24.2089" y1="111.733" x2="69.9228" y2="184.141" gradientUnits="userSpaceOnUse">
<stop stop-color="white"/>
<stop offset="1" stop-color="white" stop-opacity="0"/>
</linearGradient>
<linearGradient id="paint6_linear" x1="-2.72923" y1="136.549" x2="36.7225" y2="122.517" gradientUnits="userSpaceOnUse">
<stop stop-color="white"/>
<stop offset="1" stop-color="white" stop-opacity="0"/>
</linearGradient>
<linearGradient id="paint7_linear" x1="-25.146" y1="140.248" x2="46.669" y2="114.976" gradientUnits="userSpaceOnUse">
<stop stop-color="white"/>
<stop offset="1" stop-color="white" stop-opacity="0"/>
</linearGradient>
</defs>
</svg>
