<svg width="150" height="150" viewBox="0 0 150 150" fill="none" xmlns="http://www.w3.org/2000/svg">
<path d="M14.0949 124.067C12.7321 124.067 9.93076 125.392 8.70044 126.055L14.6628 140.535C16.2716 140.819 19.7165 141.33 20.6251 141.103C21.7607 140.819 20.909 134.856 21.7607 133.721C22.6125 132.585 23.7482 129.178 22.8964 127.19C22.0447 125.203 15.7984 124.067 14.0949 124.067Z" fill="#AA6431"/>
<path d="M14.0949 124.067C12.7321 124.067 9.93076 125.392 8.70044 126.055L14.6628 140.535C16.2716 140.819 19.7165 141.33 20.6251 141.103C21.7607 140.819 20.909 134.856 21.7607 133.721C22.6125 132.585 23.7482 129.178 22.8964 127.19C22.0447 125.203 15.7984 124.067 14.0949 124.067Z" fill="url(#paint0_linear)"/>
<path d="M18.0698 139.683C14.2084 138.093 10.5932 129.556 9.26825 125.487C8.1195 122.364 -2.9403 134.572 0.750658 141.102C4.44161 147.633 22.8964 141.67 18.0698 139.683Z" fill="#212226"/>
<path d="M18.0698 139.683C14.2084 138.093 10.5932 129.556 9.26825 125.487C8.1195 122.364 -2.9403 134.572 0.750658 141.102C4.44161 147.633 22.8964 141.67 18.0698 139.683Z" fill="url(#paint1_linear)"/>
<path d="M125.527 118.648L129.725 117.933C133.64 116.114 141.635 112.101 142.301 110.605C143.135 108.735 139.115 107.116 137.203 107.73C135.292 108.344 136.513 110.44 135.024 111.845C133.833 112.97 127.548 118.112 125.527 118.648Z" fill="#212226"/>
<path d="M125.527 118.648L129.725 117.933C133.64 116.114 141.635 112.101 142.301 110.605C143.135 108.735 139.115 107.116 137.203 107.73C135.292 108.344 136.513 110.44 135.024 111.845C133.833 112.97 127.548 118.112 125.527 118.648Z" fill="url(#paint2_linear)"/>
<path d="M138.446 128.543C137.108 130.153 133.779 128.762 132.282 127.865C131.259 124.679 129.455 118.036 130.422 116.95C131.631 115.592 139.038 111.737 140.753 108.277C142.467 104.817 146.63 107.275 147.155 110.354C147.68 113.433 140.119 126.53 138.446 128.543Z" fill="#212226"/>
<path d="M138.446 128.543C137.108 130.153 133.779 128.762 132.282 127.865C131.259 124.679 129.455 118.036 130.422 116.95C131.631 115.592 139.038 111.737 140.753 108.277C142.467 104.817 146.63 107.275 147.155 110.354C147.68 113.433 140.119 126.53 138.446 128.543Z" fill="url(#paint3_linear)"/>
<path d="M98.8302 119.165C95.3952 119.29 75.409 122.005 65.8452 123.347L67.457 142.945C70.7244 142.964 78.0894 142.803 81.4098 142.007C85.5604 141.012 101.215 133.16 105.086 132.212C108.956 131.264 131.36 130.903 133.968 129.306C136.576 127.71 131.631 115.592 128.88 116.349C126.128 117.106 103.124 119.01 98.8302 119.165Z" fill="#31374B"/>
<path d="M98.8302 119.165C95.3952 119.29 75.409 122.005 65.8452 123.347L67.457 142.945C70.7244 142.964 78.0894 142.803 81.4098 142.007C85.5604 141.012 101.215 133.16 105.086 132.212C108.956 131.264 131.36 130.903 133.968 129.306C136.576 127.71 131.631 115.592 128.88 116.349C126.128 117.106 103.124 119.01 98.8302 119.165Z" fill="url(#paint4_linear)"/>
<path d="M21.4768 142.806C22.8396 144.85 28.1016 145.55 30.5622 145.645H65.4843C68.8914 145.645 71.491 145.509 71.2638 143.919C70.9799 141.932 69.5603 123.193 67.5729 122.341C65.5854 121.489 37.9441 123.499 35.9567 124.067C33.9692 124.635 29.1426 127.474 26.5873 128.042C24.0321 128.61 22.0446 131.165 20.625 133.437C19.2054 135.708 19.7733 140.251 21.4768 142.806Z" fill="#8B99A6"/>
<path d="M21.4768 142.806C22.8396 144.85 28.1016 145.55 30.5622 145.645H65.4843C68.8914 145.645 71.491 145.509 71.2638 143.919C70.9799 141.932 69.5603 123.193 67.5729 122.341C65.5854 121.489 37.9441 123.499 35.9567 124.067C33.9692 124.635 29.1426 127.474 26.5873 128.042C24.0321 128.61 22.0446 131.165 20.625 133.437C19.2054 135.708 19.7733 140.251 21.4768 142.806Z" fill="url(#paint5_linear)"/>
<path d="M21.7607 133.153C22.6692 131.563 27.4391 129.462 29.9944 129.746C32.5496 130.03 39.6476 134.856 41.6351 135.992C43.6225 137.128 49.8687 137.979 51.8562 138.263C53.8436 138.547 58.9542 141.103 60.3738 141.67C61.7934 142.238 67.7557 141.67 69.4592 142.238C71.1627 142.806 84.7909 146.213 87.0622 147.065C89.3336 147.917 87.3461 148.201 85.6426 149.336C83.9391 150.472 76.2733 149.052 71.1627 148.201C66.0522 147.349 64.3486 148.201 61.5094 148.201C58.6702 148.201 52.1401 147.349 48.4491 147.065C44.7582 146.781 34.2532 146.781 31.414 146.213C28.5748 145.645 22.8964 142.806 21.7607 141.103C20.625 139.399 20.625 135.14 21.7607 133.153Z" fill="#AA6431"/>
<path d="M21.7607 133.153C22.6692 131.563 27.4391 129.462 29.9944 129.746C32.5496 130.03 39.6476 134.856 41.6351 135.992C43.6225 137.128 49.8687 137.979 51.8562 138.263C53.8436 138.547 58.9542 141.103 60.3738 141.67C61.7934 142.238 67.7557 141.67 69.4592 142.238C71.1627 142.806 84.7909 146.213 87.0622 147.065C89.3336 147.917 87.3461 148.201 85.6426 149.336C83.9391 150.472 76.2733 149.052 71.1627 148.201C66.0522 147.349 64.3486 148.201 61.5094 148.201C58.6702 148.201 52.1401 147.349 48.4491 147.065C44.7582 146.781 34.2532 146.781 31.414 146.213C28.5748 145.645 22.8964 142.806 21.7607 141.103C20.625 139.399 20.625 135.14 21.7607 133.153Z" fill="url(#paint6_linear)"/>
<defs>
<linearGradient id="paint0_linear" x1="-0.845654" y1="133.482" x2="15.1827" y2="132.055" gradientUnits="userSpaceOnUse">
<stop stop-color="white"/>
<stop offset="1" stop-color="white" stop-opacity="0"/>
</linearGradient>
<linearGradient id="paint1_linear" x1="-25.5432" y1="127.713" x2="9.40723" y2="142.39" gradientUnits="userSpaceOnUse">
<stop stop-color="white"/>
<stop offset="1" stop-color="white" stop-opacity="0"/>
</linearGradient>
<linearGradient id="paint2_linear" x1="100.103" y1="115.307" x2="125.481" y2="130.797" gradientUnits="userSpaceOnUse">
<stop stop-color="white"/>
<stop offset="1" stop-color="white" stop-opacity="0"/>
</linearGradient>
<linearGradient id="paint3_linear" x1="104.627" y1="116.215" x2="141.369" y2="122.872" gradientUnits="userSpaceOnUse">
<stop stop-color="white"/>
<stop offset="1" stop-color="white" stop-opacity="0"/>
</linearGradient>
<linearGradient id="paint4_linear" x1="-27.4508" y1="142.295" x2="34.8884" y2="203.937" gradientUnits="userSpaceOnUse">
<stop stop-color="white"/>
<stop offset="1" stop-color="white" stop-opacity="0"/>
</linearGradient>
<linearGradient id="paint5_linear" x1="-1.70246" y1="136.801" x2="34.2569" y2="125.217" gradientUnits="userSpaceOnUse">
<stop stop-color="white"/>
<stop offset="1" stop-color="white" stop-opacity="0"/>
</linearGradient>
<linearGradient id="paint6_linear" x1="-23.3226" y1="140.758" x2="43.2848" y2="117.318" gradientUnits="userSpaceOnUse">
<stop stop-color="white"/>
<stop offset="1" stop-color="white" stop-opacity="0"/>
</linearGradient>
</defs>
</svg>
