<svg width="150" height="150" viewBox="0 0 150 150" fill="none" xmlns="http://www.w3.org/2000/svg">
<path d="M28.6114 110.608C26.5219 110.608 22.2266 112.639 20.3402 113.655L29.4821 135.857C31.949 136.292 37.231 137.076 38.624 136.728C40.3653 136.292 39.0593 127.15 40.3653 125.409C41.6713 123.668 43.4126 118.444 42.1066 115.397C40.8006 112.349 31.2234 110.608 28.6114 110.608Z" fill="#AA6431"/>
<path d="M28.6114 110.608C26.5219 110.608 22.2266 112.639 20.3402 113.655L29.4821 135.857C31.949 136.292 37.231 137.076 38.624 136.728C40.3653 136.292 39.0593 127.15 40.3653 125.409C41.6713 123.668 43.4126 118.444 42.1066 115.397C40.8006 112.349 31.2234 110.608 28.6114 110.608Z" fill="url(#paint0_linear)"/>
<path d="M34.706 134.551C28.7855 132.113 23.2424 119.024 21.2108 112.784C19.4495 107.996 2.4917 126.715 8.15097 136.727C13.8102 146.74 42.1066 137.598 34.706 134.551Z" fill="#212226"/>
<path d="M34.706 134.551C28.7855 132.113 23.2424 119.024 21.2108 112.784C19.4495 107.996 2.4917 126.715 8.15097 136.727C13.8102 146.74 42.1066 137.598 34.706 134.551Z" fill="url(#paint1_linear)"/>
<path d="M132.81 134.952C128.979 134.604 123.958 132.485 121.927 131.469L108.432 134.952C112.93 136.258 123.32 139.131 128.892 140.176C135.857 141.482 137.599 135.387 132.81 134.952Z" fill="#AA6431"/>
<path d="M132.81 134.952C128.979 134.604 123.958 132.485 121.927 131.469L108.432 134.952C112.93 136.258 123.32 139.131 128.892 140.176C135.857 141.482 137.599 135.387 132.81 134.952Z" fill="url(#paint2_linear)"/>
<path d="M121.927 133.646C120.882 137.477 116.267 138.724 114.091 138.87L102.337 133.646L86.2297 113.621C87.1004 113.185 89.1029 111.792 90.1477 109.703C91.4537 107.091 94.501 74.441 94.501 68.7818C94.501 63.1226 92.3243 28.7315 92.3243 24.8136C92.3243 20.8956 114.091 18.2836 114.091 24.8136C114.091 31.3435 116.267 67.4757 116.267 74.441C116.267 81.4062 123.233 128.857 121.927 133.646Z" fill="#31374B"/>
<path d="M121.927 133.646C120.882 137.477 116.267 138.724 114.091 138.87L102.337 133.646L86.2297 113.621C87.1004 113.185 89.1029 111.792 90.1477 109.703C91.4537 107.091 94.501 74.441 94.501 68.7818C94.501 63.1226 92.3243 28.7315 92.3243 24.8136C92.3243 20.8956 114.091 18.2836 114.091 24.8136C114.091 31.3435 116.267 67.4757 116.267 74.441C116.267 81.4062 123.233 128.857 121.927 133.646Z" fill="url(#paint3_linear)"/>
<path d="M39.9299 139.339C42.0195 142.474 50.0876 143.548 53.8604 143.693H107.406C112.63 143.693 115.397 142.386 114.961 139.339C114.739 137.781 105.759 131.203 99.2896 124.973C93.1098 119.022 89.4599 113.388 87.971 112.75C84.9237 111.444 65.1789 109.737 62.1317 110.608C59.0844 111.478 51.6838 115.832 47.7658 116.702C43.8479 117.573 40.8006 121.491 38.6239 124.973C36.4473 128.456 37.3179 135.421 39.9299 139.339Z" fill="#8B99A6"/>
<path d="M39.9299 139.339C42.0195 142.474 50.0876 143.548 53.8604 143.693H107.406C112.63 143.693 115.397 142.386 114.961 139.339C114.739 137.781 105.759 131.203 99.2896 124.973C93.1098 119.022 89.4599 113.388 87.971 112.75C84.9237 111.444 65.1789 109.737 62.1317 110.608C59.0844 111.478 51.6838 115.832 47.7658 116.702C43.8479 117.573 40.8006 121.491 38.6239 124.973C36.4473 128.456 37.3179 135.421 39.9299 139.339Z" fill="url(#paint4_linear)"/>
<path d="M114.961 20.8958C112.872 14.9753 94.6461 4.49839 85.7944 0C84.0531 1.16088 80.6576 4.00502 81.0058 6.0946C81.4412 8.70657 87.5358 13.4952 90.1477 14.8012C92.2373 15.846 93.6303 22.2017 94.0657 25.249H105.384C109.447 26.2648 117.051 26.8162 114.961 20.8958Z" fill="#212226"/>
<path d="M114.961 20.8958C112.872 14.9753 94.6461 4.49839 85.7944 0C84.0531 1.16088 80.6576 4.00502 81.0058 6.0946C81.4412 8.70657 87.5358 13.4952 90.1477 14.8012C92.2373 15.846 93.6303 22.2017 94.0657 25.249H105.384C109.447 26.2648 117.051 26.8162 114.961 20.8958Z" fill="url(#paint5_linear)"/>
<path d="M40.3653 124.538C41.7584 122.1 49.0719 118.879 52.9898 119.314C56.9078 119.75 67.791 127.15 70.8383 128.891C73.8856 130.633 83.4628 131.939 86.5101 132.374C89.5574 132.809 97.3933 136.727 99.57 137.598C101.747 138.469 110.889 137.598 113.5 138.469C116.112 139.339 137.008 144.563 140.491 145.869C143.973 147.175 140.926 147.611 138.314 149.352C135.702 151.093 123.948 148.917 116.112 147.611C108.277 146.305 105.665 147.611 101.311 147.611C96.958 147.611 86.9454 146.305 81.2862 145.869C75.6269 145.434 59.5198 145.434 55.1665 144.563C50.8132 143.693 42.1066 139.339 40.3653 136.727C38.624 134.115 38.624 127.586 40.3653 124.538Z" fill="#AA6431"/>
<path d="M40.3653 124.538C41.7584 122.1 49.0719 118.879 52.9898 119.314C56.9078 119.75 67.791 127.15 70.8383 128.891C73.8856 130.633 83.4628 131.939 86.5101 132.374C89.5574 132.809 97.3933 136.727 99.57 137.598C101.747 138.469 110.889 137.598 113.5 138.469C116.112 139.339 137.008 144.563 140.491 145.869C143.973 147.175 140.926 147.611 138.314 149.352C135.702 151.093 123.948 148.917 116.112 147.611C108.277 146.305 105.665 147.611 101.311 147.611C96.958 147.611 86.9454 146.305 81.2862 145.869C75.6269 145.434 59.5198 145.434 55.1665 144.563C50.8132 143.693 42.1066 139.339 40.3653 136.727C38.624 134.115 38.624 127.586 40.3653 124.538Z" fill="url(#paint6_linear)"/>
<defs>
<linearGradient id="paint0_linear" x1="5.70337" y1="125.043" x2="30.2794" y2="122.854" gradientUnits="userSpaceOnUse">
<stop stop-color="white"/>
<stop offset="1" stop-color="white" stop-opacity="0"/>
</linearGradient>
<linearGradient id="paint1_linear" x1="-32.1648" y1="116.197" x2="21.4239" y2="138.701" gradientUnits="userSpaceOnUse">
<stop stop-color="white"/>
<stop offset="1" stop-color="white" stop-opacity="0"/>
</linearGradient>
<linearGradient id="paint2_linear" x1="90.6003" y1="136.366" x2="117.977" y2="127.611" gradientUnits="userSpaceOnUse">
<stop stop-color="white"/>
<stop offset="1" stop-color="white" stop-opacity="0"/>
</linearGradient>
<linearGradient id="paint3_linear" x1="37.686" y1="37.6981" x2="114.54" y2="47.62" gradientUnits="userSpaceOnUse">
<stop stop-color="white"/>
<stop offset="1" stop-color="white" stop-opacity="0"/>
</linearGradient>
<linearGradient id="paint4_linear" x1="4.92609" y1="131.158" x2="58.4975" y2="112.791" gradientUnits="userSpaceOnUse">
<stop stop-color="white"/>
<stop offset="1" stop-color="white" stop-opacity="0"/>
</linearGradient>
<linearGradient id="paint5_linear" x1="34.4989" y1="3.69828" x2="91.2785" y2="35.7005" gradientUnits="userSpaceOnUse">
<stop stop-color="white"/>
<stop offset="1" stop-color="white" stop-opacity="0"/>
</linearGradient>
<linearGradient id="paint6_linear" x1="-28.76" y1="136.199" x2="73.3678" y2="100.259" gradientUnits="userSpaceOnUse">
<stop stop-color="white"/>
<stop offset="1" stop-color="white" stop-opacity="0"/>
</linearGradient>
</defs>
</svg>
