<svg width="150" height="150" viewBox="0 0 150 150" fill="none" xmlns="http://www.w3.org/2000/svg">
<g clip-path="url(#clip0)">
<path d="M14.1301 124.45C12.7639 124.45 9.95556 125.779 8.72217 126.443L14.6994 140.959C16.3123 141.244 19.7658 141.756 20.6766 141.528C21.8151 141.244 20.9613 135.266 21.8151 134.128C22.669 132.989 23.8076 129.574 22.9537 127.581C22.0998 125.589 15.8379 124.45 14.1301 124.45Z" fill="#AA6431"/>
<path d="M14.1301 124.45C12.7639 124.45 9.95556 125.779 8.72217 126.443L14.6994 140.959C16.3123 141.244 19.7658 141.756 20.6766 141.528C21.8151 141.244 20.9613 135.266 21.8151 134.128C22.669 132.989 23.8076 129.574 22.9537 127.581C22.0998 125.589 15.8379 124.45 14.1301 124.45Z" fill="url(#paint0_linear)"/>
<path d="M127.23 128.982H131.499C135.674 127.844 144.25 125.225 145.161 123.859C146.3 122.151 142.6 119.874 140.607 120.159C138.615 120.443 139.469 122.72 137.761 123.859C136.395 124.77 129.317 128.792 127.23 128.982Z" fill="#212226"/>
<path d="M127.23 128.982H131.499C135.674 127.844 144.25 125.225 145.161 123.859C146.3 122.151 142.6 119.874 140.607 120.159C138.615 120.443 139.469 122.72 137.761 123.859C136.395 124.77 129.317 128.792 127.23 128.982Z" fill="url(#paint1_linear)"/>
<path d="M18.115 140.105C14.244 138.511 10.6197 129.953 9.29143 125.873C8.13981 122.742 -2.94765 134.982 0.752536 141.528C4.45272 148.075 22.9537 142.097 18.115 140.105Z" fill="#212226"/>
<path d="M18.115 140.105C14.244 138.511 10.6197 129.953 9.29143 125.873C8.13981 122.742 -2.94765 134.982 0.752536 141.528C4.45272 148.075 22.9537 142.097 18.115 140.105Z" fill="url(#paint2_linear)"/>
<path d="M138.33 140.936C136.736 142.303 133.681 140.367 132.353 139.229C131.879 135.908 131.214 129.039 132.353 128.128C133.776 126.99 141.746 124.428 144.023 121.297C146.3 118.166 150 121.297 150 124.428C150 127.559 140.323 139.229 138.33 140.936Z" fill="#212226"/>
<path d="M138.33 140.936C136.736 142.303 133.681 140.367 132.353 139.229C131.879 135.908 131.214 129.039 132.353 128.128C133.776 126.99 141.746 124.428 144.023 121.297C146.3 118.166 150 121.297 150 124.428C150 127.559 140.323 139.229 138.33 140.936Z" fill="url(#paint3_linear)"/>
<path d="M100.759 124.997C97.3434 124.542 77.1347 123.859 67.4573 123.574L65.7495 143.213C68.9753 143.783 76.2808 144.864 79.6964 144.637C83.9658 144.352 100.759 139.229 104.744 138.944C108.729 138.659 130.93 142.075 133.776 140.936C136.622 139.798 133.776 126.99 130.93 127.274C128.083 127.559 105.028 125.566 100.759 124.997Z" fill="#31374B"/>
<path d="M100.759 124.997C97.3434 124.542 77.1347 123.859 67.4573 123.574L65.7495 143.213C68.9753 143.783 76.2808 144.864 79.6964 144.637C83.9658 144.352 100.759 139.229 104.744 138.944C108.729 138.659 130.93 142.075 133.776 140.936C136.622 139.798 133.776 126.99 130.93 127.274C128.083 127.559 105.028 125.566 100.759 124.997Z" fill="url(#paint4_linear)"/>
<path d="M21.5305 143.236C22.8967 145.285 28.1719 145.987 30.6386 146.082H65.6481C69.0637 146.082 71.6698 145.946 71.4421 144.352C71.1574 142.36 69.7343 123.574 67.7419 122.72C65.7495 121.866 38.039 123.881 36.0466 124.45C34.0542 125.019 29.2155 127.866 26.6538 128.435C24.0922 129.004 22.0997 131.566 20.6766 133.843C19.2534 136.12 19.8227 140.674 21.5305 143.236Z" fill="#8B99A6"/>
<path d="M21.5305 143.236C22.8967 145.285 28.1719 145.987 30.6386 146.082H65.6481C69.0637 146.082 71.6698 145.946 71.4421 144.352C71.1574 142.36 69.7343 123.574 67.7419 122.72C65.7495 121.866 38.039 123.881 36.0466 124.45C34.0542 125.019 29.2155 127.866 26.6538 128.435C24.0922 129.004 22.0997 131.566 20.6766 133.843C19.2534 136.12 19.8227 140.674 21.5305 143.236Z" fill="url(#paint5_linear)"/>
<path d="M21.8152 133.559C22.726 131.965 27.5078 129.858 30.0695 130.143C32.6311 130.428 39.7469 135.266 41.7393 136.405C43.7317 137.543 49.9936 138.397 51.986 138.682C53.9784 138.967 59.1017 141.528 60.5249 142.097C61.948 142.667 67.9252 142.097 69.633 142.667C71.3408 143.236 85.003 146.652 87.2801 147.505C89.5571 148.359 87.5647 148.644 85.8569 149.782C84.1491 150.921 76.4641 149.498 71.3408 148.644C66.2175 147.79 64.5097 148.644 61.6634 148.644C58.8171 148.644 52.2706 147.79 48.5704 147.505C44.8702 147.221 34.3389 147.221 31.4926 146.652C28.6463 146.082 22.9537 143.236 21.8152 141.528C20.6767 139.82 20.6767 135.551 21.8152 133.559Z" fill="#AA6431"/>
<path d="M21.8152 133.559C22.726 131.965 27.5078 129.858 30.0695 130.143C32.6311 130.428 39.7469 135.266 41.7393 136.405C43.7317 137.543 49.9936 138.397 51.986 138.682C53.9784 138.967 59.1017 141.528 60.5249 142.097C61.948 142.667 67.9252 142.097 69.633 142.667C71.3408 143.236 85.003 146.652 87.2801 147.505C89.5571 148.359 87.5647 148.644 85.8569 149.782C84.1491 150.921 76.4641 149.498 71.3408 148.644C66.2175 147.79 64.5097 148.644 61.6634 148.644C58.8171 148.644 52.2706 147.79 48.5704 147.505C44.8702 147.221 34.3389 147.221 31.4926 146.652C28.6463 146.082 22.9537 143.236 21.8152 141.528C20.6767 139.82 20.6767 135.551 21.8152 133.559Z" fill="url(#paint6_linear)"/>
</g>
<defs>
<linearGradient id="paint0_linear" x1="-0.847806" y1="133.888" x2="15.2207" y2="132.458" gradientUnits="userSpaceOnUse">
<stop stop-color="white"/>
<stop offset="1" stop-color="white" stop-opacity="0"/>
</linearGradient>
<linearGradient id="paint1_linear" x1="102.667" y1="121.398" x2="125.138" y2="140.98" gradientUnits="userSpaceOnUse">
<stop stop-color="white"/>
<stop offset="1" stop-color="white" stop-opacity="0"/>
</linearGradient>
<linearGradient id="paint2_linear" x1="-25.6071" y1="128.105" x2="9.43076" y2="142.818" gradientUnits="userSpaceOnUse">
<stop stop-color="white"/>
<stop offset="1" stop-color="white" stop-opacity="0"/>
</linearGradient>
<linearGradient id="paint3_linear" x1="106.985" y1="123.058" x2="142.174" y2="135.824" gradientUnits="userSpaceOnUse">
<stop stop-color="white"/>
<stop offset="1" stop-color="white" stop-opacity="0"/>
</linearGradient>
<linearGradient id="paint4_linear" x1="-27.9341" y1="126.587" x2="23.2915" y2="198.004" gradientUnits="userSpaceOnUse">
<stop stop-color="white"/>
<stop offset="1" stop-color="white" stop-opacity="0"/>
</linearGradient>
<linearGradient id="paint5_linear" x1="-1.70674" y1="137.216" x2="34.3425" y2="125.603" gradientUnits="userSpaceOnUse">
<stop stop-color="white"/>
<stop offset="1" stop-color="white" stop-opacity="0"/>
</linearGradient>
<linearGradient id="paint6_linear" x1="-23.3809" y1="141.182" x2="43.3931" y2="117.684" gradientUnits="userSpaceOnUse">
<stop stop-color="white"/>
<stop offset="1" stop-color="white" stop-opacity="0"/>
</linearGradient>
<clipPath id="clip0">
<rect width="150" height="150" fill="white"/>
</clipPath>
</defs>
</svg>
