<svg width="150" height="150" viewBox="0 0 150 150" fill="none" xmlns="http://www.w3.org/2000/svg">
<path d="M76.6064 0H37V3.50943H76.6064V0Z" fill="#0E0E2C"/>
<path d="M73.5984 34.0916H49.5337V37.0996H73.5984V34.0916Z" fill="#0E0E2C"/>
<path d="M37 20.5553L69.5876 3.50952H62.5687L37 16.5445V20.5553Z" fill="#0E0E2C"/>
<path d="M49.5337 54.1454L69.5876 37.0996H65.2683L49.5337 50.1346V54.1454Z" fill="#0E0E2C"/>
<path d="M81.6199 19.0513C82.021 16.6448 79.1132 16.3774 77.6092 16.5445C76.4115 16.5445 74.4363 34.9273 73.5984 44.1186C75.938 43.7844 80.6172 42.7149 80.6172 41.1106C80.6172 39.1052 79.6146 28.5769 79.1132 24.5661C78.6119 20.5553 81.1186 22.0593 81.6199 19.0513Z" fill="#AA6431"/>
<path d="M81.6199 19.0513C82.021 16.6448 79.1132 16.3774 77.6092 16.5445C76.4115 16.5445 74.4363 34.9273 73.5984 44.1186C75.938 43.7844 80.6172 42.7149 80.6172 41.1106C80.6172 39.1052 79.6146 28.5769 79.1132 24.5661C78.6119 20.5553 81.1186 22.0593 81.6199 19.0513Z" fill="url(#paint0_linear)"/>
<path d="M79.1132 20.0539L76.6065 1.00269H74.0997L76.6065 20.0539H79.1132Z" fill="#0E0E2C"/>
<path d="M82.6226 50.6362C82.6226 48.2297 80.6172 45.2885 79.6145 44.1187L72.5956 46.6254L70.0889 58.6577C72.4285 59.1591 77.6091 59.861 79.6145 58.6577C82.1212 57.1537 82.6226 53.6442 82.6226 50.6362Z" fill="#AA6431"/>
<path d="M82.6226 50.6362C82.6226 48.2297 80.6172 45.2885 79.6145 44.1187L72.5956 46.6254L70.0889 58.6577C72.4285 59.1591 77.6091 59.861 79.6145 58.6577C82.1212 57.1537 82.6226 53.6442 82.6226 50.6362Z" fill="url(#paint1_linear)"/>
<path d="M63.5714 41.1108C62.3682 42.7151 64.7412 47.7954 66.0781 50.135C67.9164 49.8007 72.2949 48.9316 75.1024 48.1294C78.6119 47.1267 81.1186 43.116 80.6173 41.1108C80.1159 39.1056 72.5957 37.6014 70.5903 37.1C68.5849 36.5987 65.0755 39.1054 63.5714 41.1108Z" fill="#212226"/>
<path d="M63.5714 41.1108C62.3682 42.7151 64.7412 47.7954 66.0781 50.135C67.9164 49.8007 72.2949 48.9316 75.1024 48.1294C78.6119 47.1267 81.1186 43.116 80.6173 41.1108C80.1159 39.1056 72.5957 37.6014 70.5903 37.1C68.5849 36.5987 65.0755 39.1054 63.5714 41.1108Z" fill="url(#paint2_linear)"/>
<path d="M88.6388 132.857C88.6388 130.05 92.6496 129.682 94.655 129.849L105.685 131.353C105.016 133.526 104.381 138.472 107.189 140.879C110.698 143.887 114.709 150.906 110.197 149.903C105.685 148.9 88.6388 136.367 88.6388 132.857Z" fill="#212226"/>
<path d="M88.6388 132.857C88.6388 130.05 92.6496 129.682 94.655 129.849L105.685 131.353C105.016 133.526 104.381 138.472 107.189 140.879C110.698 143.887 114.709 150.906 110.197 149.903C105.685 148.9 88.6388 136.367 88.6388 132.857Z" fill="url(#paint3_linear)"/>
<path d="M83.6253 91.7466C81.62 91.7466 65.0755 107.288 66.5795 110.798C68.0836 114.307 76.4059 116.714 79.6146 116.313C83.6253 115.811 92.6496 110.798 96.159 110.798C99.6685 110.798 93.6523 125.337 92.6496 129.348C91.6469 133.358 106.186 136.366 108.693 131.854C111.199 127.342 114.208 104.28 113.706 101.272C113.205 98.2641 114.709 91.7466 108.693 91.7466H83.6253Z" fill="#31374B"/>
<path d="M83.6253 91.7466C81.62 91.7466 65.0755 107.288 66.5795 110.798C68.0836 114.307 76.4059 116.714 79.6146 116.313C83.6253 115.811 92.6496 110.798 96.159 110.798C99.6685 110.798 93.6523 125.337 92.6496 129.348C91.6469 133.358 106.186 136.366 108.693 131.854C111.199 127.342 114.208 104.28 113.706 101.272C113.205 98.2641 114.709 91.7466 108.693 91.7466H83.6253Z" fill="url(#paint4_linear)"/>
<path d="M84.6279 66.178C83.4247 63.7715 79.7816 60.1618 78.1104 58.6578C73.7654 57.1537 64.7746 54.4465 63.5713 55.6497C62.0673 57.1537 61.0646 64.1726 62.0673 67.682C63.07 71.1915 63.5713 85.7303 63.5713 91.2451C63.5713 96.76 60.5632 108.792 65.0754 110.798C69.5876 112.803 84.6279 91.2451 84.6279 91.2451V78.2101C84.6279 75.202 86.132 69.1861 84.6279 66.178Z" fill="#8B99A6"/>
<path d="M84.6279 66.178C83.4247 63.7715 79.7816 60.1618 78.1104 58.6578C73.7654 57.1537 64.7746 54.4465 63.5713 55.6497C62.0673 57.1537 61.0646 64.1726 62.0673 67.682C63.07 71.1915 63.5713 85.7303 63.5713 91.2451C63.5713 96.76 60.5632 108.792 65.0754 110.798C69.5876 112.803 84.6279 91.2451 84.6279 91.2451V78.2101C84.6279 75.202 86.132 69.1861 84.6279 66.178Z" fill="url(#paint5_linear)"/>
<path d="M69.5876 32.0862C69.5876 28.8775 72.2614 11.698 73.5984 3.50937C73.7614 2.50668 78.6118 1.50399 79.6145 3.50937C80.6172 5.51476 77.1078 10.5282 76.1051 12.5336C75.1024 14.539 77.1078 22.0592 77.1078 24.0646C77.1078 26.07 76.6064 41.1104 76.1051 44.1185C75.6037 47.1266 74.6011 50.636 74.6011 54.1454C74.6011 57.6549 76.6064 56.1508 78.6118 58.1562C80.6172 60.1616 78.6118 63.1697 78.6118 65.1751C78.6118 67.1805 75.6037 71.6926 73.5984 71.6926C71.593 71.6926 67.0808 71.1913 65.0755 68.6845C63.0701 66.1778 62.5687 58.1562 63.5714 54.1454C64.5741 50.1347 66.5795 51.1374 68.5849 46.6252C70.5903 42.1131 69.5876 36.0969 69.5876 32.0862Z" fill="#AA6431"/>
<path d="M69.5876 32.0862C69.5876 28.8775 72.2614 11.698 73.5984 3.50937C73.7614 2.50668 78.6118 1.50399 79.6145 3.50937C80.6172 5.51476 77.1078 10.5282 76.1051 12.5336C75.1024 14.539 77.1078 22.0592 77.1078 24.0646C77.1078 26.07 76.6064 41.1104 76.1051 44.1185C75.6037 47.1266 74.6011 50.636 74.6011 54.1454C74.6011 57.6549 76.6064 56.1508 78.6118 58.1562C80.6172 60.1616 78.6118 63.1697 78.6118 65.1751C78.6118 67.1805 75.6037 71.6926 73.5984 71.6926C71.593 71.6926 67.0808 71.1913 65.0755 68.6845C63.0701 66.1778 62.5687 58.1562 63.5714 54.1454C64.5741 50.1347 66.5795 51.1374 68.5849 46.6252C70.5903 42.1131 69.5876 36.0969 69.5876 32.0862Z" fill="url(#paint6_linear)"/>
<defs>
<linearGradient id="paint0_linear" x1="68.2918" y1="31.7148" x2="77.2641" y2="31.4399" gradientUnits="userSpaceOnUse">
<stop stop-color="white"/>
<stop offset="1" stop-color="white" stop-opacity="0"/>
</linearGradient>
<linearGradient id="paint1_linear" x1="61.836" y1="52.4929" x2="75.6991" y2="51.2932" gradientUnits="userSpaceOnUse">
<stop stop-color="white"/>
<stop offset="1" stop-color="white" stop-opacity="0"/>
</linearGradient>
<linearGradient id="paint2_linear" x1="39.6328" y1="38.9066" x2="68.4197" y2="55.1918" gradientUnits="userSpaceOnUse">
<stop stop-color="white"/>
<stop offset="1" stop-color="white" stop-opacity="0"/>
</linearGradient>
<linearGradient id="paint3_linear" x1="56.736" y1="132.699" x2="97.9429" y2="153.143" gradientUnits="userSpaceOnUse">
<stop stop-color="white"/>
<stop offset="1" stop-color="white" stop-opacity="0"/>
</linearGradient>
<linearGradient id="paint4_linear" x1="2.48219" y1="97.7982" x2="86.5813" y2="137.683" gradientUnits="userSpaceOnUse">
<stop stop-color="white"/>
<stop offset="1" stop-color="white" stop-opacity="0"/>
</linearGradient>
<linearGradient id="paint5_linear" x1="51.7789" y1="90.023" x2="69.9368" y2="88.8865" gradientUnits="userSpaceOnUse">
<stop stop-color="white"/>
<stop offset="1" stop-color="white" stop-opacity="0"/>
</linearGradient>
<linearGradient id="paint6_linear" x1="52.0589" y1="40.5457" x2="70.6819" y2="40.0742" gradientUnits="userSpaceOnUse">
<stop stop-color="white"/>
<stop offset="1" stop-color="white" stop-opacity="0"/>
</linearGradient>
</defs>
</svg>
