<svg width="150" height="150" viewBox="0 0 150 150" fill="none" xmlns="http://www.w3.org/2000/svg">
<path d="M85.1556 0H54V2.76063H85.1556V0Z" fill="#0E0E2C"/>
<path d="M82.7894 26.8176H63.8594V29.1839H82.7894V26.8176Z" fill="#0E0E2C"/>
<path d="M54 16.1695L79.6344 2.76074H74.1131L54 13.0145V16.1695Z" fill="#0E0E2C"/>
<path d="M63.8594 42.5926L79.6344 29.1838H76.2367L63.8594 39.4376V42.5926Z" fill="#0E0E2C"/>
<path d="M89.0994 14.9863C89.4149 13.0933 87.1276 12.883 85.9444 13.0145C85.0023 13.0145 83.4486 27.4749 82.7894 34.7051C84.6298 34.4422 88.3107 33.6009 88.3107 32.3389C88.3107 30.7614 87.5219 22.4795 87.1276 19.3245C86.7332 16.1695 88.7051 17.3526 89.0994 14.9863Z" fill="#AA6431"/>
<path d="M89.0994 14.9863C89.4149 13.0933 87.1276 12.883 85.9444 13.0145C85.0023 13.0145 83.4486 27.4749 82.7894 34.7051C84.6298 34.4422 88.3107 33.6009 88.3107 32.3389C88.3107 30.7614 87.5219 22.4795 87.1276 19.3245C86.7332 16.1695 88.7051 17.3526 89.0994 14.9863Z" fill="url(#paint0_linear)"/>
<path d="M87.1275 15.7751L85.1556 0.788818H83.1837L85.1556 15.7751H87.1275Z" fill="#0E0E2C"/>
<path d="M89.8882 39.832C89.8882 37.939 88.3107 35.6253 87.5219 34.7051L82.0007 36.677L80.0288 46.142C81.8692 46.5363 85.9444 47.0885 87.5219 46.142C89.4938 44.9588 89.8882 42.1982 89.8882 39.832Z" fill="#AA6431"/>
<path d="M89.8882 39.832C89.8882 37.939 88.3107 35.6253 87.5219 34.7051L82.0007 36.677L80.0288 46.142C81.8692 46.5363 85.9444 47.0885 87.5219 46.142C89.4938 44.9588 89.8882 42.1982 89.8882 39.832Z" fill="url(#paint1_linear)"/>
<path d="M77.6625 140.003C76.085 137.795 79.3715 136.454 81.2119 136.059C83.7096 136.717 88.7839 138.426 89.0994 140.003C89.4938 141.975 92.2544 143.158 94.6206 145.524C96.9869 147.891 94.6206 150.651 92.2544 149.862C89.8881 149.074 79.6344 142.764 77.6625 140.003Z" fill="#212226"/>
<path d="M77.6625 140.003C76.085 137.795 79.3715 136.454 81.2119 136.059C83.7096 136.717 88.7839 138.426 89.0994 140.003C89.4938 141.975 92.2544 143.158 94.6206 145.524C96.9869 147.891 94.6206 150.651 92.2544 149.862C89.8881 149.074 79.6344 142.764 77.6625 140.003Z" fill="url(#paint2_linear)"/>
<path d="M74.9018 32.3388C73.9553 33.6008 75.822 37.5972 76.8737 39.4376C78.3198 39.1746 81.764 38.4909 83.9725 37.8599C86.7331 37.0712 88.705 33.9162 88.3106 32.3388C87.9162 30.7615 82.0006 29.5782 80.4231 29.1838C78.8456 28.7895 76.085 30.7613 74.9018 32.3388Z" fill="#212226"/>
<path d="M74.9018 32.3388C73.9553 33.6008 75.822 37.5972 76.8737 39.4376C78.3198 39.1746 81.764 38.4909 83.9725 37.8599C86.7331 37.0712 88.705 33.9162 88.3106 32.3388C87.9162 30.7615 82.0006 29.5782 80.4231 29.1838C78.8456 28.7895 76.085 30.7613 74.9018 32.3388Z" fill="url(#paint3_linear)"/>
<path d="M74.9019 91.495C73.9554 85.185 76.348 82.5558 77.6625 82.03C81.4748 80.321 89.5726 77.3763 91.4656 79.2693C93.8319 81.6356 95.4094 84.0018 93.8319 87.9456C92.2544 91.8893 91.4656 134.876 91.4656 139.609C91.4656 144.341 79.24 139.214 79.6344 134.876C80.0288 130.538 79.6344 113.186 77.6625 105.298C75.6907 97.4106 76.085 99.3825 74.9019 91.495Z" fill="#31374B"/>
<path d="M74.9019 91.495C73.9554 85.185 76.348 82.5558 77.6625 82.03C81.4748 80.321 89.5726 77.3763 91.4656 79.2693C93.8319 81.6356 95.4094 84.0018 93.8319 87.9456C92.2544 91.8893 91.4656 134.876 91.4656 139.609C91.4656 144.341 79.24 139.214 79.6344 134.876C80.0288 130.538 79.6344 113.186 77.6625 105.298C75.6907 97.4106 76.085 99.3825 74.9019 91.495Z" fill="url(#paint4_linear)"/>
<path d="M91.4656 52.0578C90.5191 50.1648 87.6533 47.3253 86.3387 46.1422C82.9208 44.959 75.8484 42.8294 74.9019 43.7759C73.7188 44.959 72.93 50.4803 73.7187 53.2409C74.5075 56.0015 79.24 69.0159 79.6344 70.9878C80.0287 72.9597 76.4793 79.664 76.085 82.0303C75.6906 84.3965 93.8319 82.4247 93.8319 79.664V64.6778C93.8319 62.3115 92.6487 54.424 91.4656 52.0578Z" fill="#8B99A6"/>
<path d="M91.4656 52.0578C90.5191 50.1648 87.6533 47.3253 86.3387 46.1422C82.9208 44.959 75.8484 42.8294 74.9019 43.7759C73.7188 44.959 72.93 50.4803 73.7187 53.2409C74.5075 56.0015 79.24 69.0159 79.6344 70.9878C80.0287 72.9597 76.4793 79.664 76.085 82.0303C75.6906 84.3965 93.8319 82.4247 93.8319 79.664V64.6778C93.8319 62.3115 92.6487 54.424 91.4656 52.0578Z" fill="url(#paint5_linear)"/>
<path d="M79.6344 25.24C79.6344 22.716 81.7378 9.20209 82.7894 2.76062C82.9177 1.97187 86.7332 1.18312 87.5219 2.76062C88.3107 4.33812 85.5501 8.28188 84.7613 9.85938C83.9726 11.4369 85.5501 17.3525 85.5501 18.93C85.5501 20.5075 85.1557 32.3388 84.7613 34.705C84.3669 37.0713 83.5782 39.8319 83.5782 42.5925C83.5782 45.3531 85.1557 44.17 86.7332 45.7475C88.3107 47.325 86.7332 49.6913 86.7332 51.2688C86.7332 52.8463 84.3669 56.3956 82.7894 56.3956C81.2119 56.3956 77.6626 56.0013 76.0851 54.0294C74.5076 52.0575 74.1132 45.7475 74.9019 42.5925C75.6907 39.4375 77.2682 40.2263 78.8457 36.6769C80.4232 33.1275 79.6344 28.395 79.6344 25.24Z" fill="#AA6431"/>
<path d="M79.6344 25.24C79.6344 22.716 81.7378 9.20209 82.7894 2.76062C82.9177 1.97187 86.7332 1.18312 87.5219 2.76062C88.3107 4.33812 85.5501 8.28188 84.7613 9.85938C83.9726 11.4369 85.5501 17.3525 85.5501 18.93C85.5501 20.5075 85.1557 32.3388 84.7613 34.705C84.3669 37.0713 83.5782 39.8319 83.5782 42.5925C83.5782 45.3531 85.1557 44.17 86.7332 45.7475C88.3107 47.325 86.7332 49.6913 86.7332 51.2688C86.7332 52.8463 84.3669 56.3956 82.7894 56.3956C81.2119 56.3956 77.6626 56.0013 76.0851 54.0294C74.5076 52.0575 74.1132 45.7475 74.9019 42.5925C75.6907 39.4375 77.2682 40.2263 78.8457 36.6769C80.4232 33.1275 79.6344 28.395 79.6344 25.24Z" fill="url(#paint6_linear)"/>
<defs>
<linearGradient id="paint0_linear" x1="78.6151" y1="24.9478" x2="85.673" y2="24.7316" gradientUnits="userSpaceOnUse">
<stop stop-color="white"/>
<stop offset="1" stop-color="white" stop-opacity="0"/>
</linearGradient>
<linearGradient id="paint1_linear" x1="73.5368" y1="41.2926" x2="84.442" y2="40.3488" gradientUnits="userSpaceOnUse">
<stop stop-color="white"/>
<stop offset="1" stop-color="white" stop-opacity="0"/>
</linearGradient>
<linearGradient id="paint2_linear" x1="52.4002" y1="138.051" x2="82.8585" y2="155.091" gradientUnits="userSpaceOnUse">
<stop stop-color="white"/>
<stop offset="1" stop-color="white" stop-opacity="0"/>
</linearGradient>
<linearGradient id="paint3_linear" x1="56.071" y1="30.6049" x2="78.7156" y2="43.4154" gradientUnits="userSpaceOnUse">
<stop stop-color="white"/>
<stop offset="1" stop-color="white" stop-opacity="0"/>
</linearGradient>
<linearGradient id="paint4_linear" x1="47.9084" y1="87.6344" x2="90.2514" y2="93.2981" gradientUnits="userSpaceOnUse">
<stop stop-color="white"/>
<stop offset="1" stop-color="white" stop-opacity="0"/>
</linearGradient>
<linearGradient id="paint5_linear" x1="64.8558" y1="68.2107" x2="80.5242" y2="67.0192" gradientUnits="userSpaceOnUse">
<stop stop-color="white"/>
<stop offset="1" stop-color="white" stop-opacity="0"/>
</linearGradient>
<linearGradient id="paint6_linear" x1="65.8458" y1="31.8945" x2="80.4953" y2="31.5236" gradientUnits="userSpaceOnUse">
<stop stop-color="white"/>
<stop offset="1" stop-color="white" stop-opacity="0"/>
</linearGradient>
</defs>
</svg>
