<svg width="150" height="150" viewBox="0 0 150 150" fill="none" xmlns="http://www.w3.org/2000/svg">
<path d="M50.9444 2H0V6.51406H50.9444V2Z" fill="#0E0E2C"/>
<path d="M47.0753 45.8508H16.1217V49.72H47.0753V45.8508Z" fill="#0E0E2C"/>
<path d="M0 28.4396L41.9163 6.51416H32.8881L0 23.2807V28.4396Z" fill="#0E0E2C"/>
<path d="M16.1217 71.6457L41.9163 49.7202H36.3606L16.1217 66.4867V71.6457Z" fill="#0E0E2C"/>
<path d="M57.393 26.5047C57.9089 23.4093 54.1687 23.0654 52.2341 23.2804C50.6936 23.2804 48.153 46.9255 47.0752 58.748C50.0846 58.3181 56.1033 56.9424 56.1033 54.8788C56.1033 52.2994 54.8136 38.7572 54.1687 33.5983C53.5239 28.4393 56.7482 30.3739 57.393 26.5047Z" fill="#AA6431"/>
<path d="M57.393 26.5047C57.9089 23.4093 54.1687 23.0654 52.2341 23.2804C50.6936 23.2804 48.153 46.9255 47.0752 58.748C50.0846 58.3181 56.1033 56.9424 56.1033 54.8788C56.1033 52.2994 54.8136 38.7572 54.1687 33.5983C53.5239 28.4393 56.7482 30.3739 57.393 26.5047Z" fill="url(#paint0_linear)"/>
<path d="M54.1688 27.7947L50.9444 3.28979H47.7201L50.9444 27.7947H54.1688Z" fill="#0E0E2C"/>
<path d="M138.001 123.235C136.067 124.524 130.908 125.169 129.618 125.169L123.169 132.908C124.674 136.347 128.328 143.097 130.908 142.581C134.132 141.936 147.674 127.104 149.609 124.524C151.544 121.945 145.74 117.431 144.45 118.076C143.16 118.721 139.936 121.945 138.001 123.235Z" fill="#212226"/>
<path d="M138.001 123.235C136.067 124.524 130.908 125.169 129.618 125.169L123.169 132.908C124.674 136.347 128.328 143.097 130.908 142.581C134.132 141.936 147.674 127.104 149.609 124.524C151.544 121.945 145.74 117.431 144.45 118.076C143.16 118.721 139.936 121.945 138.001 123.235Z" fill="url(#paint1_linear)"/>
<path d="M55.8832 67.2146C55.8832 64.1192 53.3038 60.336 52.014 58.8313L42.9859 62.0556L39.7616 77.5324C42.771 78.1773 49.4346 79.0801 52.014 77.5324C55.2384 75.5978 55.8832 71.0837 55.8832 67.2146Z" fill="#AA6431"/>
<path d="M55.8832 67.2146C55.8832 64.1192 53.3038 60.336 52.014 58.8313L42.9859 62.0556L39.7616 77.5324C42.771 78.1773 49.4346 79.0801 52.014 77.5324C55.2384 75.5978 55.8832 71.0837 55.8832 67.2146Z" fill="url(#paint2_linear)"/>
<path d="M30.0885 56.2521C28.5409 58.3157 31.5932 64.8503 33.3129 67.8597C35.6774 67.4297 41.3092 66.3117 44.9205 65.2799C49.4346 63.9902 52.6589 58.8313 52.014 56.2521C51.3692 53.673 41.6962 51.7381 39.1167 51.0932C36.5372 50.4483 32.0231 53.6727 30.0885 56.2521Z" fill="#212226"/>
<path d="M30.0885 56.2521C28.5409 58.3157 31.5932 64.8503 33.3129 67.8597C35.6774 67.4297 41.3092 66.3117 44.9205 65.2799C49.4346 63.9902 52.6589 58.8313 52.014 56.2521C51.3692 53.673 41.6962 51.7381 39.1167 51.0932C36.5372 50.4483 32.0231 53.6727 30.0885 56.2521Z" fill="url(#paint3_linear)"/>
<path d="M51.5892 147.74C47.978 148.255 41.4863 144.945 38.6919 143.225C41.7013 133.982 48.2359 115.238 50.2995 114.207C52.8789 112.917 83.1876 103.889 86.412 103.889C89.6363 103.889 126.394 120.655 130.263 122.59C134.132 124.524 132.842 143.225 128.973 144.515C125.104 145.805 91.5709 128.394 88.3466 128.394C85.1222 128.394 56.1033 147.095 51.5892 147.74Z" fill="#31374B"/>
<path d="M51.5892 147.74C47.978 148.255 41.4863 144.945 38.6919 143.225C41.7013 133.982 48.2359 115.238 50.2995 114.207C52.8789 112.917 83.1876 103.889 86.412 103.889C89.6363 103.889 126.394 120.655 130.263 122.59C134.132 124.524 132.842 143.225 128.973 144.515C125.104 145.805 91.5709 128.394 88.3466 128.394C85.1222 128.394 56.1033 147.095 51.5892 147.74Z" fill="url(#paint4_linear)"/>
<path d="M52.879 89.7016C51.3313 86.6062 47.9351 78.739 45.7855 76.8044C40.1967 74.8698 35.7256 72.0325 34.1779 73.5802C32.2434 75.5148 26.4395 87.1224 26.4395 87.1224C26.4395 87.1224 23.2152 110.337 23.2152 116.786C23.2152 123.235 30.9536 143.87 39.3369 143.87C47.7201 143.87 45.7855 130.328 45.7855 125.814C45.7855 121.3 52.879 118.076 52.879 114.206C52.879 110.337 54.8136 93.5708 52.879 89.7016Z" fill="#8B99A6"/>
<path d="M52.879 89.7016C51.3313 86.6062 47.9351 78.739 45.7855 76.8044C40.1967 74.8698 35.7256 72.0325 34.1779 73.5802C32.2434 75.5148 26.4395 87.1224 26.4395 87.1224C26.4395 87.1224 23.2152 110.337 23.2152 116.786C23.2152 123.235 30.9536 143.87 39.3369 143.87C47.7201 143.87 45.7855 130.328 45.7855 125.814C45.7855 121.3 52.879 118.076 52.879 114.206C52.879 110.337 54.8136 93.5708 52.879 89.7016Z" fill="url(#paint5_linear)"/>
<path d="M42.6823 43.0357C43.1695 38.9374 49.1932 17.4005 52.1441 7.14431C52.5047 5.88836 58.8522 5.34411 59.8284 8.05778C60.8046 10.7715 55.5609 16.6422 53.9757 19.0514C52.3905 21.4605 53.8101 31.3704 53.5056 33.9318C53.2011 36.4932 50.2771 55.6278 49.18 59.3938C48.0829 63.1599 46.2693 67.4901 45.7365 71.9726C45.2036 76.4551 47.9934 74.8385 50.2503 77.7045C52.5073 80.5704 49.4891 84.108 49.1846 86.6695C48.8801 89.2309 44.3529 94.5374 41.7915 94.2329C39.23 93.9284 33.5429 92.6029 31.3621 89.0966C29.1813 85.5904 29.7589 75.2685 31.6486 70.2979C33.5383 65.3273 35.9475 66.9125 39.194 61.4538C42.4406 55.9951 42.0733 48.1585 42.6823 43.0357Z" fill="#AA6431"/>
<path d="M42.6823 43.0357C43.1695 38.9374 49.1932 17.4005 52.1441 7.14431C52.5047 5.88836 58.8522 5.34411 59.8284 8.05778C60.8046 10.7715 55.5609 16.6422 53.9757 19.0514C52.3905 21.4605 53.8101 31.3704 53.5056 33.9318C53.2011 36.4932 50.2771 55.6278 49.18 59.3938C48.0829 63.1599 46.2693 67.4901 45.7365 71.9726C45.2036 76.4551 47.9934 74.8385 50.2503 77.7045C52.5073 80.5704 49.4891 84.108 49.1846 86.6695C48.8801 89.2309 44.3529 94.5374 41.7915 94.2329C39.23 93.9284 33.5429 92.6029 31.3621 89.0966C29.1813 85.5904 29.7589 75.2685 31.6486 70.2979C33.5383 65.3273 35.9475 66.9125 39.194 61.4538C42.4406 55.9951 42.0733 48.1585 42.6823 43.0357Z" fill="url(#paint6_linear)"/>
<defs>
<linearGradient id="paint0_linear" x1="40.2495" y1="42.7933" x2="51.7903" y2="42.4397" gradientUnits="userSpaceOnUse">
<stop stop-color="white"/>
<stop offset="1" stop-color="white" stop-opacity="0"/>
</linearGradient>
<linearGradient id="paint1_linear" x1="86.8488" y1="121.527" x2="134.969" y2="143.834" gradientUnits="userSpaceOnUse">
<stop stop-color="white"/>
<stop offset="1" stop-color="white" stop-opacity="0"/>
</linearGradient>
<linearGradient id="paint2_linear" x1="29.1462" y1="69.6029" x2="46.9778" y2="68.0596" gradientUnits="userSpaceOnUse">
<stop stop-color="white"/>
<stop offset="1" stop-color="white" stop-opacity="0"/>
</linearGradient>
<linearGradient id="paint3_linear" x1="-0.702904" y1="53.4169" x2="36.3247" y2="74.364" gradientUnits="userSpaceOnUse">
<stop stop-color="white"/>
<stop offset="1" stop-color="white" stop-opacity="0"/>
</linearGradient>
<linearGradient id="paint4_linear" x1="-88.4303" y1="110.161" x2="23.621" y2="212.002" gradientUnits="userSpaceOnUse">
<stop stop-color="white"/>
<stop offset="1" stop-color="white" stop-opacity="0"/>
</linearGradient>
<linearGradient id="paint5_linear" x1="10.4482" y1="117.263" x2="33.8978" y2="115.774" gradientUnits="userSpaceOnUse">
<stop stop-color="white"/>
<stop offset="1" stop-color="white" stop-opacity="0"/>
</linearGradient>
<linearGradient id="paint6_linear" x1="19.0089" y1="51.1793" x2="42.8672" y2="53.4048" gradientUnits="userSpaceOnUse">
<stop stop-color="white"/>
<stop offset="1" stop-color="white" stop-opacity="0"/>
</linearGradient>
</defs>
</svg>
