<svg width="150" height="150" viewBox="0 0 150 150" fill="none" xmlns="http://www.w3.org/2000/svg">
<path d="M82.7962 0H49V2.9946H82.7962V0Z" fill="#0E0E2C"/>
<path d="M80.2293 29.0903H59.6949V31.6571H80.2293V29.0903Z" fill="#0E0E2C"/>
<path d="M49 17.5398L76.807 2.99463H70.8178L49 14.1174V17.5398Z" fill="#0E0E2C"/>
<path d="M59.6949 46.2024L76.8069 31.6572H73.1213L59.6949 42.78V46.2024Z" fill="#0E0E2C"/>
<path d="M87.0742 16.2565C87.4164 14.203 84.9352 13.9749 83.6518 14.1175C82.6298 14.1175 80.9444 29.8035 80.2294 37.6465C82.2258 37.3613 86.2186 36.4487 86.2186 35.0797C86.2186 33.3685 85.363 24.3847 84.9352 20.9623C84.5074 17.5399 86.6464 18.8233 87.0742 16.2565Z" fill="#AA6431"/>
<path d="M87.0742 16.2565C87.4164 14.203 84.9352 13.9749 83.6518 14.1175C82.6298 14.1175 80.9444 29.8035 80.2294 37.6465C82.2258 37.3613 86.2186 36.4487 86.2186 35.0797C86.2186 33.3685 85.363 24.3847 84.9352 20.9623C84.5074 17.5399 86.6464 18.8233 87.0742 16.2565Z" fill="url(#paint0_linear)"/>
<path d="M84.9352 17.1121L82.7962 0.855713H80.6572L82.7962 17.1121H84.9352Z" fill="#0E0E2C"/>
<path d="M87.9297 43.2079C87.9297 41.1544 86.2185 38.6447 85.3629 37.6465L79.3737 39.7855L77.2347 50.0527C79.2311 50.4805 83.6517 51.0794 85.3629 50.0527C87.5019 48.7693 87.9297 45.7747 87.9297 43.2079Z" fill="#AA6431"/>
<path d="M87.9297 43.2079C87.9297 41.1544 86.2185 38.6447 85.3629 37.6465L79.3737 39.7855L77.2347 50.0527C79.2311 50.4805 83.6517 51.0794 85.3629 50.0527C87.5019 48.7693 87.9297 45.7747 87.9297 43.2079Z" fill="url(#paint1_linear)"/>
<path d="M71.6734 35.0798C70.6466 36.4488 72.6716 40.7838 73.8124 42.7802C75.381 42.4949 79.1171 41.7533 81.5128 41.0688C84.5074 40.2132 86.6464 36.7908 86.2186 35.0798C85.7908 33.3688 79.3738 32.0852 77.6626 31.6574C75.9514 31.2296 72.9568 33.3686 71.6734 35.0798Z" fill="#212226"/>
<path d="M71.6734 35.0798C70.6466 36.4488 72.6716 40.7838 73.8124 42.7802C75.381 42.4949 79.1171 41.7533 81.5128 41.0688C84.5074 40.2132 86.6464 36.7908 86.2186 35.0798C85.7908 33.3688 79.3738 32.0852 77.6626 31.6574C75.9514 31.2296 72.9568 33.3686 71.6734 35.0798Z" fill="url(#paint2_linear)"/>
<path d="M65.2564 131.334C66.6253 129.966 68.1084 129.908 68.6788 130.051C70.5326 131.905 74.4113 136.04 75.0957 137.752C75.9513 139.891 76.3791 144.169 76.8069 147.591C77.2347 151.013 74.2402 150.586 71.6734 147.591C69.1066 144.596 63.5452 133.046 65.2564 131.334Z" fill="#212226"/>
<path d="M65.2564 131.334C66.6253 129.966 68.1084 129.908 68.6788 130.051C70.5326 131.905 74.4113 136.04 75.0957 137.752C75.9513 139.891 76.3791 144.169 76.8069 147.591C77.2347 151.013 74.2402 150.586 71.6734 147.591C69.1066 144.596 63.5452 133.046 65.2564 131.334Z" fill="url(#paint3_linear)"/>
<path d="M74.2403 94.5437C72.5291 90.4368 73.5273 89.1249 74.2403 88.9823C79.5165 87.2711 90.4966 84.1909 92.2078 85.5599C94.3468 87.2711 94.3468 91.1213 95.6302 94.5437C96.9136 97.9661 101.619 113.367 100.336 117.217C99.0526 121.067 78.5183 138.179 74.2403 140.318C69.9624 142.457 66.5399 130.907 69.1067 129.195C71.6735 127.484 84.9353 116.361 84.5075 113.367C84.0797 110.372 76.3793 99.6773 74.2403 94.5437Z" fill="#31374B"/>
<path d="M74.2403 94.5437C72.5291 90.4368 73.5273 89.1249 74.2403 88.9823C79.5165 87.2711 90.4966 84.1909 92.2078 85.5599C94.3468 87.2711 94.3468 91.1213 95.6302 94.5437C96.9136 97.9661 101.619 113.367 100.336 117.217C99.0526 121.067 78.5183 138.179 74.2403 140.318C69.9624 142.457 66.5399 130.907 69.1067 129.195C71.6735 127.484 84.9353 116.361 84.5075 113.367C84.0797 110.372 76.3793 99.6773 74.2403 94.5437Z" fill="url(#paint4_linear)"/>
<path d="M89.6409 56.4699C88.6142 54.4164 85.5055 51.3363 84.0795 50.0529C80.3719 48.7695 72.7 46.4594 71.6733 47.4861C70.39 48.7695 69.5343 54.7587 70.3899 57.7533C71.2455 60.7479 76.3791 74.8653 76.8069 77.0043C77.2347 79.1433 73.3845 86.4159 72.9567 88.9827C72.5289 91.5495 92.2077 89.4105 92.2077 86.4159V70.1595C92.2077 67.5927 90.9243 59.0367 89.6409 56.4699Z" fill="#8B99A6"/>
<path d="M89.6409 56.4699C88.6142 54.4164 85.5055 51.3363 84.0795 50.0529C80.3719 48.7695 72.7 46.4594 71.6733 47.4861C70.39 48.7695 69.5343 54.7587 70.3899 57.7533C71.2455 60.7479 76.3791 74.8653 76.8069 77.0043C77.2347 79.1433 73.3845 86.4159 72.9567 88.9827C72.5289 91.5495 92.2077 89.4105 92.2077 86.4159V70.1595C92.2077 67.5927 90.9243 59.0367 89.6409 56.4699Z" fill="url(#paint5_linear)"/>
<path d="M76.807 27.3791C76.807 24.6412 79.0886 9.98195 80.2294 2.99455C80.3686 2.13895 84.5074 1.28335 85.363 2.99455C86.2186 4.70575 83.224 8.98375 82.3684 10.695C81.5128 12.4062 83.224 18.8231 83.224 20.5343C83.224 22.2455 82.7962 35.0795 82.3684 37.6463C81.9406 40.2131 81.085 43.2077 81.085 46.2023C81.085 49.1969 82.7962 47.9135 84.5074 49.6247C86.2186 51.3359 84.5074 53.9027 84.5074 55.6139C84.5074 57.3251 81.9406 61.1753 80.2294 61.1753C78.5182 61.1753 74.668 60.7475 72.9568 58.6085C71.2456 56.4695 70.8178 49.6247 71.6734 46.2023C72.529 42.7799 74.2402 43.6355 75.9514 39.7853C77.6626 35.9351 76.807 30.8015 76.807 27.3791Z" fill="#AA6431"/>
<path d="M76.807 27.3791C76.807 24.6412 79.0886 9.98195 80.2294 2.99455C80.3686 2.13895 84.5074 1.28335 85.363 2.99455C86.2186 4.70575 83.224 8.98375 82.3684 10.695C81.5128 12.4062 83.224 18.8231 83.224 20.5343C83.224 22.2455 82.7962 35.0795 82.3684 37.6463C81.9406 40.2131 81.085 43.2077 81.085 46.2023C81.085 49.1969 82.7962 47.9135 84.5074 49.6247C86.2186 51.3359 84.5074 53.9027 84.5074 55.6139C84.5074 57.3251 81.9406 61.1753 80.2294 61.1753C78.5182 61.1753 74.668 60.7475 72.9568 58.6085C71.2456 56.4695 70.8178 49.6247 71.6734 46.2023C72.529 42.7799 74.2402 43.6355 75.9514 39.7853C77.6626 35.9351 76.807 30.8015 76.807 27.3791Z" fill="url(#paint6_linear)"/>
<defs>
<linearGradient id="paint0_linear" x1="75.7012" y1="27.0623" x2="83.3573" y2="26.8277" gradientUnits="userSpaceOnUse">
<stop stop-color="white"/>
<stop offset="1" stop-color="white" stop-opacity="0"/>
</linearGradient>
<linearGradient id="paint1_linear" x1="70.1925" y1="44.7923" x2="82.0219" y2="43.7685" gradientUnits="userSpaceOnUse">
<stop stop-color="white"/>
<stop offset="1" stop-color="white" stop-opacity="0"/>
</linearGradient>
<linearGradient id="paint2_linear" x1="51.2465" y1="33.1989" x2="75.8104" y2="47.0951" gradientUnits="userSpaceOnUse">
<stop stop-color="white"/>
<stop offset="1" stop-color="white" stop-opacity="0"/>
</linearGradient>
<linearGradient id="paint3_linear" x1="48.8087" y1="132.855" x2="73.2031" y2="139.029" gradientUnits="userSpaceOnUse">
<stop stop-color="white"/>
<stop offset="1" stop-color="white" stop-opacity="0"/>
</linearGradient>
<linearGradient id="paint4_linear" x1="24.4532" y1="93.1277" x2="90.8163" y2="109.597" gradientUnits="userSpaceOnUse">
<stop stop-color="white"/>
<stop offset="1" stop-color="white" stop-opacity="0"/>
</linearGradient>
<linearGradient id="paint5_linear" x1="60.7758" y1="73.9918" x2="77.7722" y2="72.6993" gradientUnits="userSpaceOnUse">
<stop stop-color="white"/>
<stop offset="1" stop-color="white" stop-opacity="0"/>
</linearGradient>
<linearGradient id="paint6_linear" x1="61.8497" y1="34.5977" x2="77.7408" y2="34.1953" gradientUnits="userSpaceOnUse">
<stop stop-color="white"/>
<stop offset="1" stop-color="white" stop-opacity="0"/>
</linearGradient>
</defs>
</svg>
