<svg width="150" height="150" viewBox="0 0 150 150" fill="none" xmlns="http://www.w3.org/2000/svg">
<path d="M51.0622 6.53906H0V11.0636H51.0622V6.53906Z" fill="#0E0E2C"/>
<path d="M47.1841 50.4915H16.1589V54.3696H47.1841V50.4915Z" fill="#0E0E2C"/>
<path d="M0 33.0396L42.0132 11.0635H32.9642L0 27.8688V33.0396Z" fill="#0E0E2C"/>
<path d="M16.1589 76.3458L42.0132 54.3696H36.4446L16.1589 71.1749V76.3458Z" fill="#0E0E2C"/>
<path d="M57.5258 31.1007C58.0429 27.9981 54.294 27.6534 52.3549 27.8689C50.8109 27.8689 48.2643 51.5687 47.1841 63.4186C50.2004 62.9877 56.2331 61.6088 56.2331 59.5404C56.2331 56.955 54.9404 43.3815 54.294 38.2106C53.6477 33.0398 56.8794 34.9788 57.5258 31.1007Z" fill="#AA6431"/>
<path d="M57.5258 31.1007C58.0429 27.9981 54.294 27.6534 52.3549 27.8689C50.8109 27.8689 48.2643 51.5687 47.1841 63.4186C50.2004 62.9877 56.2331 61.6088 56.2331 59.5404C56.2331 56.955 54.9404 43.3815 54.294 38.2106C53.6477 33.0398 56.8794 34.9788 57.5258 31.1007Z" fill="url(#paint0_linear)"/>
<path d="M54.294 32.3934L51.0622 7.83179H47.8304L51.0622 32.3934H54.294Z" fill="#0E0E2C"/>
<path d="M56.0125 71.9046C56.0125 68.8021 53.427 65.0101 52.1343 63.502L43.0853 66.7337L39.8535 82.2463C42.8699 82.8927 49.5489 83.7976 52.1343 82.2463C55.3661 80.3072 56.0125 75.7827 56.0125 71.9046Z" fill="#AA6431"/>
<path d="M56.0125 71.9046C56.0125 68.8021 53.427 65.0101 52.1343 63.502L43.0853 66.7337L39.8535 82.2463C42.8699 82.8927 49.5489 83.7976 52.1343 82.2463C55.3661 80.3072 56.0125 75.7827 56.0125 71.9046Z" fill="url(#paint1_linear)"/>
<path d="M149.955 102.846C149.438 106.983 140.69 116.635 136.381 120.944C133.365 117.066 127.979 109.181 130.564 108.664C133.796 108.017 138.967 100.261 141.552 97.6754C144.138 95.09 150.601 97.6754 149.955 102.846Z" fill="#212226"/>
<path d="M149.955 102.846C149.438 106.983 140.69 116.635 136.381 120.944C133.365 117.066 127.979 109.181 130.564 108.664C133.796 108.017 138.967 100.261 141.552 97.6754C144.138 95.09 150.601 97.6754 149.955 102.846Z" fill="url(#paint2_linear)"/>
<path d="M30.1581 60.9166C28.6069 62.9849 31.6663 69.5347 33.3899 72.551C35.7599 72.12 41.4048 70.9995 45.0244 69.9653C49.5489 68.6726 52.7807 63.5017 52.1343 60.9166C51.488 58.3315 41.7926 56.3921 39.2072 55.7457C36.6217 55.0994 32.0972 58.3312 30.1581 60.9166Z" fill="#212226"/>
<path d="M30.1581 60.9166C28.6069 62.9849 31.6663 69.5347 33.3899 72.551C35.7599 72.12 41.4048 70.9995 45.0244 69.9653C49.5489 68.6726 52.7807 63.5017 52.1343 60.9166C51.488 58.3315 41.7926 56.3921 39.2072 55.7457C36.6217 55.0994 32.0972 58.3312 30.1581 60.9166Z" fill="url(#paint3_linear)"/>
<path d="M53.0014 144.213C45.2451 145.764 41.5824 140.12 40.7206 137.103C43.0906 129.562 48.8647 114.222 53.0014 113.188C58.1722 111.895 126.686 104.785 131.211 104.785C135.735 104.785 140.906 122.883 135.089 124.176C129.272 125.469 62.6967 142.274 53.0014 144.213Z" fill="#31374B"/>
<path d="M53.0014 144.213C45.2451 145.764 41.5824 140.12 40.7206 137.103C43.0906 129.562 48.8647 114.222 53.0014 113.188C58.1722 111.895 126.686 104.785 131.211 104.785C135.735 104.785 140.906 122.883 135.089 124.176C129.272 125.469 62.6967 142.274 53.0014 144.213Z" fill="url(#paint4_linear)"/>
<path d="M53.0013 85.3948C50.845 82.6777 47.3787 76.5752 44.8714 75.1208C38.9905 74.3756 34.0199 72.5144 32.821 74.3516C31.3223 76.6481 28.0228 89.2304 28.0228 89.2304C28.0228 89.2304 29.6468 112.666 30.9764 118.991C32.306 125.317 38.1351 139.075 41.3669 138.396C44.5987 137.717 47.1481 125.806 49.1232 121.591C51.0984 117.376 57.0309 116.337 56.2331 112.542C55.4353 108.747 55.6967 88.7911 53.0013 85.3948Z" fill="#8B99A6"/>
<path d="M53.0013 85.3948C50.845 82.6777 47.3787 76.5752 44.8714 75.1208C38.9905 74.3756 34.0199 72.5144 32.821 74.3516C31.3223 76.6481 28.0228 89.2304 28.0228 89.2304C28.0228 89.2304 29.6468 112.666 30.9764 118.991C32.306 125.317 38.1351 139.075 41.3669 138.396C44.5987 137.717 47.1481 125.806 49.1232 121.591C51.0984 117.376 57.0309 116.337 56.2331 112.542C55.4353 108.747 55.6967 88.7911 53.0013 85.3948Z" fill="url(#paint5_linear)"/>
<path d="M39.8776 44.7627C40.1207 40.6331 44.8637 18.7255 47.2049 8.28789C47.4907 7.00977 53.8092 6.08682 54.9477 8.74376C56.0863 11.4007 51.1897 17.5872 49.7473 20.0922C48.3048 22.5971 50.3159 32.4277 50.164 35.0087C50.012 37.5896 48.2271 56.9088 47.3539 60.7423C46.4808 64.5757 44.9244 69.0164 44.6584 73.5331C44.3925 78.0498 47.0874 76.2661 49.5165 78.999C51.9455 81.7319 49.1366 85.4514 48.9846 88.0323C48.8326 90.6133 44.6193 96.1925 42.0383 96.0406C39.4574 95.8886 33.6882 94.9015 31.2972 91.5233C28.9062 88.1451 28.8688 77.7833 30.4632 72.6974C32.0576 67.6114 34.5625 69.0539 37.4854 63.3987C40.4083 57.7435 39.5737 49.9246 39.8776 44.7627Z" fill="#AA6431"/>
<path d="M39.8776 44.7627C40.1207 40.6331 44.8637 18.7255 47.2049 8.28789C47.4907 7.00977 53.8092 6.08682 54.9477 8.74376C56.0863 11.4007 51.1897 17.5872 49.7473 20.0922C48.3048 22.5971 50.3159 32.4277 50.164 35.0087C50.012 37.5896 48.2271 56.9088 47.3539 60.7423C46.4808 64.5757 44.9244 69.0164 44.6584 73.5331C44.3925 78.0498 47.0874 76.2661 49.5165 78.999C51.9455 81.7319 49.1366 85.4514 48.9846 88.0323C48.8326 90.6133 44.6193 96.1925 42.0383 96.0406C39.4574 95.8886 33.6882 94.9015 31.2972 91.5233C28.9062 88.1451 28.8688 77.7833 30.4632 72.6974C32.0576 67.6114 34.5625 69.0539 37.4854 63.3987C40.4083 57.7435 39.5737 49.9246 39.8776 44.7627Z" fill="url(#paint6_linear)"/>
<defs>
<linearGradient id="paint0_linear" x1="40.3426" y1="47.427" x2="51.91" y2="47.0726" gradientUnits="userSpaceOnUse">
<stop stop-color="white"/>
<stop offset="1" stop-color="white" stop-opacity="0"/>
</linearGradient>
<linearGradient id="paint1_linear" x1="29.2135" y1="74.2984" x2="47.0864" y2="72.7516" gradientUnits="userSpaceOnUse">
<stop stop-color="white"/>
<stop offset="1" stop-color="white" stop-opacity="0"/>
</linearGradient>
<linearGradient id="paint2_linear" x1="102.649" y1="100.13" x2="141.65" y2="113.86" gradientUnits="userSpaceOnUse">
<stop stop-color="white"/>
<stop offset="1" stop-color="white" stop-opacity="0"/>
</linearGradient>
<linearGradient id="paint3_linear" x1="-0.704551" y1="58.0748" x2="36.4087" y2="79.0704" gradientUnits="userSpaceOnUse">
<stop stop-color="white"/>
<stop offset="1" stop-color="white" stop-opacity="0"/>
</linearGradient>
<linearGradient id="paint4_linear" x1="-90.5322" y1="110.456" x2="11.1606" y2="216.013" gradientUnits="userSpaceOnUse">
<stop stop-color="white"/>
<stop offset="1" stop-color="white" stop-opacity="0"/>
</linearGradient>
<linearGradient id="paint5_linear" x1="18.4474" y1="118.276" x2="39.9147" y2="112.27" gradientUnits="userSpaceOnUse">
<stop stop-color="white"/>
<stop offset="1" stop-color="white" stop-opacity="0"/>
</linearGradient>
<linearGradient id="paint6_linear" x1="16.6769" y1="54.322" x2="40.6807" y2="55.1263" gradientUnits="userSpaceOnUse">
<stop stop-color="white"/>
<stop offset="1" stop-color="white" stop-opacity="0"/>
</linearGradient>
</defs>
</svg>
