<svg width="150" height="150" viewBox="0 0 150 150" fill="none" xmlns="http://www.w3.org/2000/svg">
<path d="M51.0622 6H0V10.5245H51.0622V6Z" fill="#0E0E2C"/>
<path d="M149.955 102.307C149.438 106.444 140.69 116.096 136.381 120.405C133.365 116.527 127.979 108.642 130.564 108.125C133.796 107.478 138.967 99.7218 141.552 97.1363C144.138 94.5509 150.601 97.1363 149.955 102.307Z" fill="#212226"/>
<path d="M149.955 102.307C149.438 106.444 140.69 116.096 136.381 120.405C133.365 116.527 127.979 108.642 130.564 108.125C133.796 107.478 138.967 99.7218 141.552 97.1363C144.138 94.5509 150.601 97.1363 149.955 102.307Z" fill="url(#paint0_linear)"/>
<path d="M47.1841 49.9524H16.1589V53.8305H47.1841V49.9524Z" fill="#0E0E2C"/>
<path d="M53.0014 143.674C45.2451 145.225 41.5824 139.581 40.7206 136.564C43.0906 129.023 48.8647 113.683 53.0014 112.649C58.1722 111.356 126.686 104.246 131.211 104.246C135.735 104.246 140.906 122.344 135.089 123.637C129.272 124.93 62.6967 141.735 53.0014 143.674Z" fill="#31374B"/>
<path d="M53.0014 143.674C45.2451 145.225 41.5824 139.581 40.7206 136.564C43.0906 129.023 48.8647 113.683 53.0014 112.649C58.1722 111.356 126.686 104.246 131.211 104.246C135.735 104.246 140.906 122.344 135.089 123.637C129.272 124.93 62.6967 141.735 53.0014 143.674Z" fill="url(#paint1_linear)"/>
<path d="M0 32.5006L42.0132 10.5244H32.9642L0 27.3297V32.5006Z" fill="#0E0E2C"/>
<path d="M53.0013 84.8557C50.845 82.1387 47.3787 76.0362 44.8714 74.5818C38.9905 73.8365 34.0199 71.9754 32.821 73.8126C31.3223 76.109 28.0228 88.6913 28.0228 88.6913C28.0228 88.6913 29.6468 112.127 30.9764 118.452C32.306 124.778 38.1351 138.536 41.3669 137.857C44.5987 137.178 47.1481 125.267 49.1232 121.052C51.0984 116.837 57.0309 115.798 56.2331 112.003C55.4353 108.208 55.6967 88.252 53.0013 84.8557Z" fill="#8B99A6"/>
<path d="M53.0013 84.8557C50.845 82.1387 47.3787 76.0362 44.8714 74.5818C38.9905 73.8365 34.0199 71.9754 32.821 73.8126C31.3223 76.109 28.0228 88.6913 28.0228 88.6913C28.0228 88.6913 29.6468 112.127 30.9764 118.452C32.306 124.778 38.1351 138.536 41.3669 137.857C44.5987 137.178 47.1481 125.267 49.1232 121.052C51.0984 116.837 57.0309 115.798 56.2331 112.003C55.4353 108.208 55.6967 88.252 53.0013 84.8557Z" fill="url(#paint2_linear)"/>
<path d="M16.1589 75.8067L42.0132 53.8306H36.4446L16.1589 70.6359V75.8067Z" fill="#0E0E2C"/>
<path d="M57.5258 30.5616C58.0429 27.4591 54.294 27.1144 52.3549 27.3298C50.8109 27.3298 48.2643 51.0296 47.1841 62.8795C50.2004 62.4486 56.2331 61.0697 56.2331 59.0014C56.2331 56.4159 54.9404 42.8424 54.294 37.6716C53.6477 32.5007 56.8794 34.4397 57.5258 30.5616Z" fill="#AA6431"/>
<path d="M57.5258 30.5616C58.0429 27.4591 54.294 27.1144 52.3549 27.3298C50.8109 27.3298 48.2643 51.0296 47.1841 62.8795C50.2004 62.4486 56.2331 61.0697 56.2331 59.0014C56.2331 56.4159 54.9404 42.8424 54.294 37.6716C53.6477 32.5007 56.8794 34.4397 57.5258 30.5616Z" fill="url(#paint3_linear)"/>
<path d="M54.294 31.8543L51.0622 7.29272H47.8304L51.0622 31.8543H54.294Z" fill="#0E0E2C"/>
<path d="M56.0125 71.3655C56.0125 68.263 53.427 64.4711 52.1343 62.9629L43.0853 66.1947L39.8535 81.7073C42.8699 82.3536 49.5489 83.2585 52.1343 81.7073C55.3661 79.7682 56.0125 75.2437 56.0125 71.3655Z" fill="#AA6431"/>
<path d="M56.0125 71.3655C56.0125 68.263 53.427 64.4711 52.1343 62.9629L43.0853 66.1947L39.8535 81.7073C42.8699 82.3536 49.5489 83.2585 52.1343 81.7073C55.3661 79.7682 56.0125 75.2437 56.0125 71.3655Z" fill="url(#paint4_linear)"/>
<path d="M30.1581 60.3778C28.6069 62.4461 31.6663 68.9959 33.3899 72.0122C35.7599 71.5812 41.4048 70.4606 45.0244 69.4265C49.5489 68.1338 52.7807 62.9629 52.1343 60.3778C51.488 57.7927 41.7926 55.8533 39.2072 55.2069C36.6217 54.5606 32.0972 57.7923 30.1581 60.3778Z" fill="#212226"/>
<path d="M30.1581 60.3778C28.6069 62.4461 31.6663 68.9959 33.3899 72.0122C35.7599 71.5812 41.4048 70.4606 45.0244 69.4265C49.5489 68.1338 52.7807 62.9629 52.1343 60.3778C51.488 57.7927 41.7926 55.8533 39.2072 55.2069C36.6217 54.5606 32.0972 57.7923 30.1581 60.3778Z" fill="url(#paint5_linear)"/>
<path d="M41.2797 47.7075C41.6183 43.5847 46.867 21.7927 49.449 11.412C49.7644 10.1408 56.1025 9.36435 57.1792 12.0469C58.256 14.7295 53.2176 20.801 51.7176 23.272C50.2175 25.7429 52.0007 35.6174 51.789 38.1941C51.5774 40.7709 49.3459 60.0436 48.3843 63.8558C47.4226 67.668 45.7639 72.0715 45.3935 76.5809C45.0232 81.0902 47.7586 79.3693 50.1238 82.1576C52.4889 84.946 49.5947 88.5995 49.383 91.1763C49.1714 93.753 44.8301 99.2333 42.2533 99.0216C39.6766 98.81 33.9318 97.6896 31.6196 94.2571C29.3074 90.8245 29.5097 80.4646 31.2214 75.4169C32.933 70.3692 35.404 71.8692 38.4569 66.2831C41.5098 60.6971 40.8564 52.861 41.2797 47.7075Z" fill="#AA6431"/>
<path d="M41.2797 47.7075C41.6183 43.5847 46.867 21.7927 49.449 11.412C49.7644 10.1408 56.1025 9.36435 57.1792 12.0469C58.256 14.7295 53.2176 20.801 51.7176 23.272C50.2175 25.7429 52.0007 35.6174 51.789 38.1941C51.5774 40.7709 49.3459 60.0436 48.3843 63.8558C47.4226 67.668 45.7639 72.0715 45.3935 76.5809C45.0232 81.0902 47.7586 79.3693 50.1238 82.1576C52.4889 84.946 49.5947 88.5995 49.383 91.1763C49.1714 93.753 44.8301 99.2333 42.2533 99.0216C39.6766 98.81 33.9318 97.6896 31.6196 94.2571C29.3074 90.8245 29.5097 80.4646 31.2214 75.4169C32.933 70.3692 35.404 71.8692 38.4569 66.2831C41.5098 60.6971 40.8564 52.861 41.2797 47.7075Z" fill="url(#paint6_linear)"/>
<defs>
<linearGradient id="paint0_linear" x1="102.649" y1="99.5911" x2="141.65" y2="113.321" gradientUnits="userSpaceOnUse">
<stop stop-color="white"/>
<stop offset="1" stop-color="white" stop-opacity="0"/>
</linearGradient>
<linearGradient id="paint1_linear" x1="-90.5322" y1="109.917" x2="11.1606" y2="215.474" gradientUnits="userSpaceOnUse">
<stop stop-color="white"/>
<stop offset="1" stop-color="white" stop-opacity="0"/>
</linearGradient>
<linearGradient id="paint2_linear" x1="18.4474" y1="117.737" x2="39.9147" y2="111.731" gradientUnits="userSpaceOnUse">
<stop stop-color="white"/>
<stop offset="1" stop-color="white" stop-opacity="0"/>
</linearGradient>
<linearGradient id="paint3_linear" x1="40.3426" y1="46.8879" x2="51.91" y2="46.5335" gradientUnits="userSpaceOnUse">
<stop stop-color="white"/>
<stop offset="1" stop-color="white" stop-opacity="0"/>
</linearGradient>
<linearGradient id="paint4_linear" x1="29.2135" y1="73.7594" x2="47.0864" y2="72.2126" gradientUnits="userSpaceOnUse">
<stop stop-color="white"/>
<stop offset="1" stop-color="white" stop-opacity="0"/>
</linearGradient>
<linearGradient id="paint5_linear" x1="-0.704551" y1="57.536" x2="36.4087" y2="78.5316" gradientUnits="userSpaceOnUse">
<stop stop-color="white"/>
<stop offset="1" stop-color="white" stop-opacity="0"/>
</linearGradient>
<linearGradient id="paint6_linear" x1="17.864" y1="56.7274" x2="41.8428" y2="58.0869" gradientUnits="userSpaceOnUse">
<stop stop-color="white"/>
<stop offset="1" stop-color="white" stop-opacity="0"/>
</linearGradient>
</defs>
</svg>
