<svg width="150" height="150" viewBox="0 0 150 150" fill="none" xmlns="http://www.w3.org/2000/svg">
<path d="M61.704 0H23V3.42947H61.704V0Z" fill="#0E0E2C"/>
<path d="M58.7644 33.3147H35.248V36.2542H58.7644V33.3147Z" fill="#0E0E2C"/>
<path d="M23 20.0868L54.845 3.42944H47.9861L23 16.1675V20.0868Z" fill="#0E0E2C"/>
<path d="M35.248 52.9118L54.845 36.2544H50.6241L35.248 48.9924V52.9118Z" fill="#0E0E2C"/>
<path d="M66.6032 18.617C66.9951 16.2654 64.1536 16.0041 62.6838 16.1674C61.5134 16.1674 59.5832 34.1313 58.7644 43.1132C61.0507 42.7866 65.6233 41.7414 65.6233 40.1737C65.6233 38.214 64.6435 27.9256 64.1536 24.0062C63.6636 20.0868 66.1133 21.5565 66.6032 18.617Z" fill="#AA6431"/>
<path d="M66.6032 18.617C66.9951 16.2654 64.1536 16.0041 62.6838 16.1674C61.5134 16.1674 59.5832 34.1313 58.7644 43.1132C61.0507 42.7866 65.6233 41.7414 65.6233 40.1737C65.6233 38.214 64.6435 27.9256 64.1536 24.0062C63.6636 20.0868 66.1133 21.5565 66.6032 18.617Z" fill="url(#paint0_linear)"/>
<path d="M64.1536 19.5968L61.704 0.979736H59.2544L61.704 19.5968H64.1536Z" fill="#0E0E2C"/>
<path d="M67.5831 49.4823C67.5831 47.1307 65.6234 44.2564 64.6435 43.1133L57.7846 45.5629L55.335 57.3211C57.6213 57.811 62.6838 58.4969 64.6435 57.3211C67.0931 55.8513 67.5831 52.4218 67.5831 49.4823Z" fill="#AA6431"/>
<path d="M67.5831 49.4823C67.5831 47.1307 65.6234 44.2564 64.6435 43.1133L57.7846 45.5629L55.335 57.3211C57.6213 57.811 62.6838 58.4969 64.6435 57.3211C67.0931 55.8513 67.5831 52.4218 67.5831 49.4823Z" fill="url(#paint1_linear)"/>
<path d="M48.9659 40.1739C47.79 41.7417 50.109 46.7063 51.4155 48.9926C53.2119 48.6659 57.4906 47.8165 60.2341 47.0326C63.6636 46.0528 66.1132 42.1334 65.6233 40.1739C65.1334 38.2145 57.7845 36.7445 55.8248 36.2545C53.8651 35.7646 50.4356 38.2142 48.9659 40.1739Z" fill="#212226"/>
<path d="M48.9659 40.1739C47.79 41.7417 50.109 46.7063 51.4155 48.9926C53.2119 48.6659 57.4906 47.8165 60.2341 47.0326C63.6636 46.0528 66.1132 42.1334 65.6233 40.1739C65.1334 38.2145 57.7845 36.7445 55.8248 36.2545C53.8651 35.7646 50.4356 38.2142 48.9659 40.1739Z" fill="url(#paint2_linear)"/>
<path d="M122.455 136.199C119.319 136.982 113.636 138.812 111.186 139.628C107.757 141.588 102.074 146.193 106.777 148.937C112.656 152.366 122.455 146.487 126.374 145.507C130.293 144.527 126.374 135.219 122.455 136.199Z" fill="#212226"/>
<path d="M122.455 136.199C119.319 136.982 113.636 138.812 111.186 139.628C107.757 141.588 102.074 146.193 106.777 148.937C112.656 152.366 122.455 146.487 126.374 145.507C130.293 144.527 126.374 135.219 122.455 136.199Z" fill="url(#paint3_linear)"/>
<path d="M57.7845 121.501C52.2974 118.365 44.0667 109.09 40.6372 104.844C45.2098 100.434 55.6289 92.3015 60.7241 95.045C67.0931 98.4745 108.737 132.279 112.166 136.689C115.596 141.098 107.757 151.386 102.368 147.957C96.9784 144.527 64.6435 125.42 57.7845 121.501Z" fill="#31374B"/>
<path d="M57.7845 121.501C52.2974 118.365 44.0667 109.09 40.6372 104.844C45.2098 100.434 55.6289 92.3015 60.7241 95.045C67.0931 98.4745 108.737 132.279 112.166 136.689C115.596 141.098 107.757 151.386 102.368 147.957C96.9784 144.527 64.6435 125.42 57.7845 121.501Z" fill="url(#paint4_linear)"/>
<path d="M66.0627 66.5425C65.2292 64.049 62.2002 60.0561 60.7899 58.3714C56.7927 56.3194 48.4658 52.4651 47.1364 53.464C45.4747 54.7126 43.5404 61.3657 44.0285 64.8988C44.5166 68.432 43.0046 82.5674 42.2471 87.903C41.4896 93.2387 36.9264 104.467 41.0166 107.027C45.1067 109.587 58.2745 99.9445 60.7899 94.0655C63.3054 88.1864 64.41 78.1838 64.41 78.1838C64.8232 75.2734 67.1047 69.6595 66.0627 66.5425Z" fill="#8B99A6"/>
<path d="M66.0627 66.5425C65.2292 64.049 62.2002 60.0561 60.7899 58.3714C56.7927 56.3194 48.4658 52.4651 47.1364 53.464C45.4747 54.7126 43.5404 61.3657 44.0285 64.8988C44.5166 68.432 43.0046 82.5674 42.2471 87.903C41.4896 93.2387 36.9264 104.467 41.0166 107.027C45.1067 109.587 58.2745 99.9445 60.7899 94.0655C63.3054 88.1864 64.41 78.1838 64.41 78.1838C64.8232 75.2734 67.1047 69.6595 66.0627 66.5425Z" fill="url(#paint5_linear)"/>
<path d="M54.8451 31.3549C54.8451 28.2194 57.458 11.4314 58.7645 3.42928C58.9238 2.44943 63.6637 1.46959 64.6436 3.42928C65.6234 5.38898 62.1939 10.2882 61.2141 12.2479C60.2342 14.2076 62.1939 21.5565 62.1939 23.5162C62.1939 25.4758 61.704 40.1736 61.2141 43.1131C60.7242 46.0526 59.7443 49.4821 59.7443 52.9116C59.7443 56.341 61.704 54.8713 63.6637 56.831C65.6234 58.7907 63.6637 61.7302 63.6637 63.6899C63.6637 65.6496 60.7242 70.0589 58.7645 70.0589C56.8048 70.0589 52.3955 69.569 50.4358 67.1194C48.4761 64.6697 47.9862 56.831 48.966 52.9116C49.9458 48.9922 51.9055 49.972 53.8652 45.5627C55.8249 41.1534 54.8451 35.2743 54.8451 31.3549Z" fill="#AA6431"/>
<path d="M54.8451 31.3549C54.8451 28.2194 57.458 11.4314 58.7645 3.42928C58.9238 2.44943 63.6637 1.46959 64.6436 3.42928C65.6234 5.38898 62.1939 10.2882 61.2141 12.2479C60.2342 14.2076 62.1939 21.5565 62.1939 23.5162C62.1939 25.4758 61.704 40.1736 61.2141 43.1131C60.7242 46.0526 59.7443 49.4821 59.7443 52.9116C59.7443 56.341 61.704 54.8713 63.6637 56.831C65.6234 58.7907 63.6637 61.7302 63.6637 63.6899C63.6637 65.6496 60.7242 70.0589 58.7645 70.0589C56.8048 70.0589 52.3955 69.569 50.4358 67.1194C48.4761 64.6697 47.9862 56.831 48.966 52.9116C49.9458 48.9922 51.9055 49.972 53.8652 45.5627C55.8249 41.1534 54.8451 35.2743 54.8451 31.3549Z" fill="url(#paint6_linear)"/>
<defs>
<linearGradient id="paint0_linear" x1="53.5787" y1="30.992" x2="62.3466" y2="30.7233" gradientUnits="userSpaceOnUse">
<stop stop-color="white"/>
<stop offset="1" stop-color="white" stop-opacity="0"/>
</linearGradient>
<linearGradient id="paint1_linear" x1="47.2701" y1="51.2968" x2="60.8173" y2="50.1243" gradientUnits="userSpaceOnUse">
<stop stop-color="white"/>
<stop offset="1" stop-color="white" stop-opacity="0"/>
</linearGradient>
<linearGradient id="paint2_linear" x1="25.5727" y1="38.0199" x2="53.7037" y2="53.9341" gradientUnits="userSpaceOnUse">
<stop stop-color="white"/>
<stop offset="1" stop-color="white" stop-opacity="0"/>
</linearGradient>
<linearGradient id="paint3_linear" x1="73.8449" y1="138.108" x2="107.341" y2="161.713" gradientUnits="userSpaceOnUse">
<stop stop-color="white"/>
<stop offset="1" stop-color="white" stop-opacity="0"/>
</linearGradient>
<linearGradient id="paint4_linear" x1="-57.3279" y1="102.228" x2="61.9044" y2="169.938" gradientUnits="userSpaceOnUse">
<stop stop-color="white"/>
<stop offset="1" stop-color="white" stop-opacity="0"/>
</linearGradient>
<linearGradient id="paint5_linear" x1="30.9973" y1="85.1594" x2="48.7213" y2="86.5559" gradientUnits="userSpaceOnUse">
<stop stop-color="white"/>
<stop offset="1" stop-color="white" stop-opacity="0"/>
</linearGradient>
<linearGradient id="paint6_linear" x1="37.7158" y1="39.6217" x2="55.9145" y2="39.161" gradientUnits="userSpaceOnUse">
<stop stop-color="white"/>
<stop offset="1" stop-color="white" stop-opacity="0"/>
</linearGradient>
</defs>
</svg>
